<svg width="11" height="11" viewBox="0 0 11 11" fill="none" xmlns="http://www.w3.org/2000/svg">
<path fill-rule="evenodd" clip-rule="evenodd" d="M0.86201 0.86201C1.12236 0.601661 1.54447 0.601661 1.80482 0.86201L5.83341 4.89061L9.86201 0.86201C10.1224 0.601661 10.5445 0.601661 10.8048 0.86201C11.0652 1.12236 11.0652 1.54447 10.8048 1.80482L6.77622 5.83341L10.8048 9.86201C11.0652 10.1224 11.0652 10.5445 10.8048 10.8048C10.5445 11.0652 10.1224 11.0652 9.86201 10.8048L5.83341 6.77622L1.80482 10.8048C1.54447 11.0652 1.12236 11.0652 0.86201 10.8048C0.601661 10.5445 0.601661 10.1224 0.86201 9.86201L4.89061 5.83341L0.86201 1.80482C0.601661 1.54447 0.601661 1.12236 0.86201 0.86201Z" fill="#0000C4"/>
</svg>
