<svg width="11" height="11" viewBox="0 0 11 11" fill="none" xmlns="http://www.w3.org/2000/svg">
<path fill-rule="evenodd" clip-rule="evenodd" d="M0.861278 0.861278C1.12163 0.600928 1.54374 0.600928 1.80409 0.861278L5.83268 4.88987L9.86128 0.861278C10.1216 0.600928 10.5437 0.600928 10.8041 0.861278C11.0644 1.12163 11.0644 1.54374 10.8041 1.80409L6.77549 5.83268L10.8041 9.86128C11.0644 10.1216 11.0644 10.5437 10.8041 10.8041C10.5437 11.0644 10.1216 11.0644 9.86128 10.8041L5.83268 6.77549L1.80409 10.8041C1.54374 11.0644 1.12163 11.0644 0.861278 10.8041C0.600928 10.5437 0.600928 10.1216 0.861278 9.86128L4.88987 5.83268L0.861278 1.80409C0.600928 1.54374 0.600928 1.12163 0.861278 0.861278Z" fill="#0000C4"/>
</svg>
