<svg width="25" height="24" viewBox="0 0 25 24" fill="none" xmlns="http://www.w3.org/2000/svg">
<path opacity="0.9" fill-rule="evenodd" clip-rule="evenodd" d="M21.8875 8.88889C21.775 8.77778 21.6625 8.66667 21.4375 8.66667C20.875 8.55556 20.3125 8.44444 19.8625 8.11111C19.4125 7.77778 19.075 7.44444 18.7375 7C18.5125 6.55556 18.4 6 18.4 5.55556C18.4 5 18.5125 4.55556 18.85 4.11111C18.85 4 18.9625 4 18.9625 3.88889C18.9625 3.77778 18.9625 3.77778 18.9625 3.66667C18.9625 3.55556 18.85 3.55556 18.85 3.44444C18.85 3.44444 18.7375 3.33333 18.625 3.33333C16.9375 2.44444 14.9125 2 13 2C11.0875 2 9.0625 2.44444 7.375 3.22222C7.2625 3.22222 7.2625 3.33333 7.15 3.33333C7.15 3.33333 7.0375 3.44444 7.0375 3.55556C7.0375 3.66667 7.0375 3.66667 7.0375 3.77778C7.0375 3.88889 7.0375 3.88889 7.15 4C7.375 4.44444 7.4875 5 7.4875 5.55556H9.5125H7.4875C7.4875 6.33333 7.15 7.11111 6.5875 7.66667C6.1375 8.22222 5.35 8.55556 4.5625 8.66667C4.3375 8.66667 4.225 8.77778 4.1125 8.88889C4 9 4 9.11111 4 9.22222C4.7875 16.3333 9.175 20.5556 12.775 22C12.8875 22 12.8875 22 13 22C13.1125 22 13.1125 22 13.225 22C16.825 20.5556 21.2125 16.4444 22 9.33333C22 9.11111 22 9 21.8875 8.88889ZM10.1875 16.1111L11.9875 11.1111C11.65 10.8889 11.425 10.6667 11.2 10.3333C11.0875 10 10.975 9.55556 11.0875 9.22222C11.2 8.88889 11.425 8.55556 11.65 8.33333C11.9875 8.11111 12.325 8 12.6625 7.88889C13 7.88889 13.45 8 13.7875 8.22222C14.125 8.44444 14.4625 8.66667 14.575 9C14.6875 9.33333 14.6875 9.77778 14.575 10.1111C14.4625 10.4444 14.2375 10.7778 13.9 11L15.8125 16.1111H10.1875Z" fill="#d2eeff"/>
</svg>
