<svg width="180" height="56" viewBox="0 0 180 56" fill="none" xmlns="http://www.w3.org/2000/svg">
<path d="M78.5882 43.6566C78.2871 43.6566 78.0914 43.5063 78.0011 43.2058L68.5164 12.7296L68.4712 12.5493C68.4712 12.2487 68.6368 12.0985 68.968 12.0985H73.4394C73.7706 12.0985 73.9814 12.2487 74.0717 12.5493L80.8465 36.0827C80.8766 36.1728 80.9217 36.2179 80.982 36.2179C81.0422 36.2179 81.0874 36.1728 81.1175 36.0827L87.8471 12.5493C87.9374 12.2487 88.1482 12.0985 88.4794 12.0985H92.8604C93.0411 12.0985 93.1766 12.1586 93.2669 12.2788C93.3572 12.399 93.3723 12.5493 93.3121 12.7296L83.6919 43.2058C83.6016 43.5063 83.4058 43.6566 83.1047 43.6566H78.5882Z" fill="#0000C4"/>
<path d="M100.78 43.6566C100.63 43.6566 100.494 43.6115 100.374 43.5214C100.283 43.4011 100.238 43.2659 100.238 43.1156V12.6395C100.238 12.4892 100.283 12.369 100.374 12.2788C100.494 12.1586 100.63 12.0985 100.78 12.0985H104.935C105.086 12.0985 105.206 12.1586 105.297 12.2788C105.417 12.369 105.477 12.4892 105.477 12.6395V43.1156C105.477 43.2659 105.417 43.4011 105.297 43.5214C105.206 43.6115 105.086 43.6566 104.935 43.6566H100.78Z" fill="#0000C4"/>
<path d="M114.859 43.6566C114.709 43.6566 114.573 43.6115 114.453 43.5214C114.362 43.4011 114.317 43.2659 114.317 43.1156V12.6395C114.317 12.4892 114.362 12.369 114.453 12.2788C114.573 12.1586 114.709 12.0985 114.859 12.0985H125.879C128.017 12.0985 129.899 12.4741 131.525 13.2255C133.151 13.9769 134.401 15.0589 135.274 16.4715C136.177 17.8541 136.629 19.4771 136.629 21.3405V34.4146C136.629 36.278 136.177 37.916 135.274 39.3286C134.401 40.7112 133.151 41.7781 131.525 42.5295C129.899 43.2809 128.017 43.6566 125.879 43.6566H114.859ZM119.556 38.9229C119.556 39.0732 119.632 39.1483 119.782 39.1483H126.105C127.701 39.1483 128.966 38.6524 129.899 37.6606C130.863 36.6387 131.359 35.2862 131.39 33.6031V22.1971C131.39 20.4839 130.908 19.1314 129.944 18.1396C128.981 17.1177 127.686 16.6068 126.06 16.6068H119.782C119.632 16.6068 119.556 16.6819 119.556 16.8322V38.9229Z" fill="#0000C4"/>
<path d="M145.037 43.6566C144.886 43.6566 144.751 43.6115 144.63 43.5214C144.54 43.4011 144.495 43.2659 144.495 43.1156V12.6395C144.495 12.4892 144.54 12.369 144.63 12.2788C144.751 12.1586 144.886 12.0985 145.037 12.0985H149.192C149.343 12.0985 149.463 12.1586 149.553 12.2788C149.674 12.369 149.734 12.4892 149.734 12.6395V43.1156C149.734 43.2659 149.674 43.4011 149.553 43.5214C149.463 43.6115 149.343 43.6566 149.192 43.6566H145.037Z" fill="#0000C4"/>
<path d="M168.781 44.0173C166.433 44.0173 164.385 43.6416 162.639 42.8902C160.892 42.1388 159.537 41.0869 158.574 39.7344C157.64 38.3819 157.174 36.789 157.174 34.9556V33.8285C157.174 33.6782 157.219 33.558 157.309 33.4678C157.43 33.3476 157.565 33.2875 157.716 33.2875H161.735C161.886 33.2875 162.006 33.3476 162.097 33.4678C162.217 33.558 162.277 33.6782 162.277 33.8285V34.6851C162.277 36.0676 162.895 37.2248 164.129 38.1565C165.364 39.0581 167.05 39.509 169.188 39.509C171.024 39.509 172.409 39.1182 173.343 38.3368C174.276 37.5554 174.743 36.5485 174.743 35.3162C174.743 34.4747 174.487 33.7684 173.975 33.1973C173.463 32.5962 172.726 32.0552 171.762 31.5743C170.829 31.0935 169.413 30.4923 167.516 29.771C165.379 28.9896 163.647 28.2532 162.322 27.562C160.998 26.8707 159.884 25.939 158.98 24.7668C158.107 23.5646 157.67 22.0768 157.67 20.3036C157.67 17.6587 158.634 15.5699 160.561 14.037C162.488 12.5042 165.063 11.7378 168.284 11.7378C170.543 11.7378 172.53 12.1285 174.246 12.91C175.992 13.6914 177.347 14.7884 178.311 16.201C179.275 17.5836 179.756 19.1915 179.756 21.0249V21.7913C179.756 21.9416 179.696 22.0768 179.576 22.1971C179.485 22.2872 179.365 22.3323 179.214 22.3323H175.149C174.999 22.3323 174.863 22.2872 174.743 22.1971C174.653 22.0768 174.607 21.9416 174.607 21.7913V21.2954C174.607 19.8828 174.02 18.6956 172.846 17.7338C171.702 16.742 170.106 16.2461 168.058 16.2461C166.402 16.2461 165.108 16.5917 164.174 17.283C163.271 17.9743 162.819 18.9511 162.819 20.2134C162.819 21.1151 163.06 21.8514 163.542 22.4225C164.024 22.9935 164.746 23.5195 165.71 24.0004C166.673 24.4512 168.164 25.0373 170.181 25.7586C172.319 26.5701 174.02 27.3065 175.285 27.9677C176.58 28.6289 177.679 29.5606 178.582 30.7628C179.515 31.935 179.982 33.4077 179.982 35.181C179.982 37.886 178.973 40.0349 176.956 41.6279C174.969 43.2208 172.244 44.0173 168.781 44.0173Z" fill="#0000C4"/>
<path d="M78.5882 43.6566C78.2871 43.6566 78.0914 43.5063 78.0011 43.2058L68.5164 12.7296L68.4712 12.5493C68.4712 12.2487 68.6368 12.0985 68.968 12.0985H73.4394C73.7706 12.0985 73.9814 12.2487 74.0717 12.5493L80.8465 36.0827C80.8766 36.1728 80.9217 36.2179 80.982 36.2179C81.0422 36.2179 81.0874 36.1728 81.1175 36.0827L87.8471 12.5493C87.9374 12.2487 88.1482 12.0985 88.4794 12.0985H92.8604C93.0411 12.0985 93.1766 12.1586 93.2669 12.2788C93.3572 12.399 93.3723 12.5493 93.3121 12.7296L83.6919 43.2058C83.6016 43.5063 83.4058 43.6566 83.1047 43.6566H78.5882Z" fill="#0000C4"/>
<path d="M78.5882 43.6566C78.2871 43.6566 78.0914 43.5063 78.0011 43.2058L68.5164 12.7296L68.4712 12.5493C68.4712 12.2487 68.6368 12.0985 68.968 12.0985H73.4394C73.7706 12.0985 73.9814 12.2487 74.0717 12.5493L80.8465 36.0827C80.8766 36.1728 80.9217 36.2179 80.982 36.2179C81.0422 36.2179 81.0874 36.1728 81.1175 36.0827L87.8471 12.5493C87.9374 12.2487 88.1482 12.0985 88.4794 12.0985H92.8604C93.0411 12.0985 93.1766 12.1586 93.2669 12.2788C93.3572 12.399 93.3723 12.5493 93.3121 12.7296L83.6919 43.2058C83.6016 43.5063 83.4058 43.6566 83.1047 43.6566H78.5882Z" fill="#0000C4"/>
<path d="M78.5882 43.6566C78.2871 43.6566 78.0914 43.5063 78.0011 43.2058L68.5164 12.7296L68.4712 12.5493C68.4712 12.2487 68.6368 12.0985 68.968 12.0985H73.4394C73.7706 12.0985 73.9814 12.2487 74.0717 12.5493L80.8465 36.0827C80.8766 36.1728 80.9217 36.2179 80.982 36.2179C81.0422 36.2179 81.0874 36.1728 81.1175 36.0827L87.8471 12.5493C87.9374 12.2487 88.1482 12.0985 88.4794 12.0985H92.8604C93.0411 12.0985 93.1766 12.1586 93.2669 12.2788C93.3572 12.399 93.3723 12.5493 93.3121 12.7296L83.6919 43.2058C83.6016 43.5063 83.4058 43.6566 83.1047 43.6566H78.5882Z" fill="#0000C4"/>
<g clip-path="url(#clip0_328_786)">
<path d="M23.299 12.8224L22.4345 0.00750084L26.5378 12.1773H29.4641L33.5724 0.000488281L30.9868 0.00149008L28.0415 8.86436L25.0662 0.00149008L22.4335 0.00249187V0.000488281L20.0452 0.990261L20.7154 10.3059L14.5754 3.25632L12.1431 4.26412L20.5952 13.9435L23.299 12.8224Z" fill="#0000C4"/>
<path d="M17.8465 15.7793L12.1422 4.26465L10.314 6.09292L14.4975 14.4429L6.12747 10.2804L4.26514 12.1438L15.7777 17.85L17.8465 15.7793Z" fill="#0000C4"/>
<path d="M13.9434 20.5977L4.26507 12.1426L3.2753 14.5319L10.3369 20.6448L1.01025 20.0017L0.00244141 22.434L12.8234 23.3016L13.9434 20.5977Z" fill="#0000C4"/>
<path d="M12.8254 32.7052L0.0234791 33.5688L12.1792 29.4704V26.5432L0.00244141 22.4348L0.0034432 25.0214L8.86631 27.9667L0.0034432 30.9421L0.00444499 33.5698L0.0034432 33.5708L0.00444499 33.5718V33.5758L0.00544679 33.5748L0.993216 35.959L10.3089 35.2878L3.25927 41.4278L4.26708 43.8612L13.9454 35.4081L12.8254 32.7052Z" fill="#0000C4"/>
<path d="M15.7798 38.1553L4.26514 43.8605L6.09341 45.6888L14.4434 41.5043L10.2809 49.8743L12.1442 51.7376L17.8495 40.225L15.7798 38.1553Z" fill="#0000C4"/>
<path d="M20.6006 42.0601L12.1455 51.7384L14.5348 52.7282L20.6477 45.6655L20.0036 54.9922L22.4369 56.001L23.3045 43.1801L20.6006 42.0601Z" fill="#0000C4"/>
<path d="M32.7099 43.1786L33.5755 55.9926L29.4721 43.8238H26.5449L22.4365 56.0006L25.0222 55.9996L27.9684 47.1367L30.9428 55.9986H33.5755V56.0006L35.9637 55.0108L35.2935 45.6941L41.4335 52.7447L43.8669 51.7369L35.4138 42.0576L32.7099 43.1786Z" fill="#0000C4"/>
<path d="M38.1641 40.2213L43.8693 51.737L45.6976 49.9077L41.5131 41.5577L49.883 45.7212L51.7464 43.8578L40.2328 38.1516L38.1641 40.2213Z" fill="#0000C4"/>
<path d="M56.0069 33.5653L43.1859 32.6987L42.0669 35.4026L51.7452 43.8577L52.734 41.4684L45.6724 35.3555L54.999 35.9986L56.0069 33.5653Z" fill="#0000C4"/>
<path d="M43.1845 23.2961L55.9864 22.4326L43.8306 26.5309L43.8316 29.4571L56.0074 33.5655V30.9799L47.1445 28.0346L56.0064 25.0593V22.4306H56.0074L56.0064 22.4286V22.4256H56.0054L55.0176 20.0423L45.701 20.7125L52.7516 14.5725L51.7438 12.1401L42.0645 20.5923L43.1845 23.2961Z" fill="#0000C4"/>
<path d="M40.2269 17.8447L51.7425 12.1405L49.9133 10.3123L41.5633 14.4958L45.7268 6.12576L43.8624 4.26343L38.1572 15.776L40.2269 17.8447Z" fill="#0000C4"/>
<path d="M35.4104 13.9415L43.8645 4.26312L41.4762 3.27335L35.3623 10.335L36.0064 1.00829L33.5731 0.000488281L32.7065 12.8214L35.4104 13.9415Z" fill="#0000C4"/>
</g>
<defs>
<clipPath id="clip0_328_786">
<rect width="56.0046" height="56" fill="white"/>
</clipPath>
</defs>
</svg>
