<svg width="20" height="20" viewBox="0 0 20 20" fill="none" xmlns="http://www.w3.org/2000/svg">
<path fill-rule="evenodd" clip-rule="evenodd" d="M8.875 1.75C4.93997 1.75 1.75 4.93997 1.75 8.875C1.75 12.81 4.93997 16 8.875 16C10.8197 16 12.5825 15.2209 13.8682 13.9577C13.8817 13.9417 13.896 13.9262 13.9111 13.9111C13.9262 13.896 13.9417 13.8817 13.9577 13.8682C15.2209 12.5825 16 10.8197 16 8.875C16 4.93997 12.81 1.75 8.875 1.75ZM15.4812 14.4205C16.7411 12.9212 17.5 10.9867 17.5 8.875C17.5 4.11154 13.6385 0.25 8.875 0.25C4.11154 0.25 0.25 4.11154 0.25 8.875C0.25 13.6385 4.11154 17.5 8.875 17.5C10.9867 17.5 12.9212 16.7411 14.4205 15.4812L18.4673 19.528C18.7602 19.8209 19.2351 19.8209 19.528 19.528C19.8209 19.2351 19.8209 18.7602 19.528 18.4673L15.4812 14.4205Z" fill="#0000C4"/>
</svg>
