<svg width="18" height="20" viewBox="0 0 18 20" fill="none" xmlns="http://www.w3.org/2000/svg">
<path fill-rule="evenodd" clip-rule="evenodd" d="M0.43934 1.18934C0.720644 0.908036 1.10217 0.75 1.5 0.75H16.5C16.8978 0.75 17.2794 0.908035 17.5607 1.18934C17.842 1.47065 18 1.85218 18 2.25V7.75312C18 16.1427 10.8771 18.9192 9.48043 19.3836C9.16981 19.4948 8.83019 19.4948 8.51958 19.3836C7.12289 18.9192 0 16.1427 0 7.75312V2.25C0 1.85217 0.158036 1.47064 0.43934 1.18934ZM16.5 2.25H1.5L1.5 7.75312C1.5 15.0901 7.70602 17.534 9 17.9626C10.294 17.534 16.5 15.0901 16.5 7.75312V2.25ZM6.92902 4.46139C7.52126 4.00113 8.24995 3.75128 9 3.75128C9.75006 3.75128 10.4787 4.00113 11.071 4.46139C11.6632 4.92164 12.0853 5.56606 12.2705 6.29288C12.4557 7.01971 12.3935 7.78753 12.0938 8.47508C11.8871 8.94909 11.5757 9.36632 11.1863 9.6974L12.2386 12.1526C12.3371 12.3797 12.378 12.6276 12.3574 12.8743C12.3368 13.1221 12.255 13.3607 12.1193 13.569C11.9835 13.7772 11.7982 13.9484 11.5799 14.0673C11.3616 14.1862 11.1172 14.2489 10.8686 14.2499L10.8656 14.2499H7.13438L7.13137 14.2499C6.88281 14.2489 6.6384 14.1862 6.4201 14.0673C6.20181 13.9484 6.01647 13.7772 5.88075 13.569C5.74502 13.3607 5.66317 13.122 5.64256 12.8743C5.62202 12.6276 5.66287 12.3797 5.76144 12.1526L6.81367 9.6974C6.42434 9.36632 6.11289 8.94909 5.90624 8.47508C5.60648 7.78753 5.5443 7.01971 5.72952 6.29288C5.91473 5.56606 6.33678 4.92164 6.92902 4.46139ZM9 5.25128C8.5833 5.25128 8.17848 5.39009 7.84946 5.64578C7.52043 5.90148 7.28596 6.25949 7.18306 6.66328C7.08017 7.06708 7.11471 7.49364 7.28124 7.87561C7.44777 8.25759 7.7368 8.5732 8.10268 8.77262C8.4424 8.95778 8.58552 9.37098 8.43311 9.7266L7.13741 12.7499L10.8626 12.7499L10.8606 12.7454L9.56689 9.7266C9.41448 9.37098 9.5576 8.95778 9.89732 8.77262C10.2632 8.5732 10.5522 8.25759 10.7188 7.87561C10.8853 7.49364 10.9198 7.06708 10.8169 6.66328C10.714 6.25949 10.4796 5.90148 10.1505 5.64578C9.82152 5.39009 9.4167 5.25128 9 5.25128Z" fill="#0000C4"/>
</svg>
