<svg width="24" height="20" viewBox="0 0 24 20" fill="none" xmlns="http://www.w3.org/2000/svg">
<path fill-rule="evenodd" clip-rule="evenodd" d="M10.7146 0.340589C11.1063 0.11718 11.5498 0 12.0006 0C12.4513 0 12.8948 0.11718 13.2865 0.340589C13.6784 0.564041 14.0053 0.886259 14.2334 1.27601L22.9364 16.1454C23.1649 16.5359 23.2859 16.9799 23.2863 17.4326C23.2867 17.8853 23.1664 18.3295 22.9385 18.7203C22.7107 19.1111 22.3836 19.4342 21.9913 19.6584C21.5991 19.8825 21.155 20 20.7035 20H3.29763C2.84615 20 2.40201 19.8824 2.00978 19.6584C1.61748 19.4342 1.29042 19.1111 1.06258 18.7203C0.834694 18.3295 0.714466 17.8853 0.714845 17.4326C0.715223 16.9799 0.836193 16.5359 1.06473 16.1454L9.76766 1.27602C9.99578 0.886259 10.3227 0.56404 10.7146 0.340589ZM12.0006 2C11.8962 2 11.7944 2.02716 11.7053 2.07796C11.6163 2.12872 11.5437 2.20094 11.4937 2.28628L2.79081 17.1557C2.74083 17.2411 2.71493 17.3371 2.71484 17.4343C2.71476 17.5314 2.74051 17.6274 2.79034 17.7129C2.84022 17.7985 2.91283 17.8709 3.00193 17.9218C3.09112 17.9727 3.19314 18 3.29763 18H20.7035C20.808 18 20.91 17.9727 20.9992 17.9218C21.0883 17.8709 21.1609 17.7985 21.2108 17.7129C21.2606 17.6275 21.2864 17.5314 21.2863 17.4343C21.2862 17.3371 21.2603 17.2411 21.2103 17.1557L12.5074 2.28628C12.4574 2.20094 12.3848 2.12872 12.2958 2.07796C12.2067 2.02716 12.1049 2 12.0006 2ZM12.0006 7.04377C12.5529 7.04377 13.0006 7.49149 13.0006 8.04377V11.957C13.0006 12.5093 12.5529 12.957 12.0006 12.957C11.4483 12.957 11.0006 12.5093 11.0006 11.957V8.04377C11.0006 7.49149 11.4483 7.04377 12.0006 7.04377Z" fill="#0000C4"/>
<path d="M12.0005 16C11.4482 16 11.0005 15.5523 11.0005 15C11.0005 14.4477 11.4482 14 12.0005 14C12.5528 14 13.0005 14.4477 13.0005 15C13.0005 15.5523 12.5528 16 12.0005 16Z" fill="#0000C4"/>
</svg>
