<svg width="19" height="24" viewBox="0 0 19 24" fill="none" xmlns="http://www.w3.org/2000/svg">
<g clip-path="url(#clip0_634_21503)">
<path d="M17.7855 1.23776L17.669 1.47229C17.3159 1.88966 17.1246 2.162 17.0136 2.28641L16.2351 2.00098L16.3927 2.24503C16.394 2.24727 16.5423 2.48247 16.5803 3.03271C16.6026 3.3574 16.4026 3.66399 16.2548 3.83176C16.0878 4.02121 15.7463 4.03456 15.5729 4.04434C15.4216 4.05293 15.2363 3.96436 15.0938 3.81761C14.9044 3.62274 14.8049 3.34921 14.8135 3.04725C14.8319 2.40156 15.0779 2.05756 15.0947 2.04712L15.3446 1.89495L15.0544 1.85873C14.9215 1.84206 14.5796 1.86904 14.3998 1.84841C14.1666 1.17641 13.7622 0.747667 13.7446 0.729292L13.6708 0.652084L13.5971 0.72916C13.2266 1.11639 13.0586 1.47347 12.9571 1.61718L11.9843 1.4309L12.2364 1.65909C12.24 1.6624 12.5086 1.99793 12.5086 2.51406C12.5086 2.97691 12.1082 3.51406 11.5348 3.53416C11.3245 3.54196 11.1214 3.44545 10.9614 3.26499C10.765 3.04328 10.5776 2.7043 10.6115 2.42443C10.6726 1.91887 10.8764 1.64653 10.8896 1.63794L11.1703 1.45854L10.3196 1.51591C10.1845 1.15103 9.61108 0.537991 9.54128 0.464353L9.46605 0.384766L9.39202 0.465542C9.01761 0.873924 8.77105 1.31774 8.69001 1.47361C8.5627 1.47497 8.46804 1.39865 8.07274 1.42218L7.75638 1.44094L8.02436 1.6103C8.27938 1.77132 8.28229 2.18407 8.30714 2.52093C8.33054 2.8365 8.18036 3.1058 7.9835 3.31786C7.82949 3.48365 7.62814 3.57487 7.41635 3.57487C7.20469 3.57487 7.0032 3.48365 6.84932 3.31786C6.65246 3.1058 6.4211 2.802 6.4445 2.48642C6.46553 2.20337 6.45747 1.90261 6.6522 1.7314L6.89982 1.51366L6.57248 1.55345C6.35117 1.58042 6.38382 1.62497 6.18803 1.65948C5.75373 1.03891 5.40855 0.737745 5.39281 0.7236L5.3156 0.654587L5.24778 0.732853C5.01153 1.00533 4.64652 1.69306 4.54577 1.88661C4.41714 1.89837 4.25043 1.84972 3.83676 1.90697L3.51497 1.95139L3.80437 2.09893C4.08068 2.23973 4.11108 2.64057 4.15617 3.01379C4.22227 3.56112 3.93525 4.04763 3.51629 4.09827C3.49289 4.10105 3.46909 4.10249 3.44543 4.10249C3.05331 4.10249 2.56653 3.75982 2.50519 3.25228C2.46341 2.90577 2.35474 2.60659 2.57301 2.27317L2.80873 2.03798L2.48179 2.10077C2.21368 2.1522 2.14691 2.23523 1.93261 2.29327C1.54961 1.65683 1.35857 1.47967 1.3435 1.47227L1.1875 1.39506L1.19636 1.56891C1.20019 1.60104 1.22822 2.11558 1.27396 2.94279L1.2726 2.94337L1.27435 2.94734C1.31547 3.69086 1.37099 4.68623 1.43617 5.81117L1.43559 5.8113C1.43559 5.8113 1.95013 14.2768 2.12861 15.6084C2.30721 16.9399 2.35811 18.7489 3.40795 20.4443C4.65928 22.4649 7.70423 23.7325 9.739 23.6541C12.1787 23.5601 14.6339 22.2987 15.814 20.1866C17.014 18.0391 17.0283 14.3202 17.0682 13.7931C17.1073 13.2757 17.5298 6.05958 17.5456 5.78936V5.78922C17.5457 5.7842 17.5461 5.78128 17.5461 5.78128H17.546C17.6204 4.34633 17.6799 3.1155 17.7199 2.33998L17.7251 2.32635L17.7209 2.3248C17.7459 1.84159 17.7635 1.53831 17.7723 1.47763L17.7855 1.23781" fill="#FFCC00"/>
<path d="M17.448 5.17618C12.879 3.97668 8.7707 4.04913 6.11669 4.32544C3.72509 4.57425 2.05521 5.02784 1.52494 5.1853C1.48448 4.53274 1.4472 3.93015 1.41415 3.40212L2.01991 4.7953L2.10254 4.77797C2.1143 4.77546 3.29516 4.52797 4.68332 4.32371L4.75259 4.31353L5.32359 1.93741L6.02441 4.15079L6.11206 4.13743C6.12012 4.13607 6.93847 4.01237 8.81433 3.88994L8.88863 3.88519L9.48593 1.6229L10.0501 3.97073L10.1292 3.97297C10.1434 3.97336 11.5687 4.01567 12.8335 4.13809L12.916 4.14602L13.6488 1.91082L14.1438 4.29356L14.2165 4.30321C14.2289 4.30497 15.4706 4.47151 16.797 4.73672L16.8832 4.75404L17.5815 2.89206C17.542 3.51964 17.497 4.3015 17.448 5.17617V5.17618ZM9.51251 4.64035C5.43596 4.61894 2.39035 5.41032 1.55402 5.65291C1.54873 5.56685 1.54345 5.48184 1.53816 5.39723C1.99955 5.25775 3.68292 4.7867 6.1381 4.53128C8.78286 4.25603 12.881 4.18411 17.4362 5.38705C17.4319 5.46531 17.4274 5.54411 17.423 5.62382C16.5765 5.39392 13.5679 4.66164 9.51251 4.64035ZM16.9424 13.8303C16.903 14.3513 16.9288 18.0405 15.7182 20.1485C14.4293 22.3929 11.8586 23.5354 9.68318 23.5354C7.67419 23.5354 4.75418 22.4008 3.51965 20.4032C2.48382 18.7272 2.43371 16.939 2.25748 15.6226C2.08126 14.3063 1.57359 5.93781 1.57359 5.93781C1.57359 5.93781 4.85783 4.85823 9.53921 4.88295C14.2207 4.90754 17.414 5.91031 17.414 5.91031C17.414 5.91031 16.9818 13.3093 16.9424 13.8303ZM1.84659 2.32636L1.88691 2.39617L1.96452 2.37422C2.12356 2.32927 2.30098 2.28565 2.49426 2.244C2.35717 2.48448 2.29913 2.78617 2.33668 3.09633C2.41243 3.72351 2.85333 4.19654 3.36232 4.19654C3.39458 4.19654 3.4271 4.19455 3.4591 4.19072C3.99717 4.12567 4.36933 3.5289 4.28868 2.86047C4.2477 2.52189 4.09659 2.21848 3.87713 2.01594C4.27308 1.9665 4.54926 1.94349 4.55257 1.94323L4.60994 1.93846L4.63625 1.88716C4.64034 1.8791 5.01727 1.14444 5.27864 0.792903C5.41428 0.928413 5.70817 1.24187 6.03181 1.71239L6.06975 1.76765L6.13572 1.75548C6.26832 1.73129 6.40846 1.70855 6.55468 1.68766C6.4279 1.87315 6.34897 2.09869 6.33139 2.33639C6.30349 2.71371 6.42433 3.07754 6.66309 3.33454C6.85875 3.54528 7.11695 3.66135 7.38982 3.66135C7.66282 3.66135 7.92102 3.54528 8.11668 3.33454C8.35545 3.07754 8.47628 2.71371 8.44839 2.33639C8.42578 2.03113 8.30441 1.75152 8.11259 1.54726C8.49109 1.52994 8.74254 1.52955 8.74545 1.52955H8.8105L8.83879 1.47098C8.84116 1.46582 9.07636 0.98182 9.47139 0.524522C9.70037 0.776506 10.1135 1.26712 10.1546 1.48658L10.1701 1.56881L10.8094 1.5852C10.6897 1.72798 10.5528 1.95789 10.5125 2.29025C10.4714 2.63121 10.5933 3.00945 10.8306 3.2773C11.0266 3.49861 11.2799 3.6205 11.5437 3.6205C11.5539 3.6205 11.5639 3.6203 11.5742 3.61992C12.1875 3.5985 12.6157 3.11331 12.6157 2.44025C12.6157 2.09493 12.4879 1.82576 12.372 1.65258L12.9751 1.74538L13.0118 1.69131C13.015 1.68656 13.3238 1.23441 13.7302 0.794167C13.8598 0.952416 14.1341 1.32656 14.2973 1.83052L14.3178 1.89398L14.384 1.90151C14.3893 1.90209 14.7723 1.94594 15.0428 1.97753C14.8901 2.14372 14.6989 2.44409 14.6855 2.91341C14.6751 3.27605 14.7969 3.60683 15.0282 3.84493C15.2161 4.03821 15.4616 4.14953 15.6744 4.13724C15.8898 4.12495 16.1919 4.05871 16.4084 3.81307C16.5963 3.59982 16.678 3.29575 16.6514 2.90918C16.6304 2.60471 16.5778 2.38525 16.5289 2.23943L16.9937 2.39438L17.0391 2.34401C17.0422 2.34044 17.3141 2.03808 17.673 1.61952C17.6598 1.76111 17.6451 1.94898 17.629 2.17611L16.7511 4.51679C15.6344 4.29628 14.5954 4.14702 14.3166 4.10815L13.6937 1.10947L12.771 3.92425C11.6926 3.82338 10.5247 3.77922 10.2144 3.76878L9.49531 0.776446L8.72654 3.6884C7.23249 3.78742 6.42207 3.88657 6.16863 3.92055L5.29621 1.16553L4.58402 4.1293C3.42961 4.30104 2.42987 4.49987 2.14259 4.55844L1.37593 2.79535C1.34447 2.29667 1.31829 1.89622 1.29912 1.62586C1.43265 1.74234 1.63426 1.95743 1.84658 2.32642L1.84659 2.32636ZM17.9067 1.02441L17.7109 1.25577C17.3528 1.67909 17.0429 2.02877 16.9303 2.15503L16.0949 1.877L16.2547 2.12449C16.2561 2.12686 16.4065 2.36523 16.4449 2.9234C16.4677 3.25273 16.4032 3.50603 16.2531 3.67605C16.0838 3.86827 15.8385 3.92049 15.6627 3.93054C15.5092 3.93926 15.3212 3.84937 15.1767 3.70064C14.9846 3.50299 14.8836 3.22549 14.8925 2.91917C14.9111 2.26436 15.3224 2.00114 15.3394 1.99056L15.5929 1.83628L15.2986 1.79953C15.1637 1.78261 14.6552 1.72417 14.4728 1.70328C14.2363 1.02176 13.8261 0.586941 13.8082 0.568169L13.7336 0.489901L13.6586 0.568169C13.283 0.960817 12.981 1.37515 12.8782 1.52097L11.7941 1.35439L12.0499 1.58588C12.0535 1.58906 12.4089 1.91679 12.4089 2.44019C12.4089 2.90979 12.1485 3.39273 11.567 3.41309C11.3536 3.42101 11.1478 3.32306 10.9855 3.14009C10.7862 2.91521 10.6837 2.5991 10.7181 2.31513C10.7801 1.80243 11.1058 1.58416 11.1193 1.57544L11.404 1.39339L10.3344 1.36603C10.1973 0.995983 9.61576 0.374223 9.54503 0.299527L9.46875 0.21875L9.39365 0.300716C9.01396 0.714915 8.76396 1.16507 8.6816 1.32319C8.55256 1.32455 8.23845 1.33059 7.8376 1.35439L7.51661 1.37357L7.78842 1.54517C8.04714 1.70858 8.21663 2.01014 8.24201 2.35175C8.26568 2.67182 8.16468 2.97867 7.96505 3.19377C7.80891 3.3618 7.60465 3.45435 7.38982 3.45435C7.17512 3.45435 6.97086 3.3618 6.81473 3.19377C6.6151 2.97867 6.51409 2.67182 6.53776 2.35175C6.55904 2.0646 6.68451 1.80046 6.88202 1.62687L7.13321 1.40609L6.80124 1.44641C6.57676 1.47365 6.36285 1.50511 6.16415 1.54015C5.72364 0.910849 5.35347 0.576767 5.33747 0.562488L5.25907 0.49242L5.19032 0.571875C4.95077 0.848184 4.58059 1.5457 4.47827 1.74202C4.34778 1.75392 4.00709 1.78737 3.58747 1.84527L3.26119 1.89049L3.55468 2.04001C3.83496 2.18293 4.03749 2.50683 4.08311 2.88533C4.15027 3.44046 3.85915 3.93385 3.43424 3.98515C3.41045 3.98805 3.38625 3.98951 3.36232 3.98951C2.96452 3.98951 2.60426 3.58628 2.54212 3.07148C2.49969 2.72007 2.60399 2.37132 2.81433 2.16151L3.05336 1.92301L2.72166 1.98673C2.44984 2.03882 2.20249 2.09501 1.98514 2.15384C1.59686 1.50815 1.24572 1.32928 1.23038 1.32174L1.07227 1.24361L1.08126 1.41984C1.08509 1.45249 1.11339 1.97431 1.15992 2.81328L1.15856 2.81386L1.16031 2.81769C1.20196 3.57192 1.25828 4.58144 1.32438 5.72238C1.32438 5.72251 1.32379 5.72257 1.32379 5.72257C1.32379 5.72257 1.84561 14.3085 2.02673 15.6591C2.20785 17.0098 2.25954 18.8446 3.32432 20.5641C4.59349 22.6135 7.6818 23.8572 9.74566 23.7776C12.22 23.6824 14.7102 22.4449 15.9072 20.3028C17.1243 18.1246 17.1387 14.3525 17.1792 13.8179C17.2189 13.2933 17.6474 5.97429 17.6634 5.70023V5.7001C17.6638 5.69494 17.664 5.69204 17.664 5.69204C17.7395 4.23659 17.7996 2.98831 17.8405 2.20169L17.8456 2.18794L17.8413 2.18619C17.8666 1.69611 17.8844 1.38846 17.8935 1.32699L17.9068 1.02424" fill="#231F20"/>
<path d="M6.11114 17.3627C6.08536 17.348 6.07135 17.2612 6.07836 17.199C6.07836 17.199 6.20474 17.1291 6.34356 17.1444C6.27785 17.308 6.14724 17.3836 6.11114 17.3627ZM13.8622 20.1437C13.8369 19.8391 13.6669 18.8598 13.2075 18.589C13.2204 18.5828 13.2382 18.5795 13.2571 18.5795C13.9391 18.5761 14.4753 17.5595 13.6669 17.1111C12.7363 16.595 10.9278 17.6036 10.0613 17.8766C9.84976 17.9437 9.45275 18.158 9.17353 17.7051C8.89603 17.2527 9.44957 16.864 9.37964 16.7528C9.33932 16.6908 8.65132 16.9638 8.63136 17.4715C8.61259 17.9477 8.79437 18.3633 9.20539 18.3611C9.56948 18.3583 10.457 18.0881 11.1859 17.7288C12.1086 17.2741 13.0106 17.1337 13.3538 17.3667C13.6469 17.5663 13.5421 17.7931 13.4948 17.946C13.2883 18.6151 12.2306 17.837 11.1279 18.3381C9.46346 19.0929 8.54847 18.7904 8.13863 18.5873C8.10532 18.158 7.87079 17.4552 7.64538 17.3214C7.64538 17.3214 7.70077 17.2764 7.72113 17.0434C7.56949 17.0192 7.27745 17.0885 7.27745 17.0885C7.27745 17.0885 6.932 16.9414 6.77388 16.9414C6.13811 16.9414 5.44192 17.1353 5.4291 17.1974C5.41561 17.2606 5.53447 17.8225 5.53447 17.8225L5.75075 17.7649C5.89116 17.6735 5.84925 17.8327 5.8696 17.9347C5.14724 18.0819 4.80509 17.9318 4.69906 17.5262C4.41403 18.6348 5.60123 18.1271 5.87238 18.096C5.83259 18.2986 5.6943 18.3611 5.59528 18.1732C5.60124 18.4079 5.6475 18.5412 5.72656 18.611C5.80615 18.6804 6.04451 18.4937 6.11114 18.4316C6.11523 18.423 6.44906 18.259 6.19404 19.0026C6.16125 19.0984 4.84489 18.947 4.78143 18.7921C4.30629 17.6329 3.129 19.0972 3.74058 18.9912C4.17686 18.9156 4.36155 18.9531 4.39632 19.1278C4.56898 19.3737 6.33007 20.3259 6.44258 20.5989C6.43279 20.6158 6.4135 20.6288 6.38441 20.6378C6.237 20.6835 5.8938 20.89 5.70832 21.0931C4.59581 21.0068 4.77495 21.5049 4.77495 21.6143L6.84924 21.5861C7.00842 21.5861 8.53512 21.2459 8.94561 21.0581C8.94561 21.0581 8.90674 20.8065 8.96703 20.7975C10.4624 20.5589 10.5109 19.7038 11.1134 19.6727C11.0934 19.8989 10.8536 20.524 10.8675 20.9368C9.76158 20.9921 9.94772 21.515 9.94772 21.515H11.5313C11.5313 21.515 12.0101 20.0761 12.408 19.922C12.435 19.9119 12.4609 19.9067 12.4867 19.9067C12.6233 20.1099 13.2571 20.7783 13.5701 20.8652C12.8024 20.951 12.7514 21.4136 12.7514 21.4136H14.2026L14.4287 20.3598C14.2318 20.194 14.0434 20.1217 13.8622 20.1437" fill="#231F20"/>
<path d="M5.86505 17.9677C5.86505 17.9677 4.92211 18.2637 4.70184 17.6484C4.70184 17.6484 4.49135 18.434 5.58361 18.125C5.64861 18.1053 5.86505 18.0559 5.86505 18.0559C5.86505 18.0559 5.86505 18.0339 5.86505 17.9677Z" fill="#FF0000"/>
<path d="M5.60527 12.06C5.57128 12.0419 5.5541 11.9471 5.56269 11.8761C5.56269 11.8761 5.72492 11.7979 5.90435 11.8149C5.81814 11.999 5.65048 12.0837 5.60527 12.06ZM15.0121 15.0959C14.9776 14.738 14.6943 13.7523 14.405 13.3767C14.9087 13.3245 15.4053 12.2285 14.3619 11.728C13.1603 11.1514 11.4014 12.2863 10.2817 12.592C10.0103 12.6664 9.49674 12.9059 9.13909 12.3998C8.78024 11.8948 9.49409 11.4598 9.40352 11.3359C9.35288 11.2666 8.4645 11.5716 8.43925 12.1388C8.41545 12.6713 8.94234 13.0838 9.47201 13.0804C9.94126 13.0783 10.7951 12.8277 11.7326 12.4262C12.9233 11.9169 13.7223 11.8067 14.1662 12.0682C14.5434 12.2913 14.5434 12.5154 14.4819 12.6878C14.2147 13.4346 13.1145 12.6515 11.6896 13.2115C9.54526 14.0551 8.51567 13.4814 7.98666 13.2549C7.94409 12.7754 7.61976 11.9471 7.32927 11.7979C7.32927 11.7979 7.45752 11.7368 7.48344 11.4747C7.28736 11.4488 6.85143 11.5975 6.85143 11.5975C6.85143 11.5975 6.5271 11.51 6.32176 11.51C5.5024 11.51 4.70009 11.8761 4.68343 11.9471C4.66624 12.016 4.81975 12.6438 4.81975 12.6438C4.97273 12.2951 5.2217 12.5831 5.24748 12.696C4.31706 12.8624 4.18774 12.4262 4.05196 11.9725C3.68399 13.2115 4.9049 12.9845 5.25449 12.9494C5.20438 13.1762 5.02443 13.246 4.89736 13.0364C4.9049 13.2985 4.96519 13.4461 5.06753 13.5254C5.17 13.6041 5.47754 13.3944 5.56269 13.3245C5.53744 13.3944 5.51099 13.6124 5.48561 13.7782C5.36608 13.7429 4.51261 13.6041 4.3074 13.63C3.88113 12.9152 2.80579 13.194 2.86569 13.918C3.51435 13.6383 3.7702 13.8568 3.7616 14.1967C4.00092 14.4934 5.18719 15.1918 5.68182 15.4175C5.49486 15.5051 4.88004 15.8982 4.64033 16.1246C3.20615 16.0282 3.34353 16.5349 3.34353 16.6577H5.7162C5.92101 16.6577 7.53408 16.2474 8.06362 16.0376C8.06362 16.0376 8.10513 15.9154 8.12245 15.846C10.0781 15.8289 10.8626 14.6338 11.6384 14.5981C11.6141 14.8515 11.5533 15.5486 11.571 16.0111C10.1459 16.0717 10.3841 16.6577 10.3841 16.6577H12.3053C12.3053 16.6577 12.647 15.592 13.1835 14.9903C13.552 15.3493 14.6016 15.9417 15.037 16.0464C14.0467 16.1422 14.2513 16.6577 14.2513 16.6577H15.873L15.9162 15.3658C15.9162 15.3658 15.0191 15.0959 15.0121 15.0959Z" fill="#231F20"/>
<path d="M4.87337 12.7871C4.98801 12.7863 5.12197 12.7723 5.25713 12.7431C5.25713 12.7431 5.2585 12.834 5.257 12.9118C5.25501 12.9124 5.04321 12.9533 4.80334 12.9533C4.48722 12.9533 4.26852 12.8826 4.14753 12.7325C4.04983 12.6112 4.0219 12.3535 4.06373 12.1426C4.06373 12.1426 4.14965 12.7916 4.87336 12.7871" fill="#FF0000"/>
<path d="M5.44206 6.29579C5.40676 6.27636 5.38878 6.17547 5.39777 6.09972C5.39777 6.09972 5.56661 6.01643 5.75342 6.03467C5.66365 6.23074 5.48913 6.32104 5.44206 6.29579ZM15.2338 9.53154C15.198 9.14997 14.903 8.09942 14.6018 7.69921C15.1262 7.64342 15.6433 6.47547 14.5569 5.94186C13.3063 5.32734 11.4753 6.53708 10.31 6.86284C10.0273 6.94204 9.49276 7.19734 9.12046 6.65792C8.74696 6.11981 9.48999 5.65602 9.39572 5.52407C9.3431 5.45003 8.41828 5.77514 8.39197 6.37974C8.36725 6.94733 8.91579 7.38693 9.46698 7.38336C9.95537 7.38112 10.8444 7.11405 11.8202 6.68608C13.0596 6.14322 13.8913 6.02581 14.3534 6.30465C14.7459 6.54236 14.7459 6.78127 14.6819 6.96491C14.4039 7.76083 13.2587 6.92617 11.7753 7.52311C9.54327 8.42228 8.47156 7.81067 7.9209 7.56938C7.87661 7.05825 7.53894 6.17547 7.2367 6.01643C7.2367 6.01643 7.37011 5.95124 7.39708 5.67188C7.19294 5.64425 6.73919 5.80277 6.73919 5.80277C6.73919 5.80277 6.40165 5.70943 6.188 5.70943C5.33497 5.70943 4.49992 6.09972 4.4826 6.17548C4.46461 6.24885 4.62447 6.91798 4.62447 6.91798C4.78365 6.54646 5.04278 6.85346 5.06975 6.97377C4.10117 7.15093 3.96658 6.68608 3.82525 6.20245C3.44223 7.52311 4.71305 7.28129 5.07703 7.24375C5.0248 7.48543 4.83759 7.56 4.70525 7.33643C4.71305 7.61579 4.77585 7.77312 4.88241 7.8576C4.98897 7.94156 5.30919 7.71799 5.39777 7.64342C5.37146 7.71799 5.34396 7.95042 5.31765 8.12705C5.19311 8.08951 4.30478 7.94156 4.09112 7.96919C3.64755 7.20726 2.52811 7.50434 2.59039 8.27606C3.26559 7.97792 3.532 8.21101 3.52301 8.57314C3.77196 8.88952 5.00682 9.6336 5.52179 9.87423C5.32704 9.96757 4.68726 10.3867 4.43765 10.6278C2.94485 10.5251 3.08777 11.0651 3.08777 11.1959H5.55762C5.77074 11.1959 7.44983 10.7587 8.00115 10.5352C8.00115 10.5352 8.04425 10.4048 8.06223 10.3309C10.0979 10.3128 10.9144 9.03905 11.7221 9.00097C11.6967 9.27095 11.6334 10.014 11.6519 10.507C10.1685 10.5715 10.4165 11.1959 10.4165 11.1959H12.4164C12.4164 11.1959 12.7719 10.0604 13.3305 9.41889C13.714 9.80151 14.8065 10.4331 15.2596 10.5445C14.2289 10.6466 14.442 11.1959 14.442 11.1959H16.1301L16.1749 9.8191C16.1749 9.8191 15.2411 9.53154 15.2338 9.53154Z" fill="#231F20"/>
<path d="M4.67327 7.06162C4.79249 7.06123 4.93407 7.04588 5.07473 7.01478C5.07473 7.01478 5.07249 7.18719 5.07249 7.1946C5.07037 7.19518 4.85323 7.24449 4.60354 7.24449C4.27459 7.24449 4.04131 7.16549 3.91811 7.0034C3.79955 6.84752 3.78844 6.59968 3.83197 6.375C3.83197 6.375 3.89509 7.0644 4.67328 7.06162" fill="#FF0000"/>
</g>
<defs>
<clipPath id="clip0_634_21503">
<rect width="17.1726" height="23.9618" fill="white" transform="translate(0.902344 0.0195312)"/>
</clipPath>
</defs>
</svg>
