<svg width="19" height="24" viewBox="0 0 19 24" fill="none" xmlns="http://www.w3.org/2000/svg">
<g clip-path="url(#clip0_634_22338)">
<path d="M2.94727 5.57466H5.31034L5.2365 0.208504L5.03342 0.177734L4.84265 0.36235L4.73803 0.553119L4.49188 0.614657L4.37496 0.793119V1.0885L4.62111 1.05773L4.78111 1.1685L4.81188 1.36543L4.59034 1.57466L4.3565 1.45773L4.25803 1.23004H4.12265L3.99342 1.34081L3.93188 1.59312L3.68573 1.64235L3.50727 1.91927L3.60573 2.17773L3.78419 2.26389H3.93188L4.06111 2.50389L4.3688 2.58389V2.33773L4.46727 2.17158H4.67034L4.8488 2.35004V2.76235L4.77496 3.01466L4.49803 3.31004L4.04265 3.40235H3.61803L3.35342 3.36543C3.26162 3.25784 3.17926 3.14254 3.10727 3.02081" fill="#FFDD00"/>
<path d="M5.2176 0.209309C4.8976 0.209309 4.84222 0.541617 4.81145 0.584694C4.78068 0.62777 4.68222 0.615463 4.63914 0.615463C4.57348 0.640536 4.51747 0.685781 4.47914 0.744694C4.44958 0.828311 4.44958 0.919537 4.47914 1.00316C4.52381 0.994037 4.56986 0.994037 4.61453 1.00316C4.6575 1.00764 4.69925 1.02016 4.7376 1.04008C4.79691 1.07232 4.84275 1.1247 4.86683 1.18777C4.8879 1.22426 4.89899 1.26564 4.89899 1.30777C4.89899 1.3499 4.8879 1.39129 4.86683 1.42777C4.8176 1.50777 4.8176 1.49546 4.74991 1.54469C4.71738 1.57051 4.67957 1.58886 4.63916 1.59843C4.59874 1.608 4.55672 1.60857 4.51606 1.60008C4.44808 1.58231 4.38632 1.5461 4.3376 1.49546C4.29411 1.42904 4.26092 1.35642 4.23914 1.28008C4.20297 1.27097 4.16482 1.27384 4.13042 1.28827C4.09601 1.30269 4.06723 1.32789 4.04837 1.36008C3.98945 1.44199 3.96312 1.5429 3.97453 1.64316C3.93282 1.628 3.88803 1.62332 3.84409 1.62954C3.80015 1.63576 3.75841 1.65268 3.72255 1.67881C3.68669 1.70495 3.6578 1.7395 3.63842 1.77943C3.61905 1.81935 3.60979 1.86343 3.61145 1.90777C3.60937 1.95317 3.61901 1.99834 3.63946 2.03893C3.6599 2.07952 3.69046 2.11416 3.72817 2.13951C3.76589 2.16486 3.80951 2.18007 3.85481 2.18367C3.90011 2.18728 3.94558 2.17915 3.98683 2.16008C3.98442 2.2174 3.9954 2.2745 4.0189 2.32684C4.0424 2.37918 4.07777 2.42533 4.12222 2.46162C4.18633 2.49565 4.25956 2.50857 4.33145 2.49854C4.32198 2.44976 4.32198 2.39962 4.33145 2.35085C4.3413 2.27475 4.37101 2.20258 4.4176 2.14162C4.44644 2.11346 4.4816 2.09262 4.52014 2.08084C4.55869 2.06907 4.59949 2.06669 4.63914 2.07392C4.73211 2.09004 4.8156 2.14057 4.87299 2.21546C4.90295 2.25082 4.92504 2.29216 4.93777 2.33673C4.95051 2.3813 4.9536 2.42807 4.94683 2.47392C4.94375 2.61838 4.91886 2.76153 4.87299 2.89854C4.83606 3.01263 4.77522 3.11753 4.69453 3.20623C4.61912 3.29206 4.51742 3.35048 4.40529 3.37239C4.27662 3.40705 4.14457 3.42769 4.01145 3.43392H3.60529C3.54481 3.43067 3.48491 3.42035 3.42683 3.40316C3.35228 3.37755 3.28333 3.33785 3.22376 3.28623C3.17555 3.23327 3.1398 3.17019 3.11914 3.10162C3.11914 3.07085 3.11914 2.97854 3.11914 2.97854C3.11914 2.97854 3.21145 3.09546 3.25453 3.13854C3.29656 3.17909 3.34184 3.21614 3.38991 3.24931C3.47467 3.29524 3.57059 3.31656 3.66683 3.31085C3.83083 3.31929 3.99515 3.31929 4.15914 3.31085C4.31256 3.31269 4.46213 3.26284 4.58376 3.16931C4.66335 3.09085 4.71703 2.98993 4.7376 2.88008C4.79595 2.73368 4.81504 2.57458 4.79299 2.41854C4.78858 2.36347 4.7643 2.31188 4.72467 2.27339C4.68505 2.23489 4.63278 2.21212 4.5776 2.20931C4.55312 2.20928 4.52913 2.2162 4.50843 2.22928C4.48773 2.24235 4.47117 2.26103 4.46068 2.28315C4.39914 2.39392 4.46068 2.49854 4.46068 2.60931C4.39817 2.6326 4.33105 2.64084 4.26476 2.63336C4.19847 2.62588 4.13488 2.60288 4.07914 2.56623C4.03368 2.53866 3.99438 2.50203 3.96368 2.45863C3.93298 2.41522 3.91154 2.36597 3.90068 2.31392C3.84999 2.32282 3.79799 2.32083 3.74812 2.3081C3.69826 2.29537 3.65167 2.27218 3.61145 2.24008C3.53679 2.15322 3.49922 2.04052 3.50683 1.92623C3.50636 1.83708 3.52525 1.7489 3.56222 1.66777C3.59939 1.61884 3.64801 1.57979 3.70381 1.55404C3.7596 1.52828 3.82086 1.51662 3.88222 1.52008C3.88498 1.46484 3.89935 1.41081 3.92439 1.36149C3.94942 1.31218 3.98457 1.26869 4.02753 1.23386C4.07048 1.19902 4.1203 1.17363 4.17372 1.15933C4.22715 1.14503 4.28299 1.14214 4.3376 1.15085C4.33031 1.19154 4.33146 1.2333 4.34099 1.27353C4.35052 1.31375 4.36822 1.35159 4.39299 1.38469C4.40691 1.41069 4.42617 1.43344 4.4495 1.45147C4.47283 1.4695 4.49971 1.4824 4.52837 1.48931C4.56071 1.49872 4.595 1.49911 4.62754 1.49043C4.66008 1.48176 4.68963 1.46434 4.71299 1.44008C4.732 1.42572 4.74782 1.40757 4.75946 1.38679C4.7711 1.366 4.77831 1.34303 4.78062 1.31932C4.78293 1.29561 4.7803 1.27168 4.7729 1.24904C4.7655 1.22639 4.75348 1.20553 4.7376 1.18777C4.7163 1.16327 4.68974 1.14391 4.6599 1.13112C4.63007 1.11833 4.59772 1.11245 4.56529 1.11392C4.50376 1.11392 4.44837 1.16316 4.4176 1.15085C4.38683 1.13854 4.36222 1.04623 4.36222 1.00931C4.34539 0.950126 4.34224 0.887894 4.35298 0.827312C4.36373 0.76673 4.3881 0.709382 4.42425 0.659596C4.46041 0.609811 4.5074 0.56889 4.56168 0.539924C4.61596 0.510957 4.67612 0.494702 4.7376 0.492386C4.76312 0.379197 4.82512 0.277531 4.91408 0.203032C5.00303 0.128534 5.114 0.0853329 5.22991 0.0800781" fill="black"/>
<path d="M4.1478 4.44404C4.25316 4.44404 4.33857 4.35863 4.33857 4.25327C4.33857 4.14791 4.25316 4.0625 4.1478 4.0625C4.04244 4.0625 3.95703 4.14791 3.95703 4.25327C3.95703 4.35863 4.04244 4.44404 4.1478 4.44404Z" fill="black"/>
<path d="M4.36297 1.72266V2.04266H4.04297V1.72266H4.36297Z" fill="#0098D4"/>
<path d="M7.49003 5.57466H5.12695L5.2008 0.208504L5.40388 0.177734L5.59465 0.36235L5.6808 0.553119L5.92695 0.614657L6.04388 0.793119V1.0885L5.79772 1.05773L5.63772 1.1685L5.60695 1.36543L5.82849 1.57466L6.06234 1.45773L6.17926 1.23004H6.33926L6.46849 1.34081L6.53003 1.59312L6.77618 1.64235L6.90541 1.93158L6.80695 2.19004L6.62849 2.2762H6.4808L6.35157 2.5162L6.04388 2.5962V2.33773L5.97003 2.17158H5.76695L5.58849 2.35004V2.76235L5.66234 3.01466L5.93926 3.31004L6.39464 3.40235H6.83157L7.09618 3.36543C7.18798 3.25784 7.27034 3.14254 7.34234 3.02081" fill="#FFDD00"/>
<path d="M5.21875 0.209309C5.53875 0.209309 5.59413 0.541617 5.6249 0.584694C5.65567 0.62777 5.75413 0.62777 5.79721 0.633924C5.8674 0.656677 5.92802 0.702143 5.96952 0.763155C5.99908 0.846773 5.99908 0.937999 5.96952 1.02162C5.92485 1.0125 5.8788 1.0125 5.83413 1.02162C5.77757 1.02463 5.72261 1.04154 5.67413 1.07085C5.61482 1.10309 5.56899 1.15547 5.5449 1.21854C5.52384 1.25502 5.51275 1.29641 5.51275 1.33854C5.51275 1.38067 5.52384 1.42206 5.5449 1.45854C5.59413 1.53854 5.59413 1.52623 5.66183 1.57546C5.69436 1.60128 5.73217 1.61963 5.77258 1.6292C5.81299 1.63877 5.85502 1.63934 5.89567 1.63085C5.96366 1.61308 6.02542 1.57687 6.07413 1.52623C6.11762 1.45981 6.15082 1.38719 6.1726 1.31085C6.20877 1.30174 6.24692 1.30461 6.28132 1.31903C6.31572 1.33346 6.34451 1.35866 6.36337 1.39085C6.42229 1.47276 6.44861 1.57367 6.43721 1.67392C6.47892 1.65876 6.52371 1.65409 6.56765 1.66031C6.61159 1.66653 6.65333 1.68345 6.68919 1.70958C6.72505 1.73572 6.75394 1.77027 6.77331 1.8102C6.79269 1.85012 6.80195 1.89419 6.80029 1.93854C6.80237 1.98394 6.79272 2.02911 6.77228 2.0697C6.75183 2.11029 6.72128 2.14493 6.68356 2.17028C6.64584 2.19563 6.60223 2.21084 6.55693 2.21444C6.51162 2.21805 6.46616 2.20992 6.4249 2.19085C6.42351 2.24251 6.41129 2.29331 6.38903 2.33995C6.36677 2.38659 6.33496 2.42804 6.29567 2.46162C6.23156 2.49565 6.15833 2.50857 6.08644 2.49854C6.09591 2.44976 6.09591 2.39962 6.08644 2.35085C6.0766 2.27475 6.04688 2.20258 6.00029 2.14162C5.97145 2.11346 5.93629 2.09262 5.89775 2.08084C5.8592 2.06907 5.8184 2.06669 5.77875 2.07392C5.68578 2.09004 5.60229 2.14057 5.5449 2.21546C5.51494 2.25082 5.49285 2.29216 5.48012 2.33673C5.46738 2.3813 5.46429 2.42807 5.47106 2.47392C5.47414 2.61838 5.49904 2.76153 5.5449 2.89854C5.58183 3.01263 5.64267 3.11753 5.72337 3.20623C5.79877 3.29206 5.90047 3.35048 6.0126 3.37239C6.14127 3.40705 6.27332 3.42769 6.40644 3.43392H6.8126C6.87308 3.43067 6.93298 3.42035 6.99106 3.40316C7.0664 3.38385 7.13739 3.35044 7.20029 3.30469C7.2485 3.25173 7.28424 3.18865 7.3049 3.12008C7.3049 3.08931 7.3049 2.997 7.3049 2.997C7.3049 2.997 7.2126 3.11392 7.16952 3.157C7.12749 3.19755 7.08221 3.2346 7.03413 3.26777C6.94937 3.31371 6.85345 3.33502 6.75721 3.32931C6.59322 3.33775 6.4289 3.33775 6.2649 3.32931C6.11149 3.33116 5.96191 3.2813 5.84029 3.18777C5.74708 3.11454 5.68013 3.01305 5.64952 2.89854C5.59117 2.75214 5.57208 2.59305 5.59413 2.437C5.59854 2.38193 5.62282 2.33034 5.66245 2.29185C5.70207 2.25335 5.75434 2.23058 5.80952 2.22777C5.83839 2.2162 5.87046 2.21544 5.89985 2.22561C5.92924 2.23578 5.95398 2.25622 5.96952 2.28315C6.03106 2.39392 5.96952 2.49854 5.96952 2.60931C6.03203 2.6326 6.09915 2.64084 6.16544 2.63336C6.23172 2.62588 6.29532 2.60288 6.35106 2.56623C6.39651 2.53866 6.43581 2.50203 6.46652 2.45863C6.49722 2.41522 6.51866 2.36597 6.52952 2.31392C6.58021 2.32282 6.63221 2.32083 6.68207 2.3081C6.73194 2.29537 6.77853 2.27218 6.81875 2.24008C6.86014 2.19903 6.89289 2.15012 6.91509 2.09622C6.93728 2.04232 6.94846 1.98452 6.94798 1.92623C6.94846 1.83708 6.92956 1.7489 6.8926 1.66777C6.85663 1.62059 6.80999 1.58261 6.75651 1.55693C6.70302 1.53126 6.64421 1.51863 6.5849 1.52008C6.58214 1.46484 6.56777 1.41081 6.54273 1.36149C6.5177 1.31218 6.48255 1.26869 6.4396 1.23386C6.39664 1.19902 6.34682 1.17363 6.2934 1.15933C6.23997 1.14503 6.18414 1.14214 6.12952 1.15085C6.13681 1.19154 6.13566 1.2333 6.12613 1.27353C6.1166 1.31375 6.0989 1.35159 6.07413 1.38469C6.06021 1.41069 6.04096 1.43344 6.01762 1.45147C5.99429 1.4695 5.96741 1.4824 5.93875 1.48931C5.90641 1.49872 5.87212 1.49911 5.83958 1.49043C5.80704 1.48176 5.77749 1.46434 5.75413 1.44008C5.73468 1.42619 5.71832 1.4084 5.70611 1.38785C5.6939 1.3673 5.6861 1.34443 5.68321 1.3207C5.68031 1.29697 5.68239 1.27289 5.6893 1.25001C5.69622 1.22713 5.70782 1.20593 5.72337 1.18777C5.74466 1.16327 5.77123 1.14391 5.80106 1.13112C5.8309 1.11833 5.86324 1.11245 5.89567 1.11392C5.95721 1.11392 6.0126 1.16316 6.04337 1.15085C6.07413 1.13854 6.09875 1.04623 6.09875 1.00931C6.11581 0.949144 6.11874 0.885853 6.10732 0.824368C6.0959 0.762883 6.07044 0.704865 6.03292 0.654836C5.9954 0.604807 5.94683 0.564118 5.891 0.53594C5.83517 0.507763 5.77359 0.492857 5.71106 0.492386C5.68554 0.379197 5.62354 0.277531 5.53458 0.203032C5.44563 0.128534 5.33466 0.0853329 5.21875 0.0800781" fill="black"/>
<path d="M6.29038 4.44404C6.39574 4.44404 6.48115 4.35863 6.48115 4.25327C6.48115 4.14791 6.39574 4.0625 6.29038 4.0625C6.18502 4.0625 6.09961 4.14791 6.09961 4.25327C6.09961 4.35863 6.18502 4.44404 6.29038 4.44404Z" fill="black"/>
<path d="M6.07422 1.72266V2.04266H6.39422V1.72266H6.07422Z" fill="#0098D4"/>
<path d="M7.20117 5.57466H9.56425L9.45963 0.208504L9.25656 0.177734L9.04733 0.36235L8.97963 0.553119L8.73348 0.614657L8.61656 0.793119V1.0885L8.86271 1.05773L9.04733 1.1685V1.36543L8.82579 1.57466L8.59194 1.45773L8.48117 1.23004H8.32117L8.19194 1.34081L8.13656 1.59312L7.88425 1.64235L7.75502 1.93158L7.85348 2.19004L8.03194 2.2762H8.17963L8.30886 2.5162L8.61656 2.5962V2.33773L8.71502 2.17158H8.92425L9.09656 2.35004V2.76235L9.02271 3.01466L8.74579 3.31004L8.2904 3.40235H7.81656L7.55194 3.36543C7.46014 3.25784 7.37779 3.14254 7.30579 3.02081" fill="#FFDD00"/>
<path d="M9.44085 0.209309C9.12085 0.209309 9.047 0.541617 9.047 0.615463C9.047 0.689309 8.90546 0.615463 8.86239 0.615463C8.79673 0.640536 8.74071 0.685781 8.70239 0.744694C8.67282 0.828311 8.67282 0.919537 8.70239 1.00316C8.74713 0.994811 8.79303 0.994811 8.83777 1.00316C8.89434 1.00617 8.94929 1.02307 8.99777 1.05239C9.05708 1.08463 9.10291 1.13701 9.127 1.20008C9.14807 1.23656 9.15916 1.27795 9.15916 1.32008C9.15916 1.36221 9.14807 1.40359 9.127 1.44008C9.08392 1.52008 9.08392 1.50777 9.01008 1.557C8.97755 1.58282 8.93974 1.60117 8.89932 1.61074C8.85891 1.62031 8.81689 1.62087 8.77623 1.61239C8.70825 1.59461 8.64649 1.55841 8.59777 1.50777C8.52915 1.44248 8.47286 1.36535 8.43162 1.28008C8.39545 1.27195 8.35765 1.27528 8.32346 1.28962C8.28927 1.30395 8.2604 1.32858 8.24085 1.36008C8.18192 1.44199 8.1556 1.5429 8.167 1.64316C8.12606 1.63183 8.08307 1.63007 8.04134 1.63801C7.99962 1.64596 7.96028 1.6634 7.92637 1.68898C7.89246 1.71456 7.86489 1.74759 7.84579 1.78553C7.8267 1.82347 7.81658 1.8653 7.81623 1.90777C7.81415 1.95317 7.8238 1.99834 7.84424 2.03893C7.86469 2.07952 7.89524 2.11416 7.93296 2.13951C7.97068 2.16486 8.01429 2.18007 8.05959 2.18367C8.1049 2.18728 8.15036 2.17915 8.19162 2.16008C8.1901 2.22243 8.20389 2.28421 8.23178 2.33999C8.25968 2.39578 8.30082 2.44388 8.35162 2.48008C8.41573 2.51411 8.48896 2.52704 8.56085 2.517C8.53995 2.45636 8.53578 2.39121 8.54878 2.3284C8.56177 2.26559 8.59145 2.20745 8.63469 2.16008C8.66196 2.13153 8.69601 2.11035 8.73368 2.09852C8.77134 2.08668 8.81138 2.08457 8.85008 2.09239C8.94304 2.1085 9.02653 2.15903 9.08392 2.23392C9.11389 2.26928 9.13598 2.31063 9.14871 2.35519C9.16145 2.39976 9.16453 2.44653 9.15777 2.49239C9.15469 2.63684 9.12979 2.77999 9.08392 2.917C9.04638 3.0295 8.98792 3.1339 8.91162 3.22469C8.83268 3.30926 8.72949 3.3673 8.61623 3.39085C8.48781 3.42669 8.35562 3.44735 8.22239 3.45239H7.81623C7.75575 3.44914 7.69585 3.43881 7.63777 3.42162C7.56321 3.39601 7.49427 3.35632 7.43469 3.30469C7.38862 3.25021 7.35314 3.1876 7.33008 3.12008C7.33008 3.08931 7.33008 2.997 7.33008 2.997C7.33008 2.997 7.41623 3.11392 7.45931 3.157C7.50239 3.20008 7.55162 3.24316 7.59469 3.26777C7.67968 3.3131 7.77543 3.33438 7.87162 3.32931C8.03561 3.33775 8.19993 3.33775 8.36392 3.32931C8.51734 3.33116 8.66691 3.2813 8.78854 3.18777C8.88175 3.11454 8.94869 3.01305 8.97931 2.89854C9.03574 2.75165 9.05682 2.59354 9.04085 2.437C9.03385 2.38187 9.00795 2.33087 8.96754 2.29272C8.92714 2.25456 8.87475 2.2316 8.81931 2.22777C8.79498 2.22843 8.77128 2.23564 8.75071 2.24864C8.73013 2.26163 8.71344 2.27994 8.70239 2.30162C8.647 2.41239 8.70239 2.517 8.70239 2.62777C8.63988 2.65107 8.57276 2.65931 8.50647 2.65182C8.44018 2.64434 8.37659 2.62134 8.32085 2.58469C8.27629 2.55678 8.23799 2.51996 8.20834 2.47654C8.17868 2.43312 8.15833 2.38404 8.14854 2.33239C8.08982 2.34521 8.02886 2.3435 7.97095 2.32742C7.91304 2.31133 7.85993 2.28135 7.81623 2.24008C7.73538 2.15534 7.68926 2.04334 7.687 1.92623C7.68652 1.83708 7.70542 1.7489 7.74239 1.66777C7.77956 1.61884 7.82818 1.57979 7.88398 1.55404C7.93977 1.52828 8.00103 1.51662 8.06239 1.52008C8.06515 1.46484 8.07952 1.41081 8.10456 1.36149C8.12959 1.31218 8.16473 1.26869 8.20769 1.23386C8.25065 1.19902 8.30047 1.17363 8.35389 1.15933C8.40732 1.14503 8.46315 1.14214 8.51777 1.15085C8.5058 1.233 8.5256 1.31664 8.57315 1.38469C8.58708 1.41069 8.60633 1.43344 8.62967 1.45147C8.653 1.4695 8.67988 1.4824 8.70854 1.48931C8.74186 1.49858 8.77703 1.49891 8.81052 1.49027C8.84401 1.48162 8.87463 1.46431 8.89931 1.44008C8.93275 1.40661 8.95154 1.36124 8.95154 1.31392C8.95154 1.26661 8.93275 1.22124 8.89931 1.18777C8.87801 1.16327 8.85145 1.14391 8.82161 1.13112C8.79177 1.11833 8.75943 1.11245 8.727 1.11392C8.66546 1.11392 8.61008 1.16316 8.57931 1.15085C8.54854 1.13854 8.52392 1.04623 8.52392 1.00931C8.50574 0.94605 8.5032 0.87932 8.51653 0.814862C8.52985 0.750404 8.55864 0.690151 8.60042 0.639289C8.6422 0.588428 8.69572 0.548482 8.75636 0.522891C8.817 0.497301 8.88295 0.486832 8.94854 0.492386C8.97406 0.379197 9.03606 0.277531 9.12501 0.203032C9.21397 0.128534 9.32494 0.0853329 9.44085 0.0800781" fill="black"/>
<path d="M8.37046 4.44404C8.47582 4.44404 8.56123 4.35863 8.56123 4.25327C8.56123 4.14791 8.47582 4.0625 8.37046 4.0625C8.2651 4.0625 8.17969 4.14791 8.17969 4.25327C8.17969 4.35863 8.2651 4.44404 8.37046 4.44404Z" fill="black"/>
<path d="M8.58563 1.72266V2.04266H8.26562V1.72266H8.58563Z" fill="#0098D4"/>
<path d="M7.49003 5.57466H5.12695L5.2008 0.208504L5.40388 0.177734L5.59465 0.36235L5.6808 0.553119L5.92695 0.614657L6.04388 0.793119V1.0885L5.79772 1.05773L5.63772 1.1685L5.60695 1.36543L5.82849 1.57466L6.06234 1.45773L6.17926 1.23004H6.33926L6.46849 1.34081L6.53003 1.59312L6.77618 1.64235L6.90541 1.93158L6.80695 2.19004L6.62849 2.2762H6.4808L6.35157 2.5162L6.04388 2.5962V2.33773L5.97003 2.17158H5.76695L5.58849 2.35004V2.76235L5.66234 3.01466L5.93926 3.31004L6.39464 3.40235H6.83157L7.09618 3.36543C7.18798 3.25784 7.27034 3.14254 7.34234 3.02081" fill="#FFDD00"/>
<path d="M5.21875 0.209309C5.53875 0.209309 5.59413 0.541617 5.6249 0.584694C5.65567 0.62777 5.75413 0.62777 5.79721 0.633924C5.8674 0.656677 5.92802 0.702143 5.96952 0.763155C5.99908 0.846773 5.99908 0.937999 5.96952 1.02162C5.92485 1.0125 5.8788 1.0125 5.83413 1.02162C5.77757 1.02463 5.72261 1.04154 5.67413 1.07085C5.61482 1.10309 5.56899 1.15547 5.5449 1.21854C5.52384 1.25502 5.51275 1.29641 5.51275 1.33854C5.51275 1.38067 5.52384 1.42206 5.5449 1.45854C5.59413 1.53854 5.59413 1.52623 5.66183 1.57546C5.69436 1.60128 5.73217 1.61963 5.77258 1.6292C5.81299 1.63877 5.85502 1.63934 5.89567 1.63085C5.96366 1.61308 6.02542 1.57687 6.07413 1.52623C6.11762 1.45981 6.15082 1.38719 6.1726 1.31085C6.20877 1.30174 6.24692 1.30461 6.28132 1.31903C6.31572 1.33346 6.34451 1.35866 6.36337 1.39085C6.42229 1.47276 6.44861 1.57367 6.43721 1.67392C6.47892 1.65876 6.52371 1.65409 6.56765 1.66031C6.61159 1.66653 6.65333 1.68345 6.68919 1.70958C6.72505 1.73572 6.75394 1.77027 6.77331 1.8102C6.79269 1.85012 6.80195 1.89419 6.80029 1.93854C6.80237 1.98394 6.79272 2.02911 6.77228 2.0697C6.75183 2.11029 6.72128 2.14493 6.68356 2.17028C6.64584 2.19563 6.60223 2.21084 6.55693 2.21444C6.51162 2.21805 6.46616 2.20992 6.4249 2.19085C6.42351 2.24251 6.41129 2.29331 6.38903 2.33995C6.36677 2.38659 6.33496 2.42804 6.29567 2.46162C6.23156 2.49565 6.15833 2.50857 6.08644 2.49854C6.09591 2.44976 6.09591 2.39962 6.08644 2.35085C6.0766 2.27475 6.04688 2.20258 6.00029 2.14162C5.97145 2.11346 5.93629 2.09262 5.89775 2.08084C5.8592 2.06907 5.8184 2.06669 5.77875 2.07392C5.68578 2.09004 5.60229 2.14057 5.5449 2.21546C5.51494 2.25082 5.49285 2.29216 5.48012 2.33673C5.46738 2.3813 5.46429 2.42807 5.47106 2.47392C5.47414 2.61838 5.49904 2.76153 5.5449 2.89854C5.58183 3.01263 5.64267 3.11753 5.72337 3.20623C5.79877 3.29206 5.90047 3.35048 6.0126 3.37239C6.14127 3.40705 6.27332 3.42769 6.40644 3.43392H6.8126C6.87308 3.43067 6.93298 3.42035 6.99106 3.40316C7.0664 3.38385 7.13739 3.35044 7.20029 3.30469C7.2485 3.25173 7.28424 3.18865 7.3049 3.12008C7.3049 3.08931 7.3049 2.997 7.3049 2.997C7.3049 2.997 7.2126 3.11392 7.16952 3.157C7.12749 3.19755 7.08221 3.2346 7.03413 3.26777C6.94937 3.31371 6.85345 3.33502 6.75721 3.32931C6.59322 3.33775 6.4289 3.33775 6.2649 3.32931C6.11149 3.33116 5.96191 3.2813 5.84029 3.18777C5.74708 3.11454 5.68013 3.01305 5.64952 2.89854C5.59117 2.75214 5.57208 2.59305 5.59413 2.437C5.59854 2.38193 5.62282 2.33034 5.66245 2.29185C5.70207 2.25335 5.75434 2.23058 5.80952 2.22777C5.83839 2.2162 5.87046 2.21544 5.89985 2.22561C5.92924 2.23578 5.95398 2.25622 5.96952 2.28315C6.03106 2.39392 5.96952 2.49854 5.96952 2.60931C6.03203 2.6326 6.09915 2.64084 6.16544 2.63336C6.23172 2.62588 6.29532 2.60288 6.35106 2.56623C6.39651 2.53866 6.43581 2.50203 6.46652 2.45863C6.49722 2.41522 6.51866 2.36597 6.52952 2.31392C6.58021 2.32282 6.63221 2.32083 6.68207 2.3081C6.73194 2.29537 6.77853 2.27218 6.81875 2.24008C6.86014 2.19903 6.89289 2.15012 6.91509 2.09622C6.93728 2.04232 6.94846 1.98452 6.94798 1.92623C6.94846 1.83708 6.92956 1.7489 6.8926 1.66777C6.85663 1.62059 6.80999 1.58261 6.75651 1.55693C6.70302 1.53126 6.64421 1.51863 6.5849 1.52008C6.58214 1.46484 6.56777 1.41081 6.54273 1.36149C6.5177 1.31218 6.48255 1.26869 6.4396 1.23386C6.39664 1.19902 6.34682 1.17363 6.2934 1.15933C6.23997 1.14503 6.18414 1.14214 6.12952 1.15085C6.13681 1.19154 6.13566 1.2333 6.12613 1.27353C6.1166 1.31375 6.0989 1.35159 6.07413 1.38469C6.06021 1.41069 6.04096 1.43344 6.01762 1.45147C5.99429 1.4695 5.96741 1.4824 5.93875 1.48931C5.90641 1.49872 5.87212 1.49911 5.83958 1.49043C5.80704 1.48176 5.77749 1.46434 5.75413 1.44008C5.73468 1.42619 5.71832 1.4084 5.70611 1.38785C5.6939 1.3673 5.6861 1.34443 5.68321 1.3207C5.68031 1.29697 5.68239 1.27289 5.6893 1.25001C5.69622 1.22713 5.70782 1.20593 5.72337 1.18777C5.74466 1.16327 5.77123 1.14391 5.80106 1.13112C5.8309 1.11833 5.86324 1.11245 5.89567 1.11392C5.95721 1.11392 6.0126 1.16316 6.04337 1.15085C6.07413 1.13854 6.09875 1.04623 6.09875 1.00931C6.11581 0.949144 6.11874 0.885853 6.10732 0.824368C6.0959 0.762883 6.07044 0.704865 6.03292 0.654836C5.9954 0.604807 5.94683 0.564118 5.891 0.53594C5.83517 0.507763 5.77359 0.492857 5.71106 0.492386C5.68554 0.379197 5.62354 0.277531 5.53458 0.203032C5.44563 0.128534 5.33466 0.0853329 5.21875 0.0800781" fill="black"/>
<path d="M6.29038 4.44404C6.39574 4.44404 6.48115 4.35863 6.48115 4.25327C6.48115 4.14791 6.39574 4.0625 6.29038 4.0625C6.18502 4.0625 6.09961 4.14791 6.09961 4.25327C6.09961 4.35863 6.18502 4.44404 6.29038 4.44404Z" fill="black"/>
<path d="M6.07422 1.72266V2.04266H6.39422V1.72266H6.07422Z" fill="#0098D4"/>
<path d="M7.33063 2.04883C7.02293 2.04883 6.92447 2.38729 7.12755 2.62114C6.81986 2.52883 6.55524 2.76883 6.69063 2.99037C6.82601 3.21191 7.17063 3.13806 7.30601 2.93498C7.48447 3.16267 7.80447 3.24883 7.92139 3.00267C8.03832 2.75652 7.79216 2.49191 7.50293 2.61498C7.72447 2.38729 7.63832 2.04883 7.33063 2.04883Z" fill="#0098D4" stroke="black" stroke-width="0.116923" stroke-linejoin="round"/>
<path d="M6.82031 4.57242V3.95703H7.87262V4.57242H6.82031Z" fill="#ED1C24" stroke="black" stroke-width="0.116923" stroke-miterlimit="10"/>
<path d="M5.22656 3.50687V1.77148V3.50687Z" fill="black"/>
<path d="M5.22656 3.50687V1.77148" stroke="black" stroke-width="0.104615" stroke-miterlimit="10"/>
<path d="M5.06641 0.566406V0.886406H5.39256V0.566406H5.06641Z" fill="#ED1C24"/>
<path d="M5.2262 3.91406L4.70312 4.25252L5.2262 4.59099L5.74313 4.25252L5.2262 3.91406Z" fill="#0098D4" stroke="black" stroke-width="0.116923" stroke-miterlimit="10"/>
<path d="M0.986328 5.59375V16.9968C0.986328 16.9968 0.986328 18.3138 1.06017 18.843C1.09539 19.4395 1.19862 20.0299 1.36787 20.603C1.51981 21.0513 1.7265 21.4791 1.98325 21.8768C2.20025 22.1935 2.46372 22.4756 2.76479 22.7138C3.01864 22.9209 3.2953 23.0985 3.5894 23.243C3.84456 23.378 4.11529 23.4814 4.39556 23.5507C4.70994 23.6359 5.03116 23.6936 5.35556 23.723C5.64479 23.7599 5.97094 23.7784 6.29094 23.7968C6.61094 23.8153 7.28171 23.8337 7.52171 23.8337H11.3679C11.5833 23.8337 12.2848 23.8337 12.5986 23.7968C12.9125 23.7599 13.214 23.7599 13.534 23.723C13.8571 23.6852 14.1762 23.6193 14.4879 23.5261C14.7669 23.453 15.0372 23.3498 15.294 23.2184C15.586 23.0735 15.8606 22.8959 16.1125 22.6891C16.4171 22.453 16.6829 22.1706 16.9002 21.8522C17.1569 21.4545 17.3636 21.0267 17.5156 20.5784C17.6829 20.0051 17.7841 19.4146 17.8171 18.8184C17.8786 18.3076 17.8971 16.9722 17.8971 16.9722V5.59375" fill="#FFDD00"/>
<path d="M0.986328 5.59375V16.9968C0.986328 16.9968 0.986328 18.3138 1.06017 18.843C1.09539 19.4395 1.19862 20.0299 1.36787 20.603C1.51981 21.0513 1.7265 21.4791 1.98325 21.8768C2.20025 22.1935 2.46372 22.4756 2.76479 22.7138C3.01864 22.9209 3.2953 23.0985 3.5894 23.243C3.84456 23.378 4.11529 23.4814 4.39556 23.5507C4.70994 23.6359 5.03116 23.6936 5.35556 23.723C5.64479 23.7599 5.97094 23.7784 6.29094 23.7968C6.61094 23.8153 7.28171 23.8338 7.52171 23.8338H11.3679C11.5833 23.8338 12.2848 23.8337 12.5986 23.7968C12.9125 23.7599 13.214 23.7599 13.534 23.723C13.8571 23.6852 14.1762 23.6193 14.4879 23.5261C14.7669 23.453 15.0372 23.3498 15.294 23.2184C15.586 23.0735 15.8606 22.8959 16.1125 22.6891C16.4171 22.453 16.6829 22.1706 16.9002 21.8522C17.1569 21.4545 17.3636 21.0267 17.5156 20.5784C17.6829 20.0051 17.7841 19.4146 17.8171 18.8184C17.8786 18.3076 17.8971 16.9722 17.8971 16.9722V5.59375" stroke="black" stroke-width="0.215385"/>
<path d="M1.42188 6.0625V16.881C1.42188 16.881 1.42188 18.1117 1.49572 18.604C1.53088 19.1805 1.62575 19.7518 1.7788 20.3087C1.9166 20.7217 2.10031 21.1181 2.32649 21.4902C2.51829 21.802 2.7642 22.0771 3.05264 22.3025C3.3028 22.5083 3.57776 22.682 3.87111 22.8194C4.13507 22.9476 4.41136 23.0486 4.69572 23.121C4.98453 23.1954 5.27878 23.2469 5.57572 23.2748C5.87111 23.2748 6.19111 23.3179 6.4188 23.3302L7.58187 23.361H11.2373L12.3942 23.3302C12.6342 23.3302 12.9419 23.3302 13.2373 23.2748C13.5342 23.2469 13.8285 23.1954 14.1173 23.121C14.4025 23.0514 14.6791 22.9503 14.9419 22.8194C15.236 22.6834 15.5111 22.5096 15.7603 22.3025C16.0488 22.0771 16.2947 21.802 16.4865 21.4902C16.7169 21.1186 16.9048 20.7223 17.0465 20.3087C17.2025 19.7524 17.2975 19.1808 17.3296 18.604C17.3849 18.124 17.4034 16.881 17.4034 16.881V6.0625H1.42188Z" fill="white"/>
<path d="M11.6932 5.57466H9.33008L9.40392 0.208504L9.61316 0.177734L9.79777 0.36235L9.88392 0.553119L10.1301 0.614657L10.247 0.793119V1.0885L10.0008 1.05773L9.84085 1.1685V1.36543L10.0624 1.57466L10.2778 1.45773L10.3824 1.23004H10.5424L10.6716 1.34081L10.7332 1.59312L10.9793 1.64235L11.1085 1.93158L11.0101 2.19004L10.8316 2.2762H10.6901L10.5547 2.5162L10.247 2.5962V2.33773L10.1485 2.17158H9.94546L9.767 2.35004V2.76235L9.83469 3.01466L10.1116 3.31004L10.567 3.40235H11.0039L11.2685 3.36543C11.3603 3.25784 11.4427 3.14254 11.5147 3.02081" fill="#FFDD00"/>
<path d="M9.42188 0.209309C9.74187 0.209309 9.79726 0.541617 9.82803 0.584694C9.8588 0.62777 9.95726 0.62777 10.0003 0.633924C10.066 0.658998 10.122 0.704242 10.1603 0.763155C10.1899 0.846773 10.1899 0.937999 10.1603 1.02162C10.1166 0.995613 10.0666 0.981889 10.0157 0.981889C9.96482 0.981889 9.91486 0.995613 9.87111 1.02162C9.80913 1.05222 9.76083 1.10491 9.73572 1.16931C9.71337 1.20535 9.70153 1.24691 9.70153 1.28931C9.70153 1.33171 9.71337 1.37327 9.73572 1.40931C9.7788 1.48931 9.7788 1.477 9.85264 1.52623C9.8838 1.55233 9.92054 1.5709 9.96003 1.5805C9.99951 1.59011 10.0407 1.59049 10.0803 1.58162C10.1483 1.56384 10.2101 1.52764 10.2588 1.477C10.3033 1.41031 10.3385 1.33784 10.3634 1.26162C10.3987 1.25393 10.4355 1.25752 10.4686 1.27187C10.5017 1.28623 10.5295 1.31062 10.548 1.34162C10.607 1.42353 10.6333 1.52444 10.6219 1.62469C10.6639 1.60982 10.7089 1.60533 10.7531 1.61159C10.7973 1.61786 10.8393 1.6347 10.8755 1.66068C10.9118 1.68667 10.9412 1.72102 10.9613 1.76083C10.9815 1.80063 10.9917 1.84471 10.9911 1.88931C10.992 1.93494 10.9813 1.98005 10.9601 2.02045C10.9389 2.06086 10.9078 2.09524 10.8697 2.12042C10.8317 2.14559 10.7879 2.16073 10.7424 2.16444C10.6969 2.16815 10.6512 2.16029 10.6096 2.14162C10.6122 2.20414 10.5989 2.26631 10.5709 2.32229C10.5429 2.37827 10.5012 2.42621 10.4496 2.46162C10.3875 2.49517 10.3164 2.5081 10.2465 2.49854C10.2529 2.44952 10.2529 2.39987 10.2465 2.35085C10.2392 2.27409 10.2092 2.20124 10.1603 2.14162C10.1318 2.11302 10.0967 2.09189 10.058 2.08008C10.0194 2.06828 9.97844 2.06616 9.9388 2.07392C9.84583 2.09004 9.76234 2.14057 9.70495 2.21546C9.67498 2.25082 9.6529 2.29216 9.64016 2.33673C9.62743 2.3813 9.62434 2.42807 9.63111 2.47392C9.63419 2.61838 9.65908 2.76153 9.70495 2.89854C9.74188 3.01263 9.80272 3.11753 9.88341 3.20623C9.95881 3.29206 10.0605 3.35048 10.1726 3.37239C10.3013 3.40705 10.4334 3.42769 10.5665 3.43392H10.9788C11.0372 3.4301 11.095 3.41978 11.1511 3.40316C11.2266 3.37965 11.296 3.33972 11.3542 3.28623C11.4048 3.23505 11.4409 3.17134 11.4588 3.10162C11.4588 3.07085 11.4588 2.97854 11.4588 2.97854C11.4588 2.97854 11.3665 3.09546 11.3234 3.13854C11.2835 3.17895 11.2402 3.216 11.1942 3.24931C11.107 3.29457 11.0093 3.31581 10.9111 3.31085C10.7471 3.31929 10.5828 3.31929 10.4188 3.31085C10.2655 3.31175 10.1163 3.26199 9.99418 3.16931C9.90097 3.09608 9.83403 2.99459 9.80341 2.88008C9.74506 2.73368 9.72597 2.57458 9.74803 2.41854C9.75244 2.36347 9.77672 2.31188 9.81634 2.27339C9.85597 2.23489 9.90824 2.21212 9.96341 2.20931C9.9879 2.20928 10.0119 2.2162 10.0326 2.22928C10.0533 2.24235 10.0698 2.26103 10.0803 2.28315C10.1419 2.39392 10.0803 2.49854 10.0803 2.60931C10.1418 2.63257 10.208 2.6408 10.2733 2.6333C10.3386 2.62581 10.4011 2.60281 10.4557 2.56623C10.5019 2.53957 10.5418 2.5032 10.5726 2.45965C10.6034 2.41609 10.6244 2.36638 10.6342 2.31392C10.6849 2.32322 10.737 2.32144 10.7869 2.30869C10.8368 2.29594 10.8834 2.27254 10.9234 2.24008C10.9656 2.19934 10.9993 2.15061 11.0226 2.09674C11.0458 2.04286 11.0581 1.9849 11.0588 1.92623C11.0574 1.83662 11.0363 1.74842 10.9973 1.66777C10.9601 1.61884 10.9115 1.57979 10.8557 1.55404C10.7999 1.52828 10.7386 1.51662 10.6773 1.52008C10.6745 1.46484 10.6601 1.41081 10.6351 1.36149C10.6101 1.31218 10.5749 1.26869 10.532 1.23386C10.489 1.19902 10.4392 1.17363 10.3858 1.15933C10.3323 1.14503 10.2765 1.14214 10.2219 1.15085C10.2308 1.19148 10.2305 1.23361 10.2209 1.27409C10.2113 1.31458 10.1927 1.35238 10.1665 1.38469C10.1526 1.41069 10.1333 1.43344 10.11 1.45147C10.0866 1.4695 10.0598 1.4824 10.0311 1.48931C9.99877 1.49872 9.96448 1.49911 9.93193 1.49043C9.89939 1.48176 9.86985 1.46434 9.84649 1.44008C9.82703 1.42619 9.81068 1.4084 9.79847 1.38785C9.78626 1.3673 9.77846 1.34443 9.77556 1.3207C9.77267 1.29697 9.77475 1.27289 9.78166 1.25001C9.78857 1.22713 9.80017 1.20593 9.81572 1.18777C9.83702 1.16327 9.86358 1.14391 9.89342 1.13112C9.92326 1.11833 9.9556 1.11245 9.98803 1.11392C10.0496 1.11392 10.105 1.16316 10.1357 1.15085C10.1665 1.13854 10.1973 1.04623 10.1973 1.00931C10.2132 0.956788 10.2186 0.901608 10.2129 0.847003C10.2073 0.792399 10.1908 0.73947 10.1644 0.691322C10.1381 0.643174 10.1023 0.600776 10.0594 0.566615C10.0164 0.532454 9.96704 0.507217 9.91418 0.492386C9.88867 0.379197 9.82666 0.277531 9.73771 0.203032C9.64876 0.128534 9.53778 0.0853329 9.42188 0.0800781" fill="black"/>
<path d="M10.4935 4.44404C10.5989 4.44404 10.6843 4.35863 10.6843 4.25327C10.6843 4.14791 10.5989 4.0625 10.4935 4.0625C10.3881 4.0625 10.3027 4.14791 10.3027 4.25327C10.3027 4.35863 10.3881 4.44404 10.4935 4.44404Z" fill="black"/>
<path d="M10.2773 1.72266V2.04266H10.5973V1.72266H10.2773Z" fill="#0098D4"/>
<path d="M11.373 5.57466H13.7361L13.6684 0.208504L13.4592 0.177734L13.2684 0.36235L13.1823 0.553119L12.9361 0.614657L12.8192 0.793119V1.0885L13.0654 1.05773L13.2254 1.1685L13.2561 1.36543L13.0407 1.57466L12.8069 1.45773L12.69 1.23004H12.5238L12.3946 1.34081L12.3392 1.59312L12.0869 1.64235L11.9577 1.93158L12.0623 2.19004L12.2346 2.2762H12.3823L12.5115 2.5162L12.8192 2.5962V2.33773L12.9238 2.17158H13.1269L13.2992 2.35004V2.76235L13.2254 3.01466L12.9484 3.31004L12.493 3.40235H12.0561L11.7977 3.36543C11.6889 3.25698 11.592 3.13734 11.5084 3.0085" fill="#FFDD00"/>
<path d="M13.644 0.209309C13.324 0.209309 13.2687 0.541617 13.244 0.584694C13.2194 0.62777 13.1087 0.615463 13.0656 0.615463C12.9999 0.640536 12.9439 0.685781 12.9056 0.744694C12.8658 0.824727 12.855 0.91603 12.8748 1.00316C12.9196 0.994811 12.9655 0.994811 13.0102 1.00316C13.0668 1.00617 13.1217 1.02307 13.1702 1.05239C13.2295 1.08463 13.2753 1.13701 13.2994 1.20008C13.3205 1.23656 13.3316 1.27795 13.3316 1.32008C13.3316 1.36221 13.3205 1.40359 13.2994 1.44008C13.2564 1.52008 13.2564 1.50777 13.1825 1.557C13.15 1.58282 13.1122 1.60117 13.0718 1.61074C13.0313 1.62031 12.9893 1.62087 12.9487 1.61239C12.8682 1.5969 12.7948 1.5559 12.7394 1.49546C12.6959 1.42904 12.6627 1.35642 12.641 1.28008C12.6048 1.27284 12.5673 1.27659 12.5333 1.29085C12.4993 1.30511 12.4704 1.32922 12.4502 1.36008C12.3913 1.44199 12.365 1.5429 12.3764 1.64316C12.3347 1.6295 12.2903 1.62596 12.247 1.6328C12.2036 1.63965 12.1625 1.6567 12.1271 1.68254C12.0916 1.70838 12.0628 1.74228 12.043 1.78144C12.0232 1.8206 12.013 1.8639 12.0133 1.90777C12.0124 1.9534 12.0231 1.99851 12.0443 2.03891C12.0655 2.07932 12.0966 2.11371 12.1346 2.13888C12.1727 2.16405 12.2165 2.17919 12.262 2.1829C12.3075 2.18661 12.3532 2.17876 12.3948 2.16008C12.3922 2.22261 12.4055 2.28478 12.4335 2.34075C12.4615 2.39673 12.5032 2.44467 12.5548 2.48008C12.6166 2.51448 12.688 2.52746 12.7579 2.517C12.7484 2.46823 12.7484 2.41808 12.7579 2.36931C12.7698 2.29269 12.8017 2.22054 12.8502 2.16008C12.8775 2.13153 12.9115 2.11035 12.9492 2.09852C12.9868 2.08668 13.0269 2.08457 13.0656 2.09239C13.1586 2.1085 13.242 2.15903 13.2994 2.23392C13.3294 2.26928 13.3515 2.31063 13.3642 2.35519C13.377 2.39976 13.38 2.44653 13.3733 2.49239C13.3702 2.63684 13.3453 2.77999 13.2994 2.917C13.2619 3.0295 13.2034 3.1339 13.1271 3.22469C13.0482 3.30926 12.945 3.3673 12.8317 3.39085C12.7033 3.42669 12.5711 3.44735 12.4379 3.45239H12.0317C11.9713 3.44866 11.9115 3.43835 11.8533 3.42162C11.7787 3.39601 11.7098 3.35632 11.6502 3.30469C11.6035 3.25163 11.5698 3.18842 11.5517 3.12008C11.5479 3.07914 11.5479 3.03794 11.5517 2.997C11.5929 3.05359 11.6381 3.10707 11.6871 3.157C11.7271 3.19741 11.7703 3.23446 11.8164 3.26777C11.9016 3.31253 11.9971 3.33377 12.0933 3.32931C12.2593 3.33765 12.4257 3.33765 12.5917 3.32931C12.7431 3.33025 12.8905 3.28042 13.0102 3.18777C13.1034 3.11454 13.1704 3.01305 13.201 2.89854C13.2574 2.75165 13.2785 2.59354 13.2625 2.437C13.2567 2.3814 13.2311 2.32973 13.1905 2.29135C13.1499 2.25296 13.0968 2.23041 13.041 2.22777C13.0166 2.22843 12.9929 2.23564 12.9724 2.24864C12.9518 2.26163 12.9351 2.27994 12.924 2.30162C12.8687 2.41239 12.924 2.517 12.924 2.62777C12.8615 2.65107 12.7944 2.65931 12.7281 2.65182C12.6618 2.64434 12.5982 2.62134 12.5425 2.58469C12.498 2.55678 12.4596 2.51996 12.43 2.47654C12.4003 2.43312 12.38 2.38404 12.3702 2.33239C12.3185 2.34179 12.2655 2.34006 12.2145 2.32733C12.1636 2.31459 12.116 2.29114 12.0748 2.25854C11.994 2.1738 11.9478 2.0618 11.9456 1.94469C11.9482 1.85589 11.967 1.76831 12.001 1.68623C12.0391 1.63681 12.0888 1.5975 12.1456 1.57175C12.2025 1.546 12.2648 1.5346 12.3271 1.53854C12.33 1.48391 12.3442 1.43047 12.3689 1.38164C12.3935 1.3328 12.4281 1.28964 12.4703 1.2549C12.5126 1.22016 12.5617 1.19461 12.6143 1.17988C12.667 1.16514 12.7222 1.16154 12.7764 1.16931C12.7695 1.21042 12.7715 1.25251 12.7821 1.29282C12.7927 1.33312 12.8117 1.37072 12.8379 1.40316C12.8497 1.42948 12.8676 1.45267 12.8901 1.47083C12.9125 1.489 12.9389 1.50165 12.9671 1.50777C13.0004 1.51704 13.0356 1.51737 13.0691 1.50873C13.1026 1.50009 13.1332 1.48278 13.1579 1.45854C13.1752 1.44241 13.189 1.42289 13.1985 1.40119C13.208 1.37948 13.2128 1.35606 13.2128 1.33239C13.2128 1.30871 13.208 1.28529 13.1985 1.26359C13.189 1.24188 13.1752 1.22236 13.1579 1.20623C13.1366 1.18173 13.11 1.16237 13.0802 1.14958C13.0504 1.13679 13.018 1.13091 12.9856 1.13239C12.9302 1.13239 12.8687 1.18162 12.8379 1.16931C12.8071 1.157 12.7825 1.06469 12.7825 1.02777C12.7637 0.967952 12.7587 0.904627 12.7681 0.842614C12.7774 0.780601 12.8008 0.721535 12.8364 0.66991C12.872 0.618286 12.9189 0.575462 12.9735 0.5447C13.0282 0.513937 13.0891 0.496045 13.1517 0.492386C13.1773 0.379197 13.2393 0.277531 13.3282 0.203032C13.4172 0.128534 13.5281 0.0853329 13.644 0.0800781" fill="black"/>
<path d="M12.5736 4.44404C12.6789 4.44404 12.7644 4.35863 12.7644 4.25327C12.7644 4.14791 12.6789 4.0625 12.5736 4.0625C12.4682 4.0625 12.3828 4.14791 12.3828 4.25327C12.3828 4.35863 12.4682 4.44404 12.5736 4.44404Z" fill="black"/>
<path d="M12.7888 1.72266V2.04266H12.4688V1.72266H12.7888Z" fill="#0098D4"/>
<path d="M11.6932 5.57466H9.33008L9.40392 0.208504L9.61316 0.177734L9.79777 0.36235L9.88392 0.553119L10.1301 0.614657L10.247 0.793119V1.0885L10.0008 1.05773L9.84085 1.1685V1.36543L10.0624 1.57466L10.2778 1.45773L10.3824 1.23004H10.5424L10.6716 1.34081L10.7332 1.59312L10.9793 1.64235L11.1085 1.93158L11.0101 2.19004L10.8316 2.2762H10.6901L10.5547 2.5162L10.247 2.5962V2.33773L10.1485 2.17158H9.94546L9.767 2.35004V2.76235L9.83469 3.01466L10.1116 3.31004L10.567 3.40235H11.0039L11.2685 3.36543C11.3603 3.25784 11.4427 3.14254 11.5147 3.02081" fill="#FFDD00"/>
<path d="M9.42188 0.209309C9.74187 0.209309 9.79726 0.541617 9.82803 0.584694C9.8588 0.62777 9.95726 0.62777 10.0003 0.633924C10.066 0.658998 10.122 0.704242 10.1603 0.763155C10.1899 0.846773 10.1899 0.937999 10.1603 1.02162C10.1166 0.995613 10.0666 0.981889 10.0157 0.981889C9.96482 0.981889 9.91486 0.995613 9.87111 1.02162C9.80913 1.05222 9.76083 1.10491 9.73572 1.16931C9.71337 1.20535 9.70153 1.24691 9.70153 1.28931C9.70153 1.33171 9.71337 1.37327 9.73572 1.40931C9.7788 1.48931 9.7788 1.477 9.85264 1.52623C9.8838 1.55233 9.92054 1.5709 9.96003 1.5805C9.99951 1.59011 10.0407 1.59049 10.0803 1.58162C10.1483 1.56384 10.2101 1.52764 10.2588 1.477C10.3033 1.41031 10.3385 1.33784 10.3634 1.26162C10.3987 1.25393 10.4355 1.25752 10.4686 1.27187C10.5017 1.28623 10.5295 1.31062 10.548 1.34162C10.607 1.42353 10.6333 1.52444 10.6219 1.62469C10.6639 1.60982 10.7089 1.60533 10.7531 1.61159C10.7973 1.61786 10.8393 1.6347 10.8755 1.66068C10.9118 1.68667 10.9412 1.72102 10.9613 1.76083C10.9815 1.80063 10.9917 1.84471 10.9911 1.88931C10.992 1.93494 10.9813 1.98005 10.9601 2.02045C10.9389 2.06086 10.9078 2.09524 10.8697 2.12042C10.8317 2.14559 10.7879 2.16073 10.7424 2.16444C10.6969 2.16815 10.6512 2.16029 10.6096 2.14162C10.6122 2.20414 10.5989 2.26631 10.5709 2.32229C10.5429 2.37827 10.5012 2.42621 10.4496 2.46162C10.3875 2.49517 10.3164 2.5081 10.2465 2.49854C10.2529 2.44952 10.2529 2.39987 10.2465 2.35085C10.2392 2.27409 10.2092 2.20124 10.1603 2.14162C10.1318 2.11302 10.0967 2.09189 10.058 2.08008C10.0194 2.06828 9.97844 2.06616 9.9388 2.07392C9.84583 2.09004 9.76234 2.14057 9.70495 2.21546C9.67498 2.25082 9.6529 2.29216 9.64016 2.33673C9.62743 2.3813 9.62434 2.42807 9.63111 2.47392C9.63419 2.61838 9.65908 2.76153 9.70495 2.89854C9.74188 3.01263 9.80272 3.11753 9.88341 3.20623C9.95881 3.29206 10.0605 3.35048 10.1726 3.37239C10.3013 3.40705 10.4334 3.42769 10.5665 3.43392H10.9788C11.0372 3.4301 11.095 3.41978 11.1511 3.40316C11.2266 3.37965 11.296 3.33972 11.3542 3.28623C11.4048 3.23505 11.4409 3.17134 11.4588 3.10162C11.4588 3.07085 11.4588 2.97854 11.4588 2.97854C11.4588 2.97854 11.3665 3.09546 11.3234 3.13854C11.2835 3.17895 11.2402 3.216 11.1942 3.24931C11.107 3.29457 11.0093 3.31581 10.9111 3.31085C10.7471 3.31929 10.5828 3.31929 10.4188 3.31085C10.2655 3.31175 10.1163 3.26199 9.99418 3.16931C9.90097 3.09608 9.83403 2.99459 9.80341 2.88008C9.74506 2.73368 9.72597 2.57458 9.74803 2.41854C9.75244 2.36347 9.77672 2.31188 9.81634 2.27339C9.85597 2.23489 9.90824 2.21212 9.96341 2.20931C9.9879 2.20928 10.0119 2.2162 10.0326 2.22928C10.0533 2.24235 10.0698 2.26103 10.0803 2.28315C10.1419 2.39392 10.0803 2.49854 10.0803 2.60931C10.1418 2.63257 10.208 2.6408 10.2733 2.6333C10.3386 2.62581 10.4011 2.60281 10.4557 2.56623C10.5019 2.53957 10.5418 2.5032 10.5726 2.45965C10.6034 2.41609 10.6244 2.36638 10.6342 2.31392C10.6849 2.32322 10.737 2.32144 10.7869 2.30869C10.8368 2.29594 10.8834 2.27254 10.9234 2.24008C10.9656 2.19934 10.9993 2.15061 11.0226 2.09674C11.0458 2.04286 11.0581 1.9849 11.0588 1.92623C11.0574 1.83662 11.0363 1.74842 10.9973 1.66777C10.9601 1.61884 10.9115 1.57979 10.8557 1.55404C10.7999 1.52828 10.7386 1.51662 10.6773 1.52008C10.6745 1.46484 10.6601 1.41081 10.6351 1.36149C10.6101 1.31218 10.5749 1.26869 10.532 1.23386C10.489 1.19902 10.4392 1.17363 10.3858 1.15933C10.3323 1.14503 10.2765 1.14214 10.2219 1.15085C10.2308 1.19148 10.2305 1.23361 10.2209 1.27409C10.2113 1.31458 10.1927 1.35238 10.1665 1.38469C10.1526 1.41069 10.1333 1.43344 10.11 1.45147C10.0866 1.4695 10.0598 1.4824 10.0311 1.48931C9.99877 1.49872 9.96448 1.49911 9.93193 1.49043C9.89939 1.48176 9.86985 1.46434 9.84649 1.44008C9.82703 1.42619 9.81068 1.4084 9.79847 1.38785C9.78626 1.3673 9.77846 1.34443 9.77556 1.3207C9.77267 1.29697 9.77475 1.27289 9.78166 1.25001C9.78857 1.22713 9.80017 1.20593 9.81572 1.18777C9.83702 1.16327 9.86358 1.14391 9.89342 1.13112C9.92326 1.11833 9.9556 1.11245 9.98803 1.11392C10.0496 1.11392 10.105 1.16316 10.1357 1.15085C10.1665 1.13854 10.1973 1.04623 10.1973 1.00931C10.2132 0.956788 10.2186 0.901608 10.2129 0.847003C10.2073 0.792399 10.1908 0.73947 10.1644 0.691322C10.1381 0.643174 10.1023 0.600776 10.0594 0.566615C10.0164 0.532454 9.96704 0.507217 9.91418 0.492386C9.88867 0.379197 9.82666 0.277531 9.73771 0.203032C9.64876 0.128534 9.53778 0.0853329 9.42188 0.0800781" fill="black"/>
<path d="M10.4935 4.44404C10.5989 4.44404 10.6843 4.35863 10.6843 4.25327C10.6843 4.14791 10.5989 4.0625 10.4935 4.0625C10.3881 4.0625 10.3027 4.14791 10.3027 4.25327C10.3027 4.35863 10.3881 4.44404 10.4935 4.44404Z" fill="black"/>
<path d="M10.2773 1.72266V2.04266H10.5973V1.72266H10.2773Z" fill="#0098D4"/>
<path d="M11.5103 2.04883C11.2026 2.04883 11.1042 2.38729 11.3072 2.62114C10.9995 2.52883 10.7349 2.76883 10.8703 2.99037C11.0057 3.21191 11.3503 3.13806 11.4857 2.93498C11.6642 3.16267 11.9842 3.24883 12.1319 3.00267C12.2795 2.75652 11.9965 2.49191 11.7072 2.61498C11.9288 2.38729 11.8426 2.04883 11.5103 2.04883Z" fill="#0098D4" stroke="black" stroke-width="0.116923" stroke-linejoin="round"/>
<path d="M11.0234 4.57242V3.95703H12.0757V4.57242H11.0234Z" fill="#ED1C24" stroke="black" stroke-width="0.116923" stroke-miterlimit="10"/>
<path d="M9.43555 3.50687V1.77148V3.50687Z" fill="black"/>
<path d="M9.43555 3.50687V1.77148" stroke="black" stroke-width="0.104615" stroke-miterlimit="10"/>
<path d="M9.27539 0.566406V0.886406H9.59539V0.566406H9.27539Z" fill="#ED1C24"/>
<path d="M9.43548 3.91406L8.90625 4.25252L9.43548 4.59099L9.94625 4.25252L9.43548 3.91406Z" fill="#0098D4" stroke="black" stroke-width="0.116923" stroke-miterlimit="10"/>
<path d="M3.26347 5.57466H0.900391L0.974237 0.208504L1.17731 0.177734L1.36808 0.36235L1.45424 0.553119L1.70039 0.614657L1.81731 0.793119V1.0885L1.57116 1.05773L1.41116 1.1685L1.38039 1.36543L1.60193 1.57466L1.83578 1.45773L1.9527 1.23004H2.1127L2.24193 1.34081L2.30347 1.59312L2.54962 1.64235L2.67885 1.93158L2.58039 2.19004L2.40193 2.2762H2.27885L2.14962 2.5162L1.84193 2.5962V2.33773L1.74347 2.17158H1.54039L1.36193 2.35004V2.76235L1.43578 3.01466L1.7127 3.31004L2.16808 3.40235H2.60501L2.86962 3.36543C2.96142 3.25784 3.04378 3.14254 3.11578 3.02081" fill="#FFDD00"/>
<path d="M0.992188 0.209309C1.31219 0.209309 1.36757 0.541617 1.39834 0.584694C1.42911 0.62777 1.52757 0.62777 1.57065 0.633924C1.63631 0.658998 1.69232 0.704242 1.73065 0.763155C1.77038 0.843189 1.78125 0.934491 1.76142 1.02162C1.71675 1.0125 1.6707 1.0125 1.62603 1.02162C1.56946 1.02463 1.51451 1.04154 1.46603 1.07085C1.40672 1.10309 1.36089 1.15547 1.3368 1.21854C1.31574 1.25502 1.30465 1.29641 1.30465 1.33854C1.30465 1.38067 1.31574 1.42206 1.3368 1.45854C1.38603 1.53854 1.38603 1.52623 1.45373 1.57546C1.48625 1.60128 1.52407 1.61963 1.56448 1.6292C1.60489 1.63877 1.64692 1.63934 1.68757 1.63085C1.75556 1.61308 1.81732 1.57687 1.86603 1.52623C1.90952 1.45981 1.94272 1.38719 1.9645 1.31085C2.00067 1.30174 2.03882 1.30461 2.07322 1.31903C2.10762 1.33346 2.13641 1.35866 2.15526 1.39085C2.21419 1.47276 2.24051 1.57367 2.22911 1.67392C2.27082 1.65876 2.31561 1.65409 2.35955 1.66031C2.40349 1.66653 2.44522 1.68345 2.48109 1.70958C2.51695 1.73572 2.54584 1.77027 2.56521 1.8102C2.58458 1.85012 2.59385 1.89419 2.59219 1.93854C2.59427 1.98394 2.58462 2.02911 2.56418 2.0697C2.54373 2.11029 2.51318 2.14493 2.47546 2.17028C2.43774 2.19563 2.39413 2.21084 2.34883 2.21444C2.30352 2.21805 2.25805 2.20992 2.2168 2.19085C2.21316 2.24396 2.19808 2.29566 2.17258 2.34239C2.14709 2.38913 2.11179 2.4298 2.06911 2.46162C2.005 2.49565 1.93177 2.50857 1.85988 2.49854C1.86934 2.44976 1.86934 2.39962 1.85988 2.35085C1.85003 2.27475 1.82032 2.20258 1.77373 2.14162C1.74489 2.11346 1.70973 2.09262 1.67118 2.08084C1.63264 2.06907 1.59184 2.06669 1.55219 2.07392C1.45922 2.09004 1.37573 2.14057 1.31834 2.21546C1.28837 2.25082 1.26629 2.29216 1.25355 2.33673C1.24082 2.3813 1.23773 2.42807 1.2445 2.47392C1.24758 2.61838 1.27247 2.76153 1.31834 2.89854C1.35527 3.01263 1.41611 3.11753 1.4968 3.20623C1.5722 3.29206 1.67391 3.35048 1.78603 3.37239C1.91471 3.40705 2.04676 3.42769 2.17988 3.43392H2.58603C2.64652 3.43067 2.70641 3.42035 2.7645 3.40316C2.83905 3.37755 2.90799 3.33785 2.96757 3.28623C3.01578 3.23327 3.05153 3.17019 3.07219 3.10162C3.07219 3.07085 3.07219 2.97854 3.07219 2.97854C3.07219 2.97854 2.97988 3.09546 2.9368 3.13854C2.89477 3.17909 2.84949 3.21614 2.80142 3.24931C2.71666 3.29524 2.62074 3.31656 2.5245 3.31085C2.3605 3.31929 2.19618 3.31929 2.03219 3.31085C1.89785 3.3011 1.76939 3.25186 1.66296 3.16931C1.56974 3.09608 1.5028 2.99459 1.47219 2.88008C1.41384 2.73368 1.39475 2.57458 1.4168 2.41854C1.42121 2.36347 1.44549 2.31188 1.48512 2.27339C1.52474 2.23489 1.57701 2.21212 1.63219 2.20931C1.65667 2.20928 1.68066 2.2162 1.70136 2.22928C1.72206 2.24235 1.73862 2.26103 1.74911 2.28315C1.81065 2.39392 1.74911 2.49854 1.74911 2.60931C1.81162 2.6326 1.87874 2.64084 1.94503 2.63336C2.01132 2.62588 2.07491 2.60288 2.13065 2.56623C2.21092 2.50463 2.26392 2.41408 2.27834 2.31392C2.32903 2.32282 2.38103 2.32083 2.4309 2.3081C2.48076 2.29537 2.52735 2.27218 2.56757 2.24008C2.60896 2.19903 2.64171 2.15012 2.66391 2.09622C2.6861 2.04232 2.69729 1.98452 2.6968 1.92623C2.69728 1.83708 2.67838 1.7489 2.64142 1.66777C2.60424 1.61884 2.55562 1.57979 2.49983 1.55404C2.44403 1.52828 2.38277 1.51662 2.32142 1.52008C2.31865 1.46484 2.30428 1.41081 2.27925 1.36149C2.25421 1.31218 2.21907 1.26869 2.17611 1.23386C2.13315 1.19902 2.08334 1.17363 2.02991 1.15933C1.97649 1.14503 1.92065 1.14214 1.86603 1.15085C1.87333 1.19154 1.87217 1.2333 1.86264 1.27353C1.85312 1.31375 1.83542 1.35159 1.81065 1.38469C1.79673 1.41069 1.77747 1.43344 1.75414 1.45147C1.73081 1.4695 1.70393 1.4824 1.67526 1.48931C1.64293 1.49872 1.60863 1.49911 1.57609 1.49043C1.54355 1.48176 1.514 1.46434 1.49065 1.44008C1.47119 1.42619 1.45484 1.4084 1.44263 1.38785C1.43042 1.3673 1.42262 1.34443 1.41972 1.3207C1.41683 1.29697 1.4189 1.27289 1.42582 1.25001C1.43273 1.22713 1.44433 1.20593 1.45988 1.18777C1.48422 1.15866 1.51583 1.13651 1.55149 1.12354C1.58715 1.11057 1.6256 1.10725 1.66296 1.11392C1.7245 1.11392 1.77988 1.16316 1.81065 1.15085C1.84142 1.13854 1.86603 1.04623 1.86603 1.00931C1.88297 0.949638 1.88601 0.886881 1.87492 0.825853C1.86384 0.764825 1.83892 0.707146 1.80209 0.65724C1.76525 0.607335 1.71748 0.566529 1.66242 0.537953C1.60737 0.509377 1.54651 0.493789 1.4845 0.492386C1.45898 0.379197 1.39697 0.277531 1.30802 0.203032C1.21907 0.128534 1.1081 0.0853329 0.992188 0.0800781" fill="black"/>
<path d="M2.06382 4.44404C2.16918 4.44404 2.25459 4.35863 2.25459 4.25327C2.25459 4.14791 2.16918 4.0625 2.06382 4.0625C1.95846 4.0625 1.87305 4.14791 1.87305 4.25327C1.87305 4.35863 1.95846 4.44404 2.06382 4.44404Z" fill="black"/>
<path d="M1.84766 1.72266V2.04266H2.16766V1.72266H1.84766Z" fill="#0098D4"/>
<path d="M3.10211 2.04883C2.79442 2.04883 2.69596 2.38729 2.89903 2.62114C2.59134 2.52883 2.32673 2.76883 2.46211 2.99037C2.59749 3.21191 2.94211 3.13806 3.07749 2.93498C3.25596 3.16267 3.57596 3.24883 3.69288 3.00267C3.8098 2.75652 3.56365 2.49191 3.27442 2.61498C3.50826 2.38729 3.4098 2.04883 3.10211 2.04883Z" fill="#0098D4" stroke="black" stroke-width="0.116923" stroke-linejoin="round"/>
<path d="M2.5918 4.57242V3.95703H3.6441V4.57242H2.5918Z" fill="#ED1C24" stroke="black" stroke-width="0.116923" stroke-miterlimit="10"/>
<path d="M0.99482 1.07111C1.20554 1.07111 1.37636 0.875495 1.37636 0.634189C1.37636 0.392883 1.20554 0.197266 0.99482 0.197266C0.784102 0.197266 0.613281 0.392883 0.613281 0.634189C0.613281 0.875495 0.784102 1.07111 0.99482 1.07111Z" fill="#FFDD00"/>
<path d="M1.00825 0.0930331V0.197649C0.960211 0.195729 0.912314 0.204066 0.867747 0.222104C0.823181 0.240143 0.78297 0.267469 0.74979 0.302264C0.692216 0.352307 0.649654 0.417342 0.626839 0.490133C0.604024 0.562925 0.60185 0.640618 0.620559 0.714572C0.637007 0.813974 0.689282 0.903913 0.767513 0.967405C0.845744 1.0309 0.944515 1.06355 1.04517 1.05919V2.2038L0.922098 2.16688V1.18226C0.81223 1.15456 0.712142 1.09707 0.632867 1.01611C0.554577 0.92493 0.5047 0.812821 0.489389 0.693621C0.474079 0.574421 0.494007 0.453346 0.546713 0.345341C0.591338 0.263445 0.658577 0.196113 0.740412 0.151376C0.822248 0.10664 0.915224 0.0863868 1.00825 0.0930331Z" fill="black" stroke="black" stroke-width="0.0184615"/>
<path d="M1.90564 4.56715C2.07898 4.56715 2.21949 4.42663 2.21949 4.2533C2.21949 4.07997 2.07898 3.93945 1.90564 3.93945C1.73231 3.93945 1.5918 4.07997 1.5918 4.2533C1.5918 4.42663 1.73231 4.56715 1.90564 4.56715Z" fill="black" stroke="#FFDD00" stroke-width="0.246154"/>
<path d="M1.21258 0.566406V0.886406H0.892578V0.566406H1.21258Z" fill="#ED1C24"/>
<path d="M9.16341 23.3842L1.96957 6.06114H6.46187L13.588 23.255L14.6526 22.9657L15.7296 22.3504L16.5542 21.4027L16.9542 20.5042L1.46495 15.3842L1.42188 15.4519L4.58495 23.095L3.50803 22.6334L2.76341 22.0181L2.27726 21.3781L1.77264 20.3073L1.62495 19.8027L12.308 23.3411L9.16341 23.3842ZM16.9542 20.5227L10.8926 6.10421L12.6773 6.04883L17.3849 7.5996V6.06114H15.3726L17.3788 10.8919V11.9381L1.42803 6.69498V11.0027L17.428 16.2827L17.268 19.0765L17.1203 20.0057L16.9542 20.5227Z" fill="#0090CF" stroke="black" stroke-width="0.123077"/>
<path d="M15.8963 5.57466H13.5332L13.607 0.208504L13.8163 0.177734L14.0009 0.36235L14.087 0.553119L14.3394 0.614657L14.4563 0.793119V1.0885L14.204 1.05773L14.044 1.1685L14.0132 1.36543L14.2347 1.57466L14.4686 1.45773L14.5855 1.23004H14.7455L14.8747 1.34081L14.9363 1.59312L15.1824 1.64235L15.3178 1.93158L15.2009 2.17773L15.0286 2.26389H14.8932L14.7578 2.50389L14.4563 2.58389V2.33773L14.3517 2.17158H14.1486L13.9701 2.33773V2.75004L14.044 3.00235L14.3209 3.29773L14.7701 3.39004H15.2009L15.4655 3.35312C15.5595 3.24723 15.642 3.13171 15.7117 3.0085" fill="#FFDD00"/>
<path d="M13.625 0.209309C13.945 0.209309 14.0004 0.541617 14.0312 0.584694C14.0619 0.62777 14.1604 0.62777 14.2035 0.633924C14.2691 0.658998 14.3251 0.704242 14.3635 0.763155C14.4065 0.842174 14.4175 0.934705 14.3942 1.02162C14.3505 0.995613 14.3005 0.981889 14.2496 0.981889C14.1987 0.981889 14.1488 0.995613 14.105 1.02162C14.043 1.05222 13.9947 1.10491 13.9696 1.16931C13.9486 1.20579 13.9375 1.24718 13.9375 1.28931C13.9375 1.33144 13.9486 1.37282 13.9696 1.40931C14.0127 1.48931 14.0127 1.477 14.0865 1.52623C14.1186 1.55284 14.1564 1.57168 14.197 1.58129C14.2375 1.59089 14.2798 1.59101 14.3204 1.58162C14.3871 1.56506 14.4472 1.52856 14.4927 1.477C14.5399 1.41186 14.5753 1.33897 14.5973 1.26162C14.6335 1.25438 14.6709 1.25813 14.7049 1.27239C14.7389 1.28665 14.7679 1.31076 14.7881 1.34162C14.8428 1.42526 14.8667 1.52534 14.8558 1.62469C14.8978 1.60982 14.9428 1.60533 14.987 1.61159C15.0312 1.61786 15.0732 1.6347 15.1094 1.66068C15.1457 1.68667 15.1751 1.72102 15.1952 1.76083C15.2154 1.80063 15.2256 1.84471 15.225 1.88931C15.2259 1.93494 15.2152 1.98005 15.194 2.02045C15.1728 2.06086 15.1417 2.09524 15.1036 2.12042C15.0656 2.14559 15.0218 2.16073 14.9763 2.16444C14.9308 2.16815 14.8851 2.16029 14.8435 2.14162C14.8461 2.20414 14.8328 2.26631 14.8048 2.32229C14.7768 2.37827 14.7351 2.42621 14.6835 2.46162C14.6216 2.49558 14.5503 2.50854 14.4804 2.49854C14.4868 2.44952 14.4868 2.39987 14.4804 2.35085C14.4731 2.27409 14.4431 2.20124 14.3942 2.14162C14.366 2.11256 14.3309 2.09111 14.2922 2.07927C14.2534 2.06744 14.2123 2.0656 14.1727 2.07392C14.0797 2.09004 13.9962 2.14057 13.9388 2.21546C13.9089 2.25082 13.8868 2.29216 13.8741 2.33673C13.8613 2.3813 13.8582 2.42807 13.865 2.47392C13.8681 2.61838 13.893 2.76153 13.9388 2.89854C13.9758 3.01263 14.0366 3.11753 14.1173 3.20623C14.1927 3.29206 14.2944 3.35048 14.4065 3.37239C14.5352 3.40705 14.6673 3.42769 14.8004 3.43392H15.2127C15.2711 3.4301 15.3289 3.41978 15.385 3.40316C15.4605 3.37965 15.5298 3.33972 15.5881 3.28623C15.6387 3.23505 15.6748 3.17134 15.6927 3.10162C15.6927 3.07085 15.6927 2.97854 15.6927 2.97854C15.6927 2.97854 15.6004 3.09546 15.5573 3.13854C15.5173 3.17895 15.4741 3.216 15.4281 3.24931C15.3429 3.29406 15.2473 3.31531 15.1512 3.31085C14.9851 3.3194 14.8187 3.3194 14.6527 3.31085C14.4994 3.31175 14.3501 3.26199 14.2281 3.16931C14.1381 3.09316 14.0719 2.99277 14.0373 2.88008C13.979 2.73368 13.9599 2.57458 13.9819 2.41854C13.9863 2.36347 14.0106 2.31188 14.0502 2.27339C14.0899 2.23489 14.1421 2.21212 14.1973 2.20931C14.222 2.20849 14.2463 2.21509 14.2671 2.22826C14.288 2.24142 14.3044 2.26055 14.3142 2.28315C14.3758 2.39392 14.3142 2.49854 14.3142 2.60931C14.3757 2.63257 14.4418 2.6408 14.5071 2.6333C14.5724 2.62581 14.635 2.60281 14.6896 2.56623C14.7358 2.53957 14.7757 2.5032 14.8065 2.45965C14.8373 2.41609 14.8583 2.36638 14.8681 2.31392C14.9252 2.33026 14.9856 2.33207 15.0436 2.31917C15.1016 2.30627 15.1555 2.27909 15.2004 2.24008C15.2426 2.19934 15.2763 2.15061 15.2996 2.09674C15.3228 2.04286 15.3351 1.9849 15.3358 1.92623C15.3343 1.83662 15.3133 1.74842 15.2742 1.66777C15.2374 1.61843 15.1889 1.57907 15.133 1.55328C15.0771 1.52749 15.0157 1.51607 14.9542 1.52008C14.9515 1.46484 14.9371 1.41081 14.9121 1.36149C14.887 1.31218 14.8519 1.26869 14.8089 1.23386C14.766 1.19902 14.7161 1.17363 14.6627 1.15933C14.6093 1.14503 14.5535 1.14214 14.4988 1.15085C14.5078 1.19148 14.5074 1.23361 14.4978 1.27409C14.4883 1.31458 14.4697 1.35238 14.4435 1.38469C14.4299 1.40982 14.4115 1.43201 14.3893 1.44997C14.3672 1.46793 14.3416 1.4813 14.3142 1.48931C14.281 1.49924 14.2456 1.4999 14.212 1.49123C14.1784 1.48255 14.1478 1.46487 14.1235 1.44008C14.104 1.42619 14.0877 1.4084 14.0754 1.38785C14.0632 1.3673 14.0554 1.34443 14.0525 1.3207C14.0496 1.29697 14.0517 1.27289 14.0586 1.25001C14.0655 1.22713 14.0771 1.20593 14.0927 1.18777C14.1149 1.16279 14.1425 1.14317 14.1735 1.13038C14.2044 1.11759 14.2378 1.11196 14.2712 1.11392C14.3265 1.11392 14.3881 1.16316 14.4127 1.15085C14.4373 1.13854 14.4742 1.04623 14.4742 1.00931C14.4897 0.951597 14.4924 0.891214 14.4822 0.832341C14.4721 0.773468 14.4492 0.717512 14.4153 0.668346C14.3813 0.619181 14.3371 0.57798 14.2856 0.547598C14.2342 0.517215 14.1768 0.498377 14.1173 0.492386C14.0918 0.379197 14.0298 0.277531 13.9408 0.203032C13.8519 0.128534 13.7409 0.0853329 13.625 0.0800781" fill="black"/>
<path d="M14.6966 4.44404C14.802 4.44404 14.8874 4.35863 14.8874 4.25327C14.8874 4.14791 14.802 4.0625 14.6966 4.0625C14.5913 4.0625 14.5059 4.14791 14.5059 4.25327C14.5059 4.35863 14.5913 4.44404 14.6966 4.44404Z" fill="black"/>
<path d="M14.4805 1.72266V2.04266H14.8066V1.72266H14.4805Z" fill="#0098D4"/>
<path d="M15.5762 5.57466H17.9454L17.8716 0.208504L17.6623 0.177734L17.4777 0.36235L17.3854 0.553119L17.1392 0.614657L17.0469 0.793119V1.0885L17.2931 1.05773L17.4592 1.1685V1.36543L17.2439 1.57466L17.01 1.45773L16.8931 1.23004H16.7331L16.5977 1.34081L16.5423 1.59312L16.29 1.64235L16.1608 1.93158L16.2654 2.19004L16.4377 2.2762H16.5854L16.7146 2.5162L17.0223 2.5962V2.33773L17.1269 2.17158H17.33L17.5023 2.35004V2.76235L17.4285 3.01466L17.1516 3.31004L16.7023 3.40235H16.2469L15.9885 3.36543C15.8933 3.2591 15.8088 3.14367 15.7362 3.02081" fill="#FFDD00"/>
<path d="M17.8527 0.209309C17.5327 0.209309 17.4773 0.541617 17.4465 0.584694C17.4157 0.62777 17.3173 0.62777 17.268 0.633924C17.2034 0.660679 17.1478 0.705557 17.108 0.763155C17.0794 0.846935 17.0794 0.937837 17.108 1.02162C17.1506 1.01228 17.1947 1.01228 17.2373 1.02162C17.294 1.02354 17.3493 1.04053 17.3973 1.07085C17.4581 1.10117 17.5045 1.15423 17.5265 1.21854C17.5476 1.25502 17.5587 1.29641 17.5587 1.33854C17.5587 1.38067 17.5476 1.42206 17.5265 1.45854C17.4834 1.53854 17.4834 1.52623 17.4096 1.57546C17.3773 1.60167 17.3395 1.62025 17.299 1.62984C17.2585 1.63943 17.2164 1.63977 17.1757 1.63085C17.109 1.61429 17.0489 1.5778 17.0034 1.52623C16.9563 1.46109 16.9209 1.3882 16.8988 1.31085C16.8627 1.30361 16.8252 1.30736 16.7912 1.32162C16.7572 1.33588 16.7282 1.35999 16.708 1.39085C16.6491 1.47276 16.6228 1.57367 16.6342 1.67392C16.5925 1.66027 16.5482 1.65673 16.5048 1.66357C16.4615 1.67042 16.4204 1.68747 16.3849 1.71331C16.3495 1.73915 16.3207 1.77305 16.3009 1.81221C16.2811 1.85137 16.2709 1.89467 16.2711 1.93854C16.2702 1.98417 16.2809 2.02928 16.3021 2.06968C16.3233 2.11009 16.3544 2.14447 16.3925 2.16965C16.4306 2.19482 16.4744 2.20996 16.5199 2.21367C16.5653 2.21738 16.611 2.20953 16.6527 2.19085C16.65 2.25337 16.6633 2.31555 16.6913 2.37152C16.7193 2.4275 16.7611 2.47544 16.8127 2.51085C16.8744 2.54525 16.9458 2.55823 17.0157 2.54777C17.0094 2.49875 17.0094 2.4491 17.0157 2.40008C17.0001 2.31884 17.0109 2.23475 17.0465 2.16008C17.0738 2.13153 17.1078 2.11035 17.1455 2.09852C17.1832 2.08668 17.2232 2.08457 17.2619 2.09239C17.3549 2.1085 17.4383 2.15903 17.4957 2.23392C17.5257 2.26928 17.5478 2.31063 17.5605 2.35519C17.5733 2.39976 17.5763 2.44653 17.5696 2.49239C17.5665 2.63684 17.5416 2.77999 17.4957 2.917C17.4582 3.0295 17.3997 3.1339 17.3234 3.22469C17.2445 3.30926 17.1413 3.3673 17.028 3.39085C16.8996 3.42669 16.7674 3.44735 16.6342 3.45239H16.228C16.1696 3.44856 16.1119 3.43824 16.0557 3.42162C15.9783 3.39838 15.9069 3.35847 15.8465 3.30469C15.7998 3.25163 15.7661 3.18842 15.748 3.12008C15.748 3.08931 15.748 2.997 15.748 2.997C15.748 2.997 15.8404 3.11392 15.8834 3.157C15.9234 3.19741 15.9666 3.23446 16.0127 3.26777C16.0979 3.31253 16.1935 3.33377 16.2896 3.32931C16.4556 3.33765 16.622 3.33765 16.788 3.32931C16.9413 3.33021 17.0906 3.28046 17.2127 3.18777C17.3043 3.11423 17.3691 3.01259 17.3973 2.89854C17.4537 2.75165 17.4748 2.59354 17.4588 2.437C17.4543 2.38092 17.4291 2.3285 17.3882 2.28986C17.3473 2.25123 17.2935 2.22911 17.2373 2.22777C17.213 2.22843 17.1893 2.23564 17.1687 2.24864C17.1481 2.26163 17.1314 2.27994 17.1204 2.30162C17.065 2.41239 17.1204 2.517 17.1204 2.62777C17.0578 2.65058 16.9907 2.65857 16.9245 2.65109C16.8583 2.64362 16.7948 2.62089 16.7388 2.58469C16.6943 2.55678 16.656 2.51996 16.6263 2.47654C16.5967 2.43312 16.5763 2.38404 16.5665 2.33239C16.5148 2.34139 16.4619 2.33947 16.411 2.32676C16.3601 2.31404 16.3125 2.2908 16.2711 2.25854C16.1903 2.1738 16.1442 2.0618 16.1419 1.94469C16.1433 1.85509 16.1643 1.76688 16.2034 1.68623C16.2402 1.63689 16.2888 1.59754 16.3447 1.57174C16.4006 1.54595 16.462 1.53453 16.5234 1.53854C16.5263 1.48391 16.5405 1.43047 16.5652 1.38164C16.5898 1.3328 16.6244 1.28964 16.6667 1.2549C16.7089 1.22016 16.758 1.19461 16.8106 1.17988C16.8633 1.16514 16.9185 1.16154 16.9727 1.16931C16.9658 1.21042 16.9678 1.25251 16.9784 1.29282C16.989 1.33312 17.008 1.37072 17.0342 1.40316C17.0471 1.42872 17.0653 1.45126 17.0876 1.46929C17.1099 1.48733 17.1357 1.50044 17.1634 1.50777C17.1968 1.51704 17.2319 1.51737 17.2654 1.50873C17.2989 1.50009 17.3295 1.48278 17.3542 1.45854C17.3737 1.44465 17.39 1.42686 17.4022 1.40631C17.4144 1.38576 17.4222 1.36289 17.4251 1.33916C17.428 1.31543 17.4259 1.29136 17.419 1.26847C17.4121 1.24559 17.4005 1.22439 17.385 1.20623C17.3625 1.1816 17.3348 1.16221 17.304 1.14945C17.2731 1.13669 17.2398 1.13086 17.2065 1.13239C17.1511 1.13239 17.0896 1.18162 17.0588 1.16931C17.028 1.157 17.0034 1.06469 17.0034 1.02777C16.9848 0.96889 16.9795 0.906566 16.9882 0.845403C16.9968 0.78424 17.0191 0.725801 17.0534 0.674404C17.0876 0.623007 17.133 0.579966 17.1862 0.548461C17.2393 0.516956 17.2988 0.497792 17.3604 0.492386C17.3859 0.379197 17.4479 0.277531 17.5368 0.203032C17.6258 0.128534 17.7368 0.0853329 17.8527 0.0800781" fill="black"/>
<path d="M16.7826 4.44404C16.8879 4.44404 16.9733 4.35863 16.9733 4.25327C16.9733 4.14791 16.8879 4.0625 16.7826 4.0625C16.6772 4.0625 16.5918 4.14791 16.5918 4.25327C16.5918 4.35863 16.6772 4.44404 16.7826 4.44404Z" fill="black"/>
<path d="M16.9919 1.72266V2.04266H16.6719V1.72266H16.9919Z" fill="#0098D4"/>
<path d="M15.8963 5.57466H13.5332L13.607 0.208504L13.8163 0.177734L14.0009 0.36235L14.087 0.553119L14.3394 0.614657L14.4563 0.793119V1.0885L14.204 1.05773L14.044 1.1685L14.0132 1.36543L14.2347 1.57466L14.4686 1.45773L14.5855 1.23004H14.7455L14.8747 1.34081L14.9363 1.59312L15.1824 1.64235L15.3178 1.93158L15.2009 2.17773L15.0286 2.26389H14.8932L14.7578 2.50389L14.4563 2.58389V2.33773L14.3517 2.17158H14.1486L13.9701 2.33773V2.75004L14.044 3.00235L14.3209 3.29773L14.7701 3.39004H15.2009L15.4655 3.35312C15.5595 3.24723 15.642 3.13171 15.7117 3.0085" fill="#FFDD00"/>
<path d="M13.625 0.209309C13.945 0.209309 14.0004 0.541617 14.0312 0.584694C14.0619 0.62777 14.1604 0.62777 14.2035 0.633924C14.2691 0.658998 14.3251 0.704242 14.3635 0.763155C14.4065 0.842174 14.4175 0.934705 14.3942 1.02162C14.3505 0.995613 14.3005 0.981889 14.2496 0.981889C14.1987 0.981889 14.1488 0.995613 14.105 1.02162C14.043 1.05222 13.9947 1.10491 13.9696 1.16931C13.9486 1.20579 13.9375 1.24718 13.9375 1.28931C13.9375 1.33144 13.9486 1.37282 13.9696 1.40931C14.0127 1.48931 14.0127 1.477 14.0865 1.52623C14.1186 1.55284 14.1564 1.57168 14.197 1.58129C14.2375 1.59089 14.2798 1.59101 14.3204 1.58162C14.3871 1.56506 14.4472 1.52856 14.4927 1.477C14.5399 1.41186 14.5753 1.33897 14.5973 1.26162C14.6335 1.25438 14.6709 1.25813 14.7049 1.27239C14.7389 1.28665 14.7679 1.31076 14.7881 1.34162C14.8428 1.42526 14.8667 1.52534 14.8558 1.62469C14.8978 1.60982 14.9428 1.60533 14.987 1.61159C15.0312 1.61786 15.0732 1.6347 15.1094 1.66068C15.1457 1.68667 15.1751 1.72102 15.1952 1.76083C15.2154 1.80063 15.2256 1.84471 15.225 1.88931C15.2259 1.93494 15.2152 1.98005 15.194 2.02045C15.1728 2.06086 15.1417 2.09524 15.1036 2.12042C15.0656 2.14559 15.0218 2.16073 14.9763 2.16444C14.9308 2.16815 14.8851 2.16029 14.8435 2.14162C14.8461 2.20414 14.8328 2.26631 14.8048 2.32229C14.7768 2.37827 14.7351 2.42621 14.6835 2.46162C14.6216 2.49558 14.5503 2.50854 14.4804 2.49854C14.4868 2.44952 14.4868 2.39987 14.4804 2.35085C14.4731 2.27409 14.4431 2.20124 14.3942 2.14162C14.366 2.11256 14.3309 2.09111 14.2922 2.07927C14.2534 2.06744 14.2123 2.0656 14.1727 2.07392C14.0797 2.09004 13.9962 2.14057 13.9388 2.21546C13.9089 2.25082 13.8868 2.29216 13.8741 2.33673C13.8613 2.3813 13.8582 2.42807 13.865 2.47392C13.8681 2.61838 13.893 2.76153 13.9388 2.89854C13.9758 3.01263 14.0366 3.11753 14.1173 3.20623C14.1927 3.29206 14.2944 3.35048 14.4065 3.37239C14.5352 3.40705 14.6673 3.42769 14.8004 3.43392H15.2127C15.2711 3.4301 15.3289 3.41978 15.385 3.40316C15.4605 3.37965 15.5298 3.33972 15.5881 3.28623C15.6387 3.23505 15.6748 3.17134 15.6927 3.10162C15.6927 3.07085 15.6927 2.97854 15.6927 2.97854C15.6927 2.97854 15.6004 3.09546 15.5573 3.13854C15.5173 3.17895 15.4741 3.216 15.4281 3.24931C15.3429 3.29406 15.2473 3.31531 15.1512 3.31085C14.9851 3.3194 14.8187 3.3194 14.6527 3.31085C14.4994 3.31175 14.3501 3.26199 14.2281 3.16931C14.1381 3.09316 14.0719 2.99277 14.0373 2.88008C13.979 2.73368 13.9599 2.57458 13.9819 2.41854C13.9863 2.36347 14.0106 2.31188 14.0502 2.27339C14.0899 2.23489 14.1421 2.21212 14.1973 2.20931C14.222 2.20849 14.2463 2.21509 14.2671 2.22826C14.288 2.24142 14.3044 2.26055 14.3142 2.28315C14.3758 2.39392 14.3142 2.49854 14.3142 2.60931C14.3757 2.63257 14.4418 2.6408 14.5071 2.6333C14.5724 2.62581 14.635 2.60281 14.6896 2.56623C14.7358 2.53957 14.7757 2.5032 14.8065 2.45965C14.8373 2.41609 14.8583 2.36638 14.8681 2.31392C14.9252 2.33026 14.9856 2.33207 15.0436 2.31917C15.1016 2.30627 15.1555 2.27909 15.2004 2.24008C15.2426 2.19934 15.2763 2.15061 15.2996 2.09674C15.3228 2.04286 15.3351 1.9849 15.3358 1.92623C15.3343 1.83662 15.3133 1.74842 15.2742 1.66777C15.2374 1.61843 15.1889 1.57907 15.133 1.55328C15.0771 1.52749 15.0157 1.51607 14.9542 1.52008C14.9515 1.46484 14.9371 1.41081 14.9121 1.36149C14.887 1.31218 14.8519 1.26869 14.8089 1.23386C14.766 1.19902 14.7161 1.17363 14.6627 1.15933C14.6093 1.14503 14.5535 1.14214 14.4988 1.15085C14.5078 1.19148 14.5074 1.23361 14.4978 1.27409C14.4883 1.31458 14.4697 1.35238 14.4435 1.38469C14.4299 1.40982 14.4115 1.43201 14.3893 1.44997C14.3672 1.46793 14.3416 1.4813 14.3142 1.48931C14.281 1.49924 14.2456 1.4999 14.212 1.49123C14.1784 1.48255 14.1478 1.46487 14.1235 1.44008C14.104 1.42619 14.0877 1.4084 14.0754 1.38785C14.0632 1.3673 14.0554 1.34443 14.0525 1.3207C14.0496 1.29697 14.0517 1.27289 14.0586 1.25001C14.0655 1.22713 14.0771 1.20593 14.0927 1.18777C14.1149 1.16279 14.1425 1.14317 14.1735 1.13038C14.2044 1.11759 14.2378 1.11196 14.2712 1.11392C14.3265 1.11392 14.3881 1.16316 14.4127 1.15085C14.4373 1.13854 14.4742 1.04623 14.4742 1.00931C14.4897 0.951597 14.4924 0.891214 14.4822 0.832341C14.4721 0.773468 14.4492 0.717512 14.4153 0.668346C14.3813 0.619181 14.3371 0.57798 14.2856 0.547598C14.2342 0.517215 14.1768 0.498377 14.1173 0.492386C14.0918 0.379197 14.0298 0.277531 13.9408 0.203032C13.8519 0.128534 13.7409 0.0853329 13.625 0.0800781" fill="black"/>
<path d="M14.6966 4.44404C14.802 4.44404 14.8874 4.35863 14.8874 4.25327C14.8874 4.14791 14.802 4.0625 14.6966 4.0625C14.5913 4.0625 14.5059 4.14791 14.5059 4.25327C14.5059 4.35863 14.5913 4.44404 14.6966 4.44404Z" fill="black"/>
<path d="M14.4805 1.72266V2.04266H14.8066V1.72266H14.4805Z" fill="#0098D4"/>
<path d="M15.7366 2.04883C15.435 2.04883 15.3304 2.38729 15.5335 2.62114C15.2258 2.52883 14.9673 2.76883 15.0966 2.99037C15.2258 3.21191 15.5766 3.13806 15.712 2.93498C15.8904 3.16267 16.2104 3.24883 16.3581 3.00267C16.5058 2.75652 16.2227 2.49191 15.9335 2.61498C16.1304 2.38729 16.0443 2.04883 15.7366 2.04883Z" fill="#0098D4" stroke="black" stroke-width="0.116923" stroke-linejoin="round"/>
<path d="M15.2012 4.57242V3.95703H16.2535V4.57242H15.2012Z" fill="#ED1C24" stroke="black" stroke-width="0.116923" stroke-miterlimit="10"/>
<path d="M13.6387 3.50687V1.77148V3.50687Z" fill="black"/>
<path d="M13.6387 3.50687V1.77148" stroke="black" stroke-width="0.104615" stroke-miterlimit="10"/>
<path d="M13.4785 0.566406V0.886406H13.7985V0.566406H13.4785Z" fill="#ED1C24"/>
<path d="M13.6386 3.91406L13.1094 4.25252L13.6386 4.59099L14.1494 4.25252L13.6386 3.91406Z" fill="#0098D4" stroke="black" stroke-width="0.116923" stroke-miterlimit="10"/>
<path d="M17.8151 1.07111C18.0259 1.07111 18.1967 0.875495 18.1967 0.634189C18.1967 0.392883 18.0259 0.197266 17.8151 0.197266C17.6044 0.197266 17.4336 0.392883 17.4336 0.634189C17.4336 0.875495 17.6044 1.07111 17.8151 1.07111Z" fill="#FFDD00"/>
<path d="M17.8051 0.0920651V0.19668C17.8531 0.194761 17.901 0.203097 17.9456 0.221136C17.9902 0.239175 18.0304 0.266501 18.0636 0.301296C18.1211 0.351339 18.1637 0.416374 18.1865 0.489165C18.2093 0.561957 18.2115 0.63965 18.1928 0.713603C18.1761 0.815234 18.1221 0.90696 18.0412 0.970736C17.9604 1.03451 17.8586 1.06572 17.7559 1.05822V2.20283L17.8912 2.16591V1.1813C18.0011 1.15359 18.1012 1.0961 18.1805 1.01514C18.2608 0.925262 18.3129 0.813783 18.3304 0.694539C18.3479 0.575295 18.33 0.453537 18.2789 0.344373C18.2335 0.260438 18.1643 0.191753 18.08 0.146884C17.9957 0.102016 17.9001 0.0829501 17.8051 0.0920651Z" fill="black" stroke="black" stroke-width="0.0184615"/>
<path d="M16.9056 4.56519C17.079 4.56519 17.2195 4.42468 17.2195 4.25135C17.2195 4.07801 17.079 3.9375 16.9056 3.9375C16.7323 3.9375 16.5918 4.07801 16.5918 4.25135C16.5918 4.42468 16.7323 4.56519 16.9056 4.56519Z" fill="black" stroke="#FFDD00" stroke-width="0.246154"/>
<path d="M17.6016 0.566406V0.886406H17.9216V0.566406H17.6016Z" fill="#ED1C24"/>
<path d="M0.984375 1.05859V5.70475V1.05859ZM17.8275 5.70475V1.05859V5.70475Z" fill="#FFDD00"/>
<path d="M17.8275 5.70475V1.05859M0.984375 1.05859V5.70475V1.05859Z" stroke="black" stroke-width="0.215385"/>
<path d="M17.8275 5.10156H0.984375H17.8275ZM17.8275 5.58156H0.984375H17.8275Z" fill="#FFDD00"/>
<path d="M17.8275 5.58156H0.984375M17.8275 5.10156H0.984375H17.8275Z" stroke="black" stroke-width="0.172308"/>
<path d="M1.42188 6.0625V16.881C1.42188 16.881 1.42188 18.1117 1.49572 18.604C1.53088 19.1805 1.62575 19.7518 1.7788 20.3087C1.9166 20.7217 2.10031 21.1181 2.32649 21.4902C2.51829 21.802 2.7642 22.0771 3.05264 22.3025C3.3028 22.5083 3.57776 22.682 3.87111 22.8194C4.13507 22.9476 4.41136 23.0486 4.69572 23.121C4.98453 23.1954 5.27878 23.2469 5.57572 23.2748C5.87111 23.2748 6.19111 23.3179 6.4188 23.3302L7.58187 23.361H11.2373L12.3942 23.3302C12.6342 23.3302 12.9419 23.3302 13.2373 23.2748C13.5342 23.2469 13.8285 23.1954 14.1173 23.121C14.4025 23.0514 14.6791 22.9503 14.9419 22.8194C15.236 22.6834 15.5111 22.5096 15.7603 22.3025C16.0488 22.0771 16.2947 21.802 16.4865 21.4902C16.7169 21.1186 16.9048 20.7223 17.0465 20.3087C17.2025 19.7524 17.2975 19.1808 17.3296 18.604C17.385 18.124 17.4034 16.881 17.4034 16.881V6.0625H1.42188Z" stroke="black" stroke-width="0.184615"/>
</g>
<defs>
<clipPath id="clip0_634_22338">
<rect width="17.9692" height="24" fill="white" transform="translate(0.431641)"/>
</clipPath>
</defs>
</svg>
