<svg width="16" height="24" viewBox="0 0 16 24" fill="none" xmlns="http://www.w3.org/2000/svg">
<g clip-path="url(#clip0_634_21813)">
<path d="M2.68082 7.70336L1.7058 3.20202L2.42081 3.02327L1.7058 3.20202L0.925781 0.975723C1.35804 1.10573 1.7058 0.780719 1.9138 1.23573C1.93655 1.13498 2.0113 1.16098 2.02755 1.06347C2.12506 1.63549 2.70682 1.59324 1.96905 2.67876L2.01455 2.69826C2.43381 1.97024 2.47281 2.29525 2.74907 2.01574C2.78482 2.18475 2.87257 2.2465 2.78482 2.3895C3.23658 2.409 3.37633 3.52378 2.84332 3.73503C2.88882 3.91378 2.80432 3.95929 2.80757 4.09904C2.55082 3.82603 2.22906 4.04054 1.97555 3.72528C2.04384 4.07306 2.26119 4.37869 2.5798 4.57493C2.8984 4.77117 3.29216 4.84195 3.67444 4.7717C4.05672 4.70145 4.39622 4.49592 4.61825 4.20033C4.84028 3.90474 4.92665 3.5433 4.85836 3.19552C4.73486 3.57903 4.35785 3.49453 4.2181 3.83903C4.16935 3.70903 4.0751 3.69603 4.05235 3.51403C3.48033 3.50753 3.21058 2.41875 3.62334 2.23675C3.49009 2.136 3.55184 2.045 3.52584 1.87599C3.88334 2.0385 3.80534 1.71999 4.45536 2.24975L4.49111 2.214C3.41208 1.46648 3.9711 1.26173 3.85734 0.728718C3.90934 0.81322 3.96785 0.764469 4.0231 0.84897C3.9971 0.462212 4.47486 0.475212 4.64386 0.250958C4.86486 0.426461 5.32637 0.299709 5.39138 0.679967C5.42713 0.582465 5.49538 0.618215 5.52463 0.523963C5.55063 1.10248 6.13564 1.13173 5.27112 2.11975L5.31337 2.1425C5.81713 1.47298 5.81713 1.80124 6.12589 1.55749C6.13889 1.72649 6.22014 1.79799 6.11614 1.93124C6.5614 2.00599 6.56465 3.13052 6.00889 3.27352C6.03164 3.45553 5.94389 3.49128 5.92764 3.63103C5.70663 3.32877 5.36212 3.50428 5.15087 3.15977C5.20343 3.55144 5.38452 3.90443 5.65976 4.15176C5.935 4.39909 6.28525 4.52353 6.64403 4.50148C7.00282 4.47944 7.34517 4.31243 7.60612 4.03215C7.86708 3.75187 8.02847 3.37784 8.05968 2.98102C7.89068 3.34827 7.52667 3.21827 7.34467 3.54328C7.31217 3.40677 7.22116 3.38402 7.22116 3.19877C6.6524 3.12402 6.51915 2.00924 6.95141 1.87924C6.83116 1.76224 6.90266 1.68099 6.89616 1.50873C7.23091 1.71349 7.19191 1.38848 7.77368 1.99299L7.81268 1.96374C6.83441 1.08948 7.40967 0.988723 7.36742 0.410211C7.40642 0.501213 7.47142 0.458962 7.51692 0.549964C7.53642 0.163206 8.01093 0.234707 8.20593 0.0332031C8.40094 0.234707 8.87545 0.163206 8.89495 0.549964C8.94045 0.458962 9.00545 0.501213 9.04445 0.410211C9.0022 0.988723 9.57746 1.08948 8.59919 1.96374L8.63819 1.99299C9.21996 1.38848 9.18095 1.71349 9.51571 1.50873C9.50921 1.68099 9.58071 1.76224 9.46046 1.87924C9.89272 2.00924 9.75947 3.12402 9.19071 3.19877C9.19071 3.38402 9.0997 3.40677 9.0672 3.54328C8.8852 3.21827 8.52119 3.34827 8.35219 2.98102C8.3834 3.37784 8.54479 3.75187 8.80575 4.03215C9.0667 4.31243 9.40905 4.47944 9.76784 4.50148C10.1266 4.52353 10.4769 4.39909 10.7521 4.15176C11.0274 3.90443 11.2084 3.55144 11.261 3.15977C11.0497 3.50428 10.7052 3.32877 10.4842 3.63103C10.468 3.49128 10.3802 3.45553 10.403 3.27352C9.84722 3.13052 9.85047 2.00599 10.2957 1.93124C10.1917 1.79799 10.273 1.72649 10.286 1.55749C10.5947 1.80124 10.5947 1.47298 11.0985 2.1425L11.1407 2.11975C10.2762 1.13173 10.8612 1.10248 10.8872 0.523963C10.9165 0.618215 10.9847 0.582465 11.0205 0.679967C11.0855 0.299709 11.547 0.426461 11.768 0.250958C11.937 0.475212 12.4148 0.462212 12.3888 0.84897C12.444 0.764469 12.5025 0.81322 12.5545 0.728718C12.4408 1.29748 12.9998 1.46648 11.9208 2.214L11.9565 2.24975C12.6065 1.71999 12.5285 2.0385 12.886 1.87599C12.86 2.045 12.9218 2.136 12.7885 2.23675C13.2013 2.41875 12.9315 3.50753 12.3595 3.51403C12.3368 3.69603 12.2425 3.70903 12.1938 3.83903C12.054 3.49453 11.677 3.57903 11.5535 3.19552C11.4852 3.5433 11.5716 3.90474 11.7936 4.20033C12.0156 4.49592 12.3551 4.70145 12.7374 4.7717C13.1197 4.84195 13.5135 4.77117 13.8321 4.57493C14.1507 4.37869 14.368 4.07306 14.4363 3.72528C14.1828 4.04054 13.8611 3.82603 13.6043 4.09904C13.6075 3.95929 13.523 3.91378 13.5685 3.73503C13.0355 3.52378 13.1753 2.409 13.627 2.3895C13.5393 2.2465 13.627 2.18475 13.6628 2.01574C13.9391 2.29525 13.9781 1.97024 14.3973 2.69826L14.4428 2.67876C13.7051 1.59324 14.2868 1.63549 14.3843 1.06347C14.3031 1.16098 14.4753 1.13498 14.4981 1.23573C14.7061 0.780719 15.0538 1.10573 15.4861 0.975723L14.7061 3.20202L13.9911 3.02327L14.7061 3.20202L13.7311 7.70336H2.68082ZM2.43056 6.56584C6.24254 5.79807 10.1693 5.79807 13.9813 6.56584H2.43056ZM3.47058 6.37734L3.61684 7.1021L3.47058 6.37734ZM4.3156 5.49657L4.43586 6.23108L4.3156 5.49657ZM5.36538 6.13033L5.45638 6.87135L5.36538 6.13033ZM6.23639 5.30481L6.29489 6.04908L6.23639 5.30481ZM10.117 6.04908L10.1755 5.30481L10.117 6.04908ZM10.9555 6.87135L11.0465 6.13033L10.9555 6.87135ZM11.976 6.23108L12.0963 5.49657L11.976 6.23108ZM12.795 7.1021L12.9413 6.37734L12.795 7.1021Z" fill="#FFC900"/>
<path d="M12.795 7.1021L12.9413 6.37734M2.68082 7.70336L1.7058 3.20202L2.42081 3.02327L1.7058 3.20202L0.925781 0.975723C1.35804 1.10573 1.7058 0.780719 1.9138 1.23573C1.93655 1.13498 2.0113 1.16098 2.02755 1.06347C2.12506 1.63549 2.70682 1.59324 1.96905 2.67876L2.01455 2.69826C2.43381 1.97024 2.47281 2.29525 2.74907 2.01574C2.78482 2.18475 2.87257 2.2465 2.78482 2.3895C3.23658 2.409 3.37633 3.52378 2.84332 3.73503C2.88882 3.91378 2.80432 3.95929 2.80757 4.09904C2.55082 3.82603 2.22906 4.04054 1.97555 3.72528C2.04384 4.07306 2.26119 4.37869 2.5798 4.57493C2.8984 4.77117 3.29216 4.84195 3.67444 4.7717C4.05672 4.70145 4.39622 4.49592 4.61825 4.20033C4.84028 3.90474 4.92665 3.5433 4.85836 3.19552C4.73486 3.57903 4.35785 3.49453 4.2181 3.83903C4.16935 3.70903 4.0751 3.69603 4.05235 3.51403C3.48034 3.50753 3.21058 2.41875 3.62334 2.23675C3.49009 2.136 3.55184 2.045 3.52584 1.87599C3.88334 2.0385 3.80534 1.71999 4.45536 2.24975L4.49111 2.214C3.41208 1.46648 3.9711 1.26173 3.85734 0.728718C3.90934 0.81322 3.96785 0.764469 4.0231 0.84897C3.9971 0.462212 4.47486 0.475212 4.64386 0.250958C4.86486 0.426461 5.32637 0.299709 5.39138 0.679967C5.42713 0.582465 5.49538 0.618215 5.52463 0.523963C5.55063 1.10248 6.13564 1.13173 5.27112 2.11975L5.31337 2.1425C5.81713 1.47298 5.81713 1.80124 6.12589 1.55749C6.13889 1.72649 6.22014 1.79799 6.11614 1.93124C6.5614 2.00599 6.56465 3.13052 6.00889 3.27352C6.03164 3.45553 5.94389 3.49128 5.92764 3.63103C5.70663 3.32877 5.36212 3.50428 5.15087 3.15977C5.20343 3.55144 5.38452 3.90443 5.65976 4.15176C5.935 4.39909 6.28525 4.52353 6.64403 4.50148C7.00282 4.47944 7.34517 4.31243 7.60612 4.03215C7.86708 3.75187 8.02847 3.37784 8.05968 2.98102C7.89068 3.34827 7.52667 3.21827 7.34467 3.54328C7.31217 3.40677 7.22116 3.38402 7.22116 3.19877C6.6524 3.12402 6.51915 2.00924 6.95141 1.87924C6.83116 1.76224 6.90266 1.68099 6.89616 1.50873C7.23091 1.71349 7.19191 1.38848 7.77368 1.99299L7.81268 1.96374C6.83441 1.08948 7.40967 0.988723 7.36742 0.410211C7.40642 0.501213 7.47142 0.458962 7.51692 0.549964C7.53642 0.163206 8.01093 0.234707 8.20593 0.0332031C8.40094 0.234707 8.87545 0.163206 8.89495 0.549964C8.94045 0.458962 9.00545 0.501213 9.04445 0.410211C9.0022 0.988723 9.57746 1.08948 8.59919 1.96374L8.63819 1.99299C9.21996 1.38848 9.18096 1.71349 9.51571 1.50873C9.50921 1.68099 9.58071 1.76224 9.46046 1.87924C9.89272 2.00924 9.75947 3.12402 9.19071 3.19877C9.19071 3.38402 9.0997 3.40677 9.0672 3.54328C8.8852 3.21827 8.52119 3.34827 8.35219 2.98102C8.3834 3.37784 8.54479 3.75187 8.80575 4.03215C9.0667 4.31243 9.40905 4.47944 9.76784 4.50148C10.1266 4.52353 10.4769 4.39909 10.7521 4.15176C11.0274 3.90443 11.2084 3.55144 11.261 3.15977C11.0497 3.50428 10.7052 3.32877 10.4842 3.63103C10.468 3.49128 10.3802 3.45553 10.403 3.27352C9.84722 3.13052 9.85047 2.00599 10.2957 1.93124C10.1917 1.79799 10.273 1.72649 10.286 1.55749C10.5947 1.80124 10.5947 1.47298 11.0985 2.1425L11.1407 2.11975C10.2762 1.13173 10.8612 1.10248 10.8872 0.523963C10.9165 0.618215 10.9847 0.582465 11.0205 0.679967C11.0855 0.299709 11.547 0.426461 11.768 0.250958C11.937 0.475212 12.4148 0.462212 12.3888 0.84897C12.444 0.764469 12.5025 0.81322 12.5545 0.728718C12.4408 1.29748 12.9998 1.46648 11.9208 2.214L11.9565 2.24975C12.6065 1.71999 12.5285 2.0385 12.886 1.87599C12.86 2.045 12.9218 2.136 12.7885 2.23675C13.2013 2.41875 12.9315 3.50753 12.3595 3.51403C12.3368 3.69603 12.2425 3.70903 12.1938 3.83903C12.054 3.49453 11.677 3.57903 11.5535 3.19552C11.4852 3.5433 11.5716 3.90474 11.7936 4.20033C12.0156 4.49592 12.3551 4.70145 12.7374 4.7717C13.1197 4.84195 13.5135 4.77117 13.8321 4.57493C14.1507 4.37869 14.368 4.07306 14.4363 3.72528C14.1828 4.04054 13.8611 3.82603 13.6043 4.09904C13.6075 3.95929 13.523 3.91378 13.5685 3.73503C13.0355 3.52378 13.1753 2.409 13.627 2.3895C13.5393 2.2465 13.627 2.18475 13.6628 2.01574C13.9391 2.29525 13.9781 1.97024 14.3973 2.69826L14.4428 2.67876C13.7051 1.59324 14.2868 1.63549 14.3843 1.06347C14.3031 1.16098 14.4753 1.13498 14.4981 1.23573C14.7061 0.780719 15.0538 1.10573 15.4861 0.975723L14.7061 3.20202L13.9911 3.02327L14.7061 3.20202L13.7311 7.70336H2.68082ZM2.43056 6.56584C6.24254 5.79807 10.1693 5.79807 13.9813 6.56584H2.43056ZM3.47058 6.37734L3.61684 7.1021L3.47058 6.37734ZM4.3156 5.49657L4.43586 6.23108L4.3156 5.49657ZM5.36537 6.13033L5.45638 6.87135L5.36537 6.13033ZM6.23639 5.30481L6.29489 6.04908L6.23639 5.30481ZM10.117 6.04908L10.1755 5.30481L10.117 6.04908ZM10.9555 6.87135L11.0465 6.13033L10.9555 6.87135ZM11.976 6.23108L12.0963 5.49657L11.976 6.23108Z" stroke="black" stroke-width="0.0798712" stroke-linecap="round" stroke-linejoin="round"/>
<path d="M7.45898 2.40598H8.95585H7.45898ZM8.20742 1.625V2.27581V1.625Z" fill="#FFC900"/>
<path d="M8.20742 1.625V2.27581M7.45898 2.40598H8.95585H7.45898Z" stroke="black" stroke-width="0.0798712" stroke-linecap="round" stroke-linejoin="round"/>
<path d="M8.20696 2.619C8.36009 2.619 8.48423 2.49486 8.48423 2.34173C8.48423 2.18859 8.36009 2.06445 8.20696 2.06445C8.05383 2.06445 7.92969 2.18859 7.92969 2.34173C7.92969 2.49486 8.05383 2.619 8.20696 2.619Z" fill="#FFC900" stroke="black" stroke-width="0.0798712" stroke-linecap="round" stroke-linejoin="round"/>
<path d="M1.91406 4.1612C2.35609 5.74404 4.89447 5.62378 5.07648 3.73868C5.50875 5.38652 7.62137 5.32801 8.2064 3.57617C8.79143 5.32801 10.904 5.38652 11.3363 3.73868C11.5183 5.62378 14.0567 5.74404 14.4987 4.1612" stroke="black" stroke-width="0.0798712" stroke-linecap="round" stroke-linejoin="round"/>
<path d="M2.20758 5.50858C6.16405 4.67943 10.2494 4.67943 14.2059 5.50858C14.3359 5.54108 14.2709 5.87581 14.1409 5.84331C10.2264 5.03222 6.18711 5.03222 2.27257 5.84331C2.14258 5.87581 2.07758 5.54108 2.20758 5.50858ZM2.6658 7.63721C2.53581 7.66971 2.46106 7.31873 2.59105 7.28623C6.29969 6.56067 10.1138 6.56067 13.8224 7.28623C13.9524 7.31873 13.8777 7.66971 13.7477 7.63721" fill="#FFC900"/>
<path d="M2.6658 7.63721C2.53581 7.66971 2.46106 7.31873 2.59105 7.28623C6.29969 6.56067 10.1138 6.56067 13.8224 7.28623C13.9524 7.31873 13.8777 7.66971 13.7477 7.63721M2.20758 5.50858C6.16405 4.67943 10.2494 4.67943 14.2059 5.50858C14.3359 5.54108 14.2709 5.87581 14.1409 5.84331C10.2264 5.03222 6.18711 5.03222 2.27257 5.84331C2.14258 5.87581 2.07758 5.54108 2.20758 5.50858Z" stroke="black" stroke-width="0.0798712" stroke-linecap="round" stroke-linejoin="round"/>
<path d="M7.09766 7.13284V5.72116C7.09766 5.42785 7.21417 5.14655 7.42157 4.93915C7.62898 4.73175 7.91027 4.61523 8.20358 4.61523C8.49689 4.61523 8.77819 4.73175 8.98559 4.93915C9.19299 5.14655 9.30951 5.42785 9.30951 5.72116V7.13284H7.09766ZM7.45546 7.11983V5.72116C7.45546 5.52274 7.53428 5.33246 7.67458 5.19215C7.81488 5.05185 8.00517 4.97303 8.20358 4.97303C8.402 4.97303 8.59229 5.05185 8.73259 5.19215C8.87289 5.33246 8.95171 5.52274 8.95171 5.72116V7.11983" fill="#FFC900"/>
<path d="M7.45546 7.11983V5.72116C7.45546 5.52274 7.53428 5.33246 7.67458 5.19215C7.81488 5.05185 8.00517 4.97303 8.20358 4.97303C8.402 4.97303 8.59229 5.05185 8.73259 5.19215C8.87289 5.33246 8.95171 5.52274 8.95171 5.72116V7.11983M7.09766 7.13284V5.72116C7.09766 5.42785 7.21417 5.14655 7.42157 4.93915C7.62898 4.73175 7.91027 4.61523 8.20358 4.61523C8.49689 4.61523 8.77819 4.73175 8.98559 4.93915C9.19299 5.14655 9.30951 5.42785 9.30951 5.72116V7.13284H7.09766Z" stroke="black" stroke-width="0.0798712" stroke-linecap="round" stroke-linejoin="round"/>
<path d="M7.88086 4.45312H8.53228L8.43457 5.03941H7.97857L7.88086 4.45312Z" fill="#FFC900" stroke="black" stroke-width="0.0798712" stroke-linecap="round" stroke-linejoin="round"/>
<path d="M8.20312 5.04883V7.17077V5.04883Z" fill="#FFC900"/>
<path d="M8.20312 5.04883V7.17077" stroke="black" stroke-width="0.0998389" stroke-linecap="round" stroke-linejoin="round"/>
<path d="M2.69922 7.65425C6.33836 6.95639 10.077 6.95639 13.7161 7.65425H2.69922Z" fill="#FFC900"/>
<path d="M2.69922 7.65425C6.33836 6.95639 10.077 6.95639 13.7161 7.65425" stroke="black" stroke-width="0.139775" stroke-linecap="round" stroke-linejoin="round"/>
<path d="M14.207 7.76758H2.18164V17.8428C2.18164 19.1754 2.18164 20.4429 3.96919 21.4829L8.1943 23.8555L12.4194 21.4829C14.2395 20.4429 14.207 19.1754 14.207 17.8428V7.76758Z" fill="white" stroke="black" stroke-width="0.239613"/>
<path d="M8.93139 10.1233C8.74939 10.0355 8.42114 10.0875 8.1189 10.0388C7.51115 9.94126 7.4364 9.76901 7.4364 9.64226C7.43315 9.50902 7.3129 9.50252 7.3129 9.64551C7.31615 10.4905 8.58689 10.0583 8.94764 10.276L8.93139 10.1233ZM4.79741 9.83401C4.80066 9.60651 4.64467 9.46027 4.50817 9.44727C4.58942 9.54152 4.60567 9.67801 4.61867 9.81126C4.59267 9.62276 4.45292 9.49927 4.33267 9.49277C4.39767 9.56101 4.43342 9.70076 4.43992 9.83726C4.42042 9.73326 4.32292 9.57726 4.16042 9.56101C4.23517 9.63901 4.25792 9.78526 4.27417 9.91851C4.25142 9.80476 4.13442 9.67476 4.00442 9.66501C4.05967 9.71051 4.10517 9.87626 4.11492 10.003C4.09867 9.95101 4.00767 9.82426 3.86467 9.80801C3.93942 9.87626 3.97192 10.042 3.98492 10.172L4.79741 9.83401ZM4.55367 13.2725C4.51467 13.0937 4.35867 12.9052 4.18317 12.928C4.26442 12.9832 4.32617 13.1912 4.34892 13.3245C4.29367 13.175 4.15717 13.0157 3.99467 13.0352C4.08242 13.1132 4.13442 13.305 4.16692 13.448C4.07917 13.2822 3.97192 13.1587 3.81267 13.1782C3.91992 13.2822 3.95892 13.4642 3.98492 13.604C3.93292 13.487 3.81267 13.344 3.65017 13.3602C3.75092 13.4512 3.79317 13.6495 3.82892 13.7957C3.76392 13.708 3.66642 13.5845 3.51367 13.5975C3.61442 13.695 3.65992 13.8867 3.70217 14.033L4.55367 13.2725ZM5.07366 19.6327C4.90141 19.5287 4.66417 19.5645 4.55367 19.7075C4.67717 19.6847 4.85916 19.753 4.93066 19.8115C4.81366 19.7367 4.56992 19.7822 4.47567 19.9122C4.58617 19.883 4.76491 19.9577 4.85916 20.013C4.73567 19.9707 4.54392 19.9805 4.42367 20.1267C4.52442 20.104 4.69017 20.1592 4.79741 20.221C4.64467 20.1852 4.49517 20.2437 4.40742 20.3477C4.54067 20.3185 4.69017 20.3965 4.78116 20.4387C4.60892 20.4355 4.50492 20.5037 4.44317 20.5752C4.55367 20.5525 4.72267 20.611 4.84616 20.676L5.07366 19.6327ZM9.59439 20.702C9.37014 20.6727 9.18489 20.8092 9.12964 20.9684C9.19139 20.9197 9.38639 20.8904 9.51314 20.9294C9.33764 20.9197 9.16214 21.0627 9.12639 21.1927C9.19789 21.1342 9.42539 21.1179 9.50989 21.1537C9.35064 21.1602 9.19789 21.2804 9.15239 21.4137C9.22714 21.3649 9.43514 21.3454 9.55214 21.3747C9.37989 21.4007 9.25639 21.5242 9.21739 21.6379C9.32139 21.5697 9.45789 21.5762 9.62689 21.5859C9.45139 21.6509 9.39289 21.7257 9.33439 21.8427C9.43189 21.7809 9.60414 21.7777 9.77314 21.7907" fill="#F33B1D"/>
<path d="M8.43377 8.77158L7.64073 8.80083C7.60173 8.80408 7.57248 8.82358 7.57248 8.86909C7.57573 9.1551 7.63098 9.34036 7.83574 9.48987C7.80974 9.64913 7.82599 9.73038 7.99175 9.86364C8.008 9.73363 8.06 9.67513 8.14126 9.61988C8.14776 9.62313 8.15426 9.62313 8.15751 9.62638C8.14776 9.68488 8.14776 9.74663 8.16076 9.78239C8.19326 9.87339 8.35252 9.87664 8.39477 9.81164C8.43377 9.90589 8.51503 9.90914 8.58003 9.90914C8.64828 9.90914 8.68079 9.86039 8.70354 9.81489C8.74254 9.84739 8.78154 9.88314 8.81729 9.92864C8.93105 10.0847 8.95055 10.2862 8.95055 10.4779C8.9148 10.4812 8.87905 10.4844 8.84329 10.4877V10.4097C8.84004 10.2992 8.58328 10.2797 8.52478 10.3739C8.45977 10.3024 8.25826 10.3154 8.25826 10.4292V10.4649C8.21276 10.4064 8.17701 10.3447 8.14776 10.2829C8.0665 10.3349 8.01775 10.3739 8.03075 10.5592C7.995 10.5624 7.95925 10.5657 7.92675 10.5689C7.93 10.7834 8.02425 10.8419 8.79129 10.8257C8.81079 11.0402 8.59628 11.1605 8.43702 11.2612C8.021 11.4985 7.58223 11.7585 7.34496 12.194C7.1467 12.5385 7.09795 12.9481 7.1207 13.3446L7.34821 13.2438L7.37422 13.3673C6.96469 13.5623 6.21715 13.9589 5.72638 14.1864C5.60612 14.2416 5.29411 14.3196 5.2291 14.2091C5.00484 13.8224 4.82608 13.5298 4.56607 13.2341C4.43281 13.0813 3.54876 13.8126 3.71127 14.0596C4.08179 14.6219 4.68632 15.4279 5.69388 15.4344C6.73718 15.4409 7.64398 15.0574 7.84224 14.9989L7.88449 15.1322C7.75124 15.1907 7.63423 15.2329 7.49447 15.2784C7.67648 15.9935 7.88774 16.273 8.37852 16.7085L8.27776 16.7833C8.19001 16.7313 8.0405 16.5655 7.95925 16.4875C6.91594 16.9815 6.52592 17.4755 6.27566 17.9858C5.99939 18.6001 6.0514 19.2989 6.1684 19.9457C6.19115 20.0529 6.07415 20.1049 5.98639 20.0724C5.74588 20.0172 5.61262 19.7767 5.38186 19.6889C5.27785 19.6434 5.14135 19.5914 5.02759 19.6109C4.84233 19.6434 4.64407 20.5795 4.83258 20.6705C5.1836 20.8427 5.56712 20.8785 5.95714 21.08C6.2139 21.184 6.46092 21.353 6.75343 21.3075C6.91919 21.2912 7.08495 21.1775 7.1012 21.002C7.24746 20.3714 7.45222 19.7019 7.93325 19.2469C8.16401 19.0194 8.46302 18.8374 8.75879 18.6976C8.64178 18.2491 8.55403 17.8006 8.56378 17.3325L8.70679 17.326C8.81079 19.1071 9.28532 19.4809 10.1206 20.3097C10.2051 20.3942 10.1986 20.5535 10.0751 20.6022C9.9126 20.6835 9.72084 20.6867 9.53558 20.6965C9.33732 20.7062 9.48683 21.8048 9.77934 21.795C10.2929 21.7788 10.8259 21.379 11.1347 20.9857C11.2647 20.8232 11.4207 20.6607 11.5442 20.5015C11.6969 20.3032 11.5312 20.0724 11.4857 19.8904C11.3589 19.3704 11.3004 17.8753 11.2939 17.6673L11.4759 17.6706L11.5019 17.2935C10.9592 16.6207 11.0469 15.5677 10.8227 14.8884C10.7349 14.6121 10.6374 14.3261 10.6374 14.0336C10.6374 13.6371 11.0859 12.8928 11.0762 12.2298C11.0729 11.9503 10.9169 11.5862 10.9202 11.4205C10.9234 10.9394 11.1997 11.0435 11.1932 10.0424C11.1899 9.76613 11.1574 9.56137 11.0859 9.27861C11.5702 8.76833 10.9039 8.25805 10.5204 8.57657C10.2116 8.49532 10.1726 8.41406 9.56808 8.41406C9.05131 8.41406 8.75554 8.55382 8.43377 8.76833V8.77158ZM7.49772 11.752C7.15645 12.1713 6.96469 12.3825 6.97769 13.3998C3.75677 11.5602 4.69932 11.297 3.99404 10.1984C3.88353 10.0261 4.60182 9.62638 4.82933 9.79539C5.2876 10.1334 5.1186 10.7704 5.49887 11.0597C5.87589 11.3457 6.54867 11.4725 7.49772 11.752ZM9.46408 9.38911C9.41533 9.38911 9.32757 9.36311 9.30157 9.32736C9.0188 8.89509 8.9473 9.0511 8.90505 9.2006C8.8693 9.33386 8.71329 9.33711 8.75879 9.15835C8.87255 8.71958 9.18131 8.78133 9.56483 9.38911H9.46408ZM10.3936 8.95359C10.4716 8.84959 10.5919 8.74883 10.7219 8.70658C10.9137 8.64157 10.9917 8.79758 10.8389 8.84959C10.7121 8.90484 10.6049 8.98284 10.5139 9.07385L10.3936 8.95359ZM7.87149 9.51262C7.92025 9.54187 7.9885 9.57762 8.08925 9.60688C8.034 9.65238 7.982 9.71738 7.96575 9.78889C7.87799 9.72713 7.84224 9.61338 7.87149 9.51262ZM8.39152 9.68488C8.39152 9.72713 8.38177 9.76938 8.36877 9.78889C8.33627 9.84089 8.21601 9.83764 8.19001 9.76613C8.18026 9.73688 8.18026 9.68488 8.19326 9.63613C8.25826 9.65238 8.32652 9.66538 8.39152 9.68488ZM8.43052 9.69463C8.51828 9.72063 8.60278 9.74988 8.67754 9.79864C8.66128 9.83764 8.63203 9.87664 8.57353 9.87664C8.52153 9.87664 8.46302 9.87339 8.43052 9.81164C8.41427 9.77914 8.42077 9.73363 8.43052 9.69463ZM8.06325 10.5559C8.0535 10.4649 8.06325 10.3869 8.13476 10.3349C8.17051 10.3999 8.20951 10.4617 8.25501 10.5169V10.5397L8.06325 10.5559ZM8.28752 10.5381V10.4357C8.28752 10.3284 8.51503 10.3349 8.51828 10.4357V10.5169L8.28752 10.5381ZM8.54753 10.5137V10.4227C8.54753 10.3154 8.81079 10.3219 8.81079 10.4194V10.4909" fill="black"/>
</g>
<defs>
<clipPath id="clip0_634_21813">
<rect width="14.6242" height="24" fill="white" transform="translate(0.896484)"/>
</clipPath>
</defs>
</svg>
