<svg width="21" height="24" viewBox="0 0 21 24" fill="none" xmlns="http://www.w3.org/2000/svg">
<g clip-path="url(#clip0_634_21281)">
<path d="M0.0994611 0.13097C0.0994611 0.13097 0.0994611 5.73797 0.0994611 8.55849C0.0994611 11.3677 -0.104843 14.3301 0.502393 16.6001C1.07558 18.751 2.3241 20.4535 3.8507 21.6964C4.61684 22.3206 5.46811 22.8484 6.518 23.24C7.55087 23.6259 8.72561 23.9323 10.0706 23.921C12.7493 23.8983 14.7809 22.9108 16.2905 21.6964C17.8228 20.4649 19.0486 18.7169 19.6048 16.5604C20.1893 14.279 20.0077 11.3393 20.0077 8.51877C20.0077 5.69257 20.0077 0.0742188 20.0077 0.0742188H0.116486L0.0994611 0.13097Z" fill="white" stroke="black" stroke-width="0.119807" stroke-miterlimit="10"/>
<path d="M19.4989 10.0782C18.5001 8.61403 17.5921 7.05905 16.7976 5.45868L16.7124 5.28275L16.8827 5.3849C17.0302 5.4757 17.1721 5.5892 17.3197 5.71406C17.6715 6.00349 18.0745 6.33264 18.6136 6.33264H18.6249C18.903 6.33264 19.1357 6.24751 19.3173 6.07726C18.3298 5.39057 17.5467 4.69821 16.9962 4.02288L16.8827 3.881L17.0586 3.93207C17.3424 4.01153 17.6375 4.05693 17.9099 4.05693C17.9553 4.05693 18.0064 4.05693 18.0518 4.05125C18.3809 4.03423 18.6703 3.9491 18.886 3.8129C19.13 3.65967 19.2776 3.44402 19.34 3.17729C18.5682 3.08648 17.8361 2.99568 17.2062 2.81408C17.1778 2.8084 17.1494 2.79705 17.121 2.79138H17.1154C16.9451 2.74598 16.7692 2.6949 16.633 2.58707L16.5365 2.50762L16.6614 2.48492C17.104 2.41115 17.5524 2.30899 17.8758 2.09902C18.205 1.87769 18.3752 1.55421 18.3866 1.11155C17.7623 1.2818 17.0643 1.33288 16.3265 1.36693H16.2868C16.179 1.3726 16.0711 1.37828 15.9633 1.38395H15.9349L15.8101 1.38963C15.6796 1.3953 15.549 1.3953 15.4185 1.40098C15.1234 1.40665 14.817 1.41233 14.5502 1.45773C14.2608 1.50313 14.0565 1.59393 13.9203 1.73013C13.7444 1.90039 13.6309 2.19549 13.6025 2.53032C13.5684 2.99001 13.7671 3.24539 13.977 3.47239C14.0054 3.50077 14.0622 3.54617 14.1189 3.60292C14.2835 3.7448 14.3913 3.84127 14.414 3.9037C14.4821 4.12503 14.397 4.47688 14.3573 4.61876C14.3232 4.73794 14.2721 4.82874 14.2211 4.91954C14.1813 4.99332 14.1416 5.06142 14.1189 5.13519L14.1132 5.14655L14.1019 5.1579C13.9316 5.34517 13.6536 5.42463 13.3925 5.4984C13.3131 5.5211 13.2393 5.5438 13.1655 5.5665C13.1371 5.66865 13.1485 5.74811 13.1995 5.79351C13.2393 5.83323 13.3131 5.85593 13.4039 5.85593C13.4833 5.85593 13.5798 5.83891 13.6592 5.80486C13.8352 5.73676 14.1586 5.49273 14.2835 5.30545C14.4935 4.99899 14.5786 4.57336 14.5502 4.01152L14.5445 3.9264L14.624 3.95477C14.641 3.96045 14.6581 3.96612 14.6751 3.9718C14.7489 3.9945 14.8283 4.0172 14.868 4.09098L14.8737 4.10233V4.11368C14.9078 5.03304 14.641 5.79918 14.1076 6.33832C13.5968 6.86043 12.8647 7.13283 11.9908 7.13283C11.9624 7.13283 11.934 7.13283 11.9056 7.13283H11.8829L11.8659 7.11581C11.8148 7.0704 11.7808 7.01933 11.7467 6.97393C11.7013 6.9115 11.6559 6.84908 11.5765 6.78665C11.5311 6.7526 11.4743 6.7299 11.4176 6.7072C11.27 6.64477 11.0998 6.57667 11.1622 6.28724V6.27589L11.1679 6.27022C11.236 6.16239 11.3438 6.09996 11.4913 6.09429C11.287 5.74811 11.4857 5.2033 11.6502 4.97629L11.6786 4.94224L11.7183 4.95927L11.7467 4.97062C11.8319 5.00467 11.9397 5.05007 12.0305 5.05007C12.0702 5.05007 12.1099 5.03872 12.1383 5.02169C12.127 4.98197 12.1043 4.94792 12.0759 4.90252C12.0362 4.84009 11.9908 4.77199 11.9794 4.67551C11.9454 4.43716 12.0305 4.18745 12.1099 3.94342C12.1724 3.7448 12.2405 3.54049 12.2405 3.35321V3.31349L12.2802 3.30214C12.3369 3.28511 12.405 3.27944 12.4675 3.27944C12.4902 3.27944 12.5129 3.27944 12.5356 3.27376C12.2972 3.07513 12.2178 2.70625 12.1326 2.32602C12.0362 1.87769 11.934 1.418 11.5594 1.27613L11.48 1.24775L11.5367 1.18533C11.5538 1.1683 11.5708 1.15127 11.5935 1.13425C11.5254 1.1456 11.4573 1.15127 11.3835 1.15127C11.1735 1.15127 10.9465 1.11155 10.7309 1.07182C10.5096 1.0321 10.2996 0.998047 10.1123 0.998047C9.91367 0.998047 9.76611 1.03777 9.64694 1.1229C9.61856 1.1456 9.60154 1.1683 9.57884 1.20235C9.55046 1.24775 9.51641 1.3045 9.43696 1.3499L9.42561 1.35558V1.36693C9.46533 1.61663 9.66396 1.68473 9.91367 1.76986C9.99879 1.79824 10.0896 1.82661 10.1804 1.87201C10.2769 1.91741 10.3677 1.97984 10.4471 2.05362L10.606 2.20684L10.3904 2.15009C10.3393 2.13874 10.2939 2.12739 10.2428 2.12172C10.2825 2.13307 10.3166 2.14442 10.3563 2.16144C10.5833 2.26927 10.7082 2.47357 10.6855 2.7176L10.6798 2.77435C10.6912 2.78003 10.7082 2.78003 10.7195 2.7857L10.7649 2.79705V2.84245V2.84813C10.7649 2.8538 10.7649 2.8538 10.7649 2.85948V2.92191L10.7025 2.91623C10.6117 2.91056 10.5209 2.90488 10.4301 2.89921C10.5039 2.91056 10.572 2.92758 10.6344 2.95028L10.6741 2.96731L10.6685 3.01271C10.6458 3.19431 10.5096 3.25106 10.3847 3.27376C10.4244 3.27376 10.4698 3.27944 10.5096 3.27944C10.5266 3.27944 10.5493 3.27944 10.5663 3.27944L10.6855 3.27376L10.6174 3.37024C10.5096 3.51779 10.3677 3.59157 10.1974 3.59157H10.1917C10.1577 3.59157 10.118 3.59157 10.0839 3.58589C10.1577 3.61427 10.2258 3.64264 10.2882 3.68237L10.2996 3.68804L10.3052 3.69939C10.362 3.80155 10.379 3.89802 10.345 3.98315C10.2712 4.19313 9.97609 4.30663 9.75476 4.39176C9.72639 4.40311 9.70369 4.40878 9.68099 4.42013L9.64126 4.43716L9.61856 4.44851C9.28373 4.58471 9.0397 4.68119 8.89782 4.89117C8.9716 4.84576 9.05673 4.80604 9.1532 4.77766C9.24968 4.74929 9.34048 4.73226 9.43128 4.73226C9.55613 4.73226 9.66964 4.76064 9.76611 4.82306L9.81719 4.85711L9.78314 4.90819C9.70936 5.01602 9.62424 5.10114 9.53911 5.18627C9.47101 5.25437 9.39723 5.32815 9.34048 5.4076C9.27806 5.48705 9.22698 5.5665 9.18158 5.64028C9.05105 5.83891 8.93755 6.02051 8.70487 6.11131C8.78432 6.12834 8.8581 6.15104 8.90917 6.20779L8.94322 6.24184L8.91485 6.28157C8.87512 6.33264 8.86945 6.42912 8.86377 6.51992C8.85242 6.62775 8.84675 6.73557 8.79 6.81502L8.7673 6.84908L8.72757 6.83773C8.67649 6.8207 8.62542 6.81502 8.58002 6.81502C8.41544 6.81502 8.29059 6.9115 8.17709 7.00798C8.06926 7.0931 7.96143 7.18391 7.82523 7.18958C7.77983 7.18958 7.72875 7.19526 7.68335 7.19526C6.92289 7.19526 6.18513 6.89448 5.66302 6.37237C5.10118 5.81053 4.81743 5.04439 4.86283 4.21583V4.19313L4.87985 4.1761C4.9366 4.1307 5.01038 4.06828 5.13523 4.06828C5.14658 4.06828 5.15793 4.06828 5.16928 4.06828L5.22603 4.07395L5.22036 4.1307C5.16928 4.63579 5.26576 5.07277 5.49844 5.39057C5.73112 5.7027 6.08865 5.89566 6.53698 5.95241C6.61643 5.88998 6.68453 5.75378 6.62211 5.62325C6.50861 5.56083 6.38375 5.5438 6.2589 5.52678C6.12837 5.50975 6.00352 5.49273 5.89569 5.42463C5.71409 5.3168 5.55519 5.11817 5.45304 4.85711C5.35088 4.60174 5.29981 4.30096 5.31683 4.00585V3.98315L5.32818 3.96612C5.40764 3.881 5.48709 3.80155 5.56654 3.73345C5.83327 3.48942 6.04325 3.29079 6.07162 2.8538C6.09432 2.4906 6.0092 2.17279 5.81057 1.94579C5.61194 1.71311 5.29981 1.57123 4.9139 1.53718C4.6869 1.52016 4.43719 1.50881 4.11939 1.50881C3.90941 1.50881 3.69943 1.51448 3.49513 1.51448C3.29082 1.52016 3.08084 1.52016 2.87654 1.52016C2.37146 1.52016 1.7926 1.50313 1.28751 1.36693C1.29319 1.55421 1.32724 1.71878 1.39534 1.86066C1.46344 2.00821 1.55992 2.13307 1.69044 2.24089C1.91745 2.4225 2.23525 2.54735 2.67224 2.60978C2.70061 2.61545 2.72331 2.61545 2.75736 2.61545C2.85952 2.62113 2.96734 2.63248 3.05247 2.71193L3.1149 2.77435L3.03544 2.8084C2.33173 3.09216 1.53154 3.29646 0.578125 3.43266C0.612176 3.72777 0.748378 3.94342 0.969707 4.09098C1.16834 4.2215 1.44074 4.28393 1.75855 4.28393H1.77557C2.07068 4.28393 2.38848 4.2215 2.69494 4.11368L2.86519 4.05693L2.76304 4.20448C2.40551 4.70956 1.9515 5.12952 1.50884 5.53813C1.21941 5.80486 0.918631 6.08294 0.651901 6.38372C0.805129 6.50289 0.975382 6.56532 1.15131 6.57667C1.17401 6.57667 1.19104 6.57667 1.21374 6.57667C1.36696 6.57667 1.53154 6.53694 1.70179 6.46317C2.065 6.30427 2.41686 6.00916 2.69494 5.77081C2.76871 5.70838 2.83682 5.64595 2.90492 5.59488L3.08652 5.44733L2.99572 5.66298C2.55874 6.67315 2.0423 7.63224 1.54857 8.56295C1.22509 9.15884 0.895931 9.77743 0.589475 10.4074C0.623526 10.413 0.657576 10.413 0.691627 10.413C0.844855 10.413 1.00376 10.3676 1.16834 10.2768C1.36696 10.169 1.54289 10.0101 1.69612 9.8739C2.1785 9.4199 2.58144 8.84671 2.97302 8.28488C3.21705 7.93869 3.44405 7.60954 3.68241 7.32011L3.77321 7.38821C3.42703 7.94437 3.18867 8.51755 3.02409 9.18722C2.89357 9.72068 2.81979 10.2768 2.73466 10.8727C2.70629 11.0657 2.68359 11.2643 2.64954 11.4629C2.50766 12.4277 2.16715 13.2676 1.838 14.0848C1.65639 14.5275 1.49182 14.9531 1.34994 15.3844C1.36696 15.3844 1.37831 15.3844 1.39534 15.3844C1.68477 15.3844 1.88907 15.305 2.00825 15.2369C2.24093 15.1063 2.46226 14.8793 2.67224 14.5615C2.87087 14.2494 3.01274 13.9146 3.09787 13.6932L3.10922 13.6649L3.14327 13.6592C3.17732 13.6535 3.19435 13.6081 3.21137 13.5457C3.21705 13.523 3.22272 13.5003 3.23407 13.4833C3.58593 12.6944 3.85833 11.8318 4.11371 10.9919V10.9862C4.18181 10.7649 4.24992 10.5436 4.32369 10.3222C4.34072 10.2598 4.36342 10.1974 4.38044 10.135C4.48259 9.81148 4.58475 9.47665 4.72662 9.18154L4.82878 8.96021L4.83445 9.20424C4.87418 11.6048 4.5734 13.7954 4.27262 15.6341C5.24306 15.5263 5.60626 14.7658 5.89569 13.9884C6.11702 13.3981 6.27025 12.8363 6.36673 12.2631C6.46888 11.6332 6.50293 10.9976 6.46888 10.3222L6.44618 9.95335L6.57671 10.2995C6.69588 10.6173 6.72993 11.043 6.76966 11.531C6.77534 11.6389 6.78669 11.7467 6.79804 11.8545C6.83209 12.2291 6.89451 12.9214 7.17259 13.0633C7.20664 13.0803 7.24637 13.0917 7.28609 13.0917C7.34852 13.0917 7.4223 13.069 7.50742 13.0236C7.7855 12.5753 7.81388 11.8488 7.84225 11.1508C7.85928 10.7252 7.87631 10.2825 7.95008 9.90228L8.00116 9.6242L8.05791 9.8966C8.12033 10.186 8.14303 10.4357 8.17141 10.6798C8.19411 10.8954 8.21681 11.1111 8.26221 11.3494C8.27356 11.4005 8.28491 11.4516 8.29059 11.5027C8.35301 11.7978 8.40976 12.1042 8.39274 12.422C8.35301 13.0122 8.16006 13.5287 7.8082 14.0054C7.77983 14.0451 7.74578 14.0848 7.71173 14.1246C7.54147 14.3289 7.37122 14.5332 7.50742 14.8396L8.10331 15.1801L8.11466 15.1858L8.12033 15.1971C8.16006 15.2596 8.26221 15.2823 8.36436 15.2993C8.38706 15.305 8.40976 15.3106 8.43247 15.3163C8.56299 15.1971 8.65379 15.0553 8.71054 14.8964C8.75595 14.7715 8.77297 14.6296 8.79 14.4878C8.8127 14.3175 8.8354 14.1529 8.89782 14.0224C8.9262 13.9657 9.017 13.8408 9.12483 13.8408C9.1305 13.8408 9.1305 13.8408 9.13618 13.8408C9.34048 13.8578 9.35751 14.2551 9.36886 14.5786V14.6353C9.38588 15.0382 9.32346 15.5944 9.1759 15.8328C8.99997 16.1052 8.64812 16.1335 8.30194 16.1619C8.09196 16.1789 7.89333 16.1903 7.74578 16.2641C7.60958 16.3322 7.56417 16.4854 7.5131 16.6443C7.49607 16.701 7.47905 16.7578 7.45635 16.8089L7.445 16.8373C7.3996 16.9564 7.35987 17.0643 7.27474 17.1834C7.29177 17.1948 7.31447 17.1948 7.3315 17.1948C7.38825 17.1948 7.45635 17.1607 7.52445 17.1267C7.59823 17.087 7.67768 17.0472 7.76848 17.0359C7.7855 17.0359 7.79685 17.0359 7.81388 17.0359C7.8763 17.0359 7.94441 17.0529 8.00683 17.0643C8.06358 17.0756 8.11466 17.087 8.16573 17.0926C8.18844 17.0926 8.21114 17.0926 8.22816 17.0926C8.56867 17.0926 8.9035 16.9678 9.1078 16.8997L9.11915 16.894L9.22698 16.8543L9.19293 16.9621C9.0624 17.365 8.96025 17.6828 8.69919 17.9382C8.29059 18.3468 7.62093 18.4263 6.96829 18.5057C6.40078 18.5738 5.81057 18.6476 5.43601 18.9427C5.22036 19.113 5.03875 19.4081 4.94795 19.7316C4.8458 20.1004 4.87418 20.4807 5.02173 20.8041C5.15793 21.0425 5.41331 21.2525 5.70274 21.3603C5.85029 21.4171 5.99785 21.4398 6.1454 21.4398C6.2589 21.4398 6.3724 21.4227 6.47455 21.3944C5.91272 21.2922 5.50979 20.946 5.39629 20.4523C5.32251 20.1231 5.40196 19.7826 5.61761 19.4989C5.84462 19.2038 6.18513 19.0165 6.51428 18.9995L6.59941 18.9938L6.56536 19.0732C6.49158 19.2605 6.33835 19.3967 6.17377 19.5499C5.91272 19.7883 5.66302 20.0096 5.73679 20.4126C5.75382 20.5034 5.78219 20.5658 5.82192 20.5771C5.82759 20.5771 5.83327 20.5771 5.83894 20.5771C5.92407 20.5771 6.06027 20.4409 6.15675 20.3388C6.1908 20.2991 6.23053 20.265 6.2589 20.2366C6.42348 20.0948 6.57671 19.9756 6.70723 19.8791C7.00234 19.6691 7.34285 19.5102 7.672 19.357C8.06926 19.1697 8.44949 18.9938 8.73892 18.7384C9.02268 18.4944 9.25535 18.1652 9.42561 17.9098L9.56749 17.6942L9.52776 17.9496C9.43696 18.5171 9.32346 18.9143 9.17023 19.1924C8.98863 19.5329 8.61407 19.6237 8.22249 19.7202C7.99548 19.777 7.75713 19.8337 7.56417 19.9472C7.43365 20.1004 7.56417 20.3047 7.6266 20.3899L7.65498 20.4239L7.6266 20.458C7.43932 20.6906 7.16692 20.8382 6.90019 20.9744C7.13287 20.946 7.35987 20.9006 7.56985 20.8325C7.83658 20.7474 8.09196 20.6339 8.32464 20.4807C8.73324 20.2253 9.09645 19.8734 9.43128 19.4024C9.45398 19.3683 9.48236 19.3286 9.50506 19.2889C9.56181 19.1924 9.61856 19.0959 9.72071 19.0222L9.81719 18.9541L9.81151 19.0732C9.80016 19.2662 9.79449 19.4591 9.78881 19.6408C9.77746 20.0948 9.76611 20.5204 9.64126 20.9687C9.58451 21.1844 9.45966 21.349 9.34616 21.5079C9.23265 21.6611 9.1305 21.803 9.1078 21.9619C9.0851 22.1151 9.11915 22.2456 9.1986 22.3251C9.26103 22.3875 9.34616 22.4215 9.44831 22.4215C9.46533 22.4215 9.48236 22.4215 9.49371 22.4215L9.52208 22.4159L9.53911 22.4386C9.64126 22.5634 9.72639 22.711 9.81151 22.8472C9.87962 22.9607 9.94772 23.0799 10.0272 23.182C10.1577 22.9266 10.2996 22.6883 10.4471 22.4556L10.4585 22.4443L10.4812 22.4102L10.5209 22.4215C10.555 22.4272 10.5833 22.4329 10.6117 22.4329C10.6968 22.4329 10.7706 22.3988 10.833 22.3307C10.9465 22.2116 10.9863 22.0016 10.9352 21.837C10.9125 21.7576 10.8387 21.6724 10.7649 21.5873C10.7082 21.5192 10.6514 21.4454 10.606 21.366C10.2882 20.8325 10.169 20.0267 10.2825 19.2094L10.2996 19.0676L10.3847 19.1867C10.7366 19.6805 11.0884 20.1572 11.5594 20.509C12.0305 20.8666 12.5583 21.0539 13.1712 21.0766C12.8761 20.929 12.6377 20.7644 12.4504 20.5601L12.4107 20.5204L12.4504 20.4807C12.5185 20.4182 12.5469 20.3501 12.5356 20.282C12.5242 20.1799 12.4391 20.0607 12.3029 19.9756C12.1724 19.8905 11.9681 19.828 11.7751 19.7713C11.5708 19.7089 11.3551 19.6464 11.2133 19.5499C10.6685 19.1924 10.5663 18.5852 10.4528 17.9439V17.9382L10.4131 17.6999L10.555 17.8985C10.6231 17.9893 10.6855 18.0858 10.7479 18.1936C10.8841 18.4149 11.026 18.6419 11.2246 18.8065C11.4857 19.0278 11.8659 19.2151 12.2291 19.391L12.2802 19.4137C12.7796 19.6578 13.3471 19.9302 13.7614 20.3047C13.8068 20.3501 13.8522 20.4012 13.9033 20.458C13.9884 20.5544 14.0792 20.6679 14.1586 20.6793C14.1643 20.6793 14.17 20.6793 14.1813 20.6793C14.2154 20.6793 14.2438 20.6679 14.2721 20.6396C14.3459 20.5658 14.3743 20.4012 14.3573 20.2934C14.3232 20.0664 14.1359 19.9018 13.9543 19.7372C13.7898 19.5897 13.6309 19.4478 13.5798 19.2662L13.5571 19.1811L13.6422 19.1981C14.2097 19.3002 14.8056 19.7372 14.7772 20.458C14.7489 21.1276 14.2097 21.4852 13.6195 21.5646C13.75 21.6043 13.8749 21.627 14.0054 21.627C14.0281 21.627 14.0451 21.627 14.0678 21.627C14.2665 21.6157 14.4537 21.5589 14.624 21.4511C14.8056 21.3319 14.9588 21.1617 15.061 20.9574C15.1688 20.7474 15.2199 20.5034 15.2142 20.2593C15.1972 19.7429 15.0099 19.3627 14.6353 19.1016C14.2778 18.8519 13.7954 18.7327 13.3301 18.6419C13.1768 18.6136 13.0179 18.5909 12.8647 18.5682C12.5072 18.5171 12.1383 18.4603 11.8205 18.3241C11.5708 18.2163 11.3438 18.012 11.1508 17.7112C11.0146 17.5012 10.8444 17.1778 10.8103 16.8202L10.799 16.6954L10.9011 16.7635C10.9465 16.7918 10.9806 16.8259 11.0146 16.86C11.0657 16.911 11.1111 16.9508 11.1849 16.9791C11.2814 17.0132 11.3949 17.0302 11.5538 17.0302C11.5594 17.0302 11.5594 17.0302 11.5651 17.0302V17.0132L11.5708 16.9564V17.0132V17.0302C11.6843 17.0302 11.8035 17.0189 11.9227 17.0132C12.0418 17.0018 12.1667 16.9962 12.2802 16.9962C12.371 16.9962 12.4504 17.0018 12.5185 17.0132C12.581 17.0245 12.632 17.0529 12.6774 17.0756C12.7285 17.104 12.7626 17.121 12.8136 17.121C12.8193 17.121 12.825 17.121 12.8363 17.121C12.9442 17.1097 12.9669 17.0813 12.9725 17.0756C12.9896 17.0416 12.9271 16.9564 12.8817 16.894C12.859 16.86 12.8363 16.8259 12.8136 16.7975C12.7796 16.7351 12.7512 16.6556 12.7285 16.5762C12.7001 16.4967 12.6774 16.4173 12.6491 16.3776C12.5299 16.196 12.2915 16.196 12.0191 16.1903C11.8035 16.1846 11.5878 16.1846 11.3778 16.0995C11.1508 16.0087 10.9806 15.8044 10.8728 15.4866C10.7649 15.1801 10.7479 14.8566 10.7479 14.6977C10.7479 14.6069 10.7876 14.0678 10.9522 13.9259C10.9806 13.8975 11.0146 13.8862 11.0544 13.8862C11.06 13.8862 11.0657 13.8862 11.0714 13.8862C11.1849 13.9032 11.2416 14.0678 11.2814 14.2267L11.287 14.2381C11.3154 14.3516 11.3268 14.4878 11.3381 14.6296C11.3722 15.0382 11.4119 15.3106 11.6559 15.3447C11.6673 15.339 11.6729 15.3277 11.6843 15.2936C11.6956 15.2596 11.707 15.2255 11.7354 15.1971L11.7524 15.1801L11.7808 15.1858C11.7978 15.1858 11.8091 15.1858 11.8262 15.1858C11.934 15.1858 11.9794 15.1347 12.0191 15.0496L12.0305 15.0326L12.0475 15.0269L12.6774 14.7375C12.598 14.5842 12.5696 14.414 12.5412 14.2381C12.5129 14.0848 12.4902 13.9259 12.4277 13.784C12.3937 13.7046 12.3313 13.6308 12.2745 13.557C12.2461 13.523 12.2178 13.4889 12.1951 13.4606C11.934 13.1087 11.7808 12.5923 11.7467 11.9567C11.7183 11.4119 11.7808 10.7819 11.9227 10.186L11.9794 9.942L12.0305 10.1917C12.0986 10.5095 12.127 10.867 12.1553 11.2132C12.1894 11.5764 12.2178 11.9567 12.2915 12.2858C12.371 12.6377 12.4902 12.8931 12.6604 13.0633C12.6831 13.0633 12.7001 13.0633 12.7172 13.0633C12.8363 13.0633 12.9328 13.0406 13.0179 13.0009C13.1485 12.6263 13.1768 12.1383 13.1995 11.6672C13.2279 11.1622 13.2563 10.6344 13.4095 10.2371L13.5401 9.90795L13.5174 10.2655C13.4549 11.3778 13.6138 12.388 14.0338 13.54C14.1927 13.977 14.397 14.4764 14.7091 14.8623C15.0269 15.2482 15.4072 15.4639 15.8782 15.515C15.5944 14.187 15.3561 12.7285 15.1915 11.304C15.1575 11.0203 15.1518 10.7195 15.1461 10.4301V10.4244C15.1461 10.2655 15.1404 10.1066 15.1348 9.94768C15.1291 9.86255 15.1234 9.77743 15.1177 9.70365C15.1007 9.49935 15.0837 9.29504 15.1177 9.09641L15.1518 8.89211L15.2256 9.08506C15.4299 9.59582 15.6115 10.135 15.8044 10.7081V10.7138C16.2414 11.9964 16.6897 13.3187 17.3651 14.2948C17.3821 14.3232 17.3991 14.3459 17.4218 14.3743C17.5524 14.5615 17.6942 14.7715 17.8191 14.8737C18.0404 15.0609 18.4206 15.112 18.7782 15.1461C18.6249 14.7204 18.449 14.3062 18.2674 13.8635C17.9156 13.0293 17.5467 12.1723 17.3594 11.1962C17.3197 10.9862 17.2799 10.7819 17.2459 10.5776C17.1437 9.99876 17.0416 9.45395 16.8997 8.94319C16.7295 8.3246 16.423 7.81952 16.1279 7.33146L16.1166 7.30876C16.0882 7.26336 16.0598 7.21228 16.0314 7.16121L16.1222 7.0931C16.3492 7.34281 16.5706 7.63791 16.8032 7.94437C16.9792 8.17705 17.1551 8.4154 17.348 8.64808C17.524 8.86374 17.7226 9.07939 17.9156 9.28369L18.0064 9.38017L18.0291 9.40855C18.2163 9.61285 18.432 9.83985 18.6817 9.99308C18.8633 10.1009 19.0392 10.152 19.2208 10.152C19.3173 10.1179 19.4081 10.1066 19.4989 10.0782ZM10.606 1.67338C10.5606 1.71878 10.4869 1.74149 10.4017 1.74149C10.3677 1.74149 10.3109 1.73581 10.2655 1.71311C10.1974 1.67906 10.1634 1.61096 10.1804 1.53151L10.1917 1.46341L10.2542 1.48611C10.2939 1.49746 10.3109 1.52583 10.3279 1.54853C10.345 1.56556 10.3506 1.57123 10.3563 1.57691C10.379 1.57123 10.3961 1.55988 10.4188 1.54286C10.4585 1.52016 10.5039 1.48611 10.5777 1.48611H10.6117L10.6287 1.52016C10.6628 1.57123 10.6514 1.62798 10.606 1.67338Z" fill="#E64625"/>
<path d="M11.5874 1.2207C12.3535 1.49878 12.0471 2.94593 12.6827 3.29211C12.5919 3.34319 12.4159 3.30914 12.3138 3.34886C12.3195 3.7745 11.996 4.23986 12.0527 4.66549C12.0754 4.82439 12.2003 4.90384 12.2173 5.03437C12.0811 5.1649 11.8655 5.05707 11.7179 4.99464C11.5306 5.25002 11.3433 5.85158 11.6271 6.14101C11.4285 6.11831 11.3036 6.18074 11.2355 6.28857C11.1617 6.63475 11.4455 6.6007 11.6271 6.73122C11.7803 6.84473 11.8144 6.9639 11.9222 7.06606C13.7326 7.10011 14.8903 5.95374 14.8279 4.10365C14.7881 4.02988 14.686 4.0242 14.6065 3.99015C14.6292 4.48956 14.5725 4.96627 14.3284 5.3238C14.1866 5.53378 13.8517 5.77213 13.6815 5.84023C13.4148 5.94806 12.9891 5.91968 13.1253 5.5054C13.4602 5.3919 13.8517 5.32947 14.0674 5.0968C14.1185 4.92087 14.249 4.79034 14.3057 4.58036C14.3511 4.41578 14.4192 4.0923 14.3625 3.89367C14.3398 3.81422 14.0163 3.57019 13.9369 3.48507C13.7269 3.26374 13.5112 2.99133 13.5453 2.50327C13.568 2.18547 13.6815 1.86199 13.8801 1.66903C14.2717 1.28313 15.0832 1.35123 15.804 1.31718C16.7687 1.27745 17.6541 1.24908 18.4315 1.02207C18.4372 2.12304 17.586 2.3614 16.6552 2.5203C16.8028 2.64515 17.0184 2.68488 17.2114 2.74163C17.8584 2.92891 18.6188 3.01971 19.3963 3.11051C19.2317 4.05258 18.074 4.26256 17.0241 3.96178C17.6597 4.73926 18.5223 5.44865 19.3963 6.05589C19.209 6.24884 18.9537 6.36802 18.6188 6.36802C17.83 6.37369 17.3476 5.71538 16.8425 5.40325C17.6597 7.06038 18.5734 8.62103 19.5836 10.0909C18.8515 10.3406 18.3521 9.77875 17.9719 9.37015C17.7449 9.12612 17.5122 8.88209 17.3079 8.62671C16.8595 8.0819 16.468 7.49169 16.065 7.05471C16.3942 7.60519 16.7574 8.16135 16.956 8.87074C17.149 9.57445 17.2681 10.3519 17.4214 11.1294C17.7108 12.6277 18.4202 13.8535 18.8685 15.1474C18.4826 15.1077 18.0456 15.0623 17.7959 14.8523C17.6427 14.7274 17.4725 14.4607 17.3306 14.2621C16.3545 12.8547 15.8494 10.7265 15.1797 9.04099C15.1343 9.30772 15.1854 9.60282 15.1967 9.89225C15.2194 10.3406 15.2024 10.8116 15.2535 11.2429C15.4294 12.7468 15.6734 14.2224 15.9572 15.522C14.8165 15.4368 14.3455 14.4607 13.9936 13.5016C13.6304 12.5085 13.3977 11.4643 13.4772 10.1874C13.1707 10.9478 13.3523 12.1963 13.0686 12.9852C12.9607 13.0419 12.8245 13.0703 12.6429 13.059C12.0414 12.4631 12.1833 11.1238 11.979 10.1306C11.7009 11.2656 11.6895 12.6333 12.24 13.3711C12.3195 13.4732 12.4273 13.5867 12.4784 13.7059C12.6202 14.0294 12.5805 14.4153 12.7564 14.7047C13.2445 15.5106 13.7212 16.1859 14.1639 16.9464C14.4987 17.0713 14.7257 16.9067 14.8108 16.6683C14.8449 16.5718 14.8165 16.4413 14.8676 16.3562C14.9357 16.2313 15.174 16.22 15.35 16.1178C15.4237 16.0724 15.5089 15.9476 15.5883 15.9135C15.7869 15.8341 16.0594 15.9192 16.2353 15.9873C16.0821 16.027 15.8721 16.0043 15.8096 16.1349C15.8323 16.2711 15.9685 16.2257 15.9742 16.3392C15.9969 16.5889 15.5372 16.6172 15.3613 16.5264C15.2762 16.5605 15.3556 16.6853 15.3613 16.7478C15.2592 16.8613 15.0662 16.884 15.0662 17.0996C15.2875 17.2018 15.5259 17.094 15.7529 16.9861C15.8437 16.9464 15.9515 16.8499 16.048 16.8556C16.1502 16.867 16.2693 17.0372 16.3828 17.0769C16.7971 17.2245 17.4441 16.9578 17.5122 17.4118C17.393 17.3493 17.183 17.3607 17.1433 17.4855C17.149 17.6217 17.2738 17.6217 17.2568 17.7466C17.2341 17.8771 17.0638 17.9339 16.9049 17.8771C16.7744 17.8317 16.6496 17.5423 16.4396 17.5423C16.275 17.6842 16.0083 17.6388 15.9402 17.4515C15.6678 17.5082 15.4237 17.5877 15.1797 17.6728C15.2875 17.9906 15.7699 18.0984 16.0707 18.2857C16.1275 18.3822 16.1502 18.5127 16.1615 18.6546C16.031 18.6546 16.0594 18.4957 15.9231 18.5071C15.7869 18.5695 15.8437 18.7397 15.7188 18.7851C15.4748 18.8816 15.3556 18.3255 15.0889 18.3028C15.0719 18.229 15.0208 18.2006 14.9981 18.1382C14.8165 18.0417 14.6179 17.9622 14.459 17.8431C14.039 17.7523 13.7212 17.7523 13.2729 17.826C13.1707 17.9679 12.6713 18.1155 12.6089 17.8658C12.5692 17.7125 12.6883 17.6898 12.7394 17.5707C12.7167 17.372 12.5067 17.5536 12.4784 17.5139C12.6713 17.0259 13.3013 17.565 13.7553 17.3266C13.2672 16.4867 12.694 15.7319 12.0698 15.0282C12.0187 15.1304 11.9506 15.2155 11.7747 15.1928C11.7293 15.2382 11.7406 15.346 11.6611 15.3574C11.2242 15.3063 11.332 14.6139 11.2355 14.211C11.2185 14.1429 11.1674 13.9102 11.0709 13.8989C10.8723 13.8705 10.8099 14.5288 10.8099 14.6593C10.8099 15.1077 10.9291 15.8227 11.4001 16.01C11.8711 16.1973 12.4613 15.9589 12.694 16.3051C12.7564 16.3959 12.7962 16.6172 12.8586 16.7307C12.9437 16.8783 13.1934 17.0996 12.8416 17.1394C12.7054 17.1564 12.6429 17.0542 12.5067 17.0259C12.1265 16.9521 11.542 17.128 11.1731 16.9861C11.0369 16.9351 10.9915 16.8386 10.878 16.7648C10.9064 17.0826 11.0596 17.3947 11.2128 17.6331C11.366 17.8658 11.576 18.1041 11.8598 18.2233C12.3081 18.4106 12.8586 18.439 13.358 18.5354C14.3625 18.7284 15.2478 19.0348 15.2819 20.2039C15.3102 21.2027 14.4136 21.9689 13.4091 21.4808C14.1014 21.4638 14.7144 21.0949 14.7427 20.4082C14.7711 19.7442 14.2263 19.3072 13.6474 19.2051C13.7439 19.5796 14.3511 19.784 14.4249 20.2436C14.4533 20.4082 14.3738 20.7203 14.1639 20.6863C14.0163 20.6636 13.8744 20.4196 13.7382 20.2947C13.3183 19.9145 12.7394 19.6364 12.2173 19.3867C11.8314 19.1994 11.4625 19.0178 11.2015 18.7965C10.9064 18.5411 10.7304 18.1552 10.5148 17.8714C10.6283 18.5184 10.7248 19.1143 11.2582 19.4661C11.5306 19.6478 12.0811 19.7159 12.3535 19.8918C12.5465 20.0223 12.7337 20.2663 12.5011 20.482C12.7508 20.7487 13.0742 20.9417 13.4431 21.0949C11.803 21.1346 11.0369 20.1415 10.3502 19.171C10.2367 19.9826 10.3616 20.7828 10.6623 21.2992C10.7645 21.4751 10.9461 21.634 10.9972 21.7816C11.0993 22.0824 10.9064 22.525 10.5148 22.4286C10.3502 22.6896 10.1913 22.9563 10.0494 23.2458C9.84512 22.9961 9.71459 22.6783 9.51029 22.4286C9.20951 22.4569 9.01655 22.2469 9.06763 21.9121C9.11871 21.5716 9.48759 21.3276 9.60676 20.9133C9.77702 20.289 9.73162 19.6988 9.77134 19.0235C9.64081 19.1143 9.57839 19.2732 9.49326 19.3924C8.89738 20.2266 8.05179 20.9303 6.66139 21.0041C7.00189 20.8225 7.37078 20.6636 7.60345 20.3742C7.49563 20.2323 7.39915 20.0166 7.5467 19.8577C8.06314 19.5513 8.85765 19.6364 9.14141 19.1143C9.31733 18.7965 9.41949 18.3425 9.49326 17.8714C9.31733 18.1382 9.07898 18.473 8.78955 18.7227C8.23907 19.1994 7.39915 19.4151 6.75219 19.8691C6.62734 19.9599 6.46843 20.0791 6.30953 20.2209C6.15063 20.3571 5.7931 20.8509 5.69662 20.3685C5.56609 19.6705 6.35493 19.4605 6.53086 19.0008C5.92362 19.0235 5.29369 19.6761 5.45827 20.3912C5.58312 20.919 6.05415 21.2765 6.70111 21.3162C6.02578 21.6567 5.25964 21.2708 4.98156 20.7771C4.64105 20.045 4.97021 19.1937 5.40719 18.8532C6.21873 18.2176 7.91558 18.6035 8.6647 17.8544C8.9144 17.6047 9.01655 17.2983 9.14708 16.8897C8.92575 16.9691 8.5512 17.111 8.16529 17.094C8.03476 17.0883 7.89856 17.0259 7.77371 17.0372C7.55805 17.0656 7.3878 17.3039 7.20052 17.1507C7.30267 17.0088 7.34807 16.884 7.40483 16.7421C7.48995 16.5321 7.50698 16.2654 7.71696 16.1689C8.11421 15.9816 8.86333 16.1746 9.12438 15.7603C9.26626 15.539 9.32868 14.9942 9.31166 14.5912C9.30031 14.3245 9.29463 13.8648 9.12438 13.8478C9.0506 13.8421 8.96548 13.9386 8.9371 13.9954C8.8236 14.2337 8.85198 14.5856 8.74982 14.8636C8.68172 15.0623 8.56255 15.2098 8.43769 15.329C8.30149 15.295 8.13691 15.2836 8.06881 15.1814C7.4559 15.9022 6.83732 16.6172 6.23576 17.3493C6.61599 17.5253 7.17215 17.145 7.4559 17.4231C7.3878 17.5139 7.24592 17.5366 7.1608 17.6104C7.17782 17.7466 7.30835 17.7125 7.2743 17.8487C7.2289 18.036 6.79759 17.9736 6.71814 17.8317C6.37763 17.8771 6.11658 17.6898 5.81012 17.792C5.61717 17.8601 5.50934 18.0984 5.29369 18.1268C5.21424 18.4503 4.77158 18.439 4.6297 18.7C4.55025 18.8419 4.61268 19.0292 4.48215 19.1654C4.38567 19.1881 4.30622 19.2391 4.20407 19.2051C4.13029 19.1767 4.16434 19.0348 4.13029 18.9667C3.97707 18.9781 3.94302 19.0973 3.90897 19.2278C3.81249 19.0632 3.86924 18.7965 3.94869 18.6546C3.99977 18.6262 4.05652 18.6035 4.11327 18.5808C4.32892 18.1665 4.92481 18.1325 5.05533 17.6388C4.87373 17.6047 4.65808 17.4685 4.46512 17.5082C4.38 17.5253 4.3573 17.6104 4.27785 17.6217C4.17569 17.6331 4.12462 17.5366 4.03949 17.5309C3.94869 17.5253 3.76709 17.6104 3.70466 17.6615C3.60819 17.7409 3.61386 17.9055 3.50036 17.9963C3.38686 18.053 3.1939 18.036 3.09175 17.9793C3.01797 17.8941 3.11445 17.7523 3.035 17.6842C2.93852 17.6047 2.86475 17.7806 2.81367 17.7409C2.80232 17.2926 3.34146 17.3777 3.73871 17.1848C3.84654 17.1337 3.97139 16.9861 4.09057 16.9634C4.41972 16.901 4.74888 17.1904 5.05533 17.2245C5.19154 16.9464 4.86238 16.8329 4.77726 16.6513C4.46512 16.5832 4.2665 16.6626 3.98274 16.6343C3.89761 16.5151 3.98274 16.3675 4.03949 16.2824C3.97707 16.1746 3.81249 16.1008 3.64791 16.1519C3.74439 16.0441 3.88626 15.9419 4.01679 15.9476C4.10759 15.9533 4.18137 16.0497 4.27785 16.0951C4.55593 16.2257 4.95886 16.2994 5.24261 16.3732C5.38449 16.4697 5.41854 17.1507 5.66825 17.1507C5.7931 17.1507 6.09388 16.708 6.16765 16.6116C6.61031 16.0497 7.07567 15.3574 7.46158 14.8523C7.26295 14.438 7.58643 14.177 7.75668 13.9443C8.04044 13.5584 8.28447 13.059 8.32987 12.3893C8.35257 12.0318 8.26744 11.6742 8.19934 11.3337C8.10286 10.823 8.10854 10.4144 7.99504 9.86955C7.79641 10.8797 8.00071 12.2985 7.52968 13.0363C6.88272 13.4108 6.78624 12.4006 6.73516 11.8331C6.67841 11.2202 6.66139 10.6527 6.51384 10.2782C6.59329 11.7083 6.36061 12.8717 5.94065 13.984C5.64555 14.8126 5.25396 15.5844 4.21542 15.6638C4.55025 13.6548 4.82833 11.487 4.78861 9.16584C4.61835 9.52337 4.50485 9.92063 4.38 10.3122C4.03949 11.3791 3.73304 12.4801 3.2847 13.4789C3.25633 13.5413 3.24498 13.6662 3.15418 13.6832C2.95555 14.228 2.57532 14.9658 2.04186 15.2552C1.86025 15.3574 1.60488 15.4255 1.28139 15.4028C1.67298 14.1259 2.37669 12.9171 2.59802 11.4189C2.71719 10.6187 2.79665 9.85253 2.9669 9.14314C3.13715 8.43943 3.39253 7.84922 3.74439 7.29306C3.09743 8.07055 2.52424 9.14314 1.72405 9.88658C1.43462 10.1533 0.98629 10.5392 0.503906 10.4257C1.29842 8.80264 2.21779 7.29873 2.94987 5.61323C2.40506 6.05589 1.4403 7.08308 0.577683 6.37369C1.25869 5.60188 2.12131 5.00032 2.72287 4.14905C1.80918 4.47253 0.606058 4.42146 0.520932 3.37157C1.43462 3.24104 2.27454 3.04241 3.01797 2.74163C2.92717 2.65083 2.77962 2.66785 2.66612 2.65083C1.90566 2.53165 1.24734 2.20249 1.25302 1.27745C2.30291 1.58958 3.72169 1.36825 4.93616 1.46473C5.76472 1.53283 6.19035 2.07764 6.13928 2.83243C6.09955 3.43399 5.71365 3.61559 5.37882 3.9788C5.35044 4.57469 5.58312 5.13652 5.93498 5.3465C6.13928 5.46568 6.44006 5.40893 6.67841 5.5508C6.76921 5.72106 6.67841 5.90266 6.56491 5.97644C5.60014 5.86861 5.06101 5.15355 5.17451 4.08663C5.04398 4.07528 4.98156 4.12635 4.91346 4.17743C4.82266 5.90266 6.18468 7.17956 7.81911 7.10578C8.11989 7.08876 8.27879 6.60637 8.74415 6.75392C8.84063 6.62907 8.7782 6.34532 8.87468 6.21479C8.7782 6.11264 8.56255 6.13534 8.40932 6.08426C8.94845 6.05589 9.02223 5.70403 9.30031 5.34082C9.43651 5.1649 9.61244 5.03437 9.74297 4.84142C9.40246 4.62576 8.89738 4.88114 8.76117 5.04572C8.88603 4.64279 9.22086 4.52361 9.66919 4.34201C9.95294 4.22851 10.4807 4.06393 10.2594 3.69505C9.94727 3.51344 9.48759 3.47939 9.14708 3.32616C9.33436 2.88918 10.5545 3.49074 10.6113 2.97431C10.3445 2.87783 9.92457 2.88918 9.61244 2.90053C9.23788 2.91756 8.88603 2.96296 8.5739 3.04808C8.10286 3.17294 7.75101 3.49074 7.297 3.56452C8.16529 3.05943 9.21518 2.35572 10.6283 2.69623C10.685 2.16277 9.96997 1.96414 9.66352 2.28762C9.27761 1.97549 8.60227 1.96982 8.46039 2.49192C8.43202 2.58273 8.53417 2.63948 8.50012 2.6792C8.20502 2.48057 8.26744 1.90171 8.51715 1.69741C8.62497 1.60661 8.78955 1.60093 8.92575 1.51013C9.08466 1.40798 9.12438 1.1526 9.40814 1.2888C9.52731 1.22638 9.52731 1.1299 9.61244 1.06747C10.2026 0.647517 11.3377 1.40231 11.9449 0.919922C11.979 0.959648 11.8484 1.00505 11.7803 1.05045C11.7122 1.1072 11.6271 1.1753 11.5874 1.2207ZM9.51029 1.3342C9.48191 1.48743 9.54434 1.62363 9.71459 1.62931C9.85079 1.24908 10.3672 1.2434 10.7702 1.1299C10.3956 1.01072 9.58974 0.942622 9.51029 1.3342ZM10.9404 1.16963C10.8666 1.18665 10.7929 1.26043 10.7191 1.28313C10.3843 1.3796 9.93025 1.34555 9.85079 1.69174C9.98132 1.79956 10.0721 1.81091 10.2594 1.83929C10.7134 1.90739 11.0766 2.2479 11.5533 2.28195C11.4625 2.316 11.3206 2.30465 11.2185 2.3387C11.4058 2.53733 11.6157 3.28076 11.2923 3.55884C11.2866 3.39994 11.3887 3.26941 11.332 3.11619C11.122 3.20699 11.0653 3.61559 10.9801 3.89367C10.9404 3.78585 10.9688 3.60992 10.9234 3.50209C10.6567 3.61559 10.6964 4.14338 10.441 4.2058C10.4694 4.0242 10.5999 3.74612 10.5715 3.63262C10.441 3.62694 10.5034 3.81422 10.4807 3.9107C10.3332 4.48388 9.41949 4.27958 9.14708 4.72791C9.48191 4.75061 9.91322 4.68251 10.1856 4.76764C9.66352 4.92087 9.43651 5.37488 9.16978 5.78348C9.33436 5.80618 9.58974 5.73241 9.66919 5.84023C9.39679 5.89131 9.10736 5.93104 8.90873 6.06156C9.09601 6.10696 9.40246 6.03886 9.55569 6.11831C9.43084 6.20344 9.15843 6.14101 9.01655 6.20911C8.94278 6.39639 8.93143 6.65177 8.869 6.85608C8.53985 6.82203 8.34689 6.92985 8.16529 7.04335C8.05746 7.39521 7.96666 7.66194 7.94396 8.04217C7.83613 9.75038 8.56255 11.1067 8.46039 12.5993C8.43202 13.0136 8.27312 13.2916 8.10854 13.564C7.87586 13.9386 7.47293 14.2507 7.55238 14.7842C7.78506 14.892 7.82478 14.6537 7.99504 14.6707C8.26177 14.6991 8.03476 15.0452 8.19934 15.2098C8.30149 15.2098 8.23339 15.0339 8.34689 15.0452C8.40932 15.0736 8.35824 15.2098 8.42067 15.2325C8.9371 15.085 8.53417 13.6548 9.25491 13.7343C9.26058 13.757 9.27761 13.774 9.31166 13.774C9.48191 14.4437 9.57271 15.3063 9.27193 15.8114C9.10736 16.0951 8.71577 16.2086 8.34689 16.237C8.20502 16.2484 8.01774 16.203 7.84748 16.254C7.58075 16.3335 7.60913 16.6286 7.51265 16.8443C7.46725 16.9521 7.35943 16.9861 7.3651 17.1223C7.59778 17.1507 7.75668 16.9351 8.01206 16.9351C8.08584 16.9351 8.15394 16.9805 8.21637 16.9918C8.86333 17.0826 9.26626 16.7137 9.36274 16.1008C9.07898 16.3392 8.57957 16.7932 7.97234 16.5435C7.89288 16.5832 7.87586 16.6853 7.76803 16.691C7.83046 16.5718 7.89288 16.4583 7.98936 16.3789C8.80658 16.5662 9.30031 16.0951 9.56136 15.5617C9.56704 15.9476 9.48759 16.2143 9.41381 16.5037C9.20383 17.2926 8.86333 18.0984 8.11989 18.3538C7.66588 18.5127 7.16647 18.4617 6.71246 18.5411C6.33791 18.6092 5.88957 18.683 5.58312 18.8759C5.25964 19.0802 4.99291 19.5569 4.95318 19.9712C4.86238 20.8565 5.41854 21.39 6.24711 21.3787C6.0655 21.2084 5.8158 21.1176 5.6342 20.9133C5.36747 20.6125 5.25396 20.0847 5.44692 19.6705C5.6569 19.2278 6.17333 18.9384 6.74084 18.8759C6.65571 19.347 6.02578 19.6023 5.84985 19.9485C5.79877 20.0507 5.725 20.3855 5.88957 20.4877C6.78057 19.3129 8.79523 19.2448 9.39111 17.8033C9.49326 17.5593 9.51596 17.2756 9.62946 16.9861C9.62379 17.3096 9.64081 17.5366 9.61244 17.8204C9.55001 18.4333 9.30598 19.3243 8.85198 19.5796C8.5512 19.7499 7.5921 19.6932 7.57508 20.0791C7.56373 20.2777 7.73966 20.255 7.87018 20.3174C7.70561 20.5558 7.4332 20.6863 7.22322 20.8736C8.53417 20.5671 9.30031 19.7159 9.83377 18.6319C9.88484 19.6988 9.84512 20.7544 9.48191 21.4297C9.40246 21.5773 9.25491 21.6908 9.20383 21.8383C9.0733 22.2129 9.33436 22.4399 9.72027 22.3377C9.72594 22.5477 9.78837 22.6556 9.86782 22.7804C9.91322 22.8542 9.98132 22.9563 10.0551 22.9847C10.1913 22.8769 10.3275 22.6045 10.3672 22.3377C10.5375 22.3775 10.7077 22.3434 10.8326 22.281C10.9234 22.1618 10.9177 21.8781 10.8496 21.7419C10.7361 21.5262 10.5942 21.39 10.4978 21.2027C10.1799 20.5955 10.2367 19.6534 10.2367 18.7397C10.8042 19.8237 11.5136 20.7714 12.938 20.9984C12.7224 20.7601 12.3592 20.6636 12.2173 20.3515C12.3138 20.3458 12.45 20.3742 12.4954 20.3117C12.5181 20.1642 12.433 20.0791 12.3478 20.0166C11.8938 19.6818 11.2469 19.7159 10.9234 19.2959C10.5034 18.7511 10.3162 17.8147 10.3672 16.9067C10.5261 18.0417 11.0539 18.683 11.9052 19.1313C12.5238 19.4548 13.1764 19.7499 13.6815 20.1699C13.8461 20.3061 13.9766 20.4877 14.1639 20.5955C14.3455 20.5558 14.3511 20.3515 14.2944 20.1869C14.1468 19.7669 13.4091 19.5059 13.4261 19.0178C14.1071 19.171 14.7881 19.5399 14.8335 20.2777C14.8789 21.0552 14.3738 21.2822 13.9255 21.5716C14.6406 21.5205 15.0435 21.1573 15.1457 20.5331C15.2194 20.0847 15.0946 19.6194 14.9243 19.364C14.249 18.3595 12.03 18.8305 11.2752 17.9566C10.878 17.3039 10.4751 16.5605 10.4978 15.5503C10.6964 16.1235 11.0596 16.5321 11.8484 16.5151C12.0244 16.2427 12.3592 16.5321 12.4216 16.6797C12.2741 16.6853 12.2514 16.5662 12.1265 16.5491C11.6384 16.7818 11.0312 16.4867 10.7191 16.254C10.7929 16.691 11.2582 17.0429 11.7576 16.9748C11.9165 16.9521 12.0641 16.8783 12.24 16.884C12.45 16.884 12.6259 16.9521 12.8302 16.9578C12.8302 16.8216 12.7054 16.7137 12.6429 16.5662C12.6202 16.5037 12.6259 16.4186 12.5862 16.3619C12.4443 16.1632 12.1492 16.2484 11.8087 16.2143C11.0199 16.1349 10.6737 15.6298 10.6964 14.7161C10.7077 14.2451 10.7758 13.513 11.2355 13.8081C11.2525 13.9727 11.3036 14.1543 11.3263 14.3472C11.3717 14.6877 11.3433 15.085 11.5874 15.2382C11.6611 15.1985 11.6384 15.0623 11.7179 15.0339C11.8144 15.0112 11.8314 15.1474 11.9052 15.0906C12.013 14.7672 12.0471 14.3813 12.1662 14.0748C12.2627 14.0237 12.3251 14.1145 12.4443 14.0918C12.257 13.3654 11.6782 13.0022 11.6271 12.168C11.6101 11.9296 11.6328 11.6742 11.6668 11.3905C11.7747 10.3917 11.996 9.24529 11.9449 8.16702C11.9336 7.90029 11.9279 7.50871 11.8541 7.27603C11.7066 6.84473 11.2298 6.61205 10.7248 6.86743C10.9291 6.5099 11.0539 6.01049 11.0199 5.47703C11.2128 5.79483 11.088 6.31694 10.9801 6.6461C11.0426 6.6461 11.0709 6.61205 11.1447 6.62907C11.0596 6.32829 11.1901 6.11264 11.366 5.98211C11.2696 5.3465 11.6952 4.99464 11.6441 4.41011C11.7179 4.29093 11.7633 4.0469 11.8825 4.04123C11.7803 4.31931 11.5306 4.97762 12.013 5.02302C11.7803 4.40443 12.3478 3.64397 12.0698 2.92891C12.2173 3.02538 12.2287 3.25239 12.4613 3.26374C12.1549 2.82676 12.1265 2.11737 11.6668 1.83929C11.2923 1.82794 11.0766 1.3342 10.7248 1.54418C10.7304 1.63498 10.9007 1.56688 10.912 1.65768C10.7361 1.69174 10.5205 1.84496 10.3218 1.80524C10.1799 1.77686 10.1289 1.65201 10.0267 1.58391C10.2935 1.23205 11.1447 1.55553 11.3944 1.1753C11.2582 1.19233 11.0936 1.13558 10.9404 1.16963ZM16.5304 1.42501C15.9402 1.45338 15.3216 1.42501 14.8108 1.46473C13.9425 1.52148 13.5112 2.14007 13.7553 3.07646C13.795 3.05376 13.8234 3.12186 13.829 3.07646C13.6985 2.84378 13.795 2.35572 13.9936 2.33302C13.9482 2.42382 13.9312 2.50327 13.9198 2.59408C13.829 3.51344 14.476 3.7291 15.0492 4.01853C14.9811 4.00718 14.9697 4.0469 14.9754 4.10933C14.913 6.07291 13.9085 7.08876 12.013 7.21928C12.03 7.28738 12.03 7.37819 12.0527 7.44061C13.8801 7.41224 15.0265 6.29424 15.1627 4.55199C15.1854 4.23986 15.14 3.99583 15.0719 3.73477C14.4817 3.98448 14.2263 3.00836 14.8506 3.03106C14.459 2.32167 15.8948 2.3387 15.4805 3.03106C16.1104 2.90053 16.0139 3.84827 15.4805 3.7518C15.577 6.41342 14.3057 7.71302 12.1492 8.12162C12.0698 8.67778 12.0471 9.34745 12.0754 9.99441C12.0925 10.3519 12.1719 10.6981 12.206 11.0329C12.2797 11.7991 12.2684 12.5085 12.6713 12.9795C12.8018 13.0306 12.9607 12.9852 13.0402 12.9228C13.1424 12.6787 13.1594 12.3836 13.1707 12.0885C13.2048 11.2656 13.2899 10.5676 13.4488 9.93766C13.4829 9.7901 13.4942 9.62553 13.5793 9.51202C13.4658 11.8558 13.9425 13.6208 14.8733 14.9204C15.14 15.119 15.3954 15.4255 15.855 15.3631C15.3783 13.2916 15.1003 11.0216 15.0378 8.53023C14.9584 8.55861 14.8733 8.61536 14.7598 8.60401C14.5555 8.58698 14.4363 8.32593 14.3341 8.34295C14.5214 10.2952 14.7371 12.3098 15.0776 14.0464C14.8506 13.6946 14.8335 13.2179 14.7427 12.7695C14.51 11.6061 14.4817 10.2214 14.2433 9.04666C14.0163 9.21692 13.602 9.05802 13.4658 8.85939C13.4885 9.27934 13.3013 9.48365 12.8926 9.4723C12.7621 10.403 12.9551 11.4132 12.9324 12.3042C12.7621 11.4586 12.6202 10.3179 12.8189 9.41555C12.5862 9.16017 12.2684 8.88776 12.3535 8.377C12.5862 8.71751 12.5919 9.3815 13.2048 9.28502C13.3126 9.15449 13.358 9.01261 13.3523 8.80264C13.3467 8.54726 13.1764 8.2408 13.3523 8.11595C13.5056 8.48483 13.5283 9.06937 14.0958 8.96721C14.232 8.78561 14.2433 8.4224 14.1866 8.13297C14.1582 7.97975 14.022 7.79247 14.1866 7.74139C14.4079 7.9911 14.4817 8.55861 14.9811 8.40538C15.1286 8.09892 14.9754 7.83787 14.8676 7.64492C14.8052 7.53141 14.6973 7.40656 14.7371 7.31008C15.0038 7.38386 15.1003 7.78112 15.5543 7.73572C15.6961 7.65059 15.628 7.41791 15.5543 7.29306C15.4294 7.07741 15.1116 6.92418 15.1854 6.75392C15.3897 6.77663 15.6337 7.02065 15.9288 6.95823C16.1502 6.58935 15.611 6.43612 15.4635 6.19776C15.628 6.14101 16.0253 6.40774 16.2069 6.18074C16.2523 5.77781 15.7529 5.82321 15.6905 5.59053C15.9061 5.54513 16.1785 5.5508 16.3034 5.40325C16.3601 5.04572 15.9572 5.15922 15.7642 5.05139C15.8721 4.83007 16.3715 4.98897 16.3034 4.68251C16.258 4.48956 15.8834 4.62576 15.821 4.47821C16.1218 4.31363 16.3488 4.56334 16.468 4.73926C16.7177 5.0968 17.0128 5.32947 17.376 5.64728C17.6427 5.87996 17.9378 6.14101 18.2443 6.22046C18.5167 6.28857 18.9991 6.28289 19.2261 6.05589C18.318 5.33515 17.3533 4.56901 16.6325 3.72342C17.4611 4.0696 19.1409 4.2285 19.2431 3.18429C18.0854 3.04241 16.9957 2.82676 16.0764 2.44085C17.2227 2.41815 18.3124 2.23654 18.3521 1.16395C17.864 1.26043 17.2227 1.39663 16.5304 1.42501ZM11.1958 1.42501C11.2752 1.61796 11.5363 1.62931 11.7122 1.72011C11.7917 1.79956 11.9903 2.02089 12.0471 1.99819C11.9846 1.60093 11.5987 1.14125 11.1958 1.42501ZM11.0142 3.35454C11.1674 3.23536 11.349 2.94593 11.2923 2.66785C11.2412 2.41247 10.8837 2.14574 10.6056 2.03792C10.1175 1.84496 9.47056 1.90171 9.38544 1.37393C9.18113 1.2207 9.11871 1.51013 9.03358 1.59526C8.64767 1.64066 8.27312 1.95847 8.46039 2.38977C8.53985 1.90739 9.33436 1.89604 9.64649 2.18547C10.0721 1.87901 10.861 2.12304 11.0142 2.53733C11.0596 2.65083 11.0936 2.91188 11.0142 3.07646C10.7702 3.57019 9.86214 3.08781 9.38544 3.31481C9.79972 3.46804 10.5999 3.67235 11.0142 3.35454ZM3.65926 2.65083C2.74557 3.00268 1.72405 3.25239 0.679834 3.47939C0.810362 4.58036 2.41074 4.18878 3.15985 3.90502C2.46182 4.82439 1.51975 5.48838 0.770636 6.35099C1.56515 6.73122 2.13266 6.22047 2.60369 5.77781C2.91582 5.48838 3.2166 5.15922 3.39821 4.88682C3.46063 4.79034 3.45496 4.72224 3.54576 4.66549C3.64791 4.59739 3.90896 4.51226 4.01112 4.66549C3.86356 4.76764 3.55143 4.68251 3.52873 4.86979C3.51738 4.96059 3.62521 5.05707 3.73304 5.09112C3.84654 5.12517 4.04517 5.04572 4.08489 5.18192C3.91464 5.3238 3.50036 5.25002 3.52873 5.51675C3.55143 5.73808 3.94869 5.69836 4.19272 5.75511C4.05084 5.91968 3.56846 6.02184 3.65359 6.31127C3.75006 6.63475 4.32325 6.21479 4.41405 6.35099C4.26082 6.59502 3.89761 6.64042 3.89761 7.03768C4.17002 7.33278 4.5162 6.84473 4.73185 6.90715C4.7205 7.0547 4.55593 7.18523 4.45377 7.33278C4.35162 7.47466 4.20975 7.64492 4.34027 7.84922C4.55025 7.90597 4.70348 7.83219 4.82266 7.73572C4.95886 7.62789 5.02696 7.42359 5.17451 7.40089C5.21991 7.57114 4.93616 7.86624 4.89643 8.16135C4.86806 8.38268 4.94751 8.53023 5.10074 8.55293C5.50934 8.59833 5.54339 8.04785 5.7477 7.83219C5.9066 7.91164 5.76472 8.1954 5.7477 8.4224C5.71365 8.85939 5.91228 9.28502 6.28683 8.96154C6.46843 8.79696 6.49114 8.39403 6.59896 8.18405C6.80327 8.30323 6.59329 8.64373 6.61599 8.92749C6.63301 9.08639 6.68976 9.19422 6.74651 9.31907C7.37078 9.50067 7.3878 8.76858 7.59778 8.41105C7.71128 8.87074 7.37645 9.19989 7.17215 9.46662C7.39915 10.2782 7.30267 11.5324 7.15512 12.3552C7.07567 11.4756 7.30267 10.1987 7.08135 9.48365C6.65571 9.59715 6.52519 9.28502 6.49113 8.94451C6.40033 8.96154 6.34358 9.10909 6.19603 9.16584C6.04848 9.22259 5.87822 9.22259 5.73067 9.12612C5.52069 10.5392 5.51502 12.2985 5.24829 13.6265C5.20856 13.8137 5.21424 14.0408 5.06101 14.1656C5.32774 12.9852 5.34477 11.6288 5.46962 10.3349C5.53204 9.68795 5.7023 9.06369 5.60014 8.38835C5.46962 8.60401 5.18019 8.82534 4.89643 8.62671C4.98156 11.1181 4.72618 13.3995 4.3573 15.4993C4.69213 15.4879 4.97021 15.3517 5.15181 15.1644C6.21306 14.0862 6.51951 11.7367 6.46843 9.6085C6.65004 10.0909 6.72381 10.7038 6.78056 11.3281C6.83732 11.941 6.86569 12.5823 7.14945 12.9965C7.57508 13.1781 7.71696 12.5993 7.76236 12.2531C7.80776 11.8615 7.83046 11.3508 7.87586 10.8457C7.95531 9.88658 7.92126 8.89911 7.78506 8.1046C5.46962 7.79814 4.26082 6.37937 4.28352 3.73477C3.75574 3.888 3.64224 2.92323 4.22677 3.04808C4.1984 2.94593 4.17569 2.83811 4.15299 2.73595C4.27785 2.2933 5.10641 2.53165 4.83968 3.04808C5.42989 2.99701 5.34476 3.92772 4.69213 3.73477C4.5162 4.78466 4.84536 5.84023 5.39584 6.47584C5.94633 7.11146 6.74651 7.44629 7.84181 7.44061C7.86451 7.37819 7.89288 7.31576 7.88153 7.21928C5.94065 7.12848 4.91913 6.11831 4.80563 4.20013C4.83401 4.10933 4.7205 4.1604 4.73185 4.08663C5.02128 3.89935 5.48097 3.80855 5.67392 3.49642C5.84985 3.21266 5.84985 2.74163 5.7477 2.40112C5.99173 2.50327 5.94065 2.92323 5.96903 3.14456C6.17333 2.64515 5.9293 2.04927 5.6569 1.79389C5.15749 1.55553 4.48783 1.54418 3.80681 1.57256C2.90447 1.61228 2.09293 1.56121 1.38355 1.40798C1.43462 2.52598 2.55829 2.57705 3.65926 2.65083ZM10.5886 1.53851C10.4864 1.53851 10.4524 1.61228 10.3672 1.62931C10.2935 1.62931 10.2935 1.55553 10.2367 1.53851C10.1913 1.77119 10.6737 1.70876 10.5886 1.53851ZM10.7361 2.7246C10.8042 2.75298 10.8893 2.75865 10.9574 2.78135C10.9347 2.50327 10.8042 2.32735 10.5659 2.26492C10.634 2.40112 10.7191 2.52598 10.7361 2.7246ZM14.9187 3.11051C14.7484 3.08781 14.6463 3.13321 14.5668 3.20131C14.4079 3.60424 14.8562 3.75747 15.1059 3.64397C15.4521 4.82439 14.9924 6.07291 14.3284 6.69717C13.7609 7.23063 12.9721 7.48034 12.0698 7.60519C12.0811 7.71302 12.1038 7.80382 12.1265 7.90029C14.3682 7.67329 15.5486 6.19776 15.367 3.67802C15.9742 3.84827 16.0139 2.92323 15.367 3.10484C15.4237 2.97998 15.5032 2.82108 15.4237 2.66218C15.0605 2.40112 14.6803 2.79838 14.9187 3.11051ZM4.71483 3.12754C5.04966 2.83243 4.5616 2.38977 4.27217 2.7019C4.20975 2.84946 4.30055 3.03673 4.3119 3.11051C3.71601 3.05943 3.92032 3.87665 4.4027 3.66667C4.38567 3.9334 4.37432 4.2058 4.4027 4.46118C4.49918 5.3692 4.76023 6.22047 5.29369 6.81068C5.83282 7.41791 6.73516 7.92299 7.81343 7.88327C7.81343 7.76977 7.81911 7.65627 7.79641 7.57114C5.56042 7.51439 4.3346 5.94239 4.61268 3.62694C5.20289 3.9561 5.37882 2.98566 4.71483 3.12754ZM8.56822 2.97998C9.19816 2.80973 10.1232 2.78135 10.8269 2.84946C10.1572 2.65083 9.08466 2.6338 8.56822 2.97998ZM10.6623 3.18429C10.7758 3.15024 10.895 3.12186 10.9007 2.97998C10.7134 2.94593 10.685 3.06511 10.6623 3.18429ZM13.551 5.4827C13.4772 5.49973 13.2842 5.47135 13.2161 5.55648C13.148 5.6416 13.2048 5.76078 13.2729 5.83456C14.039 5.78916 14.493 5.17625 14.5498 4.44416C14.5611 4.26823 14.5384 4.06393 14.4363 3.94475C14.5157 4.73926 14.1468 5.35217 13.551 5.4827ZM5.62284 5.46568C5.89525 5.63593 6.16198 5.98211 6.60464 5.85726C6.76921 5.47703 6.36061 5.58485 6.10523 5.52243C5.87822 5.47135 5.61717 5.1876 5.49232 4.93222C5.36179 4.66549 5.32774 4.40443 5.30504 4.06393C5.14046 4.58604 5.40152 5.1422 5.62284 5.46568ZM18.5677 9.18287C18.1137 8.73453 17.7222 8.15 17.3476 7.46331C17.1092 7.02633 16.7858 6.54395 16.5304 6.07291C16.3999 5.82888 16.2807 5.46 16.031 5.72106C16.3942 5.87996 16.4509 6.45314 15.9175 6.42477C15.9912 6.58367 16.1615 6.7142 16.1048 6.9412C16.6609 7.65627 17.2908 8.55293 17.9378 9.23962C18.3407 9.67093 18.6983 10.1703 19.4758 10.1079C19.385 9.88658 19.2204 9.69363 19.0842 9.495C18.0854 8.05352 17.2454 6.43044 16.3828 4.86412C16.3431 4.94924 16.258 4.98329 16.1615 5.01167C16.2977 5.10247 16.4963 5.28407 16.3658 5.5281C17.0809 6.79933 17.8527 8.11595 18.6415 9.25097C18.6415 9.23394 18.6245 9.22827 18.6245 9.21124C18.6018 9.21124 18.5791 9.19989 18.5677 9.18287ZM0.640109 10.369C1.31545 10.3236 1.70703 9.78443 2.06456 9.37015C2.52992 8.83101 3.00662 8.27485 3.34146 7.65059C3.56278 7.51439 3.66494 7.22496 3.76709 6.9639C3.82951 6.805 3.93167 6.65745 3.91464 6.5553C3.38686 6.58935 3.46631 6.02751 3.80114 5.85158C3.72736 5.82888 3.67061 5.78348 3.57981 5.77781C2.80232 7.0093 2.26886 8.57563 1.28139 9.53472C2.09293 8.32593 2.80232 7.02065 3.44928 5.64728C3.43226 5.58485 3.39253 5.54513 3.39253 5.46C3.44928 5.33515 3.54008 5.25002 3.65359 5.18192C3.54576 5.15355 3.48333 5.07977 3.39253 5.03437C2.56397 6.8958 1.59353 8.62671 0.640109 10.369ZM15.8664 8.16702C16.2296 9.42122 16.6212 10.6981 17.0695 11.8729C17.2511 12.3496 17.5235 12.7922 17.586 13.32C17.149 12.5142 16.8312 11.6175 16.5134 10.7095C16.1899 9.7901 15.9175 8.83101 15.6961 7.82084C15.5316 7.91165 15.2592 7.87192 15.1059 7.80382C15.1059 8.49618 15.3102 9.10342 15.5316 9.6766C16.065 11.0557 16.485 12.5823 17.1603 13.8081C17.5065 14.4323 17.9094 15.0452 18.7323 15.0679C18.2499 13.8478 17.5916 12.5425 17.3079 11.0727C17.2114 10.5676 17.1546 10.0455 17.0298 9.53472C16.9617 9.25097 16.8368 8.94451 16.7347 8.64373C16.5247 8.03082 16.2807 7.51439 15.9402 7.08876C15.838 7.17956 15.628 7.07173 15.5316 7.10578C15.7642 7.35549 15.7529 7.78679 15.8664 8.16702ZM3.93734 7.25901C3.93734 7.24766 3.93734 7.23631 3.92032 7.24198C3.54576 7.81517 3.2847 8.38268 3.1031 9.11477C2.86475 10.1079 2.7853 11.4245 2.49019 12.412C2.20076 13.3824 1.74108 14.3813 1.45165 15.3176C1.5992 15.3006 1.70703 15.2495 1.86025 15.2439C2.41641 14.9885 2.70584 14.4721 2.95555 13.9273C3.71034 12.2758 4.30055 10.3463 4.82833 8.51888C4.73753 8.37133 4.77158 8.08757 4.81131 7.90597C4.64673 8.00245 4.45377 8.0365 4.23812 7.96272C3.89194 9.70498 3.39253 11.3791 2.81367 12.8887C2.72854 13.1044 2.69449 13.3541 2.51857 13.5186C2.96122 12.1169 3.44928 10.6584 3.83519 9.22259C3.90329 8.96721 3.95437 8.71183 4.02247 8.46213C4.09624 8.1954 4.11894 7.9457 4.17002 7.66762C4.20407 7.49736 4.32892 7.32143 4.31757 7.24198C4.18704 7.25901 4.06787 7.29306 3.93734 7.25901ZM12.1435 14.8523C12.5862 15.522 13.2161 16.237 13.6645 16.9634C13.7609 17.1223 13.9198 17.3096 13.795 17.4061C13.568 17.4401 13.341 17.4685 13.0913 17.4799C13.0345 17.6728 12.7962 17.6785 12.6997 17.8317C12.8983 18.0757 13.0969 17.7352 13.2899 17.7012C13.4148 17.6785 13.5737 17.7352 13.7155 17.7182C13.8574 17.7012 13.9652 17.6501 14.1071 17.6274C14.1525 17.7579 14.3511 17.7409 14.5157 17.7579C14.6803 17.9963 15.1173 17.9622 15.1797 18.2971C15.4805 18.2801 15.4294 18.7114 15.6961 18.666C15.7699 18.5752 15.6167 18.3936 15.6961 18.2403C15.6451 18.1211 15.5032 18.1325 15.401 18.0757C15.3329 18.036 15.2989 17.9566 15.2365 17.9112C15.1343 17.8317 14.9811 17.7579 14.8676 17.6898C14.7484 17.6217 14.5781 17.5707 14.5725 17.4288C14.9527 17.7239 15.5372 17.3834 16.0196 17.355C16.0083 17.6047 16.3261 17.599 16.3318 17.372C16.468 17.4118 16.5361 17.5309 16.7404 17.5026C16.7858 17.6671 16.9844 17.9679 17.166 17.7636C17.1149 17.582 16.9106 17.5593 16.8539 17.3947C16.8879 17.3607 16.9049 17.3096 16.9106 17.2472C16.5134 17.355 16.3545 17.0259 16.0423 17.0259C15.6621 17.0259 15.2648 17.4799 14.8392 17.1734C14.93 17.0713 15.0265 16.9748 15.0435 16.8045C15.1173 16.7989 15.1797 16.7762 15.2308 16.7478C15.2705 16.6456 15.1911 16.6172 15.174 16.5264C15.2592 16.5037 15.3216 16.4527 15.4124 16.4356C15.4862 16.5605 15.8607 16.5378 15.855 16.3619C15.5997 16.2427 15.1343 16.1973 14.9868 16.4186C14.9016 16.5491 14.913 16.7648 14.8222 16.901C14.6803 17.111 14.459 17.1394 14.1355 17.1053C13.602 16.1803 13.0118 15.3177 12.467 14.404C12.2003 14.3926 12.1549 14.6083 12.1435 14.8523ZM7.89856 14.9431C7.79641 14.9374 7.69426 14.858 7.62048 14.8863C7.60913 14.8863 7.59778 14.8863 7.60345 14.9034C7.24025 15.346 6.71246 16.0327 6.32656 16.5321C6.17333 16.7251 6.05983 16.9407 5.91795 17.1053C5.57177 17.5253 5.35044 16.7932 5.23126 16.4924C5.01561 16.3392 4.65808 16.3278 4.39702 16.2143C4.30055 16.3278 4.09057 16.3278 4.06219 16.5094C4.14732 16.6399 4.29487 16.4924 4.39702 16.4697C4.49918 16.5945 4.7432 16.5037 4.87941 16.5264C4.93048 16.5662 4.90211 16.674 4.93616 16.7307C5.22559 16.7478 5.12911 17.1507 5.32774 17.2699C5.10641 17.3153 4.93048 17.2245 4.75455 17.1791C4.57295 17.128 4.3346 17.0259 4.18137 17.0315C3.97139 17.0429 3.81816 17.2756 3.59116 17.3266C3.51738 17.3437 3.45496 17.2983 3.36983 17.3664C3.32443 17.4231 3.41523 17.4685 3.38686 17.5707C3.19958 17.6558 3.02365 18.0247 3.46063 17.9622C3.57413 17.8828 3.58548 17.6898 3.68196 17.5934C3.86356 17.565 3.96572 17.4572 4.14732 17.4288C4.20407 17.6388 4.40837 17.5366 4.48215 17.4118C4.70348 17.5196 5.07236 17.4855 5.33341 17.5593C5.08939 18.002 4.60133 18.2063 4.26082 18.5581C4.48783 18.6943 4.30622 18.9611 4.30055 19.1313C4.58998 19.1767 4.55025 18.7454 4.6524 18.5411C4.98723 18.4844 5.16316 18.2744 5.29936 18.0247C5.51502 18.002 5.6569 17.9055 5.725 17.7296C5.95768 17.7182 6.32088 17.5877 6.46843 17.7693C6.58194 17.775 6.67274 17.7636 6.76354 17.7523C6.84299 17.8317 7.1154 18.0076 7.2289 17.826C7.2289 17.7352 7.12107 17.7636 7.06432 17.7352C7.00757 17.6558 6.96784 17.5593 6.91677 17.4742C6.73516 17.4174 6.25278 17.6161 6.19603 17.4004C6.17333 17.321 6.33791 17.1394 6.38331 17.0883C6.91677 16.43 7.58075 15.749 7.99504 15.1077C7.93829 15.0509 7.91558 15.0055 7.89856 14.9431ZM15.5486 16.1292C15.5826 16.1576 15.6167 16.1859 15.6791 16.1859C15.7075 16.1235 15.855 16.0214 15.7699 15.9646C15.7075 16.027 15.5543 16.0043 15.5486 16.1292ZM4.21542 16.2427C4.24947 16.2143 4.28352 16.1859 4.27217 16.1122C4.18137 16.0724 4.08489 16.0384 3.96004 16.0384C3.98842 16.1576 4.07922 16.22 4.21542 16.2427ZM16.973 17.4061C16.9957 17.4118 17.0014 17.4288 17.0128 17.4458C17.1433 17.4061 17.2681 17.372 17.3249 17.2585C17.2057 17.1223 16.9674 17.2075 16.973 17.4061ZM12.938 17.5196C12.9664 17.4912 13.0061 17.4742 12.9948 17.4061C12.9778 17.4004 12.9721 17.3891 12.9778 17.3664C12.7281 17.2642 12.7167 17.5082 12.938 17.5196ZM7.08702 17.5196C7.18917 17.5196 7.2516 17.4742 7.2743 17.3891C7.17782 17.3266 6.99622 17.4004 7.08702 17.5196ZM2.99527 17.5934C3.1258 17.6444 3.34146 17.5934 3.25633 17.4288C3.11445 17.3891 3.0123 17.4572 2.99527 17.5934ZM15.8096 18.4276C15.8891 18.4503 15.9799 18.4673 16.0877 18.4673C16.1104 18.2914 15.7869 18.1779 15.8096 18.4276ZM3.97707 18.944C4.07922 18.8986 4.17002 18.8419 4.27217 18.7965C4.28352 18.7284 4.23245 18.7227 4.23245 18.666C4.06219 18.6716 3.96004 18.7454 3.97707 18.944ZM15.5883 1.94711C15.6621 1.85064 15.7813 1.80524 15.8494 1.70876C15.7132 1.68039 15.5599 1.68039 15.4237 1.65201C15.3727 1.65201 15.3273 1.65201 15.2762 1.65201C15.2138 1.62931 15.3273 1.62931 15.35 1.63498C15.611 1.64633 15.9175 1.61228 16.1445 1.65201C16.0934 1.74849 15.9402 1.74849 15.9061 1.85631C16.5815 1.93009 17.3533 1.78254 17.8697 1.57823C17.9832 1.54418 17.83 1.62931 17.7789 1.65201C17.2398 1.89604 16.4226 1.96414 15.5883 1.94711ZM16.3658 3.01971C16.3318 3.01403 16.3204 3.04241 16.3658 3.03673C17.0468 3.28644 17.9208 3.62127 18.8458 3.44534C17.9094 3.47939 17.1206 3.22401 16.3658 3.01971ZM18.4032 5.83456C17.7392 5.39758 17.1603 4.78466 16.6098 4.29661C17.1036 4.89249 17.7108 5.48838 18.4032 5.83456ZM4.38567 1.75984C4.23245 1.81659 3.99977 1.79389 3.86924 1.87334C3.92599 1.95847 4.02814 1.99819 4.13029 2.03792C3.32443 2.17979 2.36534 2.04927 1.7808 1.79956C2.32561 1.93009 3.09175 2.07197 3.81816 2.02089C3.77276 1.91874 3.64224 1.89604 3.55711 1.83361C3.79546 1.78821 4.14164 1.74849 4.38567 1.75984ZM3.45496 3.20131C3.45496 3.17861 3.44928 3.15591 3.41523 3.16159C2.66612 3.42264 1.89431 3.66667 0.935214 3.71775C1.97376 3.8199 2.70584 3.45102 3.45496 3.20131ZM3.17688 4.46118C2.69449 5.0968 2.12131 5.64161 1.45732 6.08994C1.53677 5.97076 1.67298 5.89698 1.79215 5.79483C2.13266 5.5054 2.49587 5.1649 2.79097 4.81304C2.97825 4.75629 3.0123 4.54064 3.17688 4.46118Z" fill="black"/>
<path d="M12.4525 14.3867C12.9975 15.3008 13.588 16.1637 14.1216 17.0891C14.4452 17.1232 14.661 17.0948 14.8086 16.8847C14.9051 16.7485 14.8881 16.5327 14.9732 16.4022C15.1208 16.1807 15.5921 16.2262 15.8419 16.3454C15.8419 16.5214 15.4728 16.5441 15.399 16.4192C15.3025 16.4362 15.2457 16.4873 15.1606 16.51C15.1776 16.6009 15.2571 16.6349 15.2174 16.7314C15.1663 16.7598 15.1038 16.7825 15.03 16.7882C15.013 16.9585 14.9165 17.0607 14.8256 17.1572C15.2514 17.4581 15.6488 17.0096 16.0292 17.0096C16.3471 17.0096 16.5004 17.3389 16.8978 17.231C16.8922 17.2935 16.8808 17.3503 16.8411 17.3787C16.9035 17.549 17.1079 17.5717 17.1533 17.7477C16.9716 17.9577 16.7729 17.6512 16.7275 17.4865C16.5231 17.5149 16.455 17.4014 16.3188 17.3559C16.3131 17.583 15.9951 17.5887 16.0065 17.3389C15.5239 17.3673 14.9448 17.7079 14.5588 17.4127C14.5645 17.5547 14.7348 17.6001 14.854 17.6739C14.9676 17.742 15.1265 17.8158 15.223 17.8953C15.2855 17.9464 15.3196 18.0259 15.3877 18.0599C15.4899 18.1167 15.6375 18.1054 15.6829 18.2246C15.6034 18.3835 15.7567 18.5595 15.6829 18.6504C15.4161 18.6958 15.4672 18.2586 15.1663 18.2813C15.0981 17.9464 14.6667 17.9804 14.502 17.742C14.3374 17.725 14.1443 17.742 14.0933 17.6114C13.9513 17.6341 13.8491 17.6852 13.7015 17.7023C13.5596 17.7193 13.4006 17.6625 13.2757 17.6852C13.0827 17.7193 12.884 18.0599 12.6853 17.8158C12.7818 17.6625 13.0202 17.6568 13.077 17.4638C13.3268 17.4525 13.5539 17.4241 13.781 17.39C13.9059 17.2878 13.7526 17.1061 13.6504 16.9472C13.2019 16.2205 12.5717 15.5051 12.1289 14.8352C12.1516 14.6081 12.197 14.3924 12.4525 14.3867ZM15.5466 16.1297C15.5807 16.158 15.6148 16.1864 15.6772 16.1864C15.7056 16.124 15.8532 16.0218 15.7681 15.965C15.7056 16.0275 15.5523 16.0047 15.5466 16.1297ZM16.9716 17.407C16.9944 17.4127 17 17.4298 17.0114 17.4468C17.142 17.407 17.2669 17.373 17.3236 17.2594C17.2044 17.1232 16.966 17.2083 16.9716 17.407ZM12.9351 17.5206C12.9635 17.4922 13.0032 17.4752 12.9919 17.407C12.9748 17.4014 12.9691 17.39 12.9748 17.3673C12.725 17.2651 12.7137 17.5092 12.9351 17.5206ZM15.8078 18.429C15.8873 18.4517 15.9781 18.4687 16.086 18.4687C16.1087 18.2927 15.7851 18.1792 15.8078 18.429Z" fill="#F5D306"/>
<path d="M7.97862 15.0908C7.56418 15.7323 6.89994 16.4136 6.36627 17.0722C6.32085 17.129 6.16189 17.3106 6.17892 17.3844C6.23569 17.6002 6.72394 17.4015 6.89994 17.4582C6.95103 17.5434 6.99077 17.6399 7.04755 17.7194C7.10432 17.7478 7.21787 17.7251 7.21219 17.8102C7.10432 17.9919 6.83181 17.8159 6.74665 17.7364C6.65581 17.7478 6.5593 17.7591 6.45143 17.7535C6.30382 17.5775 5.94615 17.708 5.70771 17.7137C5.63958 17.8897 5.49765 17.9862 5.28191 18.0089C5.13998 18.2587 4.96966 18.4745 4.6347 18.5256C4.53251 18.7299 4.57225 19.1671 4.2827 19.116C4.29406 18.94 4.47006 18.6789 4.24296 18.5426C4.5836 18.1906 5.07185 17.9862 5.31597 17.5434C5.05482 17.4696 4.68579 17.5037 4.46438 17.3958C4.39057 17.5207 4.19187 17.6229 4.12942 17.4128C3.94774 17.4412 3.85123 17.5547 3.66388 17.5775C3.56737 17.6796 3.55601 17.867 3.44246 17.9465C3.00531 18.0089 3.18131 17.6399 3.36866 17.5547C3.39705 17.4526 3.30621 17.4128 3.35163 17.3504C3.43679 17.2822 3.49924 17.3277 3.57304 17.3106C3.80013 17.2595 3.95342 17.0268 4.16348 17.0154C4.31677 17.0097 4.56089 17.1119 4.73689 17.163C4.91856 17.2141 5.09456 17.3049 5.31029 17.2539C5.11727 17.1403 5.21378 16.7372 4.91856 16.7145C4.8845 16.6634 4.91288 16.5499 4.86179 16.5101C4.73121 16.4931 4.48141 16.5783 4.37922 16.4534C4.27703 16.4761 4.1351 16.6237 4.04426 16.4931C4.07264 16.3114 4.2827 16.3114 4.37922 16.1979C4.64037 16.3114 4.99804 16.3228 5.21378 16.4761C5.32733 16.777 5.54874 17.5037 5.90073 17.0892C6.04267 16.9246 6.15621 16.7088 6.3095 16.5158C6.69555 16.0162 7.22922 15.3292 7.58689 14.8864C7.58121 14.8694 7.59257 14.8694 7.60392 14.8694C7.67773 14.841 7.77992 14.9205 7.88211 14.9262C7.91617 15.0056 7.93888 15.0511 7.97862 15.0908ZM4.21458 16.2433C4.24864 16.2149 4.2827 16.1865 4.27135 16.1127C4.18051 16.073 4.084 16.0389 3.9591 16.0389C3.98749 16.1581 4.07832 16.2206 4.21458 16.2433ZM7.27464 17.3901C7.25761 17.4753 7.18948 17.515 7.08729 17.5207C6.99645 17.4015 7.17813 17.3277 7.27464 17.3901ZM3.24944 17.4242C3.3346 17.5888 3.12454 17.6399 2.98828 17.5888C3.01099 17.4582 3.11318 17.3901 3.24944 17.4242ZM4.23161 18.6675C4.22593 18.7243 4.2827 18.7299 4.27135 18.7981C4.16916 18.8435 4.07832 18.9003 3.97613 18.9457C3.9591 18.747 4.06129 18.6732 4.23161 18.6675Z" fill="#F5D306"/>
<path d="M15.4214 2.66782C15.5009 2.82677 15.4214 2.98573 15.3647 3.11062C16.0118 2.92896 15.9721 3.85997 15.3647 3.68398C15.5463 6.20452 14.3655 7.68051 12.1232 7.90759C12.1061 7.81108 12.0778 7.72025 12.0664 7.61239C12.969 7.4875 13.7581 7.24339 14.3258 6.70409C14.99 6.07395 15.4498 4.83071 15.1035 3.64992C14.8538 3.76346 14.411 3.61018 14.5642 3.20712C14.6437 3.139 14.7459 3.09359 14.9162 3.11629C14.6834 2.79839 15.0638 2.40101 15.4214 2.66782Z" fill="#F5D306"/>
<path d="M4.60527 3.63176C4.3271 5.94793 5.55331 7.52043 7.79 7.5772C7.81271 7.66235 7.80703 7.78156 7.80703 7.88942C6.72842 7.92916 5.8258 7.41824 5.2865 6.81649C4.75854 6.22042 4.49173 5.36889 4.39522 4.46626C4.36684 4.20513 4.37819 3.93831 4.39522 3.6715C3.91269 3.88154 3.70264 3.06407 4.30439 3.11516C4.29304 3.04704 4.20789 2.8597 4.26466 2.70643C4.55418 2.3942 5.04239 2.837 4.70745 3.13219C5.37733 2.9846 5.20134 3.95534 4.60527 3.63176Z" fill="#F5D306"/>
<path d="M9.38013 3.31709C9.85734 3.08984 10.7663 3.57274 11.0106 3.07848C11.0902 2.91373 11.0561 2.65807 11.0106 2.53877C10.8515 2.12404 10.0675 1.87975 9.64146 2.18654C9.32899 1.8968 8.53931 1.90816 8.45409 2.39106C8.26661 1.95929 8.64157 1.63546 9.02789 1.59569C9.11311 1.51048 9.1756 1.22074 9.38013 1.37413C9.46534 1.90248 10.1187 1.85135 10.6016 2.03883C10.88 2.14677 11.2379 2.41378 11.289 2.66944C11.3458 2.94781 11.164 3.23755 11.0106 3.35686C10.6016 3.67501 9.80053 3.47048 9.38013 3.31709Z" fill="#F5D306"/>
<path d="M10.8315 2.84847C10.127 2.78029 9.19526 2.8087 8.57031 2.97914C9.08731 2.63258 10.1611 2.64962 10.8315 2.84847Z" fill="#E64625"/>
<path d="M16.106 4.72144C16.0833 4.8009 15.8846 4.78955 15.8108 4.76117C15.8222 4.63631 16.0322 4.68739 16.106 4.72144ZM15.7144 5.35143C15.8335 5.34008 15.9981 5.37413 16.0833 5.3344C15.9811 5.31738 15.7654 5.19819 15.7144 5.35143ZM15.6065 5.99844C15.7427 6.02114 15.8619 6.14033 16.0152 6.08925C15.9187 5.98709 15.7371 5.97574 15.6065 5.90196C15.6065 5.93601 15.6065 5.97006 15.6065 5.99844ZM15.3454 6.6114C15.5214 6.65113 15.6292 6.75897 15.8108 6.79869C15.6973 6.66816 15.51 6.60573 15.3454 6.52059C15.3454 6.54897 15.3454 6.57735 15.3454 6.6114ZM14.9765 7.20166C15.1411 7.26409 15.2433 7.49111 15.4192 7.47976C15.2887 7.32084 15.1581 7.15625 14.9765 7.05409C14.9311 7.0995 14.9765 7.1449 14.9765 7.20166ZM14.7892 8.18353C14.6984 7.95651 14.6303 7.70111 14.4374 7.57057C14.5225 7.80894 14.6076 8.04731 14.7892 8.18353ZM13.9209 8.7227C13.9039 8.50136 13.8301 8.1892 13.6995 8.01894C13.6995 8.25731 13.8187 8.52974 13.9209 8.7227ZM12.9958 9.00081C12.9787 8.74541 12.8993 8.55244 12.8652 8.31407C12.8369 8.31407 12.8028 8.31407 12.7744 8.31407C12.8198 8.56946 12.8425 8.84757 12.9958 9.00081ZM3.99435 4.90874C3.92624 4.85198 3.70489 4.94847 3.69922 4.83496C3.79003 4.81793 3.98867 4.7782 3.99435 4.90874ZM3.73327 5.51602C3.86949 5.50467 4.03408 5.5217 4.10218 5.44224C3.99435 5.34575 3.80138 5.45359 3.73327 5.51602ZM3.82976 6.24249C4.0057 6.20276 4.2384 6.21979 4.27245 6.03817C4.13056 6.11195 3.90921 6.10628 3.82976 6.24249ZM4.06813 6.90653C4.24975 6.91788 4.47677 6.8214 4.53352 6.64545C4.35191 6.70789 4.21002 6.81005 4.06813 6.90653ZM4.4938 7.6103C4.66974 7.57624 4.91946 7.36057 4.91946 7.1449C4.74352 7.26409 4.62433 7.44571 4.4938 7.6103ZM5.14081 8.28001C5.26567 8.25731 5.2827 8.09272 5.3281 8.00191C5.37918 7.8884 5.43594 7.77489 5.47567 7.66705C5.45296 7.66705 5.44729 7.64435 5.41891 7.65003C5.31675 7.843 5.20891 8.04164 5.14081 8.28001ZM6.0489 8.79649C6.10565 8.56946 6.23619 8.31974 6.23619 8.09272C6.21916 8.09272 6.19646 8.09272 6.17943 8.09272C6.12835 8.29704 6.01484 8.6319 6.0489 8.79649ZM6.99671 9.03486C7.0932 8.84757 7.14995 8.62054 7.14428 8.33109C7.12725 8.33109 7.10455 8.33109 7.08752 8.33109C7.04212 8.54109 6.96833 8.81919 6.99671 9.03486ZM10.0104 13.2745C10.0558 13.5583 10.0899 13.9215 10.0502 14.2393C9.95935 13.9896 9.95935 13.5696 10.0104 13.2745ZM9.9934 16.4074C9.87989 15.4766 9.78908 14.5231 9.65854 13.6094C9.62449 14.3074 9.72098 14.9204 9.82314 15.6071C9.90259 16.1406 9.95367 16.7025 9.98773 17.2531C10.0502 18.2917 9.98773 19.37 10.0445 20.42C10.0502 20.5392 10.0558 20.6641 10.1183 20.7889C9.90827 18.286 10.3169 15.8682 10.4531 13.5866C10.368 14.5969 10.3453 15.6639 9.9934 16.4074ZM11.1626 4.76117C11.2136 4.76117 11.1455 5.03928 11.2193 5.07333C11.2534 5.079 11.2761 4.98819 11.2931 5.0336C11.2761 5.13008 11.2307 5.19251 11.2193 5.29467C11.0604 5.20387 11.1569 4.94279 11.1626 4.76117ZM10.7369 6.27654C10.7482 6.1233 10.8618 5.98142 10.8504 5.8679C10.7993 5.89628 10.7993 5.97574 10.7369 5.99844C10.6858 5.93601 10.7539 5.76007 10.6972 5.70331C10.6347 5.8452 10.5496 6.20276 10.7369 6.27654ZM9.81178 7.72381C9.82881 7.6103 9.89124 7.54787 9.86854 7.38895C9.77205 7.36625 9.89124 7.55922 9.79476 7.53652C9.58476 7.36057 9.74935 6.78734 9.68125 6.55465C9.65854 6.93491 9.51665 7.53084 9.81178 7.72381ZM9.51098 7.22436C9.49963 7.0995 9.37477 7.13355 9.30666 7.0768C9.18747 6.96896 9.21585 6.81572 9.17612 6.6114C9.11937 6.91788 9.1818 7.24139 9.51098 7.22436ZM10.3112 7.55354C10.3169 7.53652 10.3283 7.53084 10.351 7.53652C10.368 7.46841 10.385 7.3776 10.351 7.31517C10.2715 7.28679 10.3453 7.41165 10.2942 7.40598C10.1296 7.31517 10.1353 7.05977 10.0729 6.8668C10.0899 7.15625 10.0558 7.50246 10.3112 7.55354ZM9.91962 9.38674C10.2204 9.35269 10.2545 8.72838 10.2545 8.38785C10.1693 8.60919 10.1807 9.31296 9.88557 9.29593C9.60746 9.27891 9.60746 8.6319 9.53368 8.38785C9.55638 8.77946 9.56774 9.43215 9.91962 9.38674ZM10.5496 9.88619C10.595 10.2494 10.4474 10.7886 10.6064 11.1064C10.8901 11.1575 11.015 10.8056 11.1058 10.607C11.2136 10.3743 11.2931 10.1473 11.3272 9.95997C11.3442 10.4651 11.1001 10.8681 10.8618 11.1802C10.6518 11.2994 10.5099 11.1405 10.4361 11.0156C10.2772 11.1972 10.2318 11.5264 9.95367 11.5321C9.64152 11.5435 9.57341 11.1348 9.45422 10.8681C9.32369 11.0043 9.38612 11.2483 9.14207 11.2597C8.75613 11.271 8.61424 10.3856 8.51208 10.0735C8.61424 10.2551 8.66532 10.4537 8.77316 10.6864C8.84127 10.8397 8.9718 11.1689 9.14207 11.1689C9.4599 11.1632 9.35206 10.2608 9.34639 9.94862C9.44855 10.5219 9.55071 11.1008 9.90259 11.4299C10.4361 11.2313 10.4191 10.4821 10.5496 9.88619ZM10.4361 11.6116C10.5439 11.8613 10.2658 12.3834 10.5666 12.5196C10.9185 12.4175 10.9242 11.9634 11.0661 11.6513C11.0718 12.1053 10.8618 12.7864 10.3453 12.5934C10.2772 12.7069 10.2147 12.8261 10.1239 12.9056C10.0048 12.9283 9.95367 12.9113 9.82881 12.9056C9.738 12.8034 9.66422 12.6842 9.60746 12.5537C9.25558 12.9737 8.9491 12.1848 8.9037 11.7932C9.03423 12.0372 9.07396 12.5878 9.38612 12.5537C9.69827 12.514 9.45422 11.9634 9.49963 11.6456C9.59044 11.9861 9.61881 12.8204 10.0388 12.775C10.3737 12.741 10.3226 11.8953 10.4361 11.6116ZM10.402 6.35033C10.385 6.67951 10.4134 7.11085 10.6404 7.25841C10.7426 7.29814 10.7312 7.15625 10.788 7.20166C10.8334 7.26409 10.771 7.3322 10.7312 7.36625C10.3793 7.28679 10.3566 6.77599 10.402 6.35033ZM8.55181 8.14947C8.6483 8.43893 8.7164 8.89865 8.84694 9.14837C8.87532 9.20513 8.96613 9.34134 9.05126 9.33566C9.24423 9.31296 9.30098 8.66595 9.31234 8.42758C9.31801 8.35379 9.31234 8.26299 9.31234 8.1892C9.44287 8.59784 9.42585 9.26188 9.68125 9.53998C9.78341 9.64782 9.89692 9.67052 10.0331 9.57971C10.3453 9.35837 10.4247 8.71703 10.4758 8.21191C10.5326 8.46163 10.4361 9.12567 10.6631 9.32431C11.0434 9.20513 11.0604 8.7227 11.1285 8.28569C11.2136 8.51271 11.1342 8.89865 11.2931 9.04621C11.5939 8.89865 11.6393 8.49001 11.7188 8.1211C11.7585 8.31974 11.6109 9.22783 11.3101 9.17675C11.1853 9.15405 11.2193 8.9554 11.1058 8.88162C11.0547 9.26188 10.6291 9.77836 10.4418 9.17675C10.2374 9.38674 10.2375 9.80106 9.79476 9.76701C9.55071 9.59674 9.47693 9.25621 9.32936 8.98945C9.2499 9.13134 9.2045 9.29594 9.14207 9.45485C8.81856 9.52863 8.76748 9.19378 8.67667 8.97243C8.56884 9.00081 8.55749 9.11999 8.47235 9.17675C8.12615 9.03486 8.15452 8.52406 8.12047 8.06434C8.2056 8.45028 8.19425 8.92702 8.48938 9.10297C8.67667 8.91 8.55181 8.43325 8.55181 8.14947ZM9.56774 10.4254C9.7153 10.6297 9.72665 10.9702 9.91962 11.1291C10.1693 11.0327 10.1807 10.6978 10.2715 10.4424C10.2715 10.7546 10.2147 11.254 9.84584 11.2029C9.70962 10.9872 9.63017 10.7148 9.56774 10.4254ZM10.3112 11.7591C10.2999 11.6683 10.368 11.7761 10.3112 11.7761C10.2829 12.077 10.2261 12.5083 9.99908 12.5367C9.738 12.5707 9.7153 12.0883 9.64719 11.8329C9.7607 12.0259 9.77773 12.321 9.98205 12.4232C10.158 12.2756 10.2091 11.9918 10.3112 11.7591Z" fill="black"/>
<path d="M10.2355 1.53711C10.2927 1.55428 10.2927 1.6287 10.3671 1.6287C10.453 1.6058 10.4873 1.53711 10.5904 1.53711C10.6762 1.70884 10.1897 1.7718 10.2355 1.53711Z" fill="white"/>
</g>
<defs>
<clipPath id="clip0_634_21281">
<rect width="20.0955" height="24" fill="white"/>
</clipPath>
</defs>
</svg>
