<svg width="17" height="24" viewBox="0 0 17 24" fill="none" xmlns="http://www.w3.org/2000/svg">
<g clip-path="url(#clip0_634_21299)">
<path d="M8.81479 0.86151C8.81479 0.86151 9.14592 0.742605 9.43125 0.874929C9.51203 1.13138 9.43587 1.49517 9.43587 1.49517C9.43587 1.49517 9.78805 1.45554 9.9409 1.58729C10.0226 1.91687 9.84065 2.20861 9.84065 2.20861C9.84065 2.20861 10.1129 2.26058 10.225 2.43989C10.1941 2.8301 9.96851 3.02269 9.96851 3.02269C9.96851 3.02269 10.1813 3.26591 10.1879 3.49869C10.0497 3.75433 9.80054 3.90124 9.47398 3.86609C9.47398 3.97895 9.46062 4.11283 9.35409 4.23288C9.2542 4.33142 9.10767 4.38787 8.94775 4.34546C8.8944 4.8111 9.27409 5.18488 9.7805 5.25532C10.247 5.29761 10.7933 5.08617 10.9333 4.6135C10.7733 4.64176 10.6067 4.54306 10.5535 4.38787C10.4868 4.16212 10.64 3.91535 10.64 3.91535C10.6411 3.92058 10.5016 3.81605 10.4005 3.52089C10.4447 3.21223 10.7409 2.97878 10.7409 2.97878C10.7409 2.97878 10.6004 2.61442 10.6535 2.41009C10.8228 2.12889 11.095 2.12889 11.095 2.12889C11.095 2.12889 11.1555 1.63707 11.2887 1.52422C11.522 1.43963 11.7082 1.49692 11.7082 1.49692C11.7082 1.49692 11.7436 1.02941 11.967 0.863792C12.1928 0.865784 12.3857 1.00783 12.3857 1.00783C12.3857 1.00783 12.6469 0.663983 12.8706 0.686619C13.0599 0.815265 13.0687 1.24694 13.0687 1.24694C13.0687 1.24694 13.3083 1.24563 13.492 1.37692C13.5752 1.64225 13.3287 2.04107 13.3287 2.04107C13.3287 2.04107 13.513 2.10435 13.6518 2.31002C13.6931 2.47964 13.4526 2.91292 13.4526 2.91292C13.4526 2.91292 13.6726 3.07306 13.6441 3.40006C13.5668 3.59654 13.2387 3.80843 13.2387 3.80843C13.2387 3.80843 13.3409 4.1715 13.195 4.44706C12.9395 4.62618 12.7652 4.62864 12.754 4.63337C12.754 4.63337 12.6533 5.00338 12.2859 4.93795C12.2059 5.09313 12.1393 5.62894 12.579 5.74168C13.1623 5.80082 13.3453 5.22002 13.3453 5.22002C13.3453 5.22002 13.2153 4.88793 13.2824 4.50086C13.4541 4.3251 13.6272 4.30671 13.6272 4.30671C13.6272 4.30671 13.5986 3.98206 13.7072 3.764C13.7805 3.70028 14.0624 3.70486 14.0624 3.70486C14.0624 3.70486 14.1232 3.36535 14.2915 3.23931C14.527 3.24732 14.6856 3.34732 14.6856 3.34732C14.6856 3.34732 14.8447 3.10541 15.1435 2.98355C15.3736 3.08669 15.5439 3.24531 15.5439 3.24531C15.5439 3.24531 15.9438 3.12553 16.1371 3.16783C16.3769 3.19617 16.5234 3.37946 16.5635 3.57679C16.2969 3.54161 16.0971 3.64735 15.9568 3.82372C15.8303 3.97887 15.7636 4.22576 15.577 4.39494C15.3372 4.66287 15.2772 4.65587 15.0373 4.75446C15.0108 4.90265 14.9641 5.09309 14.8307 5.21998C14.7042 5.34683 14.4777 5.41027 14.2777 5.42458C14.0712 5.7699 13.8979 6.09458 13.7248 6.4822C13.7248 6.48936 12.972 8.37917 12.972 8.37229C11.666 7.67418 9.811 7.30751 8.35595 7.32154C6.9009 7.30751 5.04587 7.67418 3.73993 8.37229C3.73993 8.37917 2.98714 6.48936 2.98714 6.4822C2.81396 6.09458 2.64072 5.7699 2.43423 5.42458C2.23417 5.41027 2.00771 5.34683 1.88115 5.21998C1.74783 5.09309 1.70108 4.90265 1.67462 4.75446C1.43467 4.65587 1.3747 4.66287 1.13486 4.39494C0.94833 4.22576 0.881548 3.97887 0.755053 3.82372C0.61481 3.64735 0.414997 3.54161 0.148438 3.57679C0.188471 3.37946 0.335036 3.19617 0.574777 3.16783C0.768089 3.12553 1.16796 3.24531 1.16796 3.24531C1.16796 3.24531 1.3383 3.08669 1.56835 2.98355C1.86717 3.10541 2.02628 3.34732 2.02628 3.34732C2.02628 3.34732 2.18494 3.24732 2.42037 3.23931C2.58874 3.36535 2.64953 3.70486 2.64953 3.70486C2.64953 3.70486 2.93138 3.70028 3.00473 3.764C3.1133 3.98206 3.08474 4.30671 3.08474 4.30671C3.08474 4.30671 3.25782 4.3251 3.42945 4.50086C3.4966 4.88793 3.36662 5.22002 3.36662 5.22002C3.36662 5.22002 3.54962 5.80082 4.13287 5.74168C4.57257 5.62894 4.50604 5.09313 4.42604 4.93795C4.05858 5.00338 3.95786 4.63337 3.95786 4.63337C3.94665 4.62864 3.7724 4.62618 3.51693 4.44706C3.37102 4.1715 3.47315 3.80843 3.47315 3.80843C3.47315 3.80843 3.14512 3.59654 3.06784 3.40006C3.03926 3.07306 3.25928 2.91292 3.25928 2.91292C3.25928 2.91292 3.01884 2.47964 3.0601 2.31002C3.19893 2.10435 3.38324 2.04107 3.38324 2.04107C3.38324 2.04107 3.13674 1.64225 3.21985 1.37692C3.40362 1.24563 3.6432 1.24694 3.6432 1.24694C3.6432 1.24694 3.652 0.815265 3.84126 0.686619C4.06501 0.663983 4.32615 1.00783 4.32615 1.00783C4.32615 1.00783 4.51909 0.865784 4.74493 0.863792C4.96826 1.02941 5.00365 1.49692 5.00365 1.49692C5.00365 1.49692 5.18991 1.43963 5.42319 1.52422C5.55636 1.63707 5.61694 2.12889 5.61694 2.12889C5.61694 2.12889 5.88906 2.12889 6.05838 2.41009C6.11152 2.61442 5.97098 2.97878 5.97098 2.97878C5.97098 2.97878 6.26722 3.21223 6.3114 3.52089C6.21025 3.81605 6.07082 3.92058 6.07186 3.91535C6.07186 3.91535 6.22507 4.16212 6.15839 4.38787C6.10522 4.54306 5.93858 4.64176 5.77859 4.6135C5.91855 5.08617 6.46492 5.29761 6.9314 5.25532C7.4378 5.18488 7.8175 4.8111 7.76415 4.34546C7.60422 4.38787 7.45769 4.33142 7.35781 4.23288C7.25127 4.11283 7.23792 3.97895 7.23792 3.86609C6.91136 3.90124 6.6622 3.75433 6.52396 3.49869C6.53064 3.26591 6.74338 3.02269 6.74338 3.02269C6.74338 3.02269 6.51778 2.8301 6.48692 2.43989C6.59901 2.26058 6.87124 2.20861 6.87124 2.20861C6.87124 2.20861 6.68934 1.91687 6.771 1.58729C6.92385 1.45554 7.27603 1.49517 7.27603 1.49517C7.27603 1.49517 7.19987 1.13138 7.28065 0.874929C7.56597 0.742605 7.8971 0.86151 7.8971 0.86151C7.8971 0.86151 7.87278 0.313993 8.35595 0.0507812C8.83912 0.313993 8.81479 0.86151 8.81479 0.86151Z" fill="#FCDD09" stroke="black" stroke-width="0.0710582" stroke-miterlimit="2.4142"/>
<path d="M3.3855 8.74776C3.27236 8.7969 3.15883 8.72646 3.11886 8.62776C3.0789 8.52186 3.10565 8.39497 3.2255 8.33856C4.69821 7.64037 6.69379 7.23828 8.35542 7.23828C10.0171 7.23828 12.0126 7.64037 13.4853 8.33856C13.6052 8.39497 13.6319 8.52186 13.592 8.62776C13.552 8.72646 13.4385 8.7969 13.3253 8.74776C11.8663 8.07064 10.1033 7.68259 8.35542 7.68259C6.60756 7.68259 4.84456 8.07064 3.3855 8.74776Z" fill="#FCDD09" stroke="black" stroke-width="0.0710582" stroke-miterlimit="2.4142"/>
<path d="M4.55464 2.69835C4.5295 2.70082 4.50594 2.7067 4.48262 2.71816C4.27621 2.80987 4.25536 3.12769 4.36197 3.4168C4.48845 3.69203 4.70946 3.86185 4.90936 3.78413C5.09609 3.67814 5.12271 3.38905 5.0228 3.10709C4.94092 2.87226 4.73065 2.68109 4.55464 2.69835ZM12.1119 2.69835C11.9448 2.70919 11.7594 2.88903 11.6833 3.10709C11.5834 3.38905 11.61 3.67814 11.7968 3.78413C11.9967 3.86185 12.2159 3.69203 12.3423 3.4168C12.449 3.12769 12.4299 2.80987 12.2235 2.71816C12.1885 2.70097 12.1504 2.69585 12.1119 2.69835Z" fill="#078930" stroke="black" stroke-width="0.0599034" stroke-miterlimit="2.4142"/>
<path d="M8.35622 2.19922C8.08746 2.22021 7.96136 2.53822 7.95472 2.82037C7.96139 3.09515 8.14075 3.39117 8.35622 3.39832C8.57168 3.39117 8.75284 3.09515 8.75952 2.82037C8.75287 2.53822 8.62497 2.22021 8.35622 2.19922ZM2.03303 4.59022C1.91308 4.58936 1.78887 4.62762 1.68555 4.69464C1.69883 4.84268 1.74603 5.06158 1.8926 5.21677C2.04588 5.35062 2.27225 5.38642 2.42553 5.40042C2.53207 5.30183 2.57209 4.94205 2.35892 4.72345C2.26897 4.63184 2.15299 4.59108 2.03303 4.59022ZM14.6812 4.59022C14.5612 4.59108 14.4435 4.63184 14.3535 4.72345C14.1403 4.94205 14.1804 5.30183 14.2869 5.40042C14.4402 5.38642 14.6684 5.35062 14.8216 5.21677C14.9682 5.06158 15.0136 4.84268 15.0269 4.69464C14.9236 4.62762 14.8012 4.58936 14.6812 4.59022Z" fill="#DA121A" stroke="black" stroke-width="0.0599034" stroke-miterlimit="2.4142"/>
<path d="M8.32079 3.86921L8.3586 3.91423L8.39462 3.86921L8.60623 3.52344L8.3586 3.75215L8.10828 3.52344L8.32079 3.86921ZM4.96032 4.27801L5.01255 4.31943L5.03596 4.2528L5.1089 3.8611L4.96392 4.15015L4.67578 3.98627L4.96032 4.27801ZM11.7497 4.15015L11.6047 3.8611L11.6794 4.2528L11.7011 4.31943L11.7551 4.27801L12.0387 3.98627L11.7497 4.15015Z" fill="black"/>
<path d="M4.84766 5.50481L5.67524 5.30628C5.42785 5.12431 5.07299 4.70703 5.07299 4.70703C5.07299 4.70703 4.9673 5.21953 4.84766 5.50481Z" stroke="black" stroke-width="0.0599034" stroke-miterlimit="2.4142"/>
<path d="M8.35796 5.89648L7.69907 6.55898L8.35796 7.22867L9.01686 6.55898L8.35796 5.89648ZM5.72059 6.14852L5.19492 6.94603L5.92042 7.49511L6.44789 6.6922L5.72059 6.14852ZM10.9953 6.14852L10.2698 6.6922L10.7955 7.49511L11.5228 6.94603L10.9953 6.14852ZM3.16243 6.90643L2.86719 7.78855L3.6341 8.1126L4.03915 7.28088L3.16243 6.90643ZM13.5553 6.90643L12.6768 7.28088L13.0818 8.1126L13.8487 7.78855L13.5553 6.90643Z" fill="#078930" stroke="black" stroke-width="0.0599034" stroke-miterlimit="2.4142"/>
<path d="M7.03184 6.32422C6.86995 6.32422 6.74014 6.4644 6.74014 6.63573C6.74014 6.80706 6.86995 6.94543 7.03184 6.94543C7.19378 6.94543 7.32535 6.80706 7.32535 6.63573C7.32535 6.4644 7.19378 6.32422 7.03184 6.32422ZM9.67877 6.32422C9.51683 6.32422 9.38526 6.4644 9.38526 6.63573C9.38526 6.80706 9.51683 6.94543 9.67877 6.94543C9.84066 6.94543 9.97227 6.80706 9.97227 6.63573C9.97227 6.4644 9.84066 6.32422 9.67877 6.32422ZM4.56499 6.81579C4.40309 6.81579 4.27148 6.95413 4.27148 7.1255C4.27148 7.29687 4.40306 7.43521 4.56499 7.43521C4.72695 7.43521 4.85849 7.29687 4.85849 7.1255C4.85849 6.95413 4.72695 6.81579 4.56499 6.81579ZM12.1456 6.81579C11.9837 6.81579 11.8521 6.95413 11.8521 7.1255C11.8521 7.29687 11.9837 7.43521 12.1456 7.43521C12.3076 7.43521 12.4391 7.29687 12.4391 7.1255C12.4391 6.95413 12.3075 6.81579 12.1456 6.81579Z" fill="#DA121A" stroke="black" stroke-width="0.0599034" stroke-miterlimit="2.4142"/>
<path d="M14.0018 6.57274C14.1151 6.61503 14.1485 6.74906 14.1019 6.85479C14.0753 6.94653 13.9753 7.00997 13.8753 6.97455C12.0032 6.23444 10.1706 5.89568 8.35605 5.89568C6.54154 5.89568 4.70896 6.23444 2.83684 6.97455C2.73685 7.00997 2.63679 6.94653 2.61019 6.85479C2.56362 6.74906 2.59701 6.61503 2.71028 6.57274C4.58233 5.8041 6.44185 5.4375 8.35605 5.4375C10.2703 5.4375 12.1298 5.8041 14.0018 6.57274Z" fill="#FCDD09" stroke="black" stroke-width="0.0710582" stroke-miterlimit="2.4142"/>
<path d="M11.8647 5.50481L11.0371 5.30628C11.2845 5.12431 11.6394 4.70703 11.6394 4.70703C11.6394 4.70703 11.7451 5.21953 11.8647 5.50481V5.50481Z" stroke="black" stroke-width="0.0599034" stroke-miterlimit="2.4142"/>
<path d="M8.83562 5.03822C8.62878 4.80011 8.35726 4.31836 8.35726 4.31836C8.35726 4.31836 8.08575 4.80011 7.87891 5.03822H8.83562Z" stroke="black" stroke-width="0.0599034" stroke-miterlimit="2.4142"/>
<path d="M5.89139 4.22106C5.79808 4.12248 5.63163 4.16477 5.61156 4.33394C5.59157 4.53852 5.87142 4.70769 6.0714 4.51037C6.28451 4.27761 6.12468 3.98849 5.99137 3.89675C5.85146 3.81932 5.67156 3.78398 5.4984 3.939C5.33849 4.11533 5.30514 4.45393 5.54496 4.79239C5.81818 5.15898 6.2713 5.31404 6.89079 5.27187C7.25061 5.23657 7.47711 5.06029 7.68362 4.83468C7.8701 4.60891 8.05004 4.21417 8.01019 3.939C7.9568 3.6077 7.63699 3.50197 7.41709 3.64296C7.21061 3.79102 7.23047 4.08707 7.37055 4.23532C7.47708 4.33394 7.6637 4.37635 7.77015 4.2705C7.89699 4.12959 7.85028 3.85446 7.59028 3.92501M12.3676 4.52862C12.2076 4.47206 12.0743 4.81067 12.2943 4.90925C12.4808 4.97984 12.6407 4.87411 12.7073 4.64838C12.7539 4.47206 12.6474 4.2112 12.3743 4.2112C12.1343 4.21831 11.9612 4.44381 11.9612 4.76842C11.9612 5.02213 12.0278 5.18446 12.181 5.43122C12.2809 5.56524 12.3275 5.62169 12.5741 5.75568C13.0138 5.94584 13.5867 5.60742 13.7 5.11391C13.5867 5.21264 13.4729 5.24082 13.3464 5.21964L12.3676 4.52862ZM10.8125 4.22106C10.9058 4.12248 11.0723 4.16477 11.0923 4.33394C11.1123 4.53852 10.8325 4.70769 10.6325 4.51037C10.4194 4.27761 10.5792 3.98849 10.7125 3.89675C10.8525 3.81932 11.0324 3.78398 11.2055 3.939C11.3654 4.11533 11.3988 4.45393 11.1589 4.79239C10.8857 5.15898 10.4326 5.31404 9.81312 5.27187C9.45331 5.23657 9.2268 5.06029 9.02029 4.83468C8.83381 4.60891 8.65387 4.21417 8.69372 3.939C8.74711 3.6077 9.06693 3.50197 9.28683 3.64296C9.4933 3.79102 9.47345 4.08707 9.33336 4.23532C9.22683 4.33394 9.04022 4.37635 8.93376 4.2705C8.80692 4.12959 8.85363 3.85446 9.11363 3.92501L10.8125 4.22106ZM4.33635 4.52862C4.49636 4.47206 4.62959 4.81067 4.40962 4.90925C4.22315 4.97984 4.06317 4.87411 3.99657 4.64838C3.94997 4.47206 4.05656 4.2112 4.32963 4.2112C4.56957 4.21831 4.74276 4.44381 4.74276 4.76842C4.74276 5.02213 4.67609 5.18446 4.52289 5.43122C4.42301 5.56524 4.37638 5.62169 4.1298 5.75568C3.69014 5.94584 3.11725 5.60742 3.00391 5.11391C3.11721 5.21264 3.24194 5.24446 3.36846 5.22328L4.33635 4.52862Z" stroke="black" stroke-width="0.0599034" stroke-miterlimit="2.4142" stroke-linecap="round" stroke-linejoin="round"/>
<path d="M7.96195 2.91366L7.43727 3.0011M15.1939 3.97812L14.9608 4.64095L15.1939 3.97812ZM14.8629 3.90973L14.723 4.60098L14.8629 3.90973ZM14.4807 4.22199L14.5208 4.6169L14.4807 4.22199ZM14.1937 4.45074L14.367 4.71162L14.1937 4.45074ZM14.0208 4.82482L14.2606 4.88111L14.0208 4.82482ZM13.8272 5.18556L14.2005 5.11508L13.8272 5.18556ZM11.3548 2.23461L11.7213 2.9963L11.3548 2.23461ZM11.2183 2.82194L11.6646 3.18168L11.2183 2.82194ZM11.6332 3.29623L11.0803 3.31022L11.6332 3.29623ZM11.6225 3.51068L11.1294 3.68012L11.6225 3.51068ZM12.1805 3.67081L12.4871 3.99517L12.1805 3.67081ZM12.704 3.71229L12.331 3.45137L12.704 3.71229ZM12.7725 3.37339L12.3793 3.3311L12.7725 3.37339ZM12.9561 3.02761L12.4031 3.17564L12.9561 3.02761ZM12.4071 2.97596L13.0068 2.47531L12.4071 2.97596ZM12.3269 2.77961L12.8866 2.02523L12.3269 2.77961ZM12.203 2.70426L12.5562 1.48417L12.203 2.70426ZM12.1242 1.76044L12.0375 2.72633L12.1242 1.76044ZM11.7954 2.03853L11.8687 2.81421L11.7954 2.03853ZM8.9255 3.34483L8.68885 3.1522L8.9255 3.34483ZM9.34492 3.25865L8.72293 3.0217L9.34492 3.25865ZM8.75593 2.80979L9.51137 2.69471L8.75593 2.80979ZM8.68732 2.44447L9.30341 2.09645L8.68732 2.44447ZM8.61497 2.30669L9.0653 1.83457L8.61497 2.30669ZM9.00858 1.31206L8.5283 2.2401L9.00858 1.31206ZM8.41911 2.19866L8.55799 1.63284L8.41911 2.19866ZM8.73803 2.62046L9.22669 2.49186L8.73803 2.62046ZM8.75346 2.91366L9.27813 3.0011L8.75346 2.91366ZM1.52148 3.97812L1.75461 4.64095L1.52148 3.97812ZM1.85247 3.90973L1.99239 4.60098L1.85247 3.90973ZM2.23468 4.22199L2.19465 4.6169L2.23468 4.22199ZM2.52166 4.45074L2.34838 4.71162L2.52166 4.45074ZM2.69458 4.82482L2.45481 4.88111L2.69458 4.82482ZM2.8882 5.18556L2.51487 5.11508L2.8882 5.18556ZM5.36059 2.23461L4.99408 2.9963L5.36059 2.23461ZM5.4971 2.82194L5.05077 3.18168L5.4971 2.82194ZM5.08218 3.29623L5.6351 3.31022L5.08218 3.29623ZM5.09287 3.51068L5.58601 3.68012L5.09287 3.51068ZM4.53486 3.67081L4.22835 3.99517L4.53486 3.67081ZM4.01139 3.71229L4.38443 3.45137L4.01139 3.71229ZM3.9429 3.37339L4.33609 3.3311L3.9429 3.37339ZM3.75929 3.02761L4.31232 3.17564L3.75929 3.02761ZM4.30827 2.97596L3.70864 2.47531L4.30827 2.97596ZM4.38855 2.77961L3.82884 2.02523L4.38855 2.77961ZM4.51238 2.70426L4.15919 1.48417L4.51238 2.70426ZM4.5912 1.76044L4.67787 2.72633L4.5912 1.76044ZM4.92002 2.03853L4.84674 2.81421L4.92002 2.03853ZM8.35537 0.957031V2.20948V0.957031ZM7.7899 3.34483L8.02656 3.1522L7.7899 3.34483ZM7.37049 3.25865L7.99247 3.0217L7.37049 3.25865ZM7.95947 2.80979L7.20403 2.69471L7.95947 2.80979ZM8.02808 2.44447L7.41199 2.09645L8.02808 2.44447ZM8.10044 2.30669L7.6501 1.83457L8.10044 2.30669ZM7.70683 1.31206L8.1871 2.2401L7.70683 1.31206ZM8.2963 2.19866L8.15741 1.63284L8.2963 2.19866ZM7.97738 2.62046L7.48871 2.49186L7.97738 2.62046Z" stroke="black" stroke-width="0.0479227" stroke-miterlimit="2.4142" stroke-linecap="round"/>
<path d="M2.16602 8.82812V17.6973C2.16602 21.0468 4.91133 23.9311 8.3603 23.9311C11.8091 23.9311 14.5445 21.0468 14.5445 17.6973V8.82812H2.16602Z" fill="#DA121A" stroke="black" stroke-width="0.098696"/>
<path d="M2.51562 9.1543V17.5935C2.51562 20.7807 5.10341 23.5251 8.3544 23.5251C11.6054 23.5251 14.1837 20.7809 14.1837 17.5935V9.1543H2.51562Z" fill="#DA121A" stroke="black" stroke-width="0.0822428"/>
<path d="M6.59478 15.1401C6.86695 14.8551 7.15886 14.5786 7.43631 14.301C7.27555 14.1169 6.90784 13.7772 6.90784 13.7772L6.63097 14.0457L6.92342 14.3607L6.69011 14.5943L6.16554 14.0895L6.95176 13.3243L7.93618 14.2866C7.93618 14.2866 7.20224 15.0111 6.84667 15.38L6.59478 15.1401ZM5.25985 13.8287C6.05554 13.0229 6.88015 12.2294 7.69131 11.4413C7.35833 11.0907 6.64113 10.4117 6.64113 10.4117L5.87815 11.1631L6.41259 11.6806L6.67044 11.4306L6.37539 11.1093L6.57725 10.9087L7.15488 11.4644L6.44194 12.1613L5.38912 11.1377L6.59222 9.9574L6.60678 9.95508L9.47814 12.7726L8.27487 13.9595L7.2878 12.9926L7.99937 12.2955L8.52321 12.8027L8.31474 13.0073L7.9848 12.7196L7.72807 12.9742L8.26023 13.494C8.26023 13.494 8.77763 12.9911 9.02739 12.7424C8.68957 12.3908 7.97501 11.716 7.97501 11.716L5.53372 14.0948L5.25985 13.8287ZM3.94531 12.5346L5.05926 11.4689L6.10669 12.4934L5.32051 13.2583L4.74653 12.7019L4.98161 12.4687L5.31585 12.7574L5.59174 12.4943L5.04888 11.9647L4.204 12.7874" fill="#F3F2F2"/>
<path d="M3.94531 12.5346L5.05926 11.4689L6.10669 12.4934L5.32051 13.2583L4.74653 12.7019L4.98161 12.4687L5.31585 12.7574L5.59174 12.4943L5.04888 11.9647L4.204 12.7874M6.59478 15.1401C6.86695 14.8551 7.15886 14.5786 7.43631 14.301C7.27555 14.1169 6.90784 13.7772 6.90784 13.7772L6.63097 14.0457L6.92342 14.3607L6.69011 14.5943L6.16554 14.0895L6.95176 13.3243L7.93618 14.2866C7.93618 14.2866 7.20224 15.0111 6.84667 15.38L6.59478 15.1401ZM5.25985 13.8287C6.05554 13.0229 6.88015 12.2294 7.69131 11.4413C7.35833 11.0907 6.64113 10.4117 6.64113 10.4117L5.87815 11.1631L6.41259 11.6806L6.67044 11.4306L6.37539 11.1093L6.57725 10.9087L7.15488 11.4644L6.44194 12.1613L5.38912 11.1377L6.59222 9.9574L6.60678 9.95508L9.47814 12.7726L8.27487 13.9595L7.2878 12.9926L7.99937 12.2955L8.52321 12.8027L8.31474 13.0073L7.9848 12.7196L7.72807 12.9742L8.26023 13.494C8.26023 13.494 8.77763 12.9911 9.02739 12.7424C8.68957 12.3908 7.97501 11.716 7.97501 11.716L5.53372 14.0948L5.25985 13.8287Z" stroke="black" stroke-width="0.0542257"/>
<path d="M11.815 20.5837C11.7962 20.5714 11.8043 20.5828 11.7949 20.5749C11.9373 20.3609 11.743 20.0888 11.4915 20.1469C11.5207 20.0199 11.3723 19.9473 11.2688 20.0001L11.2319 20.0303C10.8814 19.5384 10.9957 18.4535 11.3258 17.9228L11.3455 17.9303C11.4473 17.9921 11.5738 17.9048 11.5591 17.79C11.8279 17.8816 12.0235 17.5824 11.868 17.3623L11.864 17.3496C12.0681 17.2467 12.1444 17.2365 12.2807 17.1371C12.5696 16.9265 12.5647 16.6089 12.3524 16.393C12.0561 16.0918 11.5486 16.2702 11.4258 16.7019C11.4205 16.72 11.4129 16.7853 11.3796 16.7939L11.3294 16.7716C11.1262 16.6629 10.8878 16.8428 10.9211 17.0645C10.8047 17.0282 10.7142 17.1528 10.7532 17.2568L10.7695 17.2998C10.102 17.6657 9.23458 17.5934 8.60373 17.1836L8.62292 17.154C8.68703 17.0389 8.58381 16.9257 8.46686 16.918C8.53061 16.6897 8.30791 16.492 8.08517 16.5139C8.09023 16.4427 8.04791 16.3721 7.98622 16.3311C7.91242 16.2741 7.76915 16.3563 7.76915 16.3563L3.34038 11.9785L2.80859 12.4497L7.15518 16.9348C7.12995 16.9802 7.11839 17.001 7.11839 17.001C7.06945 17.1182 7.16862 17.2127 7.27958 17.2291L7.26646 17.3672C7.28561 17.5562 7.48367 17.6682 7.66123 17.6455C7.63297 17.7685 7.75639 17.8634 7.87295 17.83L7.90454 17.8191C8.3258 18.4006 8.39931 19.2166 8.10342 19.8598L8.0766 19.8447C7.97432 19.7787 7.84703 19.8608 7.85022 19.9768C7.58107 19.9041 7.38468 20.2055 7.54782 20.4237C7.37174 20.5193 7.23194 20.5502 7.10364 20.657C6.56134 21.1084 7.26331 21.7744 7.76348 21.4259C7.89886 21.3316 7.98224 21.1162 8.03855 20.9758L8.11181 21.0125C8.31123 21.1169 8.53304 20.9062 8.49299 20.7026C8.61247 20.7387 8.7025 20.6098 8.6596 20.5047L8.66051 20.4462C9.29482 20.1837 10.0931 20.2328 10.6698 20.6032L10.6599 20.6209C10.5991 20.7266 10.6872 20.8562 10.8098 20.8319C10.7412 21.1223 11.0655 21.2561 11.2832 21.0966C11.3911 21.4307 11.7855 21.8737 12.178 21.5958C12.5571 21.3273 12.4242 20.6217 11.815 20.5837ZM10.2036 19.3651C10.0774 19.5648 9.77663 19.3544 9.65768 19.2115C9.53018 19.356 9.21893 19.5685 9.08437 19.3231C9.0461 19.1561 9.177 19.0165 9.2894 18.9143C9.16891 18.8004 8.90883 18.4305 9.13439 18.336C9.32739 18.2553 9.48793 18.5212 9.63632 18.6018C9.75516 18.468 9.97381 18.2881 10.1424 18.3947C10.3613 18.533 10.154 18.8324 9.97417 18.9381C10.1063 19.0353 10.3029 19.2078 10.2036 19.3651Z" fill="#F3F2F2" stroke="black" stroke-width="0.0690157"/>
<path d="M10.8068 20.4752C10.1295 20.02 9.22286 19.9324 8.48769 20.3029M11.2063 17.7658C10.7338 18.4807 10.6612 19.4448 11.0784 20.1967L11.2063 17.7658ZM8.46925 17.3145C9.19488 17.798 10.1479 17.8489 10.9256 17.4448L8.46925 17.3145ZM8.23646 20.0232C8.60354 19.2792 8.55057 18.3679 8.0625 17.6865L8.23646 20.0232Z" stroke="black" stroke-width="0.0492966" stroke-linecap="round"/>
<path d="M10.6585 19.9691C10.6072 19.9437 10.5575 19.9207 10.5091 19.8999C10.4607 19.8793 10.4136 19.8606 10.3678 19.8439C10.3218 19.8272 10.2772 19.8124 10.2334 19.7991C10.1896 19.7858 10.1468 19.7742 10.1047 19.7638C10.0627 19.7536 10.0214 19.7446 9.98068 19.7368C9.93997 19.7291 9.89983 19.7226 9.86006 19.7171C9.82025 19.7117 9.78087 19.7073 9.74168 19.7039C9.70241 19.7007 9.66336 19.6984 9.62428 19.6971C9.58512 19.6958 9.54604 19.6954 9.50666 19.6962C9.46729 19.6969 9.42769 19.6987 9.3877 19.7014C9.34768 19.7042 9.30714 19.7081 9.2661 19.7132C9.22492 19.7183 9.18319 19.7245 9.14052 19.7321C9.09782 19.7396 9.05435 19.7484 9.0098 19.7588C8.96525 19.7693 8.91965 19.7811 8.87275 19.7948C8.82585 19.8085 8.77764 19.8238 8.72795 19.8414C8.67827 19.8591 8.62713 19.8785 8.57422 19.9006C8.60009 19.8501 8.62333 19.8013 8.64439 19.7537C8.66538 19.706 8.68435 19.6598 8.70128 19.6147C8.71826 19.5696 8.73331 19.5255 8.74681 19.4825C8.76031 19.4395 8.77218 19.3973 8.7826 19.356C8.7931 19.3147 8.80218 19.2741 8.81007 19.234C8.81792 19.1938 8.82451 19.1544 8.83001 19.1152C8.83551 19.076 8.83989 19.0373 8.84322 18.9987C8.84655 18.9601 8.84883 18.9216 8.85013 18.883C8.85136 18.8445 8.85158 18.806 8.85086 18.7672C8.85006 18.7286 8.84829 18.6896 8.84543 18.6501C8.84257 18.6107 8.83859 18.5708 8.83338 18.5304C8.82817 18.4899 8.82198 18.4487 8.8143 18.4068C8.80667 18.3649 8.79762 18.322 8.78702 18.2782C8.77649 18.2344 8.76443 18.1895 8.75054 18.1433C8.73657 18.0971 8.72104 18.0497 8.7032 18.0008C8.68532 17.952 8.66538 17.9016 8.64298 17.8496C8.6943 17.8751 8.74406 17.898 8.79252 17.9187C8.84087 17.9394 8.88806 17.958 8.93391 17.9747C8.97984 17.9915 9.02446 18.0063 9.06829 18.0196C9.11211 18.033 9.15489 18.0446 9.19694 18.0549C9.23896 18.0652 9.28025 18.0741 9.32093 18.0819C9.36165 18.0896 9.40175 18.0961 9.44152 18.1016C9.48133 18.1071 9.5207 18.1114 9.55986 18.1148C9.59909 18.1181 9.6381 18.1204 9.67719 18.1217C9.7162 18.123 9.75529 18.1233 9.79466 18.1225C9.83404 18.1218 9.87356 18.1201 9.91358 18.1172C9.95354 18.1144 9.99407 18.1106 10.0352 18.1055C10.0764 18.1004 10.1181 18.0943 10.1608 18.0867C10.2035 18.0791 10.2469 18.0703 10.2915 18.0599C10.3361 18.0495 10.3817 18.0377 10.4287 18.024C10.4756 18.0103 10.5238 17.9949 10.5734 17.9773C10.6232 17.9597 10.6743 17.9402 10.7272 17.9181C10.7014 17.9686 10.6781 18.0174 10.6571 18.0651C10.6361 18.1127 10.6171 18.1589 10.6002 18.2039C10.5831 18.2491 10.5681 18.2932 10.5547 18.3362C10.5412 18.3793 10.5293 18.4213 10.5188 18.4627C10.5084 18.5041 10.4993 18.5446 10.4914 18.5847C10.4835 18.6248 10.4769 18.6643 10.4714 18.7034C10.466 18.7425 10.4615 18.7813 10.4582 18.8199C10.4548 18.8585 10.4525 18.8971 10.4513 18.9356C10.4501 18.9742 10.4499 19.0127 10.4506 19.0514C10.4514 19.0901 10.4531 19.1291 10.456 19.1687C10.4589 19.208 10.4628 19.2479 10.468 19.2884C10.4732 19.3288 10.4795 19.37 10.4872 19.412C10.4949 19.4539 10.5039 19.4967 10.5144 19.5405C10.525 19.5844 10.5371 19.6293 10.551 19.6755C10.5649 19.7216 10.5806 19.7691 10.5983 19.818C10.6162 19.8668 10.6361 19.9172 10.6585 19.9691V19.9691Z" stroke="black" stroke-width="0.0591549" stroke-linecap="round"/>
<path d="M7.14453 16.961L7.7823 16.3496M8.08277 19.8666L8.66496 20.5129L8.08277 19.8666ZM10.6551 20.655L11.2957 19.9818L10.6551 20.655ZM8.03168 20.9579L7.54878 20.4242L8.03168 20.9579ZM7.8514 19.9771L8.49444 20.7031L7.8514 19.9771ZM11.8937 17.3965L11.3882 16.8012L11.8937 17.3965ZM10.9237 17.0631L11.562 17.7893L10.9237 17.0631ZM10.8125 20.8325L11.4943 20.1473L10.8125 20.8325ZM11.2649 21.1037L11.8035 20.5607L11.2649 21.1037ZM7.66218 17.6446L8.46822 16.9167L7.66218 17.6446ZM7.28906 17.2223L8.0865 16.5121L7.28906 17.2223ZM11.3437 17.9155L10.7645 17.254L11.3437 17.9155ZM7.8737 17.822L8.60668 17.149L7.8737 17.822Z" stroke="black" stroke-width="0.0591549" stroke-linecap="round"/>
</g>
<defs>
<clipPath id="clip0_634_21299">
<rect width="16.5047" height="24" fill="white" transform="translate(0.0957031)"/>
</clipPath>
</defs>
</svg>
