<svg width="18" height="24" viewBox="0 0 18 24" fill="none" xmlns="http://www.w3.org/2000/svg">
<g clip-path="url(#clip0_634_21513)">
<path d="M0.273438 0.191406V15.4143C0.273438 17.635 1.15563 19.7648 2.72594 21.3351C4.29624 22.9055 6.42604 23.7876 8.64679 23.7876C10.8675 23.7876 12.9973 22.9055 14.5676 21.3351C16.1379 19.7648 17.0201 17.635 17.0201 15.4143V0.191406H0.273438Z" fill="#E30613" stroke="black" stroke-width="0.304763"/>
<path d="M8.6437 3.77177C8.95929 3.77177 9.21512 3.51593 9.21512 3.20034C9.21512 2.88474 8.95929 2.62891 8.6437 2.62891C8.3281 2.62891 8.07227 2.88474 8.07227 3.20034C8.07227 3.51593 8.3281 3.77177 8.6437 3.77177Z" fill="white" stroke="black" stroke-width="0.304763"/>
<path d="M8.78848 2.68167V1.82833H9.29133V1.519H8.78848V0.990234H8.49895V1.519H7.99609V1.82833H8.49895V2.68167" fill="white"/>
<path d="M8.78848 2.68167V1.82833H9.29133V1.519H8.78848V0.990234H8.49895V1.519H7.99609V1.82833H8.49895V2.68167" stroke="black" stroke-width="0.304763"/>
<path d="M8.64398 6.59069C9.59075 6.59069 10.3583 5.82317 10.3583 4.8764C10.3583 3.92962 9.59075 3.16211 8.64398 3.16211C7.6972 3.16211 6.92969 3.92962 6.92969 4.8764C6.92969 5.82317 7.6972 6.59069 8.64398 6.59069Z" fill="white" stroke="black" stroke-width="0.304763"/>
<path d="M6.7168 5.0293V5.56263H10.572V5.0293H6.7168Z" fill="white" stroke="black" stroke-width="0.304763"/>
<path d="M8.6437 3.77177C8.95929 3.77177 9.21512 3.51593 9.21512 3.20034C9.21512 2.88474 8.95929 2.62891 8.6437 2.62891C8.3281 2.62891 8.07227 2.88474 8.07227 3.20034C8.07227 3.51593 8.3281 3.77177 8.6437 3.77177Z" fill="white" stroke="black" stroke-width="0.0761906"/>
<path d="M8.78848 2.68167V1.82833H9.29133V1.519H8.78848V0.990234H8.49895V1.519H7.99609V1.82833H8.49895V2.68167" fill="white"/>
<path d="M8.78848 2.68167V1.82833H9.29133V1.519H8.78848V0.990234H8.49895V1.519H7.99609V1.82833H8.49895V2.68167" stroke="black" stroke-width="0.0761906"/>
<path d="M8.64398 6.59069C9.59075 6.59069 10.3583 5.82317 10.3583 4.8764C10.3583 3.92962 9.59075 3.16211 8.64398 3.16211C7.6972 3.16211 6.92969 3.92962 6.92969 4.8764C6.92969 5.82317 7.6972 6.59069 8.64398 6.59069Z" fill="white" stroke="black" stroke-width="0.0761906"/>
<path d="M6.7168 5.0293V5.56263H10.572V5.0293H6.7168Z" fill="white" stroke="black" stroke-width="0.0761906"/>
<path d="M6.99805 5.75195L7.01786 15.8472H10.2941V5.75195H6.99805Z" fill="white" stroke="black" stroke-width="0.304763"/>
<path d="M6.99805 5.75195L7.01786 15.8472H10.2941V5.75195H6.99805Z" fill="white" stroke="black" stroke-width="0.0761906"/>
<path d="M2.66406 5.75195L2.68311 15.8472H5.95931V5.75195H2.66406Z" fill="white" stroke="black" stroke-width="0.304763"/>
<path d="M14.8798 3.88477V5.56096H11.0703V3.88477H11.6143V4.72286H12.1583V3.88477H12.7023V4.72286H13.2471V3.88477H13.788V4.72286H14.332V3.88477H14.8798Z" fill="white" stroke="black" stroke-width="0.304763"/>
<path d="M13.2888 2.80898H13.9166L13.6027 2.26497L13.9166 1.72174H13.2888L12.9749 1.17773L12.661 1.72174H12.0332L12.3471 2.26497L12.0332 2.80898H12.661L12.9749 3.35222L13.2888 2.80898Z" fill="white" stroke="black" stroke-width="0.304763"/>
<path d="M8.64355 23.8035C5.4664 23.7501 2.72354 21.9901 1.52734 19.7349C2.06068 17.6777 2.28925 15.8873 2.28925 13.6777H8.65117" fill="white"/>
<path d="M8.64355 23.8035C5.4664 23.7501 2.72354 21.9901 1.52734 19.7349C2.06068 17.6777 2.28925 15.8873 2.28925 13.6777H8.65117" stroke="black" stroke-width="0.304763"/>
<path d="M2.66406 5.75195L2.68311 15.8472H5.95931V5.75195H2.66406Z" fill="white" stroke="black" stroke-width="0.0761906"/>
<path d="M14.8798 3.88477V5.56096H11.0703V3.88477H11.6143V4.72286H12.1583V3.88477H12.7023V4.72286H13.2471V3.88477H13.788V4.72286H14.332V3.88477H14.8798Z" fill="white" stroke="black" stroke-width="0.0761906"/>
<path d="M13.2888 2.80898H13.9166L13.6027 2.26497L13.9166 1.72174H13.2888L12.9749 1.17773L12.661 1.72174H12.0332L12.3471 2.26497L12.0332 2.80898H12.661L12.9749 3.35222L13.2888 2.80898Z" fill="white" stroke="black" stroke-width="0.0761906"/>
<path d="M8.64355 23.8035C5.4664 23.7501 2.72354 21.9901 1.52734 19.7349C2.06068 17.6777 2.28925 15.8873 2.28925 13.6777H8.65117" fill="white"/>
<path d="M8.64355 23.8035C5.4664 23.7501 2.72354 21.9901 1.52734 19.7349C2.06068 17.6777 2.28925 15.8873 2.28925 13.6777H8.65117" stroke="black" stroke-width="0.0761906"/>
<path d="M6.83203 17.8242H7.36537" stroke="black" stroke-width="0.152381"/>
<path d="M7.38776 17.524C7.54014 17.6764 7.27348 17.6764 7.27348 17.8288C7.27348 17.9812 7.54014 17.9812 7.38776 18.1336C7.25824 18.2631 7.12109 18.0498 7.12109 17.8288C7.12414 17.585 7.27652 17.4098 7.38776 17.524Z" fill="black" stroke="black" stroke-width="0.0761906"/>
<path d="M8.65551 15.0898C6.78123 15.0898 6.08789 16.8422 6.08789 17.406V23.3794" stroke="black" stroke-width="0.228572"/>
<path d="M8.66316 23.7906L8.62506 15.8516C7.56601 15.8516 6.78125 16.8344 6.78125 17.703V23.6078" stroke="black" stroke-width="0.152381"/>
<path d="M6.83203 21.709H7.36537" stroke="black" stroke-width="0.152381"/>
<path d="M7.38776 21.4088C7.54014 21.5612 7.27348 21.5612 7.27348 21.7136C7.27348 21.866 7.54014 21.866 7.38776 22.0183C7.25824 22.1479 7.12109 21.9345 7.12109 21.7136C7.12414 21.4698 7.27652 21.2945 7.38776 21.4088Z" fill="black" stroke="black" stroke-width="0.0761906"/>
<path d="M14.628 5.75195L14.6082 15.8472H11.332V5.75195H14.628Z" fill="white" stroke="black" stroke-width="0.304763"/>
<path d="M2.41211 3.88477V5.56096H6.22164V3.88477H5.67764V4.72286H5.13364V3.88477H4.58964V4.72286H4.04487V3.88477H3.50087V4.72286H2.95687V3.88477H2.41211Z" fill="white" stroke="black" stroke-width="0.304763"/>
<path d="M4.00281 2.80898H3.375L3.68891 2.26497L3.375 1.72174H4.00281L4.31672 1.17773L4.63062 1.72174H5.25843L4.94453 2.26497L5.25843 2.80898H4.63062L4.31672 3.35222L4.00281 2.80898Z" fill="white" stroke="black" stroke-width="0.304763"/>
<path d="M8.64824 23.8035C11.8254 23.7501 14.5683 21.9901 15.7644 19.7349C15.2311 17.6777 15.0025 15.8873 15.0025 13.6777H8.64062" fill="white"/>
<path d="M8.64824 23.8035C11.8254 23.7501 14.5683 21.9901 15.7644 19.7349C15.2311 17.6777 15.0025 15.8873 15.0025 13.6777H8.64062" stroke="black" stroke-width="0.304763"/>
<path d="M14.628 5.75195L14.6082 15.8472H11.332V5.75195H14.628Z" fill="white" stroke="black" stroke-width="0.0761906"/>
<path d="M2.41211 3.88477V5.56096H6.22164V3.88477H5.67764V4.72286H5.13364V3.88477H4.58964V4.72286H4.04487V3.88477H3.50087V4.72286H2.95687V3.88477H2.41211Z" fill="white" stroke="black" stroke-width="0.0761906"/>
<path d="M4.00281 2.80898H3.375L3.68891 2.26497L3.375 1.72174H4.00281L4.31672 1.17773L4.63062 1.72174H5.25843L4.94453 2.26497L5.25843 2.80898H4.63062L4.31672 3.35222L4.00281 2.80898Z" fill="white" stroke="black" stroke-width="0.0761906"/>
<path d="M8.64824 23.8035C11.8254 23.7501 14.5683 21.9901 15.7644 19.7349C15.2311 17.6777 15.0025 15.8873 15.0025 13.6777H8.64062" fill="white"/>
<path d="M8.64824 23.8035C11.8254 23.7501 14.5683 21.9901 15.7644 19.7349C15.2311 17.6777 15.0025 15.8873 15.0025 13.6777H8.64062" stroke="black" stroke-width="0.0761906"/>
<path d="M10.4591 17.8242H9.92578" stroke="black" stroke-width="0.152381"/>
<path d="M9.90055 17.524C9.74817 17.6764 10.0148 17.6764 10.0148 17.8288C10.0148 17.9812 9.74817 17.9812 9.90055 18.1336C10.0301 18.2631 10.1672 18.0498 10.1672 17.8288C10.1672 17.585 10.0148 17.4098 9.90055 17.524Z" fill="black" stroke="black" stroke-width="0.0761906"/>
<path d="M8.63672 15.0898C10.511 15.0898 11.2043 16.8422 11.2043 17.406V23.3794" stroke="black" stroke-width="0.228572"/>
<path d="M8.63086 23.7906L8.66895 15.8516C9.728 15.8516 10.5128 16.8344 10.5128 17.703V23.6078" stroke="black" stroke-width="0.152381"/>
<path d="M10.4591 21.709H9.92578" stroke="black" stroke-width="0.152381"/>
<path d="M9.90055 21.4088C9.74817 21.5612 10.0148 21.5612 10.0148 21.7136C10.0148 21.866 9.74817 21.866 9.90055 22.0183C10.0301 22.1479 10.1672 21.9345 10.1672 21.7136C10.1672 21.4698 10.0148 21.2945 9.90055 21.4088Z" fill="black" stroke="black" stroke-width="0.0761906"/>
<path d="M1.94141 11.5801V13.4848H15.351V11.5801H14.3224V12.4944H13.2862V11.5801H12.2576V12.4944H11.2214V11.5801H10.1929V12.4944H9.16428V11.5801H8.12809V12.4944H7.09875V11.5801H6.06789V12.4944H5.03627V11.5801H4.00312V12.4944H2.96998V11.5801H1.94141Z" fill="white" stroke="black" stroke-width="0.304763"/>
<path d="M1.94141 11.5801V13.4848H15.351V11.5801H14.3224V12.4944H13.2862V11.5801H12.2576V12.4944H11.2214V11.5801H10.1929V12.4944H9.16428V11.5801H8.12809V12.4944H7.09875V11.5801H6.06789V12.4944H5.03627V11.5801H4.00312V12.4944H2.96998V11.5801H1.94141Z" fill="white" stroke="black" stroke-width="0.0761906"/>
<path d="M0.273438 0.191406V15.4143C0.273438 17.635 1.15563 19.7648 2.72594 21.3351C4.29624 22.9055 6.42604 23.7876 8.64679 23.7876C10.8675 23.7876 12.9973 22.9055 14.5676 21.3351C16.1379 19.7648 17.0201 17.635 17.0201 15.4143V0.191406H0.273438Z" stroke="black" stroke-width="0.304763"/>
</g>
<defs>
<clipPath id="clip0_634_21513">
<rect width="17.1429" height="24" fill="white" transform="translate(0.0742188)"/>
</clipPath>
</defs>
</svg>
