<svg width="21" height="24" viewBox="0 0 21 24" fill="none" xmlns="http://www.w3.org/2000/svg">
<path d="M2.10403 3.886C2.2088 3.93637 2.43592 4.05038 2.43592 4.11845C2.43592 4.16192 2.35028 4.2568 2.09166 4.2568C1.86806 4.2568 1.76784 4.18769 1.76784 4.11845C1.76784 4.04114 1.91784 3.96708 2.10403 3.886ZM2.73455 3.58821C2.88202 3.50361 3.05714 3.38816 3.24866 3.19618C3.45125 3.39467 3.62162 3.50751 3.76212 3.58821C3.76212 3.58821 3.77988 3.59797 3.80227 3.61072C3.55699 3.72187 3.38441 3.83367 3.25946 3.9611C3.13341 3.83185 2.95692 3.71862 2.70384 3.6046C2.71334 3.59927 2.73455 3.58821 2.73455 3.58821ZM4.41269 3.90643C4.53536 3.9624 4.72903 4.05494 4.72903 4.11845C4.72903 4.15971 4.72903 4.25746 4.40384 4.25746C4.07924 4.25746 4.07924 4.15971 4.07924 4.11845C4.07924 4.05637 4.2716 3.96851 4.41269 3.90643ZM5.0455 3.60187C5.18463 3.52235 5.38227 3.39402 5.55954 3.19957C5.73661 3.39402 5.93516 3.52235 6.07299 3.60187C6.07299 3.60187 6.0959 3.61463 6.12408 3.62998C5.86351 3.75324 5.67811 3.88248 5.54854 4.02917C5.41403 3.88834 5.22465 3.75636 4.98413 3.63545C5.0127 3.61996 5.0455 3.60187 5.0455 3.60187ZM6.70691 3.90643C6.84806 3.96851 7.04049 4.05637 7.04049 4.11845C7.04049 4.1562 7.04049 4.2568 6.71986 4.2568C6.39955 4.2568 6.39955 4.1562 6.39955 4.11845C6.39955 4.05038 6.58163 3.9637 6.70691 3.90643ZM7.36555 3.58821C7.50625 3.50751 7.67727 3.39467 7.88044 3.1954C8.05289 3.36174 8.20914 3.48187 8.39298 3.58821C8.39298 3.58821 8.40951 3.59654 8.42916 3.6076C8.17621 3.72265 7.99972 3.83719 7.87367 3.9693C7.7508 3.83875 7.57555 3.725 7.32279 3.61137C7.33971 3.60187 7.36555 3.58821 7.36555 3.58821ZM9.03965 3.90422C9.16967 3.9637 9.36074 4.05442 9.36074 4.11845C9.36074 4.23377 9.18067 4.25746 9.03054 4.25746C8.87989 4.25746 8.70138 4.23377 8.70138 4.11845C8.70138 4.05572 8.8888 3.96995 9.03965 3.90422ZM9.66758 3.60187C9.80606 3.52235 10.0046 3.39402 10.1818 3.19957C10.3589 3.3935 10.5572 3.52235 10.6949 3.60187C10.6949 3.60187 10.715 3.61254 10.74 3.62582C10.4776 3.74973 10.2894 3.87975 10.1592 4.02565C10.0235 3.88183 9.84003 3.75077 9.61037 3.63259C9.63719 3.61892 9.66758 3.60187 9.66758 3.60187ZM11.3215 3.9037C11.4725 3.96995 11.6622 4.05572 11.6622 4.11845C11.6622 4.16427 11.6622 4.25746 11.3345 4.25746C11.0068 4.25746 11.0068 4.16427 11.0068 4.11845C11.0068 4.04973 11.1934 3.96175 11.3215 3.9037ZM11.9736 3.58821C12.1139 3.50751 12.2841 3.39467 12.4874 3.1954C12.6603 3.36174 12.8162 3.48187 13.0018 3.58821C13.0018 3.58821 13.0242 3.6007 13.0377 3.6076C12.7883 3.72005 12.6137 3.83302 12.489 3.96175C12.3648 3.83302 12.1896 3.72057 11.9374 3.6076C11.9507 3.6007 11.9736 3.58821 11.9736 3.58821ZM13.6473 3.90422C13.7775 3.9637 13.9678 4.05442 13.9678 4.11845C13.9678 4.21086 13.8564 4.25746 13.6385 4.25746C13.4196 4.25746 13.3084 4.21086 13.3084 4.11845C13.3084 4.05572 13.4969 3.96995 13.6473 3.90422ZM14.2755 3.60187C14.4137 3.52235 14.6115 3.39402 14.7888 3.19957C14.9661 3.39402 15.1644 3.52235 15.3029 3.60187C15.3029 3.60187 15.3347 3.61931 15.3714 3.63923C15.1207 3.766 14.9268 3.90565 14.7919 4.05442C14.6542 3.89953 14.4619 3.75858 14.2174 3.63259C14.244 3.61892 14.2755 3.60187 14.2755 3.60187ZM15.9438 3.90995C16.0825 3.9706 16.2694 4.05637 16.2694 4.11845C16.2694 4.15294 16.2694 4.25628 15.9516 4.25628C15.6343 4.25628 15.6343 4.15294 15.6343 4.11845C15.6343 4.05572 15.8238 3.96513 15.9438 3.90995ZM16.6008 3.58821C16.7416 3.50751 16.9119 3.39467 17.1152 3.19618C17.3073 3.38816 17.4827 3.50361 17.6295 3.58821C17.6295 3.58821 17.642 3.59484 17.6602 3.6046C17.4036 3.7194 17.2263 3.83433 17.1001 3.96513C16.9775 3.83719 16.8044 3.725 16.556 3.61306C16.5737 3.60265 16.6008 3.58821 16.6008 3.58821ZM18.26 3.886C18.4459 3.96708 18.5958 4.04114 18.5958 4.11845C18.5958 4.15971 18.5958 4.2568 18.272 4.2568C18.1145 4.2568 17.9268 4.23312 17.9268 4.11845C17.9268 4.05038 18.1548 3.93637 18.26 3.886ZM20.0736 0.20317C19.8867 0.182866 19.7193 0.308464 19.6175 0.45749C19.5673 0.426253 19.5173 0.402956 19.4842 0.394365C19.4431 0.383433 19.3741 0.364951 19.3207 0.410505C19.2765 0.448249 19.2575 0.513456 19.2575 0.655454C19.2575 0.70322 19.2601 0.764002 19.2645 0.831421C19.2255 0.816324 19.1851 0.802918 19.1528 0.794718C19.1 0.780141 19.0383 0.769208 18.9915 0.797972C18.9493 0.823222 18.9344 0.865912 18.924 0.904307C18.8928 1.02717 18.9469 1.1434 18.9954 1.24635C19.0365 1.33407 19.0745 1.41737 19.0576 1.4887C19.0518 1.51017 19.0276 1.57733 18.9352 1.55299C18.8519 1.53009 18.8129 1.46202 18.7723 1.38952L18.759 1.36544C18.6934 1.25351 18.5518 1.1037 18.3649 1.05437C18.272 1.03004 18.2012 1.01442 18.1421 1.05034C18.0786 1.08847 18.0528 1.17229 18.021 1.29568C18.0028 1.37 17.9932 1.45225 17.9932 1.53737C17.9932 1.74614 18.0494 1.97521 18.1473 2.16094C18.0497 2.29422 17.9817 2.4422 17.9599 2.53006C17.9453 2.5868 17.9375 2.63353 17.9375 2.6727C17.9375 2.78503 18.0007 2.8367 18.1577 2.87874C18.3839 2.93874 18.6096 2.84789 18.7923 2.77462C18.897 2.73192 18.9967 2.69223 19.0461 2.7055C19.0995 2.71917 19.0995 2.71917 19.0995 2.77318C19.0995 2.97037 18.7785 3.19709 18.2428 3.38282C17.8323 3.23354 17.4635 3.0003 17.2802 2.78724C17.3968 2.72581 17.4757 2.60203 17.4757 2.45886C17.4757 2.25569 17.3148 2.09053 17.1152 2.09053C16.9158 2.09053 16.7544 2.25569 16.7544 2.45886C16.7544 2.60073 16.8319 2.72359 16.9462 2.78503C16.7575 3.00108 16.3829 3.23757 15.9706 3.38894C15.4245 3.20191 15.0978 2.97245 15.0978 2.77318C15.0978 2.75366 15.1032 2.68923 15.1738 2.68923C15.2251 2.68923 15.312 2.75366 15.4031 2.82199C15.5609 2.93939 15.7566 3.08633 15.9906 3.08633C16.209 3.08633 16.2681 3.02438 16.2681 2.79986C16.2681 2.70993 16.2395 2.54893 16.1796 2.39561C16.3775 2.17695 16.5136 1.85248 16.5136 1.5897C16.5136 1.33225 16.4818 1.26692 16.2411 1.26692C16.0471 1.26692 15.8735 1.37494 15.7829 1.4667L15.7652 1.48674C15.7069 1.54596 15.6528 1.60323 15.5663 1.60323C15.4713 1.60323 15.4638 1.53126 15.4638 1.50874C15.4638 1.43533 15.5216 1.36479 15.5833 1.29034C15.6559 1.20353 15.7371 1.10448 15.7371 0.977844C15.7371 0.833113 15.6431 0.812679 15.5432 0.812679C15.5096 0.812679 15.4672 0.814632 15.4263 0.820098C15.4765 0.663263 15.5018 0.561353 15.5018 0.494063C15.5018 0.452414 15.4921 0.422218 15.4765 0.39827C15.4354 0.340222 15.3633 0.340222 15.3206 0.340222C15.2878 0.340222 15.2313 0.349853 15.1738 0.368074C15.1139 0.223083 14.9721 0.0596104 14.8081 0.00572676L14.7888 0L14.7695 0.00572676C14.6061 0.0596104 14.4639 0.223083 14.4041 0.368074C14.3465 0.349853 14.2906 0.340222 14.2578 0.340222C14.214 0.340222 14.1432 0.340222 14.1018 0.39827C14.086 0.422218 14.0769 0.452414 14.0769 0.494063C14.0769 0.561353 14.1013 0.663263 14.1518 0.820098C14.1102 0.814632 14.0688 0.812679 14.0355 0.812679C13.9352 0.812679 13.8415 0.833113 13.8415 0.977844C13.8415 1.10448 13.9228 1.20353 13.9949 1.29034C14.0566 1.36479 14.1141 1.43533 14.1141 1.50874C14.1141 1.53126 14.1065 1.60323 14.012 1.60323C13.9259 1.60323 13.8707 1.54596 13.8139 1.48674L13.7952 1.4667C13.7046 1.37494 13.5307 1.26692 13.3371 1.26692C13.0965 1.26692 13.0643 1.33225 13.0643 1.5897C13.0643 1.85248 13.2009 2.17695 13.3993 2.39561C13.3386 2.54893 13.3097 2.70993 13.3097 2.79986C13.3097 3.02438 13.3693 3.08633 13.5875 3.08633C13.8212 3.08633 14.0178 2.93939 14.1753 2.82199C14.2666 2.75366 14.3533 2.68923 14.4041 2.68923C14.4751 2.68923 14.4801 2.75366 14.4801 2.77318C14.4801 2.97102 14.1583 3.1984 13.6192 3.38491C13.2145 3.23757 12.8388 3.0003 12.6532 2.78659C12.7691 2.72503 12.8482 2.60138 12.8482 2.45886C12.8482 2.25569 12.6866 2.09053 12.4874 2.09053C12.2885 2.09053 12.1261 2.25569 12.1261 2.45886C12.1261 2.60073 12.2047 2.72359 12.32 2.78581C12.1324 3.00316 11.7609 3.23757 11.3533 3.38491C10.8123 3.19892 10.4898 2.97102 10.4898 2.77318C10.4898 2.75366 10.4953 2.68923 10.5669 2.68923C10.6174 2.68923 10.7041 2.75366 10.7952 2.82199C10.9529 2.93939 11.1492 3.08633 11.3829 3.08633C11.6019 3.08633 11.6612 3.02438 11.6612 2.79986C11.6612 2.70993 11.6326 2.54893 11.5714 2.39561C11.7695 2.17695 11.9067 1.85248 11.9067 1.5897C11.9067 1.33225 11.8747 1.26692 11.6341 1.26692C11.4402 1.26692 11.2666 1.37494 11.1757 1.4667L11.1572 1.48674C11.0997 1.54596 11.0448 1.60323 10.9581 1.60323C10.8634 1.60323 10.8561 1.53126 10.8561 1.50874C10.8561 1.43533 10.9146 1.36479 10.9758 1.29034C11.0474 1.20353 11.1294 1.10448 11.1294 0.977844C11.1294 0.833113 11.0359 0.812679 10.9355 0.812679C10.9016 0.812679 10.8605 0.814632 10.8191 0.820098C10.8691 0.663263 10.8941 0.561353 10.8941 0.494063C10.8941 0.452414 10.885 0.422218 10.8673 0.39827C10.828 0.340222 10.7556 0.340222 10.7134 0.340222C10.6806 0.340222 10.6241 0.349853 10.5669 0.368074C10.507 0.223083 10.3651 0.0596104 10.2001 0.00572676L10.1818 0L10.1624 0.00572676C9.99823 0.0596104 9.85728 0.223083 9.79584 0.368074C9.73858 0.349853 9.6832 0.340222 9.64929 0.340222C9.60699 0.340222 9.53534 0.340222 9.49519 0.39827C9.47885 0.422218 9.46851 0.452414 9.46851 0.494063C9.46851 0.561353 9.49382 0.663263 9.54497 0.820098C9.50267 0.814632 9.46089 0.812679 9.42829 0.812679C9.3267 0.812679 9.23312 0.833113 9.23312 0.977844C9.23312 1.10448 9.31499 1.20353 9.38677 1.29034C9.4482 1.36479 9.50742 1.43533 9.50742 1.50874C9.50742 1.53126 9.49922 1.60323 9.40467 1.60323C9.31766 1.60323 9.26325 1.54596 9.20579 1.48674L9.18757 1.4667C9.09672 1.37494 8.92245 1.26692 8.72995 1.26692C8.48949 1.26692 8.45669 1.33225 8.45669 1.5897C8.45669 1.85248 8.59316 2.17695 8.79138 2.39561C8.73145 2.54893 8.7021 2.70993 8.7021 2.79986C8.7021 3.02438 8.76216 3.08633 8.97958 3.08633C9.21341 3.08633 9.41007 2.93939 9.5682 2.82199C9.65931 2.75366 9.74599 2.68923 9.79721 2.68923C9.86743 2.68923 9.87289 2.75366 9.87289 2.77318C9.87289 2.97102 9.55109 3.1984 9.0116 3.38491C8.60669 3.23757 8.23159 3.0003 8.04554 2.78659C8.16059 2.72503 8.24044 2.60138 8.24044 2.45886C8.24044 2.25569 8.07821 2.09053 7.87985 2.09053C7.68052 2.09053 7.51842 2.25569 7.51842 2.45886C7.51842 2.60073 7.59729 2.72359 7.71254 2.78581C7.52304 3.00421 7.14871 3.2403 6.7384 3.38751C6.19345 3.20152 5.86781 2.97245 5.86781 2.77318C5.86781 2.75366 5.87373 2.68923 5.94479 2.68923C5.99523 2.68923 6.08165 2.75366 6.17295 2.82199C6.33057 2.93939 6.52697 3.08633 6.76079 3.08633C6.97977 3.08633 7.03906 3.02438 7.03906 2.79986C7.03906 2.70993 7.00978 2.54893 6.94977 2.39561C7.14741 2.17695 7.28446 1.85248 7.28446 1.5897C7.28446 1.33225 7.25167 1.26692 7.01088 1.26692C6.81799 1.26692 6.64352 1.37494 6.55333 1.4667L6.53517 1.48674C6.47725 1.54596 6.42343 1.60323 6.33669 1.60323C6.24128 1.60323 6.23439 1.53126 6.23439 1.50874C6.23439 1.43533 6.2923 1.36479 6.35367 1.29034C6.42623 1.20353 6.50725 1.10448 6.50725 0.977844C6.50725 0.833113 6.4138 0.812679 6.31306 0.812679C6.28013 0.812679 6.23777 0.814632 6.19631 0.820098C6.24662 0.663263 6.27206 0.561353 6.27206 0.494063C6.27206 0.452414 6.26308 0.422218 6.24551 0.39827C6.20588 0.340222 6.13417 0.340222 6.09135 0.340222C6.05874 0.340222 6.00193 0.349853 5.94479 0.368074C5.88421 0.223083 5.74299 0.0596104 5.57802 0.00572676L5.55954 0L5.54015 0.00572676C5.37661 0.0596104 5.23494 0.223083 5.17422 0.368074C5.11695 0.349853 5.06092 0.340222 5.02832 0.340222C4.98485 0.340222 4.91385 0.340222 4.87278 0.39827C4.85593 0.422218 4.84701 0.452414 4.84701 0.494063C4.84701 0.561353 4.87155 0.663263 4.9227 0.820098C4.88092 0.814632 4.83875 0.812679 4.80608 0.812679C4.70456 0.812679 4.61104 0.833113 4.61104 0.977844C4.61104 1.10448 4.69272 1.20353 4.76508 1.29034C4.82651 1.36479 4.88528 1.43533 4.88528 1.50874C4.88528 1.53126 4.87688 1.60323 4.78239 1.60323C4.69564 1.60323 4.64091 1.54596 4.58378 1.48674L4.56523 1.4667C4.47529 1.37494 4.30095 1.26692 4.10774 1.26692C3.86722 1.26692 3.83513 1.33225 3.83513 1.5897C3.83513 1.85248 3.97166 2.17695 4.16917 2.39561C4.10917 2.54893 4.07969 2.70993 4.07969 2.79986C4.07969 3.02438 4.13989 3.08633 4.35809 3.08633C4.59185 3.08633 4.78773 2.93939 4.9458 2.82199C5.03704 2.75366 5.12365 2.68923 5.17487 2.68923C5.24515 2.68923 5.25055 2.75366 5.25055 2.77318C5.25055 2.97154 4.92732 3.19957 4.38594 3.38608C3.97628 3.23471 3.6045 2.99952 3.41649 2.78503C3.53096 2.72281 3.60938 2.60073 3.60938 2.45886C3.60938 2.25569 3.44695 2.09053 3.24814 2.09053C3.04966 2.09053 2.88742 2.25569 2.88742 2.45886C2.88742 2.60203 2.96701 2.72581 3.08376 2.78724C2.90037 3.0003 2.53125 3.23354 2.12094 3.38282C1.58445 3.19709 1.2646 2.97037 1.2646 2.77318C1.2646 2.71917 1.2646 2.71917 1.31777 2.7055C1.3669 2.69223 1.4664 2.73192 1.57196 2.77462C1.75352 2.84789 1.97986 2.93874 2.20626 2.87874C2.30303 2.85258 2.36993 2.82498 2.40455 2.76459C2.4203 2.73713 2.427 2.70667 2.427 2.67205C2.427 2.63223 2.41841 2.58537 2.4039 2.53006C2.38203 2.44298 2.31331 2.29422 2.21706 2.16094C2.31461 1.97521 2.36993 1.74614 2.36993 1.53737C2.36993 1.45225 2.36101 1.37 2.34188 1.29568C2.31064 1.17229 2.28533 1.08847 2.22123 1.05034C2.16272 1.01442 2.09244 1.03004 1.99834 1.05437C1.81144 1.1037 1.66951 1.25351 1.6056 1.36544L1.59135 1.38952C1.55094 1.46202 1.51215 1.53009 1.42892 1.55299C1.33709 1.57733 1.31237 1.51017 1.30703 1.4887C1.28861 1.41737 1.32668 1.33407 1.3682 1.24635C1.41597 1.1434 1.47063 1.02717 1.43907 0.904307C1.42957 0.865912 1.41382 0.823222 1.37315 0.797972C1.32467 0.769208 1.26375 0.780141 1.21013 0.794718C1.17811 0.802918 1.13913 0.816324 1.09963 0.831421C1.10379 0.764002 1.10698 0.70322 1.10698 0.655454C1.10698 0.513456 1.08733 0.448249 1.04379 0.410505C0.98978 0.364951 0.920278 0.383433 0.87941 0.394365C0.846806 0.402956 0.796372 0.426253 0.745937 0.45749C0.645524 0.308464 0.476324 0.182866 0.290139 0.20317L0.21875 0.211109C0.21875 0.211109 0.789474 2.44012 0.792858 2.45353C0.794224 3.0685 0.928347 3.30798 1.41317 3.55996C1.41317 3.55996 1.47271 3.58925 1.53265 3.61892C1.31627 3.7332 1.12488 3.89654 1.12488 4.1929C1.12488 4.47546 1.30547 4.69816 1.56115 4.75659C1.59669 6.19583 1.81092 15.082 1.81092 15.083C1.81092 17.6344 2.67332 19.9309 4.23822 21.5509C5.76479 23.1297 7.87692 24 10.1872 24C12.4965 24 14.6092 23.1297 16.1354 21.5509C17.7006 19.9309 18.5633 17.6344 18.5633 15.0816C18.5633 15.0816 18.7923 5.63591 18.8134 4.75308C19.0638 4.69139 19.238 4.4713 19.238 4.1929C19.238 3.89654 19.0469 3.7332 18.8311 3.61892C18.8902 3.58925 18.9503 3.55996 18.9503 3.55996C19.4355 3.30798 19.5691 3.0685 19.5706 2.45353C19.5743 2.44012 20.1451 0.211109 20.1451 0.211109L20.0736 0.20317Z" fill="#231F20"/>
<path d="M15.6144 13.5222L15.3096 13.3436C14.6713 12.9508 13.7235 11.7003 13.7235 10.7805C13.7235 10.7252 13.7259 10.6703 13.7285 10.6172C13.7071 10.6172 13.218 10.6172 13.0967 10.6172C13.0509 10.7752 12.9697 10.9709 12.8421 11.1398C12.7677 11.238 12.6724 11.4906 12.6724 11.8245C12.6724 11.8784 12.6755 11.9337 12.6807 11.9915L12.6911 12.1024L12.5834 12.1268C12.4277 12.161 12.257 12.1268 12.1153 12.0658C12.1187 12.2365 12.1973 12.4243 12.2601 12.5064L12.3173 12.5823L12.2614 12.6603C12.213 12.7272 12.1502 12.7863 12.0781 12.8355C12.2122 12.9827 12.3423 13.0998 12.4605 13.1787C12.7617 13.3774 13.0834 13.5616 13.3953 13.7383C14.3196 14.2638 15.1935 14.7611 15.1935 15.5523C15.1935 15.6921 15.1661 15.813 15.1162 15.9111C15.2411 15.9856 15.3668 16.0165 15.5563 16.0165C16.2506 16.0165 16.7551 15.498 16.7551 14.7836C16.7551 14.1724 16.1754 13.8423 15.6144 13.5222Z" fill="#00529F"/>
<path d="M10.1716 7.88903C10.1435 7.82773 10.0859 7.74769 10.034 7.69914C9.91796 7.58942 9.77479 7.53085 9.67119 7.50781C9.65277 7.60465 9.6078 7.71228 9.52802 7.80521C9.4891 7.85194 9.4591 7.9014 9.42773 7.92456C9.55119 7.89515 9.6855 7.87276 9.82522 7.87276C9.94132 7.87276 10.0659 7.87914 10.1716 7.88903Z" fill="#00529F"/>
<path d="M17.4984 14.482C17.5086 14.5891 17.5206 14.7165 17.5206 14.8584C17.5206 15.1034 17.4844 15.3899 17.3446 15.6791C17.4734 15.6666 17.6015 15.689 17.7142 15.7528L17.8733 15.8428L17.7319 15.9614C17.5521 16.1128 17.4534 16.2418 17.3493 16.3786L17.2673 16.4836C17.1049 16.6883 16.894 16.7798 16.5887 16.7798C16.4746 16.7798 16.3614 16.7386 16.2604 16.665C16.0699 16.7924 15.7775 16.8685 15.4621 16.8685C15.0508 16.8685 14.6915 16.747 14.5143 16.6753C14.153 16.86 13.9757 17.115 13.9757 17.4532C13.9757 17.8485 14.2974 18.2335 14.6377 18.2619C14.7681 18.1462 14.9615 18.0743 15.1661 18.0743C15.555 18.0743 15.8705 18.4247 15.8705 18.8563C15.8705 19.0449 15.8364 19.1804 15.8033 19.312C15.7708 19.4428 15.7401 19.5671 15.7401 19.7484C15.7401 19.873 15.8179 19.9528 15.8525 19.9828L15.9329 20.0516L15.8798 20.144C15.7671 20.3386 15.4988 20.4089 15.1762 20.3424C15.1489 20.475 15.0955 20.5597 14.9906 20.6471L14.9451 20.6849L14.8873 20.6727C14.7897 20.6536 14.7085 20.6048 14.6478 20.532C14.5426 20.7058 14.3925 20.8916 14.2246 21.0328C14.2974 21.1105 14.342 21.2019 14.342 21.2981C14.342 21.3646 14.3248 21.4335 14.2956 21.4898C14.3659 21.5743 14.4021 21.6641 14.4021 21.7598C14.4021 21.9892 14.1353 22.275 13.9606 22.2884L13.875 22.2947L13.8403 22.2206C13.763 22.0652 13.6907 21.9999 13.6355 21.974C13.5457 22.0046 13.4207 22.0012 13.2864 21.9015C13.2333 22.0041 13.151 22.0992 13.0558 22.1592C13.0579 22.1723 13.0607 22.1864 13.0607 22.2008C13.0607 22.2835 13.0373 22.372 12.9923 22.4579C12.9274 22.5801 12.8225 22.687 12.6843 22.7367C12.6174 22.9289 12.4953 23.115 12.3058 23.2209L12.1382 23.3138L12.1234 23.1192C12.115 23.0077 12.0783 22.8525 11.9859 22.6842C11.9044 22.6527 11.8219 22.5896 11.7691 22.5253C11.6314 22.6087 11.4801 22.6388 11.3081 22.612C11.2144 22.6495 11.1126 22.7346 10.9754 22.9134L10.9108 22.9978L10.8187 22.9462C10.6859 22.8718 10.594 22.6945 10.594 22.515C10.594 22.3093 10.6529 22.1536 10.8085 22.0631C10.8052 22.0419 10.8013 21.9961 10.8013 21.9834C10.8013 21.8053 10.8679 21.667 11.009 21.5541C10.9567 21.4936 10.9181 21.4257 10.8983 21.352C10.8283 21.3676 10.7685 21.4021 10.7185 21.4557L10.5394 21.6487L10.5061 21.3848C10.4709 21.115 10.5157 20.8987 10.6347 20.7599C10.7263 20.6536 10.8577 20.5987 11.0144 20.5987C11.168 20.5987 11.2599 20.6442 11.3182 20.6887C11.3744 20.6713 11.4322 20.6626 11.4887 20.6626C11.6259 20.6626 11.7105 20.7111 11.7787 20.7496C11.8443 20.7871 11.8953 20.8173 12.0093 20.8173C12.152 20.8173 12.4959 20.677 12.7791 20.3741C12.9155 20.2289 13.0675 20.01 13.1292 19.7213C13.0886 19.7812 13.0461 19.8498 13.0006 19.9386L12.9522 20.0305L12.8548 19.9992C12.6487 19.9345 12.4922 19.7413 12.417 19.4851C12.3535 19.537 12.2722 19.581 12.1585 19.615L12.0005 19.6599V19.4923C12.0005 19.1447 11.9445 19.0857 11.6332 18.757L11.4887 18.6027C11.009 18.0886 10.9134 17.6593 10.9134 17.1328C10.9134 17.0798 10.9163 17.0245 10.9218 16.9691C10.8502 16.9666 10.7856 16.9649 10.7315 16.9649C10.3512 16.9649 10.1172 17.3184 10.1172 17.5721C10.1172 17.6714 10.1457 17.7243 10.1889 17.8035C10.2557 17.931 10.3402 18.0886 10.3402 18.4527C10.3402 19.1428 9.92089 19.528 9.51058 19.8136L9.33039 19.9392L9.31581 19.711C9.31047 19.6351 9.3065 19.5712 9.29407 19.5136C9.16939 19.648 9.01541 19.761 8.86404 19.8196L8.76057 19.86C8.76057 19.86 8.67864 19.6979 8.64734 19.6351C8.38046 19.7891 8.02039 19.9242 7.79399 19.9936C7.79613 20.0114 7.799 20.0305 7.799 20.049C7.799 20.2199 7.7116 20.3724 7.65713 20.4479L7.65791 20.4608C7.65791 20.7285 7.40691 20.8916 7.15858 20.9128L6.97526 20.9287L7.02907 20.7496C7.07248 20.6082 6.94727 20.532 6.94727 20.532C6.81764 20.4763 6.67785 20.3695 6.61453 20.242C6.56553 20.2599 6.5136 20.2734 6.4618 20.281C6.45835 20.4999 6.38475 20.6399 6.31661 20.7226C6.2272 20.8312 6.08767 20.9062 5.93969 20.9298C5.87943 21.0505 5.80934 21.1501 5.70912 21.2333L5.64496 21.2863L5.5722 21.2475C5.43007 21.1705 5.24252 20.967 5.23582 20.7732L5.23471 20.7473C5.16579 20.6967 5.10905 20.6095 5.08575 20.5238C5.07495 20.4862 5.07013 20.4451 5.07013 20.4026C5.07013 20.3386 5.0825 20.2707 5.10508 20.2036C5.0892 20.2036 5.07358 20.2045 5.05581 20.2045C4.95918 20.2045 4.87269 20.1628 4.80286 20.0963C4.73011 20.1464 4.65501 20.2161 4.60997 20.3048L4.52537 20.472L4.4055 20.3291C4.32442 20.2318 4.23084 20.0905 4.23084 19.8498C4.23084 19.5572 4.43544 19.3321 4.73473 19.2862C4.83768 19.162 4.98983 19.0874 5.13287 19.0874C5.19078 19.0874 5.24408 19.0921 5.29582 19.1006C5.2951 19.0993 5.2951 19.0968 5.2951 19.095C5.22501 19.0667 5.13976 19.0559 5.03968 19.0617L4.8997 19.0696L4.90861 18.9271C4.92364 18.6955 5.13501 18.4349 5.39604 18.4349C5.5722 18.4349 5.65797 18.4827 5.74036 18.5593C5.78396 18.5512 5.82834 18.5476 5.87331 18.5476C6.08077 18.5476 6.18685 18.6397 6.27295 18.7135C6.34115 18.7725 6.38189 18.808 6.47156 18.808C6.65332 18.808 7.22339 18.682 7.46398 18.3937C7.39507 18.3712 7.33031 18.3389 7.27799 18.2971L7.17081 18.2128L7.26218 18.111C7.40899 17.9494 7.43763 17.8673 7.43763 17.2773C7.43763 16.7625 7.68967 16.2778 8.14716 15.9121C8.60706 15.547 9.22665 15.3446 9.89239 15.3446L10.3054 15.3536L10.7463 15.3614C10.7549 15.3614 10.8153 15.3562 10.9317 15.2193C10.013 15.1386 9.21507 14.9109 8.41723 14.197C8.36894 14.3335 8.28428 14.4361 8.16902 14.4937L8.10785 14.5237L8.05039 14.4873C7.8562 14.3661 7.68908 14.2744 7.40691 14.2364C7.36721 14.4318 7.22007 14.6171 7.09734 14.6863L7.00181 14.7393L6.88109 14.5705C6.78966 14.4432 6.70252 14.3212 6.62404 14.2706C6.58792 14.3746 6.52108 14.4656 6.42653 14.5317L6.35826 14.5791L6.23943 14.5013C5.99761 14.3437 5.82301 14.2295 5.45617 14.2295C5.28365 14.2295 5.12681 14.2814 5.03271 14.326C5.05718 14.3821 5.06694 14.4436 5.06903 14.5181C5.06942 14.5213 5.06942 14.5246 5.06942 14.5275C5.06942 14.6535 4.99575 14.7723 4.93191 14.8362C4.90933 14.8594 4.86163 14.894 4.83143 14.9072C4.79076 15.0272 4.73199 15.1815 4.52895 15.3151L4.43824 15.3751L4.36789 15.292C4.29155 15.2005 4.24658 15.12 4.21112 15.0385C4.12801 15.0178 4.01192 14.9596 3.94443 14.8841C3.92075 14.9266 3.89875 14.9911 3.89875 15.0807C3.89875 15.2293 3.76248 15.3713 3.6253 15.4185C3.59113 15.5306 3.57499 15.6241 3.57766 15.6863L3.58371 15.8099L3.46267 15.8184C3.34586 15.8263 3.2211 15.78 3.12154 15.6915C3.02861 15.6084 2.97232 15.4991 2.96548 15.3929L2.96483 15.3574C2.86051 15.2845 2.805 15.1555 2.805 14.9823C2.805 14.9456 2.808 14.9063 2.81255 14.8636C2.7929 14.8571 2.77259 14.8495 2.75268 14.8388C2.74305 14.8321 2.73153 14.8237 2.71858 14.8135C2.64088 14.8495 2.58146 14.9185 2.54131 15.0225L2.47513 15.1932L2.33202 15.0585C2.23864 14.9715 2.09755 14.8397 2.09755 14.6007C2.09755 14.4246 2.18814 14.2785 2.34979 14.1864C2.34888 14.1745 2.34836 14.1641 2.34836 14.1524C2.34836 14.0793 2.36684 14.0016 2.41656 13.9314C2.47044 13.8534 2.55153 13.8001 2.65507 13.7683C2.60001 13.695 2.55908 13.6106 2.54483 13.5176C2.46075 13.4756 2.36873 13.4536 2.27059 13.4536H2.08525L2.15606 13.2792C2.22972 13.095 2.41656 12.8794 2.69867 12.8794C2.7562 12.8794 2.8829 12.8794 3.00973 12.9385C3.037 12.9327 3.06505 12.9286 3.09219 12.9286C3.21076 12.9286 3.30557 12.9983 3.39688 13.0645C3.48297 13.1263 3.56477 13.1848 3.65757 13.1848C3.71933 13.1848 3.97255 13.0767 4.14018 13.005C4.33184 12.9236 4.52895 12.8386 4.6619 12.8045C4.83293 12.7611 5.16228 12.5831 5.57552 12.3116C5.55085 12.2686 5.52899 12.2231 5.50934 12.1752L5.46157 12.0588L5.57552 12.0099C5.63155 11.9861 5.67502 11.9611 5.71042 11.9335C5.70697 11.832 5.68244 11.7001 5.60825 11.5498C5.46638 11.6816 5.24682 11.742 5.06551 11.7127L4.91688 11.6884L4.96803 11.5437C5.0387 11.3475 5.07449 11.1575 5.07449 10.9619C5.07449 10.851 5.06193 10.7382 5.0387 10.6214C4.91954 10.724 4.76674 10.725 4.69731 10.725C4.69646 10.725 4.57262 10.725 4.57262 10.725L4.57184 10.5989C4.56826 10.2561 4.50696 9.82942 4.11617 9.25935C4.10407 9.26533 4.09053 9.27119 4.07752 9.27666C3.95868 9.47983 3.7386 9.62221 3.5295 9.62221C3.29744 9.62221 3.13449 9.47475 3.05939 9.33666L2.97687 9.18438L3.14392 9.1508C3.24629 9.12997 3.32256 9.07999 3.37859 9.02598C3.28729 8.90936 3.23126 8.76893 3.21616 8.63422C3.07728 8.60441 2.96392 8.55157 2.87678 8.47986C2.7765 8.53504 2.70426 8.61964 2.66196 8.73079L2.58758 8.92941L2.4519 8.7675C2.37075 8.67066 2.27827 8.52892 2.27827 8.28866C2.27827 8.01286 2.46764 7.79082 2.74578 7.73225C2.84001 7.59429 3.00511 7.52986 3.16924 7.52986C3.19052 7.52986 3.20874 7.53117 3.2293 7.53234C3.11334 7.45789 2.96939 7.35312 2.96939 7.13394C2.96939 7.07797 2.9826 7.02357 3.00511 6.97203C2.95644 6.946 2.90054 6.92803 2.8365 6.91944L2.72932 6.90357V6.79098C2.73368 6.59901 2.9483 6.31436 3.23828 6.31436C3.45427 6.31436 3.62614 6.42369 3.71692 6.6158C3.77328 6.63766 3.82508 6.66968 3.86888 6.71159C3.92075 6.763 3.9568 6.8273 3.97521 6.89732C3.97177 6.86947 3.96975 6.8407 3.96975 6.81064C3.96975 6.80009 3.96975 6.78903 3.9704 6.77836C3.97255 6.74244 3.97938 6.70781 3.99226 6.67645C3.94515 6.61436 3.87578 6.54044 3.77406 6.47757L3.67248 6.41393L3.73124 6.30733C3.81018 6.16416 3.9855 6.08112 4.2132 6.08112C4.46941 6.08112 4.68078 6.30317 4.72867 6.52365C4.84581 6.58716 4.93861 6.69363 4.93861 6.84695C4.93861 6.96357 4.90724 7.08136 4.87946 7.18548C4.85863 7.26383 4.83904 7.33789 4.83768 7.39047C4.83507 7.5654 4.97694 7.72939 5.1902 7.9772C5.3225 8.12922 5.4861 8.31977 5.65797 8.56315C5.78207 8.73977 6.56553 9.23761 7.13613 9.53371C7.22073 9.35319 7.34684 9.20533 7.46151 9.11201L7.54396 9.04563L7.6216 9.11748C7.80147 9.28329 7.94002 9.40512 8.3336 9.42698C8.3336 9.28069 8.3336 8.91353 8.3336 8.91353H8.45679C8.54907 8.91353 8.64311 8.96923 8.77404 9.04667C8.97233 9.16577 9.24442 9.32703 9.57976 9.32703C9.71701 9.32703 9.94809 9.28355 9.94809 9.11943C9.94809 8.98069 9.88751 8.96403 9.84169 8.96403C9.78521 8.96403 9.69182 9.11748 9.50017 9.11748C9.24858 9.11748 9.024 8.93318 9.024 8.70841C9.024 8.66624 9.0322 8.62888 9.04802 8.59556C9.02537 8.53921 9.02153 8.50094 9.03513 8.44927C8.82122 8.52489 8.52168 8.61053 8.27133 8.61053C7.80088 8.61053 7.29426 8.35634 7.29426 7.79863C7.29426 7.42353 7.55008 7.22192 7.79008 7.22192C7.87859 7.22192 7.95909 7.24847 8.01714 7.29598L8.1003 7.36431L8.03295 7.42288C7.95011 7.52479 7.91549 7.63945 7.91549 7.7467C7.91549 7.92423 8.11189 8.11477 8.54289 8.11477C8.64981 8.11477 8.80046 8.09733 8.93843 8.0687C8.92261 8.04293 8.91305 8.0169 8.90765 7.99347C8.88715 7.99061 8.86723 7.98527 8.84888 7.97942C8.59333 7.88805 8.40792 7.6716 8.40792 7.42288C8.40792 7.35715 8.41794 7.27073 8.45335 7.18834C8.45335 7.18834 8.39074 7.13615 8.39074 6.97346C8.39074 6.63766 8.94038 6.27297 9.15578 6.14191C9.28184 5.88967 9.7431 5.36242 10.6828 5.34732C10.859 5.22849 11.0621 5.21105 11.2232 5.21105C11.3031 5.21105 11.4005 5.22081 11.5072 5.24996C11.6246 5.17213 11.7449 5.13322 11.8568 5.13322C11.9909 5.13322 12.2212 5.31244 12.2704 5.59786C12.3824 5.66633 12.6317 5.75769 12.7689 5.77683L12.9084 5.79544L12.8723 5.93405C12.8514 6.01397 12.8061 6.09063 12.7476 6.15844C12.8369 6.2144 12.9134 6.27245 12.9871 6.32803C13.1024 6.41601 13.2122 6.49905 13.365 6.57167L13.5006 6.63532L13.4137 6.7604C13.3499 6.8515 13.2877 6.91476 13.2258 6.96005C13.3879 7.14917 13.4848 7.44969 13.5157 7.5598C13.5891 7.81178 13.8276 8.10918 13.97 8.24792L14.1066 8.38029L13.9338 8.4563C13.8271 8.50289 13.7097 8.53361 13.5665 8.55066C13.5834 8.65036 13.5933 8.77244 13.5933 8.92342C13.5933 9.20117 13.5639 9.56482 13.5056 10.0125C13.5022 10.0412 13.5006 10.0685 13.5006 10.0942C13.5006 10.2432 13.5535 10.3582 13.6022 10.4329L13.73 10.6283C13.7849 9.57965 14.3552 9.03431 14.7051 8.72572C14.6978 8.65101 14.6934 8.57851 14.6934 8.51005C14.6934 7.50175 15.4608 7.1506 15.7653 7.01172L15.7994 6.99545C15.8754 6.96005 15.9894 6.89406 16.0907 6.83693L16.394 6.66669L16.4359 6.82183C16.4619 6.92023 16.4723 7.01328 16.4723 7.09984C16.4723 7.17233 16.4635 7.23845 16.4499 7.30118C16.7985 7.1355 17.1561 6.85515 17.3076 6.46508L17.4295 6.14867L17.5401 6.46911C17.6205 6.70651 17.6531 6.93428 17.6531 7.28114C17.6531 8.08536 17.1556 9.02051 15.7593 9.23123C15.2288 9.31245 14.8891 9.53306 14.66 9.95879C14.8928 9.82747 15.1145 9.78009 15.3759 9.75888L15.7697 9.72751L15.4649 9.98326C15.4553 9.99068 15.4498 9.99875 15.4402 10.0056C15.6302 9.95333 15.8103 9.95046 15.9871 9.94812C16.2833 9.94421 16.5632 9.9407 16.8896 9.68859L17.1712 9.47072L17.0845 9.82044C16.9635 10.3152 16.4783 10.4909 16.0103 10.6603C15.4509 10.8636 14.9235 11.0549 14.9235 11.7454C14.9235 12.0302 15.0502 12.2864 15.2611 12.4513C15.2554 12.3844 15.2535 12.3196 15.2535 12.2549C15.2535 12.0312 15.4909 11.6121 16.0647 11.6121C16.2188 11.6121 16.37 11.6496 16.5038 11.6827C16.6095 11.7083 16.7089 11.7336 16.787 11.7336C16.9419 11.7336 17.0424 11.6781 17.1348 11.543L17.3602 11.2077V11.6149C17.3602 12.0414 16.9945 12.1952 16.7009 12.3185C16.4036 12.4435 16.2211 12.5306 16.2211 12.7462C16.2211 13.0439 16.5064 13.2666 16.7678 13.4475C16.8271 13.2422 17.0015 13.0724 17.1947 12.9901L17.3573 12.9327C17.4708 12.8986 17.5591 12.8714 17.6916 12.7405L17.8079 12.6243L17.8866 12.7706C17.9511 12.8916 17.9568 13.0037 17.9568 13.1263C17.9568 13.3486 17.8355 13.5361 17.7174 13.7185C17.5987 13.9023 17.4862 14.077 17.4862 14.2828C17.4862 14.3362 17.4919 14.4043 17.4984 14.482ZM1.69727 4.85352L1.9454 15.1014C1.9454 20.3649 5.56582 23.8679 10.1848 23.8679C14.803 23.8679 18.4238 20.3649 18.4238 15.1014L18.6716 4.85352H1.69727Z" fill="#00529F"/>
<path d="M9.36025 8.44146C9.56303 8.44146 9.64236 8.47348 9.80043 8.47348C9.90878 8.47348 10.1353 8.46775 10.2088 8.30923C10.0727 8.28163 9.92375 8.26758 9.76444 8.26758C9.56446 8.26758 9.41264 8.3117 9.27539 8.35621C9.28483 8.39513 9.31151 8.42298 9.33259 8.44211C9.34229 8.44211 9.35127 8.44146 9.36025 8.44146Z" fill="#00529F"/>
<path d="M17.0292 15.9395C17.5454 15.3026 17.354 14.6079 17.354 14.2881C17.354 13.8207 17.8247 13.516 17.8247 13.1302C17.8247 13.0239 17.8216 12.9325 17.7708 12.8354C17.556 13.0482 17.4259 13.0295 17.2351 13.1112C17.019 13.204 16.817 13.4279 16.8696 13.6797C16.5661 13.4654 16.0895 13.1918 16.0895 12.7504C16.0895 12.1172 17.2294 12.292 17.2294 11.6187C17.1156 11.7871 16.9776 11.8645 16.7788 11.8645C16.5812 11.8645 16.3191 11.7431 16.0575 11.7431C15.5689 11.7431 15.3705 12.0882 15.3705 12.259C15.3705 12.43 15.3731 12.5673 15.452 12.7075C15.0855 12.5741 14.7916 12.2197 14.7916 11.7491C14.7916 10.3501 16.7181 10.7627 16.9576 9.79393C16.2772 10.3188 15.7706 9.86252 15.1388 10.2844C15.1706 10.1198 15.2315 10.013 15.3783 9.88921C14.9819 9.92122 14.7111 10.013 14.3634 10.3315C14.6271 9.50096 15.0844 9.20863 15.7342 9.11037C16.9506 8.92672 17.5219 8.13968 17.5219 7.28509C17.5219 6.96465 17.4946 6.74678 17.415 6.51562C17.2202 7.02114 16.7059 7.37099 16.2352 7.52757C16.3206 7.36475 16.3818 7.13372 16.3084 6.8591C16.2105 6.90856 15.9783 7.05264 15.8432 7.11472C15.5582 7.24839 14.6757 7.60215 14.8285 8.78277C14.4631 9.10308 13.8422 9.65063 13.8422 10.7973C13.8422 11.6752 14.7619 12.8776 15.3682 13.2518C15.9749 13.626 16.8738 13.9877 16.8738 14.7996C16.8738 15.5888 16.3092 16.1598 15.5506 16.1598C15.2966 16.1598 15.1287 16.1124 14.94 15.9639C15.0217 15.8766 15.0639 15.7375 15.0639 15.5693C15.0639 14.6063 13.6199 14.0828 12.3871 13.3005C12.2237 13.1973 12.1029 13.0904 11.9639 12.9247C11.8501 12.9895 11.6315 13.0032 11.4552 13.0032C11.3016 13.0032 11.0614 12.9535 10.8164 12.8673C10.3526 13.2479 9.6336 13.6268 8.61553 13.6268C8.07943 13.6268 7.73583 13.4288 7.26044 13.4288C7.02122 13.4288 6.75941 13.4915 6.58833 13.7206C6.31299 13.6333 6.16897 13.1983 6.31299 12.8349C6.06107 12.7792 5.83161 12.6658 5.6451 12.4153C5.36905 12.5956 4.95587 12.8626 4.6845 12.932C4.41398 13.0005 3.80844 13.3156 3.6503 13.3156C3.40614 13.3156 3.2588 13.0596 3.08511 13.0596C2.87849 13.0596 2.65619 13.3059 2.65619 13.4547C2.65619 13.6322 2.80684 13.7944 2.9547 13.8612C2.57615 13.8489 2.45439 13.9632 2.47007 14.1954C2.68339 14.2295 2.81771 14.5174 2.76519 14.6932C2.78159 14.7381 2.86418 14.7832 2.95203 14.7577C2.92476 14.8722 2.8593 15.1155 3.03338 15.258C3.10073 15.1304 3.19015 15.0872 3.31893 15.0872C3.44687 15.0872 3.55757 15.2097 3.58829 15.2973C3.67263 15.2782 3.76692 15.1971 3.76692 15.0845C3.76692 14.8605 3.87937 14.7104 3.97478 14.7048C4.00549 14.842 4.12413 14.8866 4.22161 14.918C4.20586 14.6737 4.36901 14.596 4.47593 14.596C4.64513 14.596 4.71808 14.6697 4.78231 14.7938C4.88084 14.7564 4.94227 14.6482 4.93765 14.5257C4.93342 14.4038 4.91377 14.3528 4.84759 14.2942C4.89952 14.2358 5.16054 14.1068 5.44968 14.1068C5.8784 14.1068 6.07292 14.2524 6.3491 14.431C6.43403 14.3725 6.51394 14.2731 6.5241 14.1237C6.71223 14.1026 6.85221 14.3345 7.03013 14.5791C7.13979 14.5174 7.31172 14.2971 7.28439 14.1009C7.66483 14.1297 7.86728 14.2342 8.108 14.3832C8.26698 14.3054 8.3236 14.1208 8.33238 13.9568C9.19634 14.8022 10.0363 15.0396 11.1272 15.1121C11.9592 15.1675 12.4431 15.6574 12.5147 15.9025C12.3845 15.8351 12.2218 15.8003 12.0141 15.8003C11.4693 15.8003 11.0307 16.4672 11.0307 17.138C11.0307 17.6125 11.1062 18.0198 11.5705 18.5211C12.0032 18.9849 12.1174 19.0418 12.1174 19.4964C12.3551 19.4276 12.4191 19.3103 12.4834 19.1546C12.4868 19.5051 12.6459 19.808 12.8835 19.8831C13.0124 19.6375 13.1217 19.4889 13.275 19.3914C13.3188 20.3889 12.3476 20.9486 12.0021 20.9486C11.7244 20.9486 11.7049 20.7939 11.4805 20.7939C11.259 20.7939 10.9989 20.9781 10.9989 21.2359C10.9989 21.3968 11.1002 21.5082 11.2098 21.5724C10.9445 21.7122 10.9122 21.8543 10.9317 22.0498C11.2629 21.9831 11.3987 22.2938 11.3378 22.4959C11.5427 22.5394 11.6918 22.4439 11.7973 22.3491C11.8301 22.4495 11.924 22.545 12.0362 22.5752C12.107 22.4525 12.2174 22.3632 12.3525 22.3632C12.4889 22.3632 12.6019 22.4158 12.6591 22.6051C12.8125 22.5718 12.9955 22.288 12.9057 22.0922C13.0618 22.0498 13.2178 21.8271 13.2253 21.6731C13.3294 21.8096 13.4664 21.9151 13.6134 21.8479C13.5983 21.5862 13.8188 21.3968 13.9659 21.3968C14.0513 21.3968 14.1216 21.409 14.1767 21.4374C14.1957 21.4032 14.2108 21.3545 14.2108 21.302C14.2108 21.1781 14.1065 21.0846 14.0127 21.0339C14.2957 20.8524 14.5662 20.4835 14.6466 20.2446C14.669 20.3996 14.7484 20.521 14.9046 20.5534C15.0115 20.4633 15.0495 20.3889 15.0657 20.1896C15.3593 20.285 15.6607 20.2659 15.7654 20.0832C15.6873 20.0167 15.6084 19.9029 15.6084 19.7532C15.6084 19.3661 15.7388 19.2128 15.7388 18.8606C15.7388 18.5004 15.4835 18.2061 15.1597 18.2061C14.9462 18.2061 14.7619 18.2904 14.6682 18.3973C14.2621 18.3973 13.8441 17.9496 13.8441 17.4578C13.8441 16.9895 14.1424 16.7106 14.5003 16.5401C14.7208 16.636 15.0787 16.7467 15.4556 16.7467C15.8313 16.7467 16.1207 16.636 16.2574 16.5071C16.3094 16.5611 16.4237 16.6573 16.5812 16.6573C16.8543 16.6573 17.0284 16.5775 17.1648 16.4074C17.2996 16.2371 17.4077 16.0687 17.6466 15.8677C17.4587 15.7605 17.2234 15.7923 17.0292 15.9395Z" fill="white"/>
<path d="M6.03041 11.3861C6.25141 10.9505 6.65066 10.5047 7.10099 10.3976C7.07639 10.2715 7.05185 10.1809 7.05185 9.95991C7.05185 9.87466 7.07776 9.73734 7.10138 9.65873C6.571 9.38294 5.71817 8.86727 5.55717 8.6382C5.09825 7.98639 4.70837 7.74326 4.71384 7.38846C4.71573 7.24165 4.81393 7.03314 4.81393 6.84806C4.81393 6.66286 4.58714 6.58008 4.44325 6.58008C4.27672 6.58008 4.10218 6.63175 4.09398 6.78585C4.08643 6.93995 4.1478 7.07713 4.16967 7.15666C4.19824 7.26351 4.18464 7.4141 4.16635 7.53228C4.01492 7.36686 3.86758 7.17553 3.86758 7.00659C3.86758 6.83349 3.71745 6.70763 3.54382 6.71544C3.37 6.7239 3.09317 6.93266 3.09317 7.13505C3.09317 7.31154 3.22469 7.38026 3.34547 7.45835C3.42389 7.51016 3.51031 7.57276 3.56068 7.75771C3.42851 7.68274 3.32757 7.65736 3.16885 7.65736C3.01 7.65736 2.79102 7.73272 2.79102 8.00982C2.79102 8.35746 3.04664 8.49164 3.33389 8.53004C3.31209 8.78488 3.53562 9.17847 3.93175 9.17847C4.0183 9.17847 4.10492 9.13525 4.14312 9.07786C4.62039 9.72719 4.69217 10.2167 4.69458 10.5987C4.87536 10.5987 5.03779 10.5513 5.07306 10.2747C5.24968 10.79 5.22443 11.1983 5.08387 11.5879C5.2735 11.6187 5.54897 11.5281 5.61782 11.32C5.79385 11.6153 5.80824 11.7106 5.81364 11.8568C5.92817 11.6993 5.91639 11.6096 6.03041 11.3861Z" fill="white"/>
<path d="M12.2551 15.7178C11.9977 15.4151 11.4614 15.249 11.0756 15.2351C11.0743 15.2351 11.0772 15.2322 11.0723 15.2378C11.5335 15.3509 11.7264 15.5265 11.8547 15.7011C12.0385 15.6728 12.1947 15.6906 12.2551 15.7178Z" fill="white"/>
<path d="M10.9959 15.3359C10.9157 15.4274 10.8267 15.5051 10.7442 15.5051C10.4125 15.5051 10.1945 15.488 9.88995 15.488C8.54814 15.488 7.55916 16.3303 7.55916 17.294C7.55916 17.8833 7.53417 18.0129 7.35053 18.2147C7.43109 18.2775 7.55526 18.3184 7.66088 18.3141C7.48302 18.7956 6.66598 18.9515 6.46841 18.9515C6.19157 18.9515 6.18409 18.6914 5.87101 18.6914C5.66784 18.6914 5.41169 18.7849 5.41169 19.019C5.41169 19.1255 5.43668 19.2422 5.47703 19.3084C5.3638 19.2454 5.23631 19.2305 5.12985 19.2305C4.94164 19.2305 4.73242 19.4052 4.73242 19.6444C4.73242 19.8674 4.8778 20.0954 5.05338 20.0954C5.15588 20.0954 5.23631 20.0877 5.32026 20.0653C5.16277 20.2814 5.12861 20.4782 5.2956 20.6389C5.32761 20.5603 5.43805 20.4355 5.65345 20.4355C5.81387 20.4355 5.98697 20.5876 5.94669 20.8144C6.12344 20.7717 6.37769 20.6268 6.32986 20.181C6.46841 20.181 6.61561 20.1407 6.6762 20.0718C6.70906 20.218 6.79692 20.3623 6.97165 20.43C7.01916 20.3405 7.14554 20.199 7.29476 20.199C7.45914 20.199 7.53619 20.2725 7.58383 20.3489C7.66914 20.2315 7.71945 20.1318 7.64741 19.9203C7.88878 19.8585 8.41297 19.6668 8.69397 19.4729L8.81736 19.7189C9.01838 19.6406 9.21075 19.4658 9.32066 19.2942C9.41951 19.4284 9.427 19.5585 9.43715 19.7254C9.82787 19.454 10.2138 19.1006 10.2138 18.4698C10.2138 17.8941 9.99076 17.8996 9.99076 17.5879C9.99076 17.2782 10.2732 16.8552 10.7283 16.8552C10.8303 16.8552 10.8761 16.8564 10.93 16.86C11.0058 16.3505 11.3358 15.8748 11.7104 15.7382C11.5594 15.5508 11.3046 15.4139 10.9959 15.3359Z" fill="white"/>
<path d="M9.00586 7.98454C9.01259 8.00584 9.02624 8.03588 9.03453 8.0462C9.03453 8.0462 9.13845 8.01982 9.13845 8.01877C9.14048 8.0091 9.14107 7.98611 9.14107 7.97266C9.09188 7.98794 9.04668 7.9865 9.00586 7.98454Z" fill="white"/>
<path d="M9.11855 8.52654C9.14585 8.4863 9.18132 8.46657 9.24082 8.4539C9.22188 8.42386 9.20993 8.40361 9.20241 8.37696C9.20241 8.37644 9.11509 8.41014 9.11509 8.40923C9.10816 8.43718 9.10058 8.47115 9.11855 8.52654Z" fill="white"/>
<path d="M13.3761 10.0019C13.4995 9.0487 13.4722 8.60708 13.4019 8.44322C13.5833 8.4332 13.7374 8.40808 13.8777 8.34652C13.7213 8.1945 13.4709 7.87887 13.3909 7.60178C13.3248 7.3731 13.1725 7.01075 12.9851 6.94021C13.1093 6.90064 13.1983 6.84611 13.3056 6.69357C12.9851 6.54181 12.8469 6.34918 12.5246 6.18571C12.6269 6.12623 12.7162 6.01937 12.7459 5.90861C12.5785 5.88609 12.4184 5.82219 12.2596 5.74488C12.2341 5.87021 12.1896 5.98553 12.0545 6.13547L11.9621 6.05672C12.0462 5.9595 12.1443 5.80709 12.1443 5.68435C12.1443 5.51385 12.0069 5.34661 11.9124 5.29194C11.8098 5.23272 11.7177 5.24196 11.5021 5.38865C11.4303 5.43993 11.2624 5.59351 11.1661 5.67629L11.0984 5.59585C11.1924 5.50513 11.3121 5.40921 11.3699 5.36001C11.3069 5.34739 11.2562 5.34452 11.2158 5.34452C11.0344 5.34452 10.8571 5.36873 10.7155 5.4791C9.81002 5.4791 9.34368 5.99373 9.24541 6.23751C8.89758 6.4425 8.51297 6.755 8.51297 6.97938C8.51297 7.0386 8.52124 7.07609 8.53439 7.10238C8.62771 7.05435 8.71829 6.97483 8.80003 6.9022L8.85534 6.96429C8.78584 7.03483 8.64196 7.14793 8.58118 7.18685C8.53614 7.24633 8.52482 7.34459 8.52482 7.42906C8.52482 7.67922 8.78441 7.89423 9.05363 7.89423C9.43765 7.89423 9.57327 7.53891 9.55088 7.37531C9.75939 7.35852 10.3513 7.56885 10.3513 8.17536C10.3513 8.55385 9.93614 8.59394 9.79095 8.59394C9.64492 8.59394 9.53715 8.54917 9.37635 8.54917C9.21535 8.54917 9.14116 8.60617 9.14116 8.71433C9.14116 8.86114 9.31075 8.99312 9.49492 8.99312C9.67616 8.99312 9.68937 8.8437 9.83442 8.8437C9.91974 8.8437 10.0651 8.88835 10.0651 9.12575C10.0651 9.36106 9.81816 9.46037 9.57269 9.46037C9.00535 9.46037 8.61541 9.047 8.45031 9.047V9.56423C7.92455 9.56423 7.75001 9.41755 7.53175 9.21724C7.35181 9.3638 7.15424 9.64571 7.15424 9.96498C7.15424 10.1864 7.17246 10.3685 7.21743 10.4952C6.7682 10.5591 6.30518 10.997 6.08502 11.5096C5.94394 11.8361 5.90574 12.0096 5.61719 12.1326C5.77877 12.5319 6.13819 12.7348 6.479 12.7476C6.26431 12.9915 6.38971 13.5258 6.54798 13.5492C6.75577 13.3584 6.97755 13.3158 7.21684 13.3158C7.76895 13.3158 8.067 13.5117 8.60246 13.5117C9.62123 13.5117 10.2707 13.1653 10.7631 12.7326C10.9873 12.84 11.3152 12.8981 11.468 12.8981C11.7687 12.8981 12.0259 12.7843 12.1566 12.6031C12.0532 12.4663 11.9264 12.1307 12.016 11.8857C12.1402 11.9868 12.3721 12.061 12.5512 12.0219C12.5127 11.6058 12.6176 11.2406 12.7383 11.0808C12.8758 10.8977 12.9633 10.6623 12.9953 10.505H13.4974C13.4243 10.3932 13.3467 10.224 13.3761 10.0019ZM9.98254 6.58918C9.98254 6.58918 9.92937 6.49925 9.87406 6.44732C9.85017 6.51291 9.75484 6.60884 9.65865 6.60884C9.52023 6.60884 9.4329 6.48311 9.4329 6.36974C9.4329 6.31716 9.4588 6.23399 9.49973 6.18727C9.66483 6.2025 9.88512 6.29386 10.0546 6.53192C10.0542 6.531 9.98254 6.58918 9.98254 6.58918Z" fill="white"/>
<path d="M9.49609 6.37638C9.49609 6.45799 9.55349 6.54519 9.65774 6.54519C9.73805 6.54519 9.80697 6.45643 9.82402 6.40983C9.76655 6.34775 9.64479 6.27304 9.52668 6.26172C9.50546 6.28918 9.49609 6.33864 9.49609 6.37638Z" fill="white"/>
<path d="M10.224 8.00206C10.1423 7.99009 10.0462 7.98046 9.82405 7.98046C9.5491 7.98046 9.29816 8.06857 9.10716 8.12441C8.9157 8.18037 8.80865 8.22345 8.53936 8.22345C8.01205 8.22345 7.80634 7.96002 7.80634 7.74774C7.80634 7.60822 7.85469 7.49615 7.94736 7.38084C7.90382 7.34479 7.84389 7.33008 7.78636 7.33008C7.60499 7.33008 7.39648 7.48613 7.39648 7.79967C7.39648 8.28085 7.83549 8.50354 8.26786 8.50354C8.66399 8.50354 9.04176 8.33499 9.20998 8.27434C9.37872 8.21421 9.61463 8.15903 9.7619 8.15903C10.0258 8.15903 10.1219 8.17881 10.2391 8.20679C10.2413 8.19417 10.2439 8.17022 10.2439 8.14965C10.2439 8.08523 10.2351 8.04228 10.224 8.00206Z" fill="white"/>
<path d="M4.36813 6.47697C4.45767 6.47697 4.52646 6.48074 4.59173 6.5C4.52138 6.31349 4.4008 6.20117 4.19444 6.20117C3.994 6.20117 3.87934 6.28148 3.81641 6.38261C3.94467 6.4538 4.01229 6.50977 4.06487 6.59645C4.1494 6.50977 4.26472 6.47697 4.36813 6.47697Z" fill="#EFCF4D"/>
<path d="M3.57905 6.61984C3.49874 6.48735 3.37991 6.43359 3.22666 6.43359C2.99687 6.43359 2.85494 6.62987 2.83203 6.82106C2.93882 6.82614 3.00488 6.84826 3.07171 6.88952C3.15846 6.7716 3.35056 6.60605 3.57905 6.61984Z" fill="#EFCF4D"/>
<path d="M2.71204 7.85547C2.53691 7.89074 2.38086 8.06671 2.38086 8.30398C2.38086 8.49439 2.48303 8.6442 2.55813 8.73427C2.60095 8.55231 2.70735 8.44038 2.80405 8.39535C2.71086 8.26936 2.64598 8.0779 2.71204 7.85547Z" fill="#EFCF4D"/>
<path d="M3.46002 9.09766C3.37828 9.16664 3.33331 9.21089 3.13086 9.25228C3.1744 9.33219 3.32511 9.51363 3.52262 9.51363C3.67347 9.51363 3.8426 9.4341 3.94614 9.27688C3.68304 9.27974 3.55841 9.18603 3.46002 9.09766Z" fill="#EFCF4D"/>
<path d="M2.41157 14.2852C2.2764 14.3344 2.21094 14.4572 2.21094 14.5828C2.21094 14.7529 2.30582 14.888 2.44769 15.0122C2.49265 14.8292 2.59626 14.7501 2.65893 14.7131C2.70344 14.5828 2.62092 14.317 2.41157 14.2852Z" fill="#EFCF4D"/>
<path d="M2.8789 13.0087C2.8433 13.0003 2.78551 12.9883 2.71582 12.9883C2.47126 12.9883 2.32445 13.1566 2.24414 13.3453C2.37781 13.3389 2.47191 13.359 2.54545 13.3977C2.55911 13.2835 2.66818 13.1029 2.8789 13.0087Z" fill="#EFCF4D"/>
<path d="M3.28922 15.1973C3.14885 15.1973 3.10258 15.3171 3.0854 15.3575C3.06562 15.5335 3.25603 15.725 3.46246 15.7155C3.45243 15.6056 3.47345 15.4856 3.50547 15.4028C3.4646 15.2806 3.39022 15.1973 3.28922 15.1973Z" fill="#EFCF4D"/>
<path d="M4.48005 14.6855C4.28717 14.6855 4.30148 14.8818 4.30766 14.9953C4.33148 15.0661 4.39975 15.1715 4.46294 15.2433C4.65947 15.1041 4.69019 15.023 4.71797 14.9006C4.67431 14.759 4.59316 14.6855 4.48005 14.6855Z" fill="#EFCF4D"/>
<path d="M5.62058 18.6087C5.58629 18.5815 5.52635 18.5488 5.41611 18.5488C5.17468 18.5488 5.04504 18.7597 5.02734 18.9631C5.09886 18.9507 5.23129 18.9483 5.30561 18.98C5.30425 18.7916 5.4385 18.6791 5.62058 18.6087Z" fill="#EFCF4D"/>
<path d="M4.69022 19.4102C4.55668 19.4336 4.34375 19.5865 4.34375 19.8462C4.34375 20.0374 4.42907 20.1779 4.51158 20.2787C4.57477 20.1188 4.6595 20.0608 4.73519 20.0063C4.61154 19.8316 4.58968 19.5658 4.69022 19.4102Z" fill="#EFCF4D"/>
<path d="M5.63458 20.5371C5.4605 20.5371 5.37336 20.6805 5.35553 20.7472C5.35195 20.9047 5.50696 21.0683 5.62775 21.134C5.71957 21.0679 5.79525 20.9423 5.82597 20.8756C5.87243 20.7556 5.83013 20.5371 5.63458 20.5371Z" fill="#EFCF4D"/>
<path d="M7.3079 20.2969C7.15855 20.2969 7.06289 20.4796 7.0625 20.4782C7.14359 20.5603 7.18166 20.6353 7.11827 20.8116C7.33159 20.8055 7.56359 20.6446 7.54173 20.4782C7.54173 20.4782 7.45856 20.2969 7.3079 20.2969Z" fill="#EFCF4D"/>
<path d="M11.1832 20.7553C11.1514 20.7355 11.0832 20.7207 11.0176 20.7207C10.6985 20.7207 10.5582 21.0029 10.6295 21.3764C10.7102 21.2763 10.7943 21.2409 10.8815 21.2198C10.8596 21.0437 11.0041 20.8257 11.1832 20.7553Z" fill="#EFCF4D"/>
<path d="M10.9994 22.1406C10.9593 22.1406 10.9028 22.1482 10.8463 22.1694C10.7705 22.2307 10.7109 22.3161 10.7109 22.5078C10.7109 22.6592 10.7916 22.8006 10.8851 22.8428C11.01 22.6446 11.1433 22.5518 11.211 22.5157C11.275 22.337 11.1975 22.1406 10.9994 22.1406Z" fill="#EFCF4D"/>
<path d="M12.3496 22.4629C12.2466 22.4629 12.169 22.5345 12.0977 22.6573C12.1744 22.8226 12.2273 22.9858 12.2346 23.1407C12.4202 23.0249 12.5316 22.8694 12.5649 22.7103C12.5535 22.5945 12.4858 22.4629 12.3496 22.4629Z" fill="#EFCF4D"/>
<path d="M13.7299 21.8867C13.8036 21.9214 13.8687 21.9753 13.9486 22.1627C14.0631 22.1436 14.2641 21.9542 14.2641 21.7775C14.2641 21.7404 14.249 21.6496 14.1961 21.583C14.1376 21.5371 14.036 21.5156 13.9676 21.5156C13.8793 21.5156 13.7114 21.6518 13.7299 21.8867Z" fill="#EFCF4D"/>
<path d="M16.3657 8.94066C17.1495 8.621 17.522 7.97518 17.522 7.28537C17.522 7.23005 17.5207 7.17864 17.5191 7.12879H16.9576C16.7387 7.31114 16.481 7.44585 16.2353 7.52784C16.2915 7.42164 16.3355 7.28602 16.3402 7.12879C16.3425 7.04536 16.3337 6.9553 16.3084 6.85938C16.2105 6.90883 15.9783 7.05291 15.8432 7.115C15.8347 7.11981 15.825 7.12411 15.8141 7.12879C15.5035 7.27118 14.6805 7.64082 14.8286 8.78304C14.7742 8.83042 14.7151 8.88287 14.6523 8.94066H16.3657Z" fill="#E10000"/>
<path d="M3.33389 8.5304C3.3236 8.65444 3.37189 8.81244 3.46938 8.94077H5.90767C5.73932 8.82155 5.61027 8.71444 5.55717 8.63856C5.09825 7.98675 4.70837 7.74362 4.71384 7.38882C4.71508 7.31477 4.74104 7.22405 4.76636 7.12891H4.1614C4.16433 7.13867 4.16765 7.14869 4.16967 7.15702C4.19824 7.26388 4.18464 7.41446 4.16635 7.53264C4.05045 7.40548 3.93715 7.26453 3.89003 7.12891H3.09349C3.09317 7.13112 3.09317 7.13333 3.09317 7.13541C3.09317 7.3119 3.22469 7.38062 3.34547 7.45872C3.42389 7.51052 3.51031 7.57312 3.56068 7.75807C3.42851 7.6831 3.32757 7.65772 3.16885 7.65772C3.01 7.65772 2.79102 7.73308 2.79102 8.01018C2.79102 8.35782 3.04664 8.492 3.33389 8.5304Z" fill="#E10000"/>
<path d="M13.8763 8.34662C13.7199 8.1946 13.4695 7.87898 13.3896 7.60188C13.3492 7.46132 13.2758 7.27129 13.1824 7.12891H8.66049C8.62834 7.15351 8.59964 7.17459 8.57979 7.18695C8.53476 7.24643 8.52344 7.3447 8.52344 7.42917C8.52344 7.67933 8.78303 7.89434 9.05225 7.89434C9.43627 7.89434 9.57189 7.53902 9.5495 7.37542C9.75801 7.35863 10.3499 7.56896 10.3499 8.17547C10.3499 8.55396 9.93476 8.59405 9.78957 8.59405C9.64354 8.59405 9.53577 8.54927 9.37497 8.54927C9.21397 8.54927 9.13978 8.60628 9.13978 8.71444C9.13978 8.80489 9.20362 8.8891 9.29577 8.94078C9.35369 8.9737 9.4226 8.99323 9.49354 8.99323C9.56649 8.99323 9.61146 8.96967 9.64901 8.94078C9.70556 8.89769 9.74597 8.84381 9.83304 8.84381C9.88842 8.84381 9.96814 8.86333 10.0181 8.94078H13.4598C13.4604 8.68268 13.4364 8.52676 13.4005 8.44333C13.5819 8.43331 13.736 8.40819 13.8763 8.34662Z" fill="#E10000"/>
<path d="M9.14107 7.97266C9.09188 7.98794 9.04668 7.9865 9.00586 7.98454C9.01259 8.00584 9.02624 8.03588 9.03453 8.0462C9.03453 8.0462 9.13845 8.01982 9.13845 8.01877C9.14048 8.0091 9.14107 7.98611 9.14107 7.97266Z" fill="#E10000"/>
<path d="M9.24082 8.4539C9.22188 8.42386 9.20993 8.40361 9.20241 8.37696C9.20241 8.37644 9.11509 8.41014 9.11509 8.40923C9.10816 8.43718 9.10058 8.47115 9.11855 8.52654C9.14585 8.4863 9.18132 8.46657 9.24082 8.4539Z" fill="#E10000"/>
<path d="M15.6202 10.6758H13.8449C13.8431 10.7156 13.8418 10.7561 13.8418 10.7976C13.8418 11.3272 14.1763 11.9752 14.5753 12.4875H15.1004C14.9143 12.3089 14.7911 12.0535 14.7911 11.7494C14.7911 11.1261 15.174 10.8622 15.6202 10.6758Z" fill="#E10000"/>
<path d="M16.1809 12.4876C16.4495 12.1543 17.2299 12.1768 17.2299 11.6191C17.1162 11.7876 16.9782 11.865 16.7794 11.865C16.5818 11.865 16.3197 11.7436 16.058 11.7436C15.5694 11.7436 15.3711 12.0887 15.3711 12.2594C15.3711 12.3429 15.3714 12.4177 15.3812 12.4876H16.1809Z" fill="#E10000"/>
<path d="M5.08398 11.5882C5.27362 11.6195 5.54909 11.5284 5.61794 11.3203C5.79397 11.6156 5.80835 11.7109 5.81376 11.8571C5.92829 11.6996 5.91651 11.6099 6.03053 11.3864C6.16009 11.1288 6.35448 10.8679 6.58355 10.6758H5.17477C5.22728 11.0121 5.18655 11.3047 5.08398 11.5882Z" fill="#E10000"/>
<path d="M6.08502 11.5097C5.94394 11.8361 5.90574 12.0096 5.61719 12.1327C5.67537 12.277 5.75971 12.3941 5.85934 12.4875H12.0878C12.0071 12.3246 11.9455 12.0773 12.016 11.8857C12.1402 11.9868 12.3721 12.061 12.5512 12.022C12.5127 11.6059 12.6176 11.2406 12.7383 11.0808C12.8323 10.9563 12.9021 10.8083 12.9474 10.6758H6.76963C6.48466 10.8628 6.23086 11.1693 6.08502 11.5097Z" fill="#E10000"/>
<path d="M17.0289 15.9395C17.5451 15.3027 17.3538 14.6079 17.3538 14.2881C17.3538 14.2657 17.3553 14.2445 17.3574 14.2227H16.6939C16.8045 14.387 16.8735 14.5754 16.8735 14.7996C16.8735 15.3687 16.5796 15.8248 16.1309 16.0343H17.4688C17.5196 15.9808 17.5774 15.9255 17.6464 15.8678C17.4584 15.7606 17.2231 15.7923 17.0289 15.9395Z" fill="#E10000"/>
<path d="M13.9634 14.2227H8.62695C9.39122 14.8539 10.1611 15.0481 11.1271 15.1121C11.959 15.1676 12.4429 15.6575 12.5145 15.9025C12.3844 15.8351 12.2217 15.8004 12.0139 15.8004C11.8156 15.8004 11.6313 15.8894 11.4769 16.0343H15.0405C15.0075 16.0131 14.9734 15.9912 14.9398 15.964C15.0215 15.8766 15.0637 15.7375 15.0637 15.5694C15.0637 15.0202 14.5938 14.6148 13.9634 14.2227Z" fill="#E10000"/>
<path d="M4.93786 14.5258C4.93363 14.4038 4.91398 14.3528 4.8478 14.2942C4.86465 14.2755 4.90292 14.2483 4.95765 14.2227H2.55078C2.71562 14.3045 2.80972 14.5402 2.7654 14.6933C2.7818 14.7382 2.86439 14.7832 2.95224 14.7577C2.92497 14.8723 2.85951 15.1155 3.03359 15.258C3.10094 15.1305 3.19036 15.0873 3.31914 15.0873C3.44708 15.0873 3.55778 15.2097 3.5885 15.2973C3.67284 15.2782 3.76713 15.1971 3.76713 15.0845C3.76713 14.8605 3.87958 14.7105 3.97499 14.7049C4.0057 14.8421 4.12434 14.8867 4.22182 14.9181C4.20608 14.6738 4.36922 14.5961 4.47614 14.5961C4.64534 14.5961 4.71829 14.6697 4.78253 14.7939C4.88105 14.7564 4.94248 14.6483 4.93786 14.5258Z" fill="#E10000"/>
<path d="M8.10775 14.3833C8.18018 14.3476 8.23055 14.2901 8.2653 14.2227H7.81055C7.9135 14.267 8.00766 14.3214 8.10775 14.3833Z" fill="#E10000"/>
<path d="M6.50461 14.2227H6C6.11772 14.2784 6.22562 14.3515 6.34784 14.431C6.41246 14.3861 6.47395 14.3182 6.50461 14.2227Z" fill="#E10000"/>
<path d="M7.03139 14.5791C7.11853 14.5301 7.24524 14.38 7.28031 14.2227H6.75391C6.84462 14.3083 6.93248 14.4414 7.03139 14.5791Z" fill="#E10000"/>
<path d="M11.8547 15.7011C12.0385 15.6728 12.1947 15.6906 12.2551 15.7178C11.9977 15.4151 11.4614 15.249 11.0756 15.2351C11.0743 15.2351 11.0772 15.2322 11.0723 15.2378C11.5335 15.3509 11.7264 15.5265 11.8547 15.7011Z" fill="#E10000"/>
<path d="M11.7108 15.7382C11.5598 15.5508 11.305 15.4139 10.9962 15.3359C10.9161 15.4274 10.827 15.5051 10.7445 15.5051C10.4129 15.5051 10.1949 15.488 9.89031 15.488C9.2152 15.488 8.63029 15.7013 8.21484 16.035H11.3055C11.4255 15.8962 11.5647 15.7912 11.7108 15.7382Z" fill="#E10000"/>
<path d="M15.1607 18.2062C14.9472 18.2062 14.7629 18.2905 14.6692 18.3974C14.3514 18.3974 14.027 18.1239 13.9 17.7695H11.1113C11.185 18.0097 11.3219 18.2515 11.5716 18.5212C12.0042 18.985 12.1185 19.0419 12.1185 19.4965C12.3561 19.4277 12.4202 19.3104 12.4844 19.1548C12.4858 19.3119 12.5191 19.4591 12.5766 19.581H13.0714C13.1342 19.5012 13.1995 19.4398 13.276 19.3915C13.2786 19.4562 13.2776 19.5189 13.2719 19.581H15.6193C15.6493 19.3119 15.7399 19.1548 15.7399 18.8607C15.7399 18.5005 15.4845 18.2062 15.1607 18.2062Z" fill="#E10000"/>
<path d="M7.54348 17.7695C7.52097 17.9829 7.46858 18.0833 7.35033 18.214C7.4309 18.2769 7.55507 18.3177 7.66069 18.3134C7.48283 18.7949 6.66579 18.9508 6.46822 18.9508C6.19138 18.9508 6.1839 18.6908 5.87081 18.6908C5.66764 18.6908 5.4115 18.7842 5.4115 19.0184C5.4115 19.1248 5.43649 19.2416 5.47684 19.3077C5.3636 19.2447 5.23612 19.2299 5.12965 19.2299C4.95863 19.2299 4.77115 19.3746 4.73828 19.581H8.51182C8.57905 19.5448 8.64048 19.5088 8.69378 19.4722L8.74766 19.581H9.05216C9.16064 19.4978 9.25546 19.3948 9.32047 19.2935C9.38867 19.3867 9.41236 19.4773 9.42544 19.581H9.6305C9.9456 19.3267 10.2136 18.994 10.2136 18.4691C10.2136 18.0313 10.0841 17.9299 10.0227 17.7695H7.54348Z" fill="#E10000"/>
<path d="M11.2104 21.5725C10.9452 21.7123 10.9129 21.8545 10.9324 22.0499C11.2635 21.9833 11.3994 22.294 11.3385 22.4961C11.5434 22.5396 11.6925 22.4441 11.7979 22.3493C11.8307 22.4496 11.9247 22.5452 12.0369 22.5754C12.1077 22.4526 12.2181 22.3634 12.3532 22.3634C12.4896 22.3634 12.6025 22.4159 12.6598 22.6053C12.8131 22.572 12.9961 22.2881 12.9063 22.0924C13.0625 22.0499 13.2184 21.8273 13.226 21.6733C13.3301 21.8098 13.467 21.9152 13.6141 21.8481C13.599 21.5863 13.8195 21.397 13.9666 21.397C14.0519 21.397 14.1222 21.4092 14.1774 21.4376C14.1964 21.4049 14.2102 21.3561 14.2102 21.3027H11.0058C11.03 21.4273 11.117 21.5181 11.2104 21.5725Z" fill="#E10000"/>
<path d="M10.224 8.00206C10.1423 7.99009 10.0462 7.98046 9.82405 7.98046C9.5491 7.98046 9.29816 8.06857 9.10716 8.12441C8.9157 8.18037 8.80865 8.22345 8.53936 8.22345C8.01205 8.22345 7.80634 7.96002 7.80634 7.74774C7.80634 7.60822 7.85469 7.49615 7.94736 7.38084C7.90382 7.34479 7.84389 7.33008 7.78636 7.33008C7.60499 7.33008 7.39648 7.48613 7.39648 7.79967C7.39648 8.28085 7.83549 8.50354 8.26786 8.50354C8.66399 8.50354 9.04176 8.33499 9.20998 8.27434C9.37872 8.21421 9.61463 8.15903 9.7619 8.15903C10.0258 8.15903 10.1219 8.17881 10.2391 8.20679C10.2413 8.19417 10.2439 8.17022 10.2439 8.14965C10.2439 8.08523 10.2351 8.04228 10.224 8.00206Z" fill="#E10000"/>
<path d="M1.15286 2.77306C1.15286 2.69262 1.16307 2.62859 1.28919 2.59514C1.37373 2.57275 1.47961 2.61466 1.61328 2.66854C1.77942 2.73544 1.98675 2.81926 2.1784 2.76824C2.25689 2.74716 2.29561 2.72893 2.30856 2.70655C2.32151 2.6852 2.31741 2.64173 2.29639 2.55869C2.27849 2.4888 2.21322 2.33522 2.10675 2.19843L2.08495 2.17136L2.10272 2.14103C2.24172 1.89986 2.29561 1.56393 2.23502 1.32419C2.21322 1.24076 2.19135 1.16358 2.16467 1.14848C2.14287 1.1352 2.08411 1.14913 2.02632 1.16423C1.8728 1.20562 1.7556 1.32991 1.70106 1.42349L1.68896 1.4464C1.6423 1.52749 1.58581 1.62862 1.45696 1.66298C1.31444 1.70059 1.22314 1.61391 1.19848 1.51746C1.16991 1.40592 1.21963 1.30011 1.26733 1.19755C1.31177 1.10358 1.35277 1.0152 1.33143 0.932424C1.32394 0.904181 1.31854 0.897803 1.31633 0.896502C1.31321 0.894289 1.29752 0.888562 1.23824 0.904832C1.18488 0.918758 1.10516 0.947782 1.05459 0.976676L0.973571 1.02353L0.980469 0.928519C0.989319 0.830644 1.01314 0.532722 0.971423 0.497711C0.967454 0.493937 0.952421 0.492895 0.907388 0.50487C0.880251 0.511507 0.813937 0.543135 0.758167 0.587127L0.711702 0.623309L0.683849 0.571118C0.634781 0.478839 0.514844 0.33567 0.361328 0.318359C0.392565 0.441224 0.904915 2.43778 0.904915 2.43778V2.44416C0.904915 3.01905 1.01919 3.22755 1.46392 3.45779L1.67171 3.56062C1.7964 3.50608 1.88718 3.4712 1.95805 3.44491C1.43789 3.24577 1.15286 3.00981 1.15286 2.77306Z" fill="#EFCF4D"/>
<path d="M19.6791 0.571425L19.6512 0.623617L19.6062 0.587434C19.55 0.543442 19.4839 0.511815 19.4563 0.505177C19.4105 0.493203 19.3967 0.494244 19.3915 0.498019C19.3511 0.53303 19.3745 0.830952 19.3826 0.928827L19.3896 1.02384L19.3079 0.976984C19.2595 0.94809 19.1777 0.919066 19.1246 0.905139C19.0661 0.88887 19.0512 0.894597 19.0465 0.896809C19.045 0.898111 19.0393 0.904488 19.032 0.932732C19.0109 1.01551 19.052 1.10388 19.0952 1.19785C19.1442 1.30042 19.1939 1.40623 19.1652 1.51777C19.1403 1.61422 19.0494 1.7009 18.9062 1.66328C18.7777 1.62892 18.7201 1.52779 18.6748 1.44632L18.6618 1.4238C18.6079 1.33022 18.4908 1.20592 18.3362 1.16454C18.2786 1.14944 18.2203 1.13551 18.1982 1.14879C18.1714 1.16388 18.15 1.24107 18.129 1.32449C18.0678 1.56424 18.1227 1.90016 18.2602 2.14134L18.2779 2.17166L18.2565 2.19874C18.15 2.33553 18.0852 2.48911 18.0673 2.559C18.0269 2.71479 18.036 2.72872 18.1849 2.76855C18.3763 2.81957 18.5848 2.73575 18.7503 2.66885C18.8841 2.61497 18.9893 2.57306 19.0736 2.59544C19.2001 2.62889 19.2103 2.69293 19.2103 2.77336C19.2103 3.02391 18.8911 3.27328 18.3109 3.47906C18.2963 3.48569 18.0574 3.56092 17.8226 3.6588C17.4988 3.79338 17.2694 3.93251 17.1372 4.09091L17.0997 4.13659L17.0612 4.09091C16.9368 3.94006 16.7384 3.81147 16.4213 3.67897C16.3339 3.72023 16.2344 3.76553 16.0666 3.84075C16.2641 3.93173 16.3813 4.00644 16.3813 4.11863C16.3813 4.28588 16.2363 4.37009 15.9512 4.37009C15.6665 4.37009 15.523 4.28588 15.523 4.11863C15.523 3.98744 15.6883 3.90193 15.9221 3.79403C15.9221 3.79403 16.2087 3.66622 16.2977 3.62014C16.3865 3.5742 16.5468 3.48895 16.5468 3.48895C16.69 3.40617 16.866 3.29229 17.0797 3.07389L17.1153 3.03732L17.15 3.07467C17.3501 3.28461 17.5316 3.40175 17.6844 3.48895L17.7958 3.54765C17.9186 3.49559 18.0092 3.46604 18.0795 3.44235C17.6323 3.25714 17.2575 2.98721 17.1135 2.74616C16.9636 2.98916 16.5796 3.26378 16.1272 3.44977C16.0129 3.50301 15.7404 3.59437 15.528 3.68743C15.2445 3.80952 14.9712 4.00084 14.8304 4.17811L14.7913 4.2264L14.7528 4.1772C14.6109 3.99798 14.3868 3.83542 14.0903 3.6942C14.0117 3.7326 13.9286 3.7732 13.7771 3.8401C13.9633 3.92991 14.0791 4.00722 14.0791 4.11863C14.0791 4.28705 13.9305 4.3723 13.6381 4.3723C13.345 4.3723 13.1964 4.28705 13.1964 4.11863C13.1964 3.98392 13.3604 3.90583 13.6283 3.78856C13.6283 3.78856 13.8813 3.67832 13.9703 3.63563C14.0593 3.59229 14.2207 3.50301 14.2207 3.50301C14.3631 3.42049 14.5742 3.28643 14.751 3.07649L14.7884 3.03198L14.8259 3.07649C15.0024 3.28643 15.2146 3.42049 15.3577 3.50301L15.4934 3.5742C15.6313 3.51485 15.7315 3.47971 15.8088 3.45212C15.2773 3.25168 14.986 3.01259 14.986 2.77336C14.986 2.67497 15.0503 2.57579 15.1734 2.57579C15.2606 2.57579 15.352 2.6436 15.4678 2.73041C15.6131 2.83831 15.7935 2.97263 15.9903 2.97263C16.1459 2.97263 16.1566 2.96052 16.1566 2.80005C16.1566 2.7282 16.1314 2.56265 16.0621 2.40204L16.0483 2.37054L16.0723 2.3462C16.2662 2.14772 16.4023 1.8373 16.4023 1.58988C16.4023 1.38124 16.4023 1.38124 16.2407 1.38124C16.0816 1.38124 15.9374 1.47105 15.8619 1.54836L15.8435 1.56645C15.7797 1.63335 15.6987 1.71717 15.566 1.71717C15.4186 1.71717 15.3515 1.6094 15.3515 1.50892C15.3515 1.39452 15.4259 1.30432 15.4978 1.21712C15.5636 1.13837 15.6251 1.06262 15.6251 0.978025C15.6251 0.933903 15.6251 0.926745 15.5428 0.926745C15.4863 0.926745 15.4009 0.934424 15.3463 0.949131L15.2562 0.97334L15.2867 0.883403C15.3192 0.791515 15.416 0.509212 15.384 0.464179C15.3812 0.459493 15.3674 0.454417 15.3203 0.454417C15.2924 0.454417 15.2206 0.467042 15.1557 0.495676L15.1019 0.518973L15.0881 0.461836C15.0579 0.340403 14.929 0.175368 14.7884 0.121094C14.6476 0.175368 14.5198 0.340403 14.4899 0.461836L14.4758 0.518973L14.4222 0.495676C14.3566 0.467042 14.2853 0.454417 14.2574 0.454417C14.2106 0.454417 14.1965 0.459493 14.1934 0.464179C14.1624 0.509212 14.2587 0.791515 14.2905 0.883403L14.3215 0.97334L14.2316 0.949131C14.1757 0.934424 14.0908 0.926745 14.0351 0.926745C13.9516 0.926745 13.9516 0.933903 13.9516 0.978025C13.9516 1.06262 14.014 1.13837 14.0801 1.21712C14.1515 1.30432 14.2257 1.39452 14.2257 1.50892C14.2257 1.6094 14.1585 1.71717 14.0117 1.71717C13.8781 1.71717 13.798 1.63335 13.7337 1.56645L13.7155 1.54836C13.641 1.47105 13.4965 1.38124 13.3367 1.38124C13.1761 1.38124 13.1761 1.38124 13.1761 1.58988C13.1761 1.8373 13.3109 2.14772 13.5054 2.3462L13.5288 2.37054L13.5148 2.40204C13.446 2.56265 13.4205 2.7282 13.4205 2.80005C13.4205 2.96052 13.4315 2.97263 13.5871 2.97263C13.7847 2.97263 13.9648 2.83831 14.1093 2.73041C14.2251 2.6436 14.3165 2.57579 14.4037 2.57579C14.5274 2.57579 14.5911 2.67497 14.5911 2.77336C14.5911 3.01988 14.2834 3.26574 13.7222 3.46904C13.6272 3.50691 13.3922 3.58682 13.1987 3.6614C12.9653 3.75225 12.6589 3.93121 12.5253 4.08661L12.4878 4.13126L12.4514 4.08661C12.3241 3.93655 12.1252 3.80874 11.8066 3.67546C11.7186 3.71737 11.6218 3.76071 11.4513 3.83737C11.6533 3.92991 11.7736 4.00449 11.7736 4.11863C11.7736 4.29122 11.6343 4.37165 11.3342 4.37165C11.0343 4.37165 10.8945 4.29122 10.8945 4.11863C10.8945 3.98132 11.0627 3.89542 11.3011 3.78804C11.3011 3.78804 11.5731 3.67155 11.677 3.62014C11.7816 3.56886 11.9178 3.48895 11.9178 3.48895C12.0622 3.40617 12.2377 3.29229 12.4517 3.07389L12.4865 3.03862L12.5214 3.07389C12.7036 3.25454 12.864 3.37871 13.0558 3.48895L13.1717 3.55064C13.2958 3.49741 13.3864 3.46904 13.4575 3.44431C13.0074 3.26001 12.6305 2.98851 12.4858 2.74681C12.3353 2.99202 11.9537 3.26639 11.5052 3.44834C11.4596 3.46943 11.1345 3.57745 10.9 3.67832C10.5754 3.81642 10.3364 3.97572 10.2012 4.15026L10.1634 4.19894L10.1246 4.15247C9.98167 3.98288 9.76425 3.82826 9.48104 3.69277C9.4047 3.7309 9.31731 3.77216 9.16672 3.83893C9.3542 3.92874 9.47141 4.00722 9.47141 4.11863C9.47141 4.23395 9.3954 4.3723 9.03019 4.3723C8.66563 4.3723 8.58929 4.23395 8.58929 4.11863C8.58929 3.98392 8.75296 3.90583 9.0201 3.78856C9.0201 3.78856 9.2629 3.68158 9.37685 3.62886C9.4908 3.57576 9.61282 3.50301 9.61282 3.50301C9.75599 3.42049 9.96677 3.28643 10.1433 3.07649L10.1815 3.03198L10.2189 3.07649C10.3955 3.28643 10.6061 3.42049 10.7498 3.50301L10.8682 3.56886C11.007 3.50925 11.1106 3.47307 11.1871 3.44652C10.6641 3.24725 10.3778 3.01089 10.3778 2.77336C10.3778 2.67497 10.4429 2.57579 10.5665 2.57579C10.654 2.57579 10.7454 2.6436 10.8612 2.73041C11.0054 2.83831 11.1858 2.97263 11.3826 2.97263C11.538 2.97263 11.5489 2.96052 11.5489 2.80005C11.5489 2.7282 11.5239 2.56265 11.4549 2.40204L11.4417 2.37054L11.4651 2.3462C11.6595 2.14772 11.7946 1.8373 11.7946 1.58988C11.7946 1.38124 11.7946 1.38124 11.6338 1.38124C11.4742 1.38124 11.3295 1.47105 11.2545 1.54836L11.2368 1.56645C11.172 1.63335 11.0916 1.71717 10.9578 1.71717C10.8112 1.71717 10.7443 1.6094 10.7443 1.50892C10.7443 1.39452 10.8188 1.30432 10.8903 1.21712C10.9559 1.13837 11.0171 1.06262 11.0171 0.978025C11.0171 0.933903 11.0171 0.926745 10.9351 0.926745C10.8794 0.926745 10.7943 0.934424 10.7391 0.949131L10.649 0.97334L10.6795 0.883403C10.711 0.791515 10.8073 0.509212 10.7763 0.464179C10.7737 0.459493 10.7599 0.454417 10.7131 0.454417C10.6842 0.454417 10.6134 0.467042 10.5475 0.495676L10.4949 0.518973L10.4806 0.461836C10.4504 0.340403 10.3218 0.175368 10.1815 0.121094C10.0411 0.175368 9.91217 0.340403 9.88211 0.461836L9.86786 0.518973L9.81462 0.495676C9.74961 0.467042 9.67744 0.454417 9.64894 0.454417C9.60254 0.454417 9.58887 0.459493 9.58614 0.464179C9.55464 0.509212 9.65108 0.791515 9.68284 0.883403L9.7144 0.97334L9.62356 0.949131C9.5685 0.934424 9.48325 0.926745 9.42794 0.926745C9.34483 0.926745 9.34483 0.933903 9.34483 0.978025C9.34483 1.06262 9.40672 1.13837 9.47141 1.21712C9.54384 1.30432 9.61816 1.39452 9.61816 1.50892C9.61816 1.6094 9.55139 1.71717 9.40431 1.71717C9.27032 1.71717 9.19073 1.63335 9.1252 1.56645L9.10808 1.54836C9.0324 1.47105 8.88786 1.38124 8.7296 1.38124C8.56801 1.38124 8.56801 1.38124 8.56801 1.58988C8.56801 1.8373 8.70389 2.14772 8.8973 2.3462L8.92125 2.37054L8.90765 2.40204C8.8388 2.56265 8.81348 2.7282 8.81348 2.80005C8.81348 2.96052 8.82461 2.97263 8.97923 2.97263C9.177 2.97263 9.35635 2.83831 9.5016 2.73041C9.61757 2.6436 9.70952 2.57579 9.79686 2.57579C9.91966 2.57579 9.98428 2.67497 9.98428 2.77336C9.98428 3.03263 9.64406 3.29085 9.02635 3.50014C9.02635 3.50014 8.74951 3.59502 8.59202 3.6614C8.27621 3.79338 8.04369 3.93525 7.91132 4.0952L7.87267 4.14115L7.83499 4.0952C7.71017 3.94123 7.50915 3.81147 7.18734 3.67676C7.10339 3.7188 7.01424 3.76266 6.83801 3.8414C7.03519 3.93251 7.15194 4.00722 7.15194 4.11863C7.15194 4.28835 7.0102 4.37087 6.7195 4.37087C6.42842 4.37087 6.28746 4.28835 6.28746 4.11863C6.28746 3.9821 6.45301 3.89672 6.68619 3.79156C6.68619 3.79156 6.95333 3.67403 7.07046 3.61832C7.18734 3.56157 7.31079 3.48895 7.31079 3.48895C7.45442 3.40617 7.63058 3.29229 7.84377 3.07389L7.8795 3.03862L7.91418 3.07389C8.09692 3.25454 8.25694 3.37871 8.44794 3.48895L8.55792 3.55103C8.68138 3.4991 8.77469 3.46773 8.84687 3.443C8.39757 3.25845 8.02254 2.98786 7.87872 2.74616C7.7267 2.99332 7.34405 3.26769 6.89332 3.45055C6.74612 3.51133 6.5859 3.55689 6.28525 3.68093C5.98381 3.806 5.72624 3.97872 5.59127 4.15377L5.55443 4.20193L5.51422 4.15573C5.37567 3.99108 5.15272 3.83672 4.85557 3.69719C4.77846 3.73481 4.69236 3.77542 4.54256 3.84271C4.72516 3.93121 4.84048 4.00774 4.84048 4.11863C4.84048 4.29122 4.70128 4.37165 4.40349 4.37165C4.10622 4.37165 3.96708 4.29122 3.96708 4.11863C3.96708 3.98679 4.12802 3.90739 4.39379 3.79077C4.39379 3.79077 4.65911 3.67624 4.73486 3.64006C4.81054 3.60361 4.99054 3.50301 4.99054 3.50301C5.13384 3.42049 5.3445 3.28643 5.52164 3.07649L5.55919 3.03198L5.59667 3.07649C5.77309 3.28643 5.98381 3.42049 6.1277 3.50301L6.25199 3.57069C6.39028 3.51068 6.49375 3.47567 6.57165 3.44912C6.04388 3.24973 5.75611 3.01194 5.75611 2.77336C5.75611 2.67497 5.82099 2.57579 5.94444 2.57579C6.03086 2.57579 6.12308 2.6436 6.23891 2.73041C6.38338 2.83831 6.56273 2.97263 6.76044 2.97263C6.91675 2.97263 6.9269 2.96052 6.9269 2.80005C6.9269 2.7282 6.90159 2.56265 6.83267 2.40204L6.81842 2.37054L6.84309 2.3462C7.0374 2.14772 7.17231 1.8373 7.17231 1.58988C7.17231 1.38124 7.17231 1.38124 7.01053 1.38124C6.85194 1.38124 6.7074 1.47105 6.6323 1.54836L6.61441 1.56645C6.54978 1.63335 6.46954 1.71717 6.33633 1.71717C6.18848 1.71717 6.12229 1.6094 6.12229 1.50892C6.12229 1.39452 6.19661 1.30432 6.26813 1.21712C6.33308 1.13837 6.39568 1.06262 6.39568 0.978025C6.39568 0.933903 6.39568 0.926745 6.31271 0.926745C6.25739 0.926745 6.17214 0.934424 6.11683 0.949131L6.02683 0.97334L6.05728 0.883403C6.08878 0.791515 6.18483 0.509212 6.15444 0.464179C6.15158 0.459493 6.13804 0.454417 6.09099 0.454417C6.06229 0.454417 5.99051 0.467042 5.92524 0.495676L5.87279 0.518973L5.85847 0.461836C5.82782 0.340403 5.69956 0.175368 5.55919 0.121094C5.41868 0.175368 5.29061 0.340403 5.26042 0.461836L5.24571 0.518973L5.19235 0.495676C5.12734 0.467042 5.05595 0.454417 5.02796 0.454417C4.98026 0.454417 4.96653 0.459493 4.96302 0.464179C4.9323 0.509212 5.02913 0.791515 5.06135 0.883403L5.09206 0.97334L5.00213 0.949131C4.94636 0.934424 4.86091 0.926745 4.80573 0.926745C4.72243 0.926745 4.72243 0.933903 4.72243 0.978025C4.72243 1.06262 4.78445 1.13837 4.85011 1.21712C4.92163 1.30432 4.99673 1.39452 4.99673 1.50892C4.99673 1.6094 4.92911 1.71717 4.78204 1.71717C4.64876 1.71717 4.56839 1.63335 4.50429 1.56645L4.48587 1.54836C4.41019 1.47105 4.26637 1.38124 4.10739 1.38124C3.94587 1.38124 3.94587 1.38124 3.94587 1.58988C3.94587 1.8373 4.08155 2.14772 4.27528 2.3462L4.29982 2.37054L4.2855 2.40204C4.21659 2.56265 4.19121 2.7282 4.19121 2.80005C4.19121 2.96052 4.20227 2.97263 4.35774 2.97263C4.55498 2.97263 4.73486 2.83831 4.87959 2.73041C4.99523 2.6436 5.08718 2.57579 5.17452 2.57579C5.29738 2.57579 5.362 2.67497 5.362 2.77336C5.362 3.01988 5.05517 3.26508 4.49414 3.46904C4.39952 3.50639 4.29839 3.53021 4.04485 3.62951L3.96409 3.66361C3.63974 3.79897 3.42779 3.93329 3.29666 4.08661L3.25911 4.13061L3.22124 4.08596C3.09303 3.93381 2.89052 3.80535 2.56852 3.67077C2.48808 3.70904 2.39593 3.7516 2.23161 3.82344C2.43316 3.92613 2.54743 4.01308 2.54743 4.11863C2.54743 4.24033 2.40478 4.37165 2.09131 4.37165C1.77015 4.37165 1.65627 4.24111 1.65627 4.11863C1.65627 3.96661 1.82592 3.88201 2.08526 3.77021C2.08526 3.77021 2.38103 3.64539 2.44441 3.61481C2.50799 3.58409 2.67986 3.48895 2.67986 3.48895C2.83136 3.40175 3.01234 3.28461 3.21226 3.07467L3.24701 3.03732L3.28306 3.07389C3.49671 3.29229 3.67235 3.40617 3.81617 3.48895L3.94053 3.55689C4.06463 3.50379 4.15242 3.47021 4.22485 3.44522C3.77738 3.25923 3.39922 2.98721 3.24915 2.74616C3.09844 2.99905 2.69333 3.28461 2.21671 3.46904C2.19315 3.47841 1.9113 3.57745 1.69317 3.66622C1.36446 3.81459 1.23633 3.96193 1.23633 4.19308C1.23633 4.49517 1.47236 4.65799 1.69447 4.65799H18.6675C18.8898 4.65799 19.1262 4.49517 19.1262 4.19308C19.1262 3.96661 19.0033 3.82006 18.6889 3.67546C18.6116 3.71242 18.5199 3.75277 18.3812 3.81589C18.5806 3.90739 18.7074 3.98744 18.7074 4.11863C18.7074 4.29122 18.5689 4.37165 18.2716 4.37165C17.9684 4.37165 17.8148 4.28614 17.8148 4.11863C17.8148 3.9959 17.9699 3.89828 18.2375 3.77086C18.2375 3.77086 18.5522 3.62509 18.6269 3.59021C18.7019 3.55481 18.8987 3.4581 18.8987 3.4581C19.3441 3.22786 19.4594 3.01935 19.4594 2.44447V2.43809C19.4594 2.43809 19.9699 0.441532 20.0014 0.318667C19.848 0.335977 19.7291 0.479146 19.6791 0.571425Z" fill="#EFCF4D"/>
<path d="M2.99805 2.45888C2.99805 2.59931 3.10985 2.71385 3.24697 2.71385C3.38467 2.71385 3.49641 2.59931 3.49641 2.45888C3.49641 2.3187 3.38467 2.20508 3.24697 2.20508C3.10985 2.20508 2.99805 2.3187 2.99805 2.45888Z" fill="#00529F"/>
<path d="M7.63086 2.45888C7.63086 2.59931 7.7426 2.71385 7.88056 2.71385C8.01748 2.71385 8.12922 2.59931 8.12922 2.45888C8.12922 2.3187 8.01748 2.20508 7.88056 2.20508C7.7426 2.20508 7.63086 2.3187 7.63086 2.45888Z" fill="#00529F"/>
<path d="M12.2363 2.45888C12.2363 2.59931 12.3488 2.71385 12.4865 2.71385C12.6242 2.71385 12.7359 2.59931 12.7359 2.45888C12.7359 2.3187 12.6242 2.20508 12.4865 2.20508C12.3488 2.20508 12.2363 2.3187 12.2363 2.45888Z" fill="#00529F"/>
<path d="M16.8672 2.45888C16.8672 2.59931 16.9783 2.71385 17.116 2.71385C17.2537 2.71385 17.3662 2.59931 17.3662 2.45888C17.3662 2.3187 17.2537 2.20508 17.116 2.20508C16.9783 2.20508 16.8672 2.3187 16.8672 2.45888Z" fill="#00529F"/>
</svg>
