<svg width="23" height="24" viewBox="0 0 23 24" fill="none" xmlns="http://www.w3.org/2000/svg">
<g clip-path="url(#clip0_634_21829)">
<path d="M11.6133 0.169922H22.5472V15.2301C22.4278 18.6989 20.8591 20.5723 18.1102 22.3406C15.9238 23.7466 13.4469 23.8499 11.6133 23.8279" fill="white"/>
<path d="M11.6202 0.169922L0.706516 0.170797L0.6875 15.0692C0.724935 18.8392 2.40884 20.6288 5.27953 22.406C7.43268 23.7382 9.78721 23.8232 11.6202 23.8006V0.169922Z" fill="#FFE013"/>
<path d="M11.6016 0.169922V23.7656" stroke="#231F20" stroke-width="0.0797139" stroke-miterlimit="3.864"/>
<path d="M17.3398 15.52C17.3398 15.52 17.2181 15.443 17.1017 15.4519C16.9861 15.4611 16.9031 15.5263 16.8785 15.562C16.8548 15.5976 16.8607 15.6306 16.9712 15.6214C17.0811 15.6122 17.1107 15.6214 17.1433 15.6781C17.1759 15.7345 17.1848 15.8446 17.1848 15.8446C17.1848 15.8446 17.3095 15.812 17.3281 15.6958C17.3458 15.5795 17.3398 15.52 17.3398 15.52Z" fill="#FFE013"/>
<path d="M17.3398 15.52C17.3398 15.52 17.2181 15.443 17.1017 15.4519C16.9861 15.4611 16.9031 15.5263 16.8785 15.562C16.8548 15.5976 16.8607 15.6306 16.9712 15.6214C17.0811 15.6122 17.1107 15.6214 17.1433 15.6781C17.1759 15.7345 17.1848 15.8446 17.1848 15.8446C17.1848 15.8446 17.3095 15.812 17.3281 15.6958C17.3458 15.5795 17.3398 15.52 17.3398 15.52Z" stroke="#231F20" stroke-width="0.0586613" stroke-miterlimit="3.864"/>
<path d="M16.8662 16.4297C16.8662 16.4297 16.7223 16.4564 16.6949 16.5696C16.6681 16.6828 16.6652 16.7823 16.6837 16.8698C16.7007 16.9576 16.7735 17.0459 16.798 16.967C16.8217 16.8878 16.8277 16.8318 16.8781 16.8103C16.9286 16.79 17.0153 16.8133 17.0153 16.8133C17.0153 16.8133 17.1586 16.7328 17.1617 16.6645C17.1638 16.5963 17.1074 16.5095 17.0481 16.4769C16.9879 16.4442 16.8662 16.4297 16.8662 16.4297Z" fill="#FFE013"/>
<path d="M16.8662 16.4297C16.8662 16.4297 16.7223 16.4564 16.6949 16.5696C16.6681 16.6828 16.6652 16.7823 16.6837 16.8698C16.7007 16.9576 16.7735 17.0459 16.798 16.967C16.8217 16.8878 16.8277 16.8318 16.8781 16.8103C16.9286 16.79 17.0153 16.8133 17.0153 16.8133C17.0153 16.8133 17.1586 16.7328 17.1617 16.6645C17.1638 16.5963 17.1074 16.5095 17.0481 16.4769C16.9879 16.4442 16.8662 16.4297 16.8662 16.4297Z" stroke="#231F20" stroke-width="0.0586613" stroke-miterlimit="3.864"/>
<path d="M17.8906 17.0489C17.8906 17.0489 17.9507 17.1764 18.0397 17.206C18.1294 17.2357 18.2628 17.206 18.3155 17.1938C18.3695 17.1827 18.3125 17.1141 18.2687 17.099C18.2243 17.0848 18.185 17.0337 18.1976 17.0074C18.2087 16.9807 18.2569 16.9254 18.2273 16.8415C18.1976 16.7591 18.1465 16.7379 18.0693 16.756C17.9915 16.7734 17.9529 16.8061 17.9292 16.8598C17.9063 16.9133 17.8906 17.0489 17.8906 17.0489Z" fill="#FFE013"/>
<path d="M17.8906 17.0489C17.8906 17.0489 17.9507 17.1764 18.0397 17.206C18.1294 17.2357 18.2628 17.206 18.3155 17.1938C18.3695 17.1827 18.3125 17.1141 18.2687 17.099C18.2243 17.0848 18.185 17.0337 18.1976 17.0074C18.2087 16.9807 18.2569 16.9254 18.2273 16.8415C18.1976 16.7591 18.1465 16.7379 18.0693 16.756C17.9915 16.7734 17.9529 16.8061 17.9292 16.8598C17.9063 16.9133 17.8906 17.0489 17.8906 17.0489Z" stroke="#231F20" stroke-width="0.0586613" stroke-miterlimit="3.864"/>
<path fill-rule="evenodd" clip-rule="evenodd" d="M18.4375 16.3836C18.4375 16.3836 18.5466 16.354 18.5822 16.4191C18.6178 16.4846 18.6327 16.6069 18.6297 16.6548C18.6267 16.7019 18.698 16.6693 18.7462 16.5917C18.7945 16.5149 18.8226 16.4582 18.8293 16.3866C18.8352 16.3153 18.8293 16.2439 18.8293 16.2439C18.8293 16.2439 18.7106 16.1247 18.6683 16.1039C18.6267 16.0836 18.5362 16.1399 18.5169 16.1696C18.497 16.1992 18.4613 16.253 18.4613 16.2916C18.4613 16.3307 18.4375 16.3836 18.4375 16.3836Z" fill="#FFE013"/>
<path d="M18.4375 16.3836C18.4375 16.3836 18.5466 16.354 18.5822 16.4191C18.6178 16.4846 18.6327 16.6069 18.6297 16.6548C18.6267 16.7019 18.698 16.6693 18.7462 16.5917C18.7945 16.5149 18.8226 16.4582 18.8293 16.3866C18.8352 16.3153 18.8293 16.2439 18.8293 16.2439C18.8293 16.2439 18.7106 16.1247 18.6683 16.1039C18.6267 16.0836 18.5362 16.1399 18.5169 16.1696C18.497 16.1992 18.4613 16.253 18.4613 16.2916C18.4613 16.3307 18.4375 16.3836 18.4375 16.3836Z" stroke="#231F20" stroke-width="0.0586613" stroke-miterlimit="3.864"/>
<path d="M14.2027 14.241C14.2027 14.241 14.0906 14.1332 13.9615 14.106C13.8331 14.0777 13.7218 14.0777 13.6557 14.1166C13.5889 14.1545 13.5258 14.2069 13.6201 14.2206C13.7144 14.2343 13.7566 14.241 13.7737 14.2838C13.7908 14.3246 13.8256 14.3894 13.8473 14.4214C13.868 14.4526 13.9481 14.4804 13.9793 14.47C14.0104 14.4591 14.0973 14.3947 14.136 14.3497C14.1744 14.3041 14.2027 14.241 14.2027 14.241Z" fill="#FFE013"/>
<path d="M14.2027 14.241C14.2027 14.241 14.0906 14.1332 13.9615 14.106C13.8331 14.0777 13.7218 14.0777 13.6557 14.1166C13.5889 14.1545 13.5258 14.2069 13.6201 14.2206C13.7144 14.2343 13.7566 14.241 13.7737 14.2838C13.7908 14.3246 13.8256 14.3894 13.8473 14.4214C13.868 14.4526 13.9481 14.4804 13.9793 14.47C14.0104 14.4591 14.0973 14.3947 14.136 14.3497C14.1744 14.3041 14.2027 14.241 14.2027 14.241Z" stroke="#231F20" stroke-width="0.0586613" stroke-miterlimit="3.864"/>
<path d="M13.3364 14.9023C13.3364 14.9023 13.2109 14.9197 13.1382 14.9754C13.0647 15.0314 13.0269 15.1028 12.9883 15.2052C12.9497 15.3082 12.9845 15.3982 12.9988 15.4509C13.0128 15.5032 13.0752 15.4401 13.11 15.3675C13.1449 15.2943 13.156 15.2877 13.2109 15.2836C13.2673 15.2806 13.3281 15.3082 13.3875 15.2836C13.4468 15.2595 13.4847 15.1908 13.5026 15.1356C13.5195 15.08 13.5195 15.0521 13.4988 15.0314C13.478 15.0102 13.3364 14.9023 13.3364 14.9023Z" fill="#FFE013"/>
<path d="M13.3364 14.9023C13.3364 14.9023 13.2109 14.9197 13.1382 14.9754C13.0647 15.0314 13.0269 15.1028 12.9883 15.2052C12.9497 15.3082 12.9845 15.3982 12.9988 15.4509C13.0128 15.5032 13.0752 15.4401 13.11 15.3675C13.1449 15.2943 13.156 15.2877 13.2109 15.2836C13.2673 15.2806 13.3281 15.3082 13.3875 15.2836C13.4468 15.2595 13.4847 15.1908 13.5026 15.1356C13.5195 15.08 13.5195 15.0521 13.4988 15.0314C13.478 15.0102 13.3364 14.9023 13.3364 14.9023Z" stroke="#231F20" stroke-width="0.0586613" stroke-miterlimit="3.864"/>
<path d="M13.7873 15.9557C13.7873 15.9557 13.7384 16.1006 13.7947 16.2088C13.8504 16.3167 13.9549 16.3756 13.9996 16.3901C14.0455 16.4039 14.0634 16.3516 14.0485 16.2893C14.0351 16.2262 13.9958 16.1883 14.0278 16.139C14.0588 16.09 14.1116 16.0658 14.1116 16.0658C14.1116 16.0658 14.1955 15.9732 14.1776 15.9145C14.1606 15.8556 14.1079 15.7991 14.0418 15.8099C13.9758 15.8203 13.8607 15.8652 13.8437 15.897C13.8259 15.9283 13.7873 15.9557 13.7873 15.9557Z" fill="#FFE013"/>
<path d="M13.7873 15.9557C13.7873 15.9557 13.7384 16.1006 13.7947 16.2088C13.8504 16.3167 13.9549 16.3756 13.9996 16.3901C14.0455 16.4039 14.0634 16.3516 14.0485 16.2893C14.0351 16.2262 13.9958 16.1883 14.0278 16.139C14.0588 16.09 14.1116 16.0658 14.1116 16.0658C14.1116 16.0658 14.1955 15.9732 14.1776 15.9145C14.1606 15.8556 14.1079 15.7991 14.0418 15.8099C13.9758 15.8203 13.8607 15.8652 13.8437 15.897C13.8259 15.9283 13.7873 15.9557 13.7873 15.9557Z" stroke="#231F20" stroke-width="0.0586613" stroke-miterlimit="3.864"/>
<path d="M14.9776 15.5844C14.9776 15.5844 15.0547 15.6371 15.0481 15.714C15.0399 15.7908 14.9954 15.8635 15.0266 15.8811C15.0578 15.8984 15.1713 15.8217 15.227 15.773C15.2827 15.7237 15.3145 15.6468 15.3109 15.5844C15.3071 15.5213 15.2693 15.4277 15.2032 15.403C15.1357 15.3785 15.037 15.3718 15.0087 15.3959C14.9813 15.4205 14.9568 15.4457 14.9642 15.4798C14.9709 15.5147 14.9776 15.5844 14.9776 15.5844Z" fill="#FFE013"/>
<path d="M14.9776 15.5844C14.9776 15.5844 15.0547 15.6371 15.0481 15.714C15.0399 15.7908 14.9954 15.8635 15.0266 15.8811C15.0578 15.8984 15.1713 15.8217 15.227 15.773C15.2827 15.7237 15.3145 15.6468 15.3109 15.5844C15.3071 15.5213 15.2693 15.4277 15.2032 15.403C15.1357 15.3785 15.037 15.3718 15.0087 15.3959C14.9813 15.4205 14.9568 15.4457 14.9642 15.4798C14.9709 15.5147 14.9776 15.5844 14.9776 15.5844Z" stroke="#231F20" stroke-width="0.0586613" stroke-miterlimit="3.864"/>
<path d="M12.7516 10.5895C12.7516 10.5895 12.7635 10.4971 12.6948 10.4245C12.6271 10.3521 12.5495 10.3398 12.4854 10.3275C12.4198 10.3153 12.3787 10.3361 12.4481 10.4121C12.5182 10.4885 12.501 10.5694 12.501 10.5694C12.501 10.5694 12.5823 10.5854 12.6345 10.5933C12.6875 10.6015 12.7516 10.5895 12.7516 10.5895Z" fill="#FFE013"/>
<path d="M12.7516 10.5895C12.7516 10.5895 12.7635 10.4971 12.6948 10.4245C12.6271 10.3521 12.5495 10.3398 12.4854 10.3275C12.4198 10.3153 12.3787 10.3361 12.4481 10.4121C12.5182 10.4885 12.501 10.5694 12.501 10.5694C12.501 10.5694 12.5823 10.5854 12.6345 10.5933C12.6875 10.6015 12.7516 10.5895 12.7516 10.5895Z" stroke="#231F20" stroke-width="0.0586613" stroke-miterlimit="3.864"/>
<path d="M12.1949 11.211C12.1949 11.211 12.0585 11.2073 12.0182 11.2636C11.9779 11.3204 11.9294 11.453 11.9503 11.4813C11.9697 11.5097 12.1911 11.5052 12.1911 11.5052C12.1911 11.5052 12.2679 11.4247 12.2635 11.3882C12.2597 11.3523 12.1949 11.211 12.1949 11.211Z" fill="#FFE013"/>
<path d="M12.1949 11.211C12.1949 11.211 12.0585 11.2073 12.0182 11.2636C11.9779 11.3204 11.9294 11.453 11.9503 11.4813C11.9697 11.5097 12.1911 11.5052 12.1911 11.5052C12.1911 11.5052 12.2679 11.4247 12.2635 11.3882C12.2597 11.3523 12.1949 11.211 12.1949 11.211Z" stroke="#231F20" stroke-width="0.0586613" stroke-miterlimit="3.864"/>
<path d="M12.3151 12.1191C12.3151 12.1191 12.1665 12.147 12.1501 12.2392C12.1339 12.3321 12.1389 12.4323 12.162 12.4964C12.1866 12.5606 12.2586 12.5407 12.2713 12.4766C12.2825 12.412 12.2943 12.3603 12.3352 12.3559C12.3753 12.3517 12.4273 12.3718 12.4273 12.3718C12.4273 12.3718 12.4795 12.3116 12.472 12.2477C12.4639 12.1831 12.4273 12.1352 12.3955 12.1273C12.3634 12.1191 12.3151 12.1191 12.3151 12.1191Z" fill="#FFE013"/>
<path d="M12.3151 12.1191C12.3151 12.1191 12.1665 12.147 12.1501 12.2392C12.1339 12.3321 12.1389 12.4323 12.162 12.4964C12.1866 12.5606 12.2586 12.5407 12.2713 12.4766C12.2825 12.412 12.2943 12.3603 12.3352 12.3559C12.3753 12.3517 12.4273 12.3718 12.4273 12.3718C12.4273 12.3718 12.4795 12.3116 12.472 12.2477C12.4639 12.1831 12.4273 12.1352 12.3955 12.1273C12.3634 12.1191 12.3151 12.1191 12.3151 12.1191Z" stroke="#231F20" stroke-width="0.0586613" stroke-miterlimit="3.864"/>
<path d="M13.3848 12.3942C13.4003 12.3979 13.5286 12.4543 13.5048 12.5224C13.4811 12.5905 13.4322 12.6439 13.4322 12.6672C13.4322 12.6918 13.5447 12.6803 13.6204 12.6477C13.6974 12.6143 13.7805 12.5302 13.7857 12.4383C13.7894 12.3464 13.7249 12.2305 13.7249 12.2305C13.7249 12.2305 13.5611 12.2341 13.5084 12.2538C13.4567 12.2742 13.3684 12.3904 13.3848 12.3942Z" fill="#FFE013"/>
<path d="M13.3848 12.3942C13.4003 12.3979 13.5286 12.4543 13.5048 12.5224C13.4811 12.5905 13.4322 12.6439 13.4322 12.6672C13.4322 12.6918 13.5447 12.6803 13.6204 12.6477C13.6974 12.6143 13.7805 12.5302 13.7857 12.4383C13.7894 12.3464 13.7249 12.2305 13.7249 12.2305C13.7249 12.2305 13.5611 12.2341 13.5084 12.2538C13.4567 12.2742 13.3684 12.3904 13.3848 12.3942Z" stroke="#231F20" stroke-width="0.0586613" stroke-miterlimit="3.864"/>
<path fill-rule="evenodd" clip-rule="evenodd" d="M13.5977 6.43346C13.5977 6.43346 13.6281 6.43346 13.6927 6.4234C13.758 6.41377 13.7885 6.43794 13.7982 6.38326C13.8078 6.32834 13.7327 6.27302 13.7424 6.23817C13.752 6.20285 13.7729 6.20285 13.8182 6.23257C13.8627 6.26304 13.8976 6.29795 13.9184 6.35358C13.9377 6.40813 13.963 6.498 13.963 6.54374C13.963 6.58873 13.963 6.61686 13.9533 6.66706C13.9436 6.71709 13.9227 6.73684 13.9227 6.73684C13.9227 6.73684 13.8627 6.742 13.7885 6.70193C13.7126 6.66213 13.7231 6.69335 13.6823 6.61836C13.6428 6.54374 13.5977 6.43346 13.5977 6.43346Z" fill="#FFE013"/>
<path d="M13.5977 6.43346C13.5977 6.43346 13.6281 6.43346 13.6927 6.4234C13.758 6.41377 13.7885 6.43794 13.7982 6.38326C13.8078 6.32834 13.7327 6.27302 13.7424 6.23817C13.752 6.20285 13.7729 6.20285 13.8182 6.23257C13.8627 6.26304 13.8976 6.29795 13.9184 6.35358C13.9377 6.40813 13.963 6.498 13.963 6.54374C13.963 6.58873 13.963 6.61686 13.9533 6.66706C13.9436 6.71709 13.9227 6.73684 13.9227 6.73684C13.9227 6.73684 13.8627 6.742 13.7885 6.70193C13.7126 6.66213 13.7231 6.69335 13.6823 6.61836C13.6428 6.54374 13.5977 6.43346 13.5977 6.43346Z" stroke="#231F20" stroke-width="0.0586613" stroke-miterlimit="3.864"/>
<path d="M12.6043 6.32752C12.6043 6.32752 12.6214 6.30272 12.6245 6.28462C12.6266 6.26609 12.651 6.22459 12.6318 6.20309C12.6119 6.18052 12.5769 6.18052 12.5385 6.17977C12.4992 6.17823 12.4843 6.18717 12.4747 6.16154C12.4644 6.13566 12.4747 6.1109 12.4969 6.09563C12.5184 6.0798 12.5718 6.05605 12.597 6.04717C12.6214 6.03784 12.6288 6.01747 12.6926 6.0197C12.7563 6.02265 12.7749 6.02494 12.8081 6.05387C12.8421 6.08196 12.8392 6.07197 12.8771 6.12198C12.9141 6.17307 12.9059 6.2042 12.9059 6.2042L12.8392 6.31868C12.8392 6.31868 12.8311 6.3628 12.7985 6.37535C12.7659 6.38834 12.7378 6.37535 12.7185 6.3702C12.6992 6.36504 12.6652 6.35054 12.637 6.34643C12.6081 6.34277 12.6043 6.32752 12.6043 6.32752Z" fill="#FFE013"/>
<path d="M12.6043 6.32752C12.6043 6.32752 12.6214 6.30272 12.6245 6.28462C12.6266 6.26609 12.651 6.22459 12.6318 6.20309C12.6119 6.18052 12.5769 6.18052 12.5385 6.17977C12.4992 6.17823 12.4843 6.18717 12.4747 6.16154C12.4644 6.13566 12.4747 6.1109 12.4969 6.09563C12.5184 6.0798 12.5718 6.05605 12.597 6.04717C12.6214 6.03784 12.6288 6.01747 12.6926 6.0197C12.7563 6.02265 12.7749 6.02494 12.8081 6.05387C12.8421 6.08196 12.8392 6.07197 12.8771 6.12198C12.9141 6.17307 12.9059 6.2042 12.9059 6.2042L12.8392 6.31868C12.8392 6.31868 12.8311 6.3628 12.7985 6.37535C12.7659 6.38834 12.7378 6.37535 12.7185 6.3702C12.6992 6.36504 12.6652 6.35054 12.637 6.34643C12.6081 6.34277 12.6043 6.32752 12.6043 6.32752Z" stroke="#231F20" stroke-width="0.0586613" stroke-miterlimit="3.864"/>
<path d="M12.3107 6.85724C12.3107 6.85724 12.2921 6.81593 12.214 6.80845C12.135 6.80067 12.0718 6.77873 12.0419 6.81593C12.0116 6.85343 11.9378 6.9242 11.9415 6.95773C11.9446 6.99113 11.9526 7.00567 11.9936 7.01721C12.0346 7.0288 12.0569 7.01352 12.1097 7.01721C12.1611 7.02089 12.2206 7.04408 12.2206 7.04408C12.2206 7.04408 12.2772 7.01721 12.2846 6.98378C12.2921 6.95027 12.3107 6.85724 12.3107 6.85724Z" fill="#FFE013"/>
<path d="M12.3107 6.85724C12.3107 6.85724 12.2921 6.81593 12.214 6.80845C12.135 6.80067 12.0718 6.77873 12.0419 6.81593C12.0116 6.85343 11.9378 6.9242 11.9415 6.95773C11.9446 6.99113 11.9526 7.00567 11.9936 7.01721C12.0346 7.0288 12.0569 7.01352 12.1097 7.01721C12.1611 7.02089 12.2206 7.04408 12.2206 7.04408C12.2206 7.04408 12.2772 7.01721 12.2846 6.98378C12.2921 6.95027 12.3107 6.85724 12.3107 6.85724Z" stroke="#231F20" stroke-width="0.0586613" stroke-miterlimit="3.864"/>
<path fill-rule="evenodd" clip-rule="evenodd" d="M12.621 8.21094C12.621 8.21094 12.6254 8.24729 12.6098 8.28068C12.5957 8.31521 12.5957 8.34449 12.5511 8.36265C12.5059 8.38202 12.4502 8.39649 12.4168 8.39649C12.3834 8.39649 12.3611 8.41535 12.3687 8.43357C12.376 8.45175 12.428 8.47475 12.4539 8.48596C12.4799 8.4967 12.618 8.50409 12.6431 8.50409C12.6699 8.50409 12.7746 8.48596 12.8036 8.4707C12.8333 8.45539 12.8414 8.47475 12.8674 8.43357C12.8926 8.3924 12.8147 8.32557 12.7888 8.30368C12.7627 8.28068 12.621 8.21094 12.621 8.21094Z" fill="#FFE013"/>
<path d="M12.621 8.21094C12.621 8.21094 12.6254 8.24729 12.6098 8.28068C12.5957 8.31521 12.5957 8.34449 12.5511 8.36265C12.5059 8.38202 12.4502 8.39649 12.4168 8.39649C12.3834 8.39649 12.3611 8.41535 12.3687 8.43357C12.376 8.45175 12.428 8.47475 12.4539 8.48596C12.4799 8.4967 12.618 8.50409 12.6431 8.50409C12.6699 8.50409 12.7746 8.48596 12.8036 8.4707C12.8333 8.45539 12.8414 8.47475 12.8674 8.43357C12.8926 8.3924 12.8147 8.32557 12.7888 8.30368C12.7627 8.28068 12.621 8.21094 12.621 8.21094Z" stroke="#231F20" stroke-width="0.0586613" stroke-miterlimit="3.864"/>
<path d="M13.8716 8.59551C13.774 8.44101 13.4355 8.06967 13.3609 7.9766C13.2877 7.88265 13.1834 7.79173 13.1317 7.81465C13.08 7.83721 13.0474 7.95071 13.0187 8.03087C12.9891 8.11178 12.9351 8.16644 12.9766 8.24447C13.0187 8.32171 13.029 8.3919 12.964 8.42741C12.8997 8.46323 12.8671 8.40859 12.8605 8.37602C12.8538 8.3435 12.7378 8.26698 12.6543 8.21858C12.5693 8.17022 12.4607 8.18607 12.4607 8.18607C12.4607 8.18607 12.4762 8.07332 12.5028 8.01826C12.5286 7.96364 12.6543 7.96988 12.6861 7.96364C12.7186 7.95699 12.7733 7.91155 12.8125 7.85678C12.8509 7.8017 12.8472 7.74333 12.8642 7.70162C12.8797 7.65954 12.9381 7.60183 12.9315 7.54049C12.9255 7.47845 12.828 7.43075 12.757 7.4148C12.6861 7.3982 12.6276 7.45365 12.5435 7.41113C12.46 7.36975 12.4673 7.2825 12.4089 7.24298C12.3505 7.20454 12.2921 7.24703 12.2508 7.25999C12.2086 7.27256 12.1568 7.25296 12.1243 7.19871C12.0918 7.1432 12.1414 7.02757 12.1414 7.02757C12.1414 7.02757 12.2086 7.0405 12.2412 7.02757C12.2737 7.01463 12.3054 6.90109 12.2958 6.84944C12.2862 6.79803 12.3283 6.75261 12.3668 6.75891C12.4052 6.76555 12.4503 6.87234 12.5124 6.95919C12.5738 7.04637 12.7215 7.14025 12.7984 7.18275C12.8767 7.22409 12.9381 7.19871 12.9381 7.19871C12.9381 7.19871 12.9507 7.13022 12.9123 7.0405C12.8738 6.94956 12.7984 6.97216 12.7636 6.90784C12.7282 6.84278 12.7733 6.81098 12.76 6.7301C12.7475 6.64914 12.6926 6.63397 12.6019 6.54303C12.5115 6.45292 12.5251 6.45625 12.5308 6.36905C12.5374 6.28101 12.5863 6.32064 12.6218 6.32982C12.6571 6.33945 12.7215 6.36905 12.76 6.37829C12.7984 6.38781 12.8154 6.33646 12.8353 6.28515C12.8538 6.23263 12.9093 6.16832 12.9093 6.16832C12.9093 6.16832 13.0061 6.16243 13.029 6.21382C13.0512 6.26519 13.0445 6.41739 13.0445 6.55306C13.0445 6.68831 13.1769 6.88822 13.1769 6.88822C13.1769 6.88822 13.2419 6.90408 13.2899 6.90408C13.3387 6.90408 13.4215 6.86863 13.4606 6.78145C13.4999 6.69463 13.4709 6.5756 13.4709 6.4847C13.4709 6.39489 13.5641 6.37487 13.5641 6.37487C13.5641 6.37487 13.6322 6.53712 13.6639 6.5944C13.6964 6.65282 13.7444 6.67868 13.8058 6.69463C13.8678 6.7105 13.9197 6.72011 13.9197 6.72011C13.9197 6.72011 13.9514 6.73304 13.9743 6.76555C13.9965 6.79803 13.9484 6.88523 13.8678 6.9137C13.7873 6.94329 13.7644 6.86575 13.6802 6.90109C13.5966 6.93663 13.6225 7.03634 13.635 7.07589C13.6476 7.11443 13.6225 7.13725 13.5353 7.2112C13.4481 7.28551 13.4156 7.40228 13.406 7.50869C13.3957 7.61478 13.6322 7.85979 13.7288 7.96988C13.8258 8.07928 14.2552 8.42438 14.2552 8.42438C14.2552 8.42438 14.2839 8.38603 14.3261 8.30879C14.3674 8.2322 14.4717 8.20197 14.5131 8.209C14.5552 8.21493 14.5199 8.33536 14.5168 8.41856C14.5131 8.50171 14.607 8.59958 14.6942 8.70896C14.7806 8.81911 15.0202 9.07413 15.0202 9.07413C15.0202 9.07413 15.2492 8.91261 15.3298 8.83802C15.4104 8.76366 15.6913 8.60253 15.8923 8.48583C16.0926 8.37013 16.1687 8.27994 16.1717 8.17649C16.176 8.07332 16.0431 7.7788 15.9979 7.71157C15.9529 7.64359 15.9373 7.47913 15.9047 7.37269C15.8723 7.26671 15.7045 6.22379 15.7045 6.22379C15.7045 6.22379 15.8176 6.12293 15.8693 6.10406C15.9204 6.08442 16.0629 6.06855 16.0629 6.06855C16.0629 6.06855 16.1206 5.85832 16.1916 5.7422C16.2625 5.62729 16.4377 5.63946 16.5205 5.59696C16.6048 5.55526 16.6247 5.55526 16.6757 5.58117C16.7282 5.60702 16.6115 5.70677 16.5692 5.75887C16.5279 5.81058 16.5309 5.99724 16.5375 5.98764C16.5441 5.97767 16.5663 5.84242 16.8938 5.73484C17.2219 5.62729 17.4518 5.65318 17.5648 5.67356C17.6772 5.69388 17.7289 5.74519 17.7083 5.77108C17.6883 5.79624 17.5959 5.79624 17.5597 5.82731C17.5234 5.85751 17.4162 5.99133 17.298 6.05709C17.1805 6.12361 16.9537 6.18717 16.944 6.30545C16.9344 6.42373 16.9537 6.49469 17.0075 6.54085C17.0623 6.58781 17.1088 6.70899 17.1354 6.79214C17.1628 6.87608 17.2596 7.0379 17.3409 7.06528C17.4215 7.09183 17.5021 7.11144 17.5234 7.05783C17.5456 7.00317 17.5434 6.97366 17.5678 6.9569C17.5922 6.93964 17.686 6.98134 17.6743 7.04782C17.6624 7.11366 17.649 7.22409 17.5633 7.27326C17.4769 7.32239 17.369 7.35756 17.3247 7.35756C17.2811 7.35756 17.2515 7.44142 17.3106 7.52459C17.369 7.60881 17.4156 7.6746 17.5065 7.70162C17.5973 7.72898 17.6647 7.70939 17.6691 7.72898C17.6743 7.74885 17.6735 7.91298 17.6195 7.95993C17.5655 8.00614 17.4526 7.99613 17.4156 7.98652C17.3794 7.9766 17.3268 7.94476 17.3268 7.94476C17.3268 7.94476 17.2315 8.24152 17.3225 8.35722C17.4134 8.47398 17.5168 8.49874 17.6543 8.40048C17.7925 8.301 17.9388 8.17792 18.0113 8.07266C18.0822 7.96653 18.2315 7.71932 18.3054 7.6624C18.3786 7.60548 18.4259 7.60548 18.4607 7.64067C18.4947 7.6746 18.4695 7.74111 18.4503 7.78512C18.4304 7.82985 18.6793 7.658 18.7259 7.59587C18.7725 7.53456 19.0282 7.20012 19.1139 7.0183C19.1997 6.83689 19.3948 6.42373 19.4414 6.17754C19.4887 5.93221 19.5205 5.72267 19.5182 5.64844C19.5146 5.57524 19.5339 5.4799 19.6069 5.43809C19.6817 5.39635 19.842 5.38602 19.9181 5.46695C19.9942 5.54788 20.1185 5.70897 20.1096 6.01316C20.1022 6.2932 20.0238 6.45915 19.9839 6.59995C19.9447 6.74075 19.8029 7.13103 19.8029 7.13103C19.8029 7.13103 19.9358 7.06447 20.2922 6.59005C20.6477 6.11629 20.7777 5.88084 20.8368 5.79912C20.896 5.71751 21.0002 5.63877 21.0911 5.66138C21.1821 5.68312 21.213 5.79624 21.2107 6.05937C21.2094 6.30986 21.1228 6.53385 20.9714 6.86863C20.8183 7.20236 20.5848 7.54346 20.4694 7.70346C20.3541 7.86308 20.0653 8.20415 19.9352 8.34497C19.805 8.48583 19.6749 8.64547 19.6941 8.66767C19.7141 8.68948 19.7658 8.69424 20.3395 8.27915C20.9115 7.86389 21.2241 7.56113 21.4133 7.34461C21.6025 7.12875 21.8583 6.86306 21.9544 6.81395C22.0497 6.76555 22.1007 6.86645 22.1036 7.02044C22.1058 7.17568 22.0993 7.54971 22.0076 7.72598C21.9167 7.90299 21.6795 8.14467 21.3187 8.4322C21.0068 8.68058 20.658 9.01348 20.4466 9.16394C20.2352 9.31466 20.0504 9.4743 20.0608 9.49097C20.0704 9.5083 20.3453 9.41441 20.862 9.12254C21.3786 8.82942 21.7859 8.52309 21.7859 8.52309C21.7859 8.52309 21.9307 8.57892 21.9108 8.86641C21.8916 9.15427 21.6764 9.50757 21.2042 9.79841C20.7319 10.0889 20.2152 10.3121 19.9942 10.3856C19.7732 10.4595 19.451 10.5382 19.451 10.5382C19.451 10.5382 19.5324 10.72 19.8073 10.7344C20.0822 10.7496 20.312 10.7101 20.4288 10.6558C20.547 10.6018 20.6292 10.5483 20.7171 10.5922C20.8051 10.6368 20.7777 10.7607 20.7563 10.8601C20.7341 10.9592 20.5493 11.4377 20.1584 11.5382C19.7681 11.6388 19.4384 11.4987 19.3402 11.4352C19.2419 11.3716 19.0327 11.3368 19.0231 11.3564C19.0142 11.3764 19.2408 11.5648 19.3806 11.8561C19.5931 12.2985 19.2996 13.0341 19.1193 12.8869C18.9677 12.7632 18.8373 12.4252 18.6534 12.2413C18.4042 11.9921 18.2833 11.8199 18.2345 11.8014C18.1849 11.784 18.1923 11.8561 18.2271 11.9369C18.2611 12.0179 18.3719 12.3047 18.3254 12.4798C18.278 12.6554 18.2271 12.6995 18.2271 12.6995C18.2271 12.6995 18.4607 13.0064 18.5744 13.1533C18.6869 13.3009 18.7459 13.3394 18.8782 13.4312C19.0106 13.5227 19.6756 14.0069 20.003 13.6725C20.3296 13.338 20.2926 13.1125 20.2113 12.766C20.1308 12.4185 20.2587 12.2807 20.3422 12.1506C20.4249 12.0201 20.4893 11.9159 20.4767 11.8047C20.4641 11.6935 20.4183 11.6222 20.4183 11.5752C20.4183 11.5283 20.4568 11.4921 20.541 11.4943C20.6238 11.4965 20.686 11.5412 20.7767 11.5312C20.8676 11.5216 20.9764 11.4255 21.0502 11.3247C21.1234 11.2241 21.2734 11.1014 21.3466 11.0568C21.4212 11.0127 21.45 10.9932 21.4575 10.9592C21.4723 10.8942 21.4723 10.7814 21.4234 10.7618C21.3739 10.7419 21.3444 10.8306 21.2854 10.8206C21.2269 10.8109 21.2121 10.6854 21.3053 10.624C21.3984 10.5627 21.547 10.5453 21.6401 10.5974C21.7339 10.6487 21.8706 10.8413 21.7953 11.0985C21.7183 11.3564 21.4827 11.4965 21.4257 11.6292C21.3695 11.7622 21.3526 11.8734 21.3526 11.8734C21.3526 11.8734 21.4804 11.8365 21.5787 11.8634C21.677 11.8901 21.7383 12.0035 21.7383 12.0792C21.7383 12.1557 21.7458 12.2216 21.6911 12.2344C21.6378 12.2467 21.5092 12.2049 21.4212 12.2519C21.3326 12.2981 21.1256 12.522 21.0473 12.7754C20.9682 13.0283 20.8737 13.2918 20.7331 13.5053C20.5928 13.7192 20.4139 13.9252 20.0326 14.0731C19.6512 14.2204 18.8835 13.8003 18.8021 13.761C18.7209 13.7215 18.5419 13.6188 18.5419 13.6188C18.5419 13.6188 18.5175 14.2112 18.5744 14.3779C18.6299 14.545 18.8317 14.7954 18.9574 14.9333C19.0823 15.0705 19.2965 15.233 19.3201 15.3934C19.3453 15.5522 19.2863 15.5753 19.2567 15.6628C19.227 15.7515 19.227 15.8576 19.1213 15.9558C19.0164 16.0535 18.8857 16.0216 18.8857 16.0216C18.8857 16.0216 18.9255 16.0915 18.9055 16.168C18.8857 16.2433 18.8486 16.2633 18.8074 16.2367C18.7658 16.2092 18.6854 16.0476 18.5744 16.1307C18.4629 16.2137 18.4673 16.2807 18.4651 16.3343C18.4629 16.3889 18.4103 16.4208 18.3372 16.4107C18.264 16.4007 18.1598 16.4181 18.2611 16.5285C18.3623 16.6392 18.4237 16.7193 18.3845 16.8209C18.3447 16.9221 18.2271 16.9617 18.2271 16.9617C18.2271 16.9617 18.2486 16.7496 18.1184 16.7544C17.9884 16.7596 17.9521 16.808 17.9292 16.8823C17.907 16.9567 17.9129 17.0501 17.9129 17.0501C17.9129 17.0501 17.7289 17.0845 17.689 17.0087C17.649 16.9321 17.6743 16.8132 17.74 16.7422C17.8065 16.6709 17.8109 16.61 17.7726 16.5945C17.7334 16.5804 17.6439 16.644 17.5774 16.7178C17.5116 16.7914 17.4008 16.7717 17.4008 16.7717C17.4008 16.7717 17.4325 16.9127 17.3202 16.9836C17.2064 17.0548 17.165 16.964 17.0962 16.9445C17.0283 16.9247 16.9854 16.8527 17.0283 16.8058C17.0696 16.7596 17.1775 16.7178 17.1502 16.6196C17.1236 16.5212 17.035 16.4547 16.9759 16.4447C16.9166 16.4355 16.8508 16.4325 16.8508 16.4325C16.8508 16.4325 16.8531 16.3002 16.9366 16.2315C17.0201 16.1624 17.0837 16.1089 17.0837 16.1089C17.0837 16.1089 17.0474 15.9998 17.0542 15.9459C17.0623 15.8916 17.1088 15.8693 17.185 15.8425C17.2611 15.8157 17.3106 15.7636 17.3268 15.6827C17.3446 15.6017 17.3321 15.5009 17.3321 15.5009C17.3321 15.5009 17.4998 15.4691 17.5633 15.5261C17.627 15.5819 17.6248 15.6605 17.6166 15.747C17.6099 15.8324 17.6099 15.9089 17.6099 15.9089C17.6099 15.9089 17.7896 15.9189 17.8465 15.8816C17.9026 15.8453 17.9321 15.7174 17.9914 15.6509C18.0498 15.5852 18.1339 15.5261 18.1162 15.4077C18.0991 15.29 18.0726 15.2057 17.964 15.1324C17.856 15.0582 17.76 14.9728 17.7334 14.926C17.706 14.879 17.6639 14.869 17.6218 14.916C17.5804 14.9629 17.4769 15.1094 17.2493 15.0899C17.0201 15.0705 16.9366 14.9182 16.9366 14.9182C16.9366 14.9182 17.0815 14.8351 17.1037 14.7464C17.1258 14.6581 17.1331 14.4954 17.0667 14.3209C17.0009 14.1461 16.9906 14.0608 16.9832 13.8519C16.9759 13.6428 16.9736 13.5179 16.9736 13.5179C16.9736 13.5179 16.3837 13.5127 16.0275 13.668C15.6706 13.8225 15.5848 13.9844 15.5848 14.1069C15.5848 14.2303 15.6255 14.3875 15.7903 14.5404C15.9566 14.6927 15.9979 14.7489 15.9905 14.869C15.9831 14.9895 15.9698 15.0756 15.8568 15.0779C15.7445 15.08 15.6875 15.1239 15.641 15.1787C15.5944 15.233 15.4961 15.3173 15.4614 15.3313C15.4273 15.3465 15.4223 15.3542 15.4 15.4155C15.3779 15.4769 15.3047 15.5039 15.3047 15.5039C15.3047 15.5039 15.202 15.3587 15.1036 15.3782C15.0039 15.3981 14.9573 15.4155 14.9646 15.4769C14.9721 15.5384 14.9824 15.5852 14.9824 15.5852C14.9824 15.5852 14.8443 15.5601 14.7363 15.5722C14.6284 15.5852 14.5472 15.6243 14.5006 15.6192C14.454 15.6144 14.4104 15.6561 14.4295 15.7393C14.4488 15.8229 14.5079 15.896 14.4761 15.9951C14.4443 16.0938 14.3542 16.1089 14.2766 16.0938C14.2005 16.0794 14.0955 16.0715 14.0955 16.0715C14.0955 16.0715 14.23 15.9558 14.1392 15.8619C14.0482 15.7688 13.9225 15.828 13.8812 15.8693C13.8391 15.9111 13.7726 15.9726 13.7726 15.9726C13.7726 15.9726 13.6742 15.9211 13.7016 15.8006C13.7288 15.68 13.7703 15.6243 13.8612 15.5623C13.9521 15.5009 13.9839 15.4126 13.893 15.4178C13.8022 15.4222 13.5995 15.4648 13.4806 15.457C13.3616 15.4496 13.2907 15.3708 13.264 15.3465C13.2367 15.3218 13.2471 15.292 13.2471 15.292C13.2471 15.292 13.4096 15.318 13.4606 15.2089C13.5123 15.1 13.53 15.0582 13.4532 14.9947C13.3779 14.9303 13.3275 14.8909 13.3275 14.8909C13.3275 14.8909 13.3875 14.7518 13.4984 14.7562C13.6084 14.7614 13.6823 14.8546 13.7947 14.8842C13.9086 14.9137 13.972 14.8985 13.972 14.8985C13.972 14.8985 14.0135 14.7981 13.972 14.7541C13.93 14.7094 13.8361 14.7585 13.7681 14.7147C13.6992 14.6697 13.5789 14.5187 13.6402 14.4322C13.7016 14.3453 13.7829 14.3384 13.7829 14.3384C13.7829 14.3384 13.9026 14.5109 13.9935 14.4543C14.0844 14.3975 14.1709 14.3135 14.1782 14.2862C14.185 14.2595 14.2101 14.2327 14.2101 14.2327C14.2101 14.2327 14.3631 14.2356 14.4 14.3996C14.4363 14.5648 14.3875 14.8154 14.3875 14.8154C14.3875 14.8154 14.5079 14.8424 14.6499 14.7954C14.7932 14.7489 14.9891 14.6875 15.0216 14.6458C15.0534 14.6041 15.0415 14.4957 14.9551 14.4293C14.8686 14.3633 14.5892 14.1691 14.5249 14.0261C14.4614 13.8837 14.4156 13.6283 14.2603 13.5523C14.1044 13.4751 13.972 13.4846 13.8316 13.4902C13.6919 13.4946 13.4237 13.4037 13.3571 13.2715C13.2907 13.1388 13.3003 13.0823 13.3003 13.0823C13.3003 13.0823 13.4606 13.1827 13.5323 13.1366C13.6032 13.0896 13.6823 12.9639 13.8568 12.9226C14.0313 12.8809 14.3165 12.9156 14.3165 12.9156C14.3165 12.9156 14.4037 12.6591 14.8228 12.5264C15.2403 12.3941 15.6884 12.4481 15.9831 12.519C16.278 12.5899 16.4008 12.6 16.4946 12.5956C16.5878 12.5899 16.7372 12.566 16.7372 12.566C16.7372 12.566 16.4281 12.2272 16.233 12.0082C16.0393 11.7895 15.8398 11.5948 15.8398 11.5948C15.8398 11.5948 15.7289 11.6047 15.5457 11.6587C15.3609 11.7131 15.1784 11.6878 14.9506 11.676C14.7215 11.6639 14.5937 11.6439 14.4717 11.7108C14.3491 11.7766 14.2855 11.8288 14.2448 11.8878C14.2049 11.9469 14.0334 11.8184 14.0823 11.6835C14.1318 11.5479 14.2049 11.4747 14.2049 11.4747C14.2049 11.4747 13.8634 11.5139 13.6698 11.5312C13.4754 11.5479 13.2448 11.5153 13.3025 11.7818C13.3616 12.0474 13.5693 12.0552 13.6402 12.0671C13.7112 12.0792 13.7267 12.158 13.7193 12.1953C13.7112 12.2315 13.709 12.2445 13.709 12.2445C13.709 12.2445 13.5715 12.2115 13.4784 12.2683C13.3844 12.3253 13.3875 12.3941 13.3875 12.3941C13.3875 12.3941 13.2834 12.4164 13.2471 12.3494C13.2093 12.2836 13.2589 12.2172 13.2907 12.1754C13.3224 12.134 13.3003 12.1241 13.261 12.1241C13.2219 12.1241 13.1252 12.111 13.1169 12.0552C13.1044 11.9764 13.1805 11.8901 13.1148 11.8539C13.0474 11.8169 12.9373 11.8583 12.9123 11.9415C12.8878 12.0257 12.8309 12.1635 12.7851 12.168C12.7386 12.1732 12.6455 12.1306 12.632 12.1602C12.6204 12.1898 12.6078 12.2906 12.6159 12.3595C12.6232 12.428 12.5699 12.4895 12.5138 12.4798C12.4577 12.4699 12.4355 12.3911 12.4355 12.3911C12.4355 12.3911 12.485 12.2663 12.4496 12.1898C12.4155 12.114 12.3173 12.1162 12.3173 12.1162C12.3173 12.1162 12.2759 12.0157 12.3217 11.9838C12.369 11.9521 12.4481 11.994 12.5198 11.9666C12.5907 11.9392 12.7969 11.7723 12.8635 11.7253C12.9299 11.6784 12.9743 11.6099 12.9447 11.6025C12.9152 11.5948 12.7895 11.6561 12.6912 11.6321C12.5937 11.607 12.5693 11.5479 12.5272 11.5382C12.485 11.5283 12.4399 11.5678 12.4155 11.6199C12.3919 11.6712 12.2928 11.6878 12.2346 11.6321C12.202 11.6004 12.1827 11.4891 12.1827 11.4891C12.1827 11.4891 12.2582 11.4548 12.2463 11.3564C12.2346 11.2582 12.1827 11.2097 12.2168 11.1749C12.2508 11.141 12.2877 11.1236 12.3268 11.1432C12.3668 11.1628 12.4082 11.2337 12.46 11.2907C12.5109 11.3469 12.5611 11.3391 12.6034 11.3051C12.6455 11.2711 12.6417 11.1749 12.5907 11.1528C12.539 11.131 12.4429 11.0719 12.4791 11.0271C12.5161 10.9836 12.5641 10.9939 12.5738 10.9417C12.584 10.8897 12.536 10.7987 12.4769 10.7714C12.4178 10.7445 12.3623 10.6688 12.3919 10.6196C12.42 10.5701 12.5138 10.5701 12.5138 10.5701C12.5138 10.5701 12.6498 10.5974 12.7363 10.5974C12.8213 10.5974 12.8412 10.5822 12.89 10.6018C12.9396 10.6218 12.9669 10.7127 12.9255 10.7714C12.8834 10.8306 12.7917 10.8927 12.8169 10.9713C12.8412 11.0502 12.9417 11.3129 12.9417 11.3129C12.9417 11.3129 13.2545 11.2777 13.522 11.2459C13.7903 11.2142 14.1635 11.1281 14.1635 11.1281C14.1635 11.1281 14.0186 11.0046 14.0068 10.8993C13.9935 10.7936 13.9913 10.7246 14.0409 10.73C14.0896 10.7344 14.1185 10.7911 14.2227 10.8088C14.3261 10.8254 14.4813 10.8254 14.604 10.8109C14.7652 10.7918 14.825 10.7149 14.825 10.7149C14.825 10.7149 14.6409 10.5135 14.6114 10.3786C14.5818 10.2434 14.6018 9.8794 14.6018 9.8794C14.6018 9.8794 14.3801 9.60914 14.2204 9.48655C14.0609 9.36307 13.9743 9.32435 13.8657 9.34866C13.7584 9.37269 13.7267 9.43475 13.6992 9.38823C13.672 9.3413 13.6646 9.21529 13.7584 9.12254C13.8517 9.02865 14.0609 8.9204 14.0609 8.9204C14.0609 8.9204 13.9684 8.75075 13.8716 8.59551Z" fill="#ED1C24" stroke="black" stroke-width="0.0586516" stroke-miterlimit="3.864"/>
<path d="M15.6279 6.19949C15.528 6.17251 15.451 6.19949 15.451 6.19949C15.451 6.19949 15.3607 6.21242 15.337 6.23982C15.3134 6.2664 15.2771 6.292 15.2535 6.34677C15.2364 6.38675 15.2401 6.46333 15.2401 6.46333C15.2401 6.46333 15.1868 6.47694 15.1669 6.48694C15.1461 6.49735 14.8789 6.50731 14.8287 6.62093C14.7784 6.73454 14.805 7.02238 14.8753 7.06571C14.9464 7.10971 14.9322 7.07266 14.9493 7.06268C14.9657 7.05276 15.016 6.97534 15.1033 6.98534C15.1898 6.99537 15.3341 7.05607 15.4178 7.05902C15.5006 7.06268 15.6353 6.98534 15.7759 7.02941C15.9158 7.07266 16.1363 7.25655 16.2102 7.41714C16.2843 7.57811 16.2814 7.65283 16.2605 7.70467C16.2473 7.73863 16.1999 7.76495 16.12 7.76134C16.0393 7.75835 15.7485 7.67504 15.4784 7.77199C15.2069 7.86891 15.2801 7.84857 15.2638 7.86891C15.2468 7.88853 15.2609 7.92255 15.2801 7.92889C15.3008 7.93552 15.6383 7.95223 15.7018 7.93887C15.7656 7.9259 16.063 7.94556 16.1466 7.93552C16.2302 7.9259 16.3605 7.94253 16.4049 7.82197C16.4478 7.70136 16.4049 7.5408 16.3946 7.50082C16.3842 7.46047 16.2969 7.24288 16.1836 7.12264C16.0697 7.00203 15.932 6.8292 15.8899 6.65424C15.8455 6.47694 15.8402 6.46107 15.8055 6.3701C15.7524 6.22905 15.6279 6.19949 15.6279 6.19949Z" fill="#FFE013"/>
<path d="M15.6279 6.19949C15.528 6.17251 15.451 6.19949 15.451 6.19949C15.451 6.19949 15.3607 6.21242 15.337 6.23982C15.3134 6.2664 15.2771 6.292 15.2535 6.34677C15.2364 6.38675 15.2401 6.46333 15.2401 6.46333C15.2401 6.46333 15.1868 6.47694 15.1669 6.48694C15.1461 6.49735 14.8789 6.50731 14.8287 6.62093C14.7784 6.73454 14.805 7.02238 14.8753 7.06571C14.9464 7.10971 14.9322 7.07266 14.9493 7.06268C14.9657 7.05276 15.016 6.97534 15.1033 6.98534C15.1898 6.99537 15.3341 7.05607 15.4178 7.05902C15.5006 7.06268 15.6353 6.98534 15.7759 7.02941C15.9158 7.07266 16.1363 7.25655 16.2102 7.41714C16.2843 7.57811 16.2814 7.65283 16.2605 7.70467C16.2473 7.73863 16.1999 7.76495 16.12 7.76134C16.0393 7.75835 15.7485 7.67504 15.4784 7.77199C15.2069 7.86891 15.2801 7.84857 15.2638 7.86891C15.2468 7.88853 15.2609 7.92255 15.2801 7.92889C15.3008 7.93552 15.6383 7.95223 15.7018 7.93887C15.7656 7.9259 16.063 7.94556 16.1466 7.93552C16.2302 7.9259 16.3605 7.94253 16.4049 7.82197C16.4478 7.70136 16.4049 7.5408 16.3946 7.50082C16.3842 7.46047 16.2969 7.24288 16.1836 7.12264C16.0697 7.00203 15.932 6.8292 15.8899 6.65424C15.8455 6.47694 15.8402 6.46107 15.8055 6.3701C15.7524 6.22905 15.6279 6.19949 15.6279 6.19949Z" stroke="#231F20" stroke-width="0.0586613" stroke-miterlimit="3.864"/>
<path d="M14.3346 7.14741C14.3079 7.14149 14.2006 7.16103 14.1672 7.2884C14.1384 7.39977 14.1436 7.57884 14.3346 7.63616C14.6698 7.73716 14.8511 7.62879 15.1309 7.60286C15.4195 7.57662 15.4995 7.56587 15.7066 7.55593C15.988 7.54219 16.0798 7.53407 16.1522 7.55999C16.2122 7.58031 16.261 7.6059 16.261 7.6059C16.261 7.6059 16.2425 7.42197 16.1818 7.36198C16.1552 7.3354 16.0678 7.32161 16.0678 7.32161C16.0678 7.32161 15.8073 7.31497 15.5728 7.36198C15.3389 7.409 14.9511 7.46895 14.7364 7.456C14.5219 7.44226 14.3835 7.3887 14.3746 7.32873C14.362 7.23467 14.4218 7.1943 14.402 7.16808C14.3819 7.14149 14.362 7.15442 14.3346 7.14741Z" fill="#ED1C24"/>
<path d="M14.3346 7.14741C14.3079 7.14149 14.2006 7.16103 14.1672 7.2884C14.1384 7.39977 14.1436 7.57884 14.3346 7.63616C14.6698 7.73716 14.8511 7.62879 15.1309 7.60286C15.4195 7.57662 15.4995 7.56587 15.7066 7.55593C15.988 7.54219 16.0798 7.53407 16.1522 7.55999C16.2122 7.58031 16.261 7.6059 16.261 7.6059C16.261 7.6059 16.2425 7.42197 16.1818 7.36198C16.1552 7.3354 16.0678 7.32161 16.0678 7.32161C16.0678 7.32161 15.8073 7.31497 15.5728 7.36198C15.3389 7.409 14.9511 7.46895 14.7364 7.456C14.5219 7.44226 14.3835 7.3887 14.3746 7.32873C14.362 7.23467 14.4218 7.1943 14.402 7.16808C14.3819 7.14149 14.362 7.15442 14.3346 7.14741Z" stroke="#231F20" stroke-width="0.0586613" stroke-miterlimit="3.864"/>
<path d="M15.8789 6.31089C15.8789 6.31089 15.9716 6.54711 16.0117 6.58055C16.0532 6.61425 16.1705 6.62089 16.235 6.60127C16.2988 6.58055 16.4309 6.49625 16.4309 6.49625C16.4309 6.49625 16.3225 6.38833 16.2788 6.36127C16.235 6.33458 16.1542 6.30716 16.0865 6.31089C16.0199 6.31417 15.8789 6.31089 15.8789 6.31089Z" fill="white"/>
<path d="M13.6374 15.4496C13.6374 15.4496 13.5715 15.2914 13.6418 15.2233C13.7136 15.1541 13.8734 15.1541 13.9725 15.1785C14.0717 15.2019 14.1708 15.1875 14.1708 15.1875M15.3361 14.3262C15.3361 14.3262 15.3316 14.4375 15.4352 14.5033C15.5388 14.5691 15.6113 14.6754 15.6068 14.7413C15.6009 14.807 15.5248 14.9228 15.5011 14.9466C15.4774 14.971 15.4301 15.0268 15.4301 15.0268L15.3361 14.3262ZM15.2746 15.183C15.2746 15.183 15.3501 15.2466 15.3738 15.2843C15.3974 15.3224 15.402 15.3783 15.402 15.3783L15.2746 15.183ZM14.8004 15.251C14.8004 15.251 14.6938 15.2762 14.6777 15.3645C14.6583 15.4686 14.739 15.5625 14.739 15.5625L14.8004 15.251Z" stroke="#231F20" stroke-width="0.0586613" stroke-miterlimit="3.864"/>
<path d="M13.9785 14.9042C13.9785 14.9042 14.0439 14.8668 14.168 14.8379C14.2707 14.8144 14.3606 14.8096 14.3933 14.8188" stroke="#231F20" stroke-width="0.0683232" stroke-miterlimit="3.864"/>
<path d="M14.1387 13.5063C14.1387 13.5063 14.2052 13.4569 14.2828 13.466C14.4153 13.4817 14.4995 13.5207 14.5609 13.6145C14.6223 13.7092 14.589 13.874 14.683 13.921C14.7776 13.968 14.8109 13.9355 14.8109 13.9355" stroke="#231F20" stroke-width="0.0586613" stroke-miterlimit="3.864"/>
<path d="M13.9344 13.376C13.9344 13.376 14.1312 13.2739 14.283 13.3102C14.462 13.3543 14.5516 13.4323 14.5516 13.4323M13.3535 13.248C13.3535 13.248 13.4578 13.376 13.6044 13.3476C13.7509 13.3195 13.8071 13.2066 13.9677 13.1541C14.1276 13.1026 14.2074 13.1127 14.2866 13.1541C14.3984 13.2132 14.4088 13.2247 14.4517 13.23L13.3535 13.248Z" stroke="#231F20" stroke-width="0.0586613" stroke-miterlimit="3.864" stroke-linecap="round"/>
<path d="M16.7358 12.555L16.9368 12.7369L16.9413 12.7513L16.3734 12.7369M14.9495 10.4295L15.2305 10.3681L14.9495 10.4295ZM15.0154 10.5755C15.0154 10.5755 14.8742 10.3422 14.9022 10.137C14.9303 9.93199 14.9525 9.83724 15.1358 9.69574C15.3192 9.55413 15.6497 9.44141 15.6497 9.44141L15.0154 10.5755ZM14.8379 10.7027C14.8379 10.7027 14.9577 10.5777 15.033 10.5777C15.1092 10.5777 15.3051 10.5655 15.3051 10.5655L14.8379 10.7027ZM14.2013 11.4719C14.2206 11.4719 14.3226 11.3977 14.4262 11.3596C14.5295 11.3226 14.5532 11.3319 14.5532 11.3319L14.5443 11.2894C14.5443 11.2894 14.4453 11.3174 14.3928 11.2894C14.341 11.2612 14.2346 11.1038 14.1621 11.1129L14.2013 11.4719ZM14.327 11.801C14.3455 11.7914 14.5014 11.6195 14.6663 11.5625C14.8312 11.506 15.0132 11.5363 15.1499 11.53C15.3429 11.5204 15.4374 11.4209 15.5359 11.384C15.6349 11.3463 15.7346 11.3596 15.7346 11.3596L14.327 11.801ZM16.227 10.6361C16.227 10.6361 16.2411 10.8321 16.2035 10.9238C16.1657 11.0161 16.1236 11.2801 16.1236 11.2801L16.227 10.6361ZM16.0385 10.655C16.0385 10.655 16.0948 10.78 16.0711 10.8812C16.0475 10.9825 15.992 11.0964 15.9964 11.1477C16.0009 11.1998 16.0054 11.2568 16.0054 11.2568L16.0385 10.655ZM15.8382 11.5958C15.8382 11.5958 16.0806 11.5348 16.1747 11.5111C16.2692 11.4878 16.3025 11.384 16.2361 11.3363C16.1701 11.2894 16.0312 11.2657 15.9276 11.2516C15.8234 11.2379 15.7576 11.1622 15.805 11.0539C15.8522 10.9456 15.9225 10.7164 15.9225 10.7164L15.8382 11.5958ZM18.2307 12.6989C18.2307 12.6989 18.0185 12.9299 17.8439 12.8641C17.6695 12.7983 17.6369 12.7348 17.6606 12.5787C17.6836 12.4234 17.7361 12.331 17.7072 12.2061C17.6836 12.1026 17.5446 11.9707 17.4692 11.9374C17.3937 11.9048 17.0544 11.8124 16.979 11.7421C16.9044 11.6708 16.8828 11.5488 16.8237 11.5204C16.7646 11.4923 16.5901 11.4823 16.5095 11.3788C16.4304 11.2749 16.321 11.0863 16.321 11.0863L18.2307 12.6989ZM18.5752 13.6409C18.5752 13.6409 18.315 13.4015 18.2492 13.2977C18.1834 13.1943 18.1597 13.1654 18.1597 13.1654C18.1597 13.1654 18.292 13.4463 18.3201 13.5687C18.3482 13.6915 18.3578 13.88 18.3534 13.9558C18.3482 14.0308 18.3341 14.1487 18.3341 14.1487L18.5752 13.6409ZM18.5515 14.2467C18.5515 14.2467 18.5767 14.5461 18.5915 14.6608C18.6003 14.7286 18.6063 14.7402 18.6063 14.7402L18.5515 14.2467ZM17.6651 14.5423C17.6651 14.5423 17.6511 14.7353 17.6606 14.7924C17.6695 14.8492 17.7072 14.9005 17.7072 14.9005L17.6651 14.5423ZM17.4973 14.5234C17.4973 14.5234 17.5446 14.8304 17.5446 14.868C17.5446 14.9052 17.5165 15.0233 17.4928 15.0377L17.4973 14.5234ZM17.3281 14.2671C17.3281 14.2671 17.3516 14.8112 17.3324 14.8913C17.3138 14.972 17.243 15.0891 17.243 15.0891L17.3281 14.2671ZM15.7346 13.6113C15.7346 13.6113 16.0666 13.4393 16.3306 13.4161C16.5953 13.3916 16.9702 13.3872 16.9702 13.3872L15.7346 13.6113ZM15.7768 13.3728C15.7768 13.3728 16.0903 13.2644 16.2744 13.2644C16.4578 13.2644 16.7195 13.2556 16.7786 13.2556C16.8371 13.2556 16.9597 13.2508 16.9597 13.2508L15.7768 13.3728ZM15.8234 13.1473C15.8234 13.1473 16.0289 13.0904 16.1236 13.0904C16.2176 13.0904 16.5827 13.0948 16.7173 13.0995C16.8519 13.1048 16.951 13.1048 16.951 13.1048L15.8234 13.1473ZM16.1043 12.9063C16.1043 12.9063 16.843 12.883 16.9317 12.8923L16.1043 12.9063Z" stroke="#231F20" stroke-width="0.0586613" stroke-miterlimit="3.864"/>
<path d="M16.8828 12.1866C16.8828 12.1866 16.9723 12.2857 16.9723 12.3751C16.9723 12.4654 16.9679 12.5622 16.9679 12.6895C16.9679 12.8167 16.9346 13.0755 16.9487 13.2505C16.9627 13.4246 16.9723 13.5075 16.9723 13.5075M20.4518 10.878C20.4518 10.878 20.1774 11.1383 19.8897 11.1591C19.6021 11.1786 19.321 10.9711 19.2211 10.9309C19.1214 10.891 18.9195 10.8281 18.9195 10.8281L20.4518 10.878ZM17.734 11.4711C17.734 11.4711 18.038 11.9481 18.0446 12.1419C18.0513 12.3356 17.9307 12.6628 17.9307 12.6628L17.734 11.4711ZM18.3116 11.2589C18.3116 11.2589 18.5249 11.4499 18.7454 11.6441C18.9657 11.8377 19.0906 12.1104 19.1491 12.4381L18.3116 11.2589ZM18.6318 14.8537C18.6318 14.8537 18.6888 15.1014 18.7494 15.155C18.8108 15.2094 18.8634 15.2943 18.8965 15.3177C18.9291 15.3414 19.0186 15.3558 19.0186 15.3558C19.0186 15.3558 18.8818 15.4975 18.8766 15.5676C18.8722 15.639 18.9144 15.6904 18.9476 15.6957C18.9816 15.7005 18.901 15.7662 18.8722 15.7751C18.844 15.785 18.651 15.7895 18.651 15.7895L18.6318 14.8537Z" stroke="#231F20" stroke-width="0.0586613" stroke-miterlimit="3.864" stroke-linecap="round"/>
<path d="M19.3207 10.0038C19.3207 10.0038 19.8438 9.98122 20.2979 9.80999C20.8137 9.61616 21.5756 9.07471 21.5756 9.07471M19.1543 9.37533C19.1543 9.37533 19.5752 9.28809 20.2041 8.81986C20.8328 8.35192 21.6154 7.49609 21.6154 7.49609L19.1543 9.37533Z" stroke="#231F20" stroke-width="0.0586613" stroke-miterlimit="3.864"/>
<path d="M18.8867 8.78899C18.8867 8.78899 19.3615 8.40805 19.7292 8.02634C20.0976 7.64534 20.298 7.3909 20.5386 6.98992C20.7797 6.58861 20.8396 6.30078 20.8396 6.30078" stroke="#231F20" stroke-width="0.0683232" stroke-miterlimit="3.864"/>
<path d="M16.3008 10.1575C16.3008 10.1575 16.5287 9.72281 16.6892 9.56896C16.8497 9.415 16.7964 9.45532 16.7964 9.45532C16.7964 9.45532 16.6833 9.40838 16.7232 9.23483C16.7632 9.06064 16.8164 8.99994 16.8771 8.89973C16.937 8.79906 16.9569 8.68555 16.9569 8.68555" stroke="#231F20" stroke-width="0.0586613" stroke-miterlimit="3.864" stroke-linecap="round"/>
<path d="M17.1101 7.77734C17.1101 7.77734 17.0561 8.0646 17.1034 8.25193C17.15 8.43896 17.2763 8.47931 17.2763 8.47931M21.3592 11.8744C21.3592 11.8744 21.1715 12.0623 21.1308 12.1822C21.0909 12.3029 21.0376 12.3831 21.0376 12.3831L21.3592 11.8744ZM21.2846 11.5543C21.2846 11.5543 21.1914 11.7078 21.0783 11.8815C20.9645 12.0556 20.8772 12.1822 20.864 12.3092C20.8514 12.4363 20.8307 12.5565 20.8307 12.5565L21.2846 11.5543ZM20.6563 12.1084C20.6563 12.1084 20.4965 12.3228 20.4832 12.4833C20.4699 12.6437 20.5232 12.7975 20.5232 12.7975L20.6563 12.1084ZM20.5972 11.9214C20.5972 11.9214 20.5031 12.1288 20.4292 12.2689C20.3561 12.4097 20.3087 12.443 20.3162 12.583C20.3228 12.7239 20.3694 12.864 20.3694 12.864L20.5972 11.9214Z" stroke="#231F20" stroke-width="0.0586613" stroke-miterlimit="3.864" stroke-linecap="square"/>
<path d="M20.6965 11.5332C20.6965 11.5332 20.7704 11.5997 20.8038 11.6671C20.837 11.7336 20.8237 11.7405 20.8237 11.7405M18.8008 15.9059L18.8873 16.0332L18.8008 15.9059Z" stroke="#231F20" stroke-width="0.0586613" stroke-miterlimit="3.864" stroke-linecap="round"/>
<path d="M18.4138 16.0106C18.4138 16.0106 18.2732 16.0571 18.2399 16.1974C18.2132 16.3095 18.3405 16.4119 18.3405 16.4119M17.0762 16.1242C17.0762 16.1242 17.1901 16.2111 17.3033 16.1641C17.4173 16.1179 17.6036 15.9043 17.6036 15.9043L17.0762 16.1242ZM17.5712 16.5189C17.5712 16.5189 17.3899 16.4988 17.3632 16.6057C17.3366 16.7127 17.3966 16.787 17.3966 16.787L17.5712 16.5189Z" stroke="#231F20" stroke-width="0.0586613" stroke-miterlimit="3.864"/>
<path d="M15.0381 9.08008C15.0381 9.08008 14.9314 9.23488 14.8915 9.36159C14.8506 9.48904 14.7774 9.49567 14.7232 9.60932C14.6706 9.72339 14.5898 9.89787 14.5898 9.89787" stroke="#231F20" stroke-width="0.0683232" stroke-miterlimit="3.864"/>
<path d="M14.8237 9.16019C14.8237 9.16019 14.6422 9.34172 14.6089 9.4484C14.5755 9.5554 14.5156 9.8036 14.5156 9.8036M14.6155 8.93945C14.6155 8.93945 14.4082 9.1406 14.3815 9.24058C14.3549 9.34172 14.3281 9.58278 14.3281 9.58278L14.6155 8.93945ZM14.7297 9.03948C14.7297 9.03948 14.5156 9.23461 14.4882 9.33466C14.4615 9.43464 14.4348 9.6828 14.4348 9.6828L14.7297 9.03948Z" stroke="#231F20" stroke-width="0.0586613" stroke-miterlimit="3.864"/>
<path d="M13.9863 8.96229C13.9863 8.96229 14.0405 8.94267 14.1073 8.92895C14.1741 8.91599 14.2475 8.97598 14.2475 8.97598C14.2475 8.97598 14.1948 8.74122 14.2141 8.62734C14.2349 8.51338 14.2549 8.40625 14.2549 8.40625" stroke="#231F20" stroke-width="0.0683232" stroke-miterlimit="3.864"/>
<path d="M12.6113 11.3062C12.6113 11.3062 12.6853 11.2726 12.7658 11.2995C12.8473 11.3259 12.9756 11.3133 12.9756 11.3133" stroke="#231F20" stroke-width="0.0586613" stroke-miterlimit="3.864"/>
<path d="M13.2941 12.1634C13.2941 12.1634 13.3421 12.0955 13.3155 12.0485C13.2889 12.0016 13.2822 12.0016 13.2822 12.0016M13.1685 6.88759C13.1685 6.88759 13.2283 7.08832 13.2682 7.19472C13.3088 7.3016 13.379 7.46908 13.3998 7.52196L13.1685 6.88759ZM12.9207 7.20847C12.9207 7.20847 13.008 7.33567 13.028 7.36223L12.9207 7.20847ZM12.6367 6.57927C12.6367 6.57927 12.7744 6.57333 12.8209 6.56672C12.8675 6.55969 12.8874 6.67395 12.9074 6.72713C12.9281 6.78078 12.9614 6.88098 12.9614 6.88098L12.6367 6.57927Z" stroke="#231F20" stroke-width="0.0586613" stroke-miterlimit="3.864" stroke-linecap="round"/>
<path fill-rule="evenodd" clip-rule="evenodd" d="M15.3906 6.4543L15.4778 6.37336L15.5189 6.33984C15.5189 6.33984 15.6009 6.35591 15.6263 6.407C15.6741 6.50168 15.6607 6.56919 15.6607 6.56919C15.6607 6.56919 15.5927 6.49501 15.4988 6.46813C15.4041 6.44123 15.3906 6.4543 15.3906 6.4543Z" fill="#231F20"/>
<path d="M16.0446 6.08091C16.0446 6.08091 16.2727 6.07382 16.3261 6.11418C16.3795 6.15432 16.4128 6.18761 16.4128 6.18761L16.5403 5.9668M15.9979 6.33505C15.9979 6.33505 16.0735 6.48064 16.1209 6.5003C16.1667 6.52103 16.2216 6.47694 16.2216 6.47694C16.2216 6.47694 16.0764 6.44024 16.0727 6.33876C16.072 6.30091 15.9979 6.33505 15.9979 6.33505ZM15.8823 6.32874C15.8823 6.32874 15.9363 6.46694 15.9957 6.55807C16.0394 6.62553 16.1816 6.62474 16.255 6.59145C16.3284 6.55807 16.4372 6.51102 16.4372 6.51102L15.8823 6.32874ZM15.7637 6.28796C15.7637 6.28796 15.9036 6.33505 16.0179 6.32213C16.132 6.30839 16.218 6.31914 16.272 6.36612C16.3254 6.41322 16.3927 6.48213 16.4936 6.52251C16.5944 6.56252 16.6676 6.55664 16.6676 6.55664L15.7637 6.28796Z" stroke="#231F20" stroke-width="0.0586613" stroke-miterlimit="3.864" stroke-linecap="round"/>
<path d="M16.5859 6.22133C16.6215 6.17468 16.6289 6.13429 16.6659 6.08798C16.7616 5.97056 16.86 5.93871 17.0074 5.90682C17.0905 5.8902 17.132 5.85276 17.2156 5.84684L17.2416 5.83984C17.2001 5.92352 17.1193 5.92209 17.0342 5.9606L17.0615 5.98023C17.0141 6.01613 16.9675 6.00105 16.9074 6.00686C16.9038 6.02203 16.8934 6.0302 16.8934 6.04725C16.8934 6.06905 16.9223 6.07281 16.9408 6.08133C16.8786 6.13577 16.7394 6.07054 16.7394 6.15472C16.7394 6.19134 16.7838 6.19504 16.8068 6.22133C16.7867 6.22986 16.7727 6.23495 16.7534 6.24206C16.7534 6.25314 16.766 6.25654 16.766 6.26867C16.766 6.27836 16.7482 6.26015 16.7394 6.26169C16.7519 6.27983 16.7616 6.29498 16.7727 6.31575C16.763 6.31575 16.7564 6.32249 16.7467 6.32249C16.6756 6.32249 16.6438 6.25654 16.5859 6.22133Z" fill="#231F20"/>
<path d="M16.975 6.80664C16.9669 6.82476 16.9549 6.83846 16.9549 6.86031C16.9549 6.92574 17.0291 6.94905 17.0291 7.0142C17.0291 7.05456 16.975 7.06116 16.975 7.10114C16.975 7.18999 17.0482 7.2262 17.0482 7.31496C17.0482 7.35902 16.9958 7.36197 16.9549 7.37562C16.9669 7.45368 16.9549 7.49778 16.9549 7.57656C16.918 7.57951 16.898 7.58102 16.861 7.57656C16.8574 7.61948 16.85 7.63609 16.8514 7.68017C16.8041 7.68017 16.7782 7.68348 16.7308 7.68017C16.7308 7.71493 16.7323 7.73491 16.7308 7.77042L16.654 7.81741C16.5539 7.75679 16.6176 7.57951 16.5332 7.49635L16.5066 7.48927L16.5266 7.70974C16.5052 7.77854 16.4815 7.79863 16.4732 7.87033C16.423 7.87585 16.3683 7.88696 16.3594 7.9373C16.3875 7.94764 16.403 7.95764 16.4334 7.95764C16.4763 7.95764 16.497 7.92433 16.5399 7.92433C16.5687 7.92433 16.5784 7.95065 16.6065 7.95065C16.6339 7.95065 16.642 7.92884 16.6605 7.91067C16.6723 7.92245 16.6827 7.9373 16.7005 7.9373C16.7922 7.9373 16.8544 7.8485 16.8544 7.75679C16.8544 7.6998 16.9417 7.7264 16.9883 7.69679C17.052 7.6547 17.0217 7.57951 17.0217 7.50297C17.0535 7.50741 17.072 7.50592 17.1023 7.49635C17.1089 7.48256 17.1223 7.45893 17.1223 7.44222C17.1223 7.40898 17.1023 7.39237 17.1023 7.35902C17.1023 7.25357 17.1563 7.19996 17.1563 7.0945C17.1563 7.07264 17.1489 7.06116 17.1423 7.04091C17.1008 6.94059 17.0438 6.8936 16.975 6.80664Z" fill="#231F20"/>
<path d="M17.0903 8.54049C17.0903 8.54049 17.1368 8.7813 17.0429 8.93527C16.9496 9.08874 16.8356 9.16942 16.8697 9.263C16.903 9.35623 16.9096 9.35034 16.9096 9.35034M17.3373 8.88118C17.3373 8.88118 17.4306 8.94188 17.404 9.04881C17.3781 9.15643 17.3684 9.18424 17.2744 9.22452L17.3373 8.88118ZM17.0636 8.88827C17.0636 8.88827 17.2101 8.94188 17.3373 8.8753C17.4647 8.80757 17.4565 8.63813 17.4565 8.63813L17.0636 8.88827ZM17.0784 8.52609C17.0784 8.52609 17.1302 8.65407 17.2642 8.66782C17.3973 8.68107 17.4513 8.66782 17.472 8.60114C17.4913 8.53344 17.3995 8.4321 17.3995 8.4321L17.0784 8.52609ZM16.7891 9.47058C16.7891 9.47058 16.9763 9.30998 17.1102 9.28291C17.2434 9.25633 17.3306 9.20264 17.458 9.10942C17.5852 9.01548 17.6517 9.01548 17.8058 8.95561C17.9597 8.89492 17.9803 8.84793 18.0203 8.80091C18.0603 8.75474 18.1269 8.65407 18.2341 8.58749C18.3414 8.52053 18.4147 8.37292 18.422 8.29925C18.428 8.22608 18.368 8.21313 18.2807 8.20608C18.1934 8.19941 18.1069 8.21905 18.1069 8.21905C18.1069 8.21905 18.2267 8.03887 18.328 7.96521C18.428 7.89162 18.4613 7.79102 18.4613 7.79102L16.7891 9.47058Z" stroke="#231F20" stroke-width="0.0586613" stroke-miterlimit="3.864"/>
<path d="M17.377 8.91497C17.377 8.91497 17.5448 8.8414 17.625 8.8414C17.7059 8.8414 17.746 8.77351 17.7059 8.72039C17.6659 8.66661 17.6717 8.61228 17.7594 8.55923C17.8462 8.50538 17.9004 8.45117 17.9004 8.45117" stroke="#231F20" stroke-width="0.0586613" stroke-miterlimit="3.864" stroke-linecap="round"/>
<path d="M17.4551 8.49805C17.4551 8.49805 17.7439 8.51846 17.7305 8.59233M17.7097 8.58566C17.7097 8.58566 17.8775 8.5589 17.9317 8.61909C17.986 8.67958 17.9793 8.72636 17.9518 8.80653C17.9251 8.88752 17.8398 8.93982 17.8398 8.93982L17.7097 8.58566Z" stroke="#231F20" stroke-width="0.0586613" stroke-miterlimit="3.864"/>
<path d="M16.877 9.17861C16.877 9.17861 16.9972 9.1823 17.098 9.13487C17.1995 9.08745 17.2397 9.02734 17.2397 9.02734" stroke="#231F20" stroke-width="0.0586613" stroke-miterlimit="3.864" stroke-linecap="round"/>
<path d="M17.7383 8.33843C17.7383 8.33843 17.9232 8.23231 18.0171 8.2863C18.1104 8.3392 18.0978 8.40653 18.1037 8.43312C18.1104 8.45941 18.0371 8.53998 18.0105 8.56031C17.9839 8.57994 17.9358 8.61314 17.9358 8.61314M19.7218 8.60578C19.7218 8.60578 19.488 8.86093 19.3343 8.97439C19.1804 9.08798 19.0533 9.18194 18.9267 9.1889C18.7996 9.19554 18.679 9.16862 18.679 9.16862L19.7218 8.60578ZM19.9222 7.02909C19.9222 7.02909 19.7758 7.27609 19.6685 7.3834C19.5613 7.49022 19.301 7.72722 19.2625 7.78646C19.2255 7.84333 18.9867 8.05229 18.9394 8.13839C18.8934 8.22571 18.8595 8.26554 18.7996 8.33288C18.7389 8.39993 18.625 8.4542 18.625 8.4542L19.9222 7.02909ZM19.8224 7.06234C19.8224 7.06234 19.6885 7.33642 19.5886 7.44319C19.488 7.5501 19.2137 7.81817 19.0999 7.95134C18.9867 8.0855 18.9601 8.1325 18.8262 8.2863C18.7279 8.3991 18.6584 8.44606 18.5917 8.46637C18.5252 8.48597 18.4653 8.56253 18.4653 8.56253L19.8224 7.06234ZM18.378 8.22571C18.378 8.22571 18.6584 8.24598 18.7523 8.24598C18.8462 8.24598 18.8934 8.21869 18.8934 8.21869L18.378 8.22571ZM18.5222 8.05374C18.5222 8.05374 18.6584 8.0452 18.7589 8.05229C18.8595 8.05814 19.0399 8.03155 19.0399 8.03155L18.5222 8.05374ZM18.6606 7.93874C18.6606 7.93874 18.8462 7.9044 18.946 7.91139C19.0466 7.91801 19.1738 7.88471 19.1738 7.88471L18.6606 7.93874ZM18.8062 7.8045C18.8062 7.8045 19.0466 7.81123 19.1471 7.77789C19.2469 7.74383 19.3468 7.69027 19.3468 7.69027L18.8062 7.8045ZM18.9534 7.64404C18.9534 7.64404 19.1125 7.65999 19.2196 7.63031C19.3283 7.60075 19.4962 7.53869 19.4962 7.53869L18.9534 7.64404ZM19.0806 7.47659C19.0806 7.47659 19.2003 7.49729 19.2936 7.46365C19.3875 7.42953 19.5746 7.29648 19.5746 7.29648L19.0806 7.47659ZM19.1937 7.32975C19.1937 7.32975 19.3742 7.27609 19.4348 7.24952C19.4948 7.22283 19.5613 7.17585 19.5613 7.17585L19.1937 7.32975ZM19.3202 7.12227C19.3202 7.12227 19.5214 7.08199 19.5746 7.04872C19.6286 7.0154 19.6819 6.97506 19.6819 6.97506L19.3202 7.12227ZM19.4282 6.93517C19.4282 6.93517 19.7093 6.82171 19.7425 6.78842L19.4282 6.93517ZM19.5348 6.66076C19.5348 6.66076 19.7491 6.56724 19.7824 6.52701L19.5348 6.66076ZM18.2982 8.20573C18.2982 8.20573 18.7789 7.89142 19.0266 7.56379C19.2742 7.23577 19.3542 7.10935 19.4681 6.78842C19.582 6.46704 19.7247 6.0226 19.7425 5.92569C19.7684 5.7778 19.7957 5.83179 19.7491 6.00519C19.7018 6.17939 19.6079 6.44671 19.5487 6.62744C19.488 6.80796 19.2469 7.24952 19.2469 7.24952L18.2982 8.20573ZM17.9986 8.57622C17.9986 8.57622 18.1104 8.60652 18.171 8.58696C18.2309 8.56697 18.2915 8.53366 18.2915 8.53366L17.9986 8.57622ZM18.1171 8.39993C18.1171 8.39993 18.1776 8.3928 18.1776 8.41947C18.1776 8.44606 18.0903 8.46637 18.0903 8.46637L18.1171 8.39993Z" stroke="#231F20" stroke-width="0.0586613" stroke-miterlimit="3.864"/>
<path d="M19.4133 8.91169C19.4133 8.91169 19.6434 8.72082 19.7374 8.67383M20.1517 9.40041C20.1517 9.40041 19.8846 9.57699 19.724 9.67015C19.5634 9.76413 19.4162 9.84449 19.3496 9.83787L20.1517 9.40041Z" stroke="#231F20" stroke-width="0.0683232" stroke-miterlimit="3.864"/>
<path d="M19.6596 9.70594C19.6596 9.70594 19.9363 9.56244 20.0494 9.51589C20.1634 9.4693 20.2765 9.42192 20.2765 9.42192M17.8752 9.93754C17.8752 9.93754 18.0498 9.98375 18.0099 10.1246C17.9692 10.2649 17.7687 10.1846 17.7687 10.1846L17.8752 9.93754ZM17.748 9.68969C17.748 9.68969 18.015 9.69454 17.9825 9.86169C17.9603 9.97375 17.7865 9.93532 17.7865 9.93532L17.748 9.68969ZM18.0446 9.42933C18.0446 9.42933 18.2533 9.41558 18.237 9.59608C18.2148 9.82913 17.9182 9.73217 17.9182 9.73217L18.0446 9.42933ZM18.3909 9.28166C18.3909 9.28166 18.1497 9.39528 18.0365 9.42933C17.9226 9.46259 17.8161 9.48927 17.8161 9.48927L18.3909 9.28166ZM18.6225 8.83602C18.6225 8.83602 18.2533 9.10528 17.9958 9.17481C17.9692 9.18152 18.2703 9.00059 18.3909 9.0476C18.5115 9.09458 18.6054 9.12782 18.6054 9.21474C18.6054 9.30208 18.5581 9.3883 18.5181 9.44892C18.4781 9.50955 18.3376 9.55577 18.3103 9.56244L18.6225 8.83602ZM18.3487 8.69988C18.3487 8.69988 18.6454 8.57265 18.7719 8.63996C18.8991 8.70655 18.9391 8.8134 18.8991 8.91409C18.8591 9.01428 18.6535 9.13452 18.6069 9.24808L18.3487 8.69988ZM18.5314 8.23828C18.5314 8.23828 18.612 8.28562 18.5581 8.3785C18.5041 8.47242 18.4915 8.54601 18.4109 8.6333C18.3309 8.72026 18.2769 8.76653 18.2437 8.82015C18.2103 8.87413 18.2103 8.87413 18.2103 8.87413L18.5314 8.23828Z" stroke="#231F20" stroke-width="0.0586613" stroke-miterlimit="3.864"/>
<path d="M18.1168 9.75C18.1168 9.75 18.3309 9.79216 18.3182 9.94723C18.3054 10.1031 18.0176 10.0669 18.0176 10.0669" stroke="#231F20" stroke-width="0.0586613" stroke-miterlimit="3.864" stroke-linecap="round"/>
<path d="M18.1374 10.0695C18.1537 10.0776 18.3749 10.1572 18.3016 10.3126C18.2277 10.468 17.9954 10.3537 17.9954 10.3537M18.0996 11.6386C18.0996 11.6386 18.1855 11.8084 18.2084 11.8692L18.0996 11.6386ZM17.9257 10.3256L18.0478 10.3732L17.9257 10.3256ZM17.8198 10.4059C17.8198 10.4059 17.9006 10.4761 17.9576 10.4817L17.8198 10.4059ZM17.666 10.3985C17.666 10.3985 17.8147 10.4218 17.8903 10.3655C17.9657 10.3089 17.9369 10.2216 17.8813 10.2071L17.666 10.3985ZM17.871 10.5968L18.0855 10.7803L17.871 10.5968ZM17.5736 10.7733C17.5736 10.7733 17.7251 10.953 17.7675 10.9649L17.5736 10.7733ZM17.5809 10.5915C17.5809 10.5915 17.6949 10.6741 17.7178 10.6863L17.5809 10.5915ZM17.569 10.3467C17.569 10.3467 17.6734 10.3703 17.6845 10.4406C17.6926 10.4854 17.609 10.5143 17.609 10.5143L17.569 10.3467ZM17.347 11.1244C17.347 11.1244 17.3226 11.0045 17.2774 10.953C17.2331 10.9005 17.1635 10.778 17.1635 10.778C17.1635 10.778 17.2863 11.006 17.4455 10.9808C17.6046 10.9568 17.5306 10.6923 17.5306 10.6923C17.5306 10.6923 17.6978 10.8801 17.8399 10.7696C17.9834 10.6597 17.6934 10.468 17.6934 10.468C17.6934 10.468 18.0649 10.7166 18.13 10.5535C18.195 10.3899 18.0597 10.377 18.0597 10.377L17.347 11.1244ZM17.9546 10.8883C17.9546 10.8883 18.0649 10.9978 18.1507 11.0219C18.2365 11.0471 18.2728 11.1 18.2854 11.1244L17.9546 10.8883ZM18.3838 10.962L18.5236 11.0478L18.3838 10.962ZM17.9184 11.1C17.9184 11.1 18.0745 11.2954 18.298 11.2628C18.5215 11.2303 18.4978 11.1107 18.4697 11.0445C18.4407 10.9793 18.2277 10.8679 18.2277 10.8679L17.9184 11.1ZM17.6083 11.1244L17.8073 11.3242L17.6083 11.1244ZM17.4995 11.3197C17.4995 11.3197 17.8813 11.6183 17.9954 11.4715C18.0848 11.356 17.9303 11.1203 17.9303 11.1203L17.4995 11.3197ZM17.1244 11.4348C17.1244 11.4348 17.3597 11.7082 17.4936 11.6098C17.6283 11.5121 17.4936 11.3038 17.4936 11.3038L17.1244 11.4348ZM17.188 11.3038C17.188 11.3038 17.2286 11.3811 17.2982 11.4219C17.367 11.4629 17.3678 11.4622 17.3678 11.4622L17.188 11.3038ZM16.963 11.0423C16.963 11.0423 17.0452 11.1037 17.0488 11.1203L16.963 11.0423ZM16.8934 11.1651C16.8934 11.1651 16.9956 11.3774 17.1221 11.3327C17.2494 11.2872 17.1999 11.1159 17.1999 11.1159C17.1999 11.1159 17.2701 11.4015 17.4899 11.2794C17.7097 11.1569 17.5025 10.9893 17.5025 10.9893C17.5025 10.9893 17.7051 11.2424 17.9013 11.1037C18.0975 10.9649 17.8155 10.7696 17.8155 10.7696C17.8155 10.7696 18.1255 11.027 18.2239 10.8561C18.3216 10.6841 18.1788 10.5823 18.1788 10.5823L16.8934 11.1651ZM16.8262 11.5229C16.8262 11.5229 16.9675 11.6631 17.0696 11.581C17.1717 11.4999 17.1273 11.3941 17.0776 11.3401L16.8262 11.5229ZM17.9708 11.4544C17.9708 11.4544 18.0871 11.6372 18.1625 11.7123C18.2195 11.7697 18.2625 11.8237 18.2625 11.8237L17.9708 11.4544ZM19.0313 11.353C19.0313 11.353 18.8966 11.3038 18.8315 11.2469C18.7664 11.1895 18.7006 11.087 18.631 11.0748C18.5621 11.063 18.5119 11.0415 18.5119 11.0415L19.0313 11.353ZM19.1704 10.5612L19.4797 10.5416L19.1704 10.5612ZM18.6739 10.5823C18.6739 10.5823 18.8684 10.6204 18.9048 10.8106C18.9418 11.0015 18.9255 11.0134 18.8351 11.0423C18.7456 11.0711 18.5111 11.0478 18.5111 11.0478L18.6739 10.5823ZM18.8064 10.1898C18.8064 10.1898 19.0964 10.1946 19.1985 10.3045C19.3007 10.4147 19.2888 10.4429 19.2518 10.5042C19.2156 10.5657 19.1333 10.586 19.052 10.586C18.9707 10.586 18.6436 10.5779 18.6636 10.586L18.8064 10.1898ZM18.7701 9.72168C18.7701 9.72168 19.371 9.61251 19.354 9.88451C19.3385 10.1572 18.8722 10.1982 18.8722 10.1982L18.7989 10.1946L18.7701 9.72168ZM18.9581 9.17969C18.9581 9.17969 19.1985 9.19482 19.1786 9.35025C19.1579 9.50483 19.0602 9.51306 18.978 9.57851C18.8966 9.64443 18.7989 9.69287 18.7989 9.69287L18.7701 9.70095L18.9581 9.17969ZM18.4563 10.6855L18.705 10.8273L18.4563 10.6855ZM18.5984 10.3537C18.6517 10.3573 19.0431 10.4188 19.0846 10.3862L18.5984 10.3537ZM18.6028 9.91335C18.6028 9.91335 18.9128 10.0807 19.1046 9.89748L18.6028 9.91335ZM18.5133 9.49271C18.5333 9.49271 18.8433 9.41534 18.8433 9.41534L18.5133 9.49271ZM17.9746 9.88897C17.9746 9.88897 18.0812 9.96635 18.1714 9.91782L17.9746 9.88897ZM17.7586 9.99137L17.8399 10.0443L17.7586 9.99137ZM18.2484 10.3899C18.2484 10.3899 18.3638 10.5331 18.4726 10.4761L18.2484 10.3899ZM17.959 10.2105L18.187 10.2598L17.959 10.2105ZM18.2329 10.0798C18.2329 10.0798 18.3645 10.233 18.6065 10.1694L18.2329 10.0798ZM18.1833 9.74204C18.1833 9.74204 18.4356 9.78275 18.5289 9.72984L18.1833 9.74204ZM17.7178 9.79055L17.8362 9.81572L17.7178 9.79055ZM17.7593 9.67768C17.7593 9.67768 17.979 9.65625 18.0072 9.61919L17.7593 9.67768ZM18.4112 9.52154C18.4112 9.52154 18.7131 9.55184 18.7575 9.64811C18.8027 9.74277 18.7901 9.81162 18.7169 9.85267C18.6436 9.89303 18.5304 9.92857 18.494 9.92857L18.4112 9.52154ZM18.5251 10.3333C18.5251 10.3333 18.6969 10.4514 18.6436 10.5823C18.5902 10.7126 18.4283 10.6959 18.3268 10.6516C18.2239 10.6067 18.13 10.5576 18.13 10.5576L18.5251 10.3333ZM18.3097 9.91335C18.3097 9.91335 18.696 9.90188 18.7664 10.1042C18.8071 10.2223 18.7419 10.3081 18.6554 10.337C18.5696 10.3655 18.3135 10.2838 18.3135 10.2838L18.3097 9.91335Z" stroke="#231F20" stroke-width="0.0586613" stroke-miterlimit="3.864"/>
<path d="M6.21401 10.5105C4.73183 10.5602 4.16461 10.7438 3.92029 10.8378C3.63832 10.7747 3.04625 10.9216 3.04625 10.9216C3.04625 10.9216 2.55085 10.9821 2.36086 11.2227C1.7594 11.0915 1.7715 11.2731 1.7715 11.2731C1.86414 12.4458 2.66832 12.4623 2.66832 12.4623C3.34165 12.6059 3.9424 12.3719 3.9424 12.3719L4.11831 13.3413L3.87594 13.9498L3.92029 14.5134L2.91067 15.6632C4.08537 15.9019 4.35998 16.79 4.35998 16.79C4.98289 16.1926 5.61191 16.8581 5.61191 16.8581C6.30537 16.35 6.99537 16.9028 6.99537 16.9028C7.43909 16.1446 8.44538 16.5198 8.44538 16.5198C8.52523 15.5018 9.43347 15.5052 9.43347 15.5052C9.2569 14.5201 10.0705 14.0851 10.0705 14.0851C10.0705 14.0851 8.98573 13.624 8.81856 12.4177C10.1544 12.7634 10.5532 11.9665 10.5532 11.9665C10.7089 11.7815 10.7512 11.0647 10.7512 11.0647C10.343 11.2731 10.0262 11.1093 10.0262 11.1093C9.41069 10.7038 8.54942 10.7622 8.54942 10.7622C8.54942 10.7622 6.93836 10.494 6.21401 10.5105Z" fill="#231F20"/>
<path d="M6.21401 10.5105C4.73183 10.5602 4.16461 10.7438 3.92029 10.8378C3.63832 10.7747 3.04625 10.9216 3.04625 10.9216C3.04625 10.9216 2.55085 10.9821 2.36086 11.2227C1.7594 11.0915 1.7715 11.2731 1.7715 11.2731C1.86414 12.4458 2.66832 12.4623 2.66832 12.4623C3.34165 12.6059 3.9424 12.3719 3.9424 12.3719L4.11831 13.3413L3.87594 13.9498L3.92029 14.5134L2.91067 15.6632C4.08537 15.9019 4.35998 16.79 4.35998 16.79C4.98289 16.1926 5.61191 16.8581 5.61191 16.8581C6.30537 16.35 6.99537 16.9028 6.99537 16.9028C7.43909 16.1446 8.44538 16.5198 8.44538 16.5198C8.52523 15.5018 9.43347 15.5052 9.43347 15.5052C9.2569 14.5201 10.0705 14.0851 10.0705 14.0851C10.0705 14.0851 8.98573 13.624 8.81856 12.4177C10.1544 12.7634 10.5532 11.9665 10.5532 11.9665C10.7089 11.7815 10.7512 11.0647 10.7512 11.0647C10.343 11.2731 10.0262 11.1093 10.0262 11.1093C9.41069 10.7038 8.54942 10.7622 8.54942 10.7622C8.54942 10.7622 6.93836 10.494 6.21401 10.5105Z" stroke="#231F20" stroke-width="0.0200553" stroke-miterlimit="3.864"/>
<path d="M3.91992 10.4139C6.22702 9.86167 8.53954 10.4139 8.53954 10.4139M3.76481 10.6634C5.93896 9.96742 8.68652 10.6134 8.68652 10.6134L3.76481 10.6634ZM3.72852 9.79657C6.29148 9.11168 8.72617 9.83551 8.72617 9.83551L3.72852 9.79657ZM3.77216 10.0097C6.33444 9.32487 8.66914 10.048 8.66914 10.048L3.77216 10.0097Z" stroke="#231F20" stroke-width="0.0501383" stroke-miterlimit="3.864"/>
<path d="M6.38885 9.79905L6.73467 9.81485C6.82671 9.81887 6.89854 9.88704 6.89516 9.96658C6.89183 10.0465 6.8146 10.1076 6.72327 10.1036L6.37742 10.0878C6.28473 10.0838 6.21354 10.0156 6.21693 9.93575C6.22027 9.85613 6.2975 9.79465 6.38885 9.79905ZM8.21402 10.1717C8.21402 10.0952 8.27383 10.0334 8.34764 10.0334C8.42216 10.0334 8.48266 10.0952 8.48266 10.1717C8.48266 10.2479 8.42216 10.3097 8.34764 10.3097C8.27383 10.3097 8.21402 10.2479 8.21402 10.1717ZM4.67781 10.0267C4.67781 9.95014 4.73825 9.88833 4.8128 9.88833C4.88732 9.88833 4.94777 9.95014 4.94777 10.0267C4.94777 10.1029 4.88732 10.1647 4.8128 10.1647C4.73825 10.1647 4.67781 10.1029 4.67781 10.0267ZM4.04117 10.011L4.38228 9.94882C4.47299 9.93236 4.55556 9.97495 4.56972 10.0539L4.57172 10.0616C4.58445 10.1408 4.52204 10.2178 4.43206 10.2335L4.09024 10.2953C4.00028 10.3118 3.91498 10.2638 3.90153 10.1811L3.90221 10.1829C3.88878 10.1042 3.95123 10.0274 4.04117 10.011Z" stroke="#231F20" stroke-width="0.0376037" stroke-miterlimit="3.864"/>
<path d="M3.57812 8.90498C3.73722 9.01373 3.9192 8.89691 3.9192 8.89691C3.9192 8.89691 3.74864 9.14291 3.76948 9.32257C3.85874 9.65721 4.45763 9.63036 4.45763 9.63036C4.91621 9.57604 4.96862 9.1507 4.96862 9.1507C5.05792 9.54848 5.64268 9.51289 5.64268 9.51289C6.12743 9.46759 6.27716 8.7455 6.27716 8.7455C6.27716 8.7455 5.96629 8.49806 5.66618 8.45278C6.0019 8.41676 6.11669 8.17214 6.11669 8.17214L6.2664 7.74676L6.42017 8.17214C6.42017 8.17214 6.53433 8.41676 6.87004 8.45278C6.5699 8.49806 6.25903 8.7455 6.25903 8.7455C6.25903 8.7455 6.35843 9.45854 6.84317 9.50316C6.84317 9.50316 7.47897 9.54848 7.56697 9.1507C7.56697 9.1507 7.62 9.62203 8.07858 9.67639C8.07858 9.67639 8.55191 9.68475 8.69222 9.33128C8.65736 9.04189 8.61703 8.89691 8.61703 8.89691C8.61703 8.89691 8.82382 8.93106 8.98293 8.82267L3.57812 8.90498ZM4.11993 8.50412L4.00714 8.69108C4.00714 8.69108 4.14076 8.35844 4.39657 8.51858C4.55366 8.82035 4.27234 8.89691 4.27234 8.89691C4.48519 8.98617 4.45763 9.28123 4.28239 9.33394C4.11388 9.38567 3.9192 9.27692 3.9192 9.27692C3.9192 9.27692 4.05077 9.4763 4.42206 9.45854C4.68726 9.4488 4.74029 9.20474 4.74029 9.20474C4.28111 9.01433 4.60735 8.6706 4.79272 8.80589C4.60735 8.54336 4.91621 8.45278 4.91621 8.45278C5.21633 8.46217 5.14584 8.74279 5.14584 8.74279C5.36403 8.66661 5.56014 9.06879 5.1895 9.1507C5.30427 9.35877 5.57823 9.31422 5.57823 9.31422C6.01932 9.28025 5.99248 8.7703 5.99248 8.7703C5.99248 8.7703 5.83403 9.23158 5.51644 9.0322C5.40167 8.76059 5.59498 8.62524 5.59498 8.62524C5.31369 8.76059 5.18079 8.56887 5.19819 8.36949C5.30365 8.0348 5.58694 8.27184 5.58694 8.27184C5.58694 8.27184 5.43119 8.00927 5.60374 7.90186C5.79108 7.80652 5.91257 7.93711 5.91257 7.93711C5.91257 7.93711 5.71117 7.76151 5.86157 7.60778C6.0529 7.49093 6.14825 7.65846 6.14825 7.65846C6.14825 7.65846 5.89377 7.39996 6.24628 7.14648C6.59951 7.39996 6.33627 7.65372 6.33627 7.65372C6.33627 7.65372 6.42553 7.50033 6.62829 7.61785C6.76795 7.77964 6.56385 7.93711 6.56385 7.93711C6.56385 7.93711 6.73708 7.81187 6.89287 7.90754C7.07079 8.04149 6.89086 8.27184 6.89086 8.27184C6.89086 8.27184 7.17218 8.018 7.27822 8.35372C7.31449 8.56386 7.16409 8.76059 6.88147 8.62524C6.88147 8.62524 7.07547 8.76059 6.96067 9.0322C6.66861 9.21646 6.48399 8.7703 6.48399 8.7703C6.48399 8.7703 6.47049 9.27955 6.91501 9.30779C6.91501 9.30779 7.17218 9.35877 7.28695 9.1507C6.91701 9.06879 7.1285 8.65218 7.33125 8.74279C7.33125 8.74279 7.26078 8.46217 7.5609 8.45278C7.5609 8.45278 7.86974 8.54336 7.68447 8.80589C7.86974 8.6706 8.19602 9.01433 7.7375 9.20474C7.7375 9.20474 7.82677 9.45651 8.07928 9.4709C8.43912 9.48602 8.55793 9.27692 8.55793 9.27692C8.55793 9.27692 8.34312 9.43802 8.16314 9.32257C8.06513 9.25241 7.98451 8.98749 8.20477 8.89691C8.20477 8.89691 7.85159 8.78877 8.08127 8.46313C8.33703 8.39908 8.45386 8.7085 8.45386 8.7085L4.11993 8.50412ZM6.06099 8.39838C6.06099 8.57295 6.1516 8.7146 6.26313 8.7146C6.37519 8.7146 6.46582 8.57295 6.46582 8.39838C6.46582 8.22379 6.37519 8.0828 6.26313 8.08211C6.1516 8.08211 6.06099 8.22379 6.06099 8.39838Z" stroke="#231F20" stroke-width="0.0501383" stroke-miterlimit="3.864"/>
<path d="M4.6756 11.2486C4.6756 11.2486 4.84158 11.1028 5.38513 11.212C5.79831 11.2728 6.01131 11.1152 6.01131 11.1152C6.01131 11.1152 6.09464 11.3215 5.62095 11.382C5.45567 11.3332 5.12511 11.2486 4.91277 11.382C4.59299 11.3332 4.6756 11.2486 4.6756 11.2486Z" fill="white"/>
<path d="M6.85742 11.127C6.95757 11.2058 7.17325 11.2293 7.17325 11.2293L7.84976 11.2486L8.07409 11.2966L7.99155 11.3574C7.99155 11.3574 7.37743 11.4061 7.05832 11.3457C6.93939 11.3214 6.85742 11.2848 6.85742 11.2848C6.85742 11.2848 6.70361 11.1881 6.85742 11.127Z" fill="white"/>
<path d="M2.06641 11.5035C2.24316 11.4911 2.32584 11.4545 2.32584 11.4545L2.63374 11.3823C2.63374 11.3823 3.78043 11.2488 3.88663 11.346C3.91016 11.4064 3.79186 11.4794 3.79186 11.4794C3.79186 11.4794 3.30722 11.4189 2.91733 11.4911C2.71639 11.4911 2.56312 11.5274 2.56312 11.5274C2.56312 11.5274 2.06641 11.6128 2.06641 11.5035Z" fill="white"/>
<path d="M2.69459 11.5996L2.17266 11.697C2.12475 11.782 2.25558 11.782 2.25558 11.782C2.81328 11.7213 2.69459 11.5996 2.69459 11.5996Z" fill="white"/>
<path d="M2.81033 11.7211C2.78605 11.6604 3.02402 11.5755 3.02402 11.5755C3.02402 11.5755 3.26061 11.5023 3.29629 11.5755C3.35496 11.5512 2.78605 11.8309 2.81033 11.7211Z" fill="white"/>
<path d="M3.21642 11.8031C3.12222 11.7327 3.55955 11.5625 3.55955 11.5625C3.66657 11.5867 3.66657 11.5383 3.57166 11.6722C3.47677 11.7085 3.32339 11.7933 3.32339 11.7933L3.21642 11.8031Z" fill="white"/>
<path d="M8.81836 11.4785L9.2438 11.5995C9.63506 11.6597 9.97658 11.5756 9.97658 11.5756L10.3557 11.4785C10.4505 11.5632 10.1399 11.6754 9.96512 11.7091C9.95909 11.7104 9.49725 11.7884 9.08316 11.7031C8.82298 11.6546 8.81836 11.4785 8.81836 11.4785Z" fill="white"/>
<path d="M8.88977 11.7207C9.24506 11.8543 9.32851 12.0369 9.32851 12.0369L9.04452 11.9882C9.04452 11.9882 8.84334 11.8667 8.88977 11.7207Z" fill="white"/>
<path d="M9.34766 11.8047C9.73931 11.8289 9.84575 12.0108 9.84575 12.0108C9.84575 12.0108 9.50201 12.0358 9.39554 11.902C9.40769 11.9502 9.34766 11.8047 9.34766 11.8047Z" fill="white"/>
<path d="M9.83398 11.7934C10.1557 11.7569 10.2152 11.8911 10.2152 11.8911L10.0726 11.9035L9.83398 11.7934Z" fill="white"/>
<path d="M4.85009 11.7734C5.03951 12.3188 5.41635 11.798 5.41635 11.798C5.48756 11.7012 5.60577 11.7807 5.60577 11.7807C5.60577 11.7807 5.4385 12.3071 4.93206 12.1694C4.72452 12.1002 4.6392 11.8674 4.6392 11.8674C4.6392 11.8674 4.61769 11.7086 4.85009 11.7734Z" fill="white"/>
<path d="M7.19165 11.9018C7.19165 11.9018 7.20912 12.1173 7.55209 12.0444C7.73691 11.9782 7.80618 11.7441 7.80618 11.7441C7.80618 11.7441 7.90098 11.7627 7.89965 11.8803C7.87009 12.0861 7.62666 12.1819 7.62666 12.1819C7.62666 12.1819 7.13247 12.3748 6.97852 11.9741C7.03834 11.8652 7.19165 11.9018 7.19165 11.9018Z" fill="white"/>
<path d="M4.50977 11.6719C5.05259 11.3078 5.57329 11.6353 5.57329 11.6353L5.25345 11.6833C5.25345 11.6833 5.21784 11.8294 5.08819 11.8294C4.9706 11.817 4.98203 11.6833 4.98203 11.6833C4.86376 11.5748 4.55674 11.7565 4.50977 11.6719Z" fill="white"/>
<path d="M6.97852 11.7806C7.29756 11.3205 7.90005 11.5022 7.90005 11.5022C7.90005 11.5022 8.00692 11.575 7.92429 11.6597C7.65221 11.5626 7.51048 11.6721 7.51048 11.6721C7.51048 11.6721 7.52863 11.8122 7.42725 11.842C7.42656 11.841 7.30833 11.877 7.26264 11.7567C7.20354 11.793 7.0255 11.8659 6.97852 11.7806Z" fill="white"/>
<path fill-rule="evenodd" clip-rule="evenodd" d="M3.67034 15.0137C3.08852 15.5447 3.24327 15.6117 3.24327 15.6117C3.68382 15.6117 3.91654 15.8366 3.91654 15.8366V15.7306C3.91654 15.7306 3.76049 15.4388 3.39929 15.4916C3.70871 15.1596 3.67034 15.0137 3.67034 15.0137Z" fill="white"/>
<path d="M4.60056 15.5176C4.60056 15.5176 4.3418 15.9024 4.3418 16.2603C4.35389 16.3801 4.49642 16.2342 4.49642 16.2342C4.76797 15.7035 4.60056 15.5176 4.60056 15.5176Z" fill="white"/>
<path d="M5.43658 16.4588C5.43658 16.4588 5.42376 16.2197 5.48832 16.0208C5.51448 15.8349 5.63079 15.8223 5.63079 15.8223L5.60459 16.2866C5.57905 16.6445 5.43658 16.4588 5.43658 16.4588Z" fill="white"/>
<path d="M5.58203 16.6435C5.58203 16.6435 5.6203 16.4047 6.42161 16.4185C6.65399 16.4316 6.52512 16.5115 6.52512 16.5115C6.52512 16.5115 5.86614 16.4847 5.63374 16.7104C5.58203 16.6835 5.58203 16.6435 5.58203 16.6435Z" fill="white"/>
<path d="M6.82152 15.9414C6.81008 16.2182 6.7832 16.3795 6.7832 16.3795C6.83503 16.7378 6.92519 16.6186 6.92519 16.6186C6.92519 16.6186 6.96621 16.224 6.94 16.0087C6.91576 15.867 6.82152 15.9414 6.82152 15.9414Z" fill="white"/>
<path d="M7.09084 16.473C7.18163 16.194 7.72522 16.1543 7.72522 16.1543C7.85439 16.194 7.72522 16.2871 7.72522 16.2871C7.72522 16.2871 7.37606 16.3002 7.1944 16.4863C7.05174 16.6053 7.09084 16.473 7.09084 16.473Z" fill="white"/>
<path d="M7.78993 15.4922C8.02233 15.8505 8.28093 16.0093 8.28093 16.0093C8.28093 16.0093 8.44885 15.612 8.68131 15.6251C8.6947 15.7047 8.39712 16.1555 8.39712 16.1555L8.26818 16.2082C8.26818 16.2082 7.84164 15.9566 7.73825 15.6778C7.67375 15.5583 7.78993 15.4922 7.78993 15.4922Z" fill="white"/>
<path d="M8.57486 14.2852C8.57486 14.2852 8.75626 14.9482 9.18287 15.3063C9.05991 15.3761 8.74481 15.2716 8.55136 14.6354C8.49964 14.3435 8.57486 14.2852 8.57486 14.2852Z" fill="white"/>
<path d="M8.95117 13.4238C9.37711 13.8874 9.68685 14.0342 9.68685 14.0342C9.48192 14.5103 9.26018 14.7895 9.26018 14.7895C9.26018 14.7895 9.07607 14.7743 9.26018 14.4186C9.32539 14.4317 9.51884 14.0869 9.51884 14.0869L8.95117 13.4238Z" fill="white"/>
<path d="M4.48633 16.3405C4.87422 16.0084 5.19685 16.2874 5.19685 16.2874L5.27482 16.3802C4.9125 16.2343 4.48633 16.3405 4.48633 16.3405Z" fill="white"/>
<path fill-rule="evenodd" clip-rule="evenodd" d="M5.82727 11.5963C6.00859 11.5436 5.96896 11.7558 5.96896 11.7558C5.96896 12.2726 5.55598 12.7235 5.55598 12.7235C6.03413 12.7766 6.24097 12.8694 6.24097 12.8694C6.24097 12.8694 6.18925 12.9492 5.49153 12.8824C5.3236 12.9223 5.06773 12.9965 4.97505 13.4256C4.95893 13.595 4.93207 13.8025 5.194 13.9565C6.22758 14.3541 7.14497 14.1155 7.14497 14.1155C7.41622 14.0497 7.57678 14.0012 7.72182 13.8306C7.7876 13.7406 7.8924 13.2457 7.5566 13.026C7.247 12.8583 6.79572 12.9093 6.79572 12.9093L6.86085 12.8031C7.04215 12.7104 7.33902 12.8031 7.33902 12.8031L7.23558 12.5378L7.15832 12.3522L7.27451 12.3122C7.45521 12.7366 7.81715 12.9892 7.81715 12.9892C7.90716 13.1877 8.02333 13.5056 7.91991 13.837C7.71311 14.3672 6.4606 14.4069 6.4606 14.4069C6.4606 14.4069 5.04625 14.3511 4.83941 13.8871C4.76149 13.7544 4.72922 13.108 5.18194 12.8293C5.29808 12.7366 5.87903 12.2991 5.82727 11.5963Z" fill="white"/>
<path d="M4.1639 10.9875C4.26731 10.9607 4.30558 10.9076 4.29283 11.0664C4.03495 11.6634 4.00882 12.0079 4.00882 12.0079C4.00882 12.0079 3.91879 12.4582 4.26731 12.6838C4.6803 12.9624 4.66753 13.0635 4.59034 13.0552C4.63866 13.2388 4.4997 13.1351 4.4997 13.1351C4.30558 12.9095 4.26731 12.8564 4.1639 12.8295C4.15115 13.002 4.1639 13.1082 4.24111 13.2677C4.29283 13.3465 4.24111 13.4528 4.24111 13.4528C4.24111 13.4528 3.91879 13.6652 3.9571 14.0498C3.99536 14.7125 4.53794 15.0039 4.53794 15.0039C4.84817 15.3884 5.64931 15.4942 5.64931 15.4942C5.64931 15.4942 5.15841 15.7198 4.60373 15.3222C4.44798 15.2158 4.11421 15.0092 3.87581 14.5644C3.67904 13.9855 3.81338 13.639 4.00882 13.3865C4.06049 13.3734 3.99536 12.9095 3.99536 12.9095C3.99536 12.9095 3.50515 11.928 4.1639 10.9875Z" fill="white"/>
<path d="M4.1639 10.9875C4.26731 10.9607 4.30558 10.9076 4.29283 11.0664C4.03495 11.6634 4.00882 12.0079 4.00882 12.0079C4.00882 12.0079 3.91879 12.4582 4.26731 12.6838C4.6803 12.9624 4.66753 13.0635 4.59034 13.0552C4.63866 13.2388 4.4997 13.1351 4.4997 13.1351C4.30558 12.9095 4.26731 12.8564 4.1639 12.8295C4.15115 13.002 4.1639 13.1082 4.24111 13.2677C4.29283 13.3465 4.24111 13.4528 4.24111 13.4528C4.24111 13.4528 3.91879 13.6652 3.9571 14.0498C3.99536 14.7125 4.53794 15.0039 4.53794 15.0039C4.84817 15.3884 5.64931 15.4942 5.64931 15.4942C5.64931 15.4942 5.15841 15.7198 4.60373 15.3222C4.44798 15.2158 4.11421 15.0092 3.87581 14.5644C3.67904 13.9855 3.81338 13.639 4.00882 13.3865C4.06049 13.3734 3.99536 12.9095 3.99536 12.9095C3.99536 12.9095 3.50515 11.928 4.1639 10.9875Z" stroke="#231F20" stroke-width="0.0501383" stroke-miterlimit="3.864"/>
<path fill-rule="evenodd" clip-rule="evenodd" d="M8.21403 11.1327C8.20064 10.9602 8.34298 11.0001 8.34298 11.0001C8.87276 11.2254 8.74319 12.882 8.74319 12.882C8.67875 13.3333 8.47189 13.6117 8.47189 13.6117C8.40742 13.7174 8.40742 14.6588 8.40742 14.6588C8.27847 15.282 7.0127 15.5067 7.0127 15.5067C6.88305 15.4805 7.0127 15.3747 7.0127 15.3747C8.00714 15.1095 8.10994 14.8177 8.10994 14.8177C8.31674 14.6852 8.1744 13.6516 8.29199 13.4659C8.54976 13.2533 8.62697 12.7101 8.62697 12.7101C8.62697 12.7101 8.47189 12.8957 8.40742 12.829C8.51081 12.6701 8.52358 12.4186 8.52358 12.4186C8.52358 12.4186 8.69214 11.5303 8.21403 11.1327Z" fill="white"/>
<path d="M5.20234 13.3731C5.13769 13.28 5.28058 13.2269 5.28058 13.2269C5.52657 13.1869 5.71522 13.4457 5.71522 13.4457C5.86285 13.6494 5.61885 13.828 5.52248 13.826C5.25088 13.8071 5.39716 13.5456 5.39716 13.5456C5.46183 13.6792 5.53934 13.6529 5.53934 13.6529C5.691 13.5601 5.45982 13.363 5.20234 13.3731Z" fill="white"/>
<path d="M6.90971 13.7962C6.78068 13.4907 7.07445 13.3198 7.07445 13.3198C7.23444 13.2207 7.41395 13.3047 7.41395 13.3047C7.65938 13.4376 7.46574 13.6766 7.46574 13.6766C7.29763 13.8752 7.24588 13.6634 7.24588 13.6634C7.24588 13.6634 7.40255 13.6379 7.33667 13.4907C7.26001 13.3927 7.15712 13.463 7.15712 13.463C7.15712 13.463 7.01331 13.5571 7.07783 13.7163C7.07783 13.8355 6.90971 13.7962 6.90971 13.7962Z" fill="white"/>
<path fill-rule="evenodd" clip-rule="evenodd" d="M4.47852 14.5651C4.49197 14.4983 4.62703 14.2402 4.62703 14.2402C5.05362 14.5651 5.77046 14.6841 5.77046 14.6841L5.67371 15.0424C5.57023 15.0891 5.36936 14.9881 5.36936 14.9881L5.45398 14.724L5.36806 14.9907C5.22089 14.992 5.07983 14.8697 5.07983 14.8697L5.18331 14.6041L5.07919 14.8718C5.07919 14.8718 4.85676 14.8358 4.74927 14.724C4.72506 14.7103 4.86014 14.4851 4.86014 14.4851L4.74393 14.7109C4.74393 14.7109 4.58873 14.6841 4.47852 14.5651Z" fill="white"/>
<path d="M4.47852 14.5651C4.49197 14.4983 4.62703 14.2402 4.62703 14.2402C5.05362 14.5651 5.77046 14.6841 5.77046 14.6841L5.67371 15.0424C5.57023 15.0891 5.36936 14.9881 5.36936 14.9881L5.45398 14.724L5.36806 14.9907C5.22089 14.992 5.07983 14.8697 5.07983 14.8697L5.18331 14.6041L5.07919 14.8718C5.07919 14.8718 4.85676 14.8358 4.74927 14.724C4.72506 14.7103 4.86014 14.4851 4.86014 14.4851L4.74393 14.7109C4.74393 14.7109 4.58873 14.6841 4.47852 14.5651Z" stroke="#231F20" stroke-width="0.0250691" stroke-miterlimit="3.864"/>
<path fill-rule="evenodd" clip-rule="evenodd" d="M7.92476 14.5971C7.91137 14.531 7.77629 14.3184 7.77629 14.3184C7.3497 14.6432 6.63281 14.7161 6.63281 14.7161L6.72956 15.0744C6.84578 15.1145 7.03058 15.0139 7.03058 15.0139L6.94928 14.756L7.03058 15.0139C7.18175 15.0277 7.32417 14.9019 7.32417 14.9019L7.22069 14.6372L7.31676 14.8958C7.31676 14.8958 7.5714 14.8491 7.65672 14.7493C7.65672 14.7464 7.54316 14.5172 7.54316 14.5172L7.65944 14.743C7.65944 14.743 7.81526 14.7161 7.92476 14.5971Z" fill="white"/>
<path d="M7.92476 14.5971C7.91137 14.531 7.77629 14.3184 7.77629 14.3184C7.3497 14.6432 6.63281 14.7161 6.63281 14.7161L6.72956 15.0744C6.84578 15.1145 7.03058 15.0139 7.03058 15.0139L6.94928 14.756L7.03058 15.0139C7.18175 15.0277 7.32417 14.9019 7.32417 14.9019L7.22069 14.6372L7.31676 14.8958C7.31676 14.8958 7.5714 14.8491 7.65672 14.7493C7.65672 14.7464 7.54316 14.5172 7.54316 14.5172L7.65944 14.743C7.65944 14.743 7.81526 14.7161 7.92476 14.5971Z" stroke="#231F20" stroke-width="0.0250691" stroke-miterlimit="3.864"/>
<path d="M4.35168 14.5294C4.25491 14.4656 4.63455 14.085 4.66948 13.8223C4.70982 13.9537 4.8751 14.3692 5.8171 14.4298C5.7701 14.4737 5.65853 14.6837 4.68762 14.1848C4.51098 14.1217 4.43098 14.4751 4.43098 14.4751L4.35168 14.5294Z" fill="#ED1C24"/>
<path d="M4.35168 14.5294C4.25491 14.4656 4.63455 14.085 4.66948 13.8223C4.70982 13.9537 4.8751 14.3692 5.8171 14.4298C5.7701 14.4737 5.65853 14.6837 4.68762 14.1848C4.51098 14.1217 4.43098 14.4751 4.43098 14.4751L4.35168 14.5294Z" stroke="#ED1C24" stroke-width="0.0401106" stroke-miterlimit="3.864" stroke-linejoin="round"/>
<path d="M7.99601 14.5233C8.11088 14.215 7.87983 14.3291 7.84415 14.0664C7.48198 14.5012 6.63477 14.4921 6.63477 14.4921C6.63477 14.4921 6.72276 14.7729 7.72925 14.293C7.97385 14.1925 7.99601 14.5233 7.99601 14.5233Z" fill="#ED1C24"/>
<path d="M7.99601 14.5233C8.11088 14.215 7.87983 14.3291 7.84415 14.0664C7.48198 14.5012 6.63477 14.4921 6.63477 14.4921C6.63477 14.4921 6.72276 14.7729 7.72925 14.293C7.97385 14.1925 7.99601 14.5233 7.99601 14.5233Z" stroke="#ED1C24" stroke-width="0.0401106" stroke-miterlimit="3.864" stroke-linejoin="round"/>
<path d="M5.92146 14.4375C5.55117 15.5977 5.84485 15.825 5.84485 15.825C6.00412 15.9789 6.20575 15.9651 6.20575 15.9651C6.58012 15.9997 6.64329 15.7017 6.64329 15.7017C6.75822 15.3576 6.5492 14.4828 6.5492 14.4828H6.33684L6.26621 15.4257C6.22189 15.498 6.23935 15.5067 6.16878 15.4435C6.22189 14.6004 6.17686 14.4828 6.17686 14.4828C6.17686 14.4828 6.08007 14.4737 5.92146 14.4375Z" fill="#ED1C24"/>
<path d="M5.92146 14.4375C5.55117 15.5977 5.84485 15.825 5.84485 15.825C6.00412 15.9789 6.20575 15.9651 6.20575 15.9651C6.58012 15.9997 6.64329 15.7017 6.64329 15.7017C6.75822 15.3576 6.5492 14.4828 6.5492 14.4828H6.33684L6.26621 15.4257C6.22189 15.498 6.23935 15.5067 6.16878 15.4435C6.22189 14.6004 6.17686 14.4828 6.17686 14.4828C6.17686 14.4828 6.08007 14.4737 5.92146 14.4375Z" stroke="#ED1C24" stroke-width="0.0401106" stroke-miterlimit="3.864"/>
<path d="M5.61972 6.08008C5.61972 6.08008 5.56461 6.66069 5.26171 6.85512C4.72313 7.19096 3.23555 7.63012 2.94543 7.93263C1.86218 8.78961 2.36053 10.0985 2.36053 10.0985C2.62708 10.8939 3.22483 10.8705 3.22483 10.8705C3.51295 10.848 3.85609 10.848 3.85609 10.848C3.79235 10.7627 3.7654 10.6835 3.7654 10.6835C3.7654 10.6835 3.70168 10.5434 3.92263 10.4161C3.73386 10.0861 3.65666 9.46082 3.65666 9.46082C3.36317 9.3665 3.3296 9.15227 3.3296 9.15227C3.3296 9.15227 3.25505 8.93462 3.47331 8.8349C3.10732 8.55319 3.11202 8.33422 3.11202 8.33422C3.11202 8.33422 3.06297 7.96993 3.39877 8.02437C3.69831 8.10592 3.37931 8.36245 3.46257 8.39066C3.59418 8.04683 3.72378 8.15834 3.74464 8.16437C3.99178 8.2822 3.65534 8.54206 3.73119 8.58808C3.97431 8.04683 4.12476 8.49679 4.12476 8.49679C4.12476 8.49679 5.18512 8.01664 5.63982 7.61904C6.45913 6.84602 5.61972 6.08008 5.61972 6.08008Z" fill="white"/>
<path d="M5.61972 6.08008C5.61972 6.08008 5.56461 6.66069 5.26171 6.85512C4.72313 7.19096 3.23555 7.63012 2.94543 7.93263C1.86218 8.78961 2.36053 10.0985 2.36053 10.0985C2.62708 10.8939 3.22483 10.8705 3.22483 10.8705C3.51295 10.848 3.85609 10.848 3.85609 10.848C3.79235 10.7627 3.7654 10.6835 3.7654 10.6835C3.7654 10.6835 3.70168 10.5434 3.92263 10.4161C3.73386 10.0861 3.65666 9.46082 3.65666 9.46082C3.36317 9.3665 3.3296 9.15227 3.3296 9.15227C3.3296 9.15227 3.25505 8.93462 3.47331 8.8349C3.10732 8.55319 3.11202 8.33422 3.11202 8.33422C3.11202 8.33422 3.06297 7.96993 3.39877 8.02437C3.69831 8.10592 3.37931 8.36245 3.46257 8.39066C3.59418 8.04683 3.72378 8.15834 3.74464 8.16437C3.99178 8.2822 3.65534 8.54206 3.73119 8.58808C3.97431 8.04683 4.12476 8.49679 4.12476 8.49679C4.12476 8.49679 5.18512 8.01664 5.63982 7.61904C6.45913 6.84602 5.61972 6.08008 5.61972 6.08008Z" stroke="#231F20" stroke-width="0.0532719" stroke-miterlimit="3.864"/>
<path fill-rule="evenodd" clip-rule="evenodd" d="M6.8399 6.08008C6.8399 6.08008 6.78211 6.54454 7.19447 6.85713C7.89225 7.29193 9.22394 7.63012 9.51474 7.93263C10.5751 8.69821 10.1769 10.0324 10.1769 10.0324C9.89283 10.6995 9.30122 10.8251 9.30122 10.8251C9.03527 10.7681 8.63635 10.7502 8.63635 10.7502C8.68871 10.7254 8.69272 10.6656 8.69272 10.6656C8.69272 10.6656 8.69879 10.482 8.53767 10.4161C8.72638 10.0861 8.80289 9.46082 8.80289 9.46082C9.05005 9.45948 9.11317 9.14247 9.11317 9.14247C9.11317 9.14247 9.16756 8.91889 8.98086 8.82416C9.34491 8.54006 9.34419 8.33422 9.34419 8.33422C9.34419 8.33422 9.39524 8.10763 9.22199 8.06626C9.12186 8.04916 8.98218 8.0015 9.02583 8.37289C8.96811 8.38526 9.01509 8.11499 8.86401 8.11899C8.46982 8.19255 8.76264 8.50017 8.70818 8.52705C8.70818 8.52705 8.69947 8.30067 8.49669 8.33631C8.31402 8.36952 8.33817 8.50553 8.33817 8.50553C8.33817 8.50553 7.27442 8.01664 6.82038 7.61904C6.00041 6.84602 6.8399 6.08008 6.8399 6.08008Z" fill="white"/>
<path d="M6.8399 6.08008C6.8399 6.08008 6.78211 6.54454 7.19447 6.85713C7.89225 7.29193 9.22394 7.63012 9.51474 7.93263C10.5751 8.69821 10.1769 10.0324 10.1769 10.0324C9.89283 10.6995 9.30122 10.8251 9.30122 10.8251C9.03527 10.7681 8.63635 10.7502 8.63635 10.7502C8.68871 10.7254 8.69272 10.6656 8.69272 10.6656C8.69272 10.6656 8.69879 10.482 8.53767 10.4161C8.72638 10.0861 8.80289 9.46082 8.80289 9.46082C9.05005 9.45948 9.11317 9.14247 9.11317 9.14247C9.11317 9.14247 9.16756 8.91889 8.98086 8.82416C9.34491 8.54006 9.34419 8.33422 9.34419 8.33422C9.34419 8.33422 9.39524 8.10763 9.22199 8.06626C9.12186 8.04916 8.98218 8.0015 9.02583 8.37289C8.96811 8.38526 9.01509 8.11499 8.86401 8.11899C8.46982 8.19255 8.76264 8.50017 8.70818 8.52705C8.70818 8.52705 8.69947 8.30067 8.49669 8.33631C8.31402 8.36952 8.33817 8.50553 8.33817 8.50553C8.33817 8.50553 7.27442 8.01664 6.82038 7.61904C6.00041 6.84602 6.8399 6.08008 6.8399 6.08008Z" stroke="#231F20" stroke-width="0.0532719" stroke-miterlimit="3.864"/>
<path d="M7.27304 9.99797C7.26766 9.92206 7.20385 9.8643 7.12924 9.86998C7.05465 9.87536 6.99895 9.94152 7.00429 10.0171C7.00971 10.0933 7.07415 10.1508 7.1487 10.1457C7.22197 10.1404 7.27836 10.0742 7.27304 9.99797ZM7.90912 9.94957L7.56522 9.90023C7.47455 9.88707 7.39193 9.94083 7.38118 10.0198C7.36971 10.099 7.43555 10.1733 7.52624 10.1863L7.87018 10.2358C7.96083 10.2488 8.04354 10.1951 8.05426 10.1162C8.06496 10.0373 7.99988 9.96268 7.90912 9.94957ZM5.81393 9.96136C5.81929 9.88579 5.88378 9.82869 5.95766 9.83331C6.03161 9.83903 6.08807 9.90486 6.082 9.98148C6.07726 10.057 6.01281 10.1148 5.93887 10.1094C5.86498 10.1038 5.80929 10.0379 5.81393 9.96136ZM5.1724 9.83771L5.51771 9.81293C5.60909 9.80686 5.68838 9.86592 5.69374 9.94551C5.69908 10.0255 5.62925 10.0951 5.53717 10.1017L5.19192 10.1259C5.09988 10.1327 5.02128 10.0729 5.01592 9.99357C5.01056 9.91398 5.07974 9.84379 5.1724 9.83771Z" stroke="#231F20" stroke-width="0.0376037" stroke-miterlimit="3.864"/>
<path d="M9.10788 9.24294C9.18535 9.08691 9.15709 8.86687 9.0128 8.83417C8.93799 8.81767 8.82274 8.89724 8.74531 9.05318C8.66776 9.20891 8.68598 9.37801 8.78633 9.43065C8.88611 9.48289 9.03033 9.39895 9.10788 9.24294Z" fill="#FFE013"/>
<path d="M9.10788 9.24294C9.18535 9.08691 9.15709 8.86687 9.0128 8.83417C8.93799 8.81767 8.82274 8.89724 8.74531 9.05318C8.66776 9.20891 8.68598 9.37801 8.78633 9.43065C8.88611 9.48289 9.03033 9.39895 9.10788 9.24294Z" stroke="#231F20" stroke-width="0.0501383" stroke-miterlimit="3.864"/>
<path d="M3.34066 9.24799C3.2618 9.08995 3.27462 8.9211 3.37032 8.87119C3.46532 8.82167 3.6062 8.90996 3.68506 9.06798C3.76321 9.22603 3.75044 9.39423 3.65538 9.44405C3.55965 9.49358 3.41886 9.40599 3.34066 9.24799Z" fill="#FFE013"/>
<path d="M3.34066 9.24799C3.2618 9.08995 3.27462 8.9211 3.37032 8.87119C3.46532 8.82167 3.6062 8.90996 3.68506 9.06798C3.76321 9.22603 3.75044 9.39423 3.65538 9.44405C3.55965 9.49358 3.41886 9.40599 3.34066 9.24799Z" stroke="#231F20" stroke-width="0.0501383" stroke-miterlimit="3.864"/>
<path d="M8.95117 13.4238C9.37711 13.8874 9.68685 14.0342 9.68685 14.0342C9.48192 14.5103 9.26018 14.7895 9.26018 14.7895C9.26018 14.7895 9.07607 14.7743 9.26018 14.4186C9.32539 14.4317 9.51754 14.0843 9.51754 14.0843C9.51754 14.0843 9.06064 13.8992 8.95117 13.4238Z" fill="white"/>
<path d="M0.6875 0.169922V14.9783C0.6875 20.9905 6.10693 23.8089 11.5804 23.8291C17.0604 23.8487 22.5404 20.9905 22.5422 15.0365V0.169922H0.6875Z" stroke="#231F20" stroke-width="0.227395" stroke-miterlimit="3.864"/>
</g>
<defs>
<clipPath id="clip0_634_21829">
<rect width="22.2044" height="24" fill="white" transform="translate(0.519531)"/>
</clipPath>
</defs>
</svg>
