<svg width="21" height="24" viewBox="0 0 21 24" fill="none" xmlns="http://www.w3.org/2000/svg">
<g clip-path="url(#clip0_634_21960)">
<path fill-rule="evenodd" clip-rule="evenodd" d="M10.7033 23.5421C5.47938 23.5421 1.26172 19.3248 1.26172 14.1008L1.26191 0.681641H20.1446V14.1008C20.1446 19.3247 15.927 23.5423 10.7033 23.5421Z" fill="black"/>
<path d="M14.3398 7.10766V0.826172H19.998V7.10766H14.3398Z" fill="white"/>
<path fill-rule="evenodd" clip-rule="evenodd" d="M17.8414 2.93413C17.5058 2.93413 17.5533 2.64649 17.6013 2.4549C17.6018 2.26297 17.6974 2.11916 17.6974 1.9753C17.7454 1.87945 17.6974 1.83148 17.6013 1.78374C17.5058 1.78356 17.4577 1.78374 17.4097 1.73564C17.2661 1.68767 17.2177 1.63992 17.1221 1.63992C17.0741 1.63974 17.0741 1.68767 17.0261 1.73564H16.8345C16.7865 1.73564 16.6904 1.73564 16.6424 1.78374C16.5949 1.87945 16.5944 1.92738 16.5468 1.9753C16.5468 2.0712 16.5468 2.0712 16.5468 2.16727C16.5949 2.11916 16.6904 2.0712 16.7384 2.0712H16.8825C16.8345 2.11916 16.6904 2.16727 16.5944 2.16727C16.4988 2.21501 16.4508 2.21501 16.3548 2.16727C16.3072 2.16709 16.3068 2.21501 16.2592 2.21501C16.2592 2.3109 16.4508 2.35883 16.5944 2.35883C16.6909 2.35883 16.6904 2.35883 16.7384 2.31108C16.7384 2.35883 16.7384 2.35883 16.6904 2.4068C16.6909 2.4068 16.6904 2.4549 16.6904 2.4549C16.7384 2.45472 16.8345 2.4549 16.9301 2.35883C16.9785 2.3109 17.0261 2.26297 17.0741 2.21501C17.0741 2.35883 17.0741 2.4068 17.0261 2.50269C16.9785 2.64649 16.9301 2.74239 16.8825 2.79032C16.7865 2.88621 16.6424 2.93413 16.5468 2.93413C16.3072 2.93413 16.1152 2.69442 16.1152 2.50269C16.1156 2.26297 16.2592 1.9753 16.3068 1.83148C16.3552 1.78356 16.4028 1.63992 16.3068 1.59178C16.2112 1.49594 15.9711 1.49611 15.7795 1.49611C15.4443 1.49594 15.3483 1.49611 15.0607 1.54385H14.581C14.5814 1.78356 14.725 1.9753 14.9646 2.02345C15.1567 2.02327 15.3963 2.02345 15.5879 2.02345C15.5879 2.02327 15.7795 2.02345 15.7795 2.0712C15.78 2.0712 15.7315 2.11916 15.7315 2.11916H14.581C14.5814 2.21501 14.629 2.31108 14.677 2.4068C14.821 2.5506 15.0607 2.59871 15.2043 2.59871C15.3483 2.59853 15.4439 2.5506 15.5399 2.59871C15.6359 2.59853 15.7315 2.59871 15.7315 2.59871C15.732 2.64649 15.6839 2.64649 15.5879 2.64649H14.5332C14.5334 2.74239 14.581 2.88621 14.677 2.98223C14.773 3.07795 14.9646 3.12605 15.1082 3.12605C15.3483 3.12588 15.4919 3.12605 15.7315 3.12605C15.732 3.12588 15.7795 3.12605 15.7795 3.12605C15.78 3.12588 15.7315 3.12605 15.7315 3.17384C15.4923 3.17384 15.3483 3.22176 15.1082 3.22176C14.8691 3.26969 14.773 3.26992 14.5332 3.31765C14.5814 3.46148 14.677 3.55737 14.821 3.65344C14.9171 3.70118 15.0607 3.70118 15.2043 3.70118C15.4923 3.70118 15.6839 3.65344 15.9711 3.60528H16.0191C16.0196 3.60528 16.0191 3.65344 15.9711 3.65344C15.78 3.70118 15.5399 3.74911 15.3003 3.845C15.0127 3.94089 14.8211 3.98881 14.5332 4.03674C14.773 4.27644 14.8686 4.37251 15.0127 4.37251C15.2047 4.37233 15.3963 4.27644 15.6359 4.18059C15.828 4.0847 15.9236 4.03674 16.0672 3.98881C16.1156 3.94089 16.1152 3.94107 16.1152 3.94107C16.1156 3.94089 16.1152 3.98881 16.0672 3.98881C15.8755 4.13263 15.6839 4.2287 15.3963 4.37251C15.2047 4.51615 15.1082 4.56412 14.9646 4.65997C15.1087 4.75586 15.2523 4.80379 15.4919 4.80379C15.5879 4.80379 15.6839 4.80379 15.7795 4.70793C15.8755 4.65996 15.9711 4.56412 16.0672 4.46841C16.1632 4.32442 16.2112 4.27644 16.3548 4.18059C16.3552 4.18059 16.4028 4.13263 16.4028 4.13263C16.4033 4.13263 16.3548 4.18059 16.3548 4.18059C16.1632 4.42026 16.0672 4.56412 15.8755 4.80379C16.0676 4.80379 16.2112 4.80379 16.3548 4.70793C16.5949 4.61205 16.6904 4.51615 16.8345 4.37251C16.8345 4.32442 16.8345 4.37251 16.8345 4.42026C16.8345 4.46823 16.6904 4.61223 16.5468 4.70793C16.4033 4.80379 16.2592 4.8999 16.1152 4.99556H16.1632C16.2112 5.04349 16.2112 5.04372 16.2112 5.04372C16.1632 5.13938 16.0672 5.18752 16.0191 5.23528C15.9236 5.28321 15.8275 5.33117 15.7795 5.33117H15.4439C15.4443 5.33117 15.4439 5.37908 15.3963 5.37908C15.3483 5.37908 15.3003 5.42724 15.3003 5.47498C15.3003 5.57087 15.3003 5.6188 15.3483 5.6188L15.3963 5.57105C15.4443 5.52291 15.4439 5.52291 15.4439 5.52291C15.4443 5.57087 15.4919 5.57105 15.4919 5.57105C15.5399 5.57087 15.5399 5.52291 15.5879 5.52291H15.6359C15.5879 5.57087 15.5399 5.6188 15.4919 5.6188C15.4443 5.66672 15.4439 5.66672 15.4439 5.66672C15.4443 5.71469 15.4439 5.71487 15.4439 5.71487C15.3963 5.76261 15.3963 5.81054 15.4439 5.90643C15.4443 5.9544 15.4919 6.00251 15.5879 6.00251C15.5879 6.00233 15.5879 5.9544 15.5879 5.90643C15.5879 5.90643 15.5879 5.90643 15.5879 5.85868C15.5879 5.85851 15.6359 5.85868 15.6359 5.85868C15.6839 5.81054 15.6839 5.81054 15.6839 5.76261C15.732 5.71469 15.7315 5.71487 15.7795 5.66672C15.78 5.71469 15.7315 5.76261 15.7315 5.81054C15.732 5.8585 15.7315 5.90643 15.6839 5.9544L15.7315 6.00251C15.732 6.09822 15.7315 6.14614 15.8275 6.14614C15.8755 6.19407 15.9711 6.19407 16.0672 6.19407C16.0196 6.19407 15.9711 6.14614 15.9236 6.09822V6.05024C15.9236 6.00233 15.9711 6.00251 15.9711 6.00251C15.9716 5.90643 15.9711 5.85868 15.9711 5.81054C15.9716 5.76261 16.0191 5.66672 16.0191 5.66672C16.0196 5.71469 16.0672 5.76261 16.1152 5.81054C16.1156 5.81054 16.1152 5.85868 16.1632 5.81054C16.2112 5.81054 16.2112 5.85868 16.2112 5.85868C16.2112 5.90643 16.2112 5.90643 16.2112 5.9544C16.2592 5.9544 16.3548 5.90643 16.3548 5.85868C16.4033 5.76261 16.3548 5.66672 16.3068 5.66672C16.3072 5.6188 16.3068 5.6188 16.3068 5.57105C16.2112 5.52291 16.1632 5.52291 16.1632 5.47498V5.42724C16.2112 5.37908 16.2112 5.33117 16.2592 5.28338C16.3072 5.28321 16.3548 5.23528 16.4028 5.18753C16.4033 5.23528 16.4028 5.23528 16.4508 5.28338C16.4508 5.33117 16.4988 5.33117 16.4988 5.37908C16.5468 5.33117 16.5468 5.28338 16.5944 5.23528C16.6429 5.18735 16.6904 5.13938 16.7384 5.09145C16.7865 4.99556 16.8345 4.94765 16.8345 4.94765C16.8825 4.89968 16.8825 4.99556 16.9301 5.04372C16.9305 5.09145 16.9301 5.09145 16.9301 5.13938C16.8825 5.28321 16.7384 5.57105 16.6424 5.76261C16.4988 6.00233 16.3068 6.24221 16.1152 6.48173H16.4028C16.4988 6.48173 16.6424 6.48173 16.7865 6.43376C16.8345 6.52966 16.8825 6.57759 16.9301 6.62555C17.0261 6.72145 17.0741 6.72145 17.1701 6.81752C17.2661 6.72145 17.3137 6.72145 17.4097 6.62555C17.5058 6.57759 17.5053 6.52984 17.6013 6.43376C17.6974 6.48173 17.841 6.48173 17.937 6.48173H18.2726C18.033 6.24203 17.841 6.0025 17.6974 5.76261C17.6018 5.57087 17.5053 5.28338 17.4577 5.13938C17.4097 5.09145 17.4097 5.09145 17.4577 5.04372C17.4577 4.99556 17.5053 4.8999 17.5053 4.94765C17.5058 4.94765 17.6013 4.99556 17.6494 5.09145C17.6974 5.13938 17.6974 5.18752 17.7454 5.23528C17.7934 5.28321 17.841 5.33117 17.841 5.37908C17.889 5.33117 17.889 5.33117 17.889 5.28338C17.937 5.23528 17.937 5.23528 17.985 5.18753C18.033 5.23528 18.033 5.28338 18.0806 5.28338C18.129 5.33117 18.1286 5.37908 18.1766 5.42724C18.2246 5.42701 18.2246 5.47498 18.1766 5.47498C18.1771 5.52291 18.1286 5.52291 18.0806 5.57105C18.033 5.6188 18.033 5.6188 18.033 5.66672C18.033 5.66672 17.985 5.76261 17.985 5.85868C18.033 5.90643 18.0806 5.9544 18.1766 5.9544C18.129 5.90643 18.1286 5.90643 18.1286 5.85868C18.129 5.85851 18.1766 5.81054 18.1766 5.81054H18.2246C18.2246 5.8585 18.2246 5.81054 18.2726 5.81054C18.2726 5.76261 18.3207 5.71487 18.3207 5.66672C18.3687 5.66672 18.3687 5.76261 18.3687 5.81054C18.3687 5.8585 18.3687 5.90643 18.4162 6.00251C18.4167 6.00233 18.4162 6.00251 18.4162 6.05024C18.4167 6.05024 18.4162 6.09822 18.4162 6.09822C18.3687 6.14614 18.3687 6.19407 18.3207 6.19407C18.3687 6.19407 18.4642 6.19407 18.5122 6.14614C18.6083 6.14614 18.6083 6.09822 18.6083 6.00251C18.6563 6.00233 18.6563 5.9544 18.6563 5.9544C18.6563 5.90643 18.6083 5.85868 18.6083 5.81054C18.6083 5.76261 18.6083 5.71487 18.5603 5.66672C18.6083 5.71469 18.6083 5.71487 18.6563 5.76261C18.6563 5.81054 18.7039 5.81054 18.7039 5.85868C18.7523 5.85851 18.7519 5.85868 18.7519 5.85868C18.8003 5.90643 18.7999 5.90643 18.7999 5.90643C18.8003 5.9544 18.7999 6.00251 18.7519 6.00251C18.8479 6.00233 18.8959 5.9544 18.9435 5.90643C18.9439 5.81054 18.9435 5.76261 18.8959 5.71487C18.9439 5.71469 18.9435 5.71487 18.9435 5.66672C18.8959 5.66672 18.8959 5.66672 18.8959 5.6188C18.8479 5.6188 18.7519 5.57105 18.7039 5.52291H18.7999C18.8003 5.52291 18.8479 5.57105 18.8479 5.57105C18.8479 5.57087 18.8959 5.57105 18.8959 5.52291C18.8959 5.52291 18.9435 5.52291 18.9435 5.57105C18.9919 5.57087 18.9915 5.6188 18.9915 5.6188C19.0399 5.6188 19.0875 5.57105 19.0395 5.47498C19.04 5.42701 18.9915 5.37908 18.9435 5.37908C18.9439 5.37908 18.8959 5.33117 18.8959 5.33117H18.6083C18.5122 5.33117 18.4162 5.28338 18.3687 5.23528C18.2726 5.18735 18.2246 5.13938 18.1286 5.04372C18.129 5.04349 18.1766 5.04372 18.1766 4.99556H18.2726C18.081 4.89968 17.937 4.80379 17.7929 4.70793C17.6974 4.61205 17.5533 4.46841 17.5053 4.42026C17.5058 4.37233 17.5053 4.32442 17.5053 4.37251C17.6494 4.51615 17.7454 4.61223 17.985 4.70793C18.1771 4.80379 18.2726 4.80379 18.5122 4.80379C18.2726 4.56412 18.1766 4.42026 17.985 4.18059L17.937 4.13263C17.985 4.13263 17.985 4.18059 17.985 4.18059C18.129 4.27644 18.1766 4.32442 18.2726 4.46841C18.4167 4.56412 18.4642 4.65996 18.5603 4.70793C18.6563 4.80379 18.7519 4.80379 18.8959 4.80379C19.0875 4.80379 19.2311 4.75604 19.3751 4.65997C19.2316 4.56412 19.1355 4.51615 18.9435 4.37251C18.7043 4.22852 18.5122 4.13263 18.2726 3.98881L18.2246 3.94107C18.2246 3.94089 18.2726 3.94107 18.2726 3.98881C18.4167 4.03674 18.5603 4.08488 18.7039 4.18059C18.9439 4.27644 19.1835 4.37251 19.3271 4.37251C19.4712 4.37233 19.5667 4.27644 19.8068 4.03674C19.5192 3.98881 19.3751 3.94107 19.0395 3.845C18.8003 3.74911 18.5603 3.70118 18.3687 3.65344C18.3687 3.65321 18.3207 3.60528 18.3207 3.60528H18.4162C18.6563 3.65321 18.8959 3.70118 19.1355 3.70118C19.2796 3.70118 19.4232 3.70118 19.5667 3.65344C19.7108 3.55737 19.7588 3.46148 19.8068 3.31765C19.5672 3.26969 19.4712 3.26991 19.2311 3.22176C18.9919 3.22176 18.8479 3.17384 18.6083 3.17384C18.6083 3.12588 18.5603 3.12605 18.5603 3.12605C18.6083 3.12588 18.6083 3.12605 18.6083 3.12605C18.8479 3.12588 19.0395 3.12605 19.2311 3.12605C19.3751 3.12588 19.5667 3.07795 19.7108 2.98223C19.8068 2.88621 19.8068 2.74239 19.8068 2.64649H18.7519C18.7043 2.64649 18.6083 2.64649 18.6083 2.59871C18.6083 2.59853 18.7039 2.59871 18.7999 2.59871C18.8959 2.5506 19.0395 2.59871 19.1835 2.59871C19.3276 2.59853 19.5667 2.5506 19.6628 2.4068C19.7588 2.3109 19.7588 2.21501 19.7588 2.11916H18.6563C18.6083 2.11916 18.5603 2.0712 18.5603 2.0712C18.5603 2.02327 18.7519 2.02345 18.7999 2.02345C18.9439 2.02327 19.2311 2.02345 19.3751 2.02345C19.6152 1.9753 19.7588 1.78374 19.7588 1.54385H19.3271C18.9919 1.49594 18.8959 1.49611 18.5603 1.49611C18.4167 1.49594 18.1286 1.49611 18.033 1.59178C17.985 1.63974 17.985 1.78374 18.033 1.83148C18.081 1.9753 18.2246 2.26297 18.2246 2.50269C18.2246 2.69442 18.033 2.93413 17.8414 2.93413Z" fill="black"/>
<path fill-rule="evenodd" clip-rule="evenodd" d="M16.209 5.7632C16.209 5.7632 16.209 5.7632 16.209 5.71482C16.2576 5.71464 16.2576 5.71482 16.2576 5.66602C16.3063 5.71464 16.3058 5.7632 16.3058 5.81177C16.3063 5.86038 16.3058 5.86056 16.2576 5.90895C16.2576 5.86038 16.2576 5.86056 16.2576 5.81177C16.2576 5.81177 16.209 5.81177 16.209 5.7632Z" fill="white"/>
<path fill-rule="evenodd" clip-rule="evenodd" d="M15.8767 6.05044C15.8284 6.05044 15.828 6.05044 15.828 6.00203C15.7797 6.00185 15.7793 6.00203 15.7793 6.00203C15.7797 6.05044 15.7793 6.05044 15.7793 6.09909C15.8284 6.14768 15.8767 6.14768 15.9254 6.14768C15.9254 6.14768 15.8767 6.14768 15.8767 6.09909V6.05044Z" fill="white"/>
<path fill-rule="evenodd" clip-rule="evenodd" d="M15.5413 5.85949C15.5413 5.81058 15.5413 5.81058 15.4923 5.81058C15.4928 5.81058 15.4923 5.81058 15.4923 5.76172C15.4438 5.81058 15.4434 5.81058 15.4434 5.85967C15.4438 5.90835 15.4923 5.95725 15.5413 5.95725V5.90835C15.5413 5.85949 15.5413 5.85967 15.5413 5.85949Z" fill="white"/>
<path fill-rule="evenodd" clip-rule="evenodd" d="M15.4475 5.37891C15.3985 5.37891 15.3985 5.428 15.3496 5.428C15.3496 5.47667 15.3496 5.52554 15.3496 5.57462C15.3496 5.52554 15.3496 5.52554 15.3985 5.52554C15.3985 5.47667 15.447 5.47667 15.447 5.47667C15.4475 5.47667 15.447 5.47667 15.447 5.428C15.4475 5.42777 15.447 5.428 15.4475 5.37891Z" fill="white"/>
<path fill-rule="evenodd" clip-rule="evenodd" d="M16.2606 5.0918C16.2606 5.0918 16.3082 5.0918 16.3082 5.13979C16.3087 5.13979 16.3563 5.13979 16.3563 5.18801C16.3087 5.23583 16.2606 5.23583 16.2125 5.284C16.1644 5.33186 16.1644 5.33185 16.1163 5.37984C16.1168 5.42783 16.1163 5.47587 16.1163 5.52387C16.1644 5.5719 16.1644 5.57208 16.2125 5.57208C16.2125 5.5719 16.2606 5.6199 16.2606 5.6199C16.2606 5.66788 16.2125 5.66788 16.2125 5.7161C16.1644 5.71592 16.1644 5.76391 16.1644 5.76391C16.1168 5.71592 16.0683 5.7161 16.0683 5.66788C16.0206 5.6199 15.9721 5.6199 15.9721 5.66788C15.9725 5.71592 15.9245 5.76391 15.9245 5.8119C15.9245 5.90794 15.9245 5.90794 15.9245 6.00414C15.8764 6.00396 15.8764 6.00414 15.8283 6.00414C15.7807 5.95597 15.7802 5.95597 15.7321 5.95597C15.7807 5.90794 15.7802 5.86011 15.7802 5.8119C15.7807 5.76391 15.8283 5.76391 15.8283 5.66788C15.8288 5.66788 15.8283 5.6199 15.8283 5.6199C15.7807 5.6199 15.7802 5.6199 15.7321 5.66788C15.6845 5.71592 15.6845 5.7161 15.6364 5.76391C15.6364 5.76391 15.6364 5.8119 15.5883 5.8119C15.5883 5.8119 15.5403 5.8119 15.5403 5.76391C15.4926 5.76391 15.4922 5.7161 15.4922 5.7161C15.5403 5.66788 15.5403 5.66788 15.5883 5.6199C15.6364 5.5719 15.6845 5.57208 15.7321 5.52387C15.7326 5.52387 15.7321 5.52387 15.7321 5.47587H15.5883C15.5403 5.47587 15.5403 5.47587 15.4922 5.52387C15.4926 5.47587 15.4922 5.47587 15.4922 5.42806C15.4926 5.42783 15.4922 5.37984 15.4922 5.37984H15.8764C15.9245 5.33185 15.9721 5.33186 16.0202 5.284C16.1168 5.23583 16.1163 5.23583 16.1644 5.18801C16.2125 5.13979 16.2125 5.13979 16.2606 5.0918Z" fill="#A77F29"/>
<path d="M16.2606 5.0918C16.2606 5.0918 16.3082 5.0918 16.3082 5.13979C16.3087 5.13979 16.3563 5.13979 16.3563 5.18801C16.3087 5.23583 16.2606 5.23583 16.2125 5.284C16.1644 5.33186 16.1644 5.33185 16.1163 5.37984C16.1168 5.42783 16.1163 5.47587 16.1163 5.52387C16.1644 5.5719 16.1644 5.57208 16.2125 5.57208C16.2125 5.5719 16.2606 5.6199 16.2606 5.6199C16.2606 5.66788 16.2125 5.66788 16.2125 5.7161C16.1644 5.71592 16.1644 5.76391 16.1644 5.76391C16.1168 5.71592 16.0683 5.7161 16.0683 5.66788C16.0206 5.6199 15.9721 5.6199 15.9721 5.66788C15.9725 5.71592 15.9245 5.76391 15.9245 5.8119C15.9245 5.90794 15.9245 5.90794 15.9245 6.00414C15.8764 6.00396 15.8764 6.00414 15.8283 6.00414C15.7807 5.95597 15.7802 5.95597 15.7321 5.95597C15.7807 5.90794 15.7802 5.86011 15.7802 5.8119C15.7807 5.76391 15.8283 5.76391 15.8283 5.66788C15.8288 5.66788 15.8283 5.6199 15.8283 5.6199C15.7807 5.6199 15.7802 5.6199 15.7321 5.66788C15.6845 5.71592 15.6845 5.7161 15.6364 5.76391C15.6364 5.76391 15.6364 5.8119 15.5883 5.8119C15.5883 5.8119 15.5403 5.8119 15.5403 5.76391C15.4926 5.76391 15.4922 5.7161 15.4922 5.7161C15.5403 5.66788 15.5403 5.66788 15.5883 5.6199C15.6364 5.5719 15.6845 5.57208 15.7321 5.52387C15.7326 5.52387 15.7321 5.52387 15.7321 5.47587H15.5883C15.5403 5.47587 15.5403 5.47587 15.4922 5.52387C15.4926 5.47587 15.4922 5.47587 15.4922 5.42806C15.4926 5.42783 15.4922 5.37984 15.4922 5.37984H15.8764C15.9245 5.33185 15.9721 5.33186 16.0202 5.284C16.1168 5.23583 16.1163 5.23583 16.1644 5.18801C16.2125 5.13979 16.2125 5.13979 16.2606 5.0918Z" fill="#F9D100"/>
<path fill-rule="evenodd" clip-rule="evenodd" d="M18.1325 5.7632C18.1325 5.7632 18.132 5.7632 18.132 5.71482C18.1325 5.71464 18.0834 5.71482 18.0834 5.66602C18.0352 5.71464 18.0352 5.7632 18.0352 5.81177C18.0352 5.86038 18.0834 5.86056 18.0834 5.90895C18.0838 5.86038 18.0834 5.86056 18.132 5.81177C18.1325 5.81177 18.132 5.81177 18.1325 5.7632Z" fill="white"/>
<path fill-rule="evenodd" clip-rule="evenodd" d="M18.4654 6.0507C18.5139 6.0507 18.5139 6.0507 18.5629 6.00203C18.5629 6.00185 18.5629 6.00203 18.6118 6.00203C18.5629 6.0507 18.5629 6.0507 18.5629 6.09962C18.5139 6.14847 18.5139 6.14847 18.416 6.14847C18.4654 6.14847 18.465 6.14847 18.465 6.09962C18.4654 6.09962 18.465 6.0507 18.4654 6.0507Z" fill="white"/>
<path fill-rule="evenodd" clip-rule="evenodd" d="M18.7973 5.85949C18.8458 5.81058 18.8458 5.81058 18.8458 5.81058C18.8458 5.81058 18.8458 5.81058 18.8948 5.76172C18.8948 5.81058 18.8948 5.81058 18.8948 5.85967C18.8948 5.90835 18.8458 5.95725 18.7969 5.95725C18.8458 5.95725 18.8458 5.90835 18.8458 5.90835C18.8458 5.85949 18.7969 5.85967 18.7973 5.85949Z" fill="white"/>
<path fill-rule="evenodd" clip-rule="evenodd" d="M18.8926 5.37891C18.9415 5.37891 18.9411 5.428 18.99 5.428C18.9905 5.47667 19.039 5.52554 18.99 5.57462C18.9905 5.52554 18.99 5.52554 18.9411 5.52554C18.9415 5.47667 18.9411 5.47667 18.8926 5.47667C18.8926 5.47667 18.8926 5.47667 18.8926 5.428C18.8926 5.42777 18.8926 5.428 18.8926 5.37891Z" fill="white"/>
<path fill-rule="evenodd" clip-rule="evenodd" d="M18.0805 5.0918C18.0805 5.0918 18.0801 5.0918 18.0325 5.13979C18.0325 5.13979 18.0325 5.13979 17.9844 5.18801C18.0805 5.23583 18.0801 5.23583 18.1282 5.284C18.1767 5.33186 18.2243 5.33185 18.2243 5.37984C18.2724 5.42783 18.2724 5.47587 18.2243 5.52387C18.1767 5.5719 18.1762 5.57208 18.1282 5.57208C18.1286 5.5719 18.1282 5.6199 18.0801 5.6199C18.1286 5.66788 18.1282 5.66788 18.1282 5.7161C18.1767 5.71592 18.1762 5.76391 18.2243 5.76391C18.2724 5.71592 18.2724 5.7161 18.3205 5.66788C18.3205 5.6199 18.3686 5.6199 18.3686 5.66788C18.4167 5.71592 18.4162 5.76391 18.4162 5.8119C18.4167 5.90794 18.4162 5.90794 18.4643 6.00414C18.4647 6.00396 18.5124 6.00414 18.5124 6.00414C18.5605 5.95597 18.5605 5.95597 18.6085 5.95597C18.6085 5.90794 18.5605 5.86011 18.5605 5.8119C18.5605 5.76391 18.5605 5.76391 18.5124 5.66788C18.5124 5.66788 18.5124 5.6199 18.5605 5.6199C18.5605 5.6199 18.6085 5.6199 18.6085 5.66788C18.6566 5.71592 18.6566 5.7161 18.7043 5.76391C18.7047 5.76391 18.7523 5.8119 18.7523 5.8119C18.8009 5.8119 18.8004 5.8119 18.8004 5.76391C18.8485 5.76391 18.8485 5.7161 18.8966 5.7161C18.8485 5.66788 18.8004 5.66788 18.7523 5.6199C18.7047 5.5719 18.7043 5.57208 18.6566 5.52387C18.6085 5.52387 18.6085 5.52387 18.6085 5.47587H18.8004C18.8009 5.47587 18.8485 5.47587 18.8485 5.52387C18.8485 5.47587 18.8485 5.47587 18.8485 5.42806C18.8485 5.42783 18.8485 5.37984 18.8485 5.37984H18.4643C18.4167 5.33185 18.3686 5.33186 18.3205 5.284C18.2724 5.23583 18.2243 5.23583 18.1762 5.18801C18.1286 5.13979 18.1282 5.13979 18.0805 5.0918Z" fill="#A77F29"/>
<path d="M18.0805 5.0918C18.0805 5.0918 18.0801 5.0918 18.0325 5.13979C18.0325 5.13979 18.0325 5.13979 17.9844 5.18801C18.0805 5.23583 18.0801 5.23583 18.1282 5.284C18.1767 5.33186 18.2243 5.33185 18.2243 5.37984C18.2724 5.42783 18.2724 5.47587 18.2243 5.52387C18.1767 5.5719 18.1762 5.57208 18.1282 5.57208C18.1286 5.5719 18.1282 5.6199 18.0801 5.6199C18.1286 5.66788 18.1282 5.66788 18.1282 5.7161C18.1767 5.71592 18.1762 5.76391 18.2243 5.76391C18.2724 5.71592 18.2724 5.7161 18.3205 5.66788C18.3205 5.6199 18.3686 5.6199 18.3686 5.66788C18.4167 5.71592 18.4162 5.76391 18.4162 5.8119C18.4167 5.90794 18.4162 5.90794 18.4643 6.00414C18.4647 6.00396 18.5124 6.00414 18.5124 6.00414C18.5605 5.95597 18.5605 5.95597 18.6085 5.95597C18.6085 5.90794 18.5605 5.86011 18.5605 5.8119C18.5605 5.76391 18.5605 5.76391 18.5124 5.66788C18.5124 5.66788 18.5124 5.6199 18.5605 5.6199C18.5605 5.6199 18.6085 5.6199 18.6085 5.66788C18.6566 5.71592 18.6566 5.7161 18.7043 5.76391C18.7047 5.76391 18.7523 5.8119 18.7523 5.8119C18.8009 5.8119 18.8004 5.8119 18.8004 5.76391C18.8485 5.76391 18.8485 5.7161 18.8966 5.7161C18.8485 5.66788 18.8004 5.66788 18.7523 5.6199C18.7047 5.5719 18.7043 5.57208 18.6566 5.52387C18.6085 5.52387 18.6085 5.52387 18.6085 5.47587H18.8004C18.8009 5.47587 18.8485 5.47587 18.8485 5.52387C18.8485 5.47587 18.8485 5.47587 18.8485 5.42806C18.8485 5.42783 18.8485 5.37984 18.8485 5.37984H18.4643C18.4167 5.33185 18.3686 5.33186 18.3205 5.284C18.2724 5.23583 18.2243 5.23583 18.1762 5.18801C18.1286 5.13979 18.1282 5.13979 18.0805 5.0918Z" fill="#F9D100"/>
<path fill-rule="evenodd" clip-rule="evenodd" d="M16.3535 2.26346H16.5458C16.6904 2.21533 16.7863 2.16742 16.9304 2.11914H16.9308C16.8827 2.21533 16.7863 2.31174 16.6417 2.31174C16.4976 2.31156 16.3531 2.26346 16.3535 2.26346Z" fill="#EE1C2A"/>
<path fill-rule="evenodd" clip-rule="evenodd" d="M16.7862 2.40939C16.8343 2.36133 16.8343 2.31349 16.8824 2.26529C16.9305 2.21723 16.9782 2.1694 17.0263 2.07314H16.9782C16.8824 2.02512 16.8343 2.0253 16.7381 2.0253C16.6904 2.02512 16.6419 2.0253 16.5938 2.07314C16.5942 2.02512 16.5937 1.97706 16.6419 1.92904C16.6423 1.88102 16.6419 1.88121 16.69 1.83296C16.6904 1.78495 16.7862 1.78513 16.8343 1.78513C16.8824 1.78495 16.93 1.73693 17.0263 1.78513C17.0263 1.78495 16.9782 1.83296 16.9782 1.83296C16.9786 1.92904 17.0263 1.97706 17.0263 2.0253C17.0744 2.07314 17.0744 2.1212 17.0744 2.1694C17.0263 2.21723 17.0263 2.21723 16.9782 2.26529C16.8824 2.31331 16.8343 2.36133 16.7862 2.40939Z" fill="#A77F29"/>
<path d="M16.7862 2.40939C16.8343 2.36133 16.8343 2.31349 16.8824 2.26529C16.9305 2.21723 16.9782 2.1694 17.0263 2.07314H16.9782C16.8824 2.02512 16.8343 2.0253 16.7381 2.0253C16.6904 2.02512 16.6419 2.0253 16.5938 2.07314C16.5942 2.02512 16.5937 1.97706 16.6419 1.92904C16.6423 1.88102 16.6419 1.88121 16.69 1.83296C16.6904 1.78495 16.7862 1.78513 16.8343 1.78513C16.8824 1.78495 16.93 1.73693 17.0263 1.78513C17.0263 1.78495 16.9782 1.83296 16.9782 1.83296C16.9786 1.92904 17.0263 1.97706 17.0263 2.0253C17.0744 2.07314 17.0744 2.1212 17.0744 2.1694C17.0263 2.21723 17.0263 2.21723 16.9782 2.26529C16.8824 2.31331 16.8343 2.36133 16.7862 2.40939Z" fill="#F9D100"/>
<path fill-rule="evenodd" clip-rule="evenodd" d="M17.2688 1.83203C17.2202 1.83203 17.2198 1.88077 17.2198 1.88077C17.2202 1.88058 17.2198 1.92908 17.2684 1.92908H17.317C17.3174 1.88058 17.317 1.88077 17.317 1.88077C17.3174 1.88058 17.317 1.88077 17.3655 1.88077C17.3655 1.88058 17.4141 1.88077 17.4141 1.92908V1.97758C17.3655 1.97758 17.3655 1.92908 17.317 1.97758H17.2684C17.2202 1.97758 17.1716 1.97758 17.1716 1.88077C17.1716 1.88058 17.123 1.88077 17.123 1.83203H17.2688Z" fill="white"/>
<path fill-rule="evenodd" clip-rule="evenodd" d="M13.8633 18.5112C13.8633 18.5598 13.9117 18.6572 13.9602 18.6572C13.9604 18.6569 13.9602 18.6084 14.0088 18.6084C14.009 18.6084 14.0088 18.5598 14.0088 18.5598C14.009 18.5112 14.0574 18.5114 14.0574 18.4626C14.0576 18.4626 14.0574 18.4141 14.0574 18.4141H13.9602C13.9118 18.4141 13.863 18.4626 13.8633 18.5112Z" fill="white"/>
<path fill-rule="evenodd" clip-rule="evenodd" d="M14.0527 18.5112C14.0527 18.5598 14.1011 18.6572 14.1497 18.6572C14.1499 18.6569 14.1497 18.6084 14.1497 18.6084C14.1985 18.6084 14.1983 18.5598 14.1983 18.5598C14.1985 18.5112 14.1983 18.5114 14.2469 18.4626C14.2471 18.4626 14.2469 18.4141 14.1983 18.4141H14.1497C14.1013 18.4141 14.0526 18.4626 14.0527 18.5112Z" fill="white"/>
<path fill-rule="evenodd" clip-rule="evenodd" d="M11.4668 18.5112C11.4668 18.5598 11.4666 18.6572 11.5152 18.6572C11.564 18.6569 11.5638 18.6084 11.5638 18.6084C11.564 18.6084 11.5638 18.5598 11.5638 18.5598C11.564 18.5112 11.6124 18.5114 11.6124 18.4626C11.6126 18.4626 11.6124 18.4141 11.6124 18.4141H11.5152C11.4668 18.4141 11.4666 18.4626 11.4668 18.5112Z" fill="white"/>
<path fill-rule="evenodd" clip-rule="evenodd" d="M11.6094 18.5112C11.6094 18.5598 11.6578 18.6572 11.7063 18.6572C11.7066 18.6569 11.7063 18.6084 11.7549 18.6084C11.7551 18.6084 11.7549 18.5598 11.7549 18.5598C11.7551 18.5112 11.8035 18.5114 11.8035 18.4626C11.8037 18.4626 11.8035 18.4141 11.8035 18.4141H11.7063C11.6579 18.4141 11.6092 18.4626 11.6094 18.5112Z" fill="white"/>
<path fill-rule="evenodd" clip-rule="evenodd" d="M8.58984 18.5112C8.58984 18.5598 8.58966 18.6572 8.68685 18.6572C8.68702 18.6569 8.68685 18.6084 8.68685 18.6084C8.7356 18.6084 8.73542 18.5598 8.73542 18.5598C8.7356 18.5112 8.73542 18.5114 8.78403 18.4626C8.78416 18.4626 8.78403 18.4141 8.73542 18.4141H8.68685C8.63842 18.4141 8.58966 18.4626 8.58984 18.5112Z" fill="white"/>
<path fill-rule="evenodd" clip-rule="evenodd" d="M8.7832 18.5112C8.7832 18.5598 8.78308 18.6572 8.83163 18.6572C8.88039 18.6569 8.88021 18.6084 8.88021 18.6084C8.929 18.6084 8.88021 18.5598 8.88021 18.5598C8.929 18.5112 8.92882 18.5114 8.97739 18.4626C8.97757 18.4626 8.92882 18.4141 8.92882 18.4141H8.88021C8.83183 18.4141 8.78308 18.4626 8.7832 18.5112Z" fill="white"/>
<path fill-rule="evenodd" clip-rule="evenodd" d="M6.76953 17.7924C6.76953 17.841 6.81792 17.9381 6.86649 17.9381C6.86672 17.9381 6.86649 17.8895 6.91511 17.8895C6.91529 17.8895 6.91511 17.8411 6.91511 17.8411C6.91529 17.7924 6.96368 17.7924 6.96368 17.7438C6.96386 17.7438 6.96368 17.6954 6.91511 17.6954C6.91529 17.6952 6.91511 17.6954 6.86649 17.6954C6.8181 17.6952 6.76935 17.7438 6.76953 17.7924Z" fill="white"/>
<path fill-rule="evenodd" clip-rule="evenodd" d="M6.96094 17.7924C6.96094 17.841 6.96076 17.9381 7.05793 17.9381C7.05812 17.9381 7.05793 17.8895 7.05793 17.8895C7.10673 17.8895 7.05793 17.8411 7.1065 17.8411C7.10673 17.7924 7.1065 17.7924 7.15511 17.7438C7.15529 17.7438 7.15511 17.6954 7.1065 17.6954C7.10673 17.6952 7.05793 17.6954 7.05793 17.6954C7.00955 17.6952 6.96076 17.7438 6.96094 17.7924Z" fill="white"/>
<path fill-rule="evenodd" clip-rule="evenodd" d="M7.24631 14.8203C7.24631 14.8686 7.24609 14.917 7.24609 14.9655C7.24631 15.062 7.29446 15.1106 7.34278 15.1587L7.34297 15.062H7.48782C7.43966 15.0137 7.39116 15.0137 7.34278 14.9655C7.29464 14.917 7.29446 14.8686 7.24631 14.8203Z" fill="white"/>
<path fill-rule="evenodd" clip-rule="evenodd" d="M3.31857 19.4688H4.42204V20.0445H3.55848C3.46251 19.9485 3.36636 19.8046 3.31836 19.7086L3.31857 19.4688Z" fill="#D8201F"/>
<path d="M9.50195 20.0445V19.4688H10.6535V20.0445H9.50195Z" fill="#D8201F"/>
<path d="M8.25586 20.0445V19.4688H9.40739V20.0445H8.25586Z" fill="#D8201F"/>
<path d="M7.00781 20.0445V19.4688H8.15935V20.0445H7.00781Z" fill="#D8201F"/>
<path d="M5.76367 20.0445V19.4688H6.91521V20.0445H5.76367Z" fill="#D8201F"/>
<path d="M4.51758 20.0445V19.4688H5.6691V20.0445H4.51758Z" fill="#D8201F"/>
<path fill-rule="evenodd" clip-rule="evenodd" d="M3.12695 19.4688H3.17672V19.5682C3.17672 19.5185 3.12675 19.5185 3.12695 19.4688Z" fill="#D8201F"/>
<path d="M10.7461 20.0445V19.4688H11.8976V20.0445H10.7461Z" fill="#D8201F"/>
<path d="M11.9902 20.0445V19.4688H13.1418V20.0445H11.9902Z" fill="#D8201F"/>
<path d="M13.2363 20.0445V19.4688H14.3879V20.0445H13.2363Z" fill="#D8201F"/>
<path d="M14.4844 20.0445V19.4688H15.6359V20.0445H14.4844Z" fill="#D8201F"/>
<path d="M15.7324 20.0445V19.4688H16.8359V20.0445H15.7324Z" fill="#D8201F"/>
<path fill-rule="evenodd" clip-rule="evenodd" d="M16.9785 19.4688H18.0819V19.7086C18.0338 19.8046 17.9377 19.9485 17.8416 20.0445H16.9785V19.4688Z" fill="#D8201F"/>
<path fill-rule="evenodd" clip-rule="evenodd" d="M18.1743 19.4688H18.2735C18.2735 19.5185 18.2236 19.5185 18.1738 19.5682L18.1743 19.4688Z" fill="#D8201F"/>
<path fill-rule="evenodd" clip-rule="evenodd" d="M8.87695 20.1387H10.0285V20.2346C9.83659 20.3786 9.64447 20.5225 9.50052 20.7624H8.87695V20.1387Z" fill="#D8201F"/>
<path d="M7.63086 20.7624V20.1387H8.78239V20.7624H7.63086Z" fill="#D8201F"/>
<path d="M6.38477 20.7624V20.1387H7.53629V20.7624H6.38477Z" fill="#D8201F"/>
<path d="M5.14062 20.7624V20.1387H6.29216V20.7624H5.14062Z" fill="#D8201F"/>
<path fill-rule="evenodd" clip-rule="evenodd" d="M3.94359 20.1387H5.04704V20.7624H4.23144C4.13547 20.6664 4.03933 20.5707 3.94336 20.4268L3.94359 20.1387Z" fill="#D8201F"/>
<path fill-rule="evenodd" clip-rule="evenodd" d="M3.6543 20.1387H3.80091V20.3342C3.75206 20.2853 3.70298 20.2364 3.6543 20.1387Z" fill="#D8201F"/>
<path fill-rule="evenodd" clip-rule="evenodd" d="M11.3713 20.1387H12.5228V20.7624H11.8991C11.7551 20.5225 11.563 20.3786 11.3711 20.2346L11.3713 20.1387Z" fill="#D8201F"/>
<path d="M12.6191 20.7624V20.1387H13.7707V20.7624H12.6191Z" fill="#D8201F"/>
<path d="M13.8633 20.7624V20.1387H15.0148V20.7624H13.8633Z" fill="#D8201F"/>
<path d="M15.1074 20.7624V20.1387H16.259V20.7624H15.1074Z" fill="#D8201F"/>
<path fill-rule="evenodd" clip-rule="evenodd" d="M16.3535 20.1387H17.4569V20.4265C17.3608 20.5705 17.2647 20.6666 17.169 20.7624H16.3535V20.1387Z" fill="#D8201F"/>
<path fill-rule="evenodd" clip-rule="evenodd" d="M17.6001 20.1387H17.7465C17.6975 20.2364 17.6486 20.2855 17.5996 20.3342L17.6001 20.1387Z" fill="#D8201F"/>
<path fill-rule="evenodd" clip-rule="evenodd" d="M8.25586 20.8574H9.40739V21.0493C9.35942 21.1453 9.35925 21.2892 9.35925 21.3854L9.35942 21.4332H8.25586V20.8574Z" fill="#D8201F"/>
<path d="M7.00781 21.4332V20.8574H8.15935V21.4332H7.00781Z" fill="#D8201F"/>
<path d="M5.76367 21.4332V20.8574H6.91521V21.4332H5.76367Z" fill="#D8201F"/>
<path fill-rule="evenodd" clip-rule="evenodd" d="M4.51776 20.8574H5.66928V21.4332H5.04553C4.85363 21.3372 4.70947 21.1933 4.51758 21.0493L4.51776 20.8574Z" fill="#D8201F"/>
<path fill-rule="evenodd" clip-rule="evenodd" d="M4.32617 20.8574H4.42563V20.9569C4.42563 20.9071 4.37572 20.9071 4.32617 20.8574Z" fill="#D8201F"/>
<path fill-rule="evenodd" clip-rule="evenodd" d="M11.9885 20.8574H13.14V21.4332H12.0364V21.3852C12.0364 21.2892 12.0362 21.1453 11.9883 21.0493L11.9885 20.8574Z" fill="#D8201F"/>
<path d="M13.2363 21.4332V20.8574H14.3879V21.4332H13.2363Z" fill="#D8201F"/>
<path d="M14.4844 21.4332V20.8574H15.6359V21.4332H14.4844Z" fill="#D8201F"/>
<path fill-rule="evenodd" clip-rule="evenodd" d="M15.7324 20.8574H16.8358V21.0493C16.6921 21.1932 16.5479 21.3372 16.3557 21.4331H15.7324V20.8574Z" fill="#D8201F"/>
<path fill-rule="evenodd" clip-rule="evenodd" d="M16.979 20.8574H17.0781C17.0283 20.9071 16.9785 20.9071 16.9785 20.9571L16.979 20.8574Z" fill="#D8201F"/>
<path d="M8.87695 22.152V21.5273H9.35747V22.152H8.87695Z" fill="#D8201F"/>
<path d="M7.63086 22.1511V21.5273H8.78239V22.1511H7.63086Z" fill="#D8201F"/>
<path d="M6.38477 22.1511V21.5273H7.53629V22.1511H6.38477Z" fill="#D8201F"/>
<path fill-rule="evenodd" clip-rule="evenodd" d="M5.13885 21.5273H6.29038V22.1511H6.05047C5.7626 21.9592 5.42654 21.7674 5.13867 21.5273H5.13885Z" fill="#D8201F"/>
<path d="M12.041 22.152V21.5273H12.5215V22.152H12.041Z" fill="#D8201F"/>
<path d="M12.6191 22.1511V21.5273H13.7707V22.1511H12.6191Z" fill="#D8201F"/>
<path d="M13.8633 22.1511V21.5273H15.0148V22.1511H13.8633Z" fill="#D8201F"/>
<path fill-rule="evenodd" clip-rule="evenodd" d="M15.1074 21.5273H16.2589C15.971 21.7673 15.6351 21.9592 15.3472 22.1511H15.1074V21.5273Z" fill="#D8201F"/>
<path d="M8.25586 22.8238V22.248H9.35936V22.8238H8.25586Z" fill="#D8201F"/>
<path fill-rule="evenodd" clip-rule="evenodd" d="M7.00799 22.248H8.15953V22.8238H7.53577C7.39184 22.7758 7.19971 22.6799 7.00781 22.6319L7.00799 22.248Z" fill="#D8201F"/>
<path fill-rule="evenodd" clip-rule="evenodd" d="M6.24219 22.248H6.91349V22.5837C6.67373 22.4878 6.43379 22.344 6.24219 22.248Z" fill="#D8201F"/>
<path d="M12.041 22.8238V22.248H13.1445V22.8238H12.041Z" fill="#D8201F"/>
<path fill-rule="evenodd" clip-rule="evenodd" d="M13.2363 22.248H14.3879V22.6319C14.1959 22.6799 14.0038 22.7758 13.8599 22.8238H13.2363V22.248Z" fill="#D8201F"/>
<path fill-rule="evenodd" clip-rule="evenodd" d="M14.4846 22.248H15.156C14.9163 22.344 14.7242 22.4878 14.4844 22.5839L14.4846 22.248Z" fill="#D8201F"/>
<path fill-rule="evenodd" clip-rule="evenodd" d="M8.87713 22.918H9.3581V23.3027C9.21383 23.2547 9.02124 23.2548 8.87695 23.2065L8.87713 22.918Z" fill="#D8201F"/>
<path fill-rule="evenodd" clip-rule="evenodd" d="M7.82227 22.918H8.78142V23.2057C8.44574 23.1098 8.15783 23.0141 7.82227 22.918Z" fill="#D8201F"/>
<path fill-rule="evenodd" clip-rule="evenodd" d="M12.0412 22.918H12.5222V23.2065C12.3779 23.2547 12.1853 23.2548 12.041 23.3027L12.0412 22.918Z" fill="#D8201F"/>
<path fill-rule="evenodd" clip-rule="evenodd" d="M12.6194 22.918H13.5786C13.2429 23.0139 12.9549 23.1098 12.6191 23.2057L12.6194 22.918Z" fill="#D8201F"/>
<path d="M8.87695 19.3718V18.748H10.0285V19.3718H8.87695Z" fill="#D8201F"/>
<path d="M6.38477 19.3718V18.748H7.53629V19.3718H6.38477Z" fill="#D8201F"/>
<path d="M3.94336 19.3718V18.748H5.04687V19.3718H3.94336Z" fill="#D8201F"/>
<path d="M11.3711 19.3718V18.748H12.5226V19.3718H11.3711Z" fill="#D8201F"/>
<path d="M13.8633 19.3718V18.748H15.0148V19.3718H13.8633Z" fill="#D8201F"/>
<path d="M16.3535 19.3718V18.748H17.457V19.3718H16.3535Z" fill="#D8201F"/>
<path fill-rule="evenodd" clip-rule="evenodd" d="M11.2268 20.1387H11.2748V20.1866C11.2268 20.1866 11.2266 20.1389 11.2268 20.1387ZM10.1232 20.1387H10.1712L10.123 20.1866L10.1232 20.1387Z" fill="#D8201F"/>
<path fill-rule="evenodd" clip-rule="evenodd" d="M11.4654 23.3539C11.1775 23.3539 10.9374 23.4021 10.6974 23.4021C10.4577 23.4019 10.2176 23.3539 9.92969 23.3539L9.92992 21.4346C9.92992 21.0507 10.2656 20.7148 10.6974 20.7148C11.1295 20.7148 11.4652 21.0507 11.4652 21.4346L11.4654 23.3539Z" fill="white"/>
<path fill-rule="evenodd" clip-rule="evenodd" d="M11.9476 23.3029C11.8033 23.3029 11.6587 23.351 11.5625 23.351L11.5627 22.918H11.9476V23.3029Z" fill="#D8201F"/>
<path fill-rule="evenodd" clip-rule="evenodd" d="M9.83824 23.351C9.742 23.351 9.59747 23.3029 9.45312 23.3029L9.45331 22.918H9.83824V23.351Z" fill="#D8201F"/>
<path d="M9.45312 22.152V21.5273H9.83753V22.152H9.45312Z" fill="#D8201F"/>
<path d="M9.45312 22.8254V22.248H9.83802V22.8254H9.45312Z" fill="#D8201F"/>
<path fill-rule="evenodd" clip-rule="evenodd" d="M9.64062 20.7635C9.73673 20.5713 9.92872 20.4273 10.1209 20.2832L10.3133 20.7154C10.1691 20.7635 10.0729 20.8596 9.97679 21.0037L9.64062 20.7635Z" fill="#D8201F"/>
<path fill-rule="evenodd" clip-rule="evenodd" d="M9.93444 21.0498L9.59763 20.8574C9.50141 21.0018 9.45312 21.1942 9.45312 21.3868L9.45331 21.4347H9.83821C9.83821 21.2904 9.88612 21.1942 9.93444 21.0498Z" fill="#D8201F"/>
<path d="M11.5625 22.152V21.5273H11.9469V22.152H11.5625Z" fill="#D8201F"/>
<path d="M11.5625 22.8254V22.248H11.9474V22.8254H11.5625Z" fill="#D8201F"/>
<path fill-rule="evenodd" clip-rule="evenodd" d="M11.7566 20.7635C11.6605 20.5713 11.4681 20.4273 11.276 20.2832L11.084 20.7154C11.2281 20.7635 11.324 20.8596 11.4201 21.0037L11.7566 20.7635Z" fill="#D8201F"/>
<path fill-rule="evenodd" clip-rule="evenodd" d="M11.4668 21.0498L11.8036 20.8574C11.8998 21.0018 11.9477 21.1942 11.9477 21.3868L11.9479 21.4347H11.563C11.563 21.2904 11.5147 21.1942 11.4668 21.0498Z" fill="#D8201F"/>
<path fill-rule="evenodd" clip-rule="evenodd" d="M10.6985 20.1387C10.5067 20.1387 10.3626 20.1866 10.2188 20.2346L10.3628 20.6662C10.4587 20.6183 10.6024 20.6183 10.6983 20.6183C10.7944 20.6183 10.9381 20.6183 11.034 20.6665L11.1781 20.2346C11.0342 20.1866 10.8902 20.1389 10.6985 20.1387Z" fill="#D8201F"/>
<path fill-rule="evenodd" clip-rule="evenodd" d="M1.40039 3.6578V0.826172H2.50278C2.50278 1.20961 2.69434 1.4974 2.98191 1.73687C3.3176 1.97648 3.70082 2.02461 4.08424 1.88083C4.13239 2.26408 4.27598 2.59974 4.6115 2.83939C5.04303 3.12678 5.52216 3.12696 5.9535 2.83939C5.85785 3.31851 6.04937 3.79799 6.4328 4.03743C6.81641 4.32504 7.15176 4.37312 7.53519 4.22934C7.58329 4.6126 7.72688 4.94812 8.06241 5.18794C8.5419 5.47533 8.97306 5.47533 9.45236 5.18794C9.35667 5.66702 9.50026 6.14633 9.8837 6.38616C10.2673 6.62563 10.6506 6.67373 11.034 6.57768C11.0821 6.96111 11.1778 7.29663 11.5612 7.48855C11.9928 7.82384 12.4719 7.82384 12.9033 7.53627C12.8076 8.01558 12.9991 8.49489 13.3826 8.7345C13.7182 8.97414 14.1015 9.02209 14.4849 8.92624C14.533 9.30966 14.6766 9.59722 15.0122 9.83688C15.4438 10.1244 15.9229 10.1244 16.354 9.88484C16.2585 10.3162 16.45 10.7955 16.8336 11.083C17.1692 11.3227 17.5523 11.3706 17.9358 11.2268C17.9839 11.6103 18.1274 11.9458 18.463 12.1854C18.8945 12.473 19.3737 12.473 19.8532 12.1854C19.7572 12.5209 19.8052 12.8564 19.9968 13.0961V13.144L15.4371 13.1206L1.40039 3.6578Z" fill="#41B444"/>
<path fill-rule="evenodd" clip-rule="evenodd" d="M19.9981 13.0002C19.8066 12.7126 19.8066 12.3292 19.9501 11.9939C19.519 12.3771 18.9434 12.4251 18.5123 12.1375C18.1292 11.8978 17.9852 11.5625 17.9852 11.1791C17.554 11.3227 17.218 11.275 16.8349 11.0353C16.4513 10.7475 16.2598 10.1724 16.4513 9.64537C16.0682 10.0286 15.4446 10.0767 15.0615 9.78914C14.678 9.54932 14.5342 9.2138 14.4862 8.83058C14.103 8.97414 13.7673 8.92624 13.3839 8.68658C12.9527 8.39901 12.8087 7.82384 13.0004 7.34476C12.6172 7.72802 11.9939 7.77611 11.5625 7.48855C11.2272 7.24871 11.0832 6.91319 11.0353 6.48184C10.6521 6.62563 10.2684 6.62563 9.93292 6.33806C9.50177 6.05045 9.30988 5.52325 9.54954 4.99602C9.11833 5.37946 8.54301 5.4276 8.11163 5.13981C7.77633 4.90016 7.58441 4.56468 7.58441 4.13329C7.20116 4.32504 6.81754 4.27707 6.48203 4.03743C6.05086 3.74986 5.85893 3.17473 6.05068 2.64751C5.66742 3.03095 5.09208 3.07886 4.66072 2.7913C4.27747 2.55164 4.13352 2.21612 4.08555 1.83269C3.70234 1.97648 3.36665 1.92856 2.98321 1.68891C2.69583 1.49722 2.55182 1.16169 2.50391 0.826401L2.64787 0.826172C2.69583 1.16169 2.83943 1.40135 3.07908 1.54513C3.41474 1.78478 3.75008 1.83269 4.13352 1.64117C4.13369 1.641 4.18142 1.68891 4.18142 1.68891C4.22957 1.68891 4.22937 1.73687 4.27729 1.73687C4.22957 2.16822 4.42108 2.45596 4.70864 2.69543C5.14021 2.98299 5.81103 2.93507 6.24237 2.16839C6.29051 2.16822 6.29034 2.21612 6.33824 2.21612C6.38639 2.26408 6.43411 2.26408 6.48203 2.31217C5.90708 2.98299 6.09859 3.60607 6.52998 3.89363C6.86568 4.13329 7.20098 4.18125 7.58441 3.98951C7.63255 3.98951 7.63233 4.03743 7.68028 4.03743C7.68046 4.03743 7.72819 4.08556 7.72819 4.08556C7.68046 4.46881 7.87198 4.80429 8.2075 4.99602C8.63903 5.2836 9.26193 5.28377 9.69328 4.46899C9.74141 4.51673 9.78915 4.56469 9.78915 4.56469C9.83728 4.6126 9.88501 4.61278 9.93292 4.61278C9.35797 5.33155 9.59745 5.95463 10.0288 6.24238C10.3165 6.43389 10.6998 6.52994 11.0353 6.33806C11.0834 6.33806 11.0832 6.33807 11.1312 6.38616C11.1314 6.38598 11.1791 6.38616 11.1791 6.43389C11.1793 6.81732 11.3229 7.15284 11.6584 7.34476C12.09 7.63215 12.7608 7.58419 13.1921 6.81755C13.1923 6.86528 13.24 6.86528 13.288 6.91319C13.2882 6.91319 13.3359 6.96111 13.3839 6.96111C12.8568 7.68006 13.0484 8.30332 13.4797 8.59094C13.7675 8.78245 14.1507 8.83058 14.5342 8.63866C14.5344 8.68658 14.582 8.68658 14.582 8.68658C14.6304 8.73449 14.6299 8.73449 14.6779 8.73449C14.6304 9.16588 14.822 9.45344 15.1091 9.69309C15.5406 9.98065 16.2118 9.93293 16.6429 9.16588C16.6913 9.2138 16.6909 9.2138 16.7389 9.26193C16.7869 9.26175 16.8349 9.30966 16.8349 9.30966C16.3078 9.98065 16.4993 10.6039 16.9305 10.8915C17.2665 11.131 17.6016 11.1791 17.9852 10.9872L18.0332 11.0353C18.0812 11.083 18.0807 11.083 18.1287 11.083C18.0812 11.5144 18.2727 11.802 18.6083 12.0417C18.9919 12.2813 19.5665 12.2813 19.9981 11.7063V13.0002Z" fill="#41B444"/>
<path fill-rule="evenodd" clip-rule="evenodd" d="M10.5557 5.37905C10.6999 5.18691 10.6516 4.89885 10.4594 4.80253C10.2674 4.6584 9.97902 4.70647 9.8349 4.89885C9.69096 5.09081 9.73881 5.37905 9.97902 5.52318C10.1714 5.6673 10.4594 5.61928 10.5557 5.37905Z" fill="#41B444"/>
<path fill-rule="evenodd" clip-rule="evenodd" d="M11.7558 6.19406C11.8999 6.00189 11.8517 5.7138 11.6595 5.56966C11.4675 5.47338 11.179 5.52141 11.0349 5.7138C10.891 5.90579 10.9388 6.19406 11.131 6.33823C11.3714 6.48236 11.6115 6.43429 11.7558 6.19406Z" fill="#41B444"/>
<path fill-rule="evenodd" clip-rule="evenodd" d="M12.2343 6.52978C12.3785 6.28954 12.6185 6.24169 12.8587 6.38583C13.0511 6.52978 13.0989 6.81828 12.9548 7.01026C12.8109 7.20242 12.5704 7.25049 12.3302 7.15439C12.1382 7.01026 12.09 6.72199 12.2343 6.52978Z" fill="#41B444"/>
<path fill-rule="evenodd" clip-rule="evenodd" d="M14.0563 7.72873C14.2003 7.53667 14.1041 7.24863 13.9121 7.10462C13.7203 7.00859 13.432 7.05676 13.288 7.24863C13.1442 7.44066 13.24 7.72873 13.432 7.87294C13.6243 8.01677 13.9121 7.92074 14.0563 7.72873Z" fill="#41B444"/>
<path fill-rule="evenodd" clip-rule="evenodd" d="M15.2545 8.54359C15.3503 8.35138 15.3022 8.06311 15.1097 7.91897C14.9181 7.77484 14.6294 7.82286 14.4853 8.06311C14.3413 8.25533 14.3892 8.54359 14.6294 8.68772C14.8219 8.78383 15.1097 8.73576 15.2545 8.54359Z" fill="#41B444"/>
<path fill-rule="evenodd" clip-rule="evenodd" d="M15.6867 8.83018C15.831 8.63802 16.1188 8.59019 16.3108 8.73409C16.5033 8.87825 16.5514 9.16649 16.4071 9.35864C16.3113 9.55083 16.0226 9.59885 15.8306 9.45473C15.5905 9.31061 15.5423 9.07039 15.6867 8.83018Z" fill="#41B444"/>
<path fill-rule="evenodd" clip-rule="evenodd" d="M17.5078 10.0768C17.6517 9.88463 17.6036 9.59631 17.4115 9.45218C17.1714 9.30804 16.9308 9.35607 16.7869 9.59631C16.643 9.78852 16.6906 10.077 16.8831 10.2211C17.0751 10.317 17.3634 10.269 17.5078 10.0768Z" fill="#41B444"/>
<path fill-rule="evenodd" clip-rule="evenodd" d="M18.705 10.8919C18.8489 10.6998 18.8008 10.4115 18.5606 10.2674C18.3686 10.1232 18.0799 10.1713 17.9842 10.3637C17.8403 10.6037 17.8879 10.8439 18.0799 10.988C18.2724 11.1321 18.5606 11.0841 18.705 10.8919Z" fill="#41B444"/>
<path fill-rule="evenodd" clip-rule="evenodd" d="M19.1321 11.1779C19.2765 10.9858 19.5643 10.9377 19.7567 11.0818C19.9492 11.226 20.045 11.4662 19.9006 11.7066C19.7567 11.8986 19.4685 11.9466 19.276 11.8025C19.084 11.6584 19.0359 11.3701 19.1321 11.1779Z" fill="#41B444"/>
<path fill-rule="evenodd" clip-rule="evenodd" d="M7.1073 3.07942C7.25141 2.8392 7.20317 2.59916 7.01102 2.45504C6.77097 2.31073 6.53058 2.35876 6.38645 2.55095C6.24252 2.79117 6.29037 3.03139 6.48251 3.17551C6.67489 3.31962 6.96295 3.27179 7.1073 3.07942Z" fill="#41B444"/>
<path fill-rule="evenodd" clip-rule="evenodd" d="M8.30651 3.84582C8.45063 3.65362 8.40238 3.36538 8.16222 3.26951C7.9702 3.12517 7.68178 3.17323 7.58568 3.36538C7.44173 3.55757 7.48959 3.84582 7.68178 3.98993C7.8741 4.13406 8.16222 4.08621 8.30651 3.84582Z" fill="#41B444"/>
<path fill-rule="evenodd" clip-rule="evenodd" d="M8.73365 4.1802C8.87766 3.98814 9.16552 3.89211 9.35758 4.03614C9.5978 4.1802 9.64562 4.46842 9.50159 4.66025C9.35776 4.85231 9.06954 4.94834 8.87748 4.80428C8.68565 4.66025 8.63744 4.37239 8.73365 4.1802Z" fill="#41B444"/>
<path fill-rule="evenodd" clip-rule="evenodd" d="M4.85713 1.54569C5.00114 1.30564 4.90494 1.06578 4.71289 0.921574C4.52106 0.777545 4.23283 0.82577 4.08876 1.0176C3.94498 1.25765 4.04078 1.49788 4.23283 1.64189C4.42503 1.78574 4.71289 1.73774 4.85713 1.54569Z" fill="#41B444"/>
<path fill-rule="evenodd" clip-rule="evenodd" d="M5.28624 1.83223C5.43038 1.64007 5.71847 1.592 5.91068 1.73617C6.10308 1.83223 6.15092 2.12055 6.05481 2.3129C5.91086 2.55295 5.62242 2.60117 5.4302 2.45704C5.19015 2.31272 5.14193 2.02462 5.28624 1.83223Z" fill="#41B444"/>
<path fill-rule="evenodd" clip-rule="evenodd" d="M6.86797 1.44825C7.06014 1.59239 7.10798 1.88089 7.01193 2.07288C6.86797 2.26508 6.57948 2.31329 6.3873 2.21701C6.14725 2.07288 6.099 1.78478 6.24312 1.59239C6.3875 1.35219 6.67559 1.30412 6.86797 1.44825Z" fill="#41B444"/>
<path fill-rule="evenodd" clip-rule="evenodd" d="M10.3147 3.79662C10.5549 3.94074 10.6028 4.22917 10.4587 4.42113C10.3147 4.61333 10.0263 4.66135 9.83415 4.51723C9.64213 4.3731 9.59393 4.13289 9.73805 3.89266C9.83433 3.70052 10.1224 3.65268 10.3147 3.79662Z" fill="#41B444"/>
<path fill-rule="evenodd" clip-rule="evenodd" d="M13.8139 6.14434C13.5737 6.00022 13.3333 6.04824 13.1892 6.24061C13.0453 6.43258 13.0931 6.72087 13.2853 6.86499C13.5257 7.00912 13.7657 6.96105 13.9098 6.7689C14.0541 6.52868 14.0059 6.28846 13.8139 6.14434Z" fill="#41B444"/>
<path fill-rule="evenodd" clip-rule="evenodd" d="M17.2626 8.44648C17.0702 8.35037 16.7819 8.39844 16.6375 8.59084C16.4936 8.78282 16.5417 9.07109 16.7819 9.21523C16.9744 9.35936 17.2622 9.31133 17.4065 9.07109C17.5028 8.87893 17.4547 8.59084 17.2626 8.44648Z" fill="#41B444"/>
<path fill-rule="evenodd" clip-rule="evenodd" d="M3.5631 0.826172C3.4186 0.922492 3.17764 0.970807 3.0332 0.826402L3.03338 0.826172H3.5631Z" fill="#41B444"/>
<path fill-rule="evenodd" clip-rule="evenodd" d="M1.40039 4.61186V3.65234L2.79165 4.61186H1.40039Z" fill="#F9D100"/>
<path fill-rule="evenodd" clip-rule="evenodd" d="M1.40039 7.10382V5.85742H4.66017L6.48183 7.10382H1.40039Z" fill="#F9D100"/>
<path fill-rule="evenodd" clip-rule="evenodd" d="M1.40039 9.59592V8.34961H8.30309L10.1725 9.59592H1.40039Z" fill="#F9D100"/>
<path fill-rule="evenodd" clip-rule="evenodd" d="M1.40039 12.0411V10.7949H11.9924L13.8616 12.0411H1.40039Z" fill="#A77F29"/>
<path d="M1.40039 12.0411V10.7949H11.9924L13.8616 12.0411H1.40039Z" fill="#F9D100"/>
<path fill-rule="evenodd" clip-rule="evenodd" d="M4.66187 0.826172H14.2958V2.12032H7.01046H7.05819C7.20215 1.88066 7.1061 1.54514 6.91441 1.40136C6.67494 1.25757 6.38718 1.30549 6.19545 1.54514C6.09981 1.73688 6.09958 1.92857 6.19545 2.12032H6.19563H6.14771C6.14771 1.97649 6.09958 1.78497 5.95579 1.68892C5.71637 1.49723 5.38066 1.59305 5.23688 1.78497C5.1891 1.92857 5.14101 2.02462 5.14101 2.12032H4.3743C4.32639 2.02444 4.32617 1.88084 4.32617 1.73688C4.5181 1.8327 4.75757 1.73688 4.90134 1.54514C5.04531 1.35344 4.99722 1.01792 4.75757 0.874129C4.70983 0.874129 4.70961 0.826401 4.66187 0.826172Z" fill="#F9D100"/>
<path fill-rule="evenodd" clip-rule="evenodd" d="M6.19727 3.36523H7.49261C7.39665 3.55716 7.44442 3.79721 7.54038 3.94113C7.20472 4.13282 6.86871 4.08504 6.58088 3.84499C6.38919 3.74903 6.29305 3.55716 6.19727 3.36523Z" fill="#F9D100"/>
<path fill-rule="evenodd" clip-rule="evenodd" d="M8.35276 3.36523H14.2972V4.61166H10.3182C10.3662 4.56374 10.4619 4.51577 10.5098 4.41988C10.6538 4.22815 10.6057 3.89255 10.366 3.74875C10.1265 3.60493 9.8387 3.65308 9.69485 3.89255C9.55126 4.03637 9.55108 4.27606 9.69485 4.46802C9.6471 4.51577 9.64692 4.56374 9.599 4.61184C9.69506 4.37195 9.599 4.13226 9.40723 3.98844C9.16775 3.84464 8.8799 3.94071 8.7361 4.13226C8.64038 4.27606 8.59228 4.46802 8.68817 4.61184L7.87336 4.61166C7.77752 4.46784 7.77734 4.27606 7.77734 4.08451C7.96925 4.18022 8.20877 4.08451 8.35258 3.89255C8.44865 3.74875 8.44848 3.50904 8.35276 3.36523Z" fill="#F9D100"/>
<path fill-rule="evenodd" clip-rule="evenodd" d="M9.73828 5.85742H10.8896C10.8896 6.00133 10.9373 6.14523 11.0333 6.28915C10.6497 6.43304 10.3137 6.38528 10.0259 6.19319C9.93019 6.09729 9.78606 6.00151 9.73828 5.85742Z" fill="#A77F29"/>
<path d="M9.73828 5.85742H10.8896C10.8896 6.00133 10.9373 6.14523 11.0333 6.28915C10.6497 6.43304 10.3137 6.38528 10.0259 6.19319C9.93019 6.09729 9.78606 6.00151 9.73828 5.85742Z" fill="#F9D100"/>
<path fill-rule="evenodd" clip-rule="evenodd" d="M11.8963 5.85742H14.2945V7.10453H13.9588V7.05653C13.7669 6.96059 13.5269 6.96059 13.383 7.10453H13.3352C13.3832 7.05653 13.431 7.00859 13.431 6.96059C13.623 7.00859 13.8626 6.96059 13.9586 6.76876C14.1027 6.52892 14.0545 6.24132 13.8147 6.09726C13.623 5.95336 13.2871 6.0015 13.1432 6.24132C12.9995 6.38504 13.0473 6.62486 13.1432 6.76876C13.0954 6.8167 13.0952 6.86469 13.0473 6.91264C13.1434 6.72081 13.0473 6.48097 12.8554 6.33708C12.6158 6.19315 12.3278 6.24132 12.1839 6.48097C12.0402 6.67281 12.0879 6.91264 12.2318 7.10453H11.4166C11.2727 6.91264 11.2246 6.72081 11.2246 6.43297C11.4646 6.48097 11.7042 6.43297 11.8002 6.24132C11.8963 6.09726 11.8961 6.0015 11.8963 5.85742Z" fill="#F9D100"/>
<path fill-rule="evenodd" clip-rule="evenodd" d="M13.2891 8.34961H14.3928C14.3928 8.4456 14.4406 8.54158 14.4886 8.58978C14.1529 8.78153 13.8167 8.73351 13.4808 8.54158C13.433 8.49361 13.3369 8.39762 13.2891 8.34961Z" fill="#A77F29"/>
<path d="M13.2891 8.34961H14.3928C14.3928 8.4456 14.4406 8.54158 14.4886 8.58978C14.1529 8.78153 13.8167 8.73351 13.4808 8.54158C13.433 8.49361 13.3369 8.39762 13.2891 8.34961Z" fill="#F9D100"/>
<path fill-rule="evenodd" clip-rule="evenodd" d="M16.2593 9.59709H16.209C16.209 9.54687 16.2593 9.54688 16.3091 9.54688C16.2593 9.54688 16.2593 9.54687 16.2593 9.59709Z" fill="#F9D100"/>
<path fill-rule="evenodd" clip-rule="evenodd" d="M15.3473 8.35038H19.9974V9.59683H17.5528C17.5528 9.50099 17.4568 9.45302 17.4088 9.40527C17.2171 9.26129 16.9771 9.3092 16.7855 9.45302C16.8335 9.40509 16.8815 9.35713 16.8815 9.3092C17.1211 9.35713 17.3127 9.3092 17.4088 9.11764C17.6008 8.87776 17.5043 8.59031 17.3127 8.44645C17.0731 8.25454 16.7375 8.35038 16.5934 8.54216C16.4978 8.7339 16.4978 8.97383 16.5934 9.11764C16.5939 9.16539 16.5459 9.21332 16.5459 9.26147C16.5939 9.0695 16.5459 8.83001 16.3538 8.68597C16.1146 8.54216 15.7785 8.59031 15.635 8.83001C15.4914 9.0695 15.5389 9.35713 15.7785 9.50099C15.827 9.54892 15.8746 9.54892 15.9226 9.59683H15.0597C14.8201 9.35713 14.676 9.11764 14.724 8.78187C14.9161 8.82979 15.1553 8.78187 15.2993 8.59031C15.3473 8.49424 15.3473 8.39834 15.3473 8.35038Z" fill="#F9D100"/>
<path fill-rule="evenodd" clip-rule="evenodd" d="M16.8828 10.7949H17.89C17.89 10.8429 17.938 10.8911 17.938 10.9388C17.6026 11.1307 17.2663 11.0827 16.9785 10.8911C16.9309 10.8429 16.9304 10.8429 16.8828 10.7949Z" fill="#A77F29"/>
<path d="M16.8828 10.7949H17.89C17.89 10.8429 17.938 10.8911 17.938 10.9388C17.6026 11.1307 17.2663 11.0827 16.9785 10.8911C16.9309 10.8429 16.9304 10.8429 16.8828 10.7949Z" fill="#F9D100"/>
<path fill-rule="evenodd" clip-rule="evenodd" d="M19.9992 10.7949V11.2748C19.9516 11.1789 19.9031 11.0829 19.8074 11.0351C19.5675 10.8909 19.2791 10.9389 19.0873 11.1791C18.9435 11.3709 19.0392 11.707 19.231 11.851C19.4233 11.9468 19.6151 11.9468 19.7593 11.851C19.6632 11.9468 19.5671 11.995 19.4714 12.0428H18.7517C18.7036 12.0428 18.6556 11.995 18.6075 11.995C18.3195 11.8028 18.1273 11.5148 18.1753 11.0829C18.3676 11.1789 18.6075 11.0829 18.7513 10.8911C18.7517 10.8909 18.7993 10.8429 18.7993 10.7949H19.9992Z" fill="#F9D100"/>
<path fill-rule="evenodd" clip-rule="evenodd" d="M2.69727 0.826172H2.93713C2.93713 0.874172 2.98491 0.874172 2.98491 0.874172C3.177 1.01809 3.46464 1.01809 3.60854 0.826401L4.28032 0.826172C4.18436 0.874172 4.08822 0.922131 4.04028 1.01809C3.94455 1.20995 3.94432 1.44981 4.08822 1.59373C3.75264 1.78564 3.41663 1.73768 3.12881 1.54577C2.88913 1.40186 2.74503 1.11404 2.69727 0.826172Z" fill="#F9D100"/>
<path fill-rule="evenodd" clip-rule="evenodd" d="M18.3676 19.3722H17.6009V18.6532H16.2587V19.3722H15.1084V18.7491H15.1559C15.2044 18.6532 15.2519 18.6535 15.2519 18.5574C15.3 18.3657 15.3 18.2221 15.2519 18.0302C15.2524 17.6947 15.2519 17.5029 15.2039 17.1676C15.0604 17.1195 14.9644 17.1195 14.8684 17.0238C14.6768 16.9278 14.6288 16.8319 14.4851 16.7363L14.3894 16.2088C14.3415 15.9692 14.3413 15.8734 14.2454 15.6339C14.2457 15.6337 14.2454 15.5858 14.1975 15.5858C14.0539 15.5378 14.0058 15.5378 13.862 15.4899C13.6705 15.3941 13.5744 15.2982 13.4306 15.1544C13.287 14.9627 13.0951 14.8668 12.9034 14.771C12.7598 14.6751 12.6638 14.6272 12.472 14.5313H12.1845C11.8012 14.4834 11.5614 14.3875 11.2738 14.2919C11.2261 14.2917 11.178 14.2919 11.178 14.3396C11.1302 14.3875 11.1301 14.4357 11.0821 14.4834C11.0344 14.6272 10.9863 14.6753 10.8904 14.771C10.9385 14.6751 10.9863 14.6272 11.0342 14.5313C11.0823 14.4834 11.0821 14.4357 11.0821 14.3396C10.9385 14.2438 10.8904 14.1481 10.7466 14.052C10.603 13.9562 10.507 13.8605 10.3632 13.7646C10.3154 13.7165 10.3152 13.7646 10.2673 13.7646C10.1237 13.7645 10.0277 13.7165 9.88388 13.7646C9.69236 13.7645 9.54841 13.7646 9.35667 13.7646C9.30893 13.7645 9.30875 13.8124 9.26079 13.8124C9.06928 13.8603 8.97323 13.9082 8.78154 14.0043C8.49411 14.1479 8.25428 14.1958 8.25428 14.1958C8.30241 14.3396 8.39806 14.5795 8.35015 14.771C8.30241 14.8189 8.30223 14.8668 8.25428 14.9148C8.30241 14.771 8.35015 14.7231 8.30223 14.5795C8.30241 14.4355 8.20636 14.2919 8.11049 14.1958C8.01481 14.1958 7.87085 14.1959 7.72706 14.2438C7.67933 14.2917 7.6312 14.3396 7.6312 14.4357C7.39177 14.4355 7.19985 14.4834 7.05606 14.4834C6.96038 14.5313 6.9602 14.6753 6.91228 14.8191C6.81659 14.9148 6.7685 14.9148 6.67264 15.0106C6.57694 15.1065 6.48089 15.1544 6.43298 15.2023C6.43316 15.2023 6.2892 15.2505 6.24123 15.2505C6.19351 15.2503 6.19333 15.2982 6.19333 15.3462C6.19351 15.3462 6.19333 15.4899 6.19333 15.4899C6.19351 15.5378 6.2892 15.5858 6.33711 15.6816C6.38525 15.7296 6.48089 15.8254 6.48089 15.8254C6.52903 15.7775 6.57677 15.7777 6.62467 15.7777C6.72077 15.7775 6.7685 15.7777 6.86433 15.7777C6.86455 15.8254 6.81641 15.8254 6.7685 15.8254H6.67264C6.6249 15.8254 6.67264 15.9692 6.67264 15.9692C6.76867 16.0172 6.81641 16.0172 6.91228 16.0172H7.19985C7.2959 16.113 7.39159 16.1609 7.53537 16.1609C7.63141 16.2088 7.72706 16.2568 7.87085 16.3047H8.11049C8.15864 16.3047 8.11049 16.4006 8.11049 16.4006C7.9669 16.4965 7.87085 16.4965 7.72706 16.5925C7.58346 16.6881 7.39159 16.7363 7.34362 16.8319C7.24798 16.9757 7.15193 17.0716 7.05606 17.2154C6.91246 17.4071 6.81641 17.5029 6.67264 17.6948C6.57694 17.7426 6.67264 18.0302 6.7685 18.0302H7.7752C7.82311 18.0302 7.87085 17.9824 7.9188 17.8864C7.9669 17.8384 7.96672 17.8386 7.96672 17.7426C8.15864 17.6467 8.25428 17.5988 8.39806 17.5029C8.58998 17.3591 8.68567 17.2635 8.82944 17.1195C8.82964 17.0237 8.78154 16.9757 8.78154 16.8801C8.73376 16.8319 8.73359 16.784 8.73359 16.6881C8.73376 16.784 8.78154 16.8319 8.78154 16.9278C8.82964 17.0237 8.82944 17.0238 8.92532 17.1195C8.92549 17.3591 8.92532 17.455 8.92532 17.6948C8.92549 17.8864 8.92532 17.9824 8.92532 18.2221C8.73376 18.2698 8.5898 18.3658 8.54188 18.3658C8.49411 18.4136 8.49393 18.5097 8.44602 18.5574C8.4462 18.6053 8.49393 18.7012 8.54188 18.7491H8.78167V19.3722H7.63141V18.6532H6.28938V19.3722H5.13908V18.6532H3.79703V19.3722H3.03018C2.0237 17.8864 1.40039 16.0652 1.40039 14.1L1.40057 13.2852H19.997V14.1C19.997 16.0651 19.3738 17.8864 18.3676 19.3722Z" fill="white"/>
<path fill-rule="evenodd" clip-rule="evenodd" d="M13.7704 18.6548V19.3743H12.6191V18.7508H12.7149C12.811 18.6548 12.9068 18.5111 12.9547 18.415C13.0988 18.2231 13.1946 18.1272 13.2905 17.9353C13.2907 17.7914 13.2425 17.6956 13.2425 17.5518C13.2427 17.3597 13.1946 17.2639 13.1466 17.0719C13.1947 17.0719 13.1946 17.0241 13.1946 17.0241C13.2427 16.9759 13.2425 16.928 13.2905 16.832C13.2427 16.928 13.2425 16.928 13.2425 16.9759C13.1947 17.0239 13.1946 17.0719 13.1946 17.1199L13.1947 17.1678V17.2158C13.2907 17.3597 13.3385 17.4078 13.4824 17.5036C13.6744 17.6475 13.8181 17.7434 14.058 17.9353C14.1061 17.9353 14.1539 17.9834 14.1539 18.0313C14.2021 18.0792 14.2019 18.2233 14.2019 18.3191H13.9141C13.8183 18.367 13.7702 18.415 13.7702 18.5111C13.7224 18.5589 13.7222 18.6069 13.7704 18.6548Z" fill="white"/>
<path fill-rule="evenodd" clip-rule="evenodd" d="M11.3243 18.6559H11.2763V19.3757H10.1247V18.6559H9.88477C9.93279 18.512 9.98057 18.3201 10.0765 18.1281C10.1247 17.8882 10.1725 17.7922 10.2205 17.5525C10.2207 17.5043 10.2205 17.5043 10.2205 17.4563C10.1727 17.2644 10.1245 17.2164 10.0765 17.0725C10.0287 16.9285 9.98057 16.8325 9.98057 16.6406C10.0287 16.7846 10.0285 16.8325 10.0285 16.8807C10.0767 16.9285 10.0765 16.9765 10.1245 16.9765C10.1247 16.9765 10.1725 16.9765 10.1725 17.0247C10.2686 17.0245 10.4124 17.1205 10.5564 17.2164C10.7485 17.2644 10.7963 17.2646 10.9882 17.3124C11.1803 17.3124 11.2761 17.3604 11.468 17.3604C11.4683 17.4563 11.5161 17.4563 11.5161 17.5525C11.6122 17.6963 11.66 17.7922 11.756 17.8882C11.8041 17.8882 11.8039 17.9362 11.8039 17.9843C11.8041 18.0322 11.8039 18.0801 11.8039 18.1281C11.7562 18.1761 11.756 18.2243 11.756 18.272C11.7082 18.272 11.612 18.272 11.5161 18.3201C11.3723 18.368 11.2761 18.464 11.2761 18.6079C11.2763 18.6079 11.3241 18.6561 11.3243 18.6559Z" fill="white"/>
<path d="M1.32844 3.02148L16.2796 13.2119L16.254 13.2496L1.30273 3.05922L1.32844 3.02148Z" fill="#292A2B"/>
<path d="M1.40039 3.12891L16.0659 13.1247H15.9851L1.40039 3.18418V3.12891Z" fill="#EFEEEF"/>
<path d="M2.56102 2.01182L3.03736 3.12097L4.24522 3.14843L4.26465 3.14888L4.27223 3.16651L4.75162 4.28285L5.94942 4.31009L5.96886 4.31053L5.97643 4.32816L6.4587 5.45123L7.66754 5.47869L7.68697 5.47913L7.69455 5.49676L8.17094 6.60606L9.37179 6.63338L9.39123 6.63384L9.87802 7.76736L11.0969 7.79504L11.1163 7.79548L11.1239 7.81311L11.6032 8.92932L12.8081 8.95672L12.8274 8.95713L12.835 8.97477L13.3144 10.091L14.5192 10.1184L14.5387 10.1188L14.5462 10.1364L15.0226 11.2454L16.2375 11.273L16.2568 11.2735L16.2644 11.2911L16.7435 12.4072L17.9557 12.4347L17.975 12.4352L17.9826 12.4528L18.2742 13.132H18.2352L17.9579 12.4865L17.9503 12.4687L17.931 12.4685L16.7189 12.4411L16.2397 11.3249L16.2321 11.3073L16.2128 11.307L14.998 11.2792L14.5217 10.1702L14.514 10.1526L14.4948 10.1522L13.2899 10.1248L12.8105 9.00877L12.8029 8.99101L12.7836 8.9906L11.5787 8.96318L11.0993 7.84685L11.0918 7.82944L11.0724 7.82873L9.86079 7.80136L9.85057 7.79445L9.37417 6.68524L9.36668 6.66761L9.34717 6.66717L8.14972 6.64002L8.145 6.63684L7.66997 5.53049L7.66243 5.51292L7.6431 5.51243L6.44866 5.4855L6.42855 5.47187L5.95199 4.36186L5.9444 4.3445L5.92475 4.34386L4.72704 4.31667L4.24774 3.20034L4.23998 3.18262L4.22069 3.18231L3.01475 3.15485L3.01189 3.15292L2.53648 2.04556L2.5288 2.02792L2.50953 2.02757L1.31365 2.00028L1.26456 1.96696L1.26367 1.96484L1.30978 1.96593L2.53406 1.99373L2.55344 1.99418L2.56102 2.01182ZM16.7911 12.5025L16.7924 12.5059L16.787 12.5025L16.7911 12.5025ZM17.8314 12.6778L18.0266 13.132H17.9875L17.8067 12.7116L17.7996 12.6939L17.7803 12.6936L17.0616 12.6773L17.0549 12.6771L17.0401 12.6423L17.0863 12.6434L17.8045 12.6597L17.8238 12.6601L17.8314 12.6778ZM17.1459 12.739L17.1495 12.7485L17.1352 12.7387L17.1459 12.739ZM16.1132 11.5161L16.399 12.1815L16.4174 12.2235L16.3779 12.2233L16.3743 12.2154L16.089 11.5499L16.0814 11.5324L16.0616 11.5319L15.3434 11.5154L15.3367 11.5153L15.3219 11.4807L15.3681 11.4817L16.0863 11.4981L16.106 11.4985L16.1132 11.5161ZM15.4277 11.5774L15.4291 11.5806L15.4241 11.5773L15.4277 11.5774ZM14.3953 10.3614L14.6808 11.0268L14.6992 11.0688L14.6745 11.0686L14.6539 11.0544L14.3706 10.3954L14.3632 10.3777L14.3438 10.3773L13.6322 10.3611L13.6131 10.3481L13.6038 10.326L13.6499 10.327L14.3683 10.3434L14.3877 10.3438L14.3953 10.3614ZM12.6841 9.19979L12.9698 9.86513L12.9879 9.90717L12.9632 9.90699L12.9428 9.89317L12.6595 9.23353L12.6521 9.21607L12.6327 9.21544L11.9204 9.19935L11.902 9.18682L11.8926 9.16435L11.9387 9.16538L12.6571 9.18171L12.6765 9.18215L12.6841 9.19979ZM10.9729 8.03815L11.2586 8.70348L11.2767 8.74547L11.2516 8.74538L11.2317 8.73184L10.9481 8.07206L10.9409 8.05424L10.9214 8.05383L10.209 8.03768L10.191 8.02549L10.1814 8.0027L10.2275 8.00373L10.9459 8.02006L10.9654 8.02047L10.9729 8.03815ZM9.2478 6.87645L9.5516 7.58383L9.54021 7.58378L9.50096 7.55717L9.22339 6.91036L9.21573 6.89263L9.19635 6.89228L8.49803 6.87645L8.46048 6.85096L8.45631 6.84101L8.50242 6.84207L9.22084 6.85841L9.24027 6.85886L9.2478 6.87645ZM7.54359 5.72174L7.82931 6.38713L7.84739 6.42917L7.83896 6.42912L7.79571 6.39979L7.51905 5.75566L7.51138 5.73789L7.49214 5.73754L6.79678 5.72179L6.7551 5.69349L6.75209 5.68635L6.79818 5.68738L7.51663 5.70371L7.53601 5.70416L7.54359 5.72174ZM5.82547 4.55319L6.11121 5.21853L6.12928 5.26057L6.11712 5.26048L6.07894 5.23459L5.80103 4.58697L5.79335 4.56934L5.77397 4.56885L5.07481 4.55305L5.03842 4.52833L5.03393 4.5177L5.08006 4.51878L5.79848 4.53511L5.81789 4.53555L5.82547 4.55319ZM4.12122 3.39153L4.40695 4.05689L4.42503 4.09888L4.40556 4.09879L4.37783 4.07999L4.09669 3.42545L4.08902 3.40773L4.06973 3.40738L3.3632 3.39132L3.33718 3.37364L3.32973 3.35605L3.37584 3.35713L4.09426 3.37346L4.11369 3.37387L4.12122 3.39153ZM2.41006 2.23679L2.69579 2.90218L2.71387 2.94422L2.70431 2.94414L2.66255 2.91577L2.38553 2.27067L2.37789 2.25299L2.35851 2.25259L1.66217 2.23684L1.62203 2.20956L1.61852 2.20136L1.66464 2.20243L2.38306 2.21872L2.40248 2.21922L2.41006 2.23679Z" fill="#292A2B"/>
<path d="M2.53369 2.04488L3.00989 3.15412L4.21789 3.18163L4.23718 3.18194L4.24494 3.19966L4.72424 4.316L5.92195 4.34319L5.9416 4.34382L5.94919 4.36118L6.43145 5.48447L7.6403 5.51175L7.65963 5.51225L7.66717 5.52982L8.14355 6.6393L9.34437 6.66649L9.36388 6.66694L9.37137 6.68456L9.85068 7.80051L11.0696 7.82805L11.089 7.82876L11.0965 7.84617L11.5759 8.96251L12.7808 8.98993L12.8001 8.99033L12.8077 9.0081L13.2871 10.1241L14.492 10.1515L14.5112 10.1519L14.5189 10.1695L14.9952 11.2785L16.21 11.3063L16.2293 11.3067L16.2369 11.3243L16.7161 12.4404L17.9282 12.4678L17.9475 12.4681L17.9551 12.4859L18.2324 13.1313H18.1669L17.9076 12.5273L16.7497 12.501L16.7492 12.4994H16.7497L16.6532 12.4338L16.6577 12.4451L16.6259 12.4444L16.6182 12.4395L16.6505 12.4397L16.1894 11.3655L15.0409 11.3394L14.9516 11.2791L14.9539 11.2836L14.9319 11.2831L14.4714 10.2108L13.3344 10.185L13.3336 10.1831H13.3368L13.2351 10.1138L13.2355 10.1149L13.2176 10.1145L12.7602 9.04924L11.6193 9.02325L11.6187 9.022L11.6223 9.02223L11.6206 9.01827L11.526 8.95417H11.5243L11.527 8.96009L11.5094 8.95968L11.049 7.88763L9.91218 7.86182L9.91129 7.85967H9.91376L9.79927 7.78189L9.80613 7.79862L9.78432 7.79816L9.32386 6.72598L8.18698 6.70009L8.18613 6.69807L8.20224 6.6983L8.08828 6.62069L8.09492 6.63678L8.07707 6.63639L7.61957 5.57128L6.47896 5.54544L6.47502 5.53633H6.49076L6.37726 5.45935L6.38367 5.47519L6.36191 5.47473L5.9014 4.40267L4.76488 4.37683L4.76394 4.37468L4.77915 4.37481L4.65224 4.28863L4.66573 4.32049L4.65578 4.32026L4.64802 4.31502L4.65196 4.31506L4.65169 4.31438L4.65829 4.31443L4.1972 3.24112L3.07122 3.21546L2.9316 3.12066L2.94758 3.15888L2.94655 3.15884L2.48618 2.08638L1.32838 2.06004L1.32762 2.05834L1.36647 2.0586L1.27841 1.99885L1.28231 1.99894L2.50673 2.02689L2.526 2.02724L2.53369 2.04488ZM1.23722 2.0002L1.23718 2.00014L1.23633 1.99805L1.23722 2.0002ZM17.8039 12.7109L17.9847 13.1313H17.9192L17.7564 12.7522L17.1037 12.7375L17.105 12.7406L17.0193 12.6825H17.0153L17.0126 12.6754L17.0588 12.6766L17.7775 12.6929L17.7968 12.6932L17.8039 12.7109ZM17.1059 12.7428L17.1225 12.7817L17.1158 12.7773L17.1014 12.7428H17.1059ZM16.0862 11.5492L16.3715 12.2148L16.3899 12.2565H16.3881L16.3868 12.2532L16.297 12.1922L16.0382 11.5906L15.389 11.5759L15.3182 11.5278L15.3002 11.5278L15.2944 11.5138L15.3406 11.5147L16.0588 11.5312L16.0786 11.5317L16.0862 11.5492ZM16.2777 12.2081L16.2598 12.196L16.2975 12.1962L16.3029 12.2087L16.2777 12.2081ZM15.3908 11.5881L15.4016 11.6136L15.4007 11.6129L15.3899 11.5881H15.3908ZM14.3678 10.3947L14.6538 11.06L14.6636 11.0837L14.5945 11.0364L14.599 11.047L14.5654 11.0462L14.5587 11.0416L14.5806 11.0417L14.3204 10.4359L13.6885 10.4216L13.6067 10.3661L13.5947 10.3659L13.6076 10.3963L13.5856 10.3813L13.5765 10.3591L13.6224 10.3602L14.341 10.3766L14.3604 10.3771L14.3678 10.3947ZM12.6567 9.23285L12.9424 9.89815L12.9528 9.92247L12.8778 9.87132L12.8806 9.8784L12.8686 9.87813L12.6092 9.2743L11.9682 9.25955L11.9676 9.25793H11.9738L11.8854 9.19795L11.9114 9.19848L12.6299 9.21477L12.6493 9.21539L12.6567 9.23285ZM12.9604 9.94009L12.9605 9.94032L12.9359 9.94014L12.935 9.93956L12.9604 9.94009ZM11.8906 9.23078L11.8746 9.21997L11.8653 9.19754L11.8764 9.19777L11.8906 9.23078ZM10.9453 8.07139L11.2418 8.76109L11.1723 8.71402L11.1766 8.72377L11.1426 8.72295L11.1355 8.7181L11.1583 8.71833L10.898 8.11242L10.265 8.09825L10.1835 8.04285H10.1722L10.1855 8.07357L10.1636 8.05882L10.1541 8.03571L10.2002 8.03688L10.9186 8.05316L10.9381 8.05357L10.9453 8.07139ZM9.22059 6.90969L9.5061 7.57499L9.51098 7.58642L9.44172 7.53941L9.45136 7.56198L9.43122 7.56152L9.424 7.55664L9.43315 7.55673L9.17299 6.95092L8.55409 6.937L8.47203 6.88138L8.44709 6.8812L8.45466 6.89869L8.43327 6.88412L8.42902 6.87416L8.47509 6.87531L9.19355 6.8916L9.21293 6.89196L9.22059 6.90969ZM7.51625 5.75498L7.80202 6.42028L7.8058 6.42908L7.73074 6.3782L7.74006 6.40037L7.72799 6.4001L7.46856 5.79608L6.82794 5.78173L6.82709 5.77979L6.84947 5.77993L6.76182 5.72036L6.77083 5.72057L7.48934 5.73686L7.50858 5.73722L7.51625 5.75498ZM7.81996 6.46206L7.8201 6.46233H7.81167L7.81095 6.46187L7.81996 6.46206ZM6.74378 5.73759L6.72781 5.72673L6.72462 5.71936L6.7361 5.71968L6.74378 5.73759ZM5.79823 4.58629L6.08377 5.25159L6.08888 5.26352L6.01985 5.21673L6.02899 5.23885L6.00836 5.23841L6.00087 5.23329H6.01069L5.75046 4.62766L5.13095 4.61357L5.04913 4.55803L5.02473 4.55786L5.03262 4.5761L5.01117 4.56157L5.00659 4.55076L5.05272 4.55193L5.77117 4.56817L5.79055 4.56867L5.79823 4.58629ZM4.09389 3.42477L4.37966 4.09007L4.39769 4.13215H4.39608L4.38576 4.10793L4.2958 4.04675L4.0465 3.46591L3.41931 3.45174L3.34775 3.40329L3.30817 3.40312L3.30239 3.38915L3.34837 3.39037L4.06693 3.4067L4.08622 3.40706L4.09389 3.42477ZM4.30737 4.08398L4.28934 4.07168H4.30567L4.31089 4.08402L4.30737 4.08398ZM3.3987 3.46353L3.40078 3.46848L3.39961 3.46772L3.39785 3.46353H3.3987ZM2.38273 2.26999L2.66845 2.93538L2.68653 2.97741L2.68101 2.97738L2.66585 2.9417L2.665 2.93982L2.58047 2.88258L2.33522 2.31122L1.71828 2.29727L1.63641 2.24172H1.63421L1.59414 2.24151L1.59131 2.23446L1.63721 2.23567L2.35571 2.25191L2.37509 2.25231L2.38273 2.26999ZM2.59137 2.91937L2.58805 2.91712H2.59043L2.59137 2.91937ZM1.68449 2.30194L1.68557 2.30449L1.68172 2.30189L1.68449 2.30194Z" fill="#EFEEEF"/>
<path d="M16.9552 13.1313L16.6864 12.5057L15.4788 12.4781L15.4595 12.4778L14.9723 11.3438L13.7745 11.3165L13.7549 11.3162L13.265 10.1755L12.0561 10.148L12.0368 10.1475L12.0293 10.1298L11.5529 9.02056L10.3521 8.9931L10.3326 8.99275L10.3252 8.97503L9.84579 7.85936L8.6269 7.83155L8.60738 7.83119L8.60002 7.81355L8.12055 6.69727L6.9156 6.66994L6.89636 6.66955L6.88877 6.65191L6.40934 5.53561L5.20444 5.50815L5.18523 5.5078L5.17761 5.49017L4.7014 4.38114L3.48646 4.35369L3.46699 4.35306L3.45936 4.33561L2.98023 3.21954L1.76811 3.1919L1.74896 3.19149L1.7413 3.17378L1.25427 2.04012L1.23633 1.99805L1.27765 1.99831L1.36647 2.0586L1.32762 2.05834L1.78898 3.13265L2.94758 3.15888L2.9316 3.12066L3.07813 3.22016L3.04569 3.21998L3.50696 4.29415L4.66574 4.32049L4.65224 4.28863L4.77915 4.37481L4.76394 4.37468L5.22508 5.44889L6.38367 5.47519L6.37726 5.45935L6.49076 5.53633H6.47502L6.93619 6.6105L8.09492 6.63678L8.08828 6.62069L8.20224 6.6983L8.18613 6.69807L8.64744 7.77232L9.80613 7.79862L9.79927 7.78189L9.91376 7.85967H9.91129L10.3725 8.93393L11.527 8.96009L11.5243 8.95417H11.526L11.6206 9.01827L11.6223 9.02223L11.6187 9.022L12.0769 10.0885L13.2355 10.1149L13.2351 10.1138L13.3368 10.1831H13.3336L13.795 11.2573L14.9539 11.2836L14.9516 11.2791L15.0485 11.3447H15.0445V11.3454L15.0382 11.3452L15.4994 12.4188L16.6577 12.4451L16.6532 12.4338L16.7497 12.4994H16.7492L17.0202 13.1313H16.9552ZM1.89238 2.94892L1.60652 2.28353L1.58835 2.24146L1.63421 2.24172H1.63641L1.72536 2.30206L1.67961 2.30189L1.93989 2.90748L2.59263 2.92237L2.57406 2.87818L2.665 2.93982L2.66585 2.9417L2.68392 2.98424L2.63772 2.98348L1.91912 2.96701L1.89987 2.96642L1.89238 2.94892ZM3.61027 4.1105L3.32473 3.44514L3.30665 3.40312L3.34775 3.40329L3.43675 3.46358L3.39785 3.46353L3.65801 4.06913L4.31089 4.08402L4.29486 4.04607L4.38576 4.10793L4.40191 4.14597L4.35583 4.14486L3.63742 4.12862L3.6179 4.12812L3.61027 4.1105ZM5.32862 5.26524L5.04285 4.59989L5.02473 4.55786L5.04913 4.55803L5.138 4.61832L5.11588 4.61824L5.37608 5.22387L6.02899 5.23885L6.01985 5.21673L6.11087 5.27842L6.11998 5.30054L6.07403 5.29954L5.35543 5.28336L5.33602 5.28295L5.32862 5.26524ZM7.03978 6.4268L6.73598 5.71936L6.76056 5.71951L6.84947 5.77993L6.82709 5.77979L7.08724 6.38561L7.74006 6.40037L7.73074 6.3782L7.82186 6.43998L7.83118 6.46233L7.78493 6.46124L7.0666 6.44497L7.04713 6.44447L7.03978 6.4268ZM8.75098 7.5884L8.46521 6.92305L8.44709 6.8812L8.47203 6.88138L8.56099 6.94167L8.53838 6.94135L8.79845 7.54727L9.45136 7.56198L9.44173 7.53941L9.53284 7.60119L9.54243 7.62393L9.49618 7.62298L8.77781 7.60648L8.75838 7.60612L8.75098 7.5884ZM10.4758 8.75014L10.1903 8.08484L10.1722 8.04285H10.1835L10.2724 8.10331L10.2633 8.10314L10.5235 8.70873L11.1766 8.72377L11.1723 8.71402L11.2632 8.77557L11.2675 8.78553L11.2214 8.78459L10.5029 8.76826L10.4835 8.76785L10.4758 8.75014ZM12.1802 9.90492L11.8944 9.23958L11.8763 9.19754H11.8848L11.9738 9.25793H11.9676L12.2279 9.86342L12.8806 9.8784L12.8778 9.87132L12.9687 9.93328L12.9718 9.94032L12.9256 9.93933L12.2071 9.92309L12.1878 9.92238L12.1802 9.90492ZM13.8982 11.0733L13.6127 10.408L13.5947 10.3659L13.6067 10.3661L13.6956 10.4264L13.6858 10.4264L13.946 11.0323L14.599 11.047L14.5945 11.0364L14.6852 11.0983L14.6901 11.1089L14.6439 11.1078L13.9253 11.0914L13.9059 11.091L13.8982 11.0733ZM15.6026 12.2352L15.3168 11.5699L15.2989 11.5278L15.3182 11.5278L15.407 11.5881H15.3899L15.6501 12.1938L16.3029 12.2087L16.2957 12.1913L16.3868 12.2532L16.3939 12.2705L16.3482 12.2695L15.6295 12.2533L15.6102 12.2527L15.6026 12.2352ZM17.2028 13.1313L17.0278 12.7244L17.0099 12.6825H17.0193L17.1086 12.7428H17.1014L17.2678 13.1313H17.2028Z" fill="#292A2B"/>
<path d="M1.35973 0.935547L19.2646 13.1392H19.1654L1.35938 1.00311H1.35973V0.935547Z" fill="#292A2B"/>
<path d="M1.54834 0.826172L19.6142 13.1394H19.5129L1.44727 0.826172H1.54834Z" fill="#EFEEEF"/>
<path d="M2.49805 0.878906C2.54919 1.29151 2.72556 1.62259 3.12521 1.80836" stroke="#EFEEEF" stroke-width="0.0509129" stroke-miterlimit="2.613"/>
<path d="M4.08008 1.85156C4.08101 2.06286 4.15084 2.28907 4.34342 2.54189" stroke="#EFEEEF" stroke-width="0.0708358" stroke-miterlimit="2.613"/>
<path d="M6.02084 2.71484C5.939 2.92613 5.92021 3.15233 6.01374 3.40516" stroke="#EFEEEF" stroke-width="0.0604924" stroke-miterlimit="2.613"/>
<path d="M7.5474 4.16406C7.54066 4.39079 7.59836 4.60983 7.77097 4.81509" stroke="#EFEEEF" stroke-width="0.060123" stroke-miterlimit="2.613"/>
<path d="M9.48563 5.10742C9.4072 5.32409 9.39238 5.5504 9.491 5.7938" stroke="#EFEEEF" stroke-width="0.0590198" stroke-miterlimit="2.613"/>
<path d="M11.0371 6.50391C11.0274 6.6452 11.0528 6.79268 11.1408 6.95137" stroke="#EFEEEF" stroke-width="0.0707509" stroke-miterlimit="2.613"/>
<path d="M12.9426 7.43164C12.8642 7.64836 12.8494 7.87459 12.9481 8.11806" stroke="#EFEEEF" stroke-width="0.0590198" stroke-miterlimit="2.613"/>
<path d="M14.4813 8.86133C14.4726 9.08637 14.5298 9.28472 14.7046 9.43559" stroke="#EFEEEF" stroke-width="0.0707359" stroke-miterlimit="2.613"/>
<path d="M16.3621 9.81836C16.3089 10.0417 16.3201 10.2669 16.4465 10.4952" stroke="#EFEEEF" stroke-width="0.0586803" stroke-miterlimit="2.613"/>
<path d="M17.9697 11.2109C17.9538 11.4403 18.0019 11.661 18.1643 11.8659" stroke="#EFEEEF" stroke-width="0.0586803" stroke-miterlimit="2.613"/>
<path d="M19.8605 12.1289C19.7912 12.348 19.7861 12.5735 19.8958 12.8106" stroke="#EFEEEF" stroke-width="0.0586803" stroke-miterlimit="2.613"/>
</g>
<defs>
<clipPath id="clip0_634_21960">
<rect width="19.8857" height="24" fill="white" transform="translate(0.724609)"/>
</clipPath>
</defs>
</svg>
