<svg width="25" height="24" viewBox="0 0 25 24" fill="none" xmlns="http://www.w3.org/2000/svg">
<path fill-rule="evenodd" clip-rule="evenodd" d="M12.0743 24C6.18362 24 1.4082 19.2267 1.4082 13.3333V0H22.7415V13.3333C22.7415 19.2267 17.9655 24 12.0749 24" fill="black"/>
<path fill-rule="evenodd" clip-rule="evenodd" d="M8.50674 2.40234H22.4897V4.66901H9.33021C9.39314 4.50368 9.36434 4.31168 9.21927 4.14101C9.00594 3.89568 8.69821 3.89034 8.48487 4.07701C8.44114 4.11434 8.40114 4.16768 8.37341 4.23701C8.18727 4.09834 7.91207 4.00768 7.68647 4.20501C7.53021 4.33834 7.48434 4.50368 7.52594 4.65301C7.51154 4.65301 7.49661 4.67434 7.48221 4.67434H6.97821C6.82194 4.62634 6.67661 4.53568 6.56279 4.40768C6.25293 4.05034 6.27511 3.47968 6.6285 3.17034C6.67447 3.13301 6.74386 3.13834 6.78354 3.18634C6.80541 3.21301 6.81501 3.24501 6.81074 3.27701C6.78194 3.45834 6.72535 3.54368 6.60434 3.67168L6.67234 3.74634C6.87901 3.98634 7.26301 4.06634 7.53714 3.89568C7.77767 4.02368 8.05501 4.03434 8.27367 3.84234C8.49234 3.65034 8.52114 3.37834 8.42887 3.12234C8.59047 2.92501 8.60807 2.64234 8.50674 2.41301V2.40234ZM12.5627 7.07968H22.4897V9.34634H13.3846C13.4486 9.18101 13.4198 8.98368 13.2742 8.81834C13.0614 8.57301 12.7531 8.56768 12.5403 8.75434C12.4961 8.79168 12.4566 8.83968 12.4289 8.91434C12.2427 8.77034 11.967 8.67968 11.7414 8.87701C11.5851 9.01034 11.5398 9.18101 11.5809 9.33034C11.5633 9.33568 11.5483 9.34101 11.5318 9.34101H11.039C10.8801 9.29834 10.7329 9.20768 10.6182 9.07968C10.3078 8.72234 10.3297 8.14634 10.6838 7.84234C10.7297 7.79968 10.799 7.80501 10.839 7.85301C10.8603 7.87434 10.8694 7.91168 10.8662 7.93834C10.8374 8.12501 10.7803 8.21034 10.6593 8.33301L10.7275 8.41301C10.9334 8.65301 11.3185 8.72768 11.5921 8.56234C11.8326 8.69034 12.1099 8.69568 12.3286 8.50901C12.5473 8.31701 12.5766 8.03968 12.4838 7.78368C12.6454 7.59168 12.663 7.30368 12.5627 7.07968V7.07968ZM16.6187 11.7463H22.4897V13.341C22.4897 13.5703 22.4897 13.789 22.4683 14.013H17.4395C17.5035 13.8423 17.4753 13.6503 17.3302 13.4797C17.1169 13.2343 16.8097 13.229 16.5947 13.4157C16.5521 13.453 16.5121 13.5063 16.4838 13.5757C16.2977 13.437 16.023 13.3463 15.7969 13.5383C15.6406 13.677 15.5947 13.8423 15.6363 13.9917C15.6171 13.997 15.5995 14.0023 15.5814 14.013H15.0993C14.9387 13.965 14.7894 13.8797 14.6731 13.7463C14.3633 13.389 14.3851 12.813 14.7387 12.509C14.7846 12.4663 14.8545 12.4717 14.8939 12.5197C14.9153 12.541 14.9249 12.5783 14.9211 12.605C14.8923 12.7863 14.8358 12.8717 14.7147 12.9997L14.7825 13.0797C14.9889 13.3143 15.3734 13.3943 15.6475 13.2237C15.8881 13.3517 16.1654 13.3623 16.3841 13.1757C16.6033 12.9837 16.6315 12.7063 16.5393 12.4503C16.6998 12.2583 16.7185 11.9703 16.6187 11.7463ZM20.6737 16.413H22.0289C21.847 16.9997 21.6166 17.565 21.3409 18.0983C21.1318 17.901 20.8502 17.9117 20.6507 18.0823C20.607 18.1197 20.567 18.173 20.5387 18.2423C20.3521 18.1037 20.0763 18.013 19.8529 18.205C19.6966 18.3437 19.6497 18.509 19.6907 18.6583C19.671 18.6637 19.6523 18.6743 19.631 18.6797H19.1606C18.9969 18.6317 18.8459 18.5463 18.7281 18.4077C18.4182 18.0503 18.4406 17.4797 18.7947 17.1703C18.8406 17.133 18.9089 17.1383 18.9499 17.181C18.9713 17.2077 18.9798 17.2397 18.9771 17.2717C18.9473 17.453 18.8902 17.5383 18.7691 17.661L18.8374 17.741C19.0438 17.981 19.4294 18.061 19.7035 17.8903C19.9441 18.0183 20.2214 18.029 20.439 17.837C20.6582 17.6503 20.6865 17.373 20.5942 17.117C20.7563 16.9197 20.7734 16.637 20.6737 16.413V16.413ZM1.68945 4.66901V2.63168L3.45981 4.66901H1.68945V4.66901ZM1.68945 9.33568V7.06901H5.54621L7.51634 9.33568H1.68945V9.33568ZM1.71032 14.0023C1.69716 13.7837 1.68945 13.5597 1.68945 13.3357V11.7357H9.60274L11.5729 14.0023H1.71032V14.0023ZM17.7153 21.069L18.2657 21.7037C16.5393 22.9783 14.4022 23.7357 12.0891 23.7357C9.41554 23.7357 6.97767 22.7277 5.13506 21.069H17.7153ZM3.15885 18.669C2.73666 17.965 2.39554 17.2023 2.14871 16.4023H13.6593L15.6294 18.669H3.15885V18.669Z" fill="#FFDD00"/>
<path fill-rule="evenodd" clip-rule="evenodd" d="M9.69018 8.7602C9.61871 8.41353 9.65285 8.0402 9.80538 7.73086C9.47418 7.83753 9.10351 7.8162 8.76591 7.69886L9.69018 8.7602V8.7602ZM5.63509 4.09886C5.56367 3.74686 5.59738 3.37886 5.74997 3.0642C5.4193 3.17086 5.04842 3.15486 4.71061 3.0322L5.63509 4.09886ZM7.66245 6.42953C7.59151 6.07753 7.62511 5.70953 7.77765 5.39486C7.44698 5.50686 7.07631 5.48553 6.73845 5.3682L7.66245 6.42953ZM11.7179 11.0962C11.6464 10.7442 11.68 10.3762 11.8326 10.0615C11.5019 10.1682 11.1307 10.1522 10.7936 10.0295L11.7179 11.0962ZM13.7451 13.4269C13.6736 13.0749 13.7078 12.7069 13.8603 12.3922C13.5296 12.5042 13.159 12.4829 12.8208 12.3655L13.7451 13.4269ZM15.7728 15.7575C15.7014 15.4109 15.7355 15.0375 15.888 14.7282C15.5568 14.8349 15.1862 14.8135 14.8486 14.6962L15.7728 15.7575V15.7575ZM17.8006 18.0935C17.7296 17.7415 17.7638 17.3735 17.9158 17.0589C17.5846 17.1655 17.2134 17.1495 16.8763 17.0322L17.8006 18.0935ZM19.7664 20.3495L19.8091 20.3069C19.7664 19.9922 19.8091 19.6669 19.944 19.3895C19.6128 19.4962 19.2416 19.4802 18.9046 19.3629L19.7664 20.3549V20.3495ZM3.60757 1.76286C3.53631 1.4162 3.57013 1.04286 3.72218 0.733531C3.39151 0.840198 3.02074 0.818865 2.68341 0.701531L3.60757 1.76286ZM18.6528 21.4055L1.68945 1.89086V2.28553L18.4491 21.5655C18.5174 21.5122 18.5856 21.4589 18.6528 21.4055ZM1.68945 1.5442L18.8278 21.2562C18.9755 21.1335 19.1206 21.0002 19.263 20.8669L1.68945 0.648198V1.5442ZM14.1248 14.2109L2.00607 0.269531H1.68945V0.301531L19.4262 20.7069C19.4891 20.6429 19.5488 20.5842 19.6096 20.5202L14.1248 14.2109ZM21.2267 18.3069C21.2267 18.3015 21.2096 18.2962 21.2096 18.2909C21.1062 18.1682 20.9142 18.1415 20.7947 18.2482C20.7334 18.3015 20.695 18.3655 20.688 18.4402L20.4875 18.4989C20.3382 18.3282 20.1248 18.2589 19.9968 18.3709C19.8304 18.5149 19.9115 18.6162 19.9968 18.7602C19.4987 19.0002 18.944 19.0109 18.5462 18.5522C18.1606 18.1042 18.1792 17.3895 18.6342 16.9949C18.775 16.8722 18.9883 16.8882 19.1104 17.0269C19.176 17.1015 19.2043 17.2029 19.1915 17.2935C19.1734 17.4162 19.1318 17.5442 19.0667 17.6509C19.2758 17.8055 19.4934 17.7629 19.6768 17.6082C19.8614 17.7255 20.0822 17.8322 20.2795 17.6615C20.4774 17.4855 20.4032 17.2562 20.311 17.0589C20.4886 16.8935 20.5643 16.6855 20.4374 16.4562C20.1931 16.5682 19.816 16.5629 19.6384 16.4135C19.4747 16.2802 19.4891 16.0722 19.671 15.9709C19.8688 15.8482 20.24 15.8962 20.4672 16.0402C20.624 15.8322 20.5782 15.6082 20.4246 15.4269C20.544 15.2402 20.6496 15.0215 20.4774 14.8242C20.3067 14.6269 20.0736 14.7015 19.8742 14.7922C19.7136 14.6162 19.503 14.5415 19.2758 14.6642C19.3835 14.9095 19.3782 15.2829 19.2331 15.4642C19.1019 15.6295 18.896 15.6135 18.7878 15.4375C18.6667 15.2402 18.7136 14.8669 18.856 14.6375C18.6486 14.4775 18.4278 14.5255 18.2443 14.6749C18.0598 14.5575 17.8406 14.4562 17.6416 14.6269C17.4438 14.7975 17.5179 15.0322 17.6086 15.2295C17.4326 15.3895 17.3568 15.6029 17.4838 15.8269C17.5958 15.7789 17.7296 15.7575 17.8534 15.7522C17.9456 15.7575 18.0411 15.7949 18.1067 15.8695C18.2288 16.0135 18.2144 16.2269 18.0736 16.3495C17.6171 16.7442 16.9046 16.6642 16.5179 16.2162C16.1195 15.7575 16.2048 15.2135 16.5126 14.7549C16.639 14.8615 16.727 14.9575 16.895 14.8135C17.0214 14.7015 16.9862 14.4829 16.8368 14.3069L16.9222 14.1202C16.9958 14.1202 17.0656 14.0935 17.1296 14.0402C17.2475 13.9389 17.2475 13.7415 17.144 13.6242C17.0416 13.5069 16.8496 13.4802 16.7312 13.5815C16.6672 13.6349 16.6304 13.7042 16.6235 13.7789L16.4214 13.8322C16.272 13.6615 16.0587 13.5975 15.9323 13.7042C15.7643 13.8535 15.847 13.9549 15.9376 14.0935C15.439 14.3389 14.8843 14.3442 14.4864 13.8855C14.0998 13.4429 14.1184 12.7229 14.5744 12.3282C14.7147 12.2055 14.928 12.2215 15.0507 12.3602C15.1158 12.4349 15.143 12.5362 15.1312 12.6269C15.1126 12.7495 15.0715 12.8829 15.0059 12.9842C15.2139 13.1389 15.4342 13.0962 15.6176 12.9415C15.8011 13.0642 16.0219 13.1655 16.2192 12.9949C16.4171 12.8242 16.343 12.5895 16.2523 12.3922C16.4283 12.2322 16.504 12.0189 16.3771 11.7895C16.1328 11.9015 15.7558 11.8962 15.5766 11.7469C15.4144 11.6135 15.4278 11.4109 15.6107 11.3042C15.8086 11.1815 16.1798 11.2295 16.407 11.3735C16.5638 11.1655 16.5179 10.9469 16.3659 10.7602C16.4838 10.5789 16.5894 10.3602 16.4171 10.1575C16.2448 9.9602 16.0134 10.0349 15.8139 10.1255C15.655 9.94953 15.4422 9.87486 15.2144 10.0029C15.3232 10.2429 15.3184 10.6215 15.1723 10.7975C15.0427 10.9682 14.8358 10.9522 14.7275 10.7709C14.6064 10.5735 14.6534 10.2002 14.7952 9.97086C14.5878 9.8162 14.367 9.85886 14.184 10.0135C13.9995 9.8962 13.7803 9.78953 13.5819 9.9602C13.384 10.1362 13.4576 10.3655 13.5494 10.5629C13.3734 10.7229 13.2971 10.9362 13.423 11.1655C13.536 11.1122 13.6699 11.0909 13.7926 11.0909C13.8854 11.0909 13.9814 11.1335 14.0464 11.2082C14.1691 11.3469 14.1542 11.5602 14.0134 11.6829C13.5574 12.0775 12.8448 11.9975 12.4582 11.5549C12.0603 11.0962 12.1446 10.5469 12.4528 10.0882C12.5792 10.1949 12.6672 10.2909 12.8347 10.1469C12.9616 10.0349 12.9259 9.8162 12.7766 9.64553L12.8619 9.45353C12.9366 9.45353 13.0064 9.42686 13.0694 9.37353C13.1878 9.2722 13.1878 9.07486 13.0854 8.95753C12.9824 8.8402 12.791 8.81353 12.6726 8.91487C12.6091 8.97353 12.5728 9.03753 12.5643 9.1122L12.3638 9.17086C12.2144 9.0002 12.0006 8.93086 11.8736 9.04286C11.7067 9.18686 11.7883 9.2882 11.879 9.42686C11.383 9.6722 10.8288 9.67753 10.4304 9.21886C10.0443 8.7762 10.063 8.06153 10.5184 7.66153C10.6592 7.53887 10.8726 7.55486 10.9952 7.69353C11.0603 7.77353 11.088 7.86953 11.0758 7.96553C11.0576 8.08286 11.016 8.2162 10.9504 8.31753C11.1584 8.47753 11.3787 8.42953 11.5622 8.2802C11.7462 8.39753 11.9659 8.49887 12.1638 8.3282C12.3616 8.15753 12.288 7.92286 12.1963 7.72553C12.3728 7.56553 12.4486 7.3522 12.3227 7.1282C12.0768 7.23487 11.7003 7.22953 11.5216 7.0802C11.359 6.9522 11.3723 6.7442 11.5552 6.63753C11.7536 6.5202 12.1248 6.5682 12.352 6.70686C12.5083 6.49886 12.463 6.2802 12.3104 6.09886C12.4294 5.9122 12.5339 5.69353 12.3616 5.4962C12.1899 5.29886 11.9579 5.3682 11.759 5.4642C11.5984 5.28286 11.3867 5.2082 11.159 5.3362C11.2678 5.58153 11.263 5.95486 11.1174 6.1362C10.9872 6.30153 10.7803 6.28553 10.672 6.1042C10.551 5.90686 10.5979 5.53353 10.7403 5.30953C10.5323 5.14953 10.3115 5.19753 10.1286 5.34686C9.94405 5.22953 9.72485 5.12286 9.52645 5.29886C9.32858 5.46953 9.40218 5.69886 9.49391 5.90153C9.31738 6.06153 9.24165 6.26953 9.36751 6.49886C9.48005 6.45086 9.61445 6.4242 9.73711 6.4242C9.83045 6.4242 9.92591 6.46686 9.99098 6.54153C10.1131 6.6802 10.0987 6.89353 9.95791 7.0162C9.50245 7.41086 8.78885 7.33087 8.40271 6.8882C8.00431 6.42953 8.08911 5.8802 8.39738 5.42153C8.52485 5.53353 8.61231 5.62953 8.77978 5.48553C8.90671 5.37353 8.87098 5.14953 8.72165 4.97886L8.80698 4.78686C8.88165 4.78686 8.95151 4.76553 9.01498 4.70686C9.13338 4.60553 9.13338 4.41353 9.03098 4.2962C8.92805 4.17886 8.73605 4.14686 8.61765 4.25353C8.55471 4.30686 8.51844 4.37086 8.51044 4.44553L8.30884 4.5042C8.16004 4.33353 7.94618 4.26953 7.81925 4.3762C7.65178 4.5202 7.73391 4.62153 7.82618 4.76553C7.32751 5.00553 6.77338 5.0162 6.37503 4.55753C5.98863 4.10953 6.00757 3.39486 6.46325 3.0002C6.60405 2.87753 6.81711 2.89353 6.93925 3.0322C7.00485 3.10686 7.03205 3.2082 7.02085 3.29886C7.00165 3.42153 6.96005 3.54953 6.89498 3.6562C7.10245 3.81086 7.32271 3.7682 7.50618 3.61353C7.69018 3.73086 7.90991 3.83753 8.10778 3.66686C8.30618 3.49086 8.23258 3.26153 8.14085 3.0642C8.31738 2.9042 8.39258 2.69086 8.26725 2.46153C8.02138 2.57353 7.64431 2.5682 7.46618 2.41886C7.30351 2.28553 7.31631 2.07753 7.49925 1.9762C7.69765 1.85353 8.06885 1.90153 8.29605 2.04553C8.45285 1.83753 8.40751 1.61353 8.25498 1.4322C8.37338 1.24553 8.47898 1.02686 8.30618 0.829531C8.13391 0.632198 7.90191 0.706865 7.70351 0.797531C7.54298 0.621531 7.33071 0.546865 7.10298 0.669531C7.21178 0.914865 7.20751 1.2882 7.06138 1.46953C6.93178 1.63486 6.72437 1.61886 6.61642 1.44286C6.49525 1.24553 6.54229 0.872198 6.68437 0.642865C6.47674 0.482865 6.25589 0.530865 6.07295 0.685531C5.88837 0.562865 5.66906 0.461531 5.47092 0.632198C5.27295 0.802865 5.34634 1.03753 5.43807 1.23486C5.26186 1.39486 5.18623 1.6082 5.31167 1.8322C5.42458 1.7842 5.55882 1.76286 5.68143 1.75753C5.77461 1.75753 5.86986 1.8002 5.93557 1.87486C6.05759 2.01886 6.04266 2.2322 5.90186 2.35486C5.44634 2.74953 4.73338 2.66953 4.34725 2.22153C3.9489 1.7682 4.03349 1.21886 4.34351 0.760198C4.47055 0.866865 4.55829 0.962865 4.72581 0.818865C4.85253 0.706865 4.83007 0.461531 4.62031 0.269531H2.33103C2.77338 0.610865 3.37711 0.669531 3.88399 0.408198L3.96879 0.504198L4.05354 0.605531C3.66426 1.14953 3.69829 1.89086 4.14298 2.40286C4.58757 2.91486 5.31674 3.0482 5.91151 2.73886L5.99631 2.8402L6.08132 2.9362C5.69178 3.4802 5.72607 4.22153 6.1705 4.73353C6.61482 5.24553 7.34405 5.3842 7.93925 5.07486L8.02458 5.17086L8.10938 5.26686C7.71951 5.8162 7.75365 6.5522 8.19791 7.0642C8.64271 7.5762 9.37178 7.71486 9.96698 7.40553L10.0518 7.50153L10.1366 7.59753C9.75685 8.14686 9.79045 8.8882 10.2352 9.39487C10.68 9.90687 11.4091 10.0455 12.0038 9.7362L12.0886 9.8322L12.1739 9.93353C11.7846 10.4775 11.8182 11.2189 12.263 11.7309C12.7078 12.2429 13.4368 12.3762 14.0315 12.0669L14.1168 12.1682L14.2016 12.2642C13.8118 12.8082 13.8459 13.5495 14.2907 14.0615C14.735 14.5735 15.464 14.7122 16.0592 14.4029L16.1446 14.4989L16.2283 14.5949C15.839 15.1442 15.8742 15.8855 16.3179 16.3922C16.7632 16.9042 17.4912 17.0429 18.0875 16.7335L18.1712 16.8295L18.2566 16.9309C17.8667 17.4749 17.9008 18.2162 18.3462 18.7282C18.7899 19.2402 19.5195 19.3735 20.1152 19.0642L20.2006 19.1655L20.2832 19.2615C20.1126 19.5015 20.023 19.7842 20.016 20.0615C20.4736 19.5229 20.879 18.9309 21.2203 18.3069H21.2267ZM17.8086 14.9629L17.9552 14.8295L18.5312 15.4962L18.3846 15.6242L17.8086 14.9629ZM19.9744 17.4535L20.1227 17.3255L19.5467 16.6589L19.3984 16.7869L19.9744 17.4535ZM18.847 16.0082C18.9222 15.9442 19.0347 15.9495 19.0998 16.0242C19.1638 16.0989 19.1568 16.2109 19.0816 16.2749C19.0075 16.3389 18.8939 16.3335 18.8299 16.2589C18.7659 16.1842 18.7728 16.0722 18.848 16.0082H18.847ZM18.7243 15.8642C18.8779 15.7309 19.1083 15.7522 19.2422 15.9015C19.3728 16.0562 19.3574 16.2855 19.2054 16.4189C19.0528 16.5522 18.8214 16.5362 18.6891 16.3815C18.5568 16.2269 18.5723 15.9975 18.7243 15.8642ZM16.2198 10.4669L16.0918 10.3175L15.4288 10.8935L15.5568 11.0429L16.2198 10.4669ZM15.92 12.7869L16.0662 12.6589L15.4902 11.9975L15.343 12.1255L15.92 12.7869ZM13.7531 10.2962L13.9003 10.1682L14.4763 10.8295L14.3291 10.9575L13.7531 10.2962ZM15.0272 11.6135C15.1014 11.5495 15.1094 11.4322 15.0432 11.3575C14.9782 11.2829 14.8656 11.2775 14.791 11.3415C14.7163 11.4055 14.7083 11.5229 14.775 11.5975C14.8395 11.6722 14.9526 11.6775 15.0272 11.6135ZM15.1499 11.7522C15.3024 11.6242 15.3184 11.3895 15.1856 11.2402C15.0534 11.0855 14.8219 11.0695 14.6694 11.2029C14.5174 11.3362 14.5008 11.5655 14.6331 11.7202C14.7659 11.8695 14.9968 11.8855 15.1499 11.7522ZM12.0363 5.6562L12.1648 5.80553L11.5014 6.38153L11.3734 6.2322L12.0363 5.6562ZM9.69765 5.62953L9.84485 5.50153L10.4214 6.1682L10.2742 6.2962L9.69765 5.62953ZM11.864 8.12553L12.0112 7.99753L11.4347 7.33086L11.288 7.45886L11.864 8.12553ZM10.7371 6.6802C10.8112 6.6162 10.9248 6.62153 10.9894 6.6962C11.0539 6.77086 11.0464 6.88286 10.9718 6.94686C10.8971 7.0162 10.7846 7.00553 10.7195 6.93086C10.6544 6.8562 10.6624 6.7442 10.7371 6.6802V6.6802ZM10.6144 6.5362C10.767 6.40286 10.9979 6.41886 11.1307 6.57353C11.2635 6.7282 11.247 6.95753 11.0944 7.09086C10.9424 7.2242 10.711 7.2082 10.5782 7.05353C10.4459 6.89886 10.4619 6.66953 10.6144 6.5362V6.5362ZM8.10938 1.13886L7.98138 0.989531L7.31845 1.56553L7.44645 1.71486L8.10938 1.13886V1.13886ZM7.80858 3.45886L7.95631 3.33086L7.37978 2.66953L7.23258 2.79753L7.80858 3.45886V3.45886ZM5.64261 0.968198L5.78981 0.840198L6.36591 1.50153L6.21861 1.62953L5.64261 0.968198V0.968198ZM6.91685 2.28553C6.99151 2.2162 6.99951 2.1042 6.93285 2.02953C6.86778 1.95486 6.75509 1.94953 6.68037 2.01353C6.60602 2.07753 6.59775 2.18953 6.66261 2.2642C6.7273 2.33886 6.84058 2.34953 6.91525 2.28553H6.91685ZM7.03738 2.4242C7.19045 2.29086 7.20698 2.06153 7.07418 1.90686C6.94138 1.75753 6.71013 1.74153 6.55781 1.87486C6.40517 2.00286 6.38911 2.23753 6.52138 2.38686C6.65391 2.54153 6.88538 2.55753 7.03738 2.4242V2.4242ZM20.1451 14.9895L20.2731 15.1335L19.6107 15.7095L19.4827 15.5655L20.1451 14.9895Z" fill="#008444"/>
</svg>
