<svg width="22" height="24" viewBox="0 0 22 24" fill="none" xmlns="http://www.w3.org/2000/svg">
<g clip-path="url(#clip0_634_21327)">
<path d="M10.8672 0.784464V23.6601C11.5284 22.96 12.6563 22.1432 15.7289 22.046C20.2016 21.871 20.3961 18.2344 20.3961 18.2344C20.3961 18.2344 20.9017 0.62889 20.9017 0.265625C16.7273 0.810134 10.8672 0.784464 10.8672 0.784464Z" fill="#D5170F"/>
<path d="M10.8685 0.784464V23.6601C10.2073 22.96 9.0794 22.1432 6.00682 22.046C1.53407 21.871 1.3396 18.2344 1.3396 18.2344C1.3396 18.2344 0.833984 0.62889 0.833984 0.265625C5.00842 0.810134 10.8685 0.784464 10.8685 0.784464Z" fill="#FFD600"/>
<path d="M10.8672 0.732422V23.6407" stroke="black" stroke-width="0.0773978"/>
<path d="M10.8685 0.784464C10.8685 0.784464 16.7286 0.810134 20.903 0.265625C20.903 0.62889 20.3974 18.2344 20.3974 18.2344C20.3974 18.2344 20.2029 21.871 15.7302 22.046C12.6576 22.1432 11.5297 22.96 10.8685 23.6601C10.2073 22.96 9.0794 22.1432 6.00682 22.046C1.53407 21.871 1.3396 18.2344 1.3396 18.2344C1.3396 18.2344 0.833984 0.62889 0.833984 0.265625C5.00842 0.810134 10.8685 0.784464 10.8685 0.784464Z" stroke="black" stroke-width="0.464387"/>
<path d="M11.4127 1.9381L13.5324 2.75486L14.3881 7.34429L14.6798 2.24925L15.8466 6.27472L16.9939 2.01589L17.0328 7.18872L18.1024 2.54095L20.2804 1.62695V4.03835L17.8107 7.36374L20.3582 7.14983L17.9079 9.30842L20.261 10.5336L18.1218 11.7004L20.1249 14.6174L17.2662 13.7423L19.7943 19.0707L16.041 15.473L16.9161 20.1402L15.2243 21.3459L13.7852 20.0041L14.8548 15.862L11.1405 19.3429L13.9991 13.7228L11.1016 14.6952L13.3963 11.6031L11.2377 10.5336L13.4352 9.32786L11.1793 7.34429L13.6685 7.36374L11.3349 4.3106L11.4127 1.9381Z" fill="white" stroke="#010101" stroke-width="0.0483736"/>
<path d="M8.53125 7.09373L9.56971 5.90826C9.56971 5.90826 9.71633 5.7274 9.73928 5.55822C9.76223 5.38903 9.37796 5.11794 9.3554 4.96003C9.36588 4.85609 9.39321 4.75455 9.4363 4.65939C9.51521 4.65204 9.59478 4.65822 9.67161 4.67767C9.85207 4.8698 9.7844 5.03899 9.7844 5.0841C9.7844 5.12922 9.9987 5.01643 9.9987 5.01643C9.9987 5.01643 10.1232 4.66639 10.236 4.64383C10.3487 4.62127 10.4164 4.72162 10.439 4.82468C10.4615 4.92775 10.3375 5.10666 10.0551 5.28752C9.77273 5.46837 10.4728 5.11794 10.5747 5.47926C10.6198 5.72779 10.1115 5.79547 10.1115 5.79547C10.1115 5.79547 10.1683 5.99888 10.3262 6.00977C10.4841 6.02066 10.3802 6.10895 10.4141 6.19957C10.4479 6.29019 10.1232 6.43876 9.89719 6.15679C9.67122 5.87481 9.14071 8.05323 9.14071 8.05323C9.14071 8.05323 9.17455 8.22242 9.01664 8.1773C8.85873 8.13219 8.53125 7.12757 8.53125 7.09373Z" fill="#24459C" stroke="#010101" stroke-width="0.0386989"/>
<path d="M9.07869 2.59852C9.07869 2.83811 8.85816 3.40245 8.23587 3.38962C7.50895 3.36861 7.50078 2.76265 7.10796 2.74126C6.47283 2.7152 6.39504 3.70076 6.39504 3.70076C6.40457 3.93534 6.36007 4.16896 6.26499 4.38361C6.1699 4.59826 6.02677 4.78819 5.84664 4.93874C5.31925 5.30823 4.85641 5.38524 4.39047 5.23006C3.92453 5.07487 2.07981 4.84112 2.1576 5.5412C2.23538 6.24129 3.24661 6.47465 3.24661 6.47465C3.24661 6.47465 4.48926 6.68817 4.79963 6.70801C5.11 6.72784 5.81086 6.53299 5.81086 6.53299C5.81086 6.53299 5.65529 6.33852 5.55805 6.18295C5.50982 6.10516 5.83031 6.16117 6.00961 6.11527C6.1889 6.06938 6.1434 5.90875 6.24297 5.87297C5.90732 5.7979 5.65179 5.78662 5.62884 5.48209C5.90109 5.57271 5.9676 5.53381 6.04539 5.49492C6.12317 5.45603 6.28458 5.04842 6.44016 4.91152C6.59573 4.77461 6.45455 4.41757 6.52728 4.3604C6.60079 4.31878 6.70541 4.47708 6.79409 4.53231C6.79409 4.53231 7.38449 4.62799 7.24836 4.89985C7.11224 5.17172 7.46228 4.53114 7.85043 4.57003C8.23859 4.60893 8.72048 4.86096 8.72048 4.86096C8.72048 4.86096 8.79827 5.13321 8.58474 5.13321C8.37122 5.13321 8.66253 5.56104 8.5653 5.59993C8.46806 5.63883 7.45839 5.63883 7.63185 5.91108C7.80532 6.18333 8.29304 6.30002 8.42839 6.28018C8.56374 6.26034 8.60302 6.59133 8.44784 6.63022C8.29265 6.66911 8.02001 6.64967 8.13669 6.7469C8.25337 6.84414 8.50579 7.17473 8.56452 7.13584C8.62325 7.09694 8.87567 7.27196 8.91456 7.54344C8.93709 7.71284 8.92384 7.88509 8.87567 8.04906C8.87567 8.04906 8.58435 7.75813 8.56452 7.66012C8.54468 7.56211 8.58397 8.37848 8.72009 8.3991C8.85622 8.41971 8.81733 8.74914 8.97251 8.71024C9.1277 8.67135 8.62247 8.78803 8.58358 8.71024C8.54468 8.63246 8.29188 8.59356 8.29188 8.45783C8.29188 8.32209 8.1363 8.80787 8.1363 8.80787C8.1363 8.80787 9.82583 10.0894 9.82583 10.07C9.82583 10.0505 10.0631 9.48928 10.3738 9.87821C10.3789 9.956 10.235 10.336 10.235 10.336C10.235 10.336 10.5072 10.5694 10.4295 10.6471C10.3517 10.7249 10.0219 10.744 9.94446 10.686C9.86706 10.6281 10.1389 10.9385 10.0028 11.1139C9.86667 11.2893 9.76944 11.075 9.6722 11.0944C9.57497 11.1139 9.34239 11.0166 9.36106 10.8999C9.37973 10.7833 9.57458 10.6277 9.53569 10.5888C9.4968 10.5499 9.0114 10.6856 8.99118 10.8222C8.97096 10.9587 8.69987 10.3554 8.73876 10.3368C8.77765 10.3181 8.99118 10.2395 9.03007 10.2784C9.06897 10.3173 7.39927 9.52117 7.37982 9.50056C7.36038 9.47995 7.04962 9.46167 6.97183 9.32593C6.89404 9.19019 6.85515 8.8981 6.77736 8.78142C6.69958 8.66474 6.6144 8.32209 6.64124 8.41271L6.77736 8.72386C6.77736 8.72386 6.42732 8.70441 6.23285 8.60718C6.03839 8.50994 5.24263 8.00511 5.18273 8.044C5.12283 8.08289 4.69734 7.73285 4.69734 7.73285L4.79457 7.51933C4.79963 7.4466 4.30918 8.19918 4.2314 8.23769C4.15361 8.27619 3.24117 8.54884 2.98875 8.7822C2.73633 9.01556 2.44424 9.21003 2.58076 9.40449C2.87285 9.15635 3.16416 9.46244 3.18283 9.59896C3.2015 9.73548 2.85573 10.0439 2.73905 9.90816C2.62237 9.77243 2.95258 10.1415 2.89463 10.2193C2.83668 10.2971 2.52592 10.4328 2.50569 10.4138C2.48547 10.3947 2.35012 9.88949 2.35012 9.88949C2.35012 9.88949 2.13659 10.3562 2.21438 10.4729C2.29217 10.5896 1.80678 10.5507 1.80678 10.3173C1.80678 10.084 1.98141 9.88949 1.98141 9.88949C1.98141 9.88949 1.82583 9.61724 1.70915 9.63708C1.59247 9.65691 1.68971 9.19058 2.0203 9.22947C2.3509 9.26837 2.09809 8.35554 2.37034 8.29603C2.6426 8.23652 2.62276 8.43216 2.75928 8.29603C2.89579 8.1599 3.69272 7.01566 3.69272 7.01566C3.69272 7.01566 2.68149 6.97676 2.6601 6.97676C2.63871 6.97676 2.71844 6.84102 2.71844 6.84102C2.71844 6.84102 2.09614 6.82158 2.11637 6.93826C2.13659 7.05494 3.01092 7.48277 2.07747 7.73441C2.14943 7.50105 2.05803 7.34547 2.03858 7.34547C2.01913 7.34547 1.63098 7.09305 1.64965 6.78229C1.66832 6.47154 2.4069 6.51004 2.4069 6.51004C2.4069 6.51004 1.57186 5.90836 1.59014 5.44203C1.60842 4.97569 2.56248 4.56848 2.56248 4.56848C2.56248 4.56848 2.87362 4.37401 2.89268 4.17954C2.91174 3.98508 2.67916 3.28499 3.70945 3.40167C3.47142 3.58214 3.43914 3.77194 3.43914 3.77194C3.43914 3.77194 3.40024 4.54981 3.10932 4.6276C2.8184 4.70538 3.75028 4.66649 3.75028 4.66649C3.8126 4.68108 3.87792 4.67583 3.93712 4.6515C3.99632 4.62717 4.04644 4.58495 4.08049 4.53075C4.21623 4.33628 3.96381 3.6362 4.87664 3.59731C4.68684 3.86956 4.70162 4.0827 4.70162 4.0827C4.70162 4.0827 4.87819 4.66649 4.29479 4.86096C3.71139 5.05542 5.73191 5.15227 5.78986 4.22038C5.84781 3.28849 5.50049 3.03958 5.25429 3.03958C4.96882 3.03958 4.21506 3.37562 3.98287 3.20876C3.23183 2.76732 3.68533 2.05401 3.226 1.84982C3.68533 1.7172 3.82807 2.45617 4.28196 2.62458C4.57288 2.76071 5.7179 1.74831 5.99327 3.1302C6.20096 2.44334 7.39344 2.28738 7.39344 2.28738C8.27476 2.27454 8.58591 3.32466 9.07869 2.59852Z" fill="#24459C" stroke="#010101" stroke-width="0.0386989"/>
<path d="M7.85394 6.04291C7.86522 6.04291 7.87689 5.89628 8.48635 5.85116C9.09581 5.80605 8.96046 5.41089 9.01685 5.26387C9.07325 5.11686 9.27666 5.52368 9.26538 5.6917C9.2541 5.85972 8.87022 6.15453 8.46379 6.17709C8.05735 6.19965 7.84266 6.03163 7.85394 6.04291Z" fill="#D51F27" stroke="black" stroke-width="0.0386989"/>
<path d="M6.90472 4.9043C6.90472 4.9043 6.85961 5.29907 6.89344 5.32162" stroke="#010101" stroke-width="0.0386989"/>
<path d="M6.80341 4.55469C6.80341 4.55469 6.44209 4.98252 6.52105 5.19837C6.6 5.41423 6.88237 5.76272 6.89365 5.85295C6.90493 5.94318 7.01655 5.63982 7.01655 5.63982" stroke="#010101" stroke-width="0.0386989"/>
<path d="M7.02969 6.08789C7.02969 6.08789 7.04097 6.28002 6.87139 6.26836C6.70181 6.25669 7.16504 6.28002 7.14364 6.46049C7.12225 6.64096 6.83872 6.58456 6.83872 6.58456" stroke="#010101" stroke-width="0.0386989"/>
<path d="M7.23222 6.80078C7.221 6.80078 7.18733 6.98034 7.37851 6.96912" stroke="#010101" stroke-width="0.0386989"/>
<path d="M6.26234 6.37109C6.26234 6.37109 6.01382 6.57412 5.86719 6.54028" stroke="#010101" stroke-width="0.0386989"/>
<path d="M6.10339 6.46094C6.10339 6.46094 5.9906 7.21742 5.82142 7.31893C5.65223 7.42044 6.23874 7.30765 6.3632 7.02567C6.48766 6.74369 6.43088 7.59002 6.12595 7.89494C6.46471 7.73664 6.66813 7.92878 6.80348 7.30765C6.7922 8.36905 7.31142 8.68526 7.31142 8.68526L7.37949 8.33521" stroke="#010101" stroke-width="0.0386989" stroke-linejoin="round"/>
<path d="M7.21177 7.54521C7.20049 7.55649 7.302 8.22234 7.62949 8.18851C7.95697 8.15467 7.48247 7.3418 7.48247 7.3418" stroke="#010101" stroke-width="0.0386989"/>
<path d="M7.86523 7.38867C7.86523 7.38867 7.86523 7.91957 8.02314 7.93085C8.18105 7.94213 7.96675 7.41162 7.96675 7.41162" stroke="#010101" stroke-width="0.0386989"/>
<path d="M8.19141 7.41016C8.19141 7.41016 8.39482 8.02001 8.3042 8.40388" stroke="#010101" stroke-width="0.0386989"/>
<path d="M7.79688 8.39258C7.84199 8.46025 8.03412 8.8103 8.14692 8.85541" stroke="#010101" stroke-width="0.0386989"/>
<path d="M7.34576 6.15625C7.34576 6.15625 7.24425 6.72059 8.0684 6.6642" stroke="#010101" stroke-width="0.0386989"/>
<path d="M4.24092 8.26674C4.29092 8.32484 4.32705 8.39355 4.34659 8.46766C4.36614 8.54178 4.36857 8.61937 4.35371 8.69457C4.29731 8.9431 4.06006 9.22508 3.92588 9.31687C3.7917 9.40865 4.83871 9.98311 5.11097 9.92672C5.38322 9.87032 4.70453 9.97144 4.78348 10.141C4.86244 10.3106 4.97562 10.4568 5.13352 10.4133C5.29143 10.3697 5.34783 10.1313 5.34783 10.1313C5.34783 10.1313 5.18953 10.5941 5.32527 10.7408C5.46101 10.8874 5.87833 10.7408 5.87833 10.7408C5.87833 10.7408 5.77682 10.3907 5.67531 10.3343C5.5738 10.2779 6.09264 10.5265 6.1152 10.8197C6.13775 11.113 6.2836 10.6715 6.49907 10.6167C6.48779 10.5941 6.32989 10.323 6.27349 10.3343C6.2171 10.3456 6.42012 10.1196 6.53291 10.1426C6.6457 10.1655 6.55547 9.79253 6.56675 9.79253C6.57803 9.79253 6.0024 9.76997 5.96857 9.973C5.93473 10.176 5.12186 9.52145 5.06546 9.30714C5.00906 9.09284 5.4155 8.97927 5.38166 8.66346C5.34783 8.34764 5.24593 8.14423 5.14441 8.06489L4.64774 7.71484L4.24092 8.26674Z" fill="#24459C" stroke="#010101" stroke-width="0.0386989"/>
<path d="M4.34375 8.17705C4.37759 8.16577 5.23597 8.10938 5.23597 8.10938" stroke="#010101" stroke-width="0.0386989"/>
<path d="M6.6582 9.86862C6.71382 9.85462 6.88184 9.87096 6.83672 10.1759C6.73599 10.0452 6.72004 10.0833 6.6687 10.088L6.6582 9.86862Z" fill="#ED2224" stroke="#010101" stroke-width="0.0386989"/>
<path d="M6.49014 10.7335C6.54382 10.7533 6.67333 10.8618 6.46409 11.0882C6.45475 10.9236 6.40108 10.9271 6.35635 10.9023C6.34079 10.8058 6.3898 10.7125 6.49014 10.7335Z" fill="#ED2224" stroke="#010101" stroke-width="0.0386989"/>
<path d="M5.64707 10.8672C5.67157 10.9189 5.72991 11.1429 5.42188 11.1577C5.46544 11.0196 5.44793 10.9691 5.43354 10.9201L5.64707 10.8672Z" fill="#ED2224" stroke="#010101" stroke-width="0.0386989"/>
<path d="M4.71201 10.2129C4.65756 10.2304 4.52338 10.3331 4.7229 10.568C4.73963 10.4039 4.77347 10.4276 4.81936 10.4046L4.71201 10.2129Z" fill="#ED2224" stroke="#010101" stroke-width="0.0386989"/>
<path d="M8.71542 10.5031C8.65981 10.4891 8.49179 10.5101 8.5369 10.8143C8.63764 10.684 8.7512 10.7175 8.80216 10.7221L8.71542 10.5031Z" fill="#ED2224" stroke="#010101" stroke-width="0.0386989"/>
<path d="M9.78984 11.2001C9.78284 11.2573 9.69766 11.4358 9.42969 11.2841C9.55065 11.2324 9.56698 11.1803 9.58137 11.1309L9.78984 11.2001Z" fill="#ED2224" stroke="#010101" stroke-width="0.0386989"/>
<path d="M10.4984 10.6719C10.5373 10.7135 10.6065 10.8663 10.3191 10.9791C10.3829 10.8271 10.3417 10.8317 10.3125 10.7897L10.4984 10.6719Z" fill="#ED2224" stroke="#010101" stroke-width="0.0386989"/>
<path d="M9.41536 4.57222C9.40174 4.47537 9.41808 4.18328 9.723 4.26107C9.59232 4.43687 9.63083 4.46565 9.6351 4.55471L9.41536 4.57222Z" fill="#ED2224" stroke="#010101" stroke-width="0.0321201"/>
<path d="M10.4354 9.91406C10.4929 9.91406 10.6516 9.9724 10.5318 10.2563C10.4665 10.1046 10.4412 10.1377 10.3906 10.1295L10.4354 9.91406Z" fill="#ED2224" stroke="#010101" stroke-width="0.0386989"/>
<path d="M3.30266 9.61133C3.35711 9.62883 3.52824 9.68056 3.40261 9.93414C3.34 9.80696 3.24082 9.82602 3.19531 9.80307L3.30266 9.61133Z" fill="#ED2224" stroke="#010101" stroke-width="0.0386989"/>
<path d="M2.87682 10.3828C2.90871 10.447 2.95461 10.6722 2.67379 10.7764C2.75158 10.5773 2.68857 10.5485 2.66602 10.4855L2.87682 10.3828Z" fill="#ED2224" stroke="#010101" stroke-width="0.0278632"/>
<path d="M2.14343 10.6451C2.14343 10.7027 2.08393 10.861 1.80078 10.74C1.95247 10.6755 1.9198 10.6498 1.92835 10.5996L2.14343 10.6451Z" fill="#ED2224" stroke="#010101" stroke-width="0.0386989"/>
<path d="M1.60785 9.37194C1.55885 9.34238 1.39316 9.30893 1.34766 9.61386C1.48184 9.51818 1.48651 9.5594 1.53396 9.57846L1.60785 9.37194Z" fill="#ED2224" stroke="#010101" stroke-width="0.0386989"/>
<path d="M10.3164 4.6051C10.3915 4.5417 10.6486 4.39974 10.7442 4.7C10.526 4.68289 10.5218 4.73034 10.449 4.78129L10.3164 4.6051Z" fill="#ED2224" stroke="#010101" stroke-width="0.0321201"/>
<path d="M10.5645 5.53103C10.6586 5.50303 10.9185 5.36534 10.7201 5.12109C10.6151 5.31556 10.5727 5.29067 10.4902 5.32373L10.5645 5.53103Z" fill="#ED2224" stroke="#010101" stroke-width="0.0321201"/>
<path d="M10.4879 6.24265C10.5618 6.24615 10.7808 6.21348 10.7006 5.99023C10.5777 6.1003 10.5532 6.07386 10.4863 6.07658L10.4879 6.24265Z" fill="#ED2224" stroke="#010101" stroke-width="0.0239933"/>
<path d="M7.82425 5.18757C7.9192 5.18757 7.99616 5.1106 7.99616 5.01566C7.99616 4.92072 7.9192 4.84375 7.82425 4.84375C7.72931 4.84375 7.65234 4.92072 7.65234 5.01566C7.65234 5.1106 7.72931 5.18757 7.82425 5.18757Z" stroke="#010101" stroke-width="0.0580484"/>
<path d="M7.4707 5.17804C7.52645 5.12093 7.57842 5.06026 7.62628 4.99641C7.69745 4.89917 7.81413 4.78249 8.00199 4.88634C8.04749 4.90578 8.07355 4.93807 8.15134 4.9509" stroke="#010101" stroke-width="0.0386989"/>
<path d="M8.64453 16.2151L9.65187 15.0654C9.65187 15.0654 9.79422 14.8903 9.81639 14.7258C9.83856 14.5613 9.46635 14.298 9.44418 14.1455C9.45411 14.0447 9.48038 13.9462 9.52197 13.8538C9.59853 13.8468 9.67574 13.8529 9.75027 13.8717C9.92529 14.058 9.85956 14.2218 9.85956 14.2661C9.85956 14.3104 10.0676 14.2004 10.0676 14.2004C10.0676 14.2004 10.1882 13.8612 10.2979 13.8391C10.4076 13.8169 10.4729 13.9168 10.4947 14.0141C10.5165 14.1113 10.3963 14.2863 10.1225 14.4633C9.84867 14.6403 10.5278 14.2988 10.6262 14.6492C10.6701 14.8903 10.1769 14.9561 10.1769 14.9561C10.1769 14.9561 10.2322 15.1533 10.385 15.1638C10.5379 15.1743 10.4379 15.2602 10.4706 15.3481C10.5033 15.436 10.1882 15.5815 9.96924 15.3065C9.75027 15.0315 9.23532 17.1462 9.23532 17.1462C9.23532 17.1462 9.26838 17.3103 9.11514 17.2667C8.9619 17.2232 8.64453 16.2481 8.64453 16.2151Z" fill="#24459C" stroke="#010101" stroke-width="0.037538" stroke-miterlimit="3.88"/>
<path d="M9.17346 11.8552C9.17346 12.0886 8.95955 12.635 8.3567 12.6222C7.65156 12.602 7.64378 12.0139 7.26263 11.9937C6.64655 11.9684 6.5711 12.924 6.5711 12.924C6.58019 13.1513 6.53698 13.3776 6.4448 13.5856C6.35262 13.7935 6.21394 13.9776 6.03943 14.1235C5.52759 14.4821 5.07876 14.5563 4.62682 14.4058C4.17487 14.2553 2.38539 14.0293 2.46045 14.7073C2.53551 15.3852 3.51602 15.6111 3.51602 15.6111C3.51602 15.6111 4.72172 15.8184 5.02275 15.8375C5.32379 15.8566 6.00209 15.6679 6.00209 15.6679C6.00209 15.6679 5.85118 15.4797 5.75706 15.3288C5.71 15.2533 6.02231 15.3078 6.195 15.263C6.36769 15.2183 6.32452 15.0631 6.42058 15.0297C6.09504 14.957 5.84729 14.9461 5.82474 14.6509C6.0896 14.7384 6.15377 14.7006 6.22923 14.6629C6.30468 14.6252 6.46259 14.23 6.61194 14.0982C6.76129 13.9663 6.62594 13.6194 6.69673 13.5638C6.7679 13.5249 6.86902 13.675 6.95537 13.7303C6.95537 13.7303 7.52788 13.8236 7.39603 14.0869C7.26418 14.3502 7.60333 13.7291 7.97943 13.7668C8.35553 13.8045 8.82692 14.0496 8.82692 14.0496C8.82692 14.0496 8.90238 14.3133 8.69507 14.3133C8.48777 14.3133 8.77053 14.7275 8.6764 14.7652C8.58228 14.8029 7.60256 14.8041 7.77213 15.0662C7.94171 15.3284 8.41271 15.4431 8.54456 15.4245C8.6764 15.4058 8.71374 15.7259 8.56322 15.7636C8.41271 15.8013 8.14901 15.7823 8.2618 15.8764C8.37459 15.9705 8.62001 16.291 8.6764 16.2533C8.7328 16.2155 8.97783 16.3851 9.01517 16.6488C9.03643 16.813 9.02318 16.9798 8.97627 17.1385C8.97627 17.1385 8.69352 16.8561 8.67485 16.7616C8.65618 16.6671 8.69352 17.4586 8.82537 17.4776C8.95721 17.4967 8.91949 17.8164 9.07001 17.7787C9.22052 17.7409 8.73124 17.8541 8.69352 17.7787C8.65579 17.7032 8.41076 17.6659 8.41076 17.534C8.41076 17.4022 8.26024 17.8732 8.26024 17.8732C8.26024 17.8732 9.89883 19.1178 9.89883 19.0976C9.89883 19.0773 10.1275 18.5402 10.4289 18.9171C10.4336 18.9929 10.2944 19.3613 10.2944 19.3613C10.2944 19.3613 10.5581 19.5872 10.4826 19.6627C10.4072 19.7381 10.089 19.7572 10.0112 19.6985C9.93344 19.6397 10.1995 19.9435 10.0676 20.1131C9.93577 20.2826 9.84165 20.0742 9.74753 20.094C9.65341 20.1138 9.42744 20.0189 9.44611 19.9058C9.46478 19.7926 9.65341 19.6421 9.61568 19.6043C9.57795 19.5666 9.10696 19.6985 9.08829 19.8303C9.06962 19.9622 8.80553 19.3784 8.84442 19.3597C8.88332 19.341 9.08906 19.2652 9.12679 19.3033C9.16452 19.3414 7.54538 18.5686 7.52671 18.5515C7.50804 18.5344 7.20662 18.5126 7.13117 18.3823C7.05571 18.252 7.01643 17.9658 6.94253 17.8514C6.86864 17.7371 6.78463 17.4057 6.81068 17.4936L6.94253 17.7946C6.94253 17.7946 6.60377 17.776 6.41514 17.6818C6.2265 17.5877 5.45447 17.0984 5.39807 17.1354C5.34168 17.1723 4.92746 16.8343 4.92746 16.8343L5.02158 16.627C5.02664 16.5566 4.55058 17.2863 4.47708 17.3236C4.40357 17.361 3.51602 17.627 3.26982 17.8514C3.02363 18.0758 2.74243 18.2672 2.87428 18.4554C3.15742 18.2151 3.4394 18.5118 3.45768 18.6441C3.47596 18.7763 3.1372 19.0769 3.02441 18.9455C2.91161 18.814 3.23171 19.1715 3.17492 19.2469C3.11814 19.3224 2.8171 19.4538 2.79843 19.4351C2.77977 19.4165 2.64753 18.9264 2.64753 18.9264C2.64753 18.9264 2.44061 19.3788 2.51568 19.4915C2.59074 19.6043 2.12013 19.567 2.12013 19.3406C2.12013 19.1143 2.28971 18.9264 2.28971 18.9264C2.28971 18.9264 2.13919 18.6627 2.02601 18.6814C1.91283 18.7001 2.00734 18.2485 2.32743 18.2862C2.64753 18.324 2.40289 17.4387 2.66659 17.382C2.93028 17.3252 2.91122 17.5138 3.04307 17.382C3.17492 17.2501 3.95124 16.1401 3.95124 16.1401C3.95124 16.1401 2.96879 16.1012 2.94973 16.1012C2.93067 16.1012 3.00651 15.9693 3.00651 15.9693C3.00651 15.9693 2.40367 15.9507 2.42311 16.0635C2.44256 16.1763 3.28966 16.5913 2.38422 16.8359C2.45384 16.6115 2.36555 16.459 2.34532 16.459C2.3251 16.459 1.94978 16.2144 1.96884 15.9145C1.98789 15.6146 2.70314 15.6508 2.70314 15.6508C2.70314 15.6508 1.89338 15.0674 1.91244 14.6151C1.9315 14.1627 2.85483 13.7676 2.85483 13.7676C2.85483 13.7676 3.15625 13.5793 3.17492 13.3911C3.19359 13.2029 2.9684 12.523 3.96679 12.6358C3.73343 12.8093 3.7031 12.9936 3.7031 12.9936C3.7031 12.9936 3.6642 13.747 3.383 13.822C3.1018 13.8971 4.0053 13.8609 4.0053 13.8609C4.06567 13.8748 4.12886 13.8696 4.18609 13.8458C4.24332 13.8221 4.29174 13.7812 4.32461 13.7287C4.45646 13.5405 4.21182 12.8625 5.09704 12.8248C4.91268 13.0897 4.92746 13.2954 4.92746 13.2954C4.92746 13.2954 5.09704 13.8605 4.53192 14.0488C3.96679 14.237 5.92586 14.3315 5.98225 13.4265C6.03865 12.5214 5.70261 12.2826 5.4638 12.2826C5.18688 12.2826 4.45568 12.609 4.23049 12.4472C3.50202 12.0193 3.9419 11.327 3.49618 11.1287C3.9419 10.9999 4.07959 11.7167 4.52064 11.8805C4.803 12.0123 5.91341 11.0303 6.18061 12.3709C6.38208 11.7047 7.53877 11.5542 7.53877 11.5542C8.39365 11.5409 8.69546 12.5596 9.17346 11.8552Z" fill="#24459C" stroke="#010101" stroke-width="0.037538" stroke-miterlimit="3.88"/>
<path d="M7.98478 15.198C7.99567 15.198 8.00656 15.0556 8.59813 15.0117C9.1897 14.9677 9.05785 14.5839 9.11269 14.4423C9.16753 14.3007 9.36472 14.6943 9.35345 14.8584C9.34217 15.0226 8.97034 15.3077 8.57558 15.3294C8.18081 15.3512 7.97389 15.1871 7.98478 15.198Z" fill="#D51F27" stroke="black" stroke-width="0.037538" stroke-miterlimit="3.88"/>
<path d="M7.06618 14.0898C7.06618 14.0898 7.02223 14.4733 7.05529 14.4951" stroke="#010101" stroke-width="0.037538" stroke-miterlimit="3.88"/>
<path d="M6.96713 13.752C6.96713 13.752 6.61709 14.1677 6.69487 14.3762C6.77266 14.5847 7.04491 14.9234 7.05619 15.0109C7.06747 15.0984 7.17637 14.8032 7.17637 14.8032" stroke="#010101" stroke-width="0.037538" stroke-miterlimit="3.88"/>
<path d="M7.18667 15.2402C7.18667 15.2402 7.19756 15.4261 7.03109 15.4153C6.86463 15.4044 7.31579 15.4261 7.29401 15.6012C7.27223 15.7762 6.99842 15.7217 6.99842 15.7217" stroke="#010101" stroke-width="0.037538" stroke-miterlimit="3.88"/>
<path d="M7.38421 15.9297C7.37337 15.9297 7.34087 16.1042 7.52624 16.0934" stroke="#010101" stroke-width="0.037538" stroke-miterlimit="3.88"/>
<path d="M6.44404 15.5137C6.44404 15.5137 6.20329 15.7109 6.06055 15.6782" stroke="#010101" stroke-width="0.037538" stroke-miterlimit="3.88"/>
<path d="M6.28958 15.6016C6.28958 15.6016 6.1799 16.3351 6.01733 16.4339C5.85475 16.5327 6.42221 16.4226 6.54317 16.1492C6.66413 15.8758 6.60851 16.6964 6.31292 16.9924C6.64157 16.8388 6.83876 17.0251 6.96983 16.4226C6.95894 17.4521 7.463 17.759 7.463 17.759L7.52873 17.4194" stroke="#010101" stroke-width="0.037538" stroke-linejoin="round"/>
<path d="M7.36408 16.6538C7.35319 16.6647 7.45159 17.3107 7.76935 17.2761C8.08711 17.2415 7.627 16.4551 7.627 16.4551" stroke="#010101" stroke-width="0.037538" stroke-miterlimit="3.88"/>
<path d="M7.99805 16.5C7.99805 16.5 7.99805 17.0149 8.15129 17.0258C8.30453 17.0367 8.09684 16.5222 8.09684 16.5222" stroke="#010101" stroke-width="0.037538" stroke-miterlimit="3.88"/>
<path d="M8.31445 16.5215C8.31445 16.5215 8.51164 17.1131 8.42413 17.4853" stroke="#010101" stroke-width="0.037538" stroke-miterlimit="3.88"/>
<path d="M7.93164 17.4746C7.97559 17.5403 8.1615 17.8799 8.27118 17.9238" stroke="#010101" stroke-width="0.037538" stroke-miterlimit="3.88"/>
<path d="M7.49412 15.3066C7.49412 15.3066 7.39533 15.8539 8.1942 15.7994" stroke="#010101" stroke-width="0.037538" stroke-miterlimit="3.88"/>
<path d="M4.48214 17.3551C4.53094 17.4115 4.56617 17.4783 4.58511 17.5505C4.60406 17.6226 4.60622 17.6981 4.59143 17.7712C4.53698 18.012 4.30673 18.2858 4.17566 18.3733C4.04459 18.4608 5.06243 19.0197 5.32535 18.9649C5.58827 18.91 4.93097 19.0084 5.00759 19.1726C5.08421 19.3367 5.19389 19.4794 5.34713 19.4355C5.50037 19.3915 5.55521 19.1632 5.55521 19.1632C5.55521 19.1632 5.39964 19.6121 5.53304 19.7544C5.66645 19.8968 6.06977 19.7544 6.06977 19.7544C6.06977 19.7544 5.97098 19.4153 5.87258 19.3604C5.77418 19.3056 6.27785 19.5467 6.30041 19.8314C6.32297 20.1161 6.46376 19.6875 6.67262 19.6342C6.66173 19.6121 6.50849 19.3495 6.45365 19.362C6.39881 19.3744 6.596 19.1539 6.70568 19.1757C6.81536 19.1975 6.72746 18.8362 6.73835 18.8362C6.74924 18.8362 6.19073 18.8144 6.15806 19.0116C6.12539 19.2088 5.33663 18.5736 5.28218 18.3655C5.22773 18.1575 5.62172 18.0478 5.58866 17.7413C5.5556 17.4348 5.4572 17.2357 5.3588 17.1606L4.87807 16.8184L4.48214 17.3551Z" fill="#24459C" stroke="#010101" stroke-width="0.037538" stroke-miterlimit="3.88"/>
<path d="M4.58203 17.2689C4.6147 17.2576 5.44702 17.2031 5.44702 17.2031" stroke="#010101" stroke-width="0.037538" stroke-miterlimit="3.88"/>
<path d="M6.82812 18.9075C6.8818 18.8942 7.04476 18.9098 7.0012 19.2058C6.90358 19.0794 6.88724 19.1159 6.83785 19.1206L6.82812 18.9075Z" fill="#ED2224" stroke="#010101" stroke-width="0.037538" stroke-miterlimit="3.88"/>
<path d="M6.66392 19.7474C6.71603 19.7665 6.84166 19.8719 6.63864 20.0912C6.6293 19.9318 6.57718 19.9357 6.53401 19.9112C6.51884 19.8163 6.56668 19.7256 6.66392 19.7474Z" fill="#ED2224" stroke="#010101" stroke-width="0.037538" stroke-miterlimit="3.88"/>
<path d="M5.84553 19.875C5.86887 19.9252 5.92565 20.1422 5.62695 20.157C5.66935 20.0228 5.65223 19.9738 5.63823 19.9263L5.84553 19.875Z" fill="#ED2224" stroke="#010101" stroke-width="0.037538" stroke-miterlimit="3.88"/>
<path d="M4.93988 19.2402C4.88659 19.2573 4.75669 19.3569 4.95038 19.5848C4.96632 19.4258 4.99938 19.4487 5.04372 19.4261L4.93988 19.2402Z" fill="#ED2224" stroke="#010101" stroke-width="0.037538" stroke-miterlimit="3.88"/>
<path d="M8.82309 19.5246C8.76903 19.5109 8.60606 19.5312 8.65001 19.8271C8.74764 19.7007 8.85809 19.733 8.90749 19.7373L8.82309 19.5246Z" fill="#ED2224" stroke="#010101" stroke-width="0.037538" stroke-miterlimit="3.88"/>
<path d="M9.86567 20.2001C9.85867 20.2553 9.77621 20.4288 9.51562 20.2814C9.63231 20.2312 9.64903 20.1807 9.66264 20.1328L9.86567 20.2001Z" fill="#ED2224" stroke="#010101" stroke-width="0.037538" stroke-miterlimit="3.88"/>
<path d="M10.5531 19.6855C10.592 19.7244 10.6581 19.8757 10.3793 19.9835C10.4411 19.8361 10.4011 19.8403 10.373 19.7999L10.5531 19.6855Z" fill="#ED2224" stroke="#010101" stroke-width="0.037538" stroke-miterlimit="3.88"/>
<path d="M9.5012 13.7686C9.48797 13.6745 9.50392 13.3894 9.79951 13.4661C9.67311 13.6364 9.71006 13.6648 9.71433 13.7508L9.5012 13.7686Z" fill="#ED2224" stroke="#010101" stroke-width="0.0309591" stroke-miterlimit="3.88"/>
<path d="M10.4908 18.9512C10.5464 18.9512 10.7001 19.008 10.5842 19.2833C10.5208 19.1363 10.4963 19.1666 10.4473 19.16L10.4908 18.9512Z" fill="#ED2224" stroke="#010101" stroke-width="0.037538" stroke-miterlimit="3.88"/>
<path d="M3.57455 18.6562C3.62744 18.6734 3.79352 18.7235 3.67178 18.9697C3.61072 18.8464 3.51621 18.8647 3.4707 18.8425L3.57455 18.6562Z" fill="#ED2224" stroke="#010101" stroke-width="0.037538" stroke-miterlimit="3.88"/>
<path d="M3.15732 19.4062C3.18843 19.4685 3.2351 19.6867 2.96051 19.7878C3.03558 19.5933 2.97491 19.5669 2.95312 19.5058L3.15732 19.4062Z" fill="#ED2224" stroke="#010101" stroke-width="0.0267023" stroke-miterlimit="3.88"/>
<path d="M2.44973 19.6596C2.44973 19.7152 2.39178 19.8688 2.11719 19.7514C2.26459 19.6891 2.23387 19.6642 2.24087 19.6152L2.44973 19.6596Z" fill="#ED2224" stroke="#010101" stroke-width="0.037538" stroke-miterlimit="3.88"/>
<path d="M1.9282 18.4261C1.88075 18.3974 1.72012 18.3651 1.67578 18.6595C1.80607 18.5669 1.81074 18.607 1.85664 18.6253L1.9282 18.4261Z" fill="#ED2224" stroke="#010101" stroke-width="0.037538" stroke-miterlimit="3.88"/>
<path d="M10.375 13.8014C10.4481 13.7404 10.6974 13.6023 10.79 13.8936C10.578 13.8769 10.5741 13.9232 10.5033 13.9714L10.375 13.8014Z" fill="#ED2224" stroke="#010101" stroke-width="0.0309591" stroke-miterlimit="3.88"/>
<path d="M10.618 14.6983C10.7091 14.671 10.9611 14.5376 10.7682 14.3008C10.6659 14.4875 10.625 14.4653 10.5449 14.4952L10.618 14.6983Z" fill="#ED2224" stroke="#010101" stroke-width="0.0309591" stroke-miterlimit="3.88"/>
<path d="M10.5402 15.3911C10.6118 15.3946 10.8242 15.3631 10.7468 15.1465C10.6277 15.2534 10.604 15.2274 10.5391 15.2301L10.5402 15.3911Z" fill="#ED2224" stroke="#010101" stroke-width="0.0232194" stroke-miterlimit="3.88"/>
<path d="M7.95748 14.3661C8.04942 14.3661 8.12394 14.2916 8.12394 14.1997C8.12394 14.1077 8.04942 14.0332 7.95748 14.0332C7.86554 14.0332 7.79102 14.1077 7.79102 14.1997C7.79102 14.2916 7.86554 14.3661 7.95748 14.3661Z" stroke="#010101" stroke-width="0.0565004" stroke-miterlimit="3.88"/>
<path d="M7.61523 14.3573C7.66936 14.3021 7.71978 14.2434 7.76614 14.1815C7.83498 14.087 7.94816 13.9738 8.13057 14.0746C8.17452 14.0932 8.1998 14.1247 8.27526 14.1372" stroke="#010101" stroke-width="0.037538" stroke-miterlimit="3.88"/>
</g>
<defs>
<clipPath id="clip0_634_21327">
<rect width="20.5358" height="24" fill="white" transform="translate(0.599609)"/>
</clipPath>
</defs>
</svg>
