<svg width="21" height="24" viewBox="0 0 21 24" fill="none" xmlns="http://www.w3.org/2000/svg">
<g clip-path="url(#clip0_634_21487)">
<path d="M10.5937 23.963C6.35839 24.0176 2.80127 21.9752 1.0241 17.9419C0.422058 16.5756 0.357493 15.3458 0.308663 13.8975L0.308594 0H20.885V13.8975C20.836 15.3456 20.7715 16.5756 20.1694 17.9419C18.3926 21.9742 14.8275 24.0162 10.5936 23.963H10.5937Z" fill="black"/>
<path d="M20.5986 13.8896L20.5986 0.287109H0.597656V13.8924C0.643893 15.2982 0.704066 16.4996 1.2883 17.8254C3.01529 21.7446 6.46317 23.7279 10.593 23.6747C14.7228 23.7279 18.1803 21.7446 19.9073 17.8254C20.4924 16.4971 20.5509 15.2975 20.5986 13.8896" fill="#0094CB"/>
<path d="M1.6919 4.79053C1.6919 4.79053 1.6451 4.73689 1.63615 4.70345C1.58313 4.50531 1.73202 4.37787 1.97107 4.47363C2.21662 4.44724 2.36167 4.23472 2.18366 4.11596C2.07887 4.07594 1.82235 4.02559 1.79811 3.91658C1.78493 3.70554 1.98825 3.78367 2.1443 3.69233C2.31577 3.59186 2.24982 3.46656 2.46895 3.44017C2.65363 3.42039 2.66176 3.62852 2.63382 3.82441C2.61628 4.14525 2.90576 4.04357 2.97524 3.91059C3.02449 3.57885 2.80024 3.42716 3.07719 3.35481C3.19257 3.32459 3.29636 3.63184 3.47599 3.71903C3.67987 3.81811 3.80728 3.66625 3.91276 3.81137C4.03651 4.003 3.91276 4.07667 3.70086 4.24873C3.6963 4.31102 3.61143 4.47733 4.0686 4.75564C4.10921 4.77131 4.19297 4.79078 4.19297 4.79078H1.69214L1.6919 4.79053ZM6.86095 9.44185C6.09047 9.59638 5.1003 9.59524 4.48566 9.17887C4.70434 9.08943 4.98548 8.94317 5.10196 8.7414C5.25099 8.48309 5.50944 8.09539 5.88718 7.92641C5.65556 7.64486 5.52784 7.41189 5.47655 7.18771H13.3764C13.3352 7.54937 13.3745 7.88495 13.6604 8.54275C13.5014 8.49309 13.3405 8.42675 13.1735 8.23463C13.2708 8.51498 13.4325 8.91301 13.3664 9.44192H6.86098L6.86095 9.44185ZM15.4632 4.79088C16.1337 4.25015 17.1963 3.90751 17.8157 3.42357C18.1491 3.16318 18.151 2.93243 18.0841 2.77745C17.6964 2.52896 17.925 2.20092 18.1139 2.12141C18.4702 1.97142 18.929 1.93255 19.3465 2.20092C19.6909 2.42227 20.0026 2.97625 19.4061 3.68199C19.0058 4.15566 18.0253 4.503 17.597 4.69601C17.5302 4.7261 17.4603 4.75768 17.3884 4.79102L15.4632 4.79088ZM15.9708 7.18761C16.0371 7.28832 16.1159 7.38592 16.2056 7.47892C16.9508 8.25099 17.6169 8.65065 18.1967 9.44171H16.9895C16.6231 9.15933 16.1328 8.82095 15.4399 8.0853C15.2595 7.89387 15.0516 7.46654 14.8468 7.18761H15.9708ZM5.47676 7.18761C5.52805 7.41179 5.65577 7.64468 5.88739 7.92627C5.50965 8.09526 5.25116 8.48309 5.10217 8.74127C5.08599 8.76935 5.06662 8.79633 5.04462 8.82223C4.72326 8.64021 5.16093 8.20686 4.96293 7.84694C4.80471 8.11615 4.6489 8.29827 4.49576 8.39365C4.58132 8.12787 4.51502 7.91254 4.41625 7.66799C4.29112 7.78783 4.15776 8.04573 4.17768 8.34392C3.84965 8.05562 3.78224 7.89999 3.82976 7.34992C3.54993 7.54854 3.34281 7.5686 3.01466 7.38972C3.13225 7.34691 3.21906 7.27587 3.27893 7.18765L5.47676 7.18761ZM1.845 12.0623H7.8351C7.64827 12.2614 7.40462 12.603 7.39159 12.856C7.2399 12.7373 7.25546 12.5733 7.17242 12.2264C7.04051 12.6911 6.7637 13.0059 6.41754 13.2284C6.47031 12.95 6.4505 12.6911 6.37137 12.4983C6.22473 13.1411 5.84073 13.4658 5.5358 13.6783C5.6557 13.4236 5.71508 12.9102 5.59514 12.579C5.5028 13.0224 5.07751 13.4373 4.93914 13.4855C4.94796 13.3274 5.066 12.9498 4.72157 12.6449C4.22389 12.307 4.0095 12.7052 4.27023 12.8905C4.54864 13.0884 4.5218 13.2803 4.237 13.2612C4.14476 13.2147 4.03537 13.2217 3.9783 13.314C3.82834 13.5725 3.58556 13.6235 3.59406 13.0685C3.52659 12.7834 3.06533 12.9463 3.14412 13.2085L3.23639 13.3074C3.46216 13.4921 3.36214 13.7548 3.0913 13.6917C2.98824 13.6273 2.74338 13.6353 2.65958 13.7378C2.40082 13.8038 2.41403 13.5862 2.5145 13.3207C2.54089 13.1741 2.07613 13.0159 2.16346 13.4591C2.22952 13.8197 1.74568 13.9995 1.81243 13.52C1.85669 13.4299 1.71196 13.1608 1.50756 13.0883C1.36642 12.9737 1.45983 12.7175 1.64874 12.7452C1.82802 12.7715 1.97733 12.7768 2.15032 12.724C2.3599 12.6601 2.31529 12.2583 2.05646 12.3929C1.77805 12.5379 1.54048 12.3334 1.7252 12.167C1.76141 12.1425 1.80599 12.1064 1.84476 12.0622L1.845 12.0623ZM4.48936 19.3999C4.60035 19.2776 4.81871 19.3711 4.85347 19.1452C4.93921 18.5881 5.21768 18.5091 5.54233 18.814C5.98474 19.0627 6.25326 18.9136 6.41041 18.636C6.49352 18.4895 6.86814 17.5735 6.98269 16.9275H9.52571C9.55082 16.9407 9.57669 16.9515 9.60322 16.9596C10.0623 17.0993 10.4929 17.1771 10.6774 17.0849C10.6972 17.4293 10.3132 17.754 10.0677 17.8265C10.2803 17.8859 10.4203 17.899 10.5389 18.2765C10.3198 18.2105 10.089 18.3308 9.95536 18.4295C9.77555 18.5623 9.55169 18.662 9.29956 18.5286C9.41826 18.8203 9.47916 19.0592 9.23361 19.4433C9.11976 18.9799 8.74596 18.944 8.51829 18.8995C8.64127 19.0458 8.69433 19.2301 8.69713 19.3997H4.48884L4.48936 19.3999ZM16.3221 16.9275C16.7681 16.9672 17.2842 16.9562 17.5171 16.7134C17.537 17.0314 17.505 17.3072 17.0698 17.5583C17.4755 17.9628 17.5171 18.2441 17.4674 18.612C17.1394 18.3335 16.8508 18.3623 16.4734 18.5324C16.7165 18.9223 16.7617 19.0792 16.7219 19.5563C16.4678 19.326 16.2229 19.2987 16.0776 19.3997H14.0696C14.0854 19.301 14.0905 19.1905 14.0778 19.0692C14.0953 18.3448 13.8735 17.9576 13.6604 17.8463C13.4515 17.7372 12.8652 17.598 12.7657 17.1308C12.6663 17.7769 11.8115 18.0155 11.2647 17.2601C11.3416 17.1515 11.3997 17.0423 11.4346 16.9275L16.3221 16.9275ZM13.8831 12.0621C14.529 12.7843 15.343 13.2387 16.2228 13.0737C16.8188 12.9619 17.3185 12.5643 17.6141 12.0621H18.5771C18.3667 12.6145 18.0101 13.0354 17.4874 13.4926C16.8787 13.9358 16.0162 14.1784 15.3104 13.9697C15.3426 14.2162 15.3093 14.4228 15.2417 14.5981H5.26154C5.25102 14.5367 5.24286 14.4729 5.23719 14.4068C6.23102 14.771 6.69736 14.0786 7.41742 13.4062C8.08954 12.7785 8.74306 12.5546 9.41079 12.5692C9.86316 12.5791 10.5988 12.7324 10.798 12.8757C10.5434 12.5902 10.1748 12.3022 9.80014 12.0622L13.8831 12.0621ZM10.3932 4.79067C10.4039 4.76857 10.4142 4.74512 10.4245 4.72053C10.482 4.58254 10.4891 4.45216 10.4642 4.27802C10.4282 4.02604 10.328 3.88642 9.99195 3.87058C9.5695 3.85069 9.26152 4.17382 8.87486 4.0813C8.46451 3.98308 8.5168 3.56149 8.5396 3.40161C8.55184 3.31597 8.58801 3.25068 8.63287 3.18822C8.63287 3.18822 8.6024 3.1711 8.59099 3.16536C8.52818 3.12922 8.53576 3.05116 8.55862 2.95954C8.61568 2.8111 8.75817 2.78153 8.90996 2.69915C9.03108 2.63344 9.26287 2.59471 9.49746 2.38651L12.7751 2.38626C12.7751 2.38626 13.5305 2.22067 13.6397 2.42943C13.6973 2.61854 13.7689 3.06558 13.2782 3.71252C13.5182 3.94732 13.557 4.2683 13.5426 4.79088" fill="#F0432A"/>
<path d="M10.3932 4.79067C10.4039 4.76857 10.4142 4.74512 10.4245 4.72053C10.482 4.58254 10.4891 4.45216 10.4642 4.27802C10.4282 4.02604 10.328 3.88642 9.99195 3.87058C9.5695 3.85069 9.26152 4.17382 8.87486 4.0813C8.46451 3.98308 8.5168 3.56149 8.5396 3.40161C8.55184 3.31597 8.58801 3.25068 8.63287 3.18822C8.63287 3.18822 8.6024 3.1711 8.59099 3.16536C8.52818 3.12922 8.53576 3.05116 8.55862 2.95954C8.61568 2.8111 8.75817 2.78153 8.90996 2.69915C9.03108 2.63344 9.26287 2.59471 9.49746 2.38651L12.7751 2.38626C12.7751 2.38626 13.5305 2.22067 13.6397 2.42943C13.6973 2.61854 13.7689 3.06558 13.2782 3.71252C13.5182 3.94732 13.557 4.2683 13.5426 4.79088M1.6919 4.79053C1.6919 4.79053 1.6451 4.73689 1.63615 4.70345C1.58313 4.50531 1.73202 4.37787 1.97107 4.47363C2.21662 4.44724 2.36167 4.23472 2.18366 4.11596C2.07887 4.07594 1.82235 4.02559 1.79811 3.91658C1.78493 3.70554 1.98825 3.78367 2.1443 3.69233C2.31577 3.59186 2.24982 3.46656 2.46895 3.44017C2.65363 3.42039 2.66176 3.62852 2.63382 3.82441C2.61628 4.14525 2.90576 4.04357 2.97524 3.91059C3.02449 3.57885 2.80024 3.42716 3.07719 3.35481C3.19257 3.32459 3.29636 3.63184 3.47599 3.71903C3.67987 3.81811 3.80728 3.66625 3.91276 3.81137C4.03651 4.003 3.91276 4.07667 3.70086 4.24873C3.6963 4.31102 3.61143 4.47733 4.0686 4.75564C4.10921 4.77131 4.19297 4.79078 4.19297 4.79078H1.69214L1.6919 4.79053ZM6.86095 9.44185C6.09047 9.59638 5.1003 9.59524 4.48566 9.17887C4.70434 9.08943 4.98548 8.94317 5.10196 8.7414C5.25099 8.48309 5.50944 8.09539 5.88718 7.92641C5.65556 7.64486 5.52784 7.41189 5.47655 7.18771H13.3764C13.3352 7.54937 13.3745 7.88495 13.6604 8.54275C13.5014 8.49309 13.3405 8.42675 13.1735 8.23463C13.2708 8.51498 13.4325 8.91301 13.3664 9.44192H6.86098L6.86095 9.44185ZM15.4632 4.79088C16.1337 4.25015 17.1963 3.90751 17.8157 3.42357C18.1491 3.16318 18.151 2.93243 18.0841 2.77745C17.6964 2.52896 17.925 2.20092 18.1139 2.12141C18.4702 1.97142 18.929 1.93255 19.3465 2.20092C19.6909 2.42227 20.0026 2.97625 19.4061 3.68199C19.0058 4.15566 18.0253 4.503 17.597 4.69601C17.5302 4.7261 17.4603 4.75768 17.3884 4.79102L15.4632 4.79088ZM15.9708 7.18761C16.0371 7.28832 16.1159 7.38592 16.2056 7.47892C16.9508 8.25099 17.6169 8.65065 18.1967 9.44171H16.9895C16.6231 9.15933 16.1328 8.82095 15.4399 8.0853C15.2595 7.89387 15.0516 7.46654 14.8468 7.18761H15.9708ZM5.47676 7.18761C5.52805 7.41179 5.65577 7.64468 5.88739 7.92627C5.50965 8.09526 5.25116 8.48309 5.10217 8.74127C5.08599 8.76935 5.06662 8.79633 5.04462 8.82223C4.72326 8.64021 5.16093 8.20686 4.96293 7.84694C4.80471 8.11614 4.6489 8.29827 4.49576 8.39365C4.58132 8.12787 4.51502 7.91254 4.41625 7.66799C4.29112 7.78783 4.15776 8.04573 4.17768 8.34392C3.84965 8.05562 3.78224 7.89999 3.82976 7.34992C3.54993 7.54854 3.34281 7.5686 3.01466 7.38972C3.13225 7.34691 3.21906 7.27587 3.27893 7.18765L5.47676 7.18761ZM1.845 12.0623H7.8351C7.64827 12.2614 7.40462 12.603 7.39159 12.856C7.2399 12.7373 7.25546 12.5733 7.17242 12.2265C7.04051 12.6911 6.7637 13.0059 6.41754 13.2284C6.47031 12.95 6.4505 12.6911 6.37137 12.4983C6.22473 13.1411 5.84073 13.4658 5.5358 13.6783C5.6557 13.4236 5.71508 12.9102 5.59514 12.579C5.5028 13.0224 5.07751 13.4373 4.93914 13.4855C4.94796 13.3274 5.066 12.9498 4.72157 12.6449C4.22389 12.307 4.0095 12.7052 4.27023 12.8905C4.54864 13.0884 4.5218 13.2803 4.237 13.2612C4.14476 13.2147 4.03537 13.2217 3.9783 13.314C3.82834 13.5725 3.58556 13.6235 3.59406 13.0685C3.52659 12.7834 3.06533 12.9463 3.14412 13.2085L3.23639 13.3074C3.46216 13.4921 3.36214 13.7548 3.0913 13.6917C2.98824 13.6273 2.74338 13.6353 2.65958 13.7378C2.40082 13.8038 2.41403 13.5862 2.5145 13.3207C2.54089 13.1741 2.07613 13.0159 2.16346 13.4591C2.22952 13.8197 1.74568 13.9995 1.81243 13.52C1.85669 13.4299 1.71196 13.1608 1.50756 13.0883C1.36642 12.9737 1.45983 12.7175 1.64874 12.7452C1.82802 12.7715 1.97733 12.7768 2.15032 12.724C2.3599 12.6601 2.31529 12.2583 2.05646 12.3929C1.77805 12.5379 1.54048 12.3334 1.7252 12.167C1.76141 12.1425 1.80599 12.1064 1.84476 12.0622L1.845 12.0623ZM4.48936 19.3999C4.60035 19.2776 4.81871 19.3711 4.85347 19.1452C4.93921 18.5881 5.21768 18.5091 5.54233 18.814C5.98474 19.0627 6.25326 18.9136 6.41041 18.636C6.49352 18.4895 6.86814 17.5735 6.98269 16.9275H9.52571C9.55082 16.9407 9.57669 16.9515 9.60322 16.9596C10.0623 17.0993 10.4929 17.1771 10.6774 17.0849C10.6972 17.4293 10.3132 17.754 10.0677 17.8265C10.2803 17.8859 10.4203 17.899 10.5389 18.2765C10.3198 18.2105 10.089 18.3308 9.95536 18.4295C9.77555 18.5623 9.55169 18.662 9.29956 18.5286C9.41826 18.8203 9.47916 19.0592 9.23361 19.4433C9.11976 18.9799 8.74596 18.944 8.51829 18.8995C8.64127 19.0458 8.69433 19.2301 8.69713 19.3997H4.48884L4.48936 19.3999ZM16.3221 16.9275C16.7681 16.9672 17.2842 16.9562 17.5171 16.7134C17.537 17.0314 17.505 17.3072 17.0698 17.5583C17.4755 17.9628 17.5171 18.2441 17.4674 18.612C17.1394 18.3335 16.8508 18.3623 16.4734 18.5324C16.7165 18.9223 16.7617 19.0792 16.7219 19.5563C16.4678 19.326 16.2229 19.2987 16.0776 19.3997H14.0696C14.0854 19.301 14.0905 19.1905 14.0778 19.0692C14.0953 18.3448 13.8735 17.9576 13.6604 17.8463C13.4515 17.7372 12.8652 17.598 12.7657 17.1308C12.6663 17.7769 11.8115 18.0155 11.2647 17.2601C11.3416 17.1515 11.3997 17.0423 11.4346 16.9275L16.3221 16.9275ZM13.8831 12.0621C14.529 12.7843 15.343 13.2387 16.2228 13.0737C16.8188 12.9619 17.3185 12.5643 17.6141 12.0621H18.5771C18.3667 12.6145 18.0101 13.0354 17.4874 13.4926C16.8787 13.9358 16.0162 14.1784 15.3104 13.9697C15.3426 14.2162 15.3093 14.4228 15.2417 14.5981H5.26154C5.25102 14.5367 5.24286 14.4729 5.23719 14.4068C6.23102 14.771 6.69736 14.0786 7.41742 13.4062C8.08954 12.7785 8.74306 12.5546 9.41079 12.5692C9.86316 12.5791 10.5988 12.7324 10.798 12.8757C10.5434 12.5902 10.1748 12.3022 9.80014 12.0622L13.8831 12.0621Z" stroke="black" stroke-width="0.103833"/>
<path d="M6.86331 9.44735C6.75399 9.87478 6.43588 9.98414 6.22716 10.6599C6.62475 10.4611 7.03229 10.4213 7.56888 10.5904C8.47466 10.8756 8.8729 10.7173 9.11973 10.5407C9.21916 10.9483 9.60669 10.8787 9.6762 11.4053C9.9247 11.1171 10.1834 11.0278 10.551 10.968C11.0892 10.8803 11.3824 10.699 11.4356 10.292C11.7537 10.6599 12.1116 10.7493 12.5887 10.6895C12.705 10.6748 12.89 10.6705 13.0958 10.6956C13.1066 10.7401 13.1193 10.7842 13.1321 10.8281C13.1737 10.9672 13.2353 11.1343 13.3243 11.2978C13.3459 11.3374 13.369 11.3766 13.3938 11.4153C13.5292 11.6242 13.6766 11.8224 13.8343 12.0046L13.885 12.0622H9.80188L9.71051 12.0046C9.23725 11.712 8.76807 11.5026 8.52041 11.4779C8.58636 11.3131 8.42665 11.1995 8.42665 11.1995C8.39414 11.6118 8.09498 11.821 7.92413 11.9763L7.92396 11.9762L7.89332 12.005C7.87533 12.0224 7.85649 12.0416 7.83688 12.0625H1.84678C1.86251 12.0446 1.87725 12.0253 1.89011 12.005C1.91034 11.973 1.92584 11.9385 1.9331 11.9019C1.90782 11.546 2.09157 11.3105 2.48352 11.5443C2.48352 11.5443 2.59564 11.7479 2.86098 11.7569C3.21765 11.7084 3.51667 11.5176 4.02033 11.1472C4.79714 10.6105 5.32809 10.0186 5.6453 9.6994C5.7126 9.63172 5.77008 9.57639 5.81857 9.53634C6.16823 9.5463 6.52241 9.51202 6.839 9.45205L6.86331 9.44735ZM14.8485 7.18813C14.7597 7.06708 14.6715 6.97401 14.5864 6.94022C14.368 6.85335 14.1478 6.82571 13.8014 7.1118C13.8213 6.42595 14.0646 6.10642 14.7159 6.11776C14.875 5.42191 15.1086 5.09298 15.4114 4.83535C15.4289 4.82052 15.4466 4.80582 15.4647 4.79126H17.3898C16.9411 4.99911 16.4088 5.27821 16.0222 5.71841C15.6251 6.17078 15.66 6.71366 15.9722 7.18809H14.8484L14.8485 7.18813ZM17.7974 10.4619C17.5998 9.95097 17.3573 9.72472 16.991 9.44247H18.1983C18.2681 9.53762 18.3364 9.63836 18.4037 9.74609C18.5612 9.58856 18.7651 9.48519 18.9793 9.44247C19.1066 9.42238 19.2446 9.41296 19.4234 9.44247C19.6532 9.4901 19.8657 9.61505 20.0137 9.82567C20.3031 10.2372 20.2822 10.9787 19.5367 11.1973C20.0134 10.2869 18.8807 10.0641 18.7912 11.0681C18.7582 11.4513 18.6883 11.7751 18.5787 12.063L17.6159 12.0629C17.9047 11.5725 17.9988 10.9825 17.7975 10.462L17.7974 10.4619ZM3.28042 7.18813C3.38774 7.03025 3.40849 6.81759 3.36402 6.61443C3.2945 6.29663 3.50595 5.86263 3.50339 5.73024C3.49343 5.2529 2.90182 5.24785 2.97653 5.65048C3.14551 6.09777 2.94194 6.45285 2.71804 6.15746L2.6286 5.9189C2.30434 5.7107 2.2269 5.52688 2.45703 5.38224C2.77507 5.13669 2.5032 4.9323 2.23126 5.08392C2.0381 5.39504 1.82866 5.42018 1.76651 5.2833C1.73061 5.20413 1.8208 5.11037 1.75994 4.91763C1.74427 4.86814 1.69336 4.79105 1.69336 4.79105H4.1935C5.04954 5.13313 6.28554 5.76046 6.99971 6.40914C6.71532 6.57746 6.31276 6.83066 5.51118 6.55509C5.449 6.77985 5.43077 6.98027 5.47829 7.18816H3.28042V7.18813ZM8.69918 19.4004C8.70202 19.5764 8.65059 19.7364 8.56651 19.8215C8.45944 19.6897 8.36402 19.6038 8.05549 19.6041C7.83055 19.6044 7.53533 19.756 7.51842 19.8084C7.60568 19.8413 7.64227 19.9204 7.63867 20.0143C7.54633 20.6571 7.11471 20.372 6.96952 20.4579C6.83049 20.5402 6.78989 20.7495 6.55755 20.8566C6.28713 20.9159 6.19987 20.8023 6.19987 20.8023C5.96331 21.0454 5.47117 21.2197 5.39889 20.6901C5.26304 20.7224 5.09309 20.5718 4.96716 20.4182C4.90121 20.4841 4.79517 20.5722 4.68357 20.3786C4.67492 20.2251 4.77383 19.9846 4.64269 19.9023C4.45119 19.782 4.36037 19.6598 4.45783 19.451C4.46724 19.4309 4.47837 19.4143 4.49089 19.4005H8.69918V19.4004ZM16.0796 19.4004C16.043 19.4258 16.0127 19.4594 15.9902 19.4999C15.8589 19.7359 16.0975 19.8055 15.8292 20.0838C15.56 20.146 15.3142 20.5033 15.4711 20.7498C15.6105 20.9684 15.4912 21.1374 15.1931 20.9485C15.2924 21.2368 15.213 21.6145 14.8949 21.8233C14.3979 22.0718 14.5668 21.7438 14.4079 21.535C14.2488 21.2765 14.0302 21.366 14.0302 21.366C13.986 21.4019 13.9238 21.6531 13.9069 21.7259C13.7527 22.168 13.3651 22.2432 13.235 21.9027C13.197 21.7193 13.009 21.5668 12.897 21.5449C12.6619 21.3363 12.9816 21.1155 13.0958 21.0081C12.9732 20.9735 12.9965 20.8292 13.0163 20.6601C12.9853 20.5137 12.8468 20.3821 12.8672 20.3221C12.9228 20.0273 13.09 20.0109 13.4537 20.1532C13.6226 20.1234 13.7122 20.1035 13.8512 19.9246C13.8969 19.8658 14.027 19.6814 14.0717 19.4003H16.0797L16.0796 19.4004ZM15.0144 14.9842C14.4576 15.9187 15.1534 16.6941 15.879 16.8729C16.0063 16.8922 16.1606 16.9135 16.3241 16.9281H11.4366C11.525 16.6374 11.4651 16.3108 11.1873 15.869C10.9575 15.5039 10.9885 14.9843 10.9885 14.9843C10.7186 14.9052 10.2761 14.8175 9.8354 15.0638C8.87366 15.6012 9.06561 16.6842 9.52787 16.9281H6.9845C7.01566 16.7526 7.02759 16.597 7.00926 16.4822C6.97845 16.2891 6.63014 16.1021 6.4853 15.6664C5.91354 15.7841 5.39809 15.3866 5.26376 14.5986L15.2439 14.5986C15.1861 14.7484 15.1031 14.8753 15.0144 14.9842L15.0144 14.9842ZM6.83886 9.4524L6.86266 9.4423L13.3681 9.44223C13.3642 9.47332 13.3594 9.50486 13.3539 9.53682H13.3539C13.2891 9.91231 13.354 10.3422 13.5726 10.8094C13.2049 10.6703 12.7919 10.6644 12.5886 10.6898C12.1115 10.7497 11.7537 10.6602 11.4355 10.2924C11.3822 10.6994 11.089 10.8807 10.5509 10.9683C10.1832 11.0282 9.92452 11.1174 9.67606 11.4057C9.60655 10.8789 9.21885 10.9485 9.11959 10.5411C8.87276 10.7176 8.47462 10.876 7.56874 10.5907C7.03219 10.4217 6.62464 10.4616 6.22702 10.6602C6.43591 9.98431 6.75382 9.87496 6.86317 9.4477L6.83886 9.4524ZM5.47805 7.18792C5.43053 6.98006 5.44876 6.77961 5.51094 6.55484C6.46521 6.88288 6.85391 6.46164 7.15095 6.32624C7.5436 6.14733 8.10276 6.2202 8.44305 6.35605C9.47682 6.76858 9.9091 6.48529 9.98871 6.17714C10.0492 5.9429 9.93901 5.56582 9.01964 5.65526C8.90039 5.65526 8.84074 5.64533 8.7809 5.57052C8.72325 5.49841 8.67175 5.24273 8.68172 5.07869C8.70364 5.00562 8.73138 5.00257 8.76624 4.95944C9.24341 4.80537 9.50957 4.85794 9.88437 5.01886C10.133 5.12559 10.2769 5.03674 10.3949 4.79102H13.5449L13.5425 4.86503C13.4761 5.50419 13.801 5.87906 13.801 5.87906C13.642 5.88898 13.4929 5.85917 13.3537 5.72C13.4731 6.29653 13.4928 6.68423 13.3836 7.14144L13.3778 7.18802H5.47795L5.47805 7.18792Z" fill="white" stroke="black" stroke-width="0.103833"/>
<path d="M15.4325 20.7752C15.4155 20.6999 15.3706 20.4488 15.4622 20.3056C15.5441 20.1781 15.674 20.076 15.8058 20.0409C16.0382 19.7932 15.8145 19.721 15.9509 19.4757C16.1118 19.1865 16.4724 19.2982 16.6855 19.4634C16.7115 19.0638 16.6598 18.9118 16.4372 18.5549C16.4372 18.5549 16.4181 18.5142 16.457 18.4897C16.819 18.3265 17.1134 18.2869 17.4339 18.5247C17.4646 18.2086 17.4048 17.953 17.0399 17.5889C17.0399 17.5889 17.0017 17.5498 17.0492 17.5176C17.4222 17.3026 17.4833 17.0744 17.4781 16.8073C17.1034 17.0793 16.3258 16.9841 15.8703 16.9153C15.1291 16.7325 14.3968 15.9308 14.9756 14.9593C15.2147 14.6645 15.3168 14.3508 15.2678 13.9745C15.2678 13.9745 15.2654 13.9175 15.3255 13.9253C16.0134 14.1288 16.8606 13.893 17.4613 13.4561C18.2804 12.739 18.6546 12.1292 18.7464 11.0623C18.8415 9.99401 19.9875 10.2481 19.6234 11.118C20.4429 10.7932 20.234 9.65898 19.4187 9.48607C19.2797 9.46238 19.1358 9.4582 18.9839 9.48607C18.7796 9.52767 18.5855 9.62665 18.4358 9.77635C18.3938 9.80291 18.3654 9.7683 18.3654 9.7683C17.7684 8.81117 16.9361 8.29807 16.175 7.50974C15.6919 7.00923 15.4588 6.29106 15.9887 5.6875C16.6489 4.93558 17.6314 4.6739 18.4939 4.253C18.8421 4.08313 19.1796 3.88128 19.3731 3.65227C20.2712 2.58963 19.1307 1.74265 18.1331 2.16282C17.9566 2.2371 17.7709 2.52157 18.1101 2.73906L18.1273 2.75919C18.3361 3.24261 17.6404 3.61963 17.3046 3.80461C16.6869 4.14489 15.9798 4.411 15.4411 4.86904C15.1466 5.11939 14.9175 5.43927 14.7604 6.1268C14.7604 6.1268 14.7615 6.15996 14.7155 6.16193C14.1269 6.15159 13.8903 6.41483 13.8515 7.01456C14.1683 6.78286 14.388 6.81139 14.6035 6.89711C14.9048 7.01694 15.2241 7.7876 15.4746 8.05371C15.8196 8.41987 16.114 8.68716 16.3678 8.89804C16.6223 9.10944 16.836 9.26433 17.0188 9.40519C17.3885 9.69004 17.638 9.92239 17.8397 10.444C18.0458 10.9771 17.9504 11.5778 17.6599 12.076C17.3593 12.5915 16.847 13.0021 16.2331 13.1172C14.9929 13.3499 13.9672 12.382 13.3562 11.439C13.1982 11.1933 13.1081 10.9216 13.06 10.7361C12.8708 10.7156 12.7022 10.72 12.5948 10.7335C12.1371 10.791 11.7794 10.7137 11.4643 10.389C11.3757 10.7622 11.0629 10.9297 10.5589 11.0119C10.1965 11.0709 9.94998 11.1572 9.71126 11.4341C9.65378 11.4707 9.63213 11.4104 9.63213 11.4104C9.56874 10.9307 9.22085 10.9741 9.09452 10.6119C8.83048 10.7817 8.41325 10.9024 7.55603 10.6325C7.02962 10.4668 6.63435 10.5063 6.2482 10.6994C6.17734 10.7129 6.18474 10.6456 6.18474 10.6456C6.29112 10.3011 6.42585 10.1003 6.54661 9.93298C6.64655 9.79465 6.74435 9.66825 6.79972 9.50433C6.49927 9.55814 6.16624 9.58902 5.8354 9.58097C5.77042 9.63654 5.68825 9.71923 5.58668 9.82373C5.10602 10.3174 4.61859 10.7884 4.04819 11.1825C3.54571 11.552 3.2379 11.7503 2.86825 11.8005C2.69807 11.7955 2.53986 11.7132 2.45188 11.5764C2.11177 11.3785 1.9557 11.5641 1.97935 11.8976L1.97859 11.9096C1.95459 12.0304 1.85458 12.1345 1.75633 12.2017C1.60925 12.3373 1.82491 12.4631 2.03862 12.3519C2.35567 12.187 2.43902 12.6832 2.16658 12.7663C1.9845 12.8219 1.82774 12.8158 1.64508 12.789C1.51308 12.7696 1.42908 12.9545 1.53366 13.0477C1.73904 13.126 1.91119 13.4015 1.85939 13.5314C1.80665 13.9335 2.17439 13.7525 2.12197 13.4666C2.02272 12.9623 2.60307 13.0991 2.56196 13.3276C2.52077 13.4386 2.39562 13.7505 2.63817 13.6959C2.74531 13.585 2.99513 13.5818 3.11105 13.6478C3.30658 13.689 3.41461 13.5081 3.20836 13.3394L3.11389 13.2384L3.10362 13.2205C3.00734 12.8998 3.5592 12.7118 3.64095 13.0571L3.64216 13.0682C3.63404 13.5839 3.81919 13.5017 3.94213 13.2898C4.01409 13.1734 4.14796 13.1675 4.25126 13.2157C4.43496 13.2248 4.52729 13.1258 4.24669 12.9265C3.9404 12.709 4.19779 12.2321 4.74952 12.6065C5.01099 12.8374 5.03721 13.0948 4.99643 13.4017C5.16198 13.2825 5.47681 12.9364 5.55321 12.5689C5.55704 12.5475 5.61504 12.5221 5.64004 12.5627C5.74483 12.852 5.71816 13.2696 5.63326 13.5522C5.90674 13.3426 6.20522 13.0324 6.3294 12.4875C6.3294 12.4569 6.39794 12.4351 6.41537 12.4803C6.48834 12.6581 6.51231 12.886 6.48073 13.1314C6.77869 12.9183 7.01358 12.6269 7.13091 12.2133C7.13741 12.1886 7.20627 12.1633 7.21844 12.2151C7.2497 12.3455 7.28231 12.645 7.36199 12.7578C7.42341 12.4856 7.68564 12.1308 7.89362 11.9418C8.13359 11.7237 8.35263 11.5596 8.38192 11.1953C8.38451 11.1663 8.42802 11.1301 8.4821 11.1864C8.54746 11.2545 8.5954 11.3423 8.57849 11.4397C8.86199 11.489 9.34517 11.7164 9.81379 12.0151C10.1949 12.2579 10.5726 12.5517 10.8339 12.8448L10.7737 12.9116C10.5865 12.7769 9.86345 12.6235 9.41216 12.6136C8.75727 12.5993 8.11508 12.818 7.4508 13.4384C6.82659 14.0215 6.28887 14.7979 5.29183 14.4718C5.361 15.0688 5.73867 15.7724 6.47627 15.6206C6.47627 15.6206 6.51736 15.6107 6.52832 15.6507C6.62529 15.9421 6.79913 16.0802 6.97093 16.3056C7.11117 16.4896 7.06721 16.7204 7.02924 16.9343C6.91377 17.5853 6.53745 18.5061 6.45196 18.6569C6.28272 18.9555 5.98697 19.1133 5.52225 18.852C5.22174 18.5716 4.98184 18.6207 4.90026 19.1507C4.85596 19.4386 4.57941 19.2965 4.49935 19.468C4.41653 19.6455 4.48317 19.7464 4.66728 19.8619C4.82532 19.9612 4.72559 20.2135 4.7288 20.3633C4.80478 20.4888 4.86267 20.4543 4.92039 20.3991C4.90368 20.1755 5.06446 19.8838 5.4903 19.808L5.50621 19.8971C5.11726 19.9663 4.99547 20.2248 5.0111 20.3977C5.13981 20.5521 5.28717 20.6682 5.38891 20.6441C5.38891 20.6441 5.43711 20.6351 5.44417 20.6819C5.50061 21.096 5.87513 21.0448 6.14895 20.7938C6.1032 20.6633 6.15065 20.4896 6.2279 20.3658L6.30471 20.4137C6.23046 20.5327 6.19955 20.6828 6.23866 20.775C6.30782 20.8434 6.46621 20.8278 6.54347 20.8113C6.76718 20.7057 6.83458 20.4064 7.03363 20.3936C7.12853 20.3874 7.22259 20.412 7.31783 20.3983C7.42984 20.3822 7.54943 20.3139 7.5939 20.0085C7.59632 19.9288 7.56582 19.8727 7.50277 19.8489C7.48164 19.8486 7.47082 19.816 7.47573 19.7926C7.50312 19.7082 7.83047 19.5574 8.05574 19.5571C8.34585 19.5571 8.46257 19.6316 8.56638 19.749C8.72414 19.5185 8.65716 19.1313 8.48598 18.9276C8.46765 18.9097 8.47854 18.8516 8.52931 18.8541C8.84999 18.9169 9.11676 18.9749 9.2492 19.3314C9.42281 19.0144 9.36609 18.8057 9.25989 18.5447C9.23977 18.4964 9.27967 18.4602 9.32294 18.4877C9.7779 18.7285 9.98926 18.1562 10.4724 18.2152C10.3756 17.9558 10.2903 17.9342 10.0575 17.8694C10.0263 17.8745 10.0153 17.8042 10.0568 17.7824C10.2775 17.7172 10.6051 17.441 10.633 17.1492C10.382 17.2159 9.71755 17.0782 9.50646 16.9668C8.58447 16.4802 9.27857 14.4343 11.0008 14.9396L11.0332 14.9857C11.0332 14.9857 11.0258 15.1121 11.0462 15.283C11.0669 15.4556 11.1154 15.6691 11.2251 15.8435C11.5314 16.3304 11.6511 16.7739 11.322 17.2583C11.8525 17.96 12.6323 17.7092 12.7225 17.123C12.7233 17.0971 12.792 17.0681 12.8115 17.1205C12.8572 17.3356 13.0155 17.4785 13.1961 17.5827C13.3806 17.6891 13.5786 17.7508 13.6827 17.8052C13.9193 17.9289 14.1415 18.3388 14.1245 19.0663C14.1561 19.3746 14.0783 19.7035 13.8862 19.9507C13.7377 20.1417 13.6359 20.1652 13.4609 20.1961L13.4365 20.1936C13.0738 20.0516 12.9573 20.0835 12.9103 20.3375C12.9247 20.4107 13.0339 20.5261 13.06 20.649L13.0607 20.6637C13.0527 20.7315 13.0143 20.911 13.0911 20.9558C13.1678 20.9104 13.2574 20.8716 13.3339 20.8716V20.9619H13.3345C13.2793 20.9619 13.2007 20.9945 13.1236 21.0421C13.0105 21.1471 12.7411 21.3326 12.9189 21.5013C13.0474 21.5345 13.2366 21.6941 13.2786 21.8876C13.3818 22.1508 13.7103 22.1468 13.8635 21.7111C13.8745 21.6639 13.9102 21.5081 13.9528 21.4082C13.732 21.357 13.9164 20.8654 14.2145 20.7643L14.2436 20.8501C14.1204 20.8918 14.0112 21.0286 13.9659 21.1537C13.9436 21.2151 13.9115 21.3352 14.0188 21.3198C14.026 21.3173 14.0398 21.313 14.0586 21.3094C14.2223 21.2784 14.359 21.3677 14.4454 21.5072C14.6143 21.7318 14.4326 22.001 14.8725 21.7818C15.1692 21.5856 15.2439 21.2318 15.1505 20.9611C15.1421 20.9394 15.1747 20.9032 15.2175 20.9082C15.2983 20.9565 15.3915 21.0403 15.4603 20.9713C15.4899 20.9416 15.4497 20.8511 15.4324 20.7751L15.4325 20.7752ZM5.03779 8.76071C5.04796 8.74678 5.05723 8.73263 5.06556 8.71814C5.20801 8.47129 5.45551 8.09601 5.81869 7.90982C5.39755 7.38206 5.33845 7.01272 5.46858 6.54209C5.46858 6.54209 5.47751 6.48994 5.52689 6.51142C6.03186 6.68502 6.4319 6.68357 6.88216 6.42528L6.92432 6.40079C6.17402 5.74131 4.89241 5.12021 4.05459 4.79722C3.89655 4.70181 3.63822 4.52796 3.64915 4.31203C3.6506 4.28291 3.65679 4.26047 3.65797 4.24463L3.67457 4.21285C3.73768 4.16163 3.85273 4.07933 3.89707 4.01182C3.92626 3.96735 3.9321 3.92129 3.87839 3.83718C3.81829 3.75453 3.7023 3.80333 3.61554 3.79925C3.2971 3.78445 3.17648 3.37537 3.09096 3.39775C2.9177 3.44312 2.9969 3.53991 3.01996 3.68623C3.0303 3.75149 3.03545 3.82791 3.02228 3.91655L3.01764 3.93087C2.91881 4.11996 2.57143 4.18045 2.59118 3.81927C2.60411 3.72863 2.64229 3.46684 2.4764 3.48465C2.26109 3.51059 2.34108 3.71365 2.03447 3.77995C1.94881 3.79845 1.8396 3.78818 1.84552 3.90908C1.86959 3.98523 2.14109 4.04979 2.20227 4.07321C2.45555 4.24072 2.22087 4.492 1.97838 4.51807L1.9567 4.51506C1.7877 4.44738 1.56938 4.52191 1.6991 4.72626C1.79707 4.8806 1.85669 4.93824 1.81816 5.15002C1.81305 5.17797 1.79641 5.23627 1.80876 5.26352C1.83805 5.32812 1.99156 5.38463 2.19376 5.059L2.21019 5.04334C2.53557 4.86185 2.84553 5.13899 2.48383 5.41821C2.30989 5.52752 2.32289 5.66717 2.65394 5.87974L2.67186 5.90191L2.75897 6.13413C2.85594 6.25918 2.91915 6.22785 2.95554 6.16C3.00488 6.06794 3.01692 5.88196 2.93506 5.6654C2.8465 5.19201 3.53804 5.18464 3.54941 5.72817C3.55121 5.81431 3.47703 6.02381 3.45324 6.11331C3.40949 6.27761 3.37692 6.45626 3.40915 6.60358C3.47485 6.90379 3.40434 7.23585 3.12156 7.39119C3.38674 7.51489 3.56453 7.48352 3.80591 7.3122C3.82777 7.2945 3.88213 7.30536 3.87718 7.35298C3.83472 7.8447 3.8842 8.00457 4.13378 8.23997C4.14596 7.97341 4.26834 7.74829 4.38724 7.63444C4.41141 7.61712 4.44768 7.61345 4.46048 7.65018C4.54483 7.85905 4.60932 8.05492 4.57166 8.28147C4.68592 8.18212 4.8043 8.03037 4.92616 7.82309C4.94432 7.80555 4.97693 7.77657 5.0048 7.82426C5.19933 8.17766 4.82864 8.58922 5.03752 8.7604L5.03779 8.76071ZM10.5263 4.45143C10.5227 4.56783 10.5093 4.627 10.4746 4.72428L10.4692 4.73749L10.4607 4.75769C10.3333 5.05192 10.1665 5.18789 9.86791 5.05966C9.50432 4.90359 9.25073 4.85258 8.79379 4.9979C8.76391 5.0313 8.74351 5.03791 8.72809 5.08612C8.71979 5.24685 8.77142 5.4836 8.81776 5.54153C8.86368 5.59894 8.90428 5.60917 9.01896 5.60928C9.94908 5.51943 10.1064 5.90717 10.034 6.18766C9.94285 6.54095 9.46465 6.81118 8.42805 6.39723C8.09385 6.26388 7.54853 6.19468 7.17134 6.36656C6.96315 6.46138 6.8297 6.58065 6.59271 6.65656C6.33739 6.73842 6.00523 6.76214 5.54383 6.61219C5.43566 7.0407 5.50151 7.38192 5.92493 7.89692C5.92493 7.89692 5.95253 7.94343 5.90847 7.96691C5.54515 8.12945 5.29291 8.50515 5.14386 8.76334C5.03354 8.95458 4.79046 9.09457 4.58501 9.18611C5.18968 9.54763 6.12219 9.54497 6.85533 9.40218C6.92034 9.38644 6.90782 9.45778 6.90782 9.45778C6.85266 9.67344 6.74653 9.81073 6.61989 9.98617C6.51431 10.1324 6.40002 10.3017 6.30374 10.5738C6.683 10.4093 7.07918 10.3878 7.58307 10.5464C8.47885 10.8284 8.86137 10.6695 9.0939 10.5031C9.13885 10.4739 9.16061 10.5029 9.1642 10.5291C9.25201 10.8892 9.60308 10.8605 9.70531 11.3065C9.94514 11.0608 10.2015 10.9784 10.5443 10.9227C11.0769 10.8359 11.3421 10.6615 11.3913 10.2856C11.3913 10.2856 11.4119 10.2275 11.4704 10.2619C11.7762 10.6155 12.1175 10.7024 12.5836 10.644C12.774 10.6201 13.1407 10.623 13.4893 10.7317C13.3021 10.2946 13.2477 9.8885 13.3099 9.5283C13.3935 9.04415 13.2877 8.69521 13.1329 8.24897C13.1184 8.21127 13.1693 8.16818 13.2098 8.20442C13.3367 8.35022 13.4587 8.41984 13.5812 8.46659C13.3179 7.83723 13.2907 7.50718 13.3395 7.13494C13.4476 6.68191 13.4288 6.30151 13.3102 5.72865C13.3005 5.68906 13.3585 5.66367 13.3865 5.68754C13.4894 5.79049 13.5973 5.82842 13.7138 5.83423C13.6214 5.69238 13.4472 5.35195 13.4983 4.86005C13.5171 4.3214 13.4876 4.00691 13.2832 3.77971C13.2061 3.86212 13.1224 3.90285 13.0597 3.91648L13.0404 3.82809C13.0909 3.81713 13.1724 3.77791 13.2457 3.68454C13.7231 3.05511 13.6542 2.62584 13.6008 2.44715C13.5082 2.28922 12.8645 2.41468 12.7932 2.42941C12.6627 2.49629 12.5899 2.57199 12.5624 2.65285L12.4767 2.62366C12.5016 2.55087 12.5507 2.48716 12.6209 2.43163L9.51753 2.4318C9.37183 2.55761 9.21483 2.6275 9.03901 2.69424C8.93309 2.7345 8.82198 2.78658 8.72466 2.84364C8.66909 2.87628 8.62859 2.91315 8.60484 2.97332C8.5956 3.0106 8.57108 3.1 8.61656 3.12614C8.67265 3.0679 8.71986 3.0171 8.75333 2.98176L8.81904 3.04394C8.78152 3.0836 8.72798 3.14713 8.67085 3.21685C8.56676 3.36289 8.54788 3.58318 8.59163 3.75329C8.62351 3.87754 8.70219 3.99266 8.88838 4.03728C9.23765 4.12086 9.60609 3.80696 9.99673 3.82532C10.3564 3.84209 10.4728 3.99996 10.5116 4.2714C10.5208 4.33586 10.5261 4.39537 10.5259 4.45167L10.5263 4.45143ZM3.27615 3.44049C3.43038 3.26139 3.3636 2.93372 3.31616 2.72869C3.78755 3.05615 3.92159 3.15854 3.88514 3.72144C3.90869 3.73447 3.93141 3.75457 3.95351 3.78496C4.10778 4.02393 3.90675 4.14261 3.74643 4.27188C3.71029 4.47847 3.94701 4.62517 4.09218 4.71391C4.94093 5.04151 6.24872 5.67505 7.00745 6.35207C7.43057 6.1047 8.02036 6.13665 8.46232 6.31302C9.49294 6.72431 9.87947 6.4278 9.94732 6.16484C9.99576 5.97716 9.93096 5.61118 9.02418 5.69943C8.90197 5.69943 8.82135 5.68964 8.74794 5.59786C8.67957 5.51238 8.62873 5.24236 8.6389 5.07498L8.64077 5.06471C8.66501 4.98393 8.69098 4.98251 8.73334 4.93005L8.75468 4.91542C9.24402 4.75738 9.52171 4.81195 9.90454 4.97625C10.179 5.09411 10.2887 4.9343 10.3822 4.71339C9.98376 4.50417 9.72931 4.54996 9.27002 4.59937C9.1061 4.61701 8.9343 4.69558 8.77761 4.74438C8.56804 4.80967 8.32061 4.87191 8.06183 4.86694C7.71905 4.86036 7.37786 4.70602 7.25658 4.32061C7.15578 4.00038 7.2977 3.74302 7.54942 3.56502C7.59372 3.86848 7.7185 4.05332 7.98941 4.20303C8.56455 4.52104 9.06907 4.12657 9.64766 4.14033C9.92674 4.14693 10.1988 4.24252 10.4347 4.38956C10.4326 4.35623 10.4288 4.32119 10.4234 4.28378C10.3902 4.05135 10.3063 3.92986 9.9939 3.91517C9.59776 3.89656 9.26594 4.21983 8.86866 4.12473C8.49753 4.03586 8.4543 3.70871 8.49919 3.3947C8.50998 3.31907 8.53764 3.2581 8.57191 3.20353C8.47882 3.1481 8.49739 3.03505 8.51907 2.94814C8.5853 2.77489 8.75108 2.73581 8.89273 2.65897C8.97283 2.61553 9.06395 2.59018 9.14771 2.55418C9.24509 2.51241 9.35437 2.45466 9.46451 2.35842C9.41468 1.69893 9.19719 1.20413 8.71477 0.736133C9.09507 0.527256 9.3561 0.649297 9.57922 0.994081C9.86221 0.767568 10.1692 1.03005 10.2182 1.30148C9.73892 1.48152 9.90596 1.85687 10.2772 1.85687C10.7023 1.85687 10.7759 1.42643 10.3647 1.31397C10.3446 1.05118 10.5027 0.878957 10.7736 0.864571C10.7935 0.667141 10.9262 0.430945 11.1211 0.353516C11.3336 0.438069 11.4374 0.629239 11.4883 0.838012C11.76 0.848974 11.9353 1.07244 11.9464 1.31908C11.4533 1.45689 11.6216 1.84995 12.0172 1.85009C12.3432 1.8502 12.5632 1.45098 12.0811 1.31258C12.0871 1.03053 12.3895 0.755464 12.6806 0.94079C12.9298 0.577193 13.2206 0.581516 13.557 0.783856C13.0993 1.2299 12.8149 1.71667 12.7784 2.3395C12.9578 2.3018 13.5705 2.191 13.6841 2.4077C13.748 2.6146 13.8163 3.06545 13.342 3.70781C13.5724 3.955 13.6061 4.28903 13.5922 4.79127L13.5898 4.867C13.5583 5.16994 13.6254 5.60184 13.8373 5.84817C13.8783 5.90222 13.806 5.92294 13.806 5.92294C13.6747 5.93117 13.5464 5.91349 13.4249 5.83361C13.5223 6.34671 13.533 6.71715 13.4303 7.14808L13.4249 7.19193C13.3849 7.54335 13.4216 7.8705 13.7055 8.52348C13.7149 8.55509 13.7071 8.59233 13.6505 8.58472C13.531 8.54737 13.4084 8.5001 13.2827 8.39895C13.4131 8.78246 13.4708 9.13486 13.4003 9.54292C13.3374 9.90735 13.3999 10.3278 13.6155 10.7886C13.6155 10.7886 13.6281 10.8577 13.5585 10.8501C13.4275 10.8005 13.2901 10.7681 13.1584 10.7483C13.2071 10.9266 13.2924 11.1698 13.4337 11.3895C14.024 12.3004 15.0192 13.2528 16.2179 13.028C16.8024 12.9184 17.2938 12.5263 17.5833 12.0301C17.863 11.5506 17.951 10.9787 17.7569 10.4764C17.5634 9.97627 17.328 9.75623 16.9651 9.47656C16.7816 9.33509 16.567 9.17961 16.3116 8.96731C16.0555 8.75456 15.7584 8.48485 15.4104 8.11544C15.1802 7.87129 14.8254 7.08185 14.5714 6.98084C14.3674 6.89971 14.1648 6.87035 13.8319 7.14521C13.7913 7.17827 13.7624 7.16737 13.7579 7.10896C13.7779 6.41874 14.0261 6.07178 14.6817 6.07081C14.8124 5.51812 14.9976 5.10991 15.438 4.75461C15.983 4.315 16.6536 4.0602 17.2623 3.72476C17.5447 3.56924 18.212 3.21671 18.0507 2.80684C17.6319 2.52811 17.9001 2.16278 18.0994 2.07889C19.1846 1.62195 20.4036 2.57417 19.4436 3.71013C19.018 4.21382 18.0233 4.54667 17.4104 4.83076C16.5223 5.24212 15.2426 5.99265 16.0118 7.1616C16.0764 7.25974 16.1534 7.35522 16.2414 7.44638C16.9909 8.22296 17.8168 8.73872 18.414 9.67313C18.5719 9.53061 18.7677 9.43666 18.9718 9.39578C19.1168 9.37133 19.2669 9.36777 19.4249 9.39491C20.3762 9.59103 20.5775 10.9372 19.5511 11.2385C19.4901 11.2525 19.4792 11.2054 19.4983 11.1741C19.9553 10.3012 18.9182 10.1698 18.8381 11.0697C18.7441 12.1623 18.3579 12.7924 17.5191 13.5264C16.9211 13.962 16.0764 14.2103 15.3664 14.0294C15.3987 14.4031 15.2862 14.7206 15.0531 15.0081C14.5222 15.9032 15.181 16.6504 15.8893 16.8262C16.3184 16.891 17.1806 17.0009 17.4877 16.6803C17.5105 16.6576 17.5653 16.6586 17.5655 16.7088C17.5852 17.0248 17.5534 17.3107 17.1456 17.5657C17.524 17.9591 17.5653 18.2477 17.5155 18.6161C17.5105 18.6442 17.4778 18.6768 17.4413 18.6446C17.1451 18.3932 16.887 18.4041 16.5425 18.5511C16.7666 18.9175 16.8093 19.0895 16.7702 19.5581C16.7702 19.5581 16.7491 19.6158 16.6947 19.5879C16.5412 19.4488 16.1813 19.2493 16.0311 19.5192C15.9115 19.7343 16.1445 19.8164 15.8687 20.1067C16.2322 20.4563 16.296 20.8881 16.1111 21.3304C15.9552 21.0222 15.7576 20.9089 15.5369 20.8644C15.5636 21.0489 15.554 21.1608 15.265 21.0349C15.3209 21.3222 15.2215 21.6612 14.9211 21.8583C14.7812 21.9285 14.6247 22.0001 14.5285 21.9186C14.366 22.0933 14.2696 22.3744 14.3457 22.6971C14.0883 22.5086 13.9091 22.1725 13.8816 21.8868C13.7209 22.158 13.4442 22.2496 13.2772 22.0593C13.0599 22.2355 13.0599 22.4792 13.0172 22.8123C12.7308 22.3763 12.5504 21.9983 12.8333 21.5411C12.6627 21.3484 12.8606 21.1534 13.009 21.0234C12.7375 21.0343 12.5533 21.0864 12.387 21.2923L12.2962 21.3922L12.3069 21.259C12.3169 21.1662 12.3245 21.0721 12.3403 20.9792C12.3966 20.6501 12.5563 20.455 12.8233 20.3153C12.8895 19.9707 13.1033 19.9663 13.4598 20.104C13.6142 20.0765 13.6907 20.0568 13.8169 19.8944C13.9954 19.6649 14.0664 19.3582 14.0363 19.0721C14.0535 18.3468 13.8323 17.9836 13.6429 17.8845C13.5381 17.8298 13.3388 17.7674 13.153 17.6602C13.0037 17.574 12.8575 17.4564 12.7759 17.2873C12.5694 17.8634 11.7515 18.0029 11.2318 17.2847C11.2318 17.2847 11.2101 17.2521 11.2316 17.2321C11.5578 16.7717 11.4477 16.363 11.1506 15.8908C10.9972 15.6466 10.9386 15.3033 10.9438 15.0159C9.28005 14.551 8.70772 16.637 9.62034 16.9145C10.0855 17.056 10.4961 17.1252 10.6613 17.0426C10.6613 17.0426 10.7244 17.0273 10.7266 17.0805C10.7449 17.3985 10.4536 17.6894 10.2093 17.8164L10.2331 17.8242C10.442 17.8963 10.5212 18.0547 10.5862 18.261C10.5862 18.261 10.5939 18.3179 10.53 18.3179C10.097 18.1877 9.86556 18.7628 9.38425 18.6098C9.47786 18.8687 9.50314 19.1101 9.2758 19.4658C9.23797 19.5105 9.1945 19.4815 9.19374 19.4522C9.11468 19.1305 8.91341 19.0199 8.62476 18.9629C8.76934 19.2009 8.81233 19.6362 8.60079 19.8505C8.56372 19.8911 8.53346 19.8473 8.53346 19.8473C8.43417 19.7249 8.35121 19.6462 8.05761 19.6467C7.87681 19.6468 7.67119 19.7456 7.59449 19.7947C7.66247 19.8454 7.68927 19.9275 7.68602 20.0133C7.64978 20.2665 7.57287 20.3944 7.44596 20.451C7.51087 21.0081 7.26454 21.225 6.76901 21.5036C6.88534 21.1191 6.93113 21.0115 6.75867 20.7661C6.7125 20.8139 6.6553 20.8594 6.5787 20.8947C6.45424 20.9231 6.30748 20.9311 6.20401 20.8604C6.02971 21.0195 5.70889 21.166 5.51281 21.0181C5.30632 21.1627 5.33039 21.3946 5.38289 21.6356C4.8977 21.4817 4.79465 20.9477 4.90728 20.5193C4.83618 20.555 4.74516 20.5556 4.65787 20.4169C4.47348 20.464 4.35341 20.6583 4.33325 20.9025C3.99974 20.4747 3.98536 20.105 4.38295 19.6695C4.36635 19.6008 4.37565 19.5222 4.41919 19.429C4.44447 19.3748 4.4794 19.3422 4.51792 19.3209C4.29369 19.2121 3.98525 19.2387 3.75898 19.4709C3.82573 18.9813 4.3347 18.5058 4.99858 18.6791C5.144 18.5333 5.35042 18.5678 5.57313 18.775C5.99019 19.0074 6.23019 18.8671 6.37508 18.6115C6.45552 18.4695 6.82846 17.5586 6.94199 16.9178C6.97291 16.7435 6.9837 16.5941 6.96658 16.487C6.95209 16.3958 6.81677 16.2603 6.75805 16.1927C6.65395 16.0731 6.53406 15.9228 6.45753 15.7157C5.64841 15.8515 5.25265 15.0621 5.19642 14.409C5.18895 14.3339 5.25704 14.3626 5.25704 14.3626C5.97383 14.6253 6.40448 14.3243 6.88552 13.8632C7.04612 13.7093 7.21045 13.5399 7.39052 13.3716C8.07047 12.7366 8.73504 12.5076 9.41565 12.5225C9.76251 12.5301 10.2816 12.6214 10.6008 12.732C10.3642 12.5052 10.0676 12.2826 9.76666 12.0908C9.2676 11.7727 8.76775 11.5465 8.5179 11.5217C8.46941 11.5101 8.48038 11.4599 8.48038 11.4599C8.50666 11.3943 8.48698 11.3379 8.46084 11.2981C8.38527 11.7012 8.12553 11.8243 7.87927 12.0837C7.69145 12.2816 7.45273 12.6184 7.44042 12.8568C7.42545 12.913 7.36735 12.8901 7.36735 12.8901C7.21585 12.7715 7.20146 12.5698 7.16702 12.3961C7.01779 12.7873 6.78523 13.0452 6.47192 13.2464C6.41485 13.2824 6.37042 13.2609 6.37668 13.2183C6.41558 13.0129 6.41368 12.8205 6.37813 12.6598C6.20574 13.2183 5.88222 13.4905 5.59823 13.6886C5.55864 13.7106 5.48798 13.7105 5.49853 13.6574C5.59692 13.4485 5.65315 13.0544 5.59661 12.7456C5.44987 13.1386 5.09506 13.4787 4.95777 13.5266C4.88045 13.5266 4.89767 13.4813 4.89767 13.4813C4.90445 13.3597 4.93152 13.246 4.92146 13.1223C4.90987 12.9802 4.85772 12.822 4.69747 12.6791C4.26094 12.3843 4.08215 12.6971 4.3003 12.852C4.50319 12.9961 4.58017 13.1913 4.44855 13.2705C4.53172 13.7045 4.27315 13.9676 3.80252 14.0904C3.94085 13.8251 3.992 13.6916 3.86332 13.5109C3.70787 13.6076 3.54744 13.5046 3.55277 13.0719C3.49609 12.858 3.14235 12.9874 3.18886 13.184L3.27144 13.2725C3.45421 13.4241 3.44805 13.6586 3.28413 13.7266C3.26179 14.0965 3.29707 14.3124 3.55726 14.6351C3.03784 14.5764 2.67801 14.2806 2.5447 13.7923C2.33752 13.7676 2.41401 13.4682 2.47422 13.3078C2.47557 13.2409 2.1377 13.0719 2.21188 13.4487C2.27887 13.8144 1.86364 13.9984 1.77943 13.7155C1.53449 13.8602 1.4629 14.0959 1.40881 14.433L1.34629 14.371C1.0873 14.1144 1.05774 13.3787 1.4334 13.0648C1.34003 12.9117 1.44495 12.6671 1.65926 12.6986C1.80641 12.7202 2.29228 12.7757 2.23847 12.4907C2.19635 12.2678 1.93329 12.6124 1.69377 12.4311C1.61783 12.3736 1.59545 12.2821 1.64505 12.1966C1.43271 12.1529 1.16318 12.2028 0.994141 12.3473C0.994141 11.9413 1.20775 11.6 1.95134 11.5558C2.04163 11.3936 2.22782 11.3361 2.50846 11.5036L2.52492 11.5206C2.52492 11.5206 2.53083 11.5311 2.54297 11.547C2.61871 11.6464 2.73431 11.7044 2.86047 11.7097C3.20238 11.6622 3.49287 11.4784 3.99573 11.1086C4.56184 10.7175 5.04551 10.2499 5.52253 9.75993C5.59145 9.68917 5.65304 9.62658 5.7072 9.57519C5.24964 9.5495 4.80253 9.44416 4.46359 9.21453C4.43043 9.19209 4.43053 9.15336 4.47213 9.13548C4.64394 9.06524 4.8477 8.96222 4.97928 8.82887C4.7333 8.63096 5.04298 8.24029 4.95874 7.94523C4.8145 8.17596 4.66949 8.33929 4.52273 8.43042C4.48317 8.45494 4.4406 8.40967 4.45609 8.37837C4.52888 8.1521 4.4859 7.96467 4.40418 7.75071C4.30348 7.87641 4.20983 8.09321 4.22622 8.33929C4.22581 8.40846 4.16235 8.38674 4.15121 8.3763C3.83022 8.09424 3.74868 7.92638 3.78098 7.43739C3.52358 7.59602 3.30848 7.59813 2.99651 7.42788C2.95702 7.4044 2.97518 7.36269 3.00271 7.34565C3.30668 7.23509 3.38657 6.91766 3.32183 6.62233C3.26857 6.37921 3.36433 6.09979 3.43135 5.86539C3.45027 5.79934 3.46054 5.75438 3.46002 5.72945C3.45148 5.32093 2.96335 5.30094 3.02221 5.6367C3.10783 5.86581 3.10213 6.07935 3.03635 6.20215C2.97656 6.31368 2.87582 6.33955 2.77633 6.27332C2.37445 6.50585 2.16239 6.50219 1.76722 6.18441C2.07203 6.09197 2.23737 5.96602 2.35415 5.74221C2.24297 5.60219 2.24553 5.4622 2.43293 5.34344C2.70188 5.13457 2.47886 5.00447 2.26514 5.11638C2.0868 5.39646 1.83646 5.50058 1.73607 5.31792C1.5239 5.3663 1.4463 5.44964 1.38001 5.74197C1.14475 5.57099 1.09139 4.94786 1.58598 4.66473C1.55821 4.45309 1.74143 4.3361 1.98028 4.42612C2.10381 4.40966 2.33077 4.2705 2.16599 4.1552C2.05892 4.11564 1.78828 4.06473 1.7573 3.92523C1.75277 3.8551 1.76781 3.80917 1.79517 3.77767C1.6134 3.59251 1.44658 3.60517 1.12334 3.63899C1.44959 3.13776 1.87996 3.1277 2.33959 3.43046C2.36916 3.41324 2.40817 3.40117 2.46703 3.39408C2.71958 3.36704 2.70454 3.66842 2.68209 3.82747C2.6702 4.05951 2.86341 4.014 2.93475 3.89459C2.95336 3.7573 2.92175 3.67129 2.89937 3.54178C2.86479 3.34186 3.07298 3.24036 3.19633 3.35158C3.22573 3.37772 3.25156 3.40809 3.27597 3.43963L3.27615 3.44049Z" fill="black"/>
<path d="M11.6395 13.5305C11.8661 13.5305 11.9895 13.1169 12.0006 13.0772C12.01 13.0238 12.0937 13.031 12.0902 13.089C12.0805 13.2459 12.008 13.3845 11.9048 13.521C11.8416 13.6067 11.7669 13.6911 11.6877 13.7738C11.4055 14.0817 11.072 14.4277 11.0327 14.985C11.0284 15.0451 10.9382 15.0387 10.9424 14.9786C10.9796 14.4532 11.2453 14.1295 11.5587 13.7818C11.586 13.6922 11.25 13.367 11.2056 13.3206C11.0747 13.1841 10.9357 13.0149 10.7749 12.912C10.7211 12.8775 10.7709 12.8002 10.8259 12.8371C11.0267 12.9721 11.2902 13.2275 11.4138 13.3508C11.4539 13.3907 11.5828 13.5306 11.6395 13.5306L11.6395 13.5305ZM12.6559 2.9822C12.7101 2.91268 12.7956 2.75692 13.086 2.58984C12.7994 2.62768 12.5894 2.86181 12.5606 2.91299C12.4863 3.04479 12.5807 3.07875 12.6559 2.98216V2.9822ZM10.0829 3.11849C9.88403 3.11849 9.69026 2.9048 9.50139 3.07868C9.45847 2.94242 9.69019 2.88491 9.69517 2.70601C9.79459 2.78552 9.83931 2.97933 10.0828 3.11849" fill="black"/>
<path d="M7.18383 3.10226H6.24367L5.77356 3.93062L5.30344 3.10226H4.36328L4.8334 2.2739L4.36328 1.44555H5.30344L5.77356 0.617188L6.24367 1.44555H7.18383L6.71372 2.2739L7.18383 3.10226Z" fill="black"/>
<path d="M4.51758 3.01216L4.93647 2.27373L4.51758 1.5353H5.35571L5.77495 0.796875L6.19384 1.5353H7.03197L6.61308 2.27373L7.03197 3.01216H6.19384L5.77495 3.75058L5.35571 3.01216H4.51758Z" fill="white"/>
<path d="M15.517 20.766C15.716 20.7986 15.9598 20.9308 16.0885 21.1189C16.158 20.7806 16.0983 20.4389 15.771 20.1434C15.451 20.2514 15.4812 20.5369 15.517 20.7662V20.766ZM12.905 21.5918C12.683 21.9612 12.7894 22.2773 12.955 22.5551C12.9894 22.3158 13.0388 22.124 13.2189 21.981C13.2082 21.9611 13.1984 21.9395 13.1895 21.916C13.1558 21.7557 13.0024 21.6237 12.905 21.5917V21.5918ZM12.8394 20.4059C12.609 20.5321 12.474 20.7066 12.4248 20.9945C12.4168 21.0411 12.411 21.0881 12.4059 21.1351C12.5647 20.991 12.7439 20.9468 12.9648 20.9346C12.9386 20.8491 12.9582 20.7367 12.9673 20.6599C12.9524 20.5975 12.8772 20.4915 12.8394 20.4059L12.8394 20.4059ZM14.0553 21.4016C13.8656 21.7977 13.9911 22.1835 14.2309 22.4684C14.2301 22.1897 14.3329 21.9839 14.4705 21.8418C14.4642 21.827 14.4586 21.8106 14.4538 21.7923C14.4325 21.7115 14.4197 21.6265 14.3674 21.5578C14.2987 21.4463 14.1862 21.3654 14.0555 21.4016L14.0553 21.4016ZM6.8157 20.6948C6.97398 20.9115 6.98796 21.043 6.9154 21.3132C7.20703 21.1356 7.39734 20.935 7.35283 20.4784C7.28519 20.4913 7.20696 20.4919 7.11698 20.4853C6.94338 20.4724 6.93411 20.5364 6.83289 20.6724L6.81567 20.6949L6.8157 20.6948ZM4.99658 20.5201C4.88363 20.917 4.9963 21.3499 5.25885 21.4946C5.23426 21.3109 5.25612 21.0855 5.44231 20.9495C5.40496 20.8975 5.37619 20.8278 5.35914 20.7369C5.23329 20.7373 5.10067 20.6315 4.99658 20.52V20.5201ZM4.41743 19.7588C4.07759 20.106 4.13213 20.4091 4.28595 20.7285C4.33921 20.5 4.47062 20.3652 4.63865 20.3235C4.65013 20.1989 4.69647 19.9877 4.61683 19.9377C4.53083 19.8837 4.46045 19.8261 4.41743 19.7588V19.7588ZM4.93288 18.7573C4.41311 18.6395 4.07607 18.9207 3.91409 19.2582C4.16024 19.1248 4.36608 19.1291 4.63115 19.2805C4.71549 19.2603 4.79185 19.2441 4.80852 19.1361C4.83359 18.9731 4.87644 18.847 4.93288 18.7573ZM3.93069 13.4524C4.02216 13.5775 4.06106 13.7246 3.96983 13.948C4.30411 13.8252 4.39997 13.5726 4.35612 13.3011C4.3216 13.3068 4.28094 13.3084 4.23363 13.3053L4.2163 13.3005C4.13628 13.2601 4.05664 13.2717 4.01642 13.3367C3.99013 13.3819 3.96102 13.4209 3.93069 13.4524ZM2.63441 13.7883C2.7449 14.1549 3.01136 14.4331 3.34694 14.5145C3.20159 14.2882 3.17403 14.0442 3.18856 13.7458C3.15612 13.7469 3.12029 13.7433 3.08097 13.7342L3.06728 13.7285C2.97754 13.6724 2.75988 13.685 2.69455 13.7649L2.67072 13.7801C2.65807 13.7833 2.64596 13.7859 2.63441 13.7881V13.7883ZM1.49427 13.1303C1.19237 13.378 1.173 13.9567 1.34782 14.2339C1.40948 13.9479 1.53179 13.7404 1.761 13.6174C1.76021 13.5859 1.76222 13.5511 1.76758 13.5125L1.77179 13.4988C1.79725 13.4469 1.68887 13.2008 1.4941 13.1303H1.49427ZM1.90881 11.6493C1.31379 11.6926 1.17328 11.8842 1.06836 12.209C1.2643 12.0993 1.48438 12.0583 1.7128 12.1194C1.78929 12.0637 1.86534 11.9849 1.88529 11.8972C1.87955 11.8072 1.88744 11.7223 1.90877 11.6493L1.90881 11.6493ZM2.41533 5.81321C2.32507 5.9727 2.18491 6.12722 1.95256 6.21865C2.18149 6.38403 2.36059 6.39824 2.70095 6.20973C2.69382 6.20157 2.6868 6.19292 2.67982 6.18369L2.67349 6.17228L2.58928 5.9477C2.52223 5.90378 2.4633 5.85865 2.41533 5.81325V5.81321ZM1.60819 4.75503C1.25925 4.96633 1.22792 5.3191 1.34343 5.63034C1.37279 5.41434 1.49299 5.28476 1.71041 5.23216C1.7128 5.12738 1.79126 5.00873 1.6557 4.82527C1.639 4.80276 1.62143 4.7799 1.60819 4.75503ZM3.79136 3.69924C3.81698 3.2476 3.71828 3.12736 3.44723 2.93359C3.47808 3.14901 3.45605 3.38102 3.33 3.51848C3.40151 3.61455 3.47721 3.70235 3.61668 3.70886C3.67838 3.71176 3.73668 3.69814 3.79132 3.69935L3.79136 3.69924ZM2.26763 3.49521C1.83373 3.21966 1.50406 3.2984 1.30514 3.53145C1.56181 3.51689 1.71823 3.56589 1.86956 3.72767C1.97137 3.6888 2.11554 3.69004 2.20061 3.58522C2.22869 3.55071 2.2483 3.52066 2.2676 3.49521" fill="#FBC707"/>
<path d="M12.7342 2.37813H9.51281C9.47371 1.71413 9.22665 1.16929 8.79102 0.746319C9.10956 0.57158 9.36956 0.727011 9.57121 1.06469C9.77285 0.851058 10.117 0.987008 10.1689 1.27303C9.70076 1.4488 9.85007 1.90323 10.2791 1.90323C10.7725 1.90323 10.8118 1.38956 10.4094 1.27936C10.3955 1.09708 10.5227 0.906594 10.8183 0.909327C10.8247 0.668777 10.993 0.454177 11.1236 0.402344C11.3049 0.474523 11.4095 0.668777 11.4548 0.883445C11.7592 0.874899 11.8961 1.14337 11.9026 1.28586C11.4161 1.42185 11.5648 1.89627 12.0203 1.89637C12.4096 1.89648 12.6038 1.41538 12.1302 1.27943C12.1367 0.974102 12.5067 0.838152 12.6954 1.00649C12.935 0.623448 13.2274 0.636459 13.4873 0.792824C12.8874 1.37752 12.7434 1.98239 12.7343 2.37813" fill="#FBC707"/>
<path d="M12.7342 2.37813H9.51281C9.47371 1.71413 9.22665 1.16929 8.79102 0.746319C9.10956 0.571581 9.36956 0.727011 9.57121 1.06469C9.77285 0.851058 10.117 0.987008 10.1689 1.27303C9.70076 1.4488 9.85007 1.90323 10.2791 1.90323C10.7725 1.90323 10.8118 1.38956 10.4094 1.27936C10.3955 1.09708 10.5227 0.906594 10.8183 0.909327C10.8247 0.668777 10.993 0.454177 11.1236 0.402344C11.3049 0.474523 11.4095 0.668777 11.4548 0.883445C11.7592 0.874899 11.8961 1.14337 11.9026 1.28586C11.4161 1.42185 11.5648 1.89627 12.0203 1.89637C12.4096 1.89648 12.6038 1.41538 12.1302 1.27943C12.1367 0.974102 12.5067 0.838152 12.6954 1.00649C12.935 0.623448 13.2274 0.636459 13.4873 0.792824C12.8874 1.37752 12.7434 1.98239 12.7343 2.37813" stroke="black" stroke-width="0.103833"/>
<path d="M7.51612 3.64457C7.55518 3.91204 7.73072 4.11145 7.96836 4.243C8.5668 4.57397 9.06513 4.1721 9.64837 4.18591C9.86962 4.19113 10.1864 4.2638 10.4837 4.47462C10.4812 4.55106 10.4681 4.62134 10.4417 4.69279C10.0383 4.45781 9.73519 4.50452 9.26665 4.55497C9.03091 4.5804 8.56666 4.83213 8.06348 4.82244C7.73252 4.81611 7.41363 4.66836 7.30017 4.3075C7.21249 4.02861 7.33761 3.77076 7.51594 3.64453L7.51612 3.64457Z" fill="#F0432A" stroke="black" stroke-width="0.103833"/>
</g>
<defs>
<clipPath id="clip0_634_21487">
<rect width="20.611" height="24" fill="white" transform="translate(0.291016)"/>
</clipPath>
</defs>
</svg>
