<svg width="417" height="386" viewBox="0 0 417 386" fill="none" xmlns="http://www.w3.org/2000/svg">
<rect width="417" height="386" rx="8" fill="#FAFAFA"/>
<rect x="67" y="91" width="202" height="12" rx="2.83212" fill="#F2F2F2"/>
<rect x="67" y="111" width="169" height="12" rx="2.83212" fill="#F2F2F2"/>
<rect x="67.5" y="157.5" width="130" height="157" rx="2.33212" fill="#F2F2F2" stroke="#0000C4"/>
<rect x="222" y="157" width="131" height="158" rx="2.83212" fill="#F2F2F2"/>
<circle r="2" transform="matrix(-1 0 0 1 42.5 288.5)" fill="#D2EEFF" stroke="#D2EEFF"/>
<path d="M122 286C111.429 262.802 100.555 257.983 91.3681 256.709C82.1811 255.436 78.2047 269.169 89.0782 269.169C99.9517 269.169 91.3681 240.973 48 234" stroke="#D2EEFF" stroke-width="2" stroke-linecap="round"/>
<path d="M41.9426 261.577L30.9199 250.554L26.8853 265.611L41.9426 261.577Z" fill="#D2EEFF" stroke="#D2EEFF"/>
<path d="M81.5535 346.577L92.5762 335.554L96.6108 350.611L81.5535 346.577Z" fill="#D2EEFF" stroke="#D2EEFF"/>
<circle r="6" transform="matrix(-1 0 0 1 150.996 248.5)" fill="#D2EEFF" stroke="#D2EEFF"/>
<rect x="79" y="198" width="107" height="12" rx="2.83212" fill="#D2EEFF"/>
<rect x="234" y="198" width="107" height="12" rx="2.83212" fill="#E6E6E6"/>
<rect x="79" y="218" width="65" height="12" rx="2.83212" fill="#D2EEFF"/>
<rect x="234" y="218" width="65" height="12" rx="2.83212" fill="#E6E6E6"/>
<path d="M85.084 188C85.004 188 84.952 187.96 84.928 187.88L84.532 186.596C84.516 186.564 84.496 186.548 84.472 186.548H81.304C81.28 186.548 81.26 186.564 81.244 186.596L80.848 187.88C80.824 187.96 80.772 188 80.692 188H79.492C79.444 188 79.408 187.988 79.384 187.964C79.36 187.932 79.356 187.888 79.372 187.832L81.976 179.72C82 179.64 82.052 179.6 82.132 179.6H83.632C83.712 179.6 83.764 179.64 83.788 179.72L86.404 187.832C86.412 187.848 86.416 187.868 86.416 187.892C86.416 187.964 86.372 188 86.284 188H85.084ZM81.616 185.384C81.608 185.432 81.624 185.456 81.664 185.456H84.1C84.148 185.456 84.164 185.432 84.148 185.384L82.912 181.364C82.904 181.332 82.892 181.316 82.876 181.316C82.86 181.316 82.848 181.332 82.84 181.364L81.616 185.384ZM90.4653 181.772C91.1133 181.772 91.6293 181.964 92.0133 182.348C92.4053 182.732 92.6013 183.256 92.6013 183.92V187.856C92.6013 187.896 92.5853 187.932 92.5533 187.964C92.5293 187.988 92.4973 188 92.4573 188H91.3533C91.3133 188 91.2773 187.988 91.2453 187.964C91.2213 187.932 91.2093 187.896 91.2093 187.856V184.208C91.2093 183.84 91.1053 183.544 90.8973 183.32C90.6893 183.088 90.4133 182.972 90.0693 182.972C89.7253 182.972 89.4453 183.084 89.2293 183.308C89.0213 183.532 88.9173 183.828 88.9173 184.196V187.856C88.9173 187.896 88.9013 187.932 88.8693 187.964C88.8453 187.988 88.8133 188 88.7733 188H87.6693C87.6293 188 87.5933 187.988 87.5613 187.964C87.5373 187.932 87.5253 187.896 87.5253 187.856V182.012C87.5253 181.972 87.5373 181.94 87.5613 181.916C87.5933 181.884 87.6293 181.868 87.6693 181.868H88.7733C88.8133 181.868 88.8453 181.884 88.8693 181.916C88.9013 181.94 88.9173 181.972 88.9173 182.012V182.396C88.9173 182.42 88.9253 182.436 88.9413 182.444C88.9573 182.452 88.9693 182.444 88.9773 182.42C89.3053 181.988 89.8013 181.772 90.4653 181.772ZM97.8086 182.012C97.8086 181.972 97.8206 181.94 97.8446 181.916C97.8766 181.884 97.9126 181.868 97.9526 181.868H99.0566C99.0966 181.868 99.1286 181.884 99.1526 181.916C99.1846 181.94 99.2006 181.972 99.2006 182.012V187.592C99.2006 188.592 98.9126 189.304 98.3366 189.728C97.7686 190.16 97.0206 190.376 96.0926 190.376C95.8446 190.376 95.6006 190.364 95.3606 190.34C95.2726 190.332 95.2286 190.28 95.2286 190.184L95.2646 189.2C95.2646 189.112 95.3206 189.068 95.4326 189.068C95.6646 189.092 95.8726 189.104 96.0566 189.104C96.6566 189.104 97.0966 188.984 97.3766 188.744C97.6646 188.512 97.8086 188.116 97.8086 187.556V187.46C97.8086 187.436 97.8006 187.424 97.7846 187.424C97.7686 187.416 97.7526 187.42 97.7366 187.436C97.4086 187.788 96.9446 187.964 96.3446 187.964C95.8246 187.964 95.3486 187.832 94.9166 187.568C94.4846 187.304 94.1846 186.9 94.0166 186.356C93.9126 185.98 93.8606 185.496 93.8606 184.904C93.8606 184.24 93.9246 183.732 94.0526 183.38C94.2126 182.892 94.4886 182.504 94.8806 182.216C95.2726 181.92 95.7326 181.772 96.2606 181.772C96.8926 181.772 97.3846 181.956 97.7366 182.324C97.7526 182.348 97.7686 182.356 97.7846 182.348C97.8006 182.34 97.8086 182.324 97.8086 182.3V182.012ZM97.7246 185.96C97.7566 185.84 97.7766 185.712 97.7846 185.576C97.8006 185.432 97.8086 185.204 97.8086 184.892C97.8086 184.588 97.8006 184.372 97.7846 184.244C97.7766 184.108 97.7526 183.976 97.7126 183.848C97.6486 183.584 97.5166 183.372 97.3166 183.212C97.1246 183.052 96.8766 182.972 96.5726 182.972C96.2846 182.972 96.0406 183.052 95.8406 183.212C95.6406 183.372 95.4966 183.584 95.4086 183.848C95.3126 184.072 95.2646 184.424 95.2646 184.904C95.2646 185.4 95.3046 185.748 95.3846 185.948C95.4646 186.204 95.6086 186.416 95.8166 186.584C96.0326 186.744 96.2886 186.824 96.5846 186.824C96.8966 186.824 97.1486 186.744 97.3406 186.584C97.5326 186.424 97.6606 186.216 97.7246 185.96ZM105.811 184.244C105.843 184.444 105.859 184.668 105.859 184.916L105.847 185.288C105.847 185.384 105.799 185.432 105.703 185.432H101.947C101.907 185.432 101.887 185.452 101.887 185.492C101.911 185.756 101.947 185.936 101.995 186.032C102.187 186.608 102.655 186.9 103.399 186.908C103.943 186.908 104.375 186.684 104.695 186.236C104.727 186.188 104.767 186.164 104.815 186.164C104.847 186.164 104.875 186.176 104.899 186.2L105.643 186.812C105.715 186.868 105.727 186.932 105.679 187.004C105.431 187.356 105.099 187.628 104.683 187.82C104.275 188.012 103.819 188.108 103.315 188.108C102.691 188.108 102.159 187.968 101.719 187.688C101.287 187.408 100.971 187.016 100.771 186.512C100.587 186.08 100.495 185.48 100.495 184.712C100.495 184.248 100.543 183.872 100.639 183.584C100.799 183.024 101.099 182.584 101.539 182.264C101.987 181.936 102.523 181.772 103.147 181.772C104.723 181.772 105.611 182.596 105.811 184.244ZM103.147 182.972C102.851 182.972 102.603 183.048 102.403 183.2C102.211 183.344 102.075 183.548 101.995 183.812C101.947 183.948 101.915 184.124 101.899 184.34C101.883 184.38 101.899 184.4 101.947 184.4H104.383C104.423 184.4 104.443 184.38 104.443 184.34C104.427 184.14 104.403 183.988 104.371 183.884C104.299 183.596 104.155 183.372 103.939 183.212C103.731 183.052 103.467 182.972 103.147 182.972ZM112.303 183.452C112.439 183.9 112.507 184.388 112.507 184.916C112.507 185.484 112.431 185.984 112.279 186.416C112.103 186.944 111.819 187.356 111.427 187.652C111.035 187.948 110.555 188.096 109.987 188.096C109.427 188.096 108.967 187.884 108.607 187.46C108.591 187.436 108.575 187.428 108.559 187.436C108.543 187.444 108.535 187.46 108.535 187.484V187.856C108.535 187.896 108.519 187.932 108.487 187.964C108.463 187.988 108.431 188 108.391 188H107.287C107.247 188 107.211 187.988 107.179 187.964C107.155 187.932 107.143 187.896 107.143 187.856V179.744C107.143 179.704 107.155 179.672 107.179 179.648C107.211 179.616 107.247 179.6 107.287 179.6H108.391C108.431 179.6 108.463 179.616 108.487 179.648C108.519 179.672 108.535 179.704 108.535 179.744V182.348C108.535 182.372 108.543 182.388 108.559 182.396C108.575 182.404 108.591 182.4 108.607 182.384C108.951 181.976 109.407 181.772 109.975 181.772C110.567 181.772 111.055 181.92 111.439 182.216C111.831 182.512 112.119 182.924 112.303 183.452ZM110.791 186.32C110.983 185.984 111.079 185.524 111.079 184.94C111.079 184.316 110.959 183.828 110.719 183.476C110.503 183.14 110.183 182.972 109.759 182.972C109.367 182.972 109.067 183.148 108.859 183.5C108.659 183.828 108.559 184.304 108.559 184.928C108.559 185.544 108.651 186.008 108.835 186.32C109.043 186.704 109.355 186.896 109.771 186.896C109.995 186.896 110.195 186.848 110.371 186.752C110.547 186.648 110.687 186.504 110.791 186.32ZM116.391 188.096C115.759 188.096 115.215 187.936 114.759 187.616C114.311 187.296 113.995 186.852 113.811 186.284C113.675 185.852 113.607 185.396 113.607 184.916C113.607 184.404 113.671 183.948 113.799 183.548C113.983 182.988 114.303 182.552 114.759 182.24C115.215 181.928 115.763 181.772 116.403 181.772C117.011 181.772 117.535 181.928 117.975 182.24C118.423 182.552 118.739 182.984 118.923 183.536C119.067 183.92 119.139 184.376 119.139 184.904C119.139 185.408 119.071 185.864 118.935 186.272C118.751 186.84 118.435 187.288 117.987 187.616C117.539 187.936 117.007 188.096 116.391 188.096ZM116.391 186.896C116.687 186.896 116.939 186.812 117.147 186.644C117.363 186.476 117.519 186.24 117.615 185.936C117.695 185.672 117.735 185.336 117.735 184.928C117.735 184.496 117.695 184.16 117.615 183.92C117.527 183.616 117.375 183.384 117.159 183.224C116.943 183.056 116.679 182.972 116.367 182.972C116.071 182.972 115.815 183.056 115.599 183.224C115.383 183.384 115.227 183.616 115.131 183.92C115.051 184.2 115.011 184.536 115.011 184.928C115.011 185.32 115.051 185.656 115.131 185.936C115.219 186.24 115.371 186.476 115.587 186.644C115.811 186.812 116.079 186.896 116.391 186.896ZM123.578 182.852C123.578 182.892 123.562 182.928 123.53 182.96C123.506 182.984 123.474 182.996 123.434 182.996H122.21C122.17 182.996 122.15 183.016 122.15 183.056V185.948C122.15 186.252 122.214 186.472 122.342 186.608C122.478 186.744 122.69 186.812 122.978 186.812H123.338C123.378 186.812 123.41 186.828 123.434 186.86C123.466 186.884 123.482 186.916 123.482 186.956V187.856C123.482 187.944 123.434 187.996 123.338 188.012L122.714 188.024C122.082 188.024 121.61 187.916 121.298 187.7C120.986 187.484 120.826 187.076 120.818 186.476V183.056C120.818 183.016 120.798 182.996 120.758 182.996H120.074C120.034 182.996 119.998 182.984 119.966 182.96C119.942 182.928 119.93 182.892 119.93 182.852V182.012C119.93 181.972 119.942 181.94 119.966 181.916C119.998 181.884 120.034 181.868 120.074 181.868H120.758C120.798 181.868 120.818 181.848 120.818 181.808V180.404C120.818 180.364 120.83 180.332 120.854 180.308C120.886 180.276 120.922 180.26 120.962 180.26H122.006C122.046 180.26 122.078 180.276 122.102 180.308C122.134 180.332 122.15 180.364 122.15 180.404V181.808C122.15 181.848 122.17 181.868 122.21 181.868H123.434C123.474 181.868 123.506 181.884 123.53 181.916C123.562 181.94 123.578 181.972 123.578 182.012V182.852Z" fill="#0000C4"/>
<path d="M240.084 188C240.004 188 239.952 187.96 239.928 187.88L239.532 186.596C239.516 186.564 239.496 186.548 239.472 186.548H236.304C236.28 186.548 236.26 186.564 236.244 186.596L235.848 187.88C235.824 187.96 235.772 188 235.692 188H234.492C234.444 188 234.408 187.988 234.384 187.964C234.36 187.932 234.356 187.888 234.372 187.832L236.976 179.72C237 179.64 237.052 179.6 237.132 179.6H238.632C238.712 179.6 238.764 179.64 238.788 179.72L241.404 187.832C241.412 187.848 241.416 187.868 241.416 187.892C241.416 187.964 241.372 188 241.284 188H240.084ZM236.616 185.384C236.608 185.432 236.624 185.456 236.664 185.456H239.1C239.148 185.456 239.164 185.432 239.148 185.384L237.912 181.364C237.904 181.332 237.892 181.316 237.876 181.316C237.86 181.316 237.848 181.332 237.84 181.364L236.616 185.384ZM245.465 181.772C246.113 181.772 246.629 181.964 247.013 182.348C247.405 182.732 247.601 183.256 247.601 183.92V187.856C247.601 187.896 247.585 187.932 247.553 187.964C247.529 187.988 247.497 188 247.457 188H246.353C246.313 188 246.277 187.988 246.245 187.964C246.221 187.932 246.209 187.896 246.209 187.856V184.208C246.209 183.84 246.105 183.544 245.897 183.32C245.689 183.088 245.413 182.972 245.069 182.972C244.725 182.972 244.445 183.084 244.229 183.308C244.021 183.532 243.917 183.828 243.917 184.196V187.856C243.917 187.896 243.901 187.932 243.869 187.964C243.845 187.988 243.813 188 243.773 188H242.669C242.629 188 242.593 187.988 242.561 187.964C242.537 187.932 242.525 187.896 242.525 187.856V182.012C242.525 181.972 242.537 181.94 242.561 181.916C242.593 181.884 242.629 181.868 242.669 181.868H243.773C243.813 181.868 243.845 181.884 243.869 181.916C243.901 181.94 243.917 181.972 243.917 182.012V182.396C243.917 182.42 243.925 182.436 243.941 182.444C243.957 182.452 243.969 182.444 243.977 182.42C244.305 181.988 244.801 181.772 245.465 181.772ZM252.809 182.012C252.809 181.972 252.821 181.94 252.845 181.916C252.877 181.884 252.913 181.868 252.953 181.868H254.057C254.097 181.868 254.129 181.884 254.153 181.916C254.185 181.94 254.201 181.972 254.201 182.012V187.592C254.201 188.592 253.913 189.304 253.337 189.728C252.769 190.16 252.021 190.376 251.093 190.376C250.845 190.376 250.601 190.364 250.361 190.34C250.273 190.332 250.229 190.28 250.229 190.184L250.265 189.2C250.265 189.112 250.321 189.068 250.433 189.068C250.665 189.092 250.873 189.104 251.057 189.104C251.657 189.104 252.097 188.984 252.377 188.744C252.665 188.512 252.809 188.116 252.809 187.556V187.46C252.809 187.436 252.801 187.424 252.785 187.424C252.769 187.416 252.753 187.42 252.737 187.436C252.409 187.788 251.945 187.964 251.345 187.964C250.825 187.964 250.349 187.832 249.917 187.568C249.485 187.304 249.185 186.9 249.017 186.356C248.913 185.98 248.861 185.496 248.861 184.904C248.861 184.24 248.925 183.732 249.053 183.38C249.213 182.892 249.489 182.504 249.881 182.216C250.273 181.92 250.733 181.772 251.261 181.772C251.893 181.772 252.385 181.956 252.737 182.324C252.753 182.348 252.769 182.356 252.785 182.348C252.801 182.34 252.809 182.324 252.809 182.3V182.012ZM252.725 185.96C252.757 185.84 252.777 185.712 252.785 185.576C252.801 185.432 252.809 185.204 252.809 184.892C252.809 184.588 252.801 184.372 252.785 184.244C252.777 184.108 252.753 183.976 252.713 183.848C252.649 183.584 252.517 183.372 252.317 183.212C252.125 183.052 251.877 182.972 251.573 182.972C251.285 182.972 251.041 183.052 250.841 183.212C250.641 183.372 250.497 183.584 250.409 183.848C250.313 184.072 250.265 184.424 250.265 184.904C250.265 185.4 250.305 185.748 250.385 185.948C250.465 186.204 250.609 186.416 250.817 186.584C251.033 186.744 251.289 186.824 251.585 186.824C251.897 186.824 252.149 186.744 252.341 186.584C252.533 186.424 252.661 186.216 252.725 185.96ZM260.811 184.244C260.843 184.444 260.859 184.668 260.859 184.916L260.847 185.288C260.847 185.384 260.799 185.432 260.703 185.432H256.947C256.907 185.432 256.887 185.452 256.887 185.492C256.911 185.756 256.947 185.936 256.995 186.032C257.187 186.608 257.655 186.9 258.399 186.908C258.943 186.908 259.375 186.684 259.695 186.236C259.727 186.188 259.767 186.164 259.815 186.164C259.847 186.164 259.875 186.176 259.899 186.2L260.643 186.812C260.715 186.868 260.727 186.932 260.679 187.004C260.431 187.356 260.099 187.628 259.683 187.82C259.275 188.012 258.819 188.108 258.315 188.108C257.691 188.108 257.159 187.968 256.719 187.688C256.287 187.408 255.971 187.016 255.771 186.512C255.587 186.08 255.495 185.48 255.495 184.712C255.495 184.248 255.543 183.872 255.639 183.584C255.799 183.024 256.099 182.584 256.539 182.264C256.987 181.936 257.523 181.772 258.147 181.772C259.723 181.772 260.611 182.596 260.811 184.244ZM258.147 182.972C257.851 182.972 257.603 183.048 257.403 183.2C257.211 183.344 257.075 183.548 256.995 183.812C256.947 183.948 256.915 184.124 256.899 184.34C256.883 184.38 256.899 184.4 256.947 184.4H259.383C259.423 184.4 259.443 184.38 259.443 184.34C259.427 184.14 259.403 183.988 259.371 183.884C259.299 183.596 259.155 183.372 258.939 183.212C258.731 183.052 258.467 182.972 258.147 182.972ZM267.303 183.452C267.439 183.9 267.507 184.388 267.507 184.916C267.507 185.484 267.431 185.984 267.279 186.416C267.103 186.944 266.819 187.356 266.427 187.652C266.035 187.948 265.555 188.096 264.987 188.096C264.427 188.096 263.967 187.884 263.607 187.46C263.591 187.436 263.575 187.428 263.559 187.436C263.543 187.444 263.535 187.46 263.535 187.484V187.856C263.535 187.896 263.519 187.932 263.487 187.964C263.463 187.988 263.431 188 263.391 188H262.287C262.247 188 262.211 187.988 262.179 187.964C262.155 187.932 262.143 187.896 262.143 187.856V179.744C262.143 179.704 262.155 179.672 262.179 179.648C262.211 179.616 262.247 179.6 262.287 179.6H263.391C263.431 179.6 263.463 179.616 263.487 179.648C263.519 179.672 263.535 179.704 263.535 179.744V182.348C263.535 182.372 263.543 182.388 263.559 182.396C263.575 182.404 263.591 182.4 263.607 182.384C263.951 181.976 264.407 181.772 264.975 181.772C265.567 181.772 266.055 181.92 266.439 182.216C266.831 182.512 267.119 182.924 267.303 183.452ZM265.791 186.32C265.983 185.984 266.079 185.524 266.079 184.94C266.079 184.316 265.959 183.828 265.719 183.476C265.503 183.14 265.183 182.972 264.759 182.972C264.367 182.972 264.067 183.148 263.859 183.5C263.659 183.828 263.559 184.304 263.559 184.928C263.559 185.544 263.651 186.008 263.835 186.32C264.043 186.704 264.355 186.896 264.771 186.896C264.995 186.896 265.195 186.848 265.371 186.752C265.547 186.648 265.687 186.504 265.791 186.32ZM271.391 188.096C270.759 188.096 270.215 187.936 269.759 187.616C269.311 187.296 268.995 186.852 268.811 186.284C268.675 185.852 268.607 185.396 268.607 184.916C268.607 184.404 268.671 183.948 268.799 183.548C268.983 182.988 269.303 182.552 269.759 182.24C270.215 181.928 270.763 181.772 271.403 181.772C272.011 181.772 272.535 181.928 272.975 182.24C273.423 182.552 273.739 182.984 273.923 183.536C274.067 183.92 274.139 184.376 274.139 184.904C274.139 185.408 274.071 185.864 273.935 186.272C273.751 186.84 273.435 187.288 272.987 187.616C272.539 187.936 272.007 188.096 271.391 188.096ZM271.391 186.896C271.687 186.896 271.939 186.812 272.147 186.644C272.363 186.476 272.519 186.24 272.615 185.936C272.695 185.672 272.735 185.336 272.735 184.928C272.735 184.496 272.695 184.16 272.615 183.92C272.527 183.616 272.375 183.384 272.159 183.224C271.943 183.056 271.679 182.972 271.367 182.972C271.071 182.972 270.815 183.056 270.599 183.224C270.383 183.384 270.227 183.616 270.131 183.92C270.051 184.2 270.011 184.536 270.011 184.928C270.011 185.32 270.051 185.656 270.131 185.936C270.219 186.24 270.371 186.476 270.587 186.644C270.811 186.812 271.079 186.896 271.391 186.896ZM278.578 182.852C278.578 182.892 278.562 182.928 278.53 182.96C278.506 182.984 278.474 182.996 278.434 182.996H277.21C277.17 182.996 277.15 183.016 277.15 183.056V185.948C277.15 186.252 277.214 186.472 277.342 186.608C277.478 186.744 277.69 186.812 277.978 186.812H278.338C278.378 186.812 278.41 186.828 278.434 186.86C278.466 186.884 278.482 186.916 278.482 186.956V187.856C278.482 187.944 278.434 187.996 278.338 188.012L277.714 188.024C277.082 188.024 276.61 187.916 276.298 187.7C275.986 187.484 275.826 187.076 275.818 186.476V183.056C275.818 183.016 275.798 182.996 275.758 182.996H275.074C275.034 182.996 274.998 182.984 274.966 182.96C274.942 182.928 274.93 182.892 274.93 182.852V182.012C274.93 181.972 274.942 181.94 274.966 181.916C274.998 181.884 275.034 181.868 275.074 181.868H275.758C275.798 181.868 275.818 181.848 275.818 181.808V180.404C275.818 180.364 275.83 180.332 275.854 180.308C275.886 180.276 275.922 180.26 275.962 180.26H277.006C277.046 180.26 277.078 180.276 277.102 180.308C277.134 180.332 277.15 180.364 277.15 180.404V181.808C277.15 181.848 277.17 181.868 277.21 181.868H278.434C278.474 181.868 278.506 181.884 278.53 181.916C278.562 181.94 278.578 181.972 278.578 182.012V182.852Z" fill="#B3B3B3"/>
<rect x="79" y="276" width="107" height="24" rx="2.83212" fill="#D2EEFF"/>
<rect x="234" y="276" width="107" height="24" rx="2.83212" fill="#E6E6E6"/>
<g filter="url(#filter0_d_1579_37191)">
<path d="M172.548 314.921C171.265 315.662 169.65 314.799 169.552 313.321L168.595 298.862C168.485 297.206 170.323 296.144 171.703 297.067L183.746 305.126C184.977 305.95 184.917 307.78 183.634 308.52L172.548 314.921Z" fill="#0000C4"/>
<path d="M175.968 315.255C175.416 314.299 175.744 313.076 176.7 312.523L179.481 310.918C180.438 310.366 181.661 310.693 182.213 311.65L184.269 315.211C184.821 316.168 184.494 317.391 183.537 317.943L180.756 319.549C179.8 320.101 178.577 319.773 178.024 318.817L175.968 315.255Z" fill="#0000C4"/>
<path d="M172.548 314.921C171.265 315.662 169.65 314.799 169.552 313.321L168.595 298.862C168.485 297.206 170.323 296.144 171.703 297.067L183.746 305.126C184.977 305.95 184.917 307.78 183.634 308.52L172.548 314.921Z" stroke="#0000C4"/>
<path d="M175.968 315.255C175.416 314.299 175.744 313.076 176.7 312.523L179.481 310.918C180.438 310.366 181.661 310.693 182.213 311.65L184.269 315.211C184.821 316.168 184.494 317.391 183.537 317.943L180.756 319.549C179.8 320.101 178.577 319.773 178.024 318.817L175.968 315.255Z" stroke="#0000C4"/>
</g>
<rect x="67" y="111" width="169" height="12" rx="2.83212" fill="#F2F2F2"/>
<path d="M112.996 77C112.864 77 112.78 76.94 112.744 76.82L109.468 64.634L109.45 64.562C109.45 64.454 109.516 64.4 109.648 64.4H111.412C111.544 64.4 111.628 64.46 111.664 64.58L113.716 72.788C113.728 72.824 113.746 72.842 113.77 72.842C113.794 72.842 113.812 72.824 113.824 72.788L115.786 64.58C115.822 64.46 115.9 64.4 116.02 64.4H117.748C117.88 64.4 117.964 64.46 118 64.58L120.088 72.806C120.1 72.842 120.118 72.86 120.142 72.86C120.166 72.86 120.184 72.842 120.196 72.806L122.212 64.58C122.248 64.46 122.332 64.4 122.464 64.4H124.138C124.306 64.4 124.372 64.478 124.336 64.634L121.222 76.82C121.186 76.94 121.102 77 120.97 77H119.296C119.164 77 119.08 76.94 119.044 76.82L116.938 68.234C116.926 68.198 116.908 68.18 116.884 68.18C116.86 68.168 116.842 68.186 116.83 68.234L114.814 76.82C114.778 76.94 114.7 77 114.58 77H112.996ZM127.107 66.542C126.735 66.542 126.429 66.422 126.189 66.182C125.949 65.942 125.829 65.636 125.829 65.264C125.829 64.892 125.949 64.586 126.189 64.346C126.429 64.106 126.735 63.986 127.107 63.986C127.479 63.986 127.785 64.106 128.025 64.346C128.265 64.586 128.385 64.892 128.385 65.264C128.385 65.636 128.265 65.942 128.025 66.182C127.785 66.422 127.479 66.542 127.107 66.542ZM126.243 77C126.183 77 126.129 76.982 126.081 76.946C126.045 76.898 126.027 76.844 126.027 76.784V68C126.027 67.94 126.045 67.892 126.081 67.856C126.129 67.808 126.183 67.784 126.243 67.784H127.899C127.959 67.784 128.007 67.808 128.043 67.856C128.091 67.892 128.115 67.94 128.115 68V76.784C128.115 76.844 128.091 76.898 128.043 76.946C128.007 76.982 127.959 77 127.899 77H126.243ZM130.723 77C130.663 77 130.609 76.982 130.561 76.946C130.525 76.898 130.507 76.844 130.507 76.784V64.616C130.507 64.556 130.525 64.508 130.561 64.472C130.609 64.424 130.663 64.4 130.723 64.4H132.379C132.439 64.4 132.487 64.424 132.523 64.472C132.571 64.508 132.595 64.556 132.595 64.616V76.784C132.595 76.844 132.571 76.898 132.523 76.946C132.487 76.982 132.439 77 132.379 77H130.723ZM135.029 77C134.969 77 134.915 76.982 134.867 76.946C134.831 76.898 134.813 76.844 134.813 76.784V64.616C134.813 64.556 134.831 64.508 134.867 64.472C134.915 64.424 134.969 64.4 135.029 64.4H136.685C136.745 64.4 136.793 64.424 136.829 64.472C136.877 64.508 136.901 64.556 136.901 64.616V76.784C136.901 76.844 136.877 76.898 136.829 76.946C136.793 76.982 136.745 77 136.685 77H135.029ZM139.371 77C139.311 77 139.257 76.982 139.209 76.946C139.173 76.898 139.155 76.844 139.155 76.784V64.616C139.155 64.556 139.173 64.508 139.209 64.472C139.257 64.424 139.311 64.4 139.371 64.4H141.027C141.087 64.4 141.135 64.424 141.171 64.472C141.219 64.508 141.243 64.556 141.243 64.616V71.114C141.243 71.15 141.255 71.174 141.279 71.186C141.303 71.198 141.327 71.186 141.351 71.15L144.267 67.928C144.351 67.844 144.441 67.802 144.537 67.802H146.445C146.565 67.802 146.625 67.844 146.625 67.928C146.625 67.964 146.607 68.012 146.571 68.072L144.285 70.808C144.249 70.844 144.243 70.886 144.267 70.934L146.967 76.748C146.991 76.796 147.003 76.832 147.003 76.856C147.003 76.952 146.937 77 146.805 77H145.059C144.939 77 144.855 76.946 144.807 76.838L142.845 72.266C142.833 72.242 142.809 72.23 142.773 72.23C142.749 72.218 142.731 72.224 142.719 72.248L141.279 73.904C141.255 73.952 141.243 73.994 141.243 74.03V76.784C141.243 76.844 141.219 76.898 141.171 76.946C141.135 76.982 141.087 77 141.027 77H139.371ZM151.815 77.144C150.867 77.144 150.051 76.904 149.367 76.424C148.695 75.944 148.221 75.278 147.945 74.426C147.741 73.778 147.639 73.094 147.639 72.374C147.639 71.606 147.735 70.922 147.927 70.322C148.203 69.482 148.683 68.828 149.367 68.36C150.051 67.892 150.873 67.658 151.833 67.658C152.745 67.658 153.531 67.892 154.191 68.36C154.863 68.828 155.337 69.476 155.613 70.304C155.829 70.88 155.937 71.564 155.937 72.356C155.937 73.112 155.835 73.796 155.631 74.408C155.355 75.26 154.881 75.932 154.209 76.424C153.537 76.904 152.739 77.144 151.815 77.144ZM151.815 75.344C152.259 75.344 152.637 75.218 152.949 74.966C153.273 74.714 153.507 74.36 153.651 73.904C153.771 73.508 153.831 73.004 153.831 72.392C153.831 71.744 153.771 71.24 153.651 70.88C153.519 70.424 153.291 70.076 152.967 69.836C152.643 69.584 152.247 69.458 151.779 69.458C151.335 69.458 150.951 69.584 150.627 69.836C150.303 70.076 150.069 70.424 149.925 70.88C149.805 71.3 149.745 71.804 149.745 72.392C149.745 72.98 149.805 73.484 149.925 73.904C150.057 74.36 150.285 74.714 150.609 74.966C150.945 75.218 151.347 75.344 151.815 75.344ZM167.757 67.658C168.681 67.658 169.401 67.94 169.917 68.504C170.445 69.056 170.709 69.83 170.709 70.826V76.784C170.709 76.844 170.685 76.898 170.637 76.946C170.601 76.982 170.553 77 170.493 77H168.855C168.795 77 168.741 76.982 168.693 76.946C168.657 76.898 168.639 76.844 168.639 76.784V71.258C168.639 70.706 168.489 70.268 168.189 69.944C167.901 69.62 167.511 69.458 167.019 69.458C166.527 69.458 166.125 69.62 165.813 69.944C165.501 70.268 165.345 70.7 165.345 71.24V76.784C165.345 76.844 165.321 76.898 165.273 76.946C165.237 76.982 165.189 77 165.129 77H163.491C163.431 77 163.377 76.982 163.329 76.946C163.293 76.898 163.275 76.844 163.275 76.784V71.258C163.275 70.706 163.125 70.268 162.825 69.944C162.525 69.62 162.129 69.458 161.637 69.458C161.181 69.458 160.803 69.59 160.503 69.854C160.215 70.118 160.047 70.478 159.999 70.934V76.784C159.999 76.844 159.975 76.898 159.927 76.946C159.891 76.982 159.843 77 159.783 77H158.127C158.067 77 158.013 76.982 157.965 76.946C157.929 76.898 157.911 76.844 157.911 76.784V68.018C157.911 67.958 157.929 67.91 157.965 67.874C158.013 67.826 158.067 67.802 158.127 67.802H159.783C159.843 67.802 159.891 67.826 159.927 67.874C159.975 67.91 159.999 67.958 159.999 68.018V68.612C159.999 68.648 160.011 68.672 160.035 68.684C160.059 68.696 160.083 68.684 160.107 68.648C160.371 68.312 160.695 68.066 161.079 67.91C161.475 67.742 161.913 67.658 162.393 67.658C162.981 67.658 163.497 67.778 163.941 68.018C164.385 68.258 164.727 68.606 164.967 69.062C165.003 69.11 165.045 69.11 165.093 69.062C165.357 68.582 165.723 68.228 166.191 68C166.659 67.772 167.181 67.658 167.757 67.658ZM182.681 67.658C183.605 67.658 184.325 67.94 184.841 68.504C185.369 69.056 185.633 69.83 185.633 70.826V76.784C185.633 76.844 185.609 76.898 185.561 76.946C185.525 76.982 185.477 77 185.417 77H183.779C183.719 77 183.665 76.982 183.617 76.946C183.581 76.898 183.563 76.844 183.563 76.784V71.258C183.563 70.706 183.413 70.268 183.113 69.944C182.825 69.62 182.435 69.458 181.943 69.458C181.451 69.458 181.049 69.62 180.737 69.944C180.425 70.268 180.269 70.7 180.269 71.24V76.784C180.269 76.844 180.245 76.898 180.197 76.946C180.161 76.982 180.113 77 180.053 77H178.415C178.355 77 178.301 76.982 178.253 76.946C178.217 76.898 178.199 76.844 178.199 76.784V71.258C178.199 70.706 178.049 70.268 177.749 69.944C177.449 69.62 177.053 69.458 176.561 69.458C176.105 69.458 175.727 69.59 175.427 69.854C175.139 70.118 174.971 70.478 174.923 70.934V76.784C174.923 76.844 174.899 76.898 174.851 76.946C174.815 76.982 174.767 77 174.707 77H173.051C172.991 77 172.937 76.982 172.889 76.946C172.853 76.898 172.835 76.844 172.835 76.784V68.018C172.835 67.958 172.853 67.91 172.889 67.874C172.937 67.826 172.991 67.802 173.051 67.802H174.707C174.767 67.802 174.815 67.826 174.851 67.874C174.899 67.91 174.923 67.958 174.923 68.018V68.612C174.923 68.648 174.935 68.672 174.959 68.684C174.983 68.696 175.007 68.684 175.031 68.648C175.295 68.312 175.619 68.066 176.003 67.91C176.399 67.742 176.837 67.658 177.317 67.658C177.905 67.658 178.421 67.778 178.865 68.018C179.309 68.258 179.651 68.606 179.891 69.062C179.927 69.11 179.969 69.11 180.017 69.062C180.281 68.582 180.647 68.228 181.115 68C181.583 67.772 182.105 67.658 182.681 67.658ZM195.446 71.366C195.494 71.666 195.518 72.002 195.518 72.374L195.5 72.932C195.5 73.076 195.428 73.148 195.284 73.148H189.65C189.59 73.148 189.56 73.178 189.56 73.238C189.596 73.634 189.65 73.904 189.722 74.048C190.01 74.912 190.712 75.35 191.828 75.362C192.644 75.362 193.292 75.026 193.772 74.354C193.82 74.282 193.88 74.246 193.952 74.246C194 74.246 194.042 74.264 194.078 74.3L195.194 75.218C195.302 75.302 195.32 75.398 195.248 75.506C194.876 76.034 194.378 76.442 193.754 76.73C193.142 77.018 192.458 77.162 191.702 77.162C190.766 77.162 189.968 76.952 189.308 76.532C188.66 76.112 188.186 75.524 187.886 74.768C187.61 74.12 187.472 73.22 187.472 72.068C187.472 71.372 187.544 70.808 187.688 70.376C187.928 69.536 188.378 68.876 189.038 68.396C189.71 67.904 190.514 67.658 191.45 67.658C193.814 67.658 195.146 68.894 195.446 71.366ZM191.45 69.458C191.006 69.458 190.634 69.572 190.334 69.8C190.046 70.016 189.842 70.322 189.722 70.718C189.65 70.922 189.602 71.186 189.578 71.51C189.554 71.57 189.578 71.6 189.65 71.6H193.304C193.364 71.6 193.394 71.57 193.394 71.51C193.37 71.21 193.334 70.982 193.286 70.826C193.178 70.394 192.962 70.058 192.638 69.818C192.326 69.578 191.93 69.458 191.45 69.458ZM201.837 67.658C202.809 67.658 203.583 67.946 204.159 68.522C204.747 69.098 205.041 69.884 205.041 70.88V76.784C205.041 76.844 205.017 76.898 204.969 76.946C204.933 76.982 204.885 77 204.825 77H203.169C203.109 77 203.055 76.982 203.007 76.946C202.971 76.898 202.953 76.844 202.953 76.784V71.312C202.953 70.76 202.797 70.316 202.485 69.98C202.173 69.632 201.759 69.458 201.243 69.458C200.727 69.458 200.307 69.626 199.983 69.962C199.671 70.298 199.515 70.742 199.515 71.294V76.784C199.515 76.844 199.491 76.898 199.443 76.946C199.407 76.982 199.359 77 199.299 77H197.643C197.583 77 197.529 76.982 197.481 76.946C197.445 76.898 197.427 76.844 197.427 76.784V68.018C197.427 67.958 197.445 67.91 197.481 67.874C197.529 67.826 197.583 67.802 197.643 67.802H199.299C199.359 67.802 199.407 67.826 199.443 67.874C199.491 67.91 199.515 67.958 199.515 68.018V68.594C199.515 68.63 199.527 68.654 199.551 68.666C199.575 68.678 199.593 68.666 199.605 68.63C200.097 67.982 200.841 67.658 201.837 67.658Z" fill="#0000C4"/>
<path d="M79 82C85.6274 82 91 76.6274 91 70C91 63.3726 85.6274 58 79 58C72.3726 58 67 63.3726 67 70C67 76.6274 72.3726 82 79 82Z" stroke="#0000C4" stroke-width="2" stroke-linecap="round" stroke-linejoin="round"/>
<path d="M79 74C81.7614 74 84 71.7614 84 69C84 66.2386 81.7614 64 79 64C76.2386 64 74 66.2386 74 69C74 71.7614 76.2386 74 79 74Z" stroke="#0000C4" stroke-width="2" stroke-linecap="round" stroke-linejoin="round"/>
<path d="M70.9766 78.9258C71.7289 77.4438 72.877 76.1991 74.2935 75.3297C75.71 74.4602 77.3395 74 79.0016 74C80.6636 74 82.2932 74.4602 83.7096 75.3297C85.1261 76.1991 86.2742 77.4438 87.0266 78.9258" stroke="#0000C4" stroke-width="2" stroke-linecap="round" stroke-linejoin="round"/>
<defs>
<filter id="filter0_d_1579_37191" x="166.09" y="296.225" width="19.0437" height="28.0923" filterUnits="userSpaceOnUse" color-interpolation-filters="sRGB">
<feFlood flood-opacity="0" result="BackgroundImageFix"/>
<feColorMatrix in="SourceAlpha" type="matrix" values="0 0 0 0 0 0 0 0 0 0 0 0 0 0 0 0 0 0 127 0" result="hardAlpha"/>
<feOffset dx="-2" dy="4"/>
<feComposite in2="hardAlpha" operator="out"/>
<feColorMatrix type="matrix" values="0 0 0 0 0.823529 0 0 0 0 0.933333 0 0 0 0 1 0 0 0 1 0"/>
<feBlend mode="normal" in2="BackgroundImageFix" result="effect1_dropShadow_1579_37191"/>
<feBlend mode="normal" in="SourceGraphic" in2="effect1_dropShadow_1579_37191" result="shape"/>
</filter>
</defs>
</svg>
