<svg width="417" height="386" viewBox="0 0 417 386" fill="none" xmlns="http://www.w3.org/2000/svg">
<rect width="417" height="386" rx="8" fill="#FAFAFA"/>
<rect x="63" y="100" width="291" height="39" rx="2.83212" fill="#F2F2F2"/>
<rect x="63" y="156" width="291" height="39" rx="2.83212" fill="#F2F2F2"/>
<path opacity="0.3" d="M93.132 115.72C93.132 115.64 93.172 115.6 93.252 115.6H93.864C93.944 115.6 93.984 115.64 93.984 115.72V123.88C93.984 123.96 93.944 124 93.864 124H93.264C93.208 124 93.16 123.972 93.12 123.916L89.028 117.256C89.02 117.232 89.008 117.224 88.992 117.232C88.976 117.232 88.968 117.244 88.968 117.268L88.98 123.88C88.98 123.96 88.94 124 88.86 124H88.248C88.168 124 88.128 123.96 88.128 123.88V115.72C88.128 115.64 88.168 115.6 88.248 115.6H88.848C88.904 115.6 88.952 115.628 88.992 115.684L93.084 122.344C93.092 122.368 93.104 122.38 93.12 122.38C93.136 122.372 93.144 122.356 93.144 122.332L93.132 115.72ZM98.1694 117.832C98.8894 117.832 99.4454 118.016 99.8374 118.384C100.229 118.752 100.425 119.24 100.425 119.848V123.88C100.425 123.96 100.385 124 100.305 124H99.6934C99.6134 124 99.5734 123.96 99.5734 123.88V123.388C99.5734 123.372 99.5654 123.36 99.5494 123.352C99.5414 123.344 99.5294 123.348 99.5134 123.364C99.3134 123.604 99.0534 123.788 98.7334 123.916C98.4134 124.036 98.0574 124.096 97.6654 124.096C97.0974 124.096 96.6214 123.952 96.2374 123.664C95.8534 123.376 95.6614 122.936 95.6614 122.344C95.6614 121.744 95.8774 121.272 96.3094 120.928C96.7494 120.576 97.3574 120.4 98.1334 120.4H99.5254C99.5574 120.4 99.5734 120.384 99.5734 120.352V119.896C99.5734 119.488 99.4574 119.168 99.2254 118.936C99.0014 118.696 98.6494 118.576 98.1694 118.576C97.7854 118.576 97.4734 118.652 97.2334 118.804C96.9934 118.948 96.8454 119.152 96.7894 119.416C96.7654 119.496 96.7174 119.532 96.6454 119.524L95.9974 119.44C95.9094 119.424 95.8734 119.392 95.8894 119.344C95.9534 118.896 96.1934 118.532 96.6094 118.252C97.0254 117.972 97.5454 117.832 98.1694 117.832ZM97.8334 123.364C98.3054 123.364 98.7134 123.248 99.0574 123.016C99.4014 122.776 99.5734 122.456 99.5734 122.056V121.12C99.5734 121.088 99.5574 121.072 99.5254 121.072H98.2654C97.7374 121.072 97.3134 121.18 96.9934 121.396C96.6734 121.612 96.5134 121.912 96.5134 122.296C96.5134 122.648 96.6334 122.916 96.8734 123.1C97.1214 123.276 97.4414 123.364 97.8334 123.364ZM108.342 117.844C108.942 117.844 109.414 118.024 109.758 118.384C110.11 118.744 110.286 119.236 110.286 119.86V123.88C110.286 123.96 110.246 124 110.166 124H109.566C109.486 124 109.446 123.96 109.446 123.88V120.028C109.446 119.588 109.318 119.24 109.062 118.984C108.814 118.72 108.486 118.588 108.078 118.588C107.654 118.588 107.31 118.716 107.046 118.972C106.79 119.228 106.662 119.572 106.662 120.004V123.88C106.662 123.96 106.622 124 106.542 124H105.93C105.85 124 105.81 123.96 105.81 123.88V120.028C105.81 119.588 105.686 119.24 105.438 118.984C105.19 118.72 104.858 118.588 104.442 118.588C104.018 118.588 103.678 118.716 103.422 118.972C103.174 119.228 103.05 119.572 103.05 120.004V123.88C103.05 123.96 103.01 124 102.93 124H102.318C102.238 124 102.198 123.96 102.198 123.88V118.048C102.198 117.968 102.238 117.928 102.318 117.928H102.93C103.01 117.928 103.05 117.968 103.05 118.048V118.528C103.05 118.544 103.054 118.556 103.062 118.564C103.078 118.564 103.094 118.556 103.11 118.54C103.286 118.308 103.51 118.136 103.782 118.024C104.062 117.904 104.37 117.844 104.706 117.844C105.122 117.844 105.478 117.928 105.774 118.096C106.07 118.264 106.294 118.508 106.446 118.828C106.462 118.868 106.482 118.868 106.506 118.828C106.682 118.5 106.93 118.256 107.25 118.096C107.57 117.928 107.934 117.844 108.342 117.844ZM116.698 119.944C116.73 120.168 116.746 120.448 116.746 120.784V121.168C116.746 121.248 116.706 121.288 116.626 121.288H112.75C112.718 121.288 112.702 121.304 112.702 121.336C112.718 121.776 112.742 122.06 112.774 122.188C112.862 122.548 113.05 122.832 113.338 123.04C113.626 123.248 113.994 123.352 114.442 123.352C114.778 123.352 115.074 123.276 115.33 123.124C115.586 122.972 115.786 122.756 115.93 122.476C115.978 122.404 116.034 122.388 116.098 122.428L116.566 122.704C116.63 122.744 116.646 122.8 116.614 122.872C116.414 123.256 116.114 123.56 115.714 123.784C115.314 124 114.854 124.108 114.334 124.108C113.766 124.1 113.29 123.964 112.906 123.7C112.522 123.436 112.246 123.068 112.078 122.596C111.934 122.212 111.862 121.66 111.862 120.94C111.862 120.604 111.866 120.332 111.874 120.124C111.89 119.908 111.922 119.716 111.97 119.548C112.106 119.028 112.378 118.612 112.786 118.3C113.202 117.988 113.702 117.832 114.286 117.832C115.014 117.832 115.574 118.016 115.966 118.384C116.358 118.752 116.602 119.272 116.698 119.944ZM114.286 118.576C113.894 118.576 113.566 118.68 113.302 118.888C113.046 119.088 112.878 119.36 112.798 119.704C112.75 119.872 112.718 120.144 112.702 120.52C112.702 120.552 112.718 120.568 112.75 120.568H115.858C115.89 120.568 115.906 120.552 115.906 120.52C115.89 120.16 115.866 119.904 115.834 119.752C115.746 119.392 115.566 119.108 115.294 118.9C115.03 118.684 114.694 118.576 114.286 118.576Z" fill="black"/>
<path opacity="0.3" d="M91.32 171.588C92.024 171.588 92.588 171.804 93.012 172.236C93.444 172.668 93.66 173.236 93.66 173.94C93.66 174.636 93.44 175.196 93 175.62C92.568 176.044 91.996 176.256 91.284 176.256H88.944C88.912 176.256 88.896 176.272 88.896 176.304V179.88C88.896 179.96 88.856 180 88.776 180H88.164C88.084 180 88.044 179.96 88.044 179.88V171.708C88.044 171.628 88.084 171.588 88.164 171.588H91.32ZM91.224 175.548C91.696 175.548 92.08 175.404 92.376 175.116C92.672 174.82 92.82 174.432 92.82 173.952C92.82 173.464 92.672 173.072 92.376 172.776C92.08 172.48 91.696 172.332 91.224 172.332H88.944C88.912 172.332 88.896 172.348 88.896 172.38V175.5C88.896 175.532 88.912 175.548 88.944 175.548H91.224ZM97.1264 173.832C97.8464 173.832 98.4024 174.016 98.7944 174.384C99.1864 174.752 99.3824 175.24 99.3824 175.848V179.88C99.3824 179.96 99.3424 180 99.2624 180H98.6504C98.5704 180 98.5304 179.96 98.5304 179.88V179.388C98.5304 179.372 98.5224 179.36 98.5064 179.352C98.4984 179.344 98.4864 179.348 98.4704 179.364C98.2704 179.604 98.0104 179.788 97.6904 179.916C97.3704 180.036 97.0144 180.096 96.6224 180.096C96.0544 180.096 95.5784 179.952 95.1944 179.664C94.8104 179.376 94.6184 178.936 94.6184 178.344C94.6184 177.744 94.8344 177.272 95.2664 176.928C95.7064 176.576 96.3144 176.4 97.0904 176.4H98.4824C98.5144 176.4 98.5304 176.384 98.5304 176.352V175.896C98.5304 175.488 98.4144 175.168 98.1824 174.936C97.9584 174.696 97.6064 174.576 97.1264 174.576C96.7424 174.576 96.4304 174.652 96.1904 174.804C95.9504 174.948 95.8024 175.152 95.7464 175.416C95.7224 175.496 95.6744 175.532 95.6024 175.524L94.9544 175.44C94.8664 175.424 94.8304 175.392 94.8464 175.344C94.9104 174.896 95.1504 174.532 95.5664 174.252C95.9824 173.972 96.5024 173.832 97.1264 173.832ZM96.7904 179.364C97.2624 179.364 97.6704 179.248 98.0144 179.016C98.3584 178.776 98.5304 178.456 98.5304 178.056V177.12C98.5304 177.088 98.5144 177.072 98.4824 177.072H97.2224C96.6944 177.072 96.2704 177.18 95.9504 177.396C95.6304 177.612 95.4704 177.912 95.4704 178.296C95.4704 178.648 95.5904 178.916 95.8304 179.1C96.0784 179.276 96.3984 179.364 96.7904 179.364ZM103.147 180.06C102.699 180.06 102.299 179.988 101.947 179.844C101.603 179.7 101.335 179.508 101.143 179.268C100.959 179.028 100.867 178.76 100.867 178.464V178.32C100.867 178.24 100.907 178.2 100.987 178.2H101.563C101.643 178.2 101.683 178.24 101.683 178.32V178.416C101.683 178.68 101.819 178.912 102.091 179.112C102.371 179.304 102.719 179.4 103.135 179.4C103.551 179.4 103.887 179.308 104.143 179.124C104.399 178.932 104.527 178.692 104.527 178.404C104.527 178.204 104.459 178.04 104.323 177.912C104.195 177.784 104.039 177.684 103.855 177.612C103.679 177.54 103.403 177.448 103.027 177.336C102.579 177.208 102.211 177.08 101.923 176.952C101.635 176.824 101.391 176.648 101.191 176.424C100.999 176.192 100.903 175.9 100.903 175.548C100.903 175.036 101.103 174.628 101.503 174.324C101.903 174.02 102.431 173.868 103.087 173.868C103.527 173.868 103.915 173.94 104.251 174.084C104.595 174.228 104.859 174.428 105.043 174.684C105.227 174.932 105.319 175.212 105.319 175.524V175.56C105.319 175.64 105.279 175.68 105.199 175.68H104.635C104.555 175.68 104.515 175.64 104.515 175.56V175.524C104.515 175.252 104.383 175.024 104.119 174.84C103.863 174.656 103.515 174.564 103.075 174.564C102.667 174.564 102.339 174.648 102.091 174.816C101.843 174.976 101.719 175.2 101.719 175.488C101.719 175.76 101.839 175.968 102.079 176.112C102.319 176.256 102.691 176.4 103.195 176.544C103.659 176.68 104.035 176.808 104.323 176.928C104.611 177.048 104.859 177.224 105.067 177.456C105.275 177.68 105.379 177.976 105.379 178.344C105.379 178.864 105.175 179.28 104.767 179.592C104.359 179.904 103.819 180.06 103.147 180.06ZM108.749 180.06C108.301 180.06 107.901 179.988 107.549 179.844C107.205 179.7 106.937 179.508 106.745 179.268C106.561 179.028 106.469 178.76 106.469 178.464V178.32C106.469 178.24 106.509 178.2 106.589 178.2H107.165C107.245 178.2 107.285 178.24 107.285 178.32V178.416C107.285 178.68 107.421 178.912 107.693 179.112C107.973 179.304 108.321 179.4 108.737 179.4C109.153 179.4 109.489 179.308 109.745 179.124C110.001 178.932 110.129 178.692 110.129 178.404C110.129 178.204 110.061 178.04 109.925 177.912C109.797 177.784 109.641 177.684 109.457 177.612C109.281 177.54 109.005 177.448 108.629 177.336C108.181 177.208 107.813 177.08 107.525 176.952C107.237 176.824 106.993 176.648 106.793 176.424C106.601 176.192 106.505 175.9 106.505 175.548C106.505 175.036 106.705 174.628 107.105 174.324C107.505 174.02 108.033 173.868 108.689 173.868C109.129 173.868 109.517 173.94 109.853 174.084C110.197 174.228 110.461 174.428 110.645 174.684C110.829 174.932 110.921 175.212 110.921 175.524V175.56C110.921 175.64 110.881 175.68 110.801 175.68H110.237C110.157 175.68 110.117 175.64 110.117 175.56V175.524C110.117 175.252 109.985 175.024 109.721 174.84C109.465 174.656 109.117 174.564 108.677 174.564C108.269 174.564 107.941 174.648 107.693 174.816C107.445 174.976 107.321 175.2 107.321 175.488C107.321 175.76 107.441 175.968 107.681 176.112C107.921 176.256 108.293 176.4 108.797 176.544C109.261 176.68 109.637 176.808 109.925 176.928C110.213 177.048 110.461 177.224 110.669 177.456C110.877 177.68 110.981 177.976 110.981 178.344C110.981 178.864 110.777 179.28 110.369 179.592C109.961 179.904 109.421 180.06 108.749 180.06ZM113.419 180C113.355 180 113.311 179.968 113.287 179.904L111.583 174.06L111.571 174.024C111.571 173.96 111.611 173.928 111.691 173.928H112.315C112.387 173.928 112.431 173.964 112.447 174.036L113.719 178.764C113.727 178.78 113.735 178.788 113.743 178.788C113.759 178.788 113.771 178.78 113.779 178.764L115.075 174.036C115.091 173.964 115.135 173.928 115.207 173.928H115.783C115.855 173.928 115.899 173.96 115.915 174.024L117.223 178.752C117.231 178.768 117.243 178.776 117.259 178.776C117.275 178.776 117.287 178.768 117.295 178.752L118.603 174.036C118.619 173.964 118.663 173.928 118.735 173.928L119.359 173.94C119.399 173.94 119.427 173.952 119.443 173.976C119.467 174 119.475 174.032 119.467 174.072L117.739 179.904C117.715 179.968 117.671 180 117.607 180H116.971C116.907 180 116.863 179.968 116.839 179.904L115.531 175.416C115.523 175.4 115.511 175.392 115.495 175.392C115.487 175.392 115.479 175.4 115.471 175.416L114.199 179.904C114.175 179.968 114.131 180 114.067 180H113.419ZM122.924 180.096C122.348 180.096 121.852 179.948 121.436 179.652C121.02 179.356 120.732 178.948 120.572 178.428C120.46 178.06 120.404 177.568 120.404 176.952C120.404 176.336 120.46 175.848 120.572 175.488C120.724 174.976 121.008 174.572 121.424 174.276C121.84 173.98 122.344 173.832 122.936 173.832C123.504 173.832 123.992 173.98 124.4 174.276C124.816 174.572 125.1 174.972 125.252 175.476C125.364 175.82 125.42 176.312 125.42 176.952C125.42 177.6 125.364 178.092 125.252 178.428C125.1 178.948 124.816 179.356 124.4 179.652C123.992 179.948 123.5 180.096 122.924 180.096ZM122.924 179.352C123.308 179.352 123.636 179.248 123.908 179.04C124.18 178.824 124.364 178.536 124.46 178.176C124.532 177.888 124.568 177.484 124.568 176.964C124.568 176.436 124.536 176.032 124.472 175.752C124.376 175.392 124.188 175.108 123.908 174.9C123.636 174.684 123.304 174.576 122.912 174.576C122.52 174.576 122.188 174.684 121.916 174.9C121.644 175.108 121.46 175.392 121.364 175.752C121.3 176.032 121.268 176.436 121.268 176.964C121.268 177.492 121.3 177.896 121.364 178.176C121.452 178.536 121.632 178.824 121.904 179.04C122.184 179.248 122.524 179.352 122.924 179.352ZM129.596 173.868C129.86 173.868 130.088 173.92 130.28 174.024C130.344 174.056 130.368 174.108 130.352 174.18L130.22 174.768C130.196 174.848 130.144 174.872 130.064 174.84C129.928 174.784 129.772 174.756 129.596 174.756L129.44 174.768C129.024 174.784 128.68 174.94 128.408 175.236C128.136 175.524 128 175.892 128 176.34V179.88C128 179.96 127.96 180 127.88 180H127.268C127.188 180 127.148 179.96 127.148 179.88V174.048C127.148 173.968 127.188 173.928 127.268 173.928H127.88C127.96 173.928 128 173.968 128 174.048V174.78C128 174.804 128.004 174.82 128.012 174.828C128.028 174.828 128.04 174.82 128.048 174.804C128.216 174.508 128.428 174.28 128.684 174.12C128.948 173.952 129.252 173.868 129.596 173.868ZM134.407 174.516C134.407 174.596 134.367 174.636 134.287 174.636H132.931C132.899 174.636 132.883 174.652 132.883 174.684V178.224C132.883 178.608 132.967 178.88 133.135 179.04C133.311 179.192 133.583 179.268 133.951 179.268H134.251C134.331 179.268 134.371 179.308 134.371 179.388V179.88C134.371 179.96 134.331 180 134.251 180C134.155 180.008 134.007 180.012 133.807 180.012C133.231 180.012 132.795 179.904 132.499 179.688C132.203 179.472 132.055 179.072 132.055 178.488V174.684C132.055 174.652 132.039 174.636 132.007 174.636H131.275C131.195 174.636 131.155 174.596 131.155 174.516V174.048C131.155 173.968 131.195 173.928 131.275 173.928H132.007C132.039 173.928 132.055 173.912 132.055 173.88V172.488C132.055 172.408 132.095 172.368 132.175 172.368H132.763C132.843 172.368 132.883 172.408 132.883 172.488V173.88C132.883 173.912 132.899 173.928 132.931 173.928H134.287C134.367 173.928 134.407 173.968 134.407 174.048V174.516Z" fill="black"/>
<path d="M69.372 64.382C70.128 64.382 70.794 64.538 71.37 64.85C71.946 65.162 72.39 65.606 72.702 66.182C73.026 66.746 73.188 67.4 73.188 68.144C73.188 68.876 73.026 69.524 72.702 70.088C72.378 70.652 71.916 71.09 71.316 71.402C70.728 71.702 70.044 71.852 69.264 71.852H66.384C66.324 71.852 66.294 71.882 66.294 71.942V76.784C66.294 76.844 66.27 76.898 66.222 76.946C66.186 76.982 66.138 77 66.078 77H64.422C64.362 77 64.308 76.982 64.26 76.946C64.224 76.898 64.206 76.844 64.206 76.784V64.598C64.206 64.538 64.224 64.49 64.26 64.454C64.308 64.406 64.362 64.382 64.422 64.382H69.372ZM69.066 70.16C69.678 70.16 70.17 69.98 70.542 69.62C70.914 69.26 71.1 68.786 71.1 68.198C71.1 67.598 70.914 67.112 70.542 66.74C70.17 66.368 69.678 66.182 69.066 66.182H66.384C66.324 66.182 66.294 66.212 66.294 66.272V70.07C66.294 70.13 66.324 70.16 66.384 70.16H69.066ZM78.27 77.144C77.322 77.144 76.506 76.904 75.822 76.424C75.15 75.944 74.676 75.278 74.4 74.426C74.196 73.778 74.094 73.094 74.094 72.374C74.094 71.606 74.19 70.922 74.382 70.322C74.658 69.482 75.138 68.828 75.822 68.36C76.506 67.892 77.328 67.658 78.288 67.658C79.2 67.658 79.986 67.892 80.646 68.36C81.318 68.828 81.792 69.476 82.068 70.304C82.284 70.88 82.392 71.564 82.392 72.356C82.392 73.112 82.29 73.796 82.086 74.408C81.81 75.26 81.336 75.932 80.664 76.424C79.992 76.904 79.194 77.144 78.27 77.144ZM78.27 75.344C78.714 75.344 79.092 75.218 79.404 74.966C79.728 74.714 79.962 74.36 80.106 73.904C80.226 73.508 80.286 73.004 80.286 72.392C80.286 71.744 80.226 71.24 80.106 70.88C79.974 70.424 79.746 70.076 79.422 69.836C79.098 69.584 78.702 69.458 78.234 69.458C77.79 69.458 77.406 69.584 77.082 69.836C76.758 70.076 76.524 70.424 76.38 70.88C76.26 71.3 76.2 71.804 76.2 72.392C76.2 72.98 76.26 73.484 76.38 73.904C76.512 74.36 76.74 74.714 77.064 74.966C77.4 75.218 77.802 75.344 78.27 75.344ZM88.65 67.694C89.034 67.694 89.37 67.772 89.658 67.928C89.754 67.976 89.79 68.066 89.766 68.198L89.46 69.818C89.448 69.962 89.364 70.004 89.208 69.944C89.028 69.884 88.818 69.854 88.578 69.854C88.422 69.854 88.302 69.86 88.218 69.872C87.714 69.896 87.294 70.076 86.958 70.412C86.622 70.736 86.454 71.162 86.454 71.69V76.784C86.454 76.844 86.43 76.898 86.382 76.946C86.346 76.982 86.298 77 86.238 77H84.582C84.522 77 84.468 76.982 84.42 76.946C84.384 76.898 84.366 76.844 84.366 76.784V68.018C84.366 67.958 84.384 67.91 84.42 67.874C84.468 67.826 84.522 67.802 84.582 67.802H86.238C86.298 67.802 86.346 67.826 86.382 67.874C86.43 67.91 86.454 67.958 86.454 68.018V68.828C86.454 68.876 86.46 68.906 86.472 68.918C86.496 68.918 86.52 68.9 86.544 68.864C87.048 68.084 87.75 67.694 88.65 67.694ZM96.1698 69.278C96.1698 69.338 96.1458 69.392 96.0978 69.44C96.0618 69.476 96.0138 69.494 95.9538 69.494H94.1178C94.0578 69.494 94.0278 69.524 94.0278 69.584V73.922C94.0278 74.378 94.1238 74.708 94.3158 74.912C94.5198 75.116 94.8378 75.218 95.2698 75.218H95.8098C95.8698 75.218 95.9178 75.242 95.9538 75.29C96.0018 75.326 96.0258 75.374 96.0258 75.434V76.784C96.0258 76.916 95.9538 76.994 95.8098 77.018L94.8738 77.036C93.9258 77.036 93.2178 76.874 92.7498 76.55C92.2818 76.226 92.0418 75.614 92.0298 74.714V69.584C92.0298 69.524 91.9998 69.494 91.9398 69.494H90.9138C90.8538 69.494 90.7998 69.476 90.7518 69.44C90.7158 69.392 90.6978 69.338 90.6978 69.278V68.018C90.6978 67.958 90.7158 67.91 90.7518 67.874C90.7998 67.826 90.8538 67.802 90.9138 67.802H91.9398C91.9998 67.802 92.0298 67.772 92.0298 67.712V65.606C92.0298 65.546 92.0478 65.498 92.0838 65.462C92.1318 65.414 92.1858 65.39 92.2458 65.39H93.8118C93.8718 65.39 93.9198 65.414 93.9558 65.462C94.0038 65.498 94.0278 65.546 94.0278 65.606V67.712C94.0278 67.772 94.0578 67.802 94.1178 67.802H95.9538C96.0138 67.802 96.0618 67.826 96.0978 67.874C96.1458 67.91 96.1698 67.958 96.1698 68.018V69.278ZM101.534 67.658C102.29 67.658 102.956 67.79 103.532 68.054C104.108 68.318 104.552 68.684 104.864 69.152C105.176 69.608 105.332 70.13 105.332 70.718V76.784C105.332 76.844 105.308 76.898 105.26 76.946C105.224 76.982 105.176 77 105.116 77H103.46C103.4 77 103.346 76.982 103.298 76.946C103.262 76.898 103.244 76.844 103.244 76.784V76.208C103.244 76.172 103.232 76.154 103.208 76.154C103.184 76.142 103.16 76.148 103.136 76.172C102.548 76.82 101.696 77.144 100.58 77.144C99.6802 77.144 98.9362 76.916 98.3482 76.46C97.7722 76.004 97.4842 75.326 97.4842 74.426C97.4842 73.49 97.8082 72.764 98.4562 72.248C99.1162 71.72 100.04 71.456 101.228 71.456H103.154C103.214 71.456 103.244 71.426 103.244 71.366V70.934C103.244 70.466 103.106 70.106 102.83 69.854C102.554 69.59 102.14 69.458 101.588 69.458C101.132 69.458 100.76 69.542 100.472 69.71C100.196 69.866 100.022 70.088 99.9502 70.376C99.9142 70.52 99.8302 70.58 99.6982 70.556L97.9522 70.34C97.8922 70.328 97.8382 70.31 97.7902 70.286C97.7542 70.25 97.7422 70.208 97.7542 70.16C97.8502 69.428 98.2402 68.828 98.9242 68.36C99.6202 67.892 100.49 67.658 101.534 67.658ZM101.102 75.488C101.69 75.488 102.194 75.332 102.614 75.02C103.034 74.708 103.244 74.312 103.244 73.832V72.986C103.244 72.926 103.214 72.896 103.154 72.896H101.642C101.006 72.896 100.502 73.016 100.13 73.256C99.7702 73.496 99.5902 73.838 99.5902 74.282C99.5902 74.666 99.7282 74.966 100.004 75.182C100.292 75.386 100.658 75.488 101.102 75.488ZM107.645 77C107.585 77 107.531 76.982 107.483 76.946C107.447 76.898 107.429 76.844 107.429 76.784V64.616C107.429 64.556 107.447 64.508 107.483 64.472C107.531 64.424 107.585 64.4 107.645 64.4H109.301C109.361 64.4 109.409 64.424 109.445 64.472C109.493 64.508 109.517 64.556 109.517 64.616V76.784C109.517 76.844 109.493 76.898 109.445 76.946C109.409 76.982 109.361 77 109.301 77H107.645ZM115.753 77C115.693 77 115.639 76.982 115.591 76.946C115.555 76.898 115.537 76.844 115.537 76.784V64.616C115.537 64.556 115.555 64.508 115.591 64.472C115.639 64.424 115.693 64.4 115.753 64.4H117.409C117.469 64.4 117.517 64.424 117.553 64.472C117.601 64.508 117.625 64.556 117.625 64.616V75.11C117.625 75.17 117.655 75.2 117.715 75.2H123.745C123.805 75.2 123.853 75.224 123.889 75.272C123.937 75.308 123.961 75.356 123.961 75.416V76.784C123.961 76.844 123.937 76.898 123.889 76.946C123.853 76.982 123.805 77 123.745 77L115.753 77ZM129.528 77.144C128.58 77.144 127.764 76.904 127.08 76.424C126.408 75.944 125.934 75.278 125.658 74.426C125.454 73.778 125.352 73.094 125.352 72.374C125.352 71.606 125.448 70.922 125.64 70.322C125.916 69.482 126.396 68.828 127.08 68.36C127.764 67.892 128.586 67.658 129.546 67.658C130.458 67.658 131.244 67.892 131.904 68.36C132.576 68.828 133.05 69.476 133.326 70.304C133.542 70.88 133.65 71.564 133.65 72.356C133.65 73.112 133.548 73.796 133.344 74.408C133.068 75.26 132.594 75.932 131.922 76.424C131.25 76.904 130.452 77.144 129.528 77.144ZM129.528 75.344C129.972 75.344 130.35 75.218 130.662 74.966C130.986 74.714 131.22 74.36 131.364 73.904C131.484 73.508 131.544 73.004 131.544 72.392C131.544 71.744 131.484 71.24 131.364 70.88C131.232 70.424 131.004 70.076 130.68 69.836C130.356 69.584 129.96 69.458 129.492 69.458C129.048 69.458 128.664 69.584 128.34 69.836C128.016 70.076 127.782 70.424 127.638 70.88C127.518 71.3 127.458 71.804 127.458 72.392C127.458 72.98 127.518 73.484 127.638 73.904C127.77 74.36 127.998 74.714 128.322 74.966C128.658 75.218 129.06 75.344 129.528 75.344ZM141.258 68.018C141.258 67.958 141.276 67.91 141.312 67.874C141.36 67.826 141.414 67.802 141.474 67.802H143.13C143.19 67.802 143.238 67.826 143.274 67.874C143.322 67.91 143.346 67.958 143.346 68.018V76.388C143.346 77.888 142.914 78.956 142.05 79.592C141.198 80.24 140.076 80.564 138.684 80.564C138.312 80.564 137.946 80.546 137.586 80.51C137.454 80.498 137.388 80.42 137.388 80.276L137.442 78.8C137.442 78.668 137.526 78.602 137.694 78.602C138.042 78.638 138.354 78.656 138.63 78.656C139.53 78.656 140.19 78.476 140.61 78.116C141.042 77.768 141.258 77.174 141.258 76.334V76.19C141.258 76.154 141.246 76.136 141.222 76.136C141.198 76.124 141.174 76.13 141.15 76.154C140.658 76.682 139.962 76.946 139.062 76.946C138.282 76.946 137.568 76.748 136.92 76.352C136.272 75.956 135.822 75.35 135.57 74.534C135.414 73.97 135.336 73.244 135.336 72.356C135.336 71.36 135.432 70.598 135.624 70.07C135.864 69.338 136.278 68.756 136.866 68.324C137.454 67.88 138.144 67.658 138.936 67.658C139.884 67.658 140.622 67.934 141.15 68.486C141.174 68.522 141.198 68.534 141.222 68.522C141.246 68.51 141.258 68.486 141.258 68.45V68.018ZM141.132 73.94C141.18 73.76 141.21 73.568 141.222 73.364C141.246 73.148 141.258 72.806 141.258 72.338C141.258 71.882 141.246 71.558 141.222 71.366C141.21 71.162 141.174 70.964 141.114 70.772C141.018 70.376 140.82 70.058 140.52 69.818C140.232 69.578 139.86 69.458 139.404 69.458C138.972 69.458 138.606 69.578 138.306 69.818C138.006 70.058 137.79 70.376 137.658 70.772C137.514 71.108 137.442 71.636 137.442 72.356C137.442 73.1 137.502 73.622 137.622 73.922C137.742 74.306 137.958 74.624 138.27 74.876C138.594 75.116 138.978 75.236 139.422 75.236C139.89 75.236 140.268 75.116 140.556 74.876C140.844 74.636 141.036 74.324 141.132 73.94ZM146.691 66.542C146.319 66.542 146.013 66.422 145.773 66.182C145.533 65.942 145.413 65.636 145.413 65.264C145.413 64.892 145.533 64.586 145.773 64.346C146.013 64.106 146.319 63.986 146.691 63.986C147.063 63.986 147.369 64.106 147.609 64.346C147.849 64.586 147.969 64.892 147.969 65.264C147.969 65.636 147.849 65.942 147.609 66.182C147.369 66.422 147.063 66.542 146.691 66.542ZM145.827 77C145.767 77 145.713 76.982 145.665 76.946C145.629 76.898 145.611 76.844 145.611 76.784V68C145.611 67.94 145.629 67.892 145.665 67.856C145.713 67.808 145.767 67.784 145.827 67.784H147.483C147.543 67.784 147.591 67.808 147.627 67.856C147.675 67.892 147.699 67.94 147.699 68V76.784C147.699 76.844 147.675 76.898 147.627 76.946C147.591 76.982 147.543 77 147.483 77H145.827ZM154.501 67.658C155.473 67.658 156.247 67.946 156.823 68.522C157.411 69.098 157.705 69.884 157.705 70.88V76.784C157.705 76.844 157.681 76.898 157.633 76.946C157.597 76.982 157.549 77 157.489 77H155.833C155.773 77 155.719 76.982 155.671 76.946C155.635 76.898 155.617 76.844 155.617 76.784V71.312C155.617 70.76 155.461 70.316 155.149 69.98C154.837 69.632 154.423 69.458 153.907 69.458C153.391 69.458 152.971 69.626 152.647 69.962C152.335 70.298 152.179 70.742 152.179 71.294V76.784C152.179 76.844 152.155 76.898 152.107 76.946C152.071 76.982 152.023 77 151.963 77H150.307C150.247 77 150.193 76.982 150.145 76.946C150.109 76.898 150.091 76.844 150.091 76.784V68.018C150.091 67.958 150.109 67.91 150.145 67.874C150.193 67.826 150.247 67.802 150.307 67.802H151.963C152.023 67.802 152.071 67.826 152.107 67.874C152.155 67.91 152.179 67.958 152.179 68.018V68.594C152.179 68.63 152.191 68.654 152.215 68.666C152.239 68.678 152.257 68.666 152.269 68.63C152.761 67.982 153.505 67.658 154.501 67.658Z" fill="#0000C4"/>
<rect width="145.854" height="38.9416" rx="5.66423" transform="matrix(-1 0 0 1 285.672 266)" fill="#D2EEFF"/>
<g filter="url(#filter0_d_1579_37158)">
<path d="M239.548 320.921C238.265 321.662 236.65 320.799 236.552 319.321L235.595 304.862C235.485 303.206 237.323 302.144 238.703 303.067L250.746 311.126C251.977 311.95 251.917 313.78 250.634 314.52L239.548 320.921Z" fill="#0000C4"/>
<path d="M242.968 321.255C242.416 320.299 242.744 319.076 243.7 318.523L246.481 316.918C247.438 316.366 248.661 316.693 249.213 317.65L251.269 321.211C251.821 322.168 251.494 323.391 250.537 323.943L247.756 325.549C246.8 326.101 245.577 325.773 245.024 324.817L242.968 321.255Z" fill="#0000C4"/>
<path d="M239.548 320.921C238.265 321.662 236.65 320.799 236.552 319.321L235.595 304.862C235.485 303.206 237.323 302.144 238.703 303.067L250.746 311.126C251.977 311.95 251.917 313.78 250.634 314.52L239.548 320.921Z" stroke="#0000C4"/>
<path d="M242.968 321.255C242.416 320.299 242.744 319.076 243.7 318.523L246.481 316.918C247.438 316.366 248.661 316.693 249.213 317.65L251.269 321.211C251.821 322.168 251.494 323.391 250.537 323.943L247.756 325.549C246.8 326.101 245.577 325.773 245.024 324.817L242.968 321.255Z" stroke="#0000C4"/>
</g>
<path d="M217.496 272C206.925 248.802 196.051 243.983 186.864 242.709C177.677 241.436 173.701 255.169 184.574 255.169C195.448 255.169 186.864 226.973 143.496 220" stroke="#D2EEFF" stroke-width="2" stroke-linecap="round"/>
<path d="M136.943 237.577L125.92 226.554L121.885 241.611L136.943 237.577Z" fill="#D2EEFF" stroke="#D2EEFF"/>
<path d="M157.554 332.577L168.576 321.554L172.611 336.611L157.554 332.577Z" fill="#D2EEFF" stroke="#D2EEFF"/>
<circle r="2" transform="matrix(-1 0 0 1 253.996 246.5)" fill="#D2EEFF" stroke="#D2EEFF"/>
<circle r="6" transform="matrix(-1 0 0 1 226.996 226.5)" fill="#D2EEFF" stroke="#D2EEFF"/>
<defs>
<filter id="filter0_d_1579_37158" x="233.09" y="302.225" width="19.0437" height="28.0923" filterUnits="userSpaceOnUse" color-interpolation-filters="sRGB">
<feFlood flood-opacity="0" result="BackgroundImageFix"/>
<feColorMatrix in="SourceAlpha" type="matrix" values="0 0 0 0 0 0 0 0 0 0 0 0 0 0 0 0 0 0 127 0" result="hardAlpha"/>
<feOffset dx="-2" dy="4"/>
<feComposite in2="hardAlpha" operator="out"/>
<feColorMatrix type="matrix" values="0 0 0 0 0.823529 0 0 0 0 0.933333 0 0 0 0 1 0 0 0 1 0"/>
<feBlend mode="normal" in2="BackgroundImageFix" result="effect1_dropShadow_1579_37158"/>
<feBlend mode="normal" in="SourceGraphic" in2="effect1_dropShadow_1579_37158" result="shape"/>
</filter>
</defs>
</svg>
