<svg width="417" height="351" viewBox="0 0 417 351" fill="none" xmlns="http://www.w3.org/2000/svg">
<rect width="417" height="323" rx="8" fill="#FAFAFA"/>
<path d="M111.554 308.577L122.576 297.554L126.611 312.611L111.554 308.577Z" fill="#D2EEFF" stroke="#D2EEFF"/>
<path d="M391.943 189.577L380.92 178.554L376.885 193.611L391.943 189.577Z" fill="#D2EEFF" stroke="#D2EEFF"/>
<circle cx="46.5" cy="243.5" r="2" fill="#D2EEFF" stroke="#D2EEFF"/>
<circle cx="21.5" cy="233.5" r="6" fill="#D2EEFF" stroke="#D2EEFF"/>
<rect x="63" y="108" width="291" height="168" rx="2.83212" fill="#F2F2F2"/>
<rect x="79" y="161" width="261" height="28" rx="2.83212" fill="#E6E6E6"/>
<rect x="79" y="197" width="261" height="27" rx="2.83212" fill="#D2EEFF"/>
<path d="M99.48 207.07C99.5133 207.023 99.5533 207 99.6 207H100.12C100.187 207 100.22 207.033 100.22 207.1V213.9C100.22 213.967 100.187 214 100.12 214H99.61C99.5433 214 99.51 213.967 99.51 213.9V208.34C99.51 208.32 99.5033 208.307 99.49 208.3C99.4767 208.293 99.4667 208.3 99.46 208.32L97.83 210.82C97.7967 210.867 97.7567 210.89 97.71 210.89H97.45C97.4033 210.89 97.3633 210.87 97.33 210.83L95.7 208.35C95.6933 208.33 95.6833 208.323 95.67 208.33C95.6567 208.337 95.65 208.35 95.65 208.37V213.9C95.65 213.967 95.6167 214 95.55 214H95.04C94.9733 214 94.94 213.967 94.94 213.9V207.1C94.94 207.033 94.9733 207 95.04 207H95.56C95.6133 207 95.6533 207.02 95.68 207.06L97.56 209.91C97.5667 209.917 97.5767 209.92 97.59 209.92C97.6033 209.92 97.6133 209.917 97.62 209.91L99.48 207.07ZM105.828 210.62C105.855 210.807 105.868 211.04 105.868 211.32V211.64C105.868 211.707 105.835 211.74 105.768 211.74H102.538C102.512 211.74 102.498 211.753 102.498 211.78C102.512 212.147 102.532 212.383 102.558 212.49C102.632 212.79 102.788 213.027 103.028 213.2C103.268 213.373 103.575 213.46 103.948 213.46C104.228 213.46 104.475 213.397 104.688 213.27C104.902 213.143 105.068 212.963 105.188 212.73C105.228 212.67 105.275 212.657 105.328 212.69L105.718 212.92C105.772 212.953 105.785 213 105.758 213.06C105.592 213.38 105.342 213.633 105.008 213.82C104.675 214 104.292 214.09 103.858 214.09C103.385 214.083 102.988 213.97 102.668 213.75C102.348 213.53 102.118 213.223 101.978 212.83C101.858 212.51 101.798 212.05 101.798 211.45C101.798 211.17 101.802 210.943 101.808 210.77C101.822 210.59 101.848 210.43 101.888 210.29C102.002 209.857 102.228 209.51 102.568 209.25C102.915 208.99 103.332 208.86 103.818 208.86C104.425 208.86 104.892 209.013 105.218 209.32C105.545 209.627 105.748 210.06 105.828 210.62ZM103.818 209.48C103.492 209.48 103.218 209.567 102.998 209.74C102.785 209.907 102.645 210.133 102.578 210.42C102.538 210.56 102.512 210.787 102.498 211.1C102.498 211.127 102.512 211.14 102.538 211.14H105.128C105.155 211.14 105.168 211.127 105.168 211.1C105.155 210.8 105.135 210.587 105.108 210.46C105.035 210.16 104.885 209.923 104.658 209.75C104.438 209.57 104.158 209.48 103.818 209.48ZM107.76 208.02C107.6 208.02 107.467 207.967 107.36 207.86C107.254 207.753 107.2 207.62 107.2 207.46C107.2 207.293 107.254 207.16 107.36 207.06C107.467 206.953 107.6 206.9 107.76 206.9C107.92 206.9 108.054 206.953 108.16 207.06C108.267 207.16 108.32 207.293 108.32 207.46C108.32 207.62 108.267 207.753 108.16 207.86C108.054 207.967 107.92 208.02 107.76 208.02ZM107.48 213.99C107.414 213.99 107.38 213.957 107.38 213.89V209.03C107.38 208.963 107.414 208.93 107.48 208.93H107.99C108.057 208.93 108.09 208.963 108.09 209.03V213.89C108.09 213.957 108.057 213.99 107.99 213.99H107.48ZM111.929 208.87C112.463 208.87 112.886 209.027 113.199 209.34C113.519 209.653 113.679 210.073 113.679 210.6V213.9C113.679 213.967 113.646 214 113.579 214H113.069C113.003 214 112.969 213.967 112.969 213.9V210.74C112.969 210.373 112.856 210.073 112.629 209.84C112.409 209.607 112.123 209.49 111.769 209.49C111.403 209.49 111.106 209.603 110.879 209.83C110.653 210.057 110.539 210.353 110.539 210.72V213.9C110.539 213.967 110.506 214 110.439 214H109.929C109.863 214 109.829 213.967 109.829 213.9V209.04C109.829 208.973 109.863 208.94 109.929 208.94H110.439C110.506 208.94 110.539 208.973 110.539 209.04V209.47C110.539 209.483 110.543 209.493 110.549 209.5C110.563 209.507 110.573 209.503 110.579 209.49C110.873 209.077 111.323 208.87 111.929 208.87ZM119.382 214.08C118.629 214.08 118.032 213.91 117.592 213.57C117.159 213.23 116.942 212.777 116.942 212.21V211.9C116.942 211.833 116.975 211.8 117.042 211.8H117.532C117.599 211.8 117.632 211.833 117.632 211.9V212.17C117.632 212.557 117.792 212.87 118.112 213.11C118.432 213.343 118.875 213.46 119.442 213.46C119.955 213.46 120.345 213.353 120.612 213.14C120.879 212.92 121.012 212.63 121.012 212.27C121.012 212.037 120.949 211.837 120.822 211.67C120.702 211.503 120.512 211.347 120.252 211.2C119.999 211.053 119.639 210.883 119.172 210.69C118.672 210.49 118.282 210.317 118.002 210.17C117.729 210.017 117.505 209.823 117.332 209.59C117.165 209.35 117.082 209.05 117.082 208.69C117.082 208.13 117.275 207.697 117.662 207.39C118.055 207.077 118.592 206.92 119.272 206.92C120.012 206.92 120.595 207.093 121.022 207.44C121.449 207.787 121.662 208.247 121.662 208.82V209.04C121.662 209.107 121.629 209.14 121.562 209.14H121.062C120.995 209.14 120.962 209.107 120.962 209.04V208.86C120.962 208.473 120.809 208.157 120.502 207.91C120.202 207.663 119.782 207.54 119.242 207.54C118.769 207.54 118.405 207.637 118.152 207.83C117.899 208.023 117.772 208.303 117.772 208.67C117.772 208.91 117.832 209.11 117.952 209.27C118.079 209.423 118.255 209.56 118.482 209.68C118.715 209.793 119.072 209.943 119.552 210.13C120.039 210.33 120.429 210.517 120.722 210.69C121.022 210.863 121.262 211.077 121.442 211.33C121.629 211.577 121.722 211.88 121.722 212.24C121.722 212.8 121.515 213.247 121.102 213.58C120.689 213.913 120.115 214.08 119.382 214.08ZM124.972 214.08C124.492 214.08 124.078 213.957 123.732 213.71C123.392 213.457 123.158 213.117 123.032 212.69C122.945 212.397 122.902 211.983 122.902 211.45C122.902 210.97 122.945 210.563 123.032 210.23C123.152 209.817 123.385 209.487 123.732 209.24C124.078 208.987 124.492 208.86 124.972 208.86C125.458 208.86 125.878 208.983 126.232 209.23C126.592 209.477 126.825 209.783 126.932 210.15C126.965 210.27 126.985 210.37 126.992 210.45V210.47C126.992 210.517 126.962 210.547 126.902 210.56L126.402 210.63H126.382C126.335 210.63 126.305 210.6 126.292 210.54L126.262 210.39C126.202 210.137 126.055 209.923 125.822 209.75C125.588 209.57 125.305 209.48 124.972 209.48C124.638 209.48 124.358 209.57 124.132 209.75C123.912 209.923 123.768 210.157 123.702 210.45C123.642 210.703 123.612 211.04 123.612 211.46C123.612 211.9 123.642 212.24 123.702 212.48C123.768 212.78 123.912 213.02 124.132 213.2C124.358 213.373 124.638 213.46 124.972 213.46C125.298 213.46 125.578 213.377 125.812 213.21C126.052 213.037 126.202 212.817 126.262 212.55V212.51L126.272 212.47C126.278 212.403 126.318 212.377 126.392 212.39L126.882 212.47C126.948 212.483 126.978 212.52 126.972 212.58L126.932 212.78C126.832 213.167 126.602 213.48 126.242 213.72C125.882 213.96 125.458 214.08 124.972 214.08ZM130.357 208.87C130.89 208.87 131.314 209.027 131.627 209.34C131.947 209.653 132.107 210.073 132.107 210.6V213.9C132.107 213.967 132.074 214 132.007 214H131.497C131.43 214 131.397 213.967 131.397 213.9V210.74C131.397 210.373 131.284 210.073 131.057 209.84C130.837 209.607 130.55 209.49 130.197 209.49C129.83 209.49 129.534 209.603 129.307 209.83C129.08 210.057 128.967 210.353 128.967 210.72V213.9C128.967 213.967 128.934 214 128.867 214H128.357C128.29 214 128.257 213.967 128.257 213.9V207.1C128.257 207.033 128.29 207 128.357 207H128.867C128.934 207 128.967 207.033 128.967 207.1V209.47C128.967 209.483 128.97 209.493 128.977 209.5C128.99 209.507 129 209.503 129.007 209.49C129.3 209.077 129.75 208.87 130.357 208.87ZM136.708 209.04C136.708 208.973 136.741 208.94 136.808 208.94H137.318C137.384 208.94 137.418 208.973 137.418 209.04V213.9C137.418 213.967 137.384 214 137.318 214H136.808C136.741 214 136.708 213.967 136.708 213.9V213.47C136.708 213.457 136.701 213.447 136.688 213.44C136.674 213.433 136.664 213.437 136.658 213.45C136.378 213.863 135.934 214.07 135.328 214.07C135.008 214.07 134.711 214.007 134.438 213.88C134.171 213.747 133.958 213.557 133.798 213.31C133.644 213.063 133.568 212.767 133.568 212.42V209.04C133.568 208.973 133.601 208.94 133.668 208.94H134.178C134.244 208.94 134.278 208.973 134.278 209.04V212.21C134.278 212.59 134.384 212.893 134.598 213.12C134.811 213.34 135.101 213.45 135.468 213.45C135.848 213.45 136.148 213.337 136.368 213.11C136.594 212.883 136.708 212.583 136.708 212.21V209.04ZM139.109 214C139.042 214 139.009 213.967 139.009 213.9V207.1C139.009 207.033 139.042 207 139.109 207H139.619C139.686 207 139.719 207.033 139.719 207.1V213.9C139.719 213.967 139.686 214 139.619 214H139.109ZM141.004 211.2C140.937 211.2 140.904 211.167 140.904 211.1V210.68C140.904 210.613 140.937 210.58 141.004 210.58H143.964C144.03 210.58 144.064 210.613 144.064 210.68V211.1C144.064 211.167 144.03 211.2 143.964 211.2H141.004ZM148.049 206.99C148.636 206.99 149.106 207.17 149.459 207.53C149.819 207.89 149.999 208.363 149.999 208.95C149.999 209.53 149.816 209.997 149.449 210.35C149.089 210.703 148.613 210.88 148.019 210.88H146.069C146.043 210.88 146.029 210.893 146.029 210.92V213.9C146.029 213.967 145.996 214 145.929 214H145.419C145.353 214 145.319 213.967 145.319 213.9V207.09C145.319 207.023 145.353 206.99 145.419 206.99H148.049ZM147.969 210.29C148.363 210.29 148.683 210.17 148.929 209.93C149.176 209.683 149.299 209.36 149.299 208.96C149.299 208.553 149.176 208.227 148.929 207.98C148.683 207.733 148.363 207.61 147.969 207.61H146.069C146.043 207.61 146.029 207.623 146.029 207.65V210.25C146.029 210.277 146.043 210.29 146.069 210.29H147.969ZM152.921 214.08C152.441 214.08 152.028 213.957 151.681 213.71C151.335 213.463 151.095 213.123 150.961 212.69C150.868 212.383 150.821 211.973 150.821 211.46C150.821 210.947 150.868 210.54 150.961 210.24C151.088 209.813 151.325 209.477 151.671 209.23C152.018 208.983 152.438 208.86 152.931 208.86C153.405 208.86 153.811 208.983 154.151 209.23C154.498 209.477 154.735 209.81 154.861 210.23C154.955 210.517 155.001 210.927 155.001 211.46C155.001 212 154.955 212.41 154.861 212.69C154.735 213.123 154.498 213.463 154.151 213.71C153.811 213.957 153.401 214.08 152.921 214.08ZM152.921 213.46C153.241 213.46 153.515 213.373 153.741 213.2C153.968 213.02 154.121 212.78 154.201 212.48C154.261 212.24 154.291 211.903 154.291 211.47C154.291 211.03 154.265 210.693 154.211 210.46C154.131 210.16 153.975 209.923 153.741 209.75C153.515 209.57 153.238 209.48 152.911 209.48C152.585 209.48 152.308 209.57 152.081 209.75C151.855 209.923 151.701 210.16 151.621 210.46C151.568 210.693 151.541 211.03 151.541 211.47C151.541 211.91 151.568 212.247 151.621 212.48C151.695 212.78 151.845 213.02 152.071 213.2C152.305 213.373 152.588 213.46 152.921 213.46ZM158.481 208.89C158.701 208.89 158.891 208.933 159.051 209.02C159.104 209.047 159.124 209.09 159.111 209.15L159.001 209.64C158.981 209.707 158.937 209.727 158.871 209.7C158.757 209.653 158.627 209.63 158.481 209.63L158.351 209.64C158.004 209.653 157.717 209.783 157.491 210.03C157.264 210.27 157.151 210.577 157.151 210.95V213.9C157.151 213.967 157.117 214 157.051 214H156.541C156.474 214 156.441 213.967 156.441 213.9V209.04C156.441 208.973 156.474 208.94 156.541 208.94H157.051C157.117 208.94 157.151 208.973 157.151 209.04V209.65C157.151 209.67 157.154 209.683 157.161 209.69C157.174 209.69 157.184 209.683 157.191 209.67C157.331 209.423 157.507 209.233 157.721 209.1C157.941 208.96 158.194 208.89 158.481 208.89ZM162.49 209.43C162.49 209.497 162.457 209.53 162.39 209.53H161.26C161.233 209.53 161.22 209.543 161.22 209.57V212.52C161.22 212.84 161.29 213.067 161.43 213.2C161.577 213.327 161.803 213.39 162.11 213.39H162.36C162.427 213.39 162.46 213.423 162.46 213.49V213.9C162.46 213.967 162.427 214 162.36 214C162.28 214.007 162.157 214.01 161.99 214.01C161.51 214.01 161.147 213.92 160.9 213.74C160.653 213.56 160.53 213.227 160.53 212.74V209.57C160.53 209.543 160.517 209.53 160.49 209.53H159.88C159.813 209.53 159.78 209.497 159.78 209.43V209.04C159.78 208.973 159.813 208.94 159.88 208.94H160.49C160.517 208.94 160.53 208.927 160.53 208.9V207.74C160.53 207.673 160.563 207.64 160.63 207.64H161.12C161.187 207.64 161.22 207.673 161.22 207.74V208.9C161.22 208.927 161.233 208.94 161.26 208.94H162.39C162.457 208.94 162.49 208.973 162.49 209.04V209.43ZM165.613 208.86C166.213 208.86 166.676 209.013 167.003 209.32C167.329 209.627 167.493 210.033 167.493 210.54V213.9C167.493 213.967 167.459 214 167.393 214H166.883C166.816 214 166.783 213.967 166.783 213.9V213.49C166.783 213.477 166.776 213.467 166.763 213.46C166.756 213.453 166.746 213.457 166.733 213.47C166.566 213.67 166.349 213.823 166.083 213.93C165.816 214.03 165.519 214.08 165.193 214.08C164.719 214.08 164.323 213.96 164.003 213.72C163.683 213.48 163.523 213.113 163.523 212.62C163.523 212.12 163.703 211.727 164.063 211.44C164.429 211.147 164.936 211 165.583 211H166.743C166.769 211 166.783 210.987 166.783 210.96V210.58C166.783 210.24 166.686 209.973 166.493 209.78C166.306 209.58 166.013 209.48 165.613 209.48C165.293 209.48 165.033 209.543 164.833 209.67C164.633 209.79 164.509 209.96 164.463 210.18C164.443 210.247 164.403 210.277 164.343 210.27L163.803 210.2C163.729 210.187 163.699 210.16 163.713 210.12C163.766 209.747 163.966 209.443 164.312 209.21C164.659 208.977 165.093 208.86 165.613 208.86ZM165.333 213.47C165.726 213.47 166.066 213.373 166.353 213.18C166.639 212.98 166.783 212.713 166.783 212.38V211.6C166.783 211.573 166.769 211.56 166.743 211.56H165.693C165.253 211.56 164.899 211.65 164.633 211.83C164.366 212.01 164.233 212.26 164.233 212.58C164.233 212.873 164.333 213.097 164.532 213.25C164.739 213.397 165.006 213.47 165.333 213.47ZM169.07 214C169.003 214 168.97 213.967 168.97 213.9V207.1C168.97 207.033 169.003 207 169.07 207H169.58C169.647 207 169.68 207.033 169.68 207.1V213.9C169.68 213.967 169.647 214 169.58 214H169.07Z" fill="#0000C4"/>
<rect x="79" y="232" width="261" height="28" rx="2.83212" fill="#E6E6E6"/>
<rect x="63" y="108" width="291" height="39" rx="2.83212" fill="#F2F2F2"/>
<g clip-path="url(#clip0_1579_37134)">
<path d="M103.925 79.0787C103.773 79.0787 103.674 79.0027 103.628 78.8507L98.8311 63.4378L98.8083 63.3466C98.8083 63.1946 98.892 63.1186 99.0596 63.1186H101.321C101.488 63.1186 101.595 63.1946 101.641 63.3466L105.067 75.2483C105.082 75.2939 105.105 75.3167 105.135 75.3167C105.166 75.3167 105.189 75.2939 105.204 75.2483L108.607 63.3466C108.653 63.1946 108.76 63.1186 108.927 63.1186H111.143C111.234 63.1186 111.303 63.149 111.348 63.2098C111.394 63.2706 111.402 63.3466 111.371 63.4378L106.506 78.8507C106.46 79.0027 106.361 79.0787 106.209 79.0787H103.925Z" fill="#0000C4"/>
<path d="M115.148 79.0787C115.072 79.0787 115.003 79.0559 114.943 79.0103C114.897 78.9495 114.874 78.8811 114.874 78.8051V63.3923C114.874 63.3162 114.897 63.2554 114.943 63.2098C115.003 63.149 115.072 63.1186 115.148 63.1186H117.25C117.326 63.1186 117.387 63.149 117.432 63.2098C117.493 63.2554 117.524 63.3162 117.524 63.3923V78.8051C117.524 78.8811 117.493 78.9495 117.432 79.0103C117.387 79.0559 117.326 79.0787 117.25 79.0787H115.148Z" fill="#0000C4"/>
<path d="M122.268 79.0787C122.192 79.0787 122.124 79.0559 122.063 79.0103C122.017 78.9495 121.994 78.8811 121.994 78.8051V63.3923C121.994 63.3162 122.017 63.2554 122.063 63.2098C122.124 63.149 122.192 63.1186 122.268 63.1186H127.842C128.923 63.1186 129.875 63.3086 130.697 63.6887C131.519 64.0687 132.151 64.6159 132.593 65.3303C133.05 66.0295 133.278 66.8503 133.278 67.7927V74.4047C133.278 75.3471 133.05 76.1755 132.593 76.8899C132.151 77.5891 131.519 78.1287 130.697 78.5087C129.875 78.8887 128.923 79.0787 127.842 79.0787H122.268ZM124.644 76.6847C124.644 76.7607 124.682 76.7987 124.758 76.7987H127.956C128.763 76.7987 129.402 76.5479 129.875 76.0463C130.362 75.5295 130.613 74.8455 130.628 73.9943V68.2259C130.628 67.3595 130.385 66.6755 129.897 66.1739C129.41 65.6571 128.755 65.3987 127.933 65.3987H124.758C124.682 65.3987 124.644 65.4367 124.644 65.5127V76.6847Z" fill="#0000C4"/>
<path d="M137.53 79.0787C137.454 79.0787 137.386 79.0559 137.325 79.0103C137.279 78.9495 137.256 78.8811 137.256 78.8051V63.3923C137.256 63.3162 137.279 63.2554 137.325 63.2098C137.386 63.149 137.454 63.1186 137.53 63.1186H139.632C139.708 63.1186 139.769 63.149 139.814 63.2098C139.875 63.2554 139.906 63.3162 139.906 63.3923V78.8051C139.906 78.8811 139.875 78.9495 139.814 79.0103C139.769 79.0559 139.708 79.0787 139.632 79.0787H137.53Z" fill="#0000C4"/>
<path d="M149.539 79.2611C148.351 79.2611 147.315 79.0711 146.432 78.6911C145.549 78.3111 144.864 77.7791 144.376 77.0951C143.904 76.4111 143.668 75.6055 143.668 74.6783V74.1083C143.668 74.0323 143.691 73.9715 143.737 73.9259C143.798 73.8651 143.866 73.8347 143.942 73.8347H145.975C146.051 73.8347 146.112 73.8651 146.158 73.9259C146.219 73.9715 146.249 74.0323 146.249 74.1083V74.5415C146.249 75.2407 146.562 75.8259 147.186 76.2971C147.81 76.7531 148.663 76.9811 149.744 76.9811C150.673 76.9811 151.373 76.7835 151.846 76.3883C152.318 75.9931 152.554 75.4839 152.554 74.8607C152.554 74.4351 152.424 74.0779 152.165 73.7891C151.906 73.4851 151.533 73.2115 151.046 72.9683C150.574 72.7251 149.858 72.4211 148.899 72.0563C147.818 71.6611 146.942 71.2887 146.272 70.9391C145.602 70.5895 145.039 70.1183 144.582 69.5255C144.14 68.9175 143.92 68.1651 143.92 67.2683C143.92 65.9307 144.407 64.8743 145.381 64.0991C146.356 63.3238 147.658 62.9362 149.287 62.9362C150.429 62.9362 151.434 63.1338 152.302 63.529C153.186 63.9243 153.871 64.4791 154.358 65.1935C154.845 65.8927 155.089 66.7059 155.089 67.6331V68.0207C155.089 68.0967 155.059 68.1651 154.998 68.2259C154.952 68.2715 154.891 68.2943 154.815 68.2943H152.759C152.683 68.2943 152.615 68.2715 152.554 68.2259C152.508 68.1651 152.485 68.0967 152.485 68.0207V67.7699C152.485 67.0555 152.188 66.4551 151.594 65.9687C151.016 65.4671 150.209 65.2163 149.173 65.2163C148.336 65.2163 147.681 65.3911 147.209 65.7407C146.752 66.0903 146.523 66.5843 146.523 67.2227C146.523 67.6787 146.645 68.0511 146.889 68.3399C147.133 68.6287 147.498 68.8947 147.985 69.1379C148.473 69.3659 149.226 69.6623 150.247 70.0271C151.328 70.4375 152.188 70.8099 152.828 71.1443C153.483 71.4787 154.038 71.9499 154.495 72.5579C154.967 73.1507 155.203 73.8955 155.203 74.7923C155.203 76.1603 154.693 77.2471 153.673 78.0527C152.668 78.8583 151.29 79.2611 149.539 79.2611Z" fill="#0000C4"/>
<path d="M103.925 79.0787C103.773 79.0787 103.674 79.0027 103.628 78.8507L98.8311 63.4378L98.8083 63.3466C98.8083 63.1946 98.892 63.1186 99.0596 63.1186H101.321C101.488 63.1186 101.595 63.1946 101.641 63.3466L105.067 75.2483C105.082 75.2939 105.105 75.3167 105.135 75.3167C105.166 75.3167 105.189 75.2939 105.204 75.2483L108.607 63.3466C108.653 63.1946 108.76 63.1186 108.927 63.1186H111.143C111.234 63.1186 111.303 63.149 111.348 63.2098C111.394 63.2706 111.402 63.3466 111.371 63.4378L106.506 78.8507C106.46 79.0027 106.361 79.0787 106.209 79.0787H103.925Z" fill="#0000C4"/>
<path d="M103.925 79.0787C103.773 79.0787 103.674 79.0027 103.628 78.8507L98.8311 63.4378L98.8083 63.3466C98.8083 63.1946 98.892 63.1186 99.0596 63.1186H101.321C101.488 63.1186 101.595 63.1946 101.641 63.3466L105.067 75.2483C105.082 75.2939 105.105 75.3167 105.135 75.3167C105.166 75.3167 105.189 75.2939 105.204 75.2483L108.607 63.3466C108.653 63.1946 108.76 63.1186 108.927 63.1186H111.143C111.234 63.1186 111.303 63.149 111.348 63.2098C111.394 63.2706 111.402 63.3466 111.371 63.4378L106.506 78.8507C106.46 79.0027 106.361 79.0787 106.209 79.0787H103.925Z" fill="#0000C4"/>
<path d="M103.925 79.0787C103.773 79.0787 103.674 79.0027 103.628 78.8507L98.8311 63.4378L98.8083 63.3466C98.8083 63.1946 98.892 63.1186 99.0596 63.1186H101.321C101.488 63.1186 101.595 63.1946 101.641 63.3466L105.067 75.2483C105.082 75.2939 105.105 75.3167 105.135 75.3167C105.166 75.3167 105.189 75.2939 105.204 75.2483L108.607 63.3466C108.653 63.1946 108.76 63.1186 108.927 63.1186H111.143C111.234 63.1186 111.303 63.149 111.348 63.2098C111.394 63.2706 111.402 63.3466 111.371 63.4378L106.506 78.8507C106.46 79.0027 106.361 79.0787 106.209 79.0787H103.925Z" fill="#0000C4"/>
<path d="M75.9634 63.4848L75.5262 57.0038L77.6014 63.1585H79.0813L81.1591 57.0002L79.8514 57.0008L78.3619 61.483L76.8572 57.0008L75.5257 57.0013L74.3179 57.5008L74.6568 62.2121L71.5516 58.6468L70.3215 59.1565L74.596 64.0517L75.9634 63.4848Z" fill="#0000C4"/>
<path d="M73.2059 64.9801L70.3215 59.1565L69.3964 60.0814L71.5122 64.3043L67.2792 62.1992L66.3373 63.1415L72.1597 66.0274L73.2059 64.9801Z" fill="#0000C4"/>
<path d="M71.2318 67.417L66.3373 63.1415L65.8366 64.3493L69.4079 67.4408L64.6911 67.1155L64.1814 68.3457L70.6654 68.7844L71.2318 67.417Z" fill="#0000C4"/>
<path d="M70.6664 73.5402L64.192 73.9769L70.3396 71.9042V70.4238L64.1814 68.3457L64.1819 69.6542L68.6642 71.1437L64.1819 72.6485L64.1824 73.9804L64.6825 75.1857L69.3937 74.8463L65.8285 77.9515L66.3382 79.1821L71.2328 74.9071L70.6664 73.5402Z" fill="#0000C4"/>
<path d="M72.1607 76.2965L66.3382 79.1821L67.262 80.1064L71.4848 77.9902L69.3797 82.2232L70.3221 83.1655L73.2074 77.3432L72.1607 76.2965Z" fill="#0000C4"/>
<path d="M74.5987 78.2712L70.3221 83.1655L71.531 83.6665L74.6225 80.0947L74.2968 84.8115L75.5274 85.3217L75.9662 78.8377L74.5987 78.2712Z" fill="#0000C4"/>
<path d="M80.7228 78.837L81.1606 85.3174L79.0853 79.1633H77.6049L75.5274 85.3217L76.8348 85.321L78.3249 80.8387L79.8291 85.3205H81.1606L82.3684 84.8209L82.0294 80.1092L85.1347 83.6749L86.3653 83.1652L82.0902 78.2701L80.7228 78.837Z" fill="#0000C4"/>
<path d="M83.4812 77.3414L86.3665 83.1653L87.2911 82.2401L85.1749 78.0173L89.4079 80.1229L90.3502 79.1805L84.5274 76.2947L83.4812 77.3414Z" fill="#0000C4"/>
<path d="M92.5047 73.9751L86.0207 73.5369L85.4548 74.9043L90.3502 79.1805L90.8495 77.972L87.2782 74.8805L91.995 75.2058L92.5047 73.9751Z" fill="#0000C4"/>
<path d="M86.02 68.7817L92.4944 68.345L86.3468 70.4177L86.3473 71.8976L92.5047 73.9751L92.505 72.6677L88.0228 71.1781L92.5045 69.6734V68.3414L92.0045 67.1361L87.2927 67.4751L90.8584 64.3699L90.3488 63.1397L85.4536 67.4143L86.02 68.7817Z" fill="#0000C4"/>
<path d="M84.5243 66.0247L90.3488 63.1397L89.423 62.2153L85.2002 64.331L87.3058 60.098L86.3629 59.1562L83.4776 64.9785L84.5243 66.0247Z" fill="#0000C4"/>
<path d="M82.0884 64.0507L86.3629 59.1562L85.1562 58.6554L82.0641 62.2268L82.3899 57.5099L81.1591 57.0002L80.721 63.4843L82.0884 64.0507Z" fill="#0000C4"/>
</g>
<path fill-rule="evenodd" clip-rule="evenodd" d="M85.2499 122.667C82.7186 122.667 80.6666 124.719 80.6666 127.25C80.6666 129.781 82.7186 131.833 85.2499 131.833C87.7812 131.833 89.8333 129.781 89.8333 127.25C89.8333 124.719 87.7812 122.667 85.2499 122.667ZM79.3333 127.25C79.3333 123.982 81.9822 121.333 85.2499 121.333C88.5176 121.333 91.1666 123.982 91.1666 127.25C91.1666 128.644 90.6847 129.925 89.8785 130.936L92.4713 133.529C92.7317 133.789 92.7317 134.211 92.4713 134.471C92.211 134.732 91.7889 134.732 91.5285 134.471L88.9357 131.879C87.9247 132.685 86.6436 133.167 85.2499 133.167C81.9822 133.167 79.3333 130.518 79.3333 127.25Z" fill="#0000C4"/>
<path d="M107.969 134.443C108.787 130.897 110.966 127.141 113.053 125.472C114.24 124.522 114.157 122.619 115.445 121.617C117.834 119.759 113.499 125.995 113.119 126.9C109.451 135.648 117.566 126.68 120.064 124.408C120.727 123.806 121.575 123.182 122.324 122.481C122.798 122.036 120.73 128.836 120.396 130.124C120.013 131.604 131.649 128.556 133.023 128.196C133.838 127.983 135.978 126.862 135.715 127.067C134.029 128.378 132.305 129.911 130.797 131.42C129.147 133.069 125.629 139.134 126.577 137.002C128.295 133.137 132.36 131.613 135.715 129.625C138.802 127.796 140.627 126.24 144.188 125.139C147.467 124.126 152.26 122.218 155.685 122.481C158.018 122.661 155.22 127.089 155.22 127.864C155.22 129.741 159.619 126.628 160.005 125.472" stroke="#0000C4" stroke-width="2" stroke-linecap="round"/>
<path d="M97 350C73.8022 339.429 68.983 328.555 67.7095 319.368C66.4359 310.181 80.169 306.205 80.169 317.078C80.169 327.952 51.9732 319.368 45 276" stroke="#D2EEFF" stroke-width="2" stroke-linecap="round"/>
<g filter="url(#filter0_d_1579_37134)">
<path d="M281.548 235.921C280.265 236.662 278.65 235.799 278.552 234.321L277.595 219.862C277.485 218.206 279.323 217.144 280.703 218.067L292.746 226.126C293.977 226.95 293.917 228.78 292.634 229.52L281.548 235.921Z" fill="#0000C4"/>
<path d="M284.968 236.255C284.416 235.299 284.744 234.076 285.7 233.523L288.481 231.918C289.438 231.366 290.661 231.693 291.213 232.65L293.269 236.211C293.821 237.168 293.494 238.391 292.537 238.943L289.756 240.549C288.8 241.101 287.577 240.773 287.024 239.817L284.968 236.255Z" fill="#0000C4"/>
<path d="M281.548 235.921C280.265 236.662 278.65 235.799 278.552 234.321L277.595 219.862C277.485 218.206 279.323 217.144 280.703 218.067L292.746 226.126C293.977 226.95 293.917 228.78 292.634 229.52L281.548 235.921Z" stroke="#0000C4"/>
<path d="M284.968 236.255C284.416 235.299 284.744 234.076 285.7 233.523L288.481 231.918C289.438 231.366 290.661 231.693 291.213 232.65L293.269 236.211C293.821 237.168 293.494 238.391 292.537 238.943L289.756 240.549C288.8 241.101 287.577 240.773 287.024 239.817L284.968 236.255Z" stroke="#0000C4"/>
</g>
<defs>
<filter id="filter0_d_1579_37134" x="275.09" y="217.224" width="19.0437" height="28.0925" filterUnits="userSpaceOnUse" color-interpolation-filters="sRGB">
<feFlood flood-opacity="0" result="BackgroundImageFix"/>
<feColorMatrix in="SourceAlpha" type="matrix" values="0 0 0 0 0 0 0 0 0 0 0 0 0 0 0 0 0 0 127 0" result="hardAlpha"/>
<feOffset dx="-2" dy="4"/>
<feComposite in2="hardAlpha" operator="out"/>
<feColorMatrix type="matrix" values="0 0 0 0 0.823529 0 0 0 0 0.933333 0 0 0 0 1 0 0 0 1 0"/>
<feBlend mode="normal" in2="BackgroundImageFix" result="effect1_dropShadow_1579_37134"/>
<feBlend mode="normal" in="SourceGraphic" in2="effect1_dropShadow_1579_37134" result="shape"/>
</filter>
<clipPath id="clip0_1579_37134">
<rect width="93.2238" height="28.3212" fill="white" transform="translate(63 57)"/>
</clipPath>
</defs>
</svg>
