<svg width="417" height="386" viewBox="0 0 417 386" fill="none" xmlns="http://www.w3.org/2000/svg">
<rect width="417" height="386" rx="8" fill="#FAFAFA"/>
<rect x="63" y="100" width="291" height="39" rx="2.83212" fill="#F2F2F2"/>
<path opacity="0.3" d="M93.132 115.72C93.132 115.64 93.172 115.6 93.252 115.6H93.864C93.944 115.6 93.984 115.64 93.984 115.72V123.88C93.984 123.96 93.944 124 93.864 124H93.264C93.208 124 93.16 123.972 93.12 123.916L89.028 117.256C89.02 117.232 89.008 117.224 88.992 117.232C88.976 117.232 88.968 117.244 88.968 117.268L88.98 123.88C88.98 123.96 88.94 124 88.86 124H88.248C88.168 124 88.128 123.96 88.128 123.88V115.72C88.128 115.64 88.168 115.6 88.248 115.6H88.848C88.904 115.6 88.952 115.628 88.992 115.684L93.084 122.344C93.092 122.368 93.104 122.38 93.12 122.38C93.136 122.372 93.144 122.356 93.144 122.332L93.132 115.72ZM98.1694 117.832C98.8894 117.832 99.4454 118.016 99.8374 118.384C100.229 118.752 100.425 119.24 100.425 119.848V123.88C100.425 123.96 100.385 124 100.305 124H99.6934C99.6134 124 99.5734 123.96 99.5734 123.88V123.388C99.5734 123.372 99.5654 123.36 99.5494 123.352C99.5414 123.344 99.5294 123.348 99.5134 123.364C99.3134 123.604 99.0534 123.788 98.7334 123.916C98.4134 124.036 98.0574 124.096 97.6654 124.096C97.0974 124.096 96.6214 123.952 96.2374 123.664C95.8534 123.376 95.6614 122.936 95.6614 122.344C95.6614 121.744 95.8774 121.272 96.3094 120.928C96.7494 120.576 97.3574 120.4 98.1334 120.4H99.5254C99.5574 120.4 99.5734 120.384 99.5734 120.352V119.896C99.5734 119.488 99.4574 119.168 99.2254 118.936C99.0014 118.696 98.6494 118.576 98.1694 118.576C97.7854 118.576 97.4734 118.652 97.2334 118.804C96.9934 118.948 96.8454 119.152 96.7894 119.416C96.7654 119.496 96.7174 119.532 96.6454 119.524L95.9974 119.44C95.9094 119.424 95.8734 119.392 95.8894 119.344C95.9534 118.896 96.1934 118.532 96.6094 118.252C97.0254 117.972 97.5454 117.832 98.1694 117.832ZM97.8334 123.364C98.3054 123.364 98.7134 123.248 99.0574 123.016C99.4014 122.776 99.5734 122.456 99.5734 122.056V121.12C99.5734 121.088 99.5574 121.072 99.5254 121.072H98.2654C97.7374 121.072 97.3134 121.18 96.9934 121.396C96.6734 121.612 96.5134 121.912 96.5134 122.296C96.5134 122.648 96.6334 122.916 96.8734 123.1C97.1214 123.276 97.4414 123.364 97.8334 123.364ZM108.342 117.844C108.942 117.844 109.414 118.024 109.758 118.384C110.11 118.744 110.286 119.236 110.286 119.86V123.88C110.286 123.96 110.246 124 110.166 124H109.566C109.486 124 109.446 123.96 109.446 123.88V120.028C109.446 119.588 109.318 119.24 109.062 118.984C108.814 118.72 108.486 118.588 108.078 118.588C107.654 118.588 107.31 118.716 107.046 118.972C106.79 119.228 106.662 119.572 106.662 120.004V123.88C106.662 123.96 106.622 124 106.542 124H105.93C105.85 124 105.81 123.96 105.81 123.88V120.028C105.81 119.588 105.686 119.24 105.438 118.984C105.19 118.72 104.858 118.588 104.442 118.588C104.018 118.588 103.678 118.716 103.422 118.972C103.174 119.228 103.05 119.572 103.05 120.004V123.88C103.05 123.96 103.01 124 102.93 124H102.318C102.238 124 102.198 123.96 102.198 123.88V118.048C102.198 117.968 102.238 117.928 102.318 117.928H102.93C103.01 117.928 103.05 117.968 103.05 118.048V118.528C103.05 118.544 103.054 118.556 103.062 118.564C103.078 118.564 103.094 118.556 103.11 118.54C103.286 118.308 103.51 118.136 103.782 118.024C104.062 117.904 104.37 117.844 104.706 117.844C105.122 117.844 105.478 117.928 105.774 118.096C106.07 118.264 106.294 118.508 106.446 118.828C106.462 118.868 106.482 118.868 106.506 118.828C106.682 118.5 106.93 118.256 107.25 118.096C107.57 117.928 107.934 117.844 108.342 117.844ZM116.698 119.944C116.73 120.168 116.746 120.448 116.746 120.784V121.168C116.746 121.248 116.706 121.288 116.626 121.288H112.75C112.718 121.288 112.702 121.304 112.702 121.336C112.718 121.776 112.742 122.06 112.774 122.188C112.862 122.548 113.05 122.832 113.338 123.04C113.626 123.248 113.994 123.352 114.442 123.352C114.778 123.352 115.074 123.276 115.33 123.124C115.586 122.972 115.786 122.756 115.93 122.476C115.978 122.404 116.034 122.388 116.098 122.428L116.566 122.704C116.63 122.744 116.646 122.8 116.614 122.872C116.414 123.256 116.114 123.56 115.714 123.784C115.314 124 114.854 124.108 114.334 124.108C113.766 124.1 113.29 123.964 112.906 123.7C112.522 123.436 112.246 123.068 112.078 122.596C111.934 122.212 111.862 121.66 111.862 120.94C111.862 120.604 111.866 120.332 111.874 120.124C111.89 119.908 111.922 119.716 111.97 119.548C112.106 119.028 112.378 118.612 112.786 118.3C113.202 117.988 113.702 117.832 114.286 117.832C115.014 117.832 115.574 118.016 115.966 118.384C116.358 118.752 116.602 119.272 116.698 119.944ZM114.286 118.576C113.894 118.576 113.566 118.68 113.302 118.888C113.046 119.088 112.878 119.36 112.798 119.704C112.75 119.872 112.718 120.144 112.702 120.52C112.702 120.552 112.718 120.568 112.75 120.568H115.858C115.89 120.568 115.906 120.552 115.906 120.52C115.89 120.16 115.866 119.904 115.834 119.752C115.746 119.392 115.566 119.108 115.294 118.9C115.03 118.684 114.694 118.576 114.286 118.576Z" fill="black"/>
<rect x="63" y="156" width="291" height="39" rx="2.83212" fill="#F2F2F2"/>
<path opacity="0.3" d="M91.32 171.588C92.024 171.588 92.588 171.804 93.012 172.236C93.444 172.668 93.66 173.236 93.66 173.94C93.66 174.636 93.44 175.196 93 175.62C92.568 176.044 91.996 176.256 91.284 176.256H88.944C88.912 176.256 88.896 176.272 88.896 176.304V179.88C88.896 179.96 88.856 180 88.776 180H88.164C88.084 180 88.044 179.96 88.044 179.88V171.708C88.044 171.628 88.084 171.588 88.164 171.588H91.32ZM91.224 175.548C91.696 175.548 92.08 175.404 92.376 175.116C92.672 174.82 92.82 174.432 92.82 173.952C92.82 173.464 92.672 173.072 92.376 172.776C92.08 172.48 91.696 172.332 91.224 172.332H88.944C88.912 172.332 88.896 172.348 88.896 172.38V175.5C88.896 175.532 88.912 175.548 88.944 175.548H91.224ZM97.1264 173.832C97.8464 173.832 98.4024 174.016 98.7944 174.384C99.1864 174.752 99.3824 175.24 99.3824 175.848V179.88C99.3824 179.96 99.3424 180 99.2624 180H98.6504C98.5704 180 98.5304 179.96 98.5304 179.88V179.388C98.5304 179.372 98.5224 179.36 98.5064 179.352C98.4984 179.344 98.4864 179.348 98.4704 179.364C98.2704 179.604 98.0104 179.788 97.6904 179.916C97.3704 180.036 97.0144 180.096 96.6224 180.096C96.0544 180.096 95.5784 179.952 95.1944 179.664C94.8104 179.376 94.6184 178.936 94.6184 178.344C94.6184 177.744 94.8344 177.272 95.2664 176.928C95.7064 176.576 96.3144 176.4 97.0904 176.4H98.4824C98.5144 176.4 98.5304 176.384 98.5304 176.352V175.896C98.5304 175.488 98.4144 175.168 98.1824 174.936C97.9584 174.696 97.6064 174.576 97.1264 174.576C96.7424 174.576 96.4304 174.652 96.1904 174.804C95.9504 174.948 95.8024 175.152 95.7464 175.416C95.7224 175.496 95.6744 175.532 95.6024 175.524L94.9544 175.44C94.8664 175.424 94.8304 175.392 94.8464 175.344C94.9104 174.896 95.1504 174.532 95.5664 174.252C95.9824 173.972 96.5024 173.832 97.1264 173.832ZM96.7904 179.364C97.2624 179.364 97.6704 179.248 98.0144 179.016C98.3584 178.776 98.5304 178.456 98.5304 178.056V177.12C98.5304 177.088 98.5144 177.072 98.4824 177.072H97.2224C96.6944 177.072 96.2704 177.18 95.9504 177.396C95.6304 177.612 95.4704 177.912 95.4704 178.296C95.4704 178.648 95.5904 178.916 95.8304 179.1C96.0784 179.276 96.3984 179.364 96.7904 179.364ZM103.147 180.06C102.699 180.06 102.299 179.988 101.947 179.844C101.603 179.7 101.335 179.508 101.143 179.268C100.959 179.028 100.867 178.76 100.867 178.464V178.32C100.867 178.24 100.907 178.2 100.987 178.2H101.563C101.643 178.2 101.683 178.24 101.683 178.32V178.416C101.683 178.68 101.819 178.912 102.091 179.112C102.371 179.304 102.719 179.4 103.135 179.4C103.551 179.4 103.887 179.308 104.143 179.124C104.399 178.932 104.527 178.692 104.527 178.404C104.527 178.204 104.459 178.04 104.323 177.912C104.195 177.784 104.039 177.684 103.855 177.612C103.679 177.54 103.403 177.448 103.027 177.336C102.579 177.208 102.211 177.08 101.923 176.952C101.635 176.824 101.391 176.648 101.191 176.424C100.999 176.192 100.903 175.9 100.903 175.548C100.903 175.036 101.103 174.628 101.503 174.324C101.903 174.02 102.431 173.868 103.087 173.868C103.527 173.868 103.915 173.94 104.251 174.084C104.595 174.228 104.859 174.428 105.043 174.684C105.227 174.932 105.319 175.212 105.319 175.524V175.56C105.319 175.64 105.279 175.68 105.199 175.68H104.635C104.555 175.68 104.515 175.64 104.515 175.56V175.524C104.515 175.252 104.383 175.024 104.119 174.84C103.863 174.656 103.515 174.564 103.075 174.564C102.667 174.564 102.339 174.648 102.091 174.816C101.843 174.976 101.719 175.2 101.719 175.488C101.719 175.76 101.839 175.968 102.079 176.112C102.319 176.256 102.691 176.4 103.195 176.544C103.659 176.68 104.035 176.808 104.323 176.928C104.611 177.048 104.859 177.224 105.067 177.456C105.275 177.68 105.379 177.976 105.379 178.344C105.379 178.864 105.175 179.28 104.767 179.592C104.359 179.904 103.819 180.06 103.147 180.06ZM108.749 180.06C108.301 180.06 107.901 179.988 107.549 179.844C107.205 179.7 106.937 179.508 106.745 179.268C106.561 179.028 106.469 178.76 106.469 178.464V178.32C106.469 178.24 106.509 178.2 106.589 178.2H107.165C107.245 178.2 107.285 178.24 107.285 178.32V178.416C107.285 178.68 107.421 178.912 107.693 179.112C107.973 179.304 108.321 179.4 108.737 179.4C109.153 179.4 109.489 179.308 109.745 179.124C110.001 178.932 110.129 178.692 110.129 178.404C110.129 178.204 110.061 178.04 109.925 177.912C109.797 177.784 109.641 177.684 109.457 177.612C109.281 177.54 109.005 177.448 108.629 177.336C108.181 177.208 107.813 177.08 107.525 176.952C107.237 176.824 106.993 176.648 106.793 176.424C106.601 176.192 106.505 175.9 106.505 175.548C106.505 175.036 106.705 174.628 107.105 174.324C107.505 174.02 108.033 173.868 108.689 173.868C109.129 173.868 109.517 173.94 109.853 174.084C110.197 174.228 110.461 174.428 110.645 174.684C110.829 174.932 110.921 175.212 110.921 175.524V175.56C110.921 175.64 110.881 175.68 110.801 175.68H110.237C110.157 175.68 110.117 175.64 110.117 175.56V175.524C110.117 175.252 109.985 175.024 109.721 174.84C109.465 174.656 109.117 174.564 108.677 174.564C108.269 174.564 107.941 174.648 107.693 174.816C107.445 174.976 107.321 175.2 107.321 175.488C107.321 175.76 107.441 175.968 107.681 176.112C107.921 176.256 108.293 176.4 108.797 176.544C109.261 176.68 109.637 176.808 109.925 176.928C110.213 177.048 110.461 177.224 110.669 177.456C110.877 177.68 110.981 177.976 110.981 178.344C110.981 178.864 110.777 179.28 110.369 179.592C109.961 179.904 109.421 180.06 108.749 180.06ZM113.419 180C113.355 180 113.311 179.968 113.287 179.904L111.583 174.06L111.571 174.024C111.571 173.96 111.611 173.928 111.691 173.928H112.315C112.387 173.928 112.431 173.964 112.447 174.036L113.719 178.764C113.727 178.78 113.735 178.788 113.743 178.788C113.759 178.788 113.771 178.78 113.779 178.764L115.075 174.036C115.091 173.964 115.135 173.928 115.207 173.928H115.783C115.855 173.928 115.899 173.96 115.915 174.024L117.223 178.752C117.231 178.768 117.243 178.776 117.259 178.776C117.275 178.776 117.287 178.768 117.295 178.752L118.603 174.036C118.619 173.964 118.663 173.928 118.735 173.928L119.359 173.94C119.399 173.94 119.427 173.952 119.443 173.976C119.467 174 119.475 174.032 119.467 174.072L117.739 179.904C117.715 179.968 117.671 180 117.607 180H116.971C116.907 180 116.863 179.968 116.839 179.904L115.531 175.416C115.523 175.4 115.511 175.392 115.495 175.392C115.487 175.392 115.479 175.4 115.471 175.416L114.199 179.904C114.175 179.968 114.131 180 114.067 180H113.419ZM122.924 180.096C122.348 180.096 121.852 179.948 121.436 179.652C121.02 179.356 120.732 178.948 120.572 178.428C120.46 178.06 120.404 177.568 120.404 176.952C120.404 176.336 120.46 175.848 120.572 175.488C120.724 174.976 121.008 174.572 121.424 174.276C121.84 173.98 122.344 173.832 122.936 173.832C123.504 173.832 123.992 173.98 124.4 174.276C124.816 174.572 125.1 174.972 125.252 175.476C125.364 175.82 125.42 176.312 125.42 176.952C125.42 177.6 125.364 178.092 125.252 178.428C125.1 178.948 124.816 179.356 124.4 179.652C123.992 179.948 123.5 180.096 122.924 180.096ZM122.924 179.352C123.308 179.352 123.636 179.248 123.908 179.04C124.18 178.824 124.364 178.536 124.46 178.176C124.532 177.888 124.568 177.484 124.568 176.964C124.568 176.436 124.536 176.032 124.472 175.752C124.376 175.392 124.188 175.108 123.908 174.9C123.636 174.684 123.304 174.576 122.912 174.576C122.52 174.576 122.188 174.684 121.916 174.9C121.644 175.108 121.46 175.392 121.364 175.752C121.3 176.032 121.268 176.436 121.268 176.964C121.268 177.492 121.3 177.896 121.364 178.176C121.452 178.536 121.632 178.824 121.904 179.04C122.184 179.248 122.524 179.352 122.924 179.352ZM129.596 173.868C129.86 173.868 130.088 173.92 130.28 174.024C130.344 174.056 130.368 174.108 130.352 174.18L130.22 174.768C130.196 174.848 130.144 174.872 130.064 174.84C129.928 174.784 129.772 174.756 129.596 174.756L129.44 174.768C129.024 174.784 128.68 174.94 128.408 175.236C128.136 175.524 128 175.892 128 176.34V179.88C128 179.96 127.96 180 127.88 180H127.268C127.188 180 127.148 179.96 127.148 179.88V174.048C127.148 173.968 127.188 173.928 127.268 173.928H127.88C127.96 173.928 128 173.968 128 174.048V174.78C128 174.804 128.004 174.82 128.012 174.828C128.028 174.828 128.04 174.82 128.048 174.804C128.216 174.508 128.428 174.28 128.684 174.12C128.948 173.952 129.252 173.868 129.596 173.868ZM134.407 174.516C134.407 174.596 134.367 174.636 134.287 174.636H132.931C132.899 174.636 132.883 174.652 132.883 174.684V178.224C132.883 178.608 132.967 178.88 133.135 179.04C133.311 179.192 133.583 179.268 133.951 179.268H134.251C134.331 179.268 134.371 179.308 134.371 179.388V179.88C134.371 179.96 134.331 180 134.251 180C134.155 180.008 134.007 180.012 133.807 180.012C133.231 180.012 132.795 179.904 132.499 179.688C132.203 179.472 132.055 179.072 132.055 178.488V174.684C132.055 174.652 132.039 174.636 132.007 174.636H131.275C131.195 174.636 131.155 174.596 131.155 174.516V174.048C131.155 173.968 131.195 173.928 131.275 173.928H132.007C132.039 173.928 132.055 173.912 132.055 173.88V172.488C132.055 172.408 132.095 172.368 132.175 172.368H132.763C132.843 172.368 132.883 172.408 132.883 172.488V173.88C132.883 173.912 132.899 173.928 132.931 173.928H134.287C134.367 173.928 134.407 173.968 134.407 174.048V174.516Z" fill="black"/>
<path d="M64.53 77C64.47 77 64.416 76.982 64.368 76.946C64.332 76.898 64.314 76.844 64.314 76.784V64.616C64.314 64.556 64.332 64.508 64.368 64.472C64.416 64.424 64.47 64.4 64.53 64.4H66.186C66.246 64.4 66.294 64.424 66.33 64.472C66.378 64.508 66.402 64.556 66.402 64.616V75.11C66.402 75.17 66.432 75.2 66.492 75.2H72.522C72.582 75.2 72.63 75.224 72.666 75.272C72.714 75.308 72.738 75.356 72.738 75.416V76.784C72.738 76.844 72.714 76.898 72.666 76.946C72.63 76.982 72.582 77 72.522 77H64.53ZM78.3052 77.144C77.3572 77.144 76.5412 76.904 75.8572 76.424C75.1852 75.944 74.7112 75.278 74.4352 74.426C74.2312 73.778 74.1292 73.094 74.1292 72.374C74.1292 71.606 74.2252 70.922 74.4172 70.322C74.6932 69.482 75.1732 68.828 75.8572 68.36C76.5412 67.892 77.3632 67.658 78.3232 67.658C79.2352 67.658 80.0212 67.892 80.6812 68.36C81.3532 68.828 81.8272 69.476 82.1032 70.304C82.3192 70.88 82.4272 71.564 82.4272 72.356C82.4272 73.112 82.3252 73.796 82.1212 74.408C81.8452 75.26 81.3712 75.932 80.6992 76.424C80.0272 76.904 79.2292 77.144 78.3052 77.144ZM78.3052 75.344C78.7492 75.344 79.1272 75.218 79.4392 74.966C79.7632 74.714 79.9972 74.36 80.1412 73.904C80.2612 73.508 80.3212 73.004 80.3212 72.392C80.3212 71.744 80.2612 71.24 80.1412 70.88C80.0092 70.424 79.7812 70.076 79.4572 69.836C79.1332 69.584 78.7372 69.458 78.2692 69.458C77.8252 69.458 77.4412 69.584 77.1172 69.836C76.7932 70.076 76.5592 70.424 76.4152 70.88C76.2952 71.3 76.2352 71.804 76.2352 72.392C76.2352 72.98 76.2952 73.484 76.4152 73.904C76.5472 74.36 76.7752 74.714 77.0992 74.966C77.4352 75.218 77.8372 75.344 78.3052 75.344ZM90.0352 68.018C90.0352 67.958 90.0532 67.91 90.0892 67.874C90.1372 67.826 90.1912 67.802 90.2512 67.802H91.9072C91.9672 67.802 92.0152 67.826 92.0512 67.874C92.0992 67.91 92.1232 67.958 92.1232 68.018V76.388C92.1232 77.888 91.6912 78.956 90.8272 79.592C89.9752 80.24 88.8532 80.564 87.4612 80.564C87.0892 80.564 86.7232 80.546 86.3632 80.51C86.2312 80.498 86.1652 80.42 86.1652 80.276L86.2192 78.8C86.2192 78.668 86.3032 78.602 86.4712 78.602C86.8192 78.638 87.1312 78.656 87.4072 78.656C88.3072 78.656 88.9672 78.476 89.3872 78.116C89.8192 77.768 90.0352 77.174 90.0352 76.334V76.19C90.0352 76.154 90.0232 76.136 89.9992 76.136C89.9752 76.124 89.9512 76.13 89.9272 76.154C89.4352 76.682 88.7392 76.946 87.8392 76.946C87.0592 76.946 86.3452 76.748 85.6972 76.352C85.0492 75.956 84.5992 75.35 84.3472 74.534C84.1912 73.97 84.1132 73.244 84.1132 72.356C84.1132 71.36 84.2092 70.598 84.4012 70.07C84.6412 69.338 85.0552 68.756 85.6432 68.324C86.2312 67.88 86.9212 67.658 87.7132 67.658C88.6612 67.658 89.3992 67.934 89.9272 68.486C89.9512 68.522 89.9752 68.534 89.9992 68.522C90.0232 68.51 90.0352 68.486 90.0352 68.45V68.018ZM89.9092 73.94C89.9572 73.76 89.9872 73.568 89.9992 73.364C90.0232 73.148 90.0352 72.806 90.0352 72.338C90.0352 71.882 90.0232 71.558 89.9992 71.366C89.9872 71.162 89.9512 70.964 89.8912 70.772C89.7952 70.376 89.5972 70.058 89.2972 69.818C89.0092 69.578 88.6372 69.458 88.1812 69.458C87.7492 69.458 87.3832 69.578 87.0832 69.818C86.7832 70.058 86.5672 70.376 86.4352 70.772C86.2912 71.108 86.2192 71.636 86.2192 72.356C86.2192 73.1 86.2792 73.622 86.3992 73.922C86.5192 74.306 86.7352 74.624 87.0472 74.876C87.3712 75.116 87.7552 75.236 88.1992 75.236C88.6672 75.236 89.0452 75.116 89.3332 74.876C89.6212 74.636 89.8132 74.324 89.9092 73.94ZM95.4681 66.542C95.0961 66.542 94.7901 66.422 94.5501 66.182C94.3101 65.942 94.1901 65.636 94.1901 65.264C94.1901 64.892 94.3101 64.586 94.5501 64.346C94.7901 64.106 95.0961 63.986 95.4681 63.986C95.8401 63.986 96.1461 64.106 96.3861 64.346C96.6261 64.586 96.7461 64.892 96.7461 65.264C96.7461 65.636 96.6261 65.942 96.3861 66.182C96.1461 66.422 95.8401 66.542 95.4681 66.542ZM94.6041 77C94.5441 77 94.4901 76.982 94.4421 76.946C94.4061 76.898 94.3881 76.844 94.3881 76.784V68C94.3881 67.94 94.4061 67.892 94.4421 67.856C94.4901 67.808 94.5441 67.784 94.6041 67.784H96.2601C96.3201 67.784 96.3681 67.808 96.4041 67.856C96.4521 67.892 96.4761 67.94 96.4761 68V76.784C96.4761 76.844 96.4521 76.898 96.4041 76.946C96.3681 76.982 96.3201 77 96.2601 77H94.6041ZM103.278 67.658C104.25 67.658 105.024 67.946 105.6 68.522C106.188 69.098 106.482 69.884 106.482 70.88V76.784C106.482 76.844 106.458 76.898 106.41 76.946C106.374 76.982 106.326 77 106.266 77H104.61C104.55 77 104.496 76.982 104.448 76.946C104.412 76.898 104.394 76.844 104.394 76.784V71.312C104.394 70.76 104.238 70.316 103.926 69.98C103.614 69.632 103.2 69.458 102.684 69.458C102.168 69.458 101.748 69.626 101.424 69.962C101.112 70.298 100.956 70.742 100.956 71.294V76.784C100.956 76.844 100.932 76.898 100.884 76.946C100.848 76.982 100.8 77 100.74 77H99.084C99.024 77 98.97 76.982 98.922 76.946C98.886 76.898 98.868 76.844 98.868 76.784V68.018C98.868 67.958 98.886 67.91 98.922 67.874C98.97 67.826 99.024 67.802 99.084 67.802H100.74C100.8 67.802 100.848 67.826 100.884 67.874C100.932 67.91 100.956 67.958 100.956 68.018V68.594C100.956 68.63 100.968 68.654 100.992 68.666C101.016 68.678 101.034 68.666 101.046 68.63C101.538 67.982 102.282 67.658 103.278 67.658Z" fill="#0000C4"/>
<rect x="179.824" y="266" width="174.175" height="39.6496" rx="5.66423" fill="#D2EEFF"/>
<path fill-rule="evenodd" clip-rule="evenodd" d="M199.252 280.294C199.451 280.095 199.721 279.983 200.003 279.983H210.623C210.905 279.983 211.175 280.095 211.374 280.294C211.574 280.494 211.685 280.764 211.685 281.045V284.942C211.685 290.882 206.642 292.848 205.653 293.177C205.433 293.255 205.193 293.255 204.973 293.177C203.984 292.848 198.941 290.882 198.941 284.942V281.045C198.941 280.764 199.053 280.494 199.252 280.294ZM210.623 281.045H200.003L200.003 284.942C200.003 290.137 204.397 291.867 205.313 292.17C206.229 291.867 210.623 290.137 210.623 284.942V281.045ZM203.847 282.611C204.266 282.285 204.782 282.108 205.313 282.108C205.844 282.108 206.36 282.285 206.779 282.611C207.199 282.937 207.498 283.393 207.629 283.908C207.76 284.423 207.716 284.966 207.504 285.453C207.357 285.789 207.137 286.084 206.861 286.318L207.606 288.057C207.676 288.218 207.705 288.393 207.69 288.568C207.676 288.743 207.618 288.912 207.522 289.06C207.426 289.207 207.294 289.328 207.14 289.412C206.985 289.497 206.812 289.541 206.636 289.542L206.634 289.542H203.992L203.99 289.542C203.814 289.541 203.641 289.497 203.487 289.412C203.332 289.328 203.201 289.207 203.105 289.06C203.009 288.912 202.951 288.743 202.936 288.568C202.921 288.393 202.95 288.218 203.02 288.057L203.765 286.318C203.49 286.084 203.269 285.789 203.123 285.453C202.91 284.966 202.866 284.423 202.998 283.908C203.129 283.393 203.428 282.937 203.847 282.611ZM205.313 283.17C205.018 283.17 204.732 283.269 204.499 283.45C204.266 283.631 204.1 283.884 204.027 284.17C203.954 284.456 203.978 284.758 204.096 285.029C204.214 285.299 204.419 285.522 204.678 285.664C204.918 285.795 205.02 286.087 204.912 286.339L203.994 288.48L206.632 288.48L206.631 288.476L205.715 286.339C205.607 286.087 205.708 285.795 205.949 285.664C206.208 285.522 206.412 285.299 206.53 285.029C206.648 284.758 206.672 284.456 206.6 284.17C206.527 283.884 206.361 283.631 206.128 283.45C205.895 283.269 205.608 283.17 205.313 283.17Z" fill="#0000C4"/>
<g clip-path="url(#clip0_1579_37086)">
<path d="M103.925 293.743C103.773 293.743 103.674 293.667 103.628 293.515L98.8311 278.102L98.8083 278.011C98.8083 277.859 98.892 277.783 99.0596 277.783H101.321C101.488 277.783 101.595 277.859 101.641 278.011L105.067 289.912C105.082 289.958 105.105 289.981 105.135 289.981C105.166 289.981 105.189 289.958 105.204 289.912L108.607 278.011C108.653 277.859 108.76 277.783 108.927 277.783H111.143C111.234 277.783 111.303 277.813 111.348 277.874C111.394 277.935 111.402 278.011 111.371 278.102L106.506 293.515C106.46 293.667 106.361 293.743 106.209 293.743H103.925Z" fill="#0000C4"/>
<path d="M115.148 293.743C115.072 293.743 115.003 293.72 114.943 293.674C114.897 293.614 114.874 293.545 114.874 293.469V278.056C114.874 277.98 114.897 277.92 114.943 277.874C115.003 277.813 115.072 277.783 115.148 277.783H117.25C117.326 277.783 117.387 277.813 117.432 277.874C117.493 277.92 117.524 277.98 117.524 278.056V293.469C117.524 293.545 117.493 293.614 117.432 293.674C117.387 293.72 117.326 293.743 117.25 293.743H115.148Z" fill="#0000C4"/>
<path d="M122.268 293.743C122.192 293.743 122.124 293.72 122.063 293.674C122.017 293.614 121.994 293.545 121.994 293.469V278.056C121.994 277.98 122.017 277.92 122.063 277.874C122.124 277.813 122.192 277.783 122.268 277.783H127.842C128.923 277.783 129.875 277.973 130.697 278.353C131.519 278.733 132.151 279.28 132.593 279.994C133.05 280.694 133.278 281.514 133.278 282.457V289.069C133.278 290.011 133.05 290.84 132.593 291.554C132.151 292.253 131.519 292.793 130.697 293.173C129.875 293.553 128.923 293.743 127.842 293.743H122.268ZM124.644 291.349C124.644 291.425 124.682 291.463 124.758 291.463H127.956C128.763 291.463 129.402 291.212 129.875 290.71C130.362 290.194 130.613 289.51 130.628 288.658V282.89C130.628 282.024 130.385 281.34 129.897 280.838C129.41 280.321 128.755 280.063 127.933 280.063H124.758C124.682 280.063 124.644 280.101 124.644 280.177V291.349Z" fill="#0000C4"/>
<path d="M137.53 293.743C137.454 293.743 137.386 293.72 137.325 293.674C137.279 293.614 137.256 293.545 137.256 293.469V278.056C137.256 277.98 137.279 277.92 137.325 277.874C137.386 277.813 137.454 277.783 137.53 277.783H139.632C139.708 277.783 139.769 277.813 139.814 277.874C139.875 277.92 139.906 277.98 139.906 278.056V293.469C139.906 293.545 139.875 293.614 139.814 293.674C139.769 293.72 139.708 293.743 139.632 293.743H137.53Z" fill="#0000C4"/>
<path d="M149.539 293.925C148.351 293.925 147.315 293.735 146.432 293.355C145.549 292.975 144.864 292.443 144.376 291.759C143.904 291.075 143.668 290.27 143.668 289.342V288.772C143.668 288.696 143.691 288.636 143.737 288.59C143.798 288.529 143.866 288.499 143.942 288.499H145.975C146.051 288.499 146.112 288.529 146.158 288.59C146.219 288.636 146.249 288.696 146.249 288.772V289.206C146.249 289.905 146.562 290.49 147.186 290.961C147.81 291.417 148.663 291.645 149.744 291.645C150.673 291.645 151.373 291.448 151.846 291.052C152.318 290.657 152.554 290.148 152.554 289.525C152.554 289.099 152.424 288.742 152.165 288.453C151.906 288.149 151.533 287.876 151.046 287.632C150.574 287.389 149.858 287.085 148.899 286.72C147.818 286.325 146.942 285.953 146.272 285.603C145.602 285.254 145.039 284.782 144.582 284.19C144.14 283.582 143.92 282.829 143.92 281.932C143.92 280.595 144.407 279.538 145.381 278.763C146.356 277.988 147.658 277.6 149.287 277.6C150.429 277.6 151.434 277.798 152.302 278.193C153.186 278.588 153.871 279.143 154.358 279.858C154.845 280.557 155.089 281.37 155.089 282.297V282.685C155.089 282.761 155.059 282.829 154.998 282.89C154.952 282.936 154.891 282.958 154.815 282.958H152.759C152.683 282.958 152.615 282.936 152.554 282.89C152.508 282.829 152.485 282.761 152.485 282.685V282.434C152.485 281.72 152.188 281.119 151.594 280.633C151.016 280.131 150.209 279.88 149.173 279.88C148.336 279.88 147.681 280.055 147.209 280.405C146.752 280.754 146.523 281.248 146.523 281.887C146.523 282.343 146.645 282.715 146.889 283.004C147.133 283.293 147.498 283.559 147.985 283.802C148.473 284.03 149.226 284.326 150.247 284.691C151.328 285.102 152.188 285.474 152.828 285.808C153.483 286.143 154.038 286.614 154.495 287.222C154.967 287.815 155.203 288.56 155.203 289.456C155.203 290.824 154.693 291.911 153.673 292.717C152.668 293.522 151.29 293.925 149.539 293.925Z" fill="#0000C4"/>
<path d="M103.925 293.743C103.773 293.743 103.674 293.667 103.628 293.515L98.8311 278.102L98.8083 278.011C98.8083 277.859 98.892 277.783 99.0596 277.783H101.321C101.488 277.783 101.595 277.859 101.641 278.011L105.067 289.912C105.082 289.958 105.105 289.981 105.135 289.981C105.166 289.981 105.189 289.958 105.204 289.912L108.607 278.011C108.653 277.859 108.76 277.783 108.927 277.783H111.143C111.234 277.783 111.303 277.813 111.348 277.874C111.394 277.935 111.402 278.011 111.371 278.102L106.506 293.515C106.46 293.667 106.361 293.743 106.209 293.743H103.925Z" fill="#0000C4"/>
<path d="M103.925 293.743C103.773 293.743 103.674 293.667 103.628 293.515L98.8311 278.102L98.8083 278.011C98.8083 277.859 98.892 277.783 99.0596 277.783H101.321C101.488 277.783 101.595 277.859 101.641 278.011L105.067 289.912C105.082 289.958 105.105 289.981 105.135 289.981C105.166 289.981 105.189 289.958 105.204 289.912L108.607 278.011C108.653 277.859 108.76 277.783 108.927 277.783H111.143C111.234 277.783 111.303 277.813 111.348 277.874C111.394 277.935 111.402 278.011 111.371 278.102L106.506 293.515C106.46 293.667 106.361 293.743 106.209 293.743H103.925Z" fill="#0000C4"/>
<path d="M103.925 293.743C103.773 293.743 103.674 293.667 103.628 293.515L98.8311 278.102L98.8083 278.011C98.8083 277.859 98.892 277.783 99.0596 277.783H101.321C101.488 277.783 101.595 277.859 101.641 278.011L105.067 289.912C105.082 289.958 105.105 289.981 105.135 289.981C105.166 289.981 105.189 289.958 105.204 289.912L108.607 278.011C108.653 277.859 108.76 277.783 108.927 277.783H111.143C111.234 277.783 111.303 277.813 111.348 277.874C111.394 277.935 111.402 278.011 111.371 278.102L106.506 293.515C106.46 293.667 106.361 293.743 106.209 293.743H103.925Z" fill="#0000C4"/>
<path d="M75.9634 278.149L75.5262 271.668L77.6014 277.823H79.0813L81.1591 271.664L79.8514 271.665L78.3619 276.147L76.8572 271.665L75.5257 271.665L74.3179 272.165L74.6568 276.876L71.5516 273.311L70.3215 273.821L74.596 278.716L75.9634 278.149Z" fill="#0000C4"/>
<path d="M73.2059 279.644L70.3215 273.821L69.3964 274.745L71.5122 278.968L67.2792 276.863L66.3373 277.806L72.1597 280.691L73.2059 279.644Z" fill="#0000C4"/>
<path d="M71.2318 282.081L66.3373 277.806L65.8366 279.013L69.4079 282.105L64.6911 281.78L64.1814 283.01L70.6654 283.448L71.2318 282.081Z" fill="#0000C4"/>
<path d="M70.6664 288.204L64.192 288.641L70.3396 286.568V285.088L64.1814 283.01L64.1819 284.318L68.6642 285.808L64.1819 287.313L64.1824 288.644L64.6825 289.85L69.3937 289.51L65.8285 292.616L66.3382 293.846L71.2328 289.571L70.6664 288.204Z" fill="#0000C4"/>
<path d="M72.1607 290.961L66.3382 293.846L67.262 294.77L71.4848 292.654L69.3797 296.887L70.3221 297.83L73.2074 292.007L72.1607 290.961Z" fill="#0000C4"/>
<path d="M74.5987 292.935L70.3221 297.83L71.531 298.331L74.6225 294.759L74.2968 299.476L75.5274 299.986L75.9662 293.502L74.5987 292.935Z" fill="#0000C4"/>
<path d="M80.7228 293.501L81.1606 299.982L79.0853 293.827H77.6049L75.5274 299.986L76.8348 299.985L78.3249 295.503L79.8291 299.985H81.1606L82.3684 299.485L82.0294 294.773L85.1347 298.339L86.3653 297.829L82.0902 292.934L80.7228 293.501Z" fill="#0000C4"/>
<path d="M83.4812 292.005L86.3665 297.829L87.2911 296.904L85.1749 292.681L89.4079 294.787L90.3502 293.845L84.5274 290.959L83.4812 292.005Z" fill="#0000C4"/>
<path d="M92.5047 288.639L86.0207 288.201L85.4548 289.568L90.3502 293.845L90.8495 292.636L87.2782 289.545L91.995 289.87L92.5047 288.639Z" fill="#0000C4"/>
<path d="M86.02 283.446L92.4944 283.009L86.3468 285.082L86.3473 286.562L92.5047 288.639L92.505 287.332L88.0228 285.842L92.5045 284.337V283.005L92.0045 281.8L87.2927 282.139L90.8584 279.034L90.3488 277.804L85.4536 282.078L86.02 283.446Z" fill="#0000C4"/>
<path d="M84.5243 280.689L90.3488 277.804L89.423 276.879L85.2002 278.995L87.3058 274.762L86.3629 273.82L83.4776 279.643L84.5243 280.689Z" fill="#0000C4"/>
<path d="M82.0884 278.715L86.3629 273.82L85.1562 273.32L82.0641 276.891L82.3899 272.174L81.1591 271.664L80.721 278.148L82.0884 278.715Z" fill="#0000C4"/>
</g>
<g filter="url(#filter0_d_1579_37086)">
<path d="M319.548 320.921C318.265 321.662 316.65 320.799 316.552 319.321L315.595 304.862C315.485 303.206 317.323 302.144 318.703 303.067L330.746 311.126C331.977 311.95 331.917 313.78 330.634 314.52L319.548 320.921Z" fill="#0000C4"/>
<path d="M322.968 321.255C322.416 320.299 322.744 319.076 323.7 318.523L326.481 316.918C327.438 316.366 328.661 316.693 329.213 317.65L331.269 321.211C331.821 322.168 331.494 323.391 330.537 323.943L327.756 325.549C326.8 326.101 325.577 325.773 325.024 324.817L322.968 321.255Z" fill="#0000C4"/>
<path d="M319.548 320.921C318.265 321.662 316.65 320.799 316.552 319.321L315.595 304.862C315.485 303.206 317.323 302.144 318.703 303.067L330.746 311.126C331.977 311.95 331.917 313.78 330.634 314.52L319.548 320.921Z" stroke="#0000C4"/>
<path d="M322.968 321.255C322.416 320.299 322.744 319.076 323.7 318.523L326.481 316.918C327.438 316.366 328.661 316.693 329.213 317.65L331.269 321.211C331.821 322.168 331.494 323.391 330.537 323.943L327.756 325.549C326.8 326.101 325.577 325.773 325.024 324.817L322.968 321.255Z" stroke="#0000C4"/>
</g>
<path d="M248 272C258.571 248.802 269.445 243.983 278.632 242.709C287.819 241.436 291.795 255.169 280.922 255.169C270.048 255.169 278.632 226.973 322 220" stroke="#D2EEFF" stroke-width="2" stroke-linecap="round"/>
<path d="M328.554 237.577L339.576 226.554L343.611 241.611L328.554 237.577Z" fill="#D2EEFF" stroke="#D2EEFF"/>
<path d="M226.943 332.577L215.92 321.554L211.885 336.611L226.943 332.577Z" fill="#D2EEFF" stroke="#D2EEFF"/>
<circle cx="211.5" cy="246.5" r="2" fill="#D2EEFF" stroke="#D2EEFF"/>
<circle cx="238.5" cy="226.5" r="6" fill="#D2EEFF" stroke="#D2EEFF"/>
<defs>
<filter id="filter0_d_1579_37086" x="313.09" y="302.224" width="19.0437" height="28.0925" filterUnits="userSpaceOnUse" color-interpolation-filters="sRGB">
<feFlood flood-opacity="0" result="BackgroundImageFix"/>
<feColorMatrix in="SourceAlpha" type="matrix" values="0 0 0 0 0 0 0 0 0 0 0 0 0 0 0 0 0 0 127 0" result="hardAlpha"/>
<feOffset dx="-2" dy="4"/>
<feComposite in2="hardAlpha" operator="out"/>
<feColorMatrix type="matrix" values="0 0 0 0 0.823529 0 0 0 0 0.933333 0 0 0 0 1 0 0 0 1 0"/>
<feBlend mode="normal" in2="BackgroundImageFix" result="effect1_dropShadow_1579_37086"/>
<feBlend mode="normal" in="SourceGraphic" in2="effect1_dropShadow_1579_37086" result="shape"/>
</filter>
<clipPath id="clip0_1579_37086">
<rect width="93.2238" height="28.3212" fill="white" transform="translate(63 271.664)"/>
</clipPath>
</defs>
</svg>
